<svg width="183" height="76" viewBox="0 0 183 76" fill="none" xmlns="http://www.w3.org/2000/svg">
<path d="M41.4221 4.94999C41.497 4.94999 41.5687 4.92037 41.6216 4.86764C41.6745 4.81492 41.7042 4.7434 41.7042 4.66884C41.7042 4.59428 41.6745 4.52277 41.6216 4.47004C41.5687 4.41732 41.497 4.3877 41.4221 4.3877C41.3473 4.3877 41.2756 4.41732 41.2227 4.47004C41.1698 4.52277 41.1401 4.59428 41.1401 4.66884C41.1401 4.7434 41.1698 4.81492 41.2227 4.86764C41.2756 4.92037 41.3473 4.94999 41.4221 4.94999Z" fill="white"/>
<path d="M179.064 32.0697C178.12 32.0428 177.193 31.8074 176.351 31.3806C164.041 24.9891 150.076 21.2119 136.52 21.2119C135.002 21.2073 133.484 21.2823 131.973 21.4367C134.532 25.491 138.94 31.3881 141.959 35.0023C142.745 35.9387 142.98 36.5005 142.98 37.4087C142.98 38.9855 141.313 40.5118 139.543 40.5118C138.365 40.5118 137.664 40.0473 136.567 38.7664C132.888 34.4593 127.361 26.845 124.751 22.5209C111.881 24.7888 97.5328 32.3694 89.0537 39.0586C88.0843 39.8339 87.4098 40.1541 86.4365 40.1541C84.6347 40.1541 83.0678 38.6073 83.0678 36.8395C83.0678 35.8207 83.4436 35.0454 84.7719 33.948C97.7113 23.212 117.813 14.7325 134.882 14.7325C141.646 14.7325 148.176 15.6688 154.489 17.2063C158.322 18.1426 164.005 20.0396 168.845 22.1464C156.154 14.5003 140.246 7.51704 130.185 7.51704C127.622 7.51704 126.051 8.37286 126.051 10.0976C126.051 11.1088 126.615 12.4665 127.464 13.8317C125.215 14.052 122.986 14.435 120.793 14.9778C119.744 13.062 119.013 11.0171 119.013 8.8223C119.013 3.93086 122.207 0.92334 128.648 0.92334C143.229 0.92334 167.727 14.4703 179.96 24.3637C181.362 25.4985 182.741 26.9049 182.741 28.551C182.708 29.4991 182.306 30.3972 181.619 31.0543C180.933 31.7114 180.016 32.0757 179.064 32.0697Z" fill="white"/>
<path d="M20.6027 60.8903C20.6027 60.0195 21.1307 59.4783 21.9442 59.4783C22.7578 59.4783 23.2594 60.0195 23.2594 60.8903V62.3622C23.9696 60.9109 25.544 59.4783 26.9588 59.4783C27.8719 59.4783 28.3115 60.012 28.3115 60.7199C28.3115 61.4277 27.9358 61.9259 26.7615 62.2517C24.3303 62.9259 23.265 64.2798 23.265 66.881V74.4091C23.265 75.2781 22.7521 75.8174 21.9386 75.8174C21.1251 75.8174 20.5971 75.2781 20.5971 74.4091V60.8903H20.6027Z" fill="white"/>
<path d="M80.4018 60.8903C80.4018 60.0195 80.9297 59.4783 81.747 59.4783C82.5643 59.4783 83.0622 60.0195 83.0622 60.8903V62.3622C83.7724 60.9109 85.3468 59.4783 86.7635 59.4783C87.6747 59.4783 88.1181 60.012 88.1181 60.7199C88.1181 61.4277 87.7423 61.9259 86.5624 62.2517C84.1331 62.9259 83.0678 64.2798 83.0678 66.881V74.4091C83.0678 75.2781 82.5568 75.8174 81.7527 75.8174C80.9485 75.8174 80.4074 75.2781 80.4074 74.4091V60.8903H80.4018Z" fill="white"/>
<path d="M35.9151 59.4782C38.521 59.4782 40.195 60.5213 40.195 61.4595C40.2052 61.7473 40.1002 62.0273 39.9033 62.238C39.7063 62.4487 39.4335 62.5728 39.1448 62.5831C38.1715 62.5831 37.7093 61.8003 35.9151 61.8003C32.8883 61.8003 31.3345 64.497 31.3345 67.6543C31.3345 71.0738 33.0856 73.5064 35.9151 73.5064C37.8897 73.5064 38.3218 72.6956 39.2481 72.6956C39.8531 72.6956 40.2176 73.1001 40.2176 73.7237C40.2176 74.3473 39.7178 74.8136 38.8216 75.2218C37.9049 75.6196 36.9149 75.8218 35.9151 75.8154C31.3777 75.8154 28.6534 72.4221 28.6534 67.6487C28.6534 62.967 31.4022 59.4763 35.9151 59.4763" fill="white"/>
<path d="M44.103 68.6694C44.1519 71.2818 45.8522 73.5028 48.8339 73.5028C51.9696 73.5028 52.7136 71.7499 53.8447 71.7499C53.9909 71.7429 54.137 71.7669 54.2732 71.8203C54.4095 71.8738 54.5328 71.9554 54.6351 72.0598C54.7374 72.1642 54.8163 72.2891 54.8666 72.4261C54.9169 72.5631 54.9374 72.7093 54.9269 72.8548C54.9269 74.1451 52.0636 75.8174 48.8621 75.8174C46.4628 75.8174 44.8564 75.0683 43.6577 73.8492C42.134 72.3099 41.4238 70.0364 41.4238 67.6506C41.4238 63.2817 44.1368 59.4783 48.6272 59.4783C52.802 59.4783 55.5112 63.1562 55.5112 67.2574C55.5112 68.1937 55.1354 68.6694 54.0326 68.6694H44.103ZM52.8414 66.6825C52.8414 64.3997 51.5375 61.791 48.6159 61.791C45.7395 61.791 44.2007 64.0382 44.1068 66.6825H52.8414Z" fill="white"/>
<path d="M60.9767 74.4091C60.9767 75.278 60.4581 75.8173 59.6465 75.8173C58.8348 75.8173 58.3069 75.278 58.3069 74.4091V55.48C58.3069 54.6111 58.8311 54.0718 59.6465 54.0718C60.4619 54.0718 60.9767 54.6111 60.9767 55.48V74.4091Z" fill="white"/>
<path d="M70.6845 75.8268C66.4422 75.8268 63.6202 72.4559 63.6202 67.6506C63.6202 62.8454 66.4384 59.4727 70.6845 59.4727C74.9307 59.4727 77.7489 62.8435 77.7489 67.6506C77.7489 72.4578 74.9307 75.8268 70.6845 75.8268ZM70.6845 73.5028C73.2848 73.5028 75.0678 71.2406 75.0678 67.6506C75.0678 64.0607 73.2848 61.7929 70.6845 61.7929C68.0843 61.7929 66.3013 64.0607 66.3013 67.6506C66.3013 71.2406 68.0843 73.5028 70.6845 73.5028Z" fill="white"/>
<path d="M106.636 60.5812C105.146 65.6768 102.705 74.0495 102.502 74.7387C102.277 75.5008 101.811 75.8173 101.086 75.8173C100.36 75.8173 99.902 75.5495 99.6672 74.7387C99.4568 74.0252 96.8997 65.2461 95.4229 60.2048C95.1843 59.3733 94.957 58.3902 94.786 57.555C94.6846 58.3696 94.5549 59.3228 94.4103 60.2123C93.6475 64.9745 92.4657 72.4034 92.1388 74.5008C91.9941 75.4259 91.5206 75.8117 90.7466 75.8117C90.0213 75.8117 89.5591 75.3267 89.5591 74.5533C89.5763 74.1505 89.6253 73.7498 89.7057 73.3548C89.7057 73.3548 92.3811 57.3059 92.5953 56.0774C92.8227 54.7665 93.5047 54.0662 94.6151 54.0662C95.6014 54.0662 96.3849 54.6429 96.7005 55.7347C96.8884 56.4126 99.0528 63.952 100.424 68.718C100.676 69.5963 100.928 70.6281 101.121 71.5645C101.309 70.6487 101.54 69.6581 101.788 68.8023C103.154 64.0401 105.358 56.4164 105.546 55.7347C105.86 54.6429 106.557 54.0662 107.541 54.0662C108.586 54.0662 109.351 54.7441 109.563 56.0774C109.751 57.3059 112.453 73.3548 112.453 73.3548C112.536 73.7493 112.586 74.1503 112.601 74.5533C112.601 75.3267 112.139 75.8117 111.414 75.8117C110.638 75.8117 110.168 75.4203 110.021 74.5008C109.706 72.4652 108.578 65.3921 107.816 60.6224C107.66 59.6486 107.517 58.5494 107.4 57.5381C107.203 58.4201 106.942 59.5026 106.628 60.5812" fill="white"/>
<path d="M117.306 54.791C117.627 54.791 117.942 54.8861 118.209 55.0643C118.477 55.2425 118.686 55.4958 118.809 55.7921C118.932 56.0885 118.964 56.4146 118.901 56.7291C118.839 57.0437 118.684 57.3327 118.456 57.5595C118.228 57.7863 117.939 57.9408 117.623 58.0033C117.307 58.0659 116.98 58.0338 116.683 57.9111C116.386 57.7883 116.131 57.5804 115.953 57.3138C115.774 57.0471 115.678 56.7335 115.678 56.4128C115.678 56.1997 115.72 55.9885 115.801 55.7916C115.883 55.5946 116.003 55.4156 116.154 55.2649C116.305 55.1142 116.485 54.9948 116.682 54.9135C116.88 54.8321 117.092 54.7905 117.306 54.791ZM118.638 60.8903C118.638 60.0195 118.119 59.4783 117.306 59.4783C116.492 59.4783 115.972 60.0195 115.972 60.8903V74.4092C115.972 75.2781 116.486 75.8175 117.306 75.8175C118.125 75.8175 118.638 75.2781 118.638 74.4092V60.8903Z" fill="white"/>
<path d="M123.282 56.2049C123.282 55.3341 123.797 54.791 124.61 54.791C125.424 54.791 125.948 55.3341 125.948 56.2049V59.6581H127.034C127.908 59.6581 128.36 60.0832 128.36 60.8061C128.36 61.5289 127.908 61.9559 127.034 61.9559H125.948V74.4092C125.948 75.2781 125.424 75.8175 124.61 75.8175C123.797 75.8175 123.282 75.2781 123.282 74.4092V61.9559H122.313C121.441 61.9559 120.988 61.5252 120.988 60.8061C120.988 60.087 121.441 59.6581 122.313 59.6581H123.282V56.2049Z" fill="white"/>
<path d="M131.69 56.2049C131.69 55.3341 132.214 54.791 133.027 54.791C133.841 54.791 134.358 55.3341 134.358 56.2049V59.6581H135.444C136.321 59.6581 136.774 60.0832 136.774 60.8061C136.774 61.5289 136.321 61.9559 135.444 61.9559H134.358V74.4092C134.358 75.2781 133.841 75.8175 133.027 75.8175C132.214 75.8175 131.69 75.2781 131.69 74.4092V61.9559H130.717C129.845 61.9559 129.401 61.5252 129.401 60.8061C129.401 60.087 129.854 59.6581 130.717 59.6581H131.69V56.2049Z" fill="white"/>
<path d="M17.7356 73.3847C17.172 71.8866 11.9658 57.9351 11.1598 55.7815C10.7521 54.6991 10.1283 54.0718 9.09308 54.0718C8.03719 54.0718 7.4773 54.7029 7.06772 55.7815C6.69195 56.7478 1.02544 71.9016 0.459913 73.3847C0.211909 74.0402 0.116089 74.3922 0.116089 74.6731C0.116089 75.3417 0.679733 75.8173 1.38241 75.8173C2.08509 75.8173 2.5097 75.4428 2.73328 74.8267C2.86856 74.4521 3.60693 72.3922 4.54822 69.7704H13.6361C14.5247 72.2499 15.2387 74.2443 15.451 74.8267C15.6633 75.4091 16.024 75.8173 16.7474 75.8173C17.4407 75.8173 18.0926 75.3997 18.0926 74.7068C18.0926 74.4016 18.0212 74.1581 17.7319 73.3847M5.38993 67.4165C6.49656 64.3266 7.70464 60.9445 8.51441 58.6879C8.73799 58.0568 8.93902 57.4576 9.09496 56.9594C9.26218 57.5006 9.47073 58.1149 9.67176 58.6823C10.4797 60.9445 11.6859 64.3228 12.7962 67.4165H5.38993Z" fill="white"/>
<path d="M158.561 74.4091C158.561 75.278 158.036 75.8173 157.223 75.8173C156.409 75.8173 155.889 75.278 155.889 74.4091V55.48C155.889 54.6111 156.406 54.0718 157.223 54.0718C158.04 54.0718 158.561 54.6111 158.561 55.48V74.4091Z" fill="white"/>
<path d="M150.786 59.4783C149.971 59.4783 149.456 60.0195 149.456 60.8903V62.085C148.47 60.4727 146.869 59.4727 144.888 59.4727C140.825 59.4727 138.031 62.8435 138.031 67.6506C138.031 72.4578 140.825 75.8268 144.888 75.8268C146.869 75.8268 148.47 74.8267 149.456 73.205V74.3979C149.456 75.2706 149.971 75.8099 150.786 75.8099C151.602 75.8099 152.118 75.2706 152.118 74.3979V60.8903C152.118 60.0195 151.6 59.4783 150.786 59.4783ZM145.093 73.5065C142.493 73.5065 140.712 71.2406 140.712 67.6506C140.712 64.0607 142.493 61.7892 145.093 61.7892C147.694 61.7892 149.477 64.0551 149.477 67.6506C149.477 71.2462 147.694 73.5065 145.093 73.5065Z" fill="white"/>
</svg>
