<svg width="138" height="40" viewBox="0 0 138 40" fill="none" xmlns="http://www.w3.org/2000/svg">
<path d="M25.1489 19.2262C24.9208 19.2515 24.7941 19.2768 24.6421 19.2768C23.2989 19.2768 21.9304 19.2768 20.5872 19.2768C20.0803 19.2768 20.055 19.2262 19.9536 18.7701C19.7255 17.7061 19.4975 16.642 19.2947 15.578C19.244 15.2739 19.092 15.2233 18.8132 15.2233C18.129 15.2233 17.4194 15.2233 16.7351 15.2233C16.5577 15.2233 16.3803 15.198 16.2029 15.198C16.1776 14.7673 16.5324 13.5765 16.9379 12.7405C17.4954 12.7405 18.0783 12.7405 18.7372 12.7405C18.4077 10.8404 18.0783 9.01628 17.7742 7.19218C17.7235 7.19218 17.6728 7.16684 17.6475 7.16684C17.4954 7.44552 17.318 7.72421 17.1913 8.02823C16.7605 8.91494 16.355 9.80166 15.9241 10.663C14.9865 12.5125 14.0488 14.3619 13.0857 16.2367C12.3762 17.6047 11.6919 18.9728 10.9823 20.3409C10.6022 21.1009 10.1967 21.8356 9.81653 22.5703C9.71516 22.773 9.58846 22.8997 9.33503 22.8997C7.86516 22.8997 6.42061 22.8997 4.95073 22.8997C4.8747 22.8997 4.82403 22.849 4.72266 22.8237C4.72266 22.7477 4.72264 22.6463 4.74799 22.5957C5.15347 21.8103 5.58431 21.0503 5.98979 20.2649C6.52199 19.2515 7.02883 18.2381 7.56103 17.2247C8.57474 15.2993 9.58846 13.3739 10.6022 11.4737C11.2357 10.2577 11.8946 9.06695 12.5282 7.85089C13.5419 5.95078 14.5303 4.05068 15.544 2.15058C16.0002 1.2892 16.0002 1.31453 16.9632 1.31453C18.1796 1.31453 19.3961 1.31453 20.6125 1.31453C21.2208 1.31453 21.2461 1.31454 21.3728 1.89724C21.8797 4.2787 22.3865 6.66015 22.8934 9.01628C23.2735 10.739 23.6537 12.4871 24.0338 14.2099C24.4393 15.8313 24.7688 17.4781 25.1489 19.2262Z" fill="white"/>
<path d="M40.2523 1.28927C41.8488 1.28927 43.3948 1.28927 44.9914 1.28927C44.966 1.51728 44.966 1.74531 44.9153 1.97332C44.7379 3.03738 44.5605 4.10144 44.3831 5.16549C44.1297 6.73625 43.8763 8.30699 43.6228 9.85241C43.4961 10.6631 43.3948 11.4738 43.2427 12.2845C42.9386 14.0073 42.4317 15.6794 41.2153 17.0221C40.7844 17.5035 40.2776 17.9342 39.7201 18.2889C38.5543 19.0236 37.2618 19.4289 35.8679 19.6063C34.981 19.7329 34.1193 19.7329 33.2323 19.6823C31.7371 19.6063 30.2925 19.2516 29.1014 18.2889C28.2651 17.6302 27.7329 16.7434 27.5049 15.7047C27.4288 15.35 27.4035 14.9953 27.3781 14.6407C27.3021 13.1459 27.5302 11.7018 27.7836 10.2324C28.0117 8.94036 28.1891 7.62295 28.3918 6.30555C28.5946 5.06415 28.7973 3.79741 29.0001 2.55601C29.0761 2.12532 29.1268 1.71997 29.2028 1.31461C29.6336 1.18794 33.2323 1.16261 33.9672 1.26395C33.8659 1.99866 33.7645 2.73336 33.6378 3.44273C33.4604 4.55746 33.283 5.69751 33.1056 6.81223C32.9029 8.1043 32.6748 9.39639 32.472 10.6885C32.2946 11.7525 32.1679 12.8419 32.4214 13.906C32.5988 14.6407 33.0549 15.122 33.7898 15.3247C35.1584 15.7047 36.4002 15.4514 37.3885 14.3873C37.9207 13.8046 38.1742 13.0446 38.3769 12.2592C38.5796 11.4485 38.7064 10.6125 38.8331 9.77641C39.0105 8.68702 39.1879 7.59762 39.3653 6.50823C39.5427 5.44417 39.6947 4.38011 39.8468 3.29071C39.9988 2.70802 40.1255 2.02398 40.2523 1.28927Z" fill="white"/>
<path d="M91.6226 19.2516C89.8739 19.2516 88.252 19.2516 86.554 19.2516C86.1739 17.9595 85.9965 16.6421 85.6417 15.2741C85.1602 15.1981 84.628 15.2487 84.1212 15.2487C83.589 15.2487 83.0821 15.2487 82.4739 15.2487C82.7273 14.4634 82.9554 13.7286 83.1834 12.9939C83.2341 12.8166 83.4115 12.7659 83.5889 12.7659C83.9184 12.7659 84.2225 12.7659 84.552 12.7659C84.7294 12.7659 84.9068 12.7406 85.1602 12.7406C84.8307 10.8658 84.5266 9.04173 84.1972 7.21763C84.1465 7.21763 84.1211 7.19229 84.0705 7.19229C83.9691 7.36964 83.8931 7.52166 83.7917 7.699C82.6513 9.97912 81.5362 12.2592 80.3704 14.5394C79.6101 16.0341 78.7485 17.5035 77.9375 18.9729C77.8108 19.2009 77.6841 19.3276 77.4307 19.3023C75.9608 19.3023 74.5162 19.3023 73.0463 19.3023C72.9703 19.3023 72.8943 19.2769 72.7676 19.2516C72.9196 18.9223 73.0464 18.6182 73.1984 18.3396C73.5532 17.6809 73.9334 17.0222 74.2882 16.3635C75.3526 14.4127 76.3916 12.4366 77.456 10.4858C78.3937 8.76305 79.306 7.06563 80.2437 5.34287C80.9026 4.10147 81.5869 2.88539 82.2711 1.64399C82.3725 1.44131 82.4739 1.28931 82.7273 1.28931C84.3492 1.28931 85.9965 1.28931 87.6945 1.28931C88.9869 7.24296 90.3048 13.1966 91.6226 19.2516Z" fill="white"/>
<path d="M44.4336 17.6807C45.3206 16.3633 46.1822 15.1219 47.0692 13.8551C47.3734 14.1085 47.6521 14.3112 47.9309 14.5392C48.8939 15.3499 49.9837 15.7806 51.2508 15.6792C52.1125 15.6285 52.8727 15.2992 53.2782 14.4885C53.6583 13.7285 53.4556 13.0444 52.6953 12.6391C52.2138 12.3857 51.707 12.183 51.2001 12.0057C50.4652 11.727 49.7049 11.5497 48.9699 11.2456C47.2213 10.5363 46.5877 9.16821 46.8411 7.31878C46.9425 6.55874 47.0946 5.82402 47.3987 5.08931C47.9055 3.87325 48.6912 2.85986 49.7556 2.09982C50.7946 1.33978 51.9604 0.959773 53.2275 0.807765C55.2803 0.579753 57.181 1.0611 59.031 1.94782C59.0564 1.97315 59.107 1.97316 59.1324 1.9985C59.5632 2.22651 59.5632 2.27717 59.3098 2.68253C59.0057 3.13855 58.6762 3.59458 58.3468 4.07594C57.9159 4.68397 57.5104 5.31734 57.0796 5.97604C56.8769 5.84937 56.6995 5.72269 56.5221 5.59602C55.7871 5.01332 54.9255 4.75996 54.0131 4.81063C53.2275 4.83597 52.5433 5.13999 52.1124 5.82402C51.8083 6.33072 51.9097 6.93875 52.4166 7.2681C52.6953 7.44544 52.9994 7.62279 53.3036 7.72412C53.9625 7.97747 54.6467 8.18016 55.331 8.40817C56.0152 8.63618 56.6488 8.9402 57.2063 9.39622C58.0933 10.0803 58.5748 10.967 58.6002 12.0817C58.6509 14.0325 58.0426 15.7806 56.8262 17.2753C56.1419 18.086 55.2043 18.6434 54.2159 19.0741C52.7207 19.7074 51.1748 19.8848 49.6035 19.7581C48.159 19.6314 46.7905 19.2007 45.5233 18.4407C45.1685 18.1874 44.8391 17.9593 44.4336 17.6807Z" fill="white"/>
<path d="M71.6775 5.9001C71.4494 5.7481 71.2466 5.59609 71.0186 5.44408C70.2836 4.98805 69.498 4.70939 68.6363 4.78539C68.0788 4.83606 67.5466 4.98807 67.1158 5.41876C66.2288 6.30547 66.6343 7.11619 67.5213 7.52154C68.1548 7.82556 68.8137 8.02823 69.4727 8.23091C70.1569 8.43359 70.8158 8.68692 71.4241 9.06694C72.4631 9.72564 73.1473 10.5617 73.2487 11.8538C73.3247 12.7405 73.1727 13.6019 72.9446 14.4379C72.6658 15.5273 72.1336 16.49 71.3987 17.3261C71.0693 17.6807 70.6891 18.0101 70.2836 18.2634C69.2192 18.9982 68.0281 19.4288 66.761 19.6315C65.9247 19.7835 65.063 19.7835 64.2521 19.7075C62.8582 19.6062 61.5404 19.2008 60.3239 18.4661C60.0705 18.3141 59.8424 18.1874 59.6143 18.0101C59.4623 17.8834 59.3102 17.7567 59.1328 17.5794C60.0198 16.3127 60.8561 15.0966 61.7431 13.8045C61.9459 13.9312 62.1233 14.0325 62.25 14.1592C62.9849 14.8686 63.8466 15.3246 64.8349 15.5526C65.6966 15.73 66.5076 15.6286 67.2678 15.1726C67.8 14.8433 68.0535 14.3112 68.1295 13.7285C68.1548 13.5259 68.0535 13.2725 67.9267 13.1205C67.6226 12.7152 67.2172 12.4111 66.7103 12.2591C65.9247 12.0311 65.1391 11.7778 64.3534 11.4991C63.5678 11.2204 62.8329 10.8657 62.25 10.2577C61.7938 9.75098 61.5404 9.16829 61.515 8.48425C61.4644 7.39486 61.5657 6.30546 61.9459 5.29208C62.1993 4.60804 62.5794 3.97467 63.0356 3.39197C64.1253 1.97323 65.5952 1.16252 67.3185 0.858506C68.0535 0.731832 68.8138 0.655826 69.5994 0.757164C70.6384 0.883838 71.6522 1.11185 72.6405 1.46653C73.0713 1.61854 73.4515 1.82122 73.857 2.0239C74.1357 2.17591 74.1611 2.27725 74.009 2.50526C73.2741 3.59466 72.5391 4.68405 71.8042 5.77344C71.8042 5.82411 71.7535 5.84943 71.6775 5.9001Z" fill="white"/>
<path d="M121.729 7.14155C123.351 7.14155 124.871 7.14155 126.417 7.14155C126.443 7.85092 126.189 8.50962 126.214 9.219C127.203 9.32033 128.115 9.21898 128.977 8.71229C129.408 8.45894 129.686 8.07894 129.864 7.59758C130.041 7.11622 130.041 7.11621 130.548 7.11621C131.815 7.11621 133.108 7.11621 134.375 7.11621C134.527 7.11621 134.679 7.14154 134.882 7.16687C134.856 7.39488 134.856 7.59758 134.806 7.77492C134.147 9.82703 132.854 11.2458 130.751 11.8285C130.675 11.8538 130.573 11.8791 130.421 11.9045C131.841 14.3366 133.336 16.6674 134.78 19.1248C134.578 19.1502 134.425 19.1755 134.273 19.1755C132.651 19.1755 131.004 19.1755 129.382 19.1755C129.002 19.1755 128.799 19.0489 128.647 18.7195C127.786 16.8701 126.899 15.046 126.012 13.1965C125.936 13.0192 125.834 12.8672 125.682 12.5885C125.581 13.0192 125.53 13.3485 125.454 13.6526C125.277 14.7673 125.074 15.9074 124.897 17.0221C124.795 17.6048 124.719 18.2128 124.643 18.7955C124.618 19.0489 124.491 19.1755 124.238 19.1755C122.819 19.1755 121.399 19.1755 119.955 19.1502C119.929 19.1502 119.879 19.1249 119.803 19.0742C120.462 15.122 121.095 11.1444 121.729 7.14155Z" fill="white"/>
<path d="M113.442 8.12961C115.166 8.12961 116.838 8.12961 118.562 8.12961C118.435 8.94032 118.333 9.70035 118.232 10.4351C118.181 10.8404 118.105 11.2458 118.055 11.6511C118.004 12.1072 117.928 12.1832 117.446 12.1832C116.103 12.1832 114.785 12.1832 113.442 12.1832C113.29 12.1832 113.138 12.1832 112.986 12.1832C112.783 12.1832 112.682 12.2845 112.657 12.4872C112.555 13.1965 112.429 13.9313 112.327 14.6406C112.302 14.7926 112.327 14.97 112.353 15.198C114.152 15.198 115.901 15.198 117.624 15.198C117.725 15.6793 117.37 18.1115 117.092 19.0489C116.712 19.1755 107.791 19.2009 106.929 19.0995C106.929 18.9222 106.904 18.7195 106.929 18.5168C107.132 17.1488 107.335 15.7807 107.563 14.4379C107.766 13.1712 107.994 11.9045 108.196 10.6377C108.374 9.49768 108.551 8.35762 108.729 7.21756C109.134 7.09088 112.707 7.0402 113.468 7.16688C113.442 7.29355 113.442 7.44557 113.417 7.59758C113.417 7.74959 113.442 7.9016 113.442 8.12961Z" fill="white"/>
<path d="M99.9342 12.1831C99.478 14.5393 99.2246 16.8447 98.7684 19.1502C97.1972 19.1502 95.6513 19.1502 94.0547 19.1502C94.1054 18.7195 94.156 18.3395 94.2321 17.9595C94.4348 16.6167 94.6376 15.274 94.8656 13.9313C95.0684 12.6898 95.2711 11.4738 95.4485 10.2324C95.6006 9.34567 95.7273 8.45895 95.854 7.57224C95.9047 7.21755 95.9554 7.14155 96.2848 7.11621C97.6533 7.11621 99.0219 7.11621 100.39 7.11621C100.466 7.11621 100.568 7.16688 100.644 7.19221C100.618 7.49623 100.593 7.74957 100.568 8.07892C101.151 8.18026 101.683 8.1296 102.215 8.1296C102.773 8.1296 103.33 8.1296 103.913 8.1296C104.445 8.1296 105.003 8.1296 105.535 8.1296C105.535 8.88964 105.079 11.6765 104.851 12.1831C103.254 12.1831 101.632 12.1831 99.9342 12.1831Z" fill="white"/>
<path d="M2.44141 25.4838C2.44141 25.0278 2.44141 24.6731 2.44141 24.3691C2.49209 24.3184 2.49209 24.3184 2.51743 24.2931C2.54277 24.2931 2.54277 24.2678 2.56811 24.2678C2.64414 24.2678 2.72017 24.2424 2.7962 24.2424C19.9786 24.2424 37.1609 24.2424 54.3433 24.2424C54.4194 24.2424 54.4954 24.2678 54.5714 24.2678C54.7488 24.6224 54.6221 25.0025 54.6728 25.3825C54.5207 25.4078 54.394 25.4585 54.2673 25.4585C54.1406 25.4838 54.0139 25.4585 53.8618 25.4585C36.9836 25.4585 20.1053 25.4585 3.22703 25.4585C2.9736 25.4838 2.74552 25.4838 2.44141 25.4838Z" fill="white"/>
<path d="M137.138 24.217C137.138 24.6731 137.138 25.0277 137.138 25.3571C136.707 25.4838 85.7685 25.5091 85.0082 25.4078C84.8561 25.0531 84.9322 24.6984 84.9575 24.2677C85.211 24.2424 85.439 24.217 85.6671 24.217C91.0651 24.217 96.4631 24.217 101.861 24.217C113.367 24.217 124.847 24.217 136.353 24.217C136.606 24.217 136.834 24.217 137.138 24.217Z" fill="white"/>
<path d="M135.086 6.07735C134.934 6.10268 134.807 6.12803 134.706 6.12803C133.287 6.12803 131.868 6.12803 130.423 6.12803C130.144 6.12803 129.967 6.02668 129.815 5.824C129.359 5.24131 128.725 5.01331 127.99 4.98797C127.61 4.98797 127.255 4.98797 126.875 4.98797C126.799 5.36799 126.723 5.69734 126.647 6.02669C126.242 6.15336 122.795 6.17869 122.009 6.07735C122.009 5.84934 121.984 5.62133 122.009 5.39332C122.161 4.32926 122.339 3.2652 122.516 2.20114C122.567 1.92246 122.618 1.64379 122.668 1.33977C122.846 1.31444 122.998 1.28909 123.175 1.28909C125.481 1.28909 127.787 1.26376 130.094 1.28909C131.285 1.31443 132.425 1.54245 133.439 2.22648C134.072 2.65717 134.529 3.18921 134.807 3.89858C135.061 4.58262 135.238 5.29197 135.086 6.07735Z" fill="white"/>
<path d="M107.207 1.31465C107.005 2.60672 106.827 3.79746 106.65 4.98819C106.625 5.2162 106.498 5.31753 106.27 5.31753C106.143 5.31753 106.016 5.31753 105.864 5.31753C104.445 5.31753 103.001 5.31753 101.581 5.31753C101.379 5.31753 101.176 5.31753 100.948 5.31753C100.897 5.59621 100.872 5.79888 100.821 6.00156C100.39 6.12823 96.7156 6.15357 96.0566 6.0269C96.2847 4.45615 96.5128 2.88539 96.8169 1.28931C100.34 1.31464 103.736 1.31465 107.207 1.31465Z" fill="white"/>
<path d="M108.906 6.07749C109.134 4.55741 109.362 3.11334 109.59 1.66926C109.641 1.33991 109.743 1.26392 110.072 1.26392C110.401 1.26392 110.756 1.26392 111.086 1.26392C113.797 1.26392 116.484 1.26392 119.195 1.26392C119.423 1.26392 119.626 1.26392 119.93 1.26392C119.829 1.89728 119.753 2.45464 119.677 3.03734C119.576 3.62003 119.474 4.20272 119.398 4.81076C119.322 5.29212 119.322 5.3428 118.815 5.3428C117.371 5.3428 115.926 5.3428 114.482 5.3428C114.279 5.3428 114.076 5.3428 113.899 5.3428C113.848 5.41881 113.797 5.44413 113.797 5.46946C113.696 6.25484 113.595 6.12817 113.037 6.12817C111.871 6.12817 110.706 6.12817 109.54 6.12817C109.337 6.12817 109.16 6.10283 108.906 6.07749Z" fill="white"/>
<path d="M71.2207 39.3673C72.133 37.2645 73.0454 35.1871 74.0337 33.135C75.0221 35.1618 75.8331 37.2139 76.7454 39.2406C77.1256 38.9113 79.2544 35.5418 79.9133 34.1991C79.4824 34.0471 79.077 34.1484 78.6461 34.1231C78.2153 34.0977 77.7845 34.1231 77.303 34.1231C77.2776 33.8697 77.2776 33.667 77.2523 33.4643C77.6578 33.3123 80.6229 33.287 81.2564 33.4137C81.1804 33.8951 80.8509 34.2497 80.6229 34.6297C79.8879 35.8458 79.1276 37.0619 78.3927 38.2779C78.3167 38.4046 78.266 38.5313 78.1899 38.734C79.2036 38.734 80.1414 38.734 81.1551 38.734C81.1804 38.962 81.1804 39.1393 81.2057 39.3673C81.003 39.3927 80.851 39.418 80.6736 39.418C79.2544 39.418 77.8352 39.418 76.3906 39.418C76.0612 39.418 75.8584 39.3167 75.7571 39.0126C75.6303 38.7086 75.4783 38.4046 75.3769 38.0753C75.3009 37.8219 75.1488 37.7206 74.8954 37.7206C74.3125 37.7206 73.7296 37.7459 73.1468 37.7206C72.868 37.7206 72.7413 37.8473 72.6399 38.0753C72.5385 38.3286 72.4372 38.5566 72.3358 38.81C72.0824 39.4687 72.0824 39.4687 71.2207 39.3673ZM74.0844 35.0098C74.0591 35.0098 74.0084 35.0351 73.9831 35.0351C73.7043 35.6938 73.4509 36.3525 73.1468 37.0619C73.755 37.0619 74.3125 37.0872 74.9207 37.0365C74.6166 36.3018 74.3379 35.6431 74.0844 35.0098Z" fill="white"/>
<path d="M0.388672 30.3482C0.490043 30.1201 0.566087 29.9428 0.642115 29.7908C1.09828 28.9294 1.57978 28.0934 2.03595 27.232C2.13733 27.0547 2.23871 26.928 2.4668 26.928C4.0127 26.928 5.53327 26.928 7.07917 26.9533C7.10452 26.9533 7.12985 26.9787 7.20588 27.0293C7.10451 27.232 7.02848 27.4347 6.9271 27.612C6.47093 28.4481 6.01476 29.2841 5.55859 30.1202C5.45722 30.3228 5.30518 30.4242 5.0771 30.4242C3.60722 30.4242 2.16267 30.4242 0.692792 30.4242C0.591421 30.4242 0.540728 30.3988 0.388672 30.3482Z" fill="white"/>
<path d="M55.0777 39.3418C54.3174 39.5445 54.2161 39.4685 53.9626 38.8351C53.4304 37.5684 53.8106 37.7457 52.3914 37.7457C51.9859 37.7457 51.5804 37.7457 51.1242 37.7457C50.9722 38.1257 50.7694 38.5058 50.6427 38.8858C50.4907 39.2911 50.2626 39.4685 49.8064 39.4431C49.1222 39.3925 48.4126 39.4431 47.7283 39.4431C47.5509 39.4431 47.3735 39.4178 47.1961 39.4178C47.0694 38.9365 47.0694 33.9962 47.1708 33.4135C47.3735 33.4135 47.5763 33.4135 47.855 33.4135C47.9311 33.9962 47.8804 34.5789 47.8804 35.1616C47.8804 35.7697 47.8804 36.3523 47.8804 36.9604C47.8804 37.5431 47.8804 38.1258 47.8804 38.6578C48.4633 38.9365 49.1222 38.5058 49.6544 39.0125C50.5667 37.087 51.3523 35.1109 52.3407 33.1602C53.3544 35.1869 54.1907 37.2644 55.0777 39.3418ZM53.2277 37.011C52.9236 36.2763 52.6448 35.643 52.3407 34.8829C52.0112 35.6683 51.7325 36.3017 51.4284 37.011C52.0113 37.011 52.5688 37.011 53.2277 37.011Z" fill="white"/>
<path d="M110.249 39.1392C111.136 37.1378 111.997 35.1363 112.91 33.0842C113.011 33.1856 113.112 33.2109 113.138 33.2869C113.974 35.2377 114.81 37.1631 115.621 39.1139C115.647 39.1899 115.672 39.2405 115.697 39.3672C115.52 39.3926 115.393 39.3926 115.241 39.4179C114.962 39.4432 114.785 39.3166 114.709 39.0379C114.607 38.7085 114.43 38.3792 114.303 38.0498C114.202 37.8218 114.05 37.7205 113.797 37.7205C113.239 37.7458 112.681 37.7205 112.099 37.7205C111.87 37.7205 111.718 37.7965 111.617 38.0245C111.465 38.3792 111.313 38.7339 111.136 39.1139C111.059 39.2659 110.983 39.4179 110.781 39.4179C109.818 39.4179 108.829 39.4179 107.892 39.4179C107.765 38.9872 107.714 34.1736 107.841 33.3629C108.044 33.3629 108.246 33.3376 108.525 33.3376C108.627 33.9456 108.576 34.5283 108.576 35.0857C108.576 35.6937 108.576 36.2764 108.576 36.8844C108.576 37.4671 108.576 38.0498 108.576 38.7085C109.108 38.7085 109.564 38.7085 110.046 38.7085C110.122 38.9112 110.147 39.0379 110.198 39.1899C110.198 39.1899 110.223 39.1646 110.249 39.1392ZM113.036 35.0857C112.986 35.0857 112.935 35.0857 112.884 35.0857C112.605 35.719 112.352 36.3524 112.048 37.0364C112.681 37.0364 113.239 37.0364 113.847 37.0364C113.568 36.3271 113.315 35.6937 113.036 35.0857Z" fill="white"/>
<path d="M119.296 37.9231C120.031 36.2256 120.715 34.6549 121.4 33.0841C121.45 33.0841 121.476 33.0841 121.526 33.0841C121.78 34.1228 121.957 35.1616 122.16 36.2003C122.363 37.239 122.54 38.2778 122.718 39.3165C122.033 39.4938 121.932 39.4431 121.831 38.8604C121.628 37.8217 121.425 36.783 121.222 35.6683C120.791 36.3016 120.589 37.011 120.259 37.6697C119.93 38.3284 119.651 39.0124 119.347 39.6965C119.296 39.6965 119.271 39.6965 119.22 39.6965C118.612 38.3537 118.004 37.0364 117.37 35.5923C117.117 36.9097 116.863 38.1511 116.635 39.3925C116.382 39.3925 116.154 39.3925 115.926 39.3925C115.9 39.2658 115.875 39.1644 115.875 39.0884C116.255 37.087 116.635 35.0856 117.041 33.0588C117.091 33.0588 117.117 33.0588 117.167 33.0334C117.522 33.8188 117.877 34.6295 118.207 35.4149C118.561 36.2256 118.891 37.011 119.296 37.9231Z" fill="white"/>
<path d="M95.5244 37.7457C95.5244 36.3017 95.5244 34.8829 95.5244 33.3882C95.8031 33.3882 96.0058 33.3882 96.2086 33.3882C96.3353 33.8189 96.3353 39.1138 96.234 39.7218C94.612 38.2524 93.2688 36.555 91.5962 35.0096C91.5962 36.5043 91.5962 37.8978 91.5962 39.3418C91.3175 39.3418 91.0894 39.3418 90.8359 39.3418C90.8359 37.2644 90.8359 35.2123 90.8359 33.0588C91.0133 33.1855 91.1401 33.2615 91.2414 33.3375C92.3565 34.5029 93.4462 35.6936 94.5613 36.859C94.8401 37.1631 95.1442 37.4417 95.423 37.7204C95.423 37.7711 95.4737 37.7457 95.5244 37.7457Z" fill="white"/>
<path d="M37.0081 39.5446C35.2594 39.6459 33.8656 38.2525 33.8402 36.4537C33.8149 34.6296 35.082 33.2615 37.0081 33.2362C38.7821 33.2109 40.2266 34.5283 40.2266 36.4537C40.2266 38.1258 38.8581 39.6712 37.0081 39.5446ZM37.0334 34.0216C35.7409 34.0216 34.7272 35.035 34.6258 36.3777C34.5498 37.5938 35.7916 38.8605 36.9827 38.8605C38.3005 38.8858 39.441 37.5938 39.441 36.479C39.4156 34.959 38.1485 33.9202 37.0334 34.0216Z" fill="white"/>
<path d="M63.467 39.5447C61.8197 39.6714 60.2738 38.2273 60.2991 36.4538C60.2991 34.5791 61.6169 33.2363 63.4923 33.2363C65.4184 33.2363 66.6602 34.6804 66.7108 36.4538C66.7362 38.1259 65.1903 39.6714 63.467 39.5447ZM63.5177 34.0217C62.2505 33.9204 61.0594 35.0351 61.0848 36.4285C61.1101 37.7459 62.0731 38.81 63.467 38.8606C64.7341 38.9113 65.8999 37.7206 65.8745 36.4032C65.8492 35.1111 64.8101 33.971 63.5177 34.0217Z" fill="white"/>
<path d="M86.756 39.5447C85.2101 39.6967 83.5628 38.2779 83.5882 36.4538C83.6135 34.5791 84.906 33.2363 86.7814 33.2363C88.7074 33.2363 89.9746 34.6804 89.9746 36.3778C89.9999 38.2526 88.4793 39.646 86.756 39.5447ZM86.8067 34.0217C85.4889 33.9457 84.3738 35.0604 84.4245 36.4538C84.4498 37.7712 85.3875 38.7846 86.7814 38.8353C88.0485 38.886 89.2143 37.7206 89.2143 36.4032C89.1889 35.1618 88.1245 33.9457 86.8067 34.0217Z" fill="white"/>
<path d="M24.2355 37.7457C24.2355 36.3016 24.2355 34.8829 24.2355 33.3881C24.489 33.3881 24.6664 33.3881 24.8944 33.3881C24.8944 35.4909 24.8944 37.5684 24.8944 39.6712C24.2355 39.2911 23.9314 38.6324 23.4246 38.1764C22.8924 37.695 22.3855 37.163 21.8787 36.631C21.3971 36.1243 20.941 35.5923 20.4595 35.0602C20.4088 35.0856 20.3834 35.0856 20.3327 35.1109C20.3327 36.5297 20.3327 37.923 20.3327 39.3671C20.054 39.3671 19.8259 39.3671 19.5471 39.3671C19.5471 38.8098 19.5471 38.3031 19.5471 37.7711C19.5471 37.239 19.5471 36.7323 19.5471 36.2003C19.5471 35.6936 19.5471 35.1869 19.5471 34.6802C19.5471 34.1735 19.4964 33.6415 19.6231 33.0334C21.1944 34.6549 22.6896 36.2256 24.1595 37.7711C24.1595 37.7711 24.2102 37.771 24.2355 37.7457Z" fill="white"/>
<path d="M130.295 36.8085C130.295 37.7206 130.295 38.5313 130.295 39.3927C130.042 39.418 129.813 39.418 129.611 39.418C129.459 39.0126 129.408 34.3764 129.535 33.3883C130.042 33.3123 130.574 33.3123 131.106 33.3883C131.207 33.4136 131.334 33.439 131.435 33.4643C132.373 33.6923 132.652 34.0217 132.728 35.0351C132.779 35.7191 132.424 36.5298 131.486 36.7325C131.461 36.7325 131.41 36.7578 131.334 36.8085C131.917 37.6445 132.5 38.4806 133.108 39.3166C132.373 39.5447 132.221 39.494 131.866 38.9873C131.435 38.3793 131.03 37.7459 130.599 37.1379C130.548 37.0365 130.472 36.9858 130.295 36.8085ZM130.346 36.0738C130.675 36.2511 130.954 36.0991 131.258 36.0485C131.689 35.9471 131.993 35.5418 131.993 35.1111C131.993 34.7311 131.664 34.3004 131.283 34.199C130.979 34.123 130.675 34.0977 130.371 34.2497C130.346 34.8577 130.346 35.4657 130.346 36.0738Z" fill="white"/>
<path d="M57.1318 22.4438C58.2722 22.4184 59.3113 22.2917 60.2743 22.9251C60.9586 23.3811 61.364 24.0145 61.4908 24.7999C61.6682 25.8893 61.4147 26.852 60.5531 27.5867C60.0716 27.992 59.514 28.2454 58.8805 28.2707C58.3483 28.2707 57.7907 28.2707 57.1825 28.2707C57.0811 27.764 57.1318 27.2827 57.1318 26.8013C57.1318 26.3199 57.1318 25.8386 57.1318 25.3319C57.1318 24.8505 57.1318 24.3945 57.1318 23.9131C57.1065 23.4571 57.1318 22.9758 57.1318 22.4438ZM57.9428 27.536C59.0832 27.764 59.9195 27.4093 60.4771 26.548C60.8065 26.0159 60.9079 24.6985 60.325 24.0145C59.7928 23.3811 58.7538 23.0011 57.9428 23.2291C57.9428 24.6225 57.9428 26.0666 57.9428 27.536Z" fill="white"/>
<path d="M69.2704 36.8337C69.8786 37.6951 70.4615 38.5311 71.0444 39.3672C70.2081 39.5445 70.1067 39.4938 69.7012 38.8858C69.2704 38.2271 68.8142 37.5937 68.282 36.9857C68.282 37.7711 68.282 38.5818 68.282 39.4179C68.0033 39.4179 67.8005 39.4432 67.5978 39.4432C67.4457 39.0125 67.4204 34.3256 67.5218 33.4135C68.3834 33.3375 69.2451 33.2615 70.0307 33.7682C70.3601 33.9709 70.5629 34.3003 70.6136 34.6803C70.7149 35.643 70.5375 36.3524 69.4731 36.7324C69.4478 36.7324 69.3971 36.7577 69.2704 36.8337ZM68.3074 36.0737C68.8903 36.175 69.4732 35.9977 69.7012 35.643C69.904 35.3136 69.904 34.7816 69.6759 34.4776C69.3211 34.0216 68.8396 34.0975 68.3074 34.1736C68.3074 34.8323 68.3074 35.4656 68.3074 36.0737Z" fill="white"/>
<path d="M29.8622 33.3881C30.6225 33.2868 31.2814 33.3121 31.915 33.4895C32.8527 33.7682 33.1821 34.5282 32.9794 35.5416C32.8273 36.251 32.3458 36.6056 31.5855 36.7576C32.1938 37.6444 32.802 38.4804 33.4355 39.3925C33.2075 39.4178 33.0301 39.4178 32.878 39.4178C32.5739 39.4431 32.3712 39.3165 32.1938 39.0378C31.7122 38.3284 31.2307 37.619 30.6479 36.8083C30.6479 37.7204 30.6479 38.5057 30.6479 39.3671C30.3691 39.3924 30.1664 39.3925 29.8876 39.4178C29.7862 38.8858 29.8369 38.3791 29.8369 37.8977C29.8369 37.391 29.8369 36.8843 29.8369 36.3776C29.8369 35.8963 29.8369 35.4149 29.8369 34.9082C29.8622 34.4269 29.8622 33.9202 29.8622 33.3881ZM30.6985 36.0736C31.2814 36.1749 31.839 35.9976 32.0924 35.6683C32.2951 35.3389 32.3205 34.7815 32.067 34.5029C31.7122 34.0975 31.2307 34.0975 30.6985 34.1989C30.6985 34.8322 30.6985 35.4656 30.6985 36.0736Z" fill="white"/>
<path d="M71.7542 22.469C72.033 22.469 72.2357 22.469 72.4891 22.469C72.5145 22.6463 72.5398 22.7984 72.5398 22.9757C72.5398 24.1411 72.5398 25.3065 72.5398 26.4719C72.5398 27.5613 71.6782 28.3973 70.5631 28.448C69.9549 28.4733 69.4227 28.3213 68.9411 27.9413C68.4343 27.5359 68.2822 26.9279 68.2569 26.3452C68.2062 25.1291 68.2569 23.9131 68.2569 22.697C68.2569 22.6717 68.2822 22.621 68.3076 22.5197C68.485 22.5197 68.7131 22.4943 68.9918 22.469C69.0172 22.697 69.0425 22.8997 69.0425 23.1024C69.0425 24.1664 69.0425 25.2305 69.0425 26.2945C69.0425 26.9279 69.3213 27.3839 69.8788 27.6373C70.7912 28.0426 71.7035 27.4346 71.7288 26.4465C71.7542 25.3571 71.7288 24.2678 71.7288 23.1784C71.7542 22.925 71.7542 22.7223 71.7542 22.469Z" fill="white"/>
<path d="M15.2402 33.363C16.3553 33.3123 17.3944 33.3123 18.4588 33.363C18.4588 33.6163 18.4588 33.8443 18.4588 34.123C17.6478 34.123 16.8875 34.1483 16.0765 34.1483C16.0765 34.6804 16.0765 35.1364 16.0765 35.6684C16.8115 35.7951 17.5464 35.6431 18.3574 35.7444C18.3827 35.9471 18.3827 36.1751 18.4081 36.4285C17.6478 36.5805 16.8875 36.4285 16.1526 36.5298C16.0259 36.9098 15.9752 37.8979 16.1019 38.7086C16.8622 38.8352 17.6478 38.6832 18.4841 38.7846C18.5095 38.9619 18.5095 39.1393 18.5348 39.2913C18.1293 39.4433 16.2286 39.4686 15.3163 39.3673C15.2149 38.8859 15.2909 38.3792 15.2656 37.8978C15.2656 37.3912 15.2656 36.8845 15.2656 36.3778C15.2656 35.8964 15.2656 35.4151 15.2656 34.9084C15.2402 34.427 15.2402 33.9203 15.2402 33.363Z" fill="white"/>
<path d="M100.696 34.123C99.8344 34.123 99.0741 34.123 98.2885 34.123C98.1618 34.655 98.2125 35.1364 98.2632 35.6177C98.6433 35.7444 99.0234 35.6684 99.3782 35.6937C99.7583 35.7191 100.113 35.6937 100.544 35.6937C100.544 35.9724 100.544 36.1751 100.544 36.4791C99.7837 36.4791 99.0488 36.4791 98.2632 36.4791C98.2632 37.2645 98.2632 37.9485 98.2632 38.7339C99.0488 38.7339 99.8344 38.7339 100.645 38.7592C100.645 38.9872 100.645 39.1646 100.645 39.3419C100.189 39.4686 98.0604 39.4686 97.5029 39.3672C97.4015 38.9619 97.3508 34.0723 97.4775 33.4389C97.8576 33.3123 99.9357 33.2869 100.645 33.4136C100.671 33.6163 100.671 33.819 100.696 34.123Z" fill="white"/>
<path d="M125.328 33.363C126.443 33.363 127.406 33.363 128.445 33.363C128.445 33.6164 128.445 33.8191 128.445 34.0724C127.71 34.2244 126.95 34.0471 126.19 34.1737C126.088 34.6551 126.114 35.1365 126.164 35.6938C126.925 35.6938 127.66 35.6938 128.445 35.6938C128.445 35.9725 128.445 36.2005 128.445 36.4286C127.71 36.5806 126.95 36.4032 126.164 36.5299C126.088 37.2392 126.139 37.9486 126.139 38.7087C126.925 38.7087 127.66 38.7087 128.471 38.7087C128.496 38.962 128.496 39.1394 128.496 39.3927C127.457 39.4434 126.443 39.418 125.404 39.3927C125.303 38.8607 125.353 38.3793 125.353 37.8726C125.353 37.3659 125.353 36.8592 125.353 36.3525C125.353 35.8712 125.353 35.3898 125.353 34.8831C125.328 34.4271 125.328 33.9204 125.328 33.363Z" fill="white"/>
<path d="M134.705 35.6937C135.49 35.6937 136.225 35.6937 137.011 35.6937C137.036 35.947 137.036 36.1751 137.061 36.4284C136.276 36.5551 135.541 36.4284 134.806 36.5044C134.679 36.8844 134.654 37.9232 134.755 38.6832C135.465 38.8099 136.225 38.6579 137.011 38.7592C137.011 38.9619 137.011 39.1392 137.011 39.3672C135.997 39.3672 134.983 39.3672 133.995 39.3672C133.868 38.9112 133.868 33.971 133.97 33.3376C134.958 33.2869 135.946 33.3122 137.011 33.3122C137.011 33.5656 137.036 33.7683 137.036 34.047C136.25 34.1736 135.516 34.0469 134.73 34.1483C134.654 34.655 134.679 35.1363 134.705 35.6937Z" fill="white"/>
<path d="M14.1504 38.0751C14.3025 38.9365 14.2265 39.1392 13.5929 39.3419C11.9456 39.8992 10.6025 39.5192 9.63944 38.1004C8.92985 37.0364 8.98055 35.871 9.61411 34.7563C10.273 33.5909 12.123 32.7802 13.745 33.5655C14.0744 33.7176 14.2518 33.9202 14.2011 34.3002C14.1758 34.4522 14.1758 34.5789 14.1504 34.8069C13.973 34.7056 13.8463 34.6296 13.745 34.5536C12.4018 33.5149 10.5011 34.0976 10.0449 35.871C9.6648 37.2644 10.7545 38.7845 12.1991 38.8605C12.8073 38.8858 13.3141 38.6325 13.821 38.3031C13.9224 38.2271 14.0237 38.1511 14.1504 38.0751Z" fill="white"/>
<path d="M55.1289 33.3882C55.3823 33.3882 55.6358 33.3882 55.9145 33.3882C56.168 34.0722 56.4467 34.7816 56.7255 35.491C56.9789 36.175 57.2577 36.8844 57.6378 37.5684C57.7139 37.4164 57.7646 37.2391 57.8406 37.0871C58.2461 35.9977 58.6515 34.9083 59.0824 33.8442C59.3105 33.2869 59.3865 33.2615 60.0707 33.4642C59.2851 35.5923 58.4741 37.6951 57.6632 39.7725C57.6125 39.7725 57.6125 39.7979 57.5872 39.7979C57.5618 39.7979 57.5365 39.7979 57.5365 39.7725C57.4858 39.7219 57.4351 39.6459 57.4097 39.5952C56.6495 37.6191 55.9145 35.643 55.1542 33.6669C55.1542 33.5655 55.1542 33.4895 55.1289 33.3882Z" fill="white"/>
<path d="M80.1169 23.1023C80.1169 23.685 80.1169 24.1663 80.1169 24.7237C80.8011 24.8503 81.5107 24.7237 82.271 24.7997C82.271 25.0024 82.271 25.1797 82.271 25.4331C81.5614 25.4331 80.8772 25.4331 80.2182 25.4331C80.0662 25.8638 80.0408 26.7251 80.1422 27.5358C80.8518 27.6625 81.6121 27.5105 82.3977 27.6118C82.4231 27.7892 82.4231 27.9665 82.4484 28.1185C82.0429 28.2705 80.2183 28.2959 79.4073 28.1945C79.2806 27.8145 79.2299 23.4823 79.3313 22.4942C79.6861 22.3422 81.384 22.3169 82.3977 22.4182C82.3977 22.5956 82.4231 22.7729 82.4231 23.0516C81.6375 23.1023 80.9025 23.1023 80.1169 23.1023Z" fill="white"/>
<path d="M27.0246 34.1483C26.5431 34.1483 26.1376 34.1483 25.6308 34.1483C25.6054 33.8696 25.6054 33.6669 25.5801 33.3882C26.7965 33.2869 27.9877 33.3629 29.2548 33.3376C29.2801 33.5909 29.2801 33.7936 29.3055 34.0723C28.824 34.0976 28.3931 34.123 27.8863 34.1483C27.7849 34.731 27.8356 35.2884 27.8356 35.8711C27.8356 36.4284 27.8356 36.9858 27.8356 37.5685C27.8356 38.1512 27.8356 38.7339 27.8356 39.3672C27.5822 39.3926 27.3794 39.3926 27.0753 39.4179C27.05 39.1899 27.0246 38.9872 27.0246 38.7845C27.0246 37.4418 27.0246 36.1244 27.0246 34.7817C27.05 34.6043 27.05 34.4016 27.0246 34.1483Z" fill="white"/>
<path d="M82.7519 33.3882C82.7519 35.415 82.7519 37.3911 82.7519 39.3925C82.4985 39.3925 82.2958 39.3925 82.093 39.3925C81.9663 38.9872 81.941 33.9709 82.0677 33.3882C82.2958 33.3882 82.4985 33.3882 82.7519 33.3882Z" fill="white"/>
<path d="M123.427 33.363C123.731 33.363 123.934 33.363 124.111 33.363C124.238 33.7937 124.263 38.582 124.162 39.3673C123.959 39.3673 123.756 39.3927 123.477 39.418C123.376 38.886 123.427 38.3793 123.427 37.8979C123.427 37.3912 123.427 36.8846 123.427 36.3779C123.427 35.8965 123.427 35.4151 123.427 34.9085C123.427 34.4271 123.427 33.9204 123.427 33.363Z" fill="white"/>
</svg>
