<svg width="223" height="93" viewBox="0 0 223 93" fill="none" xmlns="http://www.w3.org/2000/svg">
<path d="M7.97205 24.2031C8.10008 23.4859 8.20251 22.8968 8.33054 22.282C8.84268 19.5926 10.2767 17.4922 12.4789 15.9554C13.8616 14.9821 15.3468 14.1624 16.7552 13.1891C17.4722 12.6768 18.1892 12.0877 18.7525 11.4217C19.3159 10.7557 19.2647 9.9361 18.7013 9.21891C18.1636 8.55294 17.4466 8.24557 16.576 8.57856C14.7323 9.29575 13.1446 10.3971 11.9923 12.0108C11.6338 12.5231 11.5826 13.2659 11.6082 14.0343C11.2497 14.188 10.8912 14.3417 10.1486 14.6747C10.2767 13.5221 10.3791 12.6768 10.4559 11.8315C10.4815 11.4217 10.3791 11.0375 10.3279 10.6277C9.89256 10.7045 9.43163 10.7045 9.04753 10.9094C8.58661 11.1656 8.20251 11.601 7.71598 12.0108C7.43431 11.6522 7.20384 11.3193 6.97338 11.0119C10.123 7.65645 10.4815 6.75996 11.0449 0.81752C13.8616 3.27646 16.3455 2.84102 18.6245 0.535767C20.2634 2.89225 22.4655 3.76313 25.3335 2.99471C25.0774 4.96698 25.5384 6.63189 26.8187 8.06628C27.2796 8.60417 27.6893 8.75785 28.4063 8.39926C29.8147 7.70768 31.3511 7.47715 33.0412 7.78452C30.7622 10.5764 30.4805 13.4196 32.401 16.4677C30.4549 17.4154 29.0209 18.8241 28.5087 21.0013C28.2015 22.3076 28.2015 23.5883 28.8929 25.0996C29.6355 24.4592 30.3524 23.9469 30.9158 23.3066C31.1463 23.0505 31.1975 22.4869 31.1207 22.0771C30.967 21.3087 31.1463 20.6684 31.8633 20.4891C32.3242 20.3866 33.0412 20.5659 33.3741 20.8989C33.9118 21.4112 33.7069 22.0771 33.1948 22.6406C32.9131 22.9224 32.6827 23.281 32.529 23.6652C32.0937 24.6385 31.7864 25.6887 31.2999 26.6364C29.3794 30.4529 29.8659 34.4487 30.5317 38.3932C31.0182 41.3132 32.7595 43.6441 34.7824 45.7444C35.3458 46.3336 35.986 46.8715 36.5493 47.3837C33.118 50.8416 29.8147 54.2227 26.3322 57.7318C24.6421 55.9388 22.9521 54.1458 21.1084 52.1992C16.9344 54.2995 12.6069 56.4511 8.38177 58.577C8.38177 57.0146 8.30495 55.5034 8.38177 53.9921C8.68905 48.2802 7.33188 42.9525 4.89923 37.8553C4.56634 37.1638 4.54074 36.6259 4.89923 35.9343C5.84669 34.1669 6.66609 32.3483 7.58794 30.5553C7.89522 29.9918 7.92083 29.5052 7.66476 28.9161C6.92216 27.1999 6.23078 25.4582 5.48818 23.7676C5.30893 23.3578 4.97605 22.9736 4.69437 22.615C4.18223 22.0515 3.84934 21.3599 4.4127 20.7708C4.71998 20.4378 5.46257 20.2585 5.9491 20.361C6.71731 20.5403 6.79414 21.2575 6.6405 21.9747C6.48686 22.7687 6.79413 23.3066 7.97205 24.2031ZM11.7106 10.0898C13.4007 9.11645 14.8347 8.09189 16.4223 7.40031C18.2404 6.63189 20.1865 7.88698 20.5706 9.83364C20.8779 11.2936 20.3402 12.4975 19.2391 13.4452C18.5477 14.0087 17.7283 14.4185 17.0113 14.9564C15.3468 16.1347 13.5799 17.1849 12.0691 18.5424C10.1998 20.2073 9.58528 22.5126 9.53407 25.074C9.96939 25.074 10.3535 25.1764 10.6352 25.0483C11.4802 24.6129 12.2996 24.1262 13.0678 23.5883C13.7592 23.1017 13.3239 22.4613 13.2215 21.821C13.1702 21.4368 13.5031 20.7708 13.8616 20.5659C14.2201 20.361 14.9371 20.4122 15.2444 20.6684C15.5517 20.9245 15.8334 21.6929 15.6541 22.0003C15.1932 22.8712 15.6541 23.3834 16.1406 23.8957C17.7795 25.6631 20.6731 25.4582 21.979 23.4603C22.1839 23.1529 22.0558 22.615 22.1583 22.1796C22.2607 21.6417 22.2607 20.9501 22.5936 20.6427C22.8752 20.3866 23.6691 20.4122 24.0788 20.5915C24.6933 20.8989 24.7701 21.5392 24.5141 22.2052C24.4117 22.4613 24.3348 22.8199 24.4373 23.0505C24.975 24.1262 25.8456 24.7666 27.1004 24.9715C27.1004 24.7666 27.126 24.6641 27.1004 24.5617C26.4346 21.2062 27.3565 18.4399 30.0452 16.2371C30.2244 16.0835 30.25 15.648 30.2244 15.3663C30.0964 14.188 29.8403 12.9842 29.7891 11.8059C29.7635 11.0375 30.0196 10.2691 30.1988 9.32136C29.5074 9.62873 28.8417 9.78241 28.4063 10.1666C27.3821 11.0375 26.3578 11.9084 25.5127 12.9585C24.1044 14.7259 22.5936 16.3652 20.5194 17.3898C20.2377 17.5178 20.0585 18.0045 19.9817 18.3631C19.7768 19.3108 19.6488 20.2841 19.4695 21.3855C18.8806 21.1806 18.5221 21.0526 18.266 20.9501C18.3428 19.5157 18.394 18.2094 18.5221 16.9287C18.5477 16.6982 18.8294 16.3908 19.0342 16.3396C21.0572 15.648 22.5424 14.3161 23.8227 12.6768C24.5909 11.6778 25.4103 10.6789 26.0761 9.85925C25.2567 8.24557 24.4629 6.63189 23.5666 4.89014C21.9534 4.91576 20.2889 4.35225 18.855 3.12278C18.7013 2.99471 18.3684 2.94348 18.2404 3.02032C16.4223 4.19857 14.5018 4.30102 12.5557 3.63506C11.9411 5.58172 11.3778 7.42593 10.7888 9.34697C11.0961 9.5775 11.4802 9.91048 11.7106 10.0898ZM20.2377 30.0431C20.1865 30.1968 20.1353 30.2992 20.1353 30.3761C20.2889 35.3195 20.2889 40.263 20.673 45.1809C20.9803 49.356 23.0289 52.7627 26.281 55.2728C28.9185 52.6346 31.5304 50.022 34.1679 47.3581C34.1679 47.3581 34.0911 47.2557 33.9886 47.1532C30.1476 43.4136 28.1759 38.9055 28.5087 33.4753C28.5856 32.3483 28.5087 31.2213 28.5087 30.0431C25.6664 30.0431 22.9521 30.0431 20.2377 30.0431ZM18.6245 29.9918C15.5773 29.9918 12.7605 29.9918 9.91818 30.0175C9.73893 30.0175 9.50846 30.1711 9.43164 30.3248C8.48418 32.1946 7.58794 34.0645 6.56366 36.1648C9.89255 36.1648 12.991 36.1648 16.2431 36.1648C16.2431 41.7999 16.2431 47.3069 16.2431 52.942C17.7795 52.1735 19.1622 51.482 20.5962 50.7648C19.0598 47.4606 18.7525 44.0283 18.6501 40.5704C18.5477 37.0869 18.6245 33.629 18.6245 29.9918ZM6.51246 37.7273C9.40603 43.5929 10.3535 49.6378 9.84136 56.1437C11.3266 55.4009 12.5301 54.7349 13.7848 54.1714C14.4762 53.8641 14.6554 53.4542 14.6554 52.7627C14.6298 48.1265 14.6811 43.516 14.6811 38.8799C14.6811 38.5213 14.6554 38.1371 14.6298 37.7273C11.9411 37.7273 9.35482 37.7273 6.51246 37.7273ZM14.553 24.2287C12.863 26.3803 10.712 26.8669 8.02325 26.201C8.30493 26.8669 8.45859 27.4048 8.74026 27.8403C8.91951 28.122 9.35483 28.4294 9.66211 28.4294C15.8846 28.455 22.107 28.455 28.3295 28.4294C28.6112 28.4294 28.9953 28.2245 29.1489 27.994C29.4562 27.4817 29.6611 26.8925 29.9684 26.1754C27.2796 26.8925 25.103 26.329 23.4642 24.2031C20.545 27.2768 17.5746 27.3024 14.553 24.2287Z" fill="white"/>
<path d="M5.97461 70.1802C6.94767 69.1812 7.84391 68.2335 8.63773 67.3882C16.9343 75.6872 25.2054 83.9349 33.5788 92.3363C31.9656 92.4387 30.3523 92.5668 28.7647 92.6436C28.5087 92.6436 28.2014 92.4131 27.9965 92.2338C20.6986 84.9594 13.4006 77.6851 6.12824 70.3851C6.07703 70.3082 6.02582 70.2058 5.97461 70.1802Z" fill="white"/>
<path d="M36.6268 89.4419C28.151 80.9637 19.9056 72.716 11.6602 64.4427C12.5564 63.623 13.5295 62.7265 14.5537 61.7788C14.6049 61.8044 14.8354 61.9837 15.0403 62.2142C22.159 69.3093 29.2777 76.43 36.3708 83.5507C36.7037 83.8837 36.9597 84.4984 36.9597 84.9595C36.9341 86.3682 36.7549 87.8026 36.6268 89.4419Z" fill="white"/>
<path d="M89.9658 28.9673C89.9658 33.4753 89.9658 37.7785 89.9658 42.1841C89.1208 42.1841 88.3526 42.1841 87.5332 42.1841C87.5332 35.9087 87.5332 29.6588 87.5332 23.076C88.0709 23.4346 88.5063 23.6139 88.788 23.9469C92.2705 27.8659 95.7274 31.836 99.2099 35.7806C99.4916 36.0879 99.7477 36.3953 100.234 36.9076C100.234 32.3483 100.234 28.0195 100.234 23.6396C101.13 23.6396 101.873 23.6396 102.769 23.6396C102.769 23.9725 102.769 24.3055 102.769 24.6385C102.769 30.2736 102.769 35.9087 102.769 41.5437C102.769 41.8767 102.59 42.2353 102.513 42.5683C102.18 42.389 101.745 42.2865 101.489 42.0048C97.9296 38.009 94.3959 33.962 90.8621 29.9406C90.6316 29.6588 90.35 29.4027 89.9658 28.9673Z" fill="white"/>
<path d="M185.862 56.1949C185.862 60.8055 185.862 65.1342 185.862 69.5142C185.043 69.5142 184.3 69.5142 183.455 69.5142C183.455 63.2388 183.455 56.9378 183.455 50.3293C183.993 50.7136 184.428 50.9441 184.71 51.2771C188.244 55.2728 191.752 59.2686 195.26 63.2644C195.49 63.5205 195.721 63.7511 196.105 64.1609C196.13 63.5462 196.156 63.1876 196.156 62.829C196.156 59.1662 196.207 55.5034 196.13 51.8406C196.105 50.7392 196.719 50.816 197.436 50.816C198.128 50.816 198.666 50.7392 198.666 51.7893C198.614 57.5269 198.64 63.2644 198.64 69.0019C198.64 69.2325 198.614 69.463 198.563 70.0265C198.025 69.6679 197.564 69.463 197.283 69.13C193.8 65.1855 190.343 61.2409 186.861 57.2963C186.63 57.0402 186.349 56.7328 185.862 56.1949Z" fill="white"/>
<path d="M116.852 50.3293C117.389 50.7136 117.799 50.9185 118.081 51.2258C121.486 55.0423 124.867 58.8844 128.247 62.7265C128.631 63.1619 129.015 63.5718 129.604 64.2121C129.604 59.6016 129.604 55.2985 129.604 50.8929C130.474 50.8929 131.217 50.8929 132.011 50.8929C132.011 57.1939 132.011 63.4181 132.011 70.0009C131.499 69.6679 131.063 69.4886 130.782 69.1812C127.299 65.2879 123.868 61.369 120.411 57.45C120.104 57.0914 119.771 56.7328 119.259 56.1693C119.259 60.7798 119.259 65.1086 119.259 69.4886C118.388 69.4886 117.671 69.4886 116.852 69.4886C116.852 63.2644 116.852 56.989 116.852 50.3293Z" fill="white"/>
<path d="M65.5356 26.6108C64.8954 27.1999 64.332 27.7122 63.7175 28.3013C62.3603 26.7133 60.7215 25.868 58.6729 25.7912C54.0893 25.6375 50.7092 29.3771 51.375 33.9108C52.348 40.468 59.1594 41.2876 62.898 38.9824C63.2565 38.7519 63.487 38.0859 63.487 37.5992C63.5126 35.294 63.7431 35.6782 61.6177 35.6526C60.5166 35.6269 59.4155 35.6526 58.212 35.6526C58.212 34.8585 58.212 34.1669 58.212 33.3985C60.7983 33.3985 63.3334 33.3985 66.0221 33.3985C66.0221 35.4476 66.0477 37.5224 65.9965 39.5715C65.9965 39.7764 65.7148 40.0325 65.5099 40.1862C62.181 42.7732 58.4681 43.1831 54.6527 41.7231C51.0421 40.3655 49.1472 37.4968 48.7119 33.6547C48.0461 27.5842 53.6796 22.4614 59.8508 23.4603C62.1042 23.8445 63.9736 24.7922 65.5356 26.6108Z" fill="white"/>
<path d="M127.376 42.2353C126.48 42.2353 125.712 42.2353 124.918 42.2353C124.918 36.0111 124.918 29.8638 124.918 23.4091C127.555 23.5627 130.167 23.5115 132.677 23.947C135.391 24.408 137.132 26.5083 137.465 29.0185C137.901 32.2203 136.851 34.5511 134.239 36.0367C134.085 36.1136 133.932 36.216 133.65 36.3697C134.316 37.3431 134.956 38.3164 135.622 39.2641C136.262 40.1862 136.876 41.1339 137.645 42.2609C136.569 42.2609 135.698 42.3122 134.853 42.2353C134.597 42.2097 134.29 41.8767 134.111 41.6206C133.215 40.3399 132.344 39.0592 131.525 37.7529C131.192 37.215 130.808 37.0357 130.193 37.0357C127.376 37.0869 127.376 37.0613 127.376 39.9301C127.376 40.6729 127.376 41.3901 127.376 42.2353ZM127.376 30.2736C127.376 31.5287 127.376 32.7582 127.376 34.0132C127.376 34.4999 127.479 34.8329 128.068 34.7817C129.271 34.7048 130.5 34.7561 131.678 34.5255C133.855 34.1413 134.956 32.5789 134.93 30.2736C134.905 27.9427 133.778 26.4571 131.576 26.0985C130.423 25.9192 129.246 25.9192 128.068 25.9192C127.837 25.9192 127.427 26.3803 127.402 26.6364C127.325 27.8659 127.376 29.0697 127.376 30.2736Z" fill="white"/>
<path d="M100.182 50.8928C104.074 50.8928 107.864 50.8928 111.705 50.8928C111.705 51.6612 111.705 52.3784 111.705 53.1981C108.709 53.1981 105.738 53.1981 102.717 53.1981C102.717 55.6826 102.717 58.0391 102.717 60.4981C105.38 60.4981 107.992 60.4981 110.68 60.4981C110.68 61.3433 110.68 62.0861 110.68 62.9314C108.017 62.9314 105.405 62.9314 102.717 62.9314C102.717 64.3658 102.717 65.6977 102.717 67.1321C105.841 67.1321 108.939 67.1321 112.089 67.1321C112.089 67.9517 112.089 68.6689 112.089 69.4886C108.145 69.4886 104.202 69.4886 100.182 69.4886C100.182 63.3156 100.182 57.1682 100.182 50.8928Z" fill="white"/>
<path d="M73.3198 33.2961C76.0597 33.2961 78.646 33.2961 81.3348 33.2961C81.3348 34.0645 81.3348 34.7817 81.3348 35.5757C78.7229 35.5757 76.111 35.5757 73.4223 35.5757C73.4223 37.0357 73.4223 38.3932 73.4223 39.9045C76.4951 39.9045 79.5935 39.9045 82.7432 39.9045C82.7432 40.7497 82.7432 41.4413 82.7432 42.2097C78.7741 42.2097 74.8562 42.2097 70.8359 42.2097C70.8359 36.0368 70.8359 29.8894 70.8359 23.6396C74.6514 23.6396 78.4668 23.6396 82.3334 23.6396C82.3334 24.3312 82.3334 24.9971 82.3334 25.8168C82.0005 25.8424 81.642 25.8936 81.2835 25.8936C78.9789 25.8936 76.6487 25.9192 74.3441 25.868C73.4991 25.8424 73.2942 26.1241 73.2942 26.9438C73.371 28.9929 73.3198 31.0676 73.3198 33.2961Z" fill="white"/>
<path d="M110.733 25.868C110.733 28.4294 110.733 30.8115 110.733 33.2961C113.396 33.2961 116.008 33.2961 118.723 33.2961C118.723 34.0901 118.723 34.8073 118.723 35.6013C116.085 35.6013 113.473 35.6013 110.759 35.6013C110.759 37.0613 110.759 38.4189 110.759 39.9301C113.78 39.9301 116.853 39.9301 120.003 39.9301C120.003 40.7497 120.003 41.4669 120.003 42.261C119.67 42.2866 119.337 42.3378 119.004 42.3378C115.752 42.3378 112.5 42.3122 109.248 42.3634C108.429 42.3634 108.096 42.1841 108.096 41.2876C108.121 35.755 108.121 30.2224 108.096 24.6898C108.096 23.9213 108.275 23.5884 109.12 23.614C112.603 23.6652 116.111 23.6396 119.67 23.6396C119.67 24.408 119.67 25.0996 119.67 25.9448C116.751 25.868 113.806 25.868 110.733 25.868Z" fill="white"/>
<path d="M153.112 54.5044C152.446 54.9911 151.831 55.4265 151.242 55.8619C147.657 52.3784 143.483 52.0967 140.641 55.1191C137.901 58.0135 138.106 63.0339 141 65.6977C143.355 67.8493 148.451 68.5665 151.678 64.2377C152.318 64.6732 152.932 65.1342 153.573 65.5696C152.215 68.5921 147.888 70.3338 143.663 69.6166C139.591 68.9251 136.39 65.3135 136.109 61.1128C135.776 56.4511 138.183 52.5834 142.28 51.149C146.403 49.7402 150.858 51.0721 153.112 54.5044Z" fill="white"/>
<path d="M193.186 42.1841C194.44 39.136 195.669 36.1648 196.899 33.1936C198.128 30.1968 199.357 27.1999 200.637 24.2031C200.791 23.8445 201.149 23.5627 201.431 23.2554C201.687 23.5371 202.02 23.7933 202.148 24.1262C204.529 29.8125 206.885 35.5245 209.241 41.2364C209.343 41.5181 209.446 41.7999 209.574 42.2353C208.78 42.2353 208.089 42.2866 207.423 42.2097C207.193 42.1841 206.911 41.9023 206.808 41.6462C206.424 40.8266 206.091 40.0069 205.784 39.1616C205.605 38.6238 205.298 38.4188 204.709 38.4188C202.506 38.4445 200.279 38.3932 198.076 38.4701C197.744 38.4701 197.334 38.8031 197.103 39.1104C196.847 39.4434 196.745 39.9301 196.591 40.3399C195.746 42.4915 195.746 42.4915 193.186 42.1841ZM201.559 28.8392C201.457 28.8392 201.38 28.8392 201.277 28.8136C200.304 31.1701 199.357 33.5522 198.358 35.9599C200.458 35.9599 202.378 35.9599 204.453 35.9599C203.48 33.5266 202.532 31.1957 201.559 28.8392Z" fill="white"/>
<path d="M202.021 69.5654C202.278 68.8994 202.508 68.3359 202.738 67.7724C204.992 62.3166 207.245 56.8865 209.524 51.4307C209.652 51.0977 210.011 50.8672 210.267 50.5854C210.497 50.8672 210.805 51.0977 210.933 51.4051C213.34 57.1682 215.696 62.9314 218.077 68.6945C218.179 68.9507 218.256 69.2068 218.41 69.6166C217.693 69.6166 217.027 69.6679 216.413 69.591C216.131 69.5398 215.747 69.2836 215.619 69.0019C215.209 68.1566 214.953 67.2601 214.518 66.4405C214.364 66.1587 213.929 65.8514 213.621 65.8514C211.368 65.8001 209.14 65.8001 206.887 65.8514C206.554 65.8514 206.144 66.1844 205.914 66.4917C205.658 66.7991 205.581 67.2345 205.427 67.6187C204.531 69.7447 204.531 69.7447 202.021 69.5654ZM210.19 55.8363C209.115 58.5002 208.142 60.8567 207.143 63.29C209.243 63.29 211.163 63.29 213.237 63.29C212.239 60.8054 211.291 58.4746 210.19 55.8363Z" fill="white"/>
<path d="M82.2059 69.4886C82.1291 69.5398 82.1035 69.5654 82.0778 69.5654C79.7732 69.7959 79.7988 69.7703 78.877 67.6187C77.9295 65.4159 78.6209 65.8514 76.1627 65.8001C74.3958 65.7745 72.6289 65.8258 70.8621 65.7745C70.1963 65.7489 69.8378 65.9794 69.6585 66.6198C69.5561 66.9528 69.4024 67.2601 69.2744 67.5931C68.4038 69.7191 68.4038 69.7191 65.9199 69.5654C66.0223 69.258 66.0992 68.9763 66.2016 68.7201C68.6086 62.9058 70.9901 57.0914 73.4228 51.3026C73.5252 51.0209 73.8324 50.816 74.0373 50.5854C74.2678 50.7904 74.5751 50.9697 74.7031 51.2258C77.1614 57.1426 79.6196 63.0851 82.0778 69.0275C82.1547 69.2068 82.1803 69.3605 82.2059 69.4886ZM74.0885 55.8107C73.013 58.4746 72.04 60.8567 71.0413 63.3412C73.1667 63.3412 75.0872 63.3412 77.1613 63.3412C76.1371 60.8567 75.164 58.5002 74.0885 55.8107Z" fill="white"/>
<path d="M179.999 69.5654C177.49 69.7447 177.49 69.7447 176.619 67.5931C175.902 65.8258 175.902 65.8258 174.007 65.8258C172.215 65.8258 170.422 65.8514 168.604 65.8258C167.99 65.8258 167.631 65.9795 167.452 66.5942C167.324 67.0296 167.119 67.4395 166.965 67.8493C166.146 69.8728 166.095 69.8984 163.662 69.5142C163.893 68.9507 164.097 68.4128 164.328 67.9005C166.607 62.4191 168.86 56.9377 171.139 51.4563C171.267 51.1234 171.626 50.8928 171.856 50.6111C172.087 50.8672 172.394 51.1234 172.522 51.4307C174.929 57.1939 177.311 62.957 179.692 68.7458C179.769 68.9507 179.871 69.2068 179.999 69.5654ZM168.758 63.3156C170.883 63.3156 172.804 63.3156 174.878 63.3156C173.854 60.8311 172.906 58.449 171.831 55.8363C170.73 58.4746 169.782 60.8311 168.758 63.3156Z" fill="white"/>
<path d="M140.205 42.1841C142.023 37.8041 143.79 33.5522 145.531 29.2747C146.274 27.4561 147.016 25.6375 147.785 23.8189C147.887 23.5884 148.194 23.3578 148.425 23.3066C148.579 23.281 148.86 23.5884 148.963 23.7933C151.472 29.8126 153.956 35.8319 156.44 41.8767C156.465 41.9536 156.465 42.0817 156.465 42.1585C156.414 42.1841 156.389 42.2097 156.363 42.2097C154.084 42.4659 154.084 42.4659 153.213 40.3655C152.445 38.4701 152.445 38.4701 150.345 38.4701C148.604 38.4701 146.888 38.4957 145.173 38.4445C144.507 38.4189 144.148 38.6494 143.969 39.2641C143.867 39.6227 143.688 39.9813 143.534 40.3143C142.689 42.4915 142.689 42.4915 140.205 42.1841ZM148.399 28.5063C147.324 31.1445 146.351 33.501 145.352 35.9855C147.426 35.9855 149.372 35.9855 151.472 35.9855C150.448 33.5266 149.475 31.1445 148.399 28.5063Z" fill="white"/>
<path d="M17.498 58.6795C18.2663 57.8854 19.1625 56.9377 20.1868 55.8619C21.1086 56.8097 22.0305 57.8086 22.9523 58.7563C25.0265 60.8567 27.1006 62.9058 29.2004 65.0061C32.5037 68.3359 34.7827 72.2805 36.0374 76.8142C36.0886 77.0447 36.1398 77.2752 36.1398 77.3264C29.9686 71.1535 23.6949 64.8781 17.498 58.6795Z" fill="white"/>
<path d="M22.107 92.0545C20.3145 91.3885 18.7269 90.8762 17.1905 90.2359C14.3481 89.0064 11.813 87.2903 9.61082 85.0875C6.48679 81.9882 3.41397 78.8633 0.417969 75.8408C1.31421 74.8931 2.23604 73.9198 3.10668 72.9977C9.35475 79.2987 15.6284 85.5485 22.107 92.0545Z" fill="white"/>
<path d="M58.7762 64.417C59.2884 63.1363 59.6981 62.1117 60.1078 61.1128C61.3113 58.1416 62.566 55.1704 63.6671 52.1735C64.0512 51.1234 64.589 50.6879 65.6901 50.8416C66.0486 50.8928 66.4327 50.8416 66.9192 50.8416C66.7912 51.277 66.7144 51.5588 66.5863 51.8405C64.2305 57.5525 61.8491 63.2388 59.4676 68.9507C59.3396 69.2837 59.0067 69.5398 58.7506 69.8216C58.4946 69.5398 58.1617 69.2837 58.008 68.9763C55.6266 63.29 53.2707 57.5781 50.9149 51.8662C50.8125 51.5844 50.7101 51.3026 50.582 50.8672C51.4271 50.8672 52.1953 50.7904 52.9379 50.8928C53.1939 50.9184 53.4756 51.3539 53.6036 51.6612C55.1401 55.4265 56.6509 59.2174 58.1873 62.9826C58.3409 63.3668 58.4946 63.751 58.7762 64.417Z" fill="white"/>
<path d="M222.403 23.6396C222.403 24.408 222.403 25.074 222.403 25.8936C220.534 25.8936 218.716 25.8936 216.796 25.8936C216.796 31.4006 216.796 36.7539 216.796 42.2353C215.874 42.2353 215.08 42.2353 214.158 42.2353C214.158 36.8308 214.158 31.4518 214.158 25.9705C212.263 25.9705 210.496 25.9705 208.627 25.9705C208.627 25.1508 208.627 24.4592 208.627 23.6652C213.211 23.6396 217.743 23.6396 222.403 23.6396Z" fill="white"/>
<path d="M188.756 25.8936C188.756 31.4006 188.756 36.7796 188.756 42.2353C187.886 42.2353 187.092 42.2353 186.17 42.2353C186.17 36.8308 186.17 31.4262 186.17 25.8936C184.249 25.8936 182.457 25.8936 180.613 25.8936C180.613 25.0996 180.613 24.408 180.613 23.6396C185.12 23.6396 189.576 23.6396 194.134 23.6396C194.134 24.3568 194.134 25.0484 194.134 25.8936C192.341 25.8936 190.6 25.8936 188.756 25.8936Z" fill="white"/>
<path d="M96.47 67.1833C96.47 68.0798 96.47 68.7714 96.47 69.5398C92.8594 69.5398 89.3256 69.5398 85.6895 69.5398C85.6895 63.3668 85.6895 57.1939 85.6895 50.8416C86.3296 50.8416 87.021 50.816 87.6868 50.8416C88.4294 50.8672 88.1989 51.4563 88.1989 51.8661C88.2245 56.5279 88.1989 61.1896 88.1989 65.877C88.1989 66.2868 88.1989 66.6966 88.1989 67.1833C91.0157 67.1833 93.7044 67.1833 96.47 67.1833Z" fill="white"/>
<path d="M170.831 39.9301C170.831 40.7753 170.831 41.4413 170.831 42.2097C167.221 42.2097 163.636 42.2097 160.025 42.2097C160.025 36.0111 160.025 29.8381 160.025 23.614C160.819 23.614 161.562 23.614 162.484 23.614C162.484 29.0441 162.484 34.4487 162.484 39.9301C165.352 39.9301 168.015 39.9301 170.831 39.9301Z" fill="white"/>
<path d="M160.256 69.5654C159.36 69.5654 158.566 69.5654 157.721 69.5654C157.721 63.3412 157.721 57.1427 157.721 50.8416C158.412 50.8416 159.078 50.7392 159.692 50.8928C159.949 50.9441 160.23 51.5076 160.23 51.8406C160.256 56.5279 160.256 61.2153 160.256 65.9283C160.256 67.1321 160.256 68.3104 160.256 69.5654Z" fill="white"/>
<path d="M174.545 23.614C175.39 23.614 176.133 23.614 176.926 23.614C176.926 29.8125 176.926 35.9343 176.926 42.1841C176.158 42.1841 175.39 42.1841 174.545 42.1841C174.545 36.0367 174.545 29.8638 174.545 23.614Z" fill="white"/>
<path d="M4.97656 16.9287C6.20569 15.8017 6.38494 13.522 9.02245 13.6245C7.61407 14.9308 7.30679 17.0824 4.97656 16.9287Z" fill="white"/>
<path d="M13.8875 4.96698C14.2972 5.53049 14.7325 5.83786 14.7069 6.09399C14.6813 6.40136 14.246 6.6575 13.9899 6.93926C13.7082 6.68312 13.2729 6.45259 13.2217 6.17084C13.1705 5.88908 13.529 5.53049 13.8875 4.96698Z" fill="white"/>
<path d="M24.2582 42.2097C23.9509 40.5704 23.6948 39.2129 23.4131 37.7273C22.8754 37.7017 22.312 37.6504 21.6719 37.6248C21.6719 37.1125 21.6719 36.6515 21.6719 36.1392C22.2864 36.1136 22.8242 36.0624 23.4644 36.0368C23.49 35.422 23.5156 34.8585 23.5668 34.2438C24.0277 34.2438 24.4374 34.2438 24.9496 34.2438C25.0008 34.8073 25.052 35.3708 25.1032 36.0368C25.7178 36.0624 26.2811 36.088 26.9469 36.1136C26.9469 36.6003 26.9469 37.0613 26.9469 37.5992C26.3836 37.6248 25.769 37.676 25.1544 37.7273C24.8471 39.1617 24.5911 40.5448 24.2582 42.2097Z" fill="white"/>
</svg>
