<svg width="178" height="85" viewBox="0 0 178 85" fill="none" xmlns="http://www.w3.org/2000/svg">
<path d="M88.3948 38.5662C87.0633 40.0006 85.7829 41.3582 84.5282 42.7157C82.6333 44.7136 80.3287 45.6613 77.5631 45.6101C73.1844 45.5589 68.8056 45.6101 64.4268 45.6101C61.8661 45.6101 60.5858 44.355 60.5602 41.7936C60.5346 39.4115 60.5858 37.0294 60.5346 34.6473C60.509 33.674 60.8418 33.3922 61.8149 33.3922C66.757 33.4434 71.6992 33.3922 76.6157 33.4178C77.6399 33.4178 78.4082 33.1361 79.1508 32.3933C81.9163 29.5245 84.7587 26.7326 87.5498 23.8894C87.8571 23.5821 88.1644 23.3003 88.5741 22.9417C88.9326 23.2491 89.2655 23.5052 89.5727 23.8126C92.4151 26.6557 95.2831 29.4989 98.0742 32.3933C98.7912 33.1361 99.5594 33.4178 100.609 33.4178C105.551 33.3666 110.494 33.4178 115.41 33.3666C116.383 33.3666 116.716 33.6484 116.716 34.5961C116.665 37.0294 116.742 39.4371 116.69 41.8704C116.639 44.2525 115.333 45.5332 112.926 45.5589C108.368 45.5845 103.836 45.5589 99.2778 45.5589C96.7939 45.5589 94.7197 44.688 92.9785 42.9462C91.8774 41.8448 90.7763 40.7434 89.6752 39.642C89.3423 39.3347 88.9838 39.0529 88.3948 38.5662Z" fill="white"/>
<path d="M88.573 22.6856C86.7037 20.8414 84.8856 19.074 83.0932 17.281C81.7104 15.8979 80.3276 14.5403 78.9961 13.1316C78.3559 12.44 77.6389 12.2094 76.6914 12.2094C71.8517 12.2351 66.9864 12.1838 62.1467 12.2607C60.892 12.2863 60.4823 11.8765 60.5335 10.6214C60.6103 8.41858 60.5335 6.19017 60.5591 3.98736C60.5591 1.34912 61.7626 0.170882 64.3489 0.170882C69.035 0.170882 73.6954 0.22211 78.3815 0.145268C80.6093 0.119654 82.4274 0.913687 83.9894 2.42491C85.2697 3.65438 86.5245 4.90947 87.7536 6.19017C88.3682 6.83052 88.8291 6.88174 89.4693 6.21578C90.596 5.01192 91.7995 3.88491 92.9518 2.70666C94.6418 0.990528 96.6136 0.0940399 99.0974 0.145268C103.809 0.247724 108.546 0.170882 113.258 0.170882C115.255 0.170882 116.561 1.2979 116.638 3.29579C116.741 5.93403 116.664 8.57227 116.689 11.2361C116.715 12.3375 115.947 12.2351 115.255 12.2351C110.416 12.2351 105.55 12.2607 100.711 12.2094C99.5584 12.1838 98.7645 12.5424 97.9707 13.3621C95.2308 16.1796 92.4141 18.9459 89.6229 21.7378C89.3412 22.0196 89.0083 22.3014 88.573 22.6856Z" fill="white"/>
<path d="M39.0234 75.5528C39.0234 77.9349 38.9978 80.317 39.049 82.6991C39.0746 83.5956 38.8441 84.0567 37.8198 84.0311C34.3629 83.9542 34.9519 84.4409 34.9263 81.1623C34.9007 77.73 34.9263 77.73 31.4181 77.73C29.6 77.73 27.7819 77.8069 25.9639 77.7044C24.6579 77.6276 24.2994 78.1142 24.4018 79.3437C24.5043 80.4963 24.4018 81.6746 24.4274 82.8528C24.4531 83.6469 24.2482 84.0567 23.352 84.0311C19.6902 83.9542 20.3816 84.4409 20.3303 81.1623C20.2791 77.0385 20.3047 72.9402 20.3303 68.8164C20.3303 66.716 22.046 64.923 24.1458 64.8974C27.8332 64.8462 31.5205 64.8462 35.1823 64.8974C37.2821 64.923 38.9978 66.7416 38.9978 68.8164C39.0234 71.0448 38.9978 73.2988 39.0234 75.5528C38.9978 75.5528 38.9978 75.5528 39.0234 75.5528ZM24.4274 75.5272C24.5043 75.6041 24.5811 75.7065 24.6579 75.7834C25.759 74.1185 27.3722 74.6564 28.8318 74.6051C30.4707 74.5539 32.1351 74.5539 33.774 74.6051C34.619 74.6307 34.9263 74.2978 34.9007 73.4781C34.8494 72.0181 34.875 70.5325 34.9007 69.0469C34.9007 68.3809 34.747 67.9711 33.9788 67.9967C31.0852 68.0223 28.166 67.9967 25.2725 68.0223C24.9908 68.0223 24.4787 68.3809 24.4787 68.5858C24.4018 70.8911 24.4274 73.1964 24.4274 75.5272Z" fill="white"/>
<path d="M103.169 77.9861C104.629 79.984 105.986 81.8538 107.548 84.0054C105.884 84.0054 104.603 84.0566 103.323 83.9798C102.99 83.9542 102.632 83.5187 102.375 83.1858C101.249 81.7002 100.122 80.2145 99.0466 78.6777C98.5857 78.0117 98.0735 77.6788 97.2285 77.7044C95.7945 77.7556 94.3605 77.7556 92.9266 77.7044C92.1327 77.6788 91.8511 77.9861 91.8767 78.7545C91.9279 80.0865 91.8511 81.444 91.9023 82.7759C91.9279 83.6468 91.6718 84.031 90.7244 84.0054C87.165 83.9286 87.8308 84.3896 87.7796 81.1623C87.7284 77.0128 87.754 72.8377 87.7796 68.6883C87.7796 66.8184 89.4184 64.8974 91.2621 64.8718C95.1543 64.7949 99.0722 64.7949 102.964 64.8718C104.757 64.8974 106.473 66.8697 106.498 68.6883C106.498 69.9946 106.345 71.3009 106.524 72.5816C106.959 75.2967 105.628 76.8591 103.169 77.9861ZM102.427 67.9967C98.9954 67.9967 95.8201 67.9967 92.6193 68.0223C92.3888 68.0223 92.0047 68.3297 92.0047 68.4833C91.9535 70.8398 91.9791 73.1963 91.9791 75.1942C93.3106 74.9637 94.463 74.6819 95.6409 74.6051C97.587 74.5026 99.5331 74.6051 101.479 74.5539C101.812 74.5539 102.401 74.1184 102.401 73.8623C102.452 71.9925 102.427 70.097 102.427 67.9967Z" fill="white"/>
<path d="M69.5731 73.5805C70.8791 73.3244 71.9033 72.9914 72.9532 72.9402C75.2578 72.8634 77.5369 72.9658 79.8415 72.889C81.173 72.8377 81.0194 73.683 81.0194 74.5283C81.0194 75.3735 81.1474 76.1676 79.8159 76.1163C76.8199 76.0395 73.8239 76.1163 70.8535 76.0651C69.906 76.0395 69.4963 76.3212 69.5731 77.3202C69.6243 78.0886 69.6499 78.8826 69.5731 79.6511C69.4707 80.7012 69.906 81.0086 70.9047 80.983C74.7713 80.9318 78.6123 80.9574 82.479 80.9574C83.8617 80.9574 84.6556 82.3405 83.9386 83.57C83.8105 83.8005 83.3752 83.9542 83.0679 83.9542C78.2538 83.9798 73.4398 83.9798 68.6513 83.9542C67.2173 83.9286 65.5272 82.11 65.5016 80.6756C65.476 76.5518 65.476 72.4279 65.5016 68.3297C65.5016 66.8441 67.2685 64.8974 68.8049 64.8718C73.5678 64.795 78.3307 64.8206 83.0935 64.8206C84.5019 64.8206 83.913 65.9732 84.0154 66.6648C84.1434 67.4588 83.913 67.9711 82.9143 67.9711C78.9708 67.9455 75.0274 67.9967 71.0839 67.9199C69.8804 67.8942 69.4707 68.2528 69.5475 69.4567C69.6499 70.9423 69.5731 72.4023 69.5731 73.5805Z" fill="white"/>
<path d="M47.0899 67.9967C47.0899 70.097 47.0899 71.9924 47.0899 74.1696C48.5751 72.3767 50.4188 72.9914 52.1089 72.9402C53.927 72.8889 55.7451 72.9402 57.5631 72.9145C58.6642 72.8889 59.5349 73.2475 60.3799 73.9903C61.2761 74.7844 61.6858 75.6296 61.609 76.8335C61.5322 77.7812 61.5834 78.7289 61.5834 79.7023C61.5834 82.6479 60.2263 84.031 57.2559 84.031C53.3892 84.031 49.5482 83.9798 45.6816 84.0566C44.35 84.0822 44.4012 83.3907 44.35 82.443C44.3244 81.4184 44.5549 80.9573 45.7072 80.983C49.2153 81.0598 52.7234 80.9829 56.2316 81.0342C57.179 81.0342 57.5631 80.7524 57.4863 79.7791C57.4095 78.9594 57.4351 78.1398 57.4863 77.3202C57.5375 76.3981 57.1534 76.1419 56.2572 76.1419C53.1075 76.1675 49.9323 76.1675 46.7827 76.1419C44.6317 76.1419 42.916 74.4514 42.916 72.3254C42.916 71.2753 42.916 70.2507 42.916 69.2005C42.916 66.4854 44.5292 64.8974 47.2436 64.8718C51.059 64.8718 54.8744 64.923 58.6898 64.8461C60.0726 64.8205 60.047 65.5121 60.0982 66.5367C60.1494 67.6381 59.8422 68.0735 58.6642 68.0479C55.3353 67.9711 52.0065 68.0223 48.652 68.0223C48.191 67.9967 47.7301 67.9967 47.0899 67.9967Z" fill="white"/>
<path d="M136.894 64.8718C136.177 67.3051 135.563 69.4311 134.948 71.5314C133.847 75.3223 132.72 79.0876 131.67 82.8784C131.414 83.7493 131.03 84.0567 130.134 84.0311C128.316 83.9798 126.498 84.0567 124.68 83.9798C124.244 83.9542 123.579 83.5444 123.476 83.1602C121.709 77.269 119.994 71.3778 118.304 65.4866C118.278 65.3841 118.304 65.2304 118.329 64.8974C119.43 64.8974 120.557 64.795 121.632 64.9487C121.991 64.9999 122.401 65.6658 122.554 66.1269C123.886 70.5581 125.141 75.0149 126.472 79.4462C126.651 80.0097 126.498 81.1111 127.522 80.8806C127.932 80.8037 128.341 80.0353 128.521 79.4974C129.878 75.0149 131.184 70.5325 132.439 66.0501C132.695 65.1023 133.156 64.795 134.077 64.8718C134.897 64.923 135.742 64.8718 136.894 64.8718Z" fill="white"/>
<path d="M164.371 67.9967C164.371 72.8121 164.371 77.4226 164.371 82.5198C165.523 80.5988 167.085 80.983 168.493 80.983C171.054 80.9574 173.615 81.0342 176.15 80.9574C177.405 80.9061 177.328 81.6233 177.302 82.443C177.276 83.237 177.558 84.0823 176.175 84.0566C172.027 83.9798 167.853 84.0567 163.705 84.031C161.964 84.031 160.222 82.2637 160.222 80.5219C160.197 76.5261 160.197 72.556 160.222 68.5602C160.222 66.8441 162.015 64.923 163.782 64.923C167.981 64.8718 172.181 64.8974 176.38 64.8974C176.995 64.8974 177.302 65.0767 177.353 65.7683C177.481 68.0223 177.533 68.0223 175.279 68.0223C171.669 67.9967 168.084 67.9967 164.371 67.9967Z" fill="white"/>
<path d="M4.09634 81.5465C5.42789 81.3416 6.60581 81.0598 7.75812 81.0086C10.4468 80.9318 13.1356 81.0342 15.8243 80.9574C17.079 80.9061 17.2071 81.4953 17.2071 82.5198C17.2327 83.6212 16.951 84.0567 15.7731 84.031C11.7016 83.9542 7.63008 84.0054 3.55859 84.0054C1.68929 84.0054 0.0248441 82.3149 0.0248441 80.4707C0.0248441 75.7577 0.0760578 71.0191 -0.000762773 66.3062C-0.0263696 65.1279 0.357733 64.8206 1.48444 64.8462C4.58287 64.923 4.07073 64.6413 4.07073 67.382C4.09634 71.8132 4.07073 76.2188 4.07073 80.65C4.09634 81.0598 4.09634 81.4696 4.09634 81.5465Z" fill="white"/>
<path d="M144.166 81.5209C145.523 81.316 146.727 81.0342 147.93 81.0086C150.619 80.9318 153.308 81.0342 155.996 80.9574C157.2 80.9318 157.226 81.5465 157.174 82.4174C157.149 83.2114 157.405 84.0823 156.022 84.0567C151.823 84.0054 147.623 84.0567 143.424 84.0311C141.733 84.0054 140.018 82.2637 140.018 80.5988C140.018 75.7834 140.043 70.9679 139.992 66.1781C139.992 65.2304 140.223 64.8462 141.221 64.8718C144.704 64.9486 144.064 64.5388 144.089 67.6381C144.141 71.9156 144.089 76.2188 144.089 80.4963C144.115 80.9318 144.141 81.3928 144.166 81.5209Z" fill="white"/>
<path d="M28.7294 63.4374C28.4222 63.4374 28.1149 63.463 27.8332 63.4374C26.937 63.3862 26.6553 62.8739 27.065 62.0799C27.8332 60.6455 30.3683 59.6978 31.9047 60.3125C32.7241 60.6455 32.4681 61.2602 32.0839 61.7725C31.1365 63.13 30.5219 63.4374 28.7294 63.4374Z" fill="white"/>
</svg>
