<svg width="255" height="35" viewBox="0 0 255 35" fill="none" xmlns="http://www.w3.org/2000/svg">
<path d="M51.8824 33.7553C49.5522 33.7553 47.2988 33.7553 44.9941 33.7553C44.9941 25.7125 44.9941 17.6954 44.9941 9.65257C47.2732 9.65257 49.5521 9.65257 51.8568 9.65257C51.8568 10.7027 51.8568 11.7529 51.8568 12.7775C53.7261 10.5747 55.9795 9.14029 58.9499 9.14029C61.8947 9.1659 64.2762 10.2417 65.6845 12.7519C66.8112 11.9066 67.8099 10.9077 69.039 10.2929C72.2911 8.65362 75.5943 8.55117 78.744 10.6003C80.5877 11.8041 81.3815 13.6996 81.7144 15.7999C81.8424 16.6196 81.868 17.4392 81.868 18.2589C81.8936 23.2024 81.868 28.1459 81.868 33.0894C81.868 33.2943 81.868 33.4992 81.868 33.7297C79.5634 33.7297 77.31 33.7297 74.9798 33.7297C74.9798 33.5248 74.9798 33.3199 74.9798 33.1406C74.9798 28.8631 75.0054 24.5855 74.9542 20.3336C74.9542 19.5652 74.8518 18.7968 74.6469 18.0796C74.0836 16.0048 72.3167 15.2108 70.3962 15.4926C68.3732 15.7743 67.1953 17.0294 66.9649 19.0529C66.8881 19.6164 66.8624 20.2055 66.8624 20.7946C66.8624 24.9185 66.8624 29.0423 66.8624 33.1662C66.8624 33.3711 66.8624 33.576 66.8624 33.8065C64.5578 33.8065 62.2788 33.8065 59.9485 33.8065C59.9485 33.576 59.9485 33.3967 59.9485 33.1918C59.9485 28.8887 59.9485 24.6111 59.9485 20.308C59.9485 19.6164 59.8462 18.8992 59.6669 18.2076C59.1036 16.0048 57.2599 15.2364 55.365 15.5182C53.1628 15.8255 51.908 17.3368 51.8824 19.6932C51.8312 24.1757 51.8568 28.6581 51.8568 33.1406C51.8824 33.2943 51.8824 33.4992 51.8824 33.7553Z" fill="white"/>
<path d="M197.457 33.7553C195.101 33.7553 192.847 33.7553 190.517 33.7553C190.517 33.4992 190.517 33.2943 190.517 33.0637C190.517 28.5045 190.543 23.9452 190.492 19.4115C190.466 17.4392 189.339 15.928 187.726 15.5694C185.088 14.9803 182.681 16.1585 182.502 19.4371C182.349 22.2034 182.425 24.9697 182.4 27.7616C182.4 29.7339 182.4 31.7318 182.4 33.7553C180.095 33.7553 177.842 33.7553 175.537 33.7553C175.537 25.7381 175.537 17.6954 175.537 9.65257C177.816 9.65257 180.069 9.65257 182.374 9.65257C182.374 10.7284 182.374 11.7785 182.374 13.0336C184.243 10.6259 186.471 9.1659 189.467 9.1659C192.412 9.1659 194.819 10.2673 196.356 12.9568C197.559 11.5992 198.891 10.4978 200.555 9.85748C202.936 8.96099 205.343 8.88415 207.751 9.75502C210.593 10.8052 211.899 13.0848 212.334 15.9536C212.462 16.8757 212.488 17.8234 212.488 18.7455C212.513 23.5353 212.488 28.2995 212.488 33.0894C212.488 33.2943 212.488 33.4992 212.488 33.7553C210.183 33.7553 207.904 33.7553 205.574 33.7553C205.574 33.5504 205.574 33.3455 205.574 33.1406C205.574 28.8374 205.574 24.5599 205.574 20.2568C205.574 19.1041 205.42 17.9771 204.755 16.9782C203.244 14.7241 199.403 14.9034 198.122 17.3111C197.636 18.2332 197.457 19.2066 197.457 20.2311C197.457 24.5343 197.457 28.8118 197.457 33.115C197.457 33.3199 197.457 33.4992 197.457 33.7553Z" fill="white"/>
<path d="M135.823 33.7553C133.518 33.7553 131.265 33.7553 128.96 33.7553C128.96 32.7051 128.96 31.655 128.96 30.5023C128.806 30.656 128.704 30.7329 128.627 30.8097C125.554 34.703 120.689 35.0104 116.899 33.243C113.314 31.5525 111.394 28.5813 110.677 24.7648C110.113 21.768 110.267 18.7967 111.445 15.9536C113.007 12.1883 115.798 9.88309 119.87 9.26835C123.326 8.75607 126.323 9.7294 128.653 12.3933C128.704 12.4445 128.755 12.4957 128.883 12.5982C128.883 8.67923 128.883 4.81152 128.883 0.892578C131.213 0.892578 133.492 0.892578 135.797 0.892578C135.823 11.8554 135.823 22.7669 135.823 33.7553ZM129.062 21.4094C129.011 21.0252 128.96 20.3336 128.806 19.6676C128.269 17.3111 126.348 15.4413 124.12 15.0827C121.713 14.6985 119.409 15.8255 118.18 18.1052C117.155 20.0006 117.078 22.0241 117.667 24.0732C118.768 27.9666 123.224 29.6315 126.451 27.3262C128.32 25.9687 128.986 23.9708 129.062 21.4094Z" fill="white"/>
<path d="M229.849 19.975C230.054 17.3111 228.364 15.4669 225.701 15.2876C223.063 15.1083 220.528 15.5694 218.019 16.5683C217.43 14.801 216.867 13.0592 216.278 11.2919C217.917 10.5234 219.581 9.98555 221.348 9.67818C223.524 9.31958 225.701 9.19151 227.903 9.44765C232.384 9.95993 235.585 12.3164 236.302 17.2343C236.43 18.0539 236.507 18.8736 236.507 19.6932C236.533 24.2525 236.507 28.7862 236.507 33.3455C236.507 33.448 236.507 33.576 236.507 33.7041C234.254 33.7041 232.052 33.7041 229.798 33.7041C229.798 32.9357 229.798 32.1416 229.798 31.4501C228.851 32.0648 227.954 32.8588 226.93 33.2687C223.396 34.7287 219.914 34.6774 216.713 32.3465C215.074 31.1427 214.332 29.3753 214.204 27.3518C214.127 25.7381 214.306 24.1757 215.177 22.7669C216.406 20.7434 218.326 19.7957 220.528 19.3346C223.473 18.7199 226.418 18.8992 229.286 19.7957C229.491 19.8725 229.644 19.9238 229.849 19.975ZM225.752 23.0231C224.728 23.2536 223.78 23.356 222.884 23.6634C221.655 24.0989 220.964 25.0466 220.913 26.3785C220.861 27.5311 221.348 28.4276 222.372 28.9655C223.191 29.4009 224.062 29.529 224.984 29.4778C227.647 29.3241 230.208 27.9922 230.003 24.5599C229.977 24.1501 229.849 23.9452 229.465 23.8427C228.21 23.5866 226.956 23.3048 225.752 23.0231Z" fill="white"/>
<path d="M85.914 9.62695C88.2442 9.62695 90.4976 9.62695 92.8534 9.62695C92.8534 9.85748 92.8534 10.088 92.8534 10.2929C92.8534 14.8266 92.8278 19.3603 92.879 23.8939C92.9046 25.9431 93.9801 27.4287 95.747 27.8385C98.2053 28.402 100.664 27.4543 101.099 24.3294C101.176 23.8427 101.201 23.3304 101.201 22.8182C101.201 18.6431 101.201 14.468 101.201 10.2929C101.201 10.088 101.201 9.88309 101.201 9.65257C103.506 9.65257 105.759 9.65257 108.064 9.65257C108.064 17.6954 108.064 25.7125 108.064 33.7809C105.785 33.7809 103.531 33.7809 101.201 33.7809C101.201 32.7308 101.201 31.6806 101.201 30.656C100.382 31.3988 99.6392 32.1929 98.7942 32.8332C93.9545 36.3936 87.0406 33.5504 86.1188 27.6336C85.9651 26.7115 85.9139 25.7638 85.8883 24.8417C85.8627 20.0006 85.8883 15.1596 85.8883 10.3441C85.9139 10.1136 85.914 9.90871 85.914 9.62695Z" fill="white"/>
<path d="M157.024 9.62696C157.024 10.7028 157.024 11.7273 157.024 12.9568C157.306 12.6238 157.511 12.4189 157.69 12.1884C160.814 8.42311 165.731 8.47433 168.804 10.3954C170.775 11.6249 171.748 13.5203 172.133 15.7487C172.286 16.6708 172.363 17.6441 172.363 18.5919C172.389 23.4329 172.363 28.2739 172.363 33.0894C172.363 33.2943 172.363 33.4992 172.363 33.7297C170.033 33.7297 167.754 33.7297 165.424 33.7297C165.424 33.4992 165.424 33.2943 165.424 33.0894C165.424 28.5813 165.424 24.0476 165.398 19.5396C165.372 17.5161 164.297 16.0048 162.607 15.5694C160.2 14.9291 157.562 15.9024 157.153 19.1297C157.101 19.6164 157.05 20.1031 157.05 20.5897C157.05 24.7392 157.05 28.9143 157.05 33.0638C157.05 33.2687 157.05 33.4736 157.05 33.7041C154.746 33.7041 152.492 33.7041 150.188 33.7041C150.188 25.6869 150.188 17.6441 150.188 9.60135C152.467 9.62697 154.72 9.62696 157.024 9.62696Z" fill="white"/>
<path d="M246.521 33.7553C244.242 33.7553 241.988 33.7553 239.684 33.7553C239.684 25.7125 239.684 17.6697 239.684 9.62694C241.988 9.62694 244.242 9.62694 246.546 9.62694C246.546 11.1382 246.546 12.6238 246.546 14.1094C247.366 12.675 248.211 11.2919 249.619 10.3441C251.027 9.39642 252.589 9.08905 254.28 9.14028C254.28 11.548 254.28 13.9045 254.28 16.3122C253.639 16.389 252.948 16.389 252.308 16.5171C249.389 17.0294 247.494 18.848 246.93 21.768C246.726 22.8181 246.623 23.9195 246.597 24.9953C246.546 27.8641 246.572 30.7329 246.572 33.6016C246.546 33.6529 246.521 33.6785 246.521 33.7553Z" fill="white"/>
<path d="M16.904 33.6529C15.0603 33.6529 13.4215 32.4746 12.8581 30.7329C12.2948 28.9399 12.935 27.0444 14.4714 25.9174C14.9323 25.5844 15.3676 25.1746 15.7517 24.7392C16.4687 23.9195 16.6479 22.9718 16.2638 21.9729C16.0334 21.3838 15.7773 20.7946 15.4444 20.2567C14.2665 18.3357 14.625 16.0048 16.3663 14.5961C18.0051 13.2385 20.3865 13.3666 22.0254 14.8522C22.4863 15.262 22.9472 15.6718 23.4593 16.0048C24.7653 16.9013 25.764 16.7476 26.8138 15.5438C27.5564 14.6729 28.4015 13.9813 29.5794 13.7508C31.3207 13.3922 33.2156 14.2118 34.1374 15.8255C35.0337 17.388 34.8288 19.4627 33.6509 20.7434C31.8328 22.7413 29.0161 22.7413 27.1724 20.7434C26.6346 20.1543 26.0457 19.6164 25.2519 19.4371C24.2788 19.2066 23.5106 19.6932 22.7936 20.2824C22.0254 20.9227 21.2828 21.6143 20.5146 22.2802C19.5159 23.1511 19.2086 24.1501 19.7976 25.3795C20.1561 26.0967 20.4378 26.8395 20.7963 27.5823C22.1791 30.3999 20.1305 33.6785 16.904 33.6529Z" fill="white"/>
<path d="M139.561 9.62695C141.865 9.62695 144.144 9.62695 146.423 9.62695C146.423 17.6697 146.423 25.6869 146.423 33.7297C144.144 33.7297 141.865 33.7297 139.561 33.7297C139.561 25.7125 139.561 17.6697 139.561 9.62695Z" fill="white"/>
<path d="M7.01833 22.1778C4.63689 22.1778 2.76758 20.2824 2.76758 17.9003C2.76758 15.4925 4.66249 13.6227 7.09514 13.6483C9.45098 13.6483 11.3459 15.5694 11.3459 17.9515C11.3203 20.2824 9.42537 22.1778 7.01833 22.1778Z" fill="white"/>
<path d="M24.996 6.3996C24.996 8.7817 23.1267 10.7028 20.7453 10.7028C18.3639 10.7028 16.4434 8.7817 16.4434 6.37399C16.4434 4.0175 18.3639 2.12207 20.7453 2.12207C23.1267 2.12207 24.996 3.99189 24.996 6.3996Z" fill="white"/>
<path d="M4.86818 33.6785C2.51235 33.6785 0.591797 31.7574 0.591797 29.4009C0.591797 27.0701 2.5379 25.1234 4.89373 25.0978C7.24956 25.0978 9.24691 27.0957 9.2213 29.4265C9.17008 31.8086 7.24962 33.6785 4.86818 33.6785Z" fill="white"/>
<path d="M32.1916 29.401C32.1916 31.7831 30.3223 33.6785 27.9153 33.6785C25.5339 33.6785 23.6389 31.7831 23.6133 29.4266C23.6133 27.0701 25.5082 25.1234 27.864 25.1234C30.2967 25.0978 32.1916 26.9932 32.1916 29.401Z" fill="white"/>
<path d="M4.919 6.32276C4.99582 3.88943 6.91631 2.04523 9.29775 2.12207C11.7304 2.17329 13.5485 4.11996 13.4717 6.60451C13.4205 8.88416 11.3719 10.7796 9.04166 10.7027C6.73705 10.6003 4.86778 8.62802 4.919 6.32276Z" fill="white"/>
<path d="M32.2414 10.7027C29.9112 10.7027 27.9651 8.75605 27.9395 6.42518C27.9395 4.06869 29.86 2.14764 32.2158 2.14764C34.5973 2.14764 36.5178 4.01746 36.5434 6.39956C36.5946 8.67921 34.5972 10.7027 32.2414 10.7027Z" fill="white"/>
<path d="M142.991 8.11572C140.943 8.11572 139.381 6.55327 139.381 4.50415C139.381 2.48064 140.968 0.892578 143.017 0.892578C145.04 0.892578 146.628 2.48064 146.628 4.52976C146.628 6.55327 145.04 8.11572 142.991 8.11572Z" fill="white"/>
</svg>
