<svg width="264" height="49" viewBox="0 0 264 49" fill="none" xmlns="http://www.w3.org/2000/svg">
<path d="M0.269531 25.1331H5.80062V31.4085C5.80062 32.4074 6.10787 32.9197 6.72243 32.9197C7.337 32.9197 7.64432 31.9464 7.64432 30.0253C7.64432 27.5151 7.26019 25.9015 6.49198 25.1843C3.59841 23.1864 1.85712 21.8032 1.26816 21.0092C0.6792 20.2152 0.371981 19.0369 0.371981 17.4489V13.4787C0.371981 9.30362 2.52293 7.22888 6.82488 7.22888C11.0244 7.22888 13.0986 9.22676 13.0986 13.2225V19.0625H7.69551L7.82359 15.5278C7.82359 13.0689 7.49064 11.8394 6.79925 11.8394C6.10787 11.8394 5.77499 12.6078 5.77499 14.1702C5.77499 15.7583 5.92861 16.9878 6.2359 17.7818C6.54318 18.6015 8.23329 20.0102 11.3317 21.9825C12.6121 23.1864 13.2522 24.8001 13.2522 26.7724V31.2036C13.2522 35.3786 11.0757 37.4534 6.69688 37.4534C2.42053 37.4534 0.269531 35.4555 0.269531 31.4597V25.1331Z" fill="white"/>
<path d="M31.3557 24.4927H23.9297V31.4085C23.9297 32.4074 24.237 32.9197 24.8771 32.9197C25.4917 32.9197 25.799 32.4074 25.799 31.4085V25.4404H31.3301V31.4597C31.3301 35.4555 29.1535 37.4534 24.8259 37.4534C20.524 37.4534 18.373 35.3786 18.373 31.2036V13.4787C18.373 9.30362 20.524 7.22888 24.8259 7.22888C29.1791 7.22888 31.3301 9.22676 31.3301 13.2225V24.4927H31.3557ZM25.8247 20.0359V13.2482C25.8247 12.2749 25.5173 11.7882 24.9028 11.7882C24.2626 11.7882 23.9553 12.2749 23.9553 13.2482V20.0359H25.8247Z" fill="white"/>
<path d="M49.7168 19.6772H44.1857V13.2481C44.1857 12.3517 43.8785 11.8906 43.2383 11.8906C42.5981 11.8906 42.2909 12.326 42.2909 13.1969V37.0435H36.7598V7.40812H42.2909V8.40707C43.0335 7.61303 44.1602 7.20325 45.7222 7.20325C46.8233 7.20325 47.7707 7.58745 48.5645 8.35587C49.3583 9.12429 49.7425 10.1489 49.7425 11.4039V19.6772H49.7168Z" fill="white"/>
<path d="M55.7076 43.319V39.0414H60.2144C61.5204 39.0414 62.1861 38.1449 62.1861 36.352C61.4692 37.0948 60.3169 37.4534 58.7548 37.4534C57.6537 37.4534 56.7063 37.0692 55.9125 36.3264C55.1187 35.5579 54.709 34.5846 54.709 33.3551V12.0699C54.709 8.84256 56.1941 7.22888 59.1389 7.22888C59.9071 7.22888 60.957 7.66431 62.2118 8.53518L62.9288 7.4338H67.7172V36.6594C67.7172 38.5804 67.4356 40.1685 66.8466 41.4492C66.2577 42.7299 64.4651 43.3446 61.4435 43.3446H55.7076V43.319ZM62.1861 31.7671V13.1713C62.1861 12.2748 61.8789 11.8138 61.2387 11.8138C60.5985 11.8138 60.2656 12.2748 60.2656 13.1713V31.7158C60.2656 32.6123 60.5985 33.0734 61.2387 33.0734C61.8533 33.0478 62.1861 32.6123 62.1861 31.7671Z" fill="white"/>
<path d="M78.3455 5.76884H72.8145V0.441162H78.3455V5.76884ZM78.3455 37.0435H72.8145V7.40813H78.3455V37.0435Z" fill="white"/>
<path d="M103.977 37.0435H98.4462V13.3506C98.4462 12.4541 98.1389 11.993 97.4987 11.993C96.8586 11.993 96.5257 12.4285 96.5257 13.2993V37.0435H90.9946V13.2993C90.9946 12.4029 90.6873 11.9418 90.0471 11.9418C89.407 11.9418 89.0741 12.3773 89.0741 13.2481V37.0435H83.543V7.40812H89.0741V8.45831C89.8423 7.61305 90.9946 7.20325 92.5054 7.20325C93.7857 7.20325 94.9636 7.86919 96.0135 9.22673C96.9866 7.89481 98.3182 7.20325 100.008 7.20325C100.956 7.20325 101.878 7.58742 102.723 8.33023C103.568 9.09865 103.977 10.1488 103.977 11.4808V37.0435Z" fill="white"/>
<path d="M122.209 24.4927H114.783V31.4085C114.783 32.4074 115.091 32.9197 115.731 32.9197C116.345 32.9197 116.653 32.4074 116.653 31.4085V25.4404H122.184V31.4597C122.184 35.4555 120.007 37.4534 115.68 37.4534C111.378 37.4534 109.227 35.3786 109.227 31.2036V13.4787C109.227 9.30362 111.378 7.22888 115.68 7.22888C120.033 7.22888 122.184 9.22676 122.184 13.2225V24.4927H122.209ZM116.653 20.0359V13.2482C116.653 12.2749 116.345 11.7882 115.731 11.7882C115.091 11.7882 114.783 12.2749 114.783 13.2482V20.0359H116.653Z" fill="white"/>
<path d="M138.393 37.0435H134.885C132.376 37.0435 130.891 36.5568 130.404 35.5579C129.917 34.5589 129.661 32.6635 129.661 29.8716V11.8137H127.203V7.43376H129.661V1.4657H135.192V7.43376H138.188V11.8137H135.192V29.8203C135.192 30.6912 135.397 31.2804 135.781 31.5621C136.165 31.8695 137.036 31.9975 138.368 31.9975V37.0435H138.393Z" fill="white"/>
<path d="M156.496 37.0435H151.605V35.8909C151.196 36.9411 149.992 37.4534 148.046 37.4534C145.024 37.4534 143.514 35.9165 143.514 32.8173V26.8748C143.514 25.5429 143.872 24.3902 144.615 23.3913C145.357 22.3923 146.817 21.1629 149.045 19.7029C150.325 18.8576 150.965 18.166 150.965 17.6537V13.2738C150.965 12.3005 150.658 11.8138 150.018 11.8138C149.301 11.8138 148.917 12.992 148.917 15.3485C148.917 15.7839 148.942 16.3987 148.968 17.244C149.019 18.0892 149.045 18.7039 149.045 19.1394H143.693V13.2225C143.693 9.22676 145.895 7.22888 150.299 7.22888C154.422 7.22888 156.496 9.30362 156.496 13.4787V37.0435ZM150.965 31.5109V23.878C149.685 24.2878 149.07 25.0306 149.07 26.132V31.5109C149.07 32.4074 149.403 32.8685 150.069 32.8685C150.658 32.8428 150.965 32.4074 150.965 31.5109Z" fill="white"/>
<path d="M167.381 37.0435H161.85V0.441162H167.381V37.0435Z" fill="white"/>
<path d="M178.211 37.0435H172.68V0.441162H178.211V37.0435Z" fill="white"/>
<path d="M85.8733 41.859H88.7669V42.2176H86.2062V44.6509H88.5364V45.0095H86.2062V47.5965H88.8949V47.9551H85.8477V41.859H85.8733Z" fill="white"/>
<path d="M89.893 47.7502V47.3148C90.021 47.4172 90.2258 47.4941 90.5075 47.5709C90.7892 47.6478 91.0197 47.699 91.199 47.699C91.6599 47.699 92.0183 47.5965 92.2488 47.3916C92.5048 47.1867 92.6329 46.8538 92.6329 46.3415C92.6329 46.0853 92.5817 45.8804 92.5049 45.7267C92.428 45.5731 92.3 45.445 92.1464 45.3425C91.9928 45.2401 91.7367 45.1376 91.3526 45.0095C91.0197 44.9071 90.7636 44.8046 90.5588 44.7022C90.3539 44.5997 90.2003 44.446 90.0466 44.2411C89.9186 44.0362 89.8418 43.7544 89.8418 43.3959C89.8418 42.8836 89.9954 42.4738 90.3027 42.1664C90.61 41.859 90.9941 41.7053 91.5062 41.7053C91.8391 41.7053 92.1464 41.7566 92.4537 41.8846C92.5817 41.9359 92.6841 41.9871 92.7866 42.064V42.4994C92.6329 42.4225 92.5049 42.3457 92.4025 42.2945C92.3001 42.2432 92.172 42.192 91.9928 42.1664C91.8391 42.1152 91.6598 42.1152 91.4806 42.1152C91.0453 42.1152 90.7124 42.2432 90.5075 42.4737C90.3027 42.7299 90.2003 43.0373 90.2003 43.4471C90.2003 43.7032 90.2514 43.9082 90.3283 44.0618C90.4307 44.2155 90.5332 44.318 90.7124 44.3948C90.8661 44.4716 91.0965 44.5741 91.4038 44.6766C91.7623 44.8046 92.0184 44.9071 92.2232 45.0095C92.4281 45.112 92.5817 45.2657 92.7353 45.4962C92.8889 45.7011 92.9402 46.0085 92.9402 46.3927C92.9402 46.9306 92.7866 47.366 92.4793 47.6734C92.172 47.9808 91.711 48.1345 91.1477 48.1345C90.9172 48.1345 90.6612 48.1088 90.4052 48.032C90.1747 47.8783 89.9954 47.8014 89.893 47.7502Z" fill="white"/>
<path d="M95.3995 42.2432H93.6582V41.859H97.4992V42.2432H95.758V47.9807H95.4251V42.2432H95.3995Z" fill="white"/>
<path d="M99.4451 41.859C99.7524 41.859 100.008 41.8846 100.188 41.9102C101.007 42.0895 101.417 42.6274 101.417 43.4727C101.417 43.9593 101.289 44.3948 101.007 44.7022C100.725 45.0351 100.392 45.1888 99.9315 45.2144V45.24L101.698 47.9551H101.289L99.5219 45.2657H98.6512V47.9551H98.3184V41.859H99.4451ZM101.084 43.4727C101.084 43.0116 100.93 42.7043 100.649 42.4994C100.367 42.3201 99.9572 42.2176 99.4194 42.2176H98.6768V44.907H99.4194C99.9572 44.907 100.393 44.8046 100.649 44.5741C100.93 44.3436 101.084 43.9849 101.084 43.4727Z" fill="white"/>
<path d="M102.672 45.7779V41.859H103.005V45.9572C103.005 46.5207 103.133 46.9306 103.389 47.2379C103.645 47.5453 104.029 47.699 104.49 47.699C104.977 47.699 105.335 47.5453 105.591 47.2379C105.847 46.9306 105.975 46.4951 105.975 45.9316V41.8334H106.308V45.7523C106.308 47.2891 105.694 48.032 104.464 48.032C103.85 48.032 103.389 47.8271 103.082 47.4428C102.826 47.0842 102.672 46.5208 102.672 45.7779Z" fill="white"/>
<path d="M107.537 44.9583C107.537 44.318 107.64 43.7544 107.87 43.2678C108.075 42.7811 108.382 42.3969 108.766 42.1408C109.15 41.8847 109.611 41.731 110.098 41.731C110.303 41.731 110.508 41.7566 110.712 41.8078C110.917 41.859 111.071 41.9102 111.148 41.9871V42.3713C110.764 42.192 110.405 42.1152 110.123 42.1152C109.714 42.1152 109.33 42.2176 108.997 42.4481C108.664 42.6531 108.382 42.9861 108.177 43.4215C107.972 43.8569 107.87 44.3692 107.87 44.9839C107.87 45.8548 108.075 46.5464 108.459 47.0074C108.869 47.4685 109.432 47.7246 110.175 47.7246C110.533 47.7246 110.866 47.6478 111.173 47.4685V47.8527C111.045 47.9295 110.892 47.9807 110.712 48.032C110.533 48.0832 110.328 48.0832 110.123 48.0832C109.278 48.0832 108.638 47.8015 108.177 47.2636C107.742 46.7257 107.537 45.9572 107.537 44.9583Z" fill="white"/>
<path d="M113.554 42.2432H111.812V41.859H115.654V42.2432H113.887V47.9807H113.554V42.2432Z" fill="white"/>
<path d="M116.473 45.7779V41.859H116.806V45.9572C116.806 46.5207 116.934 46.9306 117.19 47.2379C117.446 47.5453 117.83 47.699 118.291 47.699C118.777 47.699 119.136 47.5453 119.392 47.2379C119.648 46.9306 119.776 46.4951 119.776 45.9316V41.8334H120.109V45.7523C120.109 47.2891 119.494 48.032 118.265 48.032C117.651 48.032 117.19 47.8271 116.882 47.4428C116.626 47.0842 116.473 46.5208 116.473 45.7779Z" fill="white"/>
<path d="M122.594 41.859C122.901 41.859 123.157 41.8846 123.336 41.9102C124.156 42.0895 124.565 42.6274 124.565 43.4727C124.565 43.9593 124.437 44.3948 124.156 44.7022C123.874 45.0351 123.541 45.1888 123.08 45.2144V45.24L124.847 47.9551H124.437L122.67 45.2657H121.8V47.9551H121.467V41.859H122.594ZM124.232 43.4727C124.232 43.0116 124.079 42.7043 123.797 42.4994C123.515 42.3201 123.106 42.2176 122.568 42.2176H121.825V44.907H122.568C123.131 44.907 123.541 44.8046 123.797 44.5741C124.079 44.3436 124.232 43.9849 124.232 43.4727Z" fill="white"/>
<path d="M125.821 41.859H128.714V42.2176H126.153V44.6509H128.484V45.0095H126.153V47.5965H128.842V47.9551H125.795V41.859H125.821Z" fill="white"/>
<path d="M129.84 47.7502V47.3148C129.968 47.4172 130.173 47.4941 130.455 47.5709C130.737 47.6478 130.967 47.699 131.146 47.699C131.607 47.699 131.966 47.5965 132.196 47.3916C132.427 47.1867 132.58 46.8538 132.58 46.3415C132.58 46.0853 132.529 45.8804 132.452 45.7267C132.375 45.5731 132.247 45.445 132.094 45.3425C131.94 45.2401 131.684 45.1376 131.3 45.0095C130.967 44.9071 130.711 44.8046 130.506 44.7022C130.301 44.5997 130.148 44.446 129.994 44.2411C129.866 44.0362 129.789 43.7544 129.789 43.3959C129.789 42.8836 129.943 42.4738 130.25 42.1664C130.557 41.859 130.941 41.7053 131.454 41.7053C131.786 41.7053 132.094 41.7566 132.401 41.8846C132.529 41.9359 132.631 41.9871 132.734 42.064V42.4994C132.58 42.4225 132.452 42.3457 132.35 42.2945C132.247 42.2432 132.119 42.192 131.94 42.1664C131.786 42.1152 131.607 42.1152 131.428 42.1152C130.993 42.1152 130.66 42.2432 130.455 42.4737C130.25 42.7299 130.148 43.0373 130.148 43.4471C130.148 43.7032 130.199 43.9082 130.276 44.0618C130.378 44.2155 130.48 44.318 130.66 44.3948C130.813 44.4716 131.044 44.5741 131.351 44.6766C131.71 44.8046 131.966 44.9071 132.171 45.0095C132.375 45.112 132.529 45.2657 132.683 45.4962C132.836 45.7011 132.888 46.0085 132.888 46.3927C132.888 46.9306 132.734 47.366 132.427 47.6734C132.119 47.9808 131.658 48.1345 131.095 48.1345C130.865 48.1345 130.608 48.1088 130.352 48.032C130.122 47.8783 129.943 47.8014 129.84 47.7502Z" fill="white"/>
<path d="M137.113 41.3467H137.421V47.9551H137.113V41.3467Z" fill="white"/>
<path d="M142.311 41.859L143.822 46.1109L144.283 47.4684H144.309L146.255 41.8334H146.767V47.9295H146.434V45.112C146.434 44.1899 146.46 43.2421 146.485 42.192H146.46C146.076 43.2165 145.845 43.8313 145.768 44.0874L144.462 47.9039H144.129L142.772 44.0874C142.695 43.9081 142.465 43.2678 142.055 42.192H142.03C142.055 43.4727 142.081 44.446 142.081 45.112V47.9295H141.748V41.8334H142.311V41.859Z" fill="white"/>
<path d="M148.123 45.7779V41.859H148.456V45.9572C148.456 46.5207 148.584 46.9306 148.84 47.2379C149.096 47.5453 149.48 47.699 149.941 47.699C150.428 47.699 150.786 47.5453 151.042 47.2379C151.298 46.9306 151.426 46.4951 151.426 45.9316V41.8334H151.759V45.7523C151.759 47.2891 151.145 48.032 149.916 48.032C149.301 48.032 148.84 47.8271 148.533 47.4428C148.277 47.0842 148.123 46.5208 148.123 45.7779Z" fill="white"/>
<path d="M153.424 41.859L155.703 45.7011L156.651 47.3404H156.676C156.651 46.9562 156.625 46.3158 156.625 45.4449V41.859H156.958V47.9551H156.676L154.397 44.0874L153.45 42.4737H153.424C153.45 42.8579 153.475 43.5751 153.475 44.6253V47.9807H153.143V41.8846H153.424V41.859Z" fill="white"/>
<path d="M159.569 42.2432H157.828V41.859H161.669V42.2432H159.902V47.9807H159.569V42.2432Z" fill="white"/>
<path d="M161.566 47.9551L163.641 41.859H163.973L166.048 47.9551H165.689L164.972 45.7779H162.667L161.95 47.9551H161.566ZM164.819 45.4193L164.614 44.8302C164.204 43.5751 163.922 42.7299 163.794 42.32H163.769C163.666 42.6786 163.487 43.1909 163.256 43.8569C163.18 44.0618 163 44.5741 162.744 45.3937H164.819V45.4193Z" fill="white"/>
<path d="M167.712 42.2432H165.971V41.859H169.812V42.2432H168.045V47.9807H167.712V42.2432Z" fill="white"/>
<path d="M170.299 45.0351C170.299 44.3692 170.427 43.7801 170.657 43.2678C170.888 42.7811 171.221 42.3969 171.63 42.1152C172.04 41.859 172.527 41.7053 173.039 41.7053C173.269 41.7053 173.474 41.731 173.653 41.7822C173.833 41.8334 173.986 41.8846 174.063 41.9359V42.3201C173.935 42.2688 173.756 42.2176 173.551 42.1664C173.346 42.1152 173.167 42.0896 172.988 42.0896C172.578 42.0896 172.194 42.192 171.835 42.3969C171.477 42.6018 171.195 42.9348 170.965 43.3447C170.734 43.7801 170.632 44.2924 170.632 44.9327C170.632 45.8036 170.837 46.4951 171.246 46.9562C171.656 47.4429 172.219 47.6734 172.962 47.6734C173.244 47.6734 173.551 47.6222 173.884 47.4941V45.2657H172.706V44.8815H174.217V47.7246C174.14 47.8015 173.961 47.8783 173.705 47.9295C173.423 47.9808 173.167 48.032 172.885 48.032C172.066 48.032 171.426 47.7758 170.965 47.238C170.529 46.7257 170.299 45.9829 170.299 45.0351Z" fill="white"/>
<path d="M175.625 41.859H178.519V42.2176H175.958V44.6509H178.288V45.0095H175.958V47.5965H178.647V47.9551H175.6V41.859H175.625Z" fill="white"/>
<path d="M179.62 47.7502V47.3148C179.748 47.4172 179.952 47.4941 180.234 47.5709C180.516 47.6478 180.746 47.699 180.926 47.699C181.386 47.699 181.745 47.5965 181.975 47.3916C182.206 47.1867 182.359 46.8538 182.359 46.3415C182.359 46.0853 182.308 45.8804 182.231 45.7267C182.155 45.5731 182.027 45.445 181.873 45.3425C181.719 45.2401 181.463 45.1376 181.079 45.0095C180.746 44.9071 180.49 44.8046 180.285 44.7022C180.08 44.5997 179.927 44.446 179.773 44.2411C179.645 44.0362 179.568 43.7544 179.568 43.3959C179.568 42.8836 179.722 42.4738 180.029 42.1664C180.337 41.859 180.721 41.7053 181.233 41.7053C181.566 41.7053 181.873 41.7566 182.18 41.8846C182.308 41.9359 182.411 41.9871 182.513 42.064V42.4994C182.359 42.4225 182.231 42.3457 182.129 42.2945C182.027 42.2432 181.899 42.192 181.719 42.1664C181.566 42.1152 181.386 42.1152 181.207 42.1152C180.772 42.1152 180.439 42.2432 180.234 42.4737C180.029 42.7299 179.927 43.0373 179.927 43.4471C179.927 43.7032 179.978 43.9082 180.055 44.0618C180.157 44.2155 180.26 44.318 180.439 44.3948C180.593 44.4716 180.823 44.5741 181.13 44.6766C181.489 44.8046 181.745 44.9071 181.95 45.0095C182.155 45.112 182.308 45.2657 182.462 45.4962C182.616 45.7011 182.667 46.0085 182.667 46.3927C182.667 46.9306 182.513 47.366 182.206 47.6734C181.899 47.9808 181.438 48.1345 180.874 48.1345C180.644 48.1345 180.388 48.1088 180.132 48.032C179.901 47.8783 179.722 47.8014 179.62 47.7502Z" fill="white"/>
<path d="M230.168 1.44007V37.0435H221.231C220.693 35.0712 219.669 33.3807 218.158 31.9719C212.473 28.3091 209.349 25.7221 208.786 24.2109C208.223 22.6997 207.941 20.4713 207.941 17.5256C207.941 14.6569 208.581 13.2481 209.836 13.2481C211.116 13.2481 211.731 15.5277 211.731 20.0614L211.526 26.593H221.487V15.8095C221.487 8.43268 217.62 4.74425 209.913 4.74425C201.975 4.74425 198.006 8.58635 198.006 16.2705V23.6217C198.006 26.5417 198.543 28.7189 199.644 30.1789C200.643 31.5108 203.46 33.7905 208.043 37.0179H194.574V1.41443H230.168V1.44007Z" fill="white"/>
<path d="M263.508 1.44006V8.40703C261.613 9.09861 260.026 10.3281 258.72 12.1211C256.466 9.22671 253.957 7.79232 251.191 7.79232C247.914 7.79232 245.43 8.68882 243.791 10.4818V8.22775H231.884V37.0435H230.143V1.44006H263.508Z" fill="white"/>
<path d="M247.914 20.8811V37.0435H243.816V20.7786C243.816 18.9088 244.508 17.9867 245.891 17.9867C247.248 17.9867 247.914 18.96 247.914 20.8811Z" fill="white"/>
<path d="M263.508 18.9856V37.0434H259.82V20.881C259.82 19.0112 260.512 18.0891 261.894 18.0891C262.637 18.0891 263.175 18.3965 263.508 18.9856Z" fill="white"/>
</svg>
