<svg width="215" height="78" viewBox="0 0 215 78" fill="none" xmlns="http://www.w3.org/2000/svg">
<path d="M0.384766 17.5265C0.384766 11.7121 0.384766 5.87211 0.384766 0.0577393C29.4998 0.0577393 58.6148 0.0577393 87.7298 0.0577393C87.7298 5.87211 87.7298 11.7121 87.7298 17.5265C81.8402 17.5777 75.9506 17.6802 70.061 17.6289C68.2173 17.6033 67.4235 18.1156 66.937 19.9854C63.0448 34.8671 58.9989 49.6976 55.0554 64.5794C54.6457 66.1162 54.0568 66.6541 52.4179 66.6284C46.5283 66.526 40.6132 66.4748 34.7236 66.6541C32.3934 66.7309 31.6508 65.8857 31.1386 63.7341C27.6817 49.2878 24.0455 34.9184 20.5886 20.4721C20.0508 18.2181 19.129 17.6033 16.9012 17.6289C11.4213 17.757 5.91585 17.5777 0.384766 17.5265Z" fill="white"/>
<path d="M87.7298 22.598C87.7298 40.9889 87.7298 59.3797 87.7298 77.7705C58.6148 77.7705 29.4998 77.7705 0.384766 77.7705C0.384766 59.3797 0.384766 40.9889 0.384766 22.598C4.66111 22.6749 8.93746 22.8285 13.2138 22.7517C15.0831 22.7261 16.005 23.1615 16.4915 25.185C20.0508 39.9899 23.7638 54.7692 27.3488 69.574C27.7585 71.2133 28.3731 71.7769 30.0887 71.7769C38.8207 71.7 47.5526 71.7 56.2846 71.7769C57.8466 71.7769 58.5124 71.3414 58.9477 69.7277C62.8655 54.846 66.9114 40.0155 70.8293 25.1338C71.3158 23.2896 72.1096 22.7517 73.9789 22.7773C78.5625 22.8285 83.1461 22.6493 87.7298 22.598Z" fill="white"/>
<path d="M118.074 16.0153H111.851V32.8949H106.858V16.0153H100.764V12.1476H118.1V16.0153H118.074Z" fill="white"/>
<path d="M127.702 32.8949C127.523 32.5875 127.37 32.1265 127.241 31.5117C126.371 32.6131 125.116 33.1766 123.528 33.1766C122.069 33.1766 120.84 32.7412 119.815 31.8703C118.791 30.9994 118.305 29.898 118.305 28.5661C118.305 26.9012 118.919 25.6205 120.148 24.7752C121.378 23.93 123.17 23.4945 125.526 23.4945H127.011V22.6749C127.011 21.2661 126.396 20.5489 125.167 20.5489C124.041 20.5489 123.452 21.1125 123.452 22.2395H118.663C118.663 20.7539 119.303 19.55 120.558 18.6023C121.813 17.6545 123.452 17.2191 125.398 17.2191C127.37 17.2191 128.906 17.7058 130.058 18.6535C131.185 19.6012 131.774 20.9332 131.799 22.5981V29.4114C131.825 30.8201 132.03 31.8959 132.465 32.6643V32.8949H127.702ZM124.706 29.7443C125.295 29.7443 125.808 29.6163 126.192 29.3602C126.576 29.104 126.857 28.8222 127.037 28.4893V26.0303H125.654C123.989 26.0303 123.144 26.7731 123.144 28.2843C123.144 28.7198 123.298 29.0784 123.58 29.3345C123.861 29.6163 124.245 29.7443 124.706 29.7443Z" fill="white"/>
<path d="M141.019 32.8948H136.205V11.0205H141.019V32.8948Z" fill="white"/>
<path d="M150.494 32.8948H145.68V11.0205H150.494V32.8948Z" fill="white"/>
<path d="M162.348 33.1766C159.992 33.1766 158.072 32.4594 156.612 31.0506C155.153 29.6418 154.41 27.7977 154.41 25.5436V25.1338C154.41 23.5457 154.692 22.1626 155.281 20.9587C155.87 19.7549 156.715 18.8328 157.841 18.1668C158.968 17.5008 160.3 17.1678 161.836 17.1678C164.013 17.1678 165.703 17.8338 166.958 19.1914C168.212 20.5233 168.827 22.4187 168.827 24.8008V26.6706H159.301C159.48 27.5415 159.839 28.2075 160.428 28.6941C161.017 29.1808 161.759 29.437 162.681 29.437C164.192 29.437 165.395 28.899 166.241 27.8489L168.443 30.4359C167.854 31.2556 167.009 31.9215 165.908 32.4082C164.807 32.9204 163.629 33.1766 162.348 33.1766ZM161.811 20.9075C160.402 20.9075 159.583 21.8296 159.301 23.6994H164.141V23.3408C164.166 22.5724 163.962 21.9833 163.552 21.5479C163.168 21.1124 162.579 20.9075 161.811 20.9075Z" fill="white"/>
<path d="M181.555 21.8296L179.967 21.7272C178.456 21.7272 177.483 22.2138 177.074 23.1615V32.9205H172.285V17.5009H176.792L176.946 19.4732C177.739 17.9619 178.866 17.2191 180.326 17.2191C180.838 17.2191 181.273 17.2703 181.657 17.3984L181.555 21.8296Z" fill="white"/>
<path d="M191.924 33.1766C189.569 33.1766 187.648 32.4594 186.189 31.0506C184.729 29.6418 183.986 27.7977 183.986 25.5436V25.1338C183.986 23.5457 184.268 22.1626 184.857 20.9587C185.446 19.7549 186.291 18.8328 187.418 18.1668C188.544 17.5008 189.876 17.1678 191.412 17.1678C193.589 17.1678 195.279 17.8338 196.534 19.1914C197.788 20.5233 198.403 22.4187 198.403 24.8008V26.6706H188.877C189.056 27.5415 189.415 28.2075 190.004 28.6941C190.593 29.1808 191.335 29.437 192.257 29.437C193.768 29.437 194.972 28.899 195.817 27.8489L198.019 30.4359C197.43 31.2556 196.585 31.9215 195.484 32.4082C194.357 32.9204 193.179 33.1766 191.924 33.1766ZM191.387 20.9075C189.978 20.9075 189.159 21.8296 188.877 23.6994H193.717V23.3408C193.743 22.5724 193.538 21.9833 193.128 21.5479C192.718 21.1124 192.129 20.9075 191.387 20.9075Z" fill="white"/>
<path d="M209.874 28.5661C209.874 28.1563 209.669 27.8233 209.234 27.5928C208.799 27.3366 208.005 27.0805 206.801 26.8244C205.598 26.5682 204.625 26.2096 203.831 25.7742C203.063 25.3387 202.448 24.8265 202.064 24.2117C201.654 23.597 201.45 22.8798 201.45 22.0858C201.45 20.677 202.039 19.4987 203.191 18.6023C204.369 17.6802 205.88 17.2191 207.775 17.2191C209.797 17.2191 211.436 17.6802 212.665 18.6023C213.895 19.5244 214.509 20.7282 214.509 22.2395H209.695C209.695 21.01 209.055 20.3953 207.749 20.3953C207.237 20.3953 206.827 20.5233 206.494 20.8051C206.161 21.0868 205.982 21.4454 205.982 21.8552C205.982 22.2907 206.187 22.6237 206.597 22.9054C207.006 23.1616 207.672 23.3921 208.594 23.5714C209.516 23.7507 210.31 23.9556 211.001 24.1861C213.306 24.9802 214.484 26.4145 214.484 28.4637C214.484 29.8724 213.869 31.025 212.614 31.8959C211.359 32.7668 209.746 33.2279 207.775 33.2279C206.443 33.2279 205.291 32.9973 204.241 32.5107C203.217 32.024 202.397 31.3837 201.808 30.564C201.219 29.7444 200.938 28.8991 200.938 27.977H205.419C205.444 28.6942 205.675 29.2065 206.136 29.5394C206.597 29.8724 207.186 30.0261 207.877 30.0261C208.543 30.0261 209.029 29.898 209.362 29.6163C209.695 29.3345 209.874 28.9759 209.874 28.5661Z" fill="white"/>
<path d="M109.855 62.2485L113.977 47.1619H119.56L112.595 67.8836H107.14L100.227 47.1619H105.758L109.855 62.2485Z" fill="white"/>
<path d="M122.273 48.4937C122.273 47.8022 122.529 47.2386 123.016 46.8032C123.503 46.3678 124.143 46.1372 124.937 46.1372C125.73 46.1372 126.371 46.3678 126.857 46.8032C127.344 47.2386 127.6 47.8022 127.6 48.4937C127.6 49.1853 127.344 49.7488 126.857 50.1842C126.371 50.6197 125.73 50.8502 124.937 50.8502C124.143 50.8502 123.503 50.6197 123.016 50.1842C122.504 49.7488 122.273 49.1853 122.273 48.4937ZM127.369 67.8835H122.555V52.4639H127.369V67.8835Z" fill="white"/>
<path d="M136.845 67.8835H132.031V46.0092H136.845V67.8835Z" fill="white"/>
<path d="M146.318 67.8835H141.504V46.0092H146.318V67.8835Z" fill="white"/>
<path d="M159.404 67.8835C159.224 67.5761 159.071 67.1151 158.943 66.5004C158.072 67.6018 156.817 68.1653 155.23 68.1653C153.77 68.1653 152.541 67.7298 151.517 66.859C150.492 65.9881 150.006 64.8867 150.006 63.5547C150.006 61.8898 150.62 60.6091 151.85 59.7639C153.079 58.9186 154.871 58.4832 157.227 58.4832H158.712V57.6635C158.712 56.2547 158.098 55.5376 156.869 55.5376C155.742 55.5376 155.153 56.1011 155.153 57.2281H150.364C150.364 55.7425 151.005 54.5386 152.259 53.5909C153.514 52.6688 155.153 52.2078 157.099 52.2078C159.071 52.2078 160.607 52.6944 161.759 53.6421C162.886 54.5899 163.475 55.9218 163.501 57.5867V64.4C163.526 65.8088 163.731 66.8846 164.166 67.653V67.8835H159.404ZM156.382 64.7586C156.971 64.7586 157.483 64.6305 157.867 64.3744C158.251 64.1183 158.533 63.8365 158.712 63.5035V61.0446H157.329C155.665 61.0446 154.82 61.7874 154.82 63.2986C154.82 63.7341 154.974 64.0926 155.255 64.3488C155.563 64.6049 155.947 64.7586 156.382 64.7586Z" fill="white"/>
<path d="M172.72 67.8835H167.906V46.0092H172.72V67.8835Z" fill="white"/>
<path d="M176.51 60.0456C176.51 58.5088 176.817 57.1512 177.406 55.9474C177.995 54.7435 178.866 53.8214 179.992 53.1811C181.119 52.5407 182.425 52.2078 183.936 52.2078C186.24 52.2078 188.058 52.9249 189.39 54.3593C190.722 55.7937 191.387 57.7404 191.387 60.1993V60.3786C191.387 62.7863 190.722 64.6818 189.39 66.0905C188.058 67.4993 186.24 68.2165 183.961 68.2165C181.759 68.2165 180.018 67.5505 178.686 66.2442C177.355 64.9379 176.638 63.1449 176.535 60.8909L176.51 60.0456ZM181.324 60.3274C181.324 61.7618 181.554 62.7863 181.99 63.4523C182.425 64.1183 183.091 64.4512 183.961 64.4512C185.677 64.4512 186.548 63.1449 186.573 60.5067V60.02C186.573 57.2537 185.703 55.8705 183.936 55.8705C182.323 55.8705 181.452 57.0744 181.324 59.4565V60.3274Z" fill="white"/>
<path d="M199.351 52.4639L199.504 54.2825C200.58 52.8993 202.039 52.1821 203.909 52.1821C205.522 52.1821 206.7 52.6688 207.494 53.6165C208.287 54.5643 208.697 56.0242 208.723 57.9453V67.8579H203.909V58.1246C203.909 57.3562 203.755 56.7671 203.448 56.4085C203.14 56.0499 202.577 55.8705 201.732 55.8705C200.785 55.8705 200.093 56.2292 199.632 56.972V67.8579H194.844V52.4383H199.351V52.4639Z" fill="white"/>
<path d="M183.295 49.672C184.14 48.0327 184.959 46.3934 185.804 44.8054C185.907 44.6261 186.189 44.4724 186.419 44.4724C187.494 44.4468 188.57 44.4468 189.876 44.4468C189.108 45.4457 188.442 46.291 187.751 47.1362C187.443 47.5204 187.085 47.8791 186.854 48.2889C186.086 49.7489 184.934 50.1074 183.295 49.672Z" fill="white"/>
</svg>
