<svg width="243" height="41" viewBox="0 0 243 41" fill="none" xmlns="http://www.w3.org/2000/svg">
<path d="M121.751 40.544C87.9502 40.544 54.1491 40.3391 20.348 40.6465C7.1605 40.7489 -2.26281 28.403 0.681982 15.9802C2.75614 7.2971 10.8223 1.12413 21.0395 1.04729C37.94 0.919216 54.8405 0.970448 71.741 0.970448C121.854 0.996062 171.941 0.996044 222.053 1.07289C229.274 1.07289 235.292 3.83921 239.389 10.0122C243.666 16.4413 244.126 23.2802 240.644 30.0679C237.161 36.8556 231.477 40.5696 223.615 40.5696C189.635 40.544 155.68 40.5696 121.7 40.5696C121.751 40.5696 121.751 40.544 121.751 40.544ZM120.625 4.40271C120.625 4.42832 120.625 4.42834 120.625 4.45395C98.8075 4.45395 76.9904 4.42834 55.1734 4.45395C43.3686 4.47956 31.5638 4.47955 19.7847 4.83814C17.2752 4.91499 14.4841 6.14446 12.3587 7.60446C7.03248 11.2929 4.75349 19.4125 6.77643 25.9441C8.9274 32.8855 14.4328 37.3679 21.5259 37.5728C27.1338 37.7521 32.7418 37.5984 38.3241 37.5984C98.9355 37.5984 159.573 37.6241 220.184 37.5984C229.531 37.5984 235.42 32.4244 236.905 23.1778C238.365 14.1104 231.835 5.45287 222.745 4.63323C219.544 4.35147 216.292 4.42831 213.065 4.42831C182.26 4.4027 151.455 4.40271 120.625 4.40271Z" fill="white"/>
<path d="M219.852 31.0669C218.981 30.6571 217.906 30.4265 217.24 29.8118C215.806 28.4799 214.628 27.0967 213.322 25.6623C212.067 24.3048 211.069 23.6901 209.66 21.9483L199.11 21.9227C199.11 21.9227 199.008 25.3293 199.033 28.3262C199.059 30.5034 198.291 31.0413 196.242 31.0156C190.916 30.9388 190.916 31.0413 190.916 25.6111C190.916 22.3837 190.814 19.1564 190.967 15.929C191.044 13.9567 190.276 13.4701 188.458 13.4957C180.059 13.5725 171.634 13.6238 163.235 13.4957C160.674 13.4445 160.802 14.8532 160.777 16.5694C160.751 18.2599 160.828 19.4894 163.158 19.4125C168.843 19.2588 174.553 19.5406 180.238 19.3357C185.001 19.1564 187.152 22.7936 186.589 26.8149C186.256 29.1202 184.642 30.8364 182.389 30.8364C168.382 30.8876 154.99 30.862 140.983 30.8364C140.983 30.8364 140.573 30.5034 140.163 30.0935C138.96 28.6335 137.961 26.8918 136.501 25.7136C132.225 22.2557 127.77 19.0283 122.725 15.2374C122.725 20.6932 122.725 25.6111 122.725 30.8364C119.652 30.8364 117.143 30.9132 114.633 30.7595C114.121 30.7339 113.302 29.7349 113.276 29.1714C113.174 23.4851 113.225 17.7732 113.199 12.0869C113.199 10.7038 113.839 10.1403 115.222 10.089C117.552 10.0122 119.627 10.3195 121.624 11.882C126.899 16.0315 132.353 19.9248 137.756 23.9206C138.089 24.1511 138.473 24.3304 139.318 24.8171C139.318 19.8736 139.318 15.2886 139.318 10.4732C142.519 10.4732 145.285 10.4732 148.306 10.4732C148.383 11.4465 148.511 12.4455 148.511 13.4188C148.537 17.8501 148.537 22.2557 148.511 26.6869C148.511 28.0444 148.767 28.8897 150.483 28.8641C159.65 28.7616 168.817 28.736 178.01 28.736C179.675 28.736 180.34 28.1469 180.161 26.482C180.084 25.7135 180.059 24.9451 180.136 24.2023C180.315 22.3581 179.419 21.8971 177.728 21.9227C171.788 21.9995 165.847 22.0764 159.906 21.9227C155.783 21.8202 153.376 19.182 153.581 15.4936C153.735 12.8553 155.451 10.8575 158.088 10.422C159.087 10.2427 160.111 10.2171 161.135 10.2171C173.964 10.2171 186.793 10.2427 199.597 10.1915C201.722 10.1915 203.284 10.7806 204.693 12.4199C209.84 18.388 215.115 24.2536 220.338 30.1448C220.185 30.4521 220.005 30.7595 219.852 31.0669ZM207.663 19.4637C206.587 18.1574 205.922 17.5171 205.461 16.7487C204.257 14.802 202.388 14.7251 200.544 15.0837C199.955 15.2118 199.187 16.2364 199.136 16.9024C199.085 17.722 199.597 19.2844 200.006 19.3357C202.285 19.5918 204.616 19.4637 207.663 19.4637Z" fill="white"/>
<path d="M62.6508 20.5651C62.3691 20.6931 62.2922 20.7444 62.2154 20.7444C57.1965 21.231 57.2477 21.231 57.5294 26.277C57.6062 27.5833 58.0159 28.0956 59.3475 28.0443C61.985 27.9675 64.6224 27.9419 67.2343 28.07C67.8489 28.0956 68.4123 28.8384 69.0012 29.2226C68.4379 29.658 67.8745 30.452 67.3112 30.4777C61.7033 30.5801 56.121 30.5289 50.0778 30.5289C50.0778 27.3015 50.0778 24.2791 50.0778 21.2567C50.0778 20.4882 50.0778 19.7198 50.0522 18.9514C49.9497 12.1637 49.7705 12.01 42.4725 13.1882C42.4725 18.7721 42.4725 24.4328 42.4725 30.3496C39.2717 30.3496 36.3525 30.3496 32.9468 30.3496C32.9468 26.7637 32.9724 23.1521 32.9468 19.5405C32.8956 12.9065 32.87 12.9065 26.289 12.9321C24.0612 12.9321 24.0612 12.9321 23.0625 10.9598C23.8307 10.7805 24.5221 10.4732 25.2135 10.4732C39.2204 10.3963 53.2274 10.3195 67.2343 10.3451C67.8489 10.3451 68.4635 11.1135 69.078 11.5233C68.4123 11.9844 67.7977 12.7784 67.1063 12.804C64.5713 12.9833 62.0105 12.9065 59.4755 12.9065C56.5307 12.9065 57.9647 15.1605 57.683 16.4412C57.3757 17.8756 58.0159 18.5928 59.6547 18.5159C62.6507 18.4135 62.6508 18.5159 62.6508 20.5651Z" fill="white"/>
<path d="M108.743 30.7338C105.056 30.7338 101.778 30.7338 98.4747 30.7338C93.1997 30.7338 87.9502 30.6314 82.6752 30.7594C78.4245 30.8619 75.8382 28.6079 74.1482 25.0732C72.1252 20.8212 73.2775 15.1093 76.76 12.2662C77.7587 11.4465 79.1415 10.7293 80.3706 10.6525C84.6726 10.3451 89.0258 10.2683 93.3533 10.2939C94.1727 10.2939 94.9921 11.0623 95.7859 11.4977C94.9921 11.882 94.1984 12.5735 93.379 12.6248C89.9988 12.8553 86.5931 12.9577 83.213 12.9577C81.3949 12.9577 80.6011 13.6237 80.6523 15.5191C80.7548 19.0026 80.7548 22.4861 80.6523 25.9696C80.6011 27.6858 81.3181 28.1468 82.9313 28.1212C88.36 28.0443 93.7886 28.0187 99.2429 28.0956C100.907 28.1212 101.496 27.5321 101.471 25.8928C101.394 21.564 101.496 17.2353 101.419 12.8809C101.394 11.1391 101.957 10.4476 103.75 10.4988C109.793 10.6525 108.666 10.0121 108.743 15.263C108.794 20.2833 108.743 25.278 108.743 30.7338Z" fill="white"/>
</svg>
