<svg width="196" height="69" viewBox="0 0 196 69" fill="none" xmlns="http://www.w3.org/2000/svg">
<path d="M0 0.0145364C65.1597 0.0145364 130.334 0.0145355 195.494 0C195.911 0 196 0.0872143 196 0.494208C195.985 23.1696 195.985 45.8304 196 68.5058C196 68.9128 195.911 69 195.494 69C130.498 68.9855 65.502 68.9855 0.506036 69C0.0892997 69 0 68.9128 0 68.5058C0 45.6705 0 22.8353 0 0.0145364Z" fill="black"/>
<path d="M110.286 33.9549C110.286 32.574 110.286 31.1932 110.286 29.8268C110.316 24.0126 116.091 19.8264 121.791 21.5561C122.848 21.8759 123.83 22.5009 124.798 23.0533C125.214 23.2859 125.467 23.3295 125.854 23.0387C128.251 21.2509 130.93 20.7567 133.862 21.4835C137.196 22.312 140.217 25.7423 140.336 29.071C140.455 32.2979 140.425 35.5247 140.396 38.7516C140.396 39.7546 140.113 40.7139 139.205 41.3244C138.237 41.9785 137.166 42.0657 136.139 41.5134C135.127 40.961 134.621 40.0453 134.621 38.897C134.606 36.2515 134.636 33.6061 134.606 30.9606C134.591 30.2193 134.531 29.4634 134.338 28.7512C133.981 27.443 132.745 26.7017 131.198 26.7598C129.858 26.8034 128.816 27.6465 128.533 28.9692C128.4 29.6233 128.31 30.292 128.31 30.9606C128.28 33.5334 128.31 36.1062 128.295 38.6789C128.295 39.4348 128.132 40.1616 127.655 40.7721C126.911 41.7459 125.884 41.993 124.723 41.7459C123.592 41.5134 122.922 40.7721 122.64 39.711C122.521 39.304 122.491 38.8534 122.476 38.4173C122.461 35.9172 122.476 33.4171 122.461 30.917C122.461 30.321 122.416 29.7251 122.327 29.1291C122.104 27.6465 120.913 26.6726 119.335 26.6581C117.817 26.6435 116.552 27.6029 116.284 29.0128C116.165 29.6524 116.091 30.3065 116.091 30.9606C116.076 33.5334 116.106 36.1062 116.076 38.6789C116.061 39.8127 115.734 40.8447 114.647 41.4552C112.936 42.4146 110.867 41.5279 110.405 39.6528C110.316 39.2894 110.271 38.897 110.271 38.5191C110.271 36.9928 110.286 35.4666 110.286 33.9549Z" fill="white"/>
<path d="M145.426 35.5248C145.426 31.8909 145.396 28.2716 145.441 24.6522C145.456 23.9255 145.545 23.126 145.872 22.501C146.78 20.8149 149.459 20.8875 150.576 22.5591C151.007 23.1987 151.007 23.2132 151.662 22.7336C153.984 21.0038 156.603 20.8149 159.312 21.469C163.42 22.4574 166.278 25.8151 166.739 30.0304C167.052 32.9375 166.59 35.6847 164.774 38.083C162.661 40.8739 159.788 42.153 156.231 41.9786C154.609 41.8913 153.15 41.3826 151.826 40.4669C151.692 40.3796 151.528 40.336 151.394 40.2779C151.35 40.4378 151.275 40.6122 151.275 40.7721C151.26 42.5745 151.305 44.3624 151.26 46.1502C151.245 46.7898 151.156 47.4584 150.948 48.0689C150.591 49.0573 149.757 49.5661 148.7 49.6678C147.599 49.7696 146.632 49.4789 146.066 48.505C145.753 47.9672 145.664 47.3276 145.486 46.7317C145.456 46.6444 145.486 46.5572 145.486 46.4555C145.426 42.8071 145.426 39.1587 145.426 35.5248Z" fill="white"/>
<path d="M98.1115 41.9638C91.9944 41.9493 86.9192 36.6584 87.4103 30.7134C87.9313 24.3759 94.346 19.71 100.791 21.5269C103.425 22.2682 105.553 23.7363 106.64 26.3091C106.923 26.9777 106.982 27.7627 106.982 28.4894C106.982 29.4052 106.416 30.0593 105.598 30.4372C103.871 31.2366 102.13 31.9925 100.389 32.7629C98.8408 33.446 97.2929 34.1001 95.76 34.7833C95.6111 34.856 95.492 34.9868 95.3581 35.1031C95.4623 35.2194 95.5516 35.3502 95.6855 35.4374C97.1739 36.4549 99.198 36.4404 100.82 35.3938C101.118 35.2048 101.401 35.0159 101.698 34.8269C102.83 34.1292 104.169 34.1583 105.151 34.8996C106.163 35.6554 106.521 36.8619 106.059 38.1265C105.762 38.9695 105.077 39.5364 104.377 40.0306C102.502 41.3533 100.404 41.9784 98.1115 41.9638Z" fill="white"/>
<path d="M66.5737 29.289C66.5737 32.1961 66.5886 35.0887 66.5588 37.9958C66.5588 38.6353 66.4695 39.3185 66.2314 39.8999C65.6509 41.3825 64.2221 42.0802 62.5701 41.775C61.1115 41.5133 59.9952 40.1615 59.9506 38.6062C59.9208 37.894 59.9357 37.1963 59.9357 36.4841C59.9357 31.0042 59.9357 25.5388 59.9357 20.059C59.9357 19.4049 59.9059 19.3613 59.1915 19.3613C57.6139 19.3613 56.0362 19.3758 54.4437 19.3467C52.1368 19.3176 50.7377 17.5298 51.3479 15.364C51.6159 14.3756 52.8512 13.5325 54.146 13.4308C54.3098 13.4162 54.4735 13.4162 54.6521 13.4162C60.3375 13.4162 66.0379 13.4017 71.7234 13.4308C72.4378 13.4308 73.2266 13.5907 73.8666 13.8959C75.0573 14.4628 75.5187 15.6256 75.2656 16.992C75.0573 18.1403 74.0452 19.0996 72.795 19.274C72.4229 19.3322 72.0508 19.3467 71.6787 19.3467C70.1904 19.3612 68.702 19.3612 67.2137 19.3467C66.7225 19.3467 66.5291 19.5066 66.5737 19.9863C66.6035 20.2188 66.5737 20.4514 66.5737 20.6985C66.5737 23.562 66.5737 26.4255 66.5737 29.289C66.5886 29.289 66.5886 29.289 66.5737 29.289Z" fill="white"/>
<path d="M169.12 31.7601C169.046 25.8732 173.853 21.2655 179.673 21.1347C185.939 20.9893 190.776 26.0331 190.657 31.7892C190.553 37.3272 185.671 41.9931 179.866 41.964C173.928 41.935 169.106 37.3563 169.12 31.7601Z" fill="white"/>
<path d="M27.2962 49.4353C14.7495 49.4789 4.58411 39.5948 4.55435 27.2832C4.5097 15.1461 14.7048 5.21831 27.2516 5.1747C39.6495 5.1311 49.9191 15.0588 49.9637 27.1669C50.0084 39.493 39.9323 49.3917 27.2962 49.4353Z" fill="black"/>
<path d="M77.9446 31.4549C77.9446 29.26 77.9446 27.0652 77.9446 24.8703C77.9446 24.0708 78.0041 23.2714 78.4506 22.5592C79.1055 21.5126 80.311 21.062 81.6059 21.3382C82.7519 21.5853 83.5854 22.5882 83.7342 23.911C83.7789 24.318 83.764 24.7395 83.764 25.161C83.764 29.6379 83.7789 34.1149 83.764 38.5918C83.764 39.7401 83.4663 40.7867 82.3501 41.4262C80.6831 42.371 78.5548 41.5134 78.1083 39.682C78.0041 39.2604 77.9595 38.8244 77.9595 38.3883C77.9446 36.0917 77.9446 33.7806 77.9446 31.4549Z" fill="white"/>
<path d="M67.0202 60.8017C67.0202 59.5371 67.0202 58.258 67.0202 56.9934C67.0202 56.6155 67.0202 56.2666 67.556 56.3102C67.9578 56.3393 68.5383 56.1358 68.4639 56.8917C68.449 56.9789 68.5383 57.0806 68.5681 57.1824C68.702 57.1097 68.8657 57.0661 68.9848 56.9643C70.0564 56.0341 71.2917 55.9323 72.5717 56.3684C72.9438 56.4992 73.2861 56.819 73.554 57.1388C73.8219 57.4731 73.9559 57.5021 74.2684 57.1824C75.2954 56.1358 76.7391 55.8306 78.0488 56.3684C78.8079 56.6736 79.299 57.226 79.433 58.0254C79.5372 58.6505 79.5669 59.29 79.5669 59.915C79.5818 61.5139 79.5818 63.1129 79.5818 64.6972C79.5818 65.3077 79.5372 65.3368 78.793 65.3368C78.0637 65.3368 78.0042 65.3077 78.0042 64.6972C78.0042 63.1419 78.0042 61.5721 78.0042 60.0168C78.0042 59.7261 78.0042 59.4354 77.9744 59.1447C77.9149 58.1853 77.5725 57.6911 76.8135 57.5022C76.0247 57.3132 74.9679 57.633 74.6107 58.3161C74.3577 58.7958 74.1791 59.3627 74.1493 59.9005C74.0898 61.4994 74.1345 63.0838 74.1196 64.6827C74.1196 64.8862 73.9856 65.2496 73.8814 65.2641C73.4647 65.3077 73.048 65.2641 72.6312 65.1914C72.5717 65.1769 72.5271 64.9007 72.5271 64.7408C72.5122 63.1855 72.5122 61.6157 72.5122 60.0604C72.5122 59.7551 72.5122 59.4499 72.4973 59.1301C72.4377 58.1562 72.0805 57.633 71.3513 57.4731C70.488 57.2841 69.4164 57.6911 69.0592 58.4324C68.8508 58.8685 68.6871 59.3627 68.6722 59.8278C68.5978 61.4703 68.6276 63.0838 68.5978 64.6972C68.5829 65.3368 68.5829 65.3223 67.7048 65.3368C67.2285 65.3513 66.9904 65.2641 67.0053 64.7118C67.0499 63.4036 67.0202 62.1099 67.0202 60.8017Z" fill="white"/>
<path d="M180.298 57.1969C180.863 56.8772 181.34 56.5283 181.876 56.3103C183.17 55.787 184.555 56.1504 185.418 57.226C185.671 57.5458 185.82 57.4295 186.013 57.1969C187.025 55.976 188.767 55.9324 189.823 56.3539C190.553 56.6446 190.999 57.1824 191.178 57.9092C191.282 58.3307 191.327 58.7668 191.341 59.2028C191.356 61.0343 191.341 62.8658 191.341 64.6973C191.341 65.3078 191.312 65.3368 190.553 65.3223C189.794 65.3223 189.779 65.3078 189.764 64.6827C189.764 63.0838 189.764 61.4849 189.764 59.9005C189.764 59.668 189.764 59.4354 189.749 59.1883C189.689 58.1708 189.317 57.6621 188.528 57.4877C187.68 57.2987 186.668 57.6912 186.281 58.447C186.073 58.8685 185.939 59.3773 185.924 59.8424C185.879 61.4558 185.879 63.0693 185.909 64.6827C185.924 65.2641 185.641 65.3368 185.165 65.3223C184.331 65.2932 184.302 65.2932 184.302 64.6973C184.302 63.1129 184.302 61.5431 184.302 59.9587C184.302 59.668 184.302 59.3773 184.272 59.0866C184.227 58.4615 184.093 57.8801 183.453 57.5894C182.724 57.2551 182.024 57.415 181.399 57.8365C180.744 58.2726 180.491 58.9412 180.477 59.668C180.432 61.3105 180.402 62.9675 180.432 64.6101C180.432 65.1333 180.298 65.3659 179.747 65.2932C179.583 65.2787 179.42 65.2932 179.241 65.2932C178.929 65.2932 178.81 65.1479 178.81 64.8571C178.81 62.1535 178.81 59.4499 178.795 56.7463C178.795 56.2376 179.152 56.2667 179.479 56.2667C179.822 56.2667 180.238 56.1649 180.253 56.7173C180.238 56.9062 180.283 57.0661 180.298 57.1969Z" fill="white"/>
<path d="M36.5536 58.7234C36.0476 60.5839 35.6011 62.2846 35.1397 63.9852C35.095 64.1597 35.0206 64.3341 34.9908 64.5085C34.7973 65.5115 34.6634 65.2934 33.8895 65.3516C33.2792 65.3952 33.056 65.2062 32.8774 64.5957C32.1332 62.0229 31.2997 59.4647 30.4663 56.9065C30.3174 56.4413 30.4365 56.3105 30.8979 56.325C31.0765 56.3396 31.27 56.3541 31.4486 56.325C31.8504 56.2814 31.9993 56.4849 32.0886 56.8338C32.6095 58.7815 33.1751 60.7148 33.7257 62.648C33.7555 62.7788 33.8448 62.8951 34.0234 63.0259C34.2467 62.2264 34.455 61.4415 34.6783 60.6421C35.0355 59.3484 35.4076 58.0548 35.7499 56.7611C35.8392 56.4413 35.988 56.296 36.3303 56.3105C36.4345 56.325 36.5536 56.3105 36.6578 56.3105C37.4912 56.296 37.4912 56.296 37.6996 57.0809C38.1759 58.8687 38.6373 60.6566 39.1135 62.4445C39.1433 62.5753 39.2177 62.6916 39.307 62.9241C39.4112 62.7206 39.4856 62.6334 39.5154 62.5317C40.0959 60.6566 40.6614 58.7815 41.2419 56.9065C41.4056 56.3977 42.2688 56.0489 42.7005 56.3832C42.8046 56.4704 42.8195 56.7756 42.76 56.9501C42.2242 58.6507 41.6735 60.3368 41.1377 62.0375C40.84 62.9678 40.5275 63.898 40.2596 64.8428C40.1405 65.2208 39.9321 65.3952 39.5452 65.337C39.4856 65.337 39.441 65.337 39.3814 65.337C38.414 65.337 38.4289 65.337 38.1908 64.4068C37.7443 62.6625 37.268 60.9328 36.8066 59.2031C36.7768 59.0722 36.7024 58.9705 36.5536 58.7234Z" fill="white"/>
<path d="M13.7374 62.8223C14.0053 61.9502 14.2881 61.0635 14.556 60.1914C14.8835 59.1013 15.2109 57.9966 15.5532 56.9064C15.702 56.4122 16.6546 56.0633 17.0862 56.3831C17.1606 56.4413 17.1904 56.6448 17.1457 56.761C16.6397 58.3599 16.1337 59.9443 15.6127 61.5287C15.2555 62.6188 14.8983 63.6945 14.5709 64.7992C14.4518 65.1916 14.2584 65.3515 13.8267 65.3515C12.4575 65.3224 12.77 65.4097 12.4575 64.2759C11.9663 62.5607 11.5496 60.8455 11.0882 59.1158C11.0733 59.0431 11.0286 58.985 10.9245 58.8105C10.8203 59.014 10.731 59.1303 10.7012 59.2611C10.1952 61.1217 9.68914 62.9677 9.21287 64.8282C9.10868 65.2062 8.93008 65.3224 8.558 65.3224C7.44174 65.337 7.42685 65.3515 7.09942 64.3195C6.32548 61.863 5.55154 59.4065 4.79248 56.9355C4.61388 56.3831 4.6883 56.2959 5.28364 56.2959C6.23618 56.2814 6.23618 56.2814 6.4892 57.168C6.99524 58.985 7.50127 60.8019 8.02219 62.6188C8.05196 62.7497 8.12637 62.866 8.30498 63.0113C8.42404 62.5752 8.55799 62.1246 8.67706 61.6886C9.12357 60.0606 9.58495 58.4326 10.0166 56.8046C10.1059 56.4703 10.2696 56.2959 10.6417 56.325C10.85 56.3395 11.0584 56.3395 11.2519 56.325C11.6686 56.2959 11.8621 56.4703 11.9663 56.8919C12.4426 58.796 12.9635 60.6856 13.4546 62.5752C13.4695 62.6625 13.5291 62.7351 13.5588 62.8078C13.6332 62.8078 13.6779 62.8223 13.7374 62.8223Z" fill="white"/>
<path d="M21.1642 63.0115C21.2981 62.5173 21.4321 62.0086 21.5809 61.5144C22.0125 59.9591 22.459 58.4038 22.8758 56.8485C22.9799 56.456 23.1734 56.2816 23.5753 56.3252C24.0218 56.3834 24.6171 56.0636 24.8106 56.8049C25.1976 58.3311 25.5994 59.8573 26.0013 61.3836C26.1352 61.8923 26.2841 62.3865 26.4329 62.8807C26.4775 62.8807 26.5371 62.8807 26.5817 62.8953C26.805 62.1975 27.0282 61.4998 27.2366 60.8167C27.6385 59.4939 28.0403 58.1712 28.4422 56.8485C28.591 56.3688 29.5733 56.0781 29.9454 56.3979C30.0198 56.4706 30.0049 56.6886 29.9603 56.8194C29.4691 58.4183 28.9631 60.0027 28.4422 61.6016C28.0998 62.6627 27.7426 63.7092 27.445 64.7703C27.3259 65.1628 27.1324 65.3663 26.7008 65.3227C26.6859 65.3227 26.671 65.3227 26.6413 65.3227C25.5994 65.3372 25.5845 65.3372 25.3315 64.3779C24.8701 62.6627 24.4236 60.933 23.9771 59.2178C23.9474 59.116 23.8729 59.0143 23.6795 58.9125C23.5009 59.5376 23.3223 60.1771 23.1437 60.8021C22.7716 62.1685 22.4144 63.5348 22.0274 64.9012C21.9827 65.0756 21.7148 65.1919 21.5511 65.3227C21.5214 65.3518 21.4469 65.3372 21.3874 65.3372C20.286 65.3808 20.2712 65.3808 19.9586 64.3633C19.1847 61.9068 18.4256 59.4358 17.6517 56.9793C17.4731 56.3834 17.5028 56.3398 18.1577 56.3252C19.0805 56.3107 19.0805 56.3107 19.3335 57.1537C19.8246 58.8835 20.3158 60.6132 20.7921 62.3429C20.8516 62.5609 20.926 62.7935 21.0004 63.0115C21.06 63.0115 21.1046 63.0115 21.1642 63.0115Z" fill="white"/>
<path d="M83.4217 57.197C83.5259 57.1098 83.6003 57.0662 83.6599 57.008C85.2673 55.3655 88.4672 56.0923 89.3453 58.2145C90.1044 60.046 90.1044 61.8484 89.1667 63.6217C88.1844 65.4822 85.4161 66.1654 83.9129 64.8717C83.5557 64.5665 83.4366 64.77 83.4366 65.1334C83.4366 66.1799 83.4217 67.241 83.4366 68.2876C83.4515 68.6655 83.3027 68.7527 82.9604 68.7673C81.8441 68.8109 81.8441 68.8254 81.8441 67.7643C81.8441 64.174 81.8441 60.5838 81.8441 56.9935C81.8441 56.6737 81.7697 56.3394 82.3055 56.3249C83.1241 56.2958 83.2134 56.3249 83.3027 56.8772C83.3176 56.9644 83.3771 57.0662 83.4217 57.197Z" fill="white"/>
<path d="M117.073 64.5081C117.029 64.5663 117.014 64.5808 117.014 64.5953C116.954 64.8279 116.939 65.2204 116.805 65.264C116.493 65.3657 116.106 65.3512 115.764 65.293C115.659 65.2785 115.511 65.0169 115.496 64.857C115.466 64.0721 115.481 63.3017 115.481 62.5168C115.481 59.5515 115.481 56.5717 115.496 53.6065C115.496 53.3885 115.6 52.9815 115.704 52.9669C116.091 52.8943 116.508 52.9233 116.91 52.9815C116.984 52.996 117.058 53.2867 117.058 53.4611C117.073 54.5077 117.058 55.5688 117.073 56.6154C117.073 56.7462 117.163 56.877 117.207 56.9933C117.326 56.9497 117.46 56.9206 117.535 56.8479C118.949 55.5107 122.059 56.0775 122.937 58.1416C123.741 60.0167 123.771 61.8481 122.789 63.636C121.628 65.7436 118.621 66.2088 117.222 64.5953C117.207 64.5517 117.148 64.5372 117.073 64.5081Z" fill="white"/>
<path d="M148.79 61.3106C148.79 62.1827 148.775 63.0549 148.805 63.9124C148.805 64.1741 148.894 64.4503 148.968 64.6974C149.147 65.2643 149.117 65.2933 148.492 65.3079C147.927 65.3224 147.435 65.3515 147.287 64.6102C147.212 64.2322 146.929 64.4648 146.736 64.5956C145.664 65.3079 144.488 65.6131 143.194 65.4677C141.497 65.2788 140.5 64.0433 140.738 62.4589C140.902 61.3542 141.943 60.453 143.268 60.2495C144.235 60.1042 145.218 59.9588 146.185 59.7989C147.138 59.639 147.45 58.9122 146.87 58.1273C146.691 57.8948 146.408 57.6331 146.14 57.5895C145.411 57.4878 144.667 57.4296 143.953 57.4732C143.313 57.5168 142.926 58.011 142.688 58.5779C142.509 58.9995 141.348 59.1593 141.095 58.7814C141.021 58.6797 141.065 58.4762 141.11 58.3308C141.482 57.0662 142.449 56.4267 143.7 56.2232C144.965 56.0051 146.245 55.947 147.465 56.5284C148.15 56.8627 148.596 57.4005 148.626 58.1273C148.686 59.1739 148.641 60.2204 148.641 61.2815C148.686 61.3106 148.745 61.3106 148.79 61.3106Z" fill="white"/>
<path d="M109.557 56.0342C110.242 56.1795 110.956 56.2522 111.611 56.4702C112.519 56.7755 113.025 57.4732 113.055 58.418C113.099 59.5808 113.04 60.7437 113.099 61.892C113.159 62.9385 113.337 63.9706 113.442 65.0026C113.456 65.1043 113.308 65.2933 113.218 65.3078C112.891 65.3369 112.534 65.366 112.221 65.2933C112.043 65.2497 111.834 65.0316 111.79 64.8427C111.656 64.3776 111.477 64.3485 111.09 64.6247C109.765 65.5549 108.307 65.7875 106.759 65.2788C105.732 64.9444 105.137 64.1159 105.092 63.0112C105.047 62.0228 105.628 60.9762 106.565 60.6565C107.473 60.3512 108.441 60.2204 109.378 60.0314C109.944 59.9152 110.51 59.8279 111.075 59.7117C111.403 59.6535 111.537 59.4791 111.522 59.1448C111.507 58.229 111.045 57.604 110.108 57.4732C109.527 57.4005 108.917 57.4151 108.337 57.4877C107.682 57.5604 107.325 58.0401 107.071 58.5924C106.878 58.9994 105.792 59.1738 105.524 58.825C105.434 58.7087 105.464 58.4761 105.509 58.3162C105.94 56.9354 107.042 56.383 108.381 56.165C108.768 56.1069 109.155 56.1069 109.542 56.0778C109.542 56.0923 109.557 56.0633 109.557 56.0342Z" fill="white"/>
<path d="M61.6321 61.238C60.6647 61.238 59.6972 61.2526 58.7298 61.238C58.4322 61.238 58.2833 61.2962 58.2833 61.616C58.328 63.6655 60.6051 64.9301 62.3763 63.869C62.6739 63.6945 62.9567 63.3893 63.1055 63.0695C63.3586 62.5026 63.7455 62.4154 64.3111 62.5026C65.1148 62.6334 65.1446 62.648 64.7874 63.3602C63.9688 65.0609 62.0339 65.8749 59.9949 65.4388C57.554 64.93 56.5866 63.0404 56.6015 60.9183C56.6164 59.4502 56.8992 58.0693 58.1494 57.0518C59.4889 55.9617 61.007 55.8599 62.5549 56.4123C64.0283 56.9355 64.832 58.1129 65.0255 59.581C65.2934 61.616 65.2488 61.1799 63.5818 61.2235C62.9418 61.238 62.287 61.238 61.6321 61.238Z" fill="white"/>
<path d="M80.8021 20.0591C78.8524 20.0591 77.2748 18.591 77.2897 16.7886C77.3045 14.8264 78.8226 13.3728 80.8319 13.3728C82.8263 13.3728 84.2998 14.8264 84.2849 16.7886C84.27 18.6347 82.7519 20.0737 80.8021 20.0591Z" fill="white"/>
<path d="M177.068 60.8018C176.949 61.4704 176.905 62.1681 176.711 62.8222C176.056 65.0026 173.66 65.8166 171.755 65.4532C169.865 65.0898 168.763 63.9415 168.451 62.0955C168.183 60.4966 168.242 58.9267 169.299 57.5895C170.371 56.2377 172.32 55.758 174.166 56.3394C175.863 56.8918 176.711 58.1418 176.949 59.8134C176.994 60.1332 176.994 60.4675 177.024 60.7873C177.038 60.8018 177.053 60.8018 177.068 60.8018Z" fill="white"/>
<path d="M124.798 60.6713C124.827 59.1597 125.229 57.7933 126.569 56.8776C127.938 55.9473 129.471 55.8746 130.974 56.4851C132.448 57.0665 133.251 58.2439 133.37 59.7556C133.445 60.7586 133.445 61.8051 133.192 62.7645C132.641 64.814 130.394 65.9332 128.146 65.4535C126.241 65.0465 125.08 63.7529 124.857 61.7034C124.827 61.3545 124.827 61.0057 124.798 60.6713Z" fill="white"/>
<path d="M99.8083 60.8604C99.8083 62.0814 99.6595 63.3314 98.6772 64.2762C97.3823 65.5263 95.7898 65.817 94.0931 65.3373C92.5452 64.9158 91.6224 63.8256 91.3247 62.2994C91.0271 60.8168 91.0568 59.3342 91.8605 57.9824C92.4559 56.9794 93.3935 56.398 94.5396 56.209C96.1619 55.9474 97.6502 56.2236 98.7962 57.5027C99.6297 58.462 99.8381 59.5958 99.8083 60.8604Z" fill="white"/>
<path d="M159.491 60.7004C159.565 59.3776 159.848 58.1421 160.845 57.1682C162.259 55.7874 165.682 55.6275 166.918 57.6334C166.977 57.7206 167.037 57.8223 167.082 57.9095C167.588 58.9125 167.498 59.0578 166.352 59.1451C166.084 59.1741 165.921 59.1305 165.787 58.8543C165.236 57.677 164.507 57.2554 163.346 57.4299C162.274 57.5898 161.381 58.4328 161.277 59.5666C161.203 60.4969 161.232 61.4417 161.351 62.3719C161.5 63.4621 162.468 64.218 163.554 64.247C164.745 64.2906 165.534 63.7092 165.906 62.5609C165.965 62.3865 166.129 62.0958 166.248 62.0958C166.65 62.0958 167.037 62.1975 167.424 62.2993C167.468 62.3138 167.468 62.6045 167.439 62.7499C166.992 64.654 165.087 65.8169 163.003 65.4825C161.188 65.1918 159.997 64.0726 159.655 62.2993C159.58 61.776 159.551 61.2382 159.491 60.7004Z" fill="white"/>
<path d="M48.505 60.7437C48.505 59.8716 48.4901 58.9995 48.505 58.1419C48.5199 57.7204 48.4008 57.4732 47.9097 57.5169C47.359 57.575 47.3441 57.2407 47.3292 56.8337C47.3143 56.3686 47.5822 56.2668 47.9543 56.3104C48.4008 56.3686 48.505 56.1505 48.4901 55.7726C48.4752 55.5982 48.5199 55.4092 48.4901 55.2348C48.3115 54.3336 48.7431 53.8103 49.5468 53.4615C49.9636 53.2725 50.0826 53.3016 50.0975 53.7522C50.1124 54.4208 50.1124 55.0894 50.0975 55.7581C50.0826 56.1796 50.2315 56.3686 50.678 56.325C50.7822 56.3104 50.9012 56.3104 51.0054 56.3104C51.6008 56.3104 51.9133 56.8192 51.6156 57.3279C51.5412 57.4442 51.2733 57.5023 51.0947 57.5023C50.0975 57.5459 50.0975 57.5314 50.0975 58.4907C50.0975 59.9588 50.0975 61.4269 50.1124 62.895C50.1273 63.8253 50.2612 63.9851 51.1989 63.9851C51.9431 63.9851 51.7198 64.552 51.8091 64.9154C51.9133 65.337 51.5859 65.3951 51.2733 65.4096C50.8715 65.4096 50.4547 65.4387 50.0529 65.3951C49.2194 65.3079 48.6538 64.8137 48.6092 63.9997C48.5496 62.9241 48.5943 61.8339 48.5943 60.7437C48.5794 60.7437 48.5348 60.7437 48.505 60.7437Z" fill="white"/>
<path d="M103.202 59.1012C103.202 60.9472 103.202 62.7932 103.202 64.6392C103.202 65.3078 103.187 65.3224 102.473 65.3224C102.339 65.3224 102.22 65.3224 102.086 65.3224C101.743 65.3369 101.624 65.177 101.624 64.8572C101.639 64.4357 101.624 64.0287 101.624 63.6072C101.624 60.2349 101.639 56.8627 101.609 53.4905C101.609 52.8945 101.922 52.8509 102.383 52.8654C103.127 52.88 103.202 52.909 103.202 53.4905C103.202 55.3655 103.187 57.2261 103.202 59.1012Z" fill="white"/>
<path d="M151.082 59.1158C151.082 57.2698 151.082 55.4238 151.082 53.5778C151.082 52.9237 151.141 52.8801 151.885 52.8801C152.615 52.8801 152.674 52.9237 152.674 53.5924C152.674 57.2844 152.689 60.9764 152.659 64.6684C152.659 64.8864 152.511 65.2644 152.392 65.2789C152.005 65.337 151.588 65.2789 151.201 65.2062C151.126 65.1917 151.097 64.8864 151.097 64.712C151.097 62.8515 151.097 60.9909 151.082 59.1158Z" fill="white"/>
<path d="M135.291 60.7877C135.291 59.5231 135.291 58.2439 135.291 56.9794C135.291 56.6014 135.291 56.2962 135.826 56.3107C136.6 56.3107 136.645 56.3398 136.704 56.9067C136.719 57.0084 136.794 57.1102 136.853 57.2265C136.943 57.1538 137.062 57.0956 137.136 56.9939C137.88 56.1072 138.714 55.9183 139.8 56.3543C140.172 56.4997 140.291 56.7177 140.143 57.0666C140.068 57.2555 140.053 57.4736 139.919 57.6189C139.815 57.7497 139.547 57.9242 139.428 57.8806C137.761 57.241 136.972 58.5056 136.928 59.7266C136.853 61.34 136.883 62.9534 136.838 64.5669C136.838 64.814 136.764 65.2501 136.645 65.2791C136.258 65.3663 135.841 65.3373 135.439 65.2937C135.365 65.2791 135.291 64.9593 135.291 64.7849C135.291 63.4331 135.291 62.1104 135.291 60.7877Z" fill="white"/>
<path d="M53.1786 60.7876C53.1786 59.5085 53.1935 58.2148 53.1638 56.9357C53.1489 56.4706 53.3126 56.2961 53.8037 56.2961C54.7563 56.3107 54.7712 56.2961 54.7563 57.2264C54.7563 59.7265 54.7414 62.2266 54.7563 64.7122C54.7563 65.2064 54.5926 65.3808 54.1163 65.3227C54.0121 65.3081 53.893 65.3081 53.7889 65.3227C53.3424 65.3808 53.1638 65.2064 53.1638 64.7413C53.1935 63.4331 53.1786 62.1103 53.1786 60.7876Z" fill="white"/>
<path d="M157.333 64.4941C157.333 65.3372 157.333 65.3372 156.365 65.3372C155.487 65.3372 155.487 65.3372 155.502 64.5086C155.517 63.5784 155.517 63.5784 156.633 63.5929C157.348 63.5784 157.348 63.5784 157.333 64.4941Z" fill="white"/>
<path d="M45.5283 64.4505C45.5135 65.3517 45.5135 65.3518 44.3823 65.3372C43.6977 65.3227 43.6977 65.3227 43.7126 64.2471C43.7274 63.5639 43.7274 63.5639 44.7395 63.5784C45.5432 63.5784 45.5432 63.5784 45.5283 64.4505Z" fill="white"/>
<path d="M54.771 53.7815C54.771 53.9414 54.8156 54.1303 54.7561 54.2611C54.6817 54.421 54.518 54.6391 54.3691 54.6536C53.2975 54.799 52.8362 54.1739 53.2082 53.1419C53.238 53.0402 53.372 52.9529 53.4761 52.9093C53.5654 52.8657 53.6994 52.8803 53.8036 52.8803C54.771 52.8657 54.771 52.8657 54.771 53.7815Z" fill="black"/>
<path d="M155.904 36.2661C153.195 36.2516 151.067 34.1439 151.067 31.513C151.067 28.9402 153.329 26.8035 155.993 26.8326C158.687 26.8616 160.756 28.9984 160.741 31.7165C160.741 34.2166 158.538 36.2806 155.904 36.2661Z" fill="black"/>
<path d="M98.186 26.6725C98.8707 26.7015 99.6149 26.8178 100.225 27.3411C100.612 27.6754 100.612 27.8353 100.151 28.0388C98.067 28.9109 95.9982 29.7831 93.9145 30.6407C93.7954 30.6843 93.5871 30.6988 93.5126 30.6407C93.4382 30.5825 93.4531 30.379 93.4829 30.2482C93.9443 28.1987 95.9386 26.6579 98.186 26.6725Z" fill="black"/>
<path d="M179.896 26.7888C182.635 26.7888 184.733 28.8529 184.748 31.571C184.763 34.1147 182.545 36.2514 179.881 36.2514C177.247 36.2514 175 34.1292 175 31.6437C175.014 28.8529 177.083 26.7888 179.896 26.7888Z" fill="black"/>
<path d="M27.3559 7.15104C38.8459 7.25279 47.7611 16.2503 47.9397 26.9484C48.1331 38.5768 38.3696 47.6033 26.9987 47.487C15.6872 47.3708 6.50416 38.2425 6.57857 27.0937C6.63811 16.1049 16.0296 7.10743 27.3559 7.15104Z" fill="white"/>
<path d="M83.2432 60.9472C83.2878 59.8861 83.4366 58.8687 84.2255 58.0692C85.2524 57.0081 86.7705 57.1099 87.604 58.3163C88.4226 59.5228 88.3333 60.86 88.0803 62.1973C87.9463 62.9095 87.5742 63.4764 86.964 63.8834C85.7436 64.7119 83.9725 64.0724 83.5557 62.6333C83.4069 62.0955 83.3473 61.5141 83.2432 60.9472Z" fill="black"/>
<path d="M122.029 60.8601C121.806 61.6014 121.687 62.3863 121.345 63.0549C120.943 63.8398 120.228 64.2904 119.246 64.2323C118.294 64.1742 117.624 63.68 117.326 62.8805C116.775 61.4706 116.701 60.0025 117.445 58.6216C117.966 57.6623 118.844 57.2698 119.856 57.4297C120.734 57.5605 121.568 58.4181 121.746 59.4065C121.836 59.8716 121.866 60.3368 121.91 60.8019C121.955 60.831 121.999 60.8455 122.029 60.8601Z" fill="black"/>
<path d="M144.176 64.2905C144.131 64.2905 143.982 64.2905 143.834 64.276C143.015 64.1888 142.494 63.7382 142.405 63.055C142.315 62.3718 142.688 61.8195 143.536 61.616C144.608 61.3398 145.709 61.1508 146.81 60.9619C146.885 60.9473 147.093 61.1654 147.108 61.2817C147.301 63.0405 146.111 64.2905 144.176 64.2905Z" fill="black"/>
<path d="M108.634 64.305C107.577 64.2905 106.967 63.9271 106.818 63.2004C106.684 62.5317 106.967 61.9648 107.607 61.7032C107.935 61.5724 108.277 61.5142 108.619 61.4561C109.423 61.2962 110.227 61.1654 111.016 60.9764C111.358 60.9037 111.477 60.9764 111.492 61.3253C111.596 63.1277 110.45 64.3196 108.634 64.305Z" fill="black"/>
<path d="M60.9178 59.9592C60.248 59.9592 59.5782 59.9447 58.9085 59.9592C58.4471 59.9738 58.3132 59.7848 58.4173 59.3487C58.715 58.1423 59.7271 57.3719 61.0071 57.3864C62.1977 57.401 63.1056 58.1714 63.3884 59.3778C63.4926 59.7993 63.3438 59.9592 62.927 59.9592C62.2573 59.9592 61.5875 59.9592 60.9178 59.9592Z" fill="black"/>
<path d="M175.476 60.9035C175.282 61.5722 175.193 62.2844 174.895 62.9094C174.434 63.8688 173.571 64.2903 172.484 64.2322C171.427 64.174 170.683 63.6071 170.311 62.6914C169.82 61.514 169.805 60.2785 170.252 59.0866C170.698 57.8656 171.68 57.2987 172.99 57.415C174.077 57.5022 175.044 58.418 175.252 59.5808C175.327 60.0023 175.357 60.4384 175.401 60.8745C175.416 60.889 175.446 60.889 175.476 60.9035Z" fill="black"/>
<path d="M131.867 60.8747C131.838 61.8631 131.689 62.7934 130.93 63.5347C129.665 64.7848 127.432 64.3632 126.777 62.7207C126.316 61.5433 126.286 60.3078 126.733 59.1014C127.194 57.8659 128.191 57.299 129.516 57.4298C130.587 57.5461 131.555 58.4909 131.733 59.6392C131.808 60.0462 131.823 60.4677 131.867 60.8747Z" fill="black"/>
<path d="M98.2305 60.5984C98.1561 61.8485 98.0519 62.8514 97.2185 63.6073C95.8492 64.8283 93.6018 64.2469 93.066 62.5171C92.7534 61.4851 92.7237 60.4386 92.9767 59.4065C93.2595 58.2728 94.2418 57.4588 95.3283 57.4152C96.6231 57.3716 97.6054 58.0111 97.9775 59.2176C98.1263 59.7263 98.171 60.2787 98.2305 60.5984Z" fill="black"/>
<path d="M18.1576 25.5388C17.9939 24.0416 17.8302 22.5735 17.6963 21.0909C17.6665 20.8583 17.6963 20.6112 17.7409 20.3932C17.86 19.7536 18.3958 19.5065 18.9911 19.8118C19.5418 20.0879 19.8097 20.5967 20.0181 21.12C20.3157 21.8613 20.5539 22.6171 20.926 23.373C20.9111 23.0532 20.8813 22.7334 20.8664 22.4136C20.8218 21.5851 20.7474 20.7566 20.7474 19.928C20.7623 19.0705 21.0153 18.9106 21.8636 19.0705C22.2357 19.1431 22.1911 18.8815 22.2208 18.678C22.5185 17.0209 22.7864 15.3639 23.1287 13.7069C23.2478 13.1109 23.4859 12.5295 23.7241 11.9626C24.111 11.0905 25.0487 10.8143 25.8524 11.3376C26.2245 11.5701 26.3584 11.512 26.4924 11.1486C26.5519 10.9596 26.6561 10.7852 26.7454 10.6108C27.1472 9.89856 27.5937 9.68052 28.3975 9.78227C29.0672 9.86949 29.4839 10.2474 29.6774 10.9742C29.7221 11.1486 29.7816 11.3376 29.8858 11.6719C30.1388 11.1922 30.3174 10.8724 30.496 10.5527C30.8086 10.0003 31.2253 9.65145 31.9248 9.73867C32.6095 9.82588 32.8923 10.2765 33.056 10.8579C33.1006 10.9887 33.1453 11.1195 33.2197 11.323C33.3536 11.1922 33.4727 11.1195 33.562 11.0178C33.9192 10.5817 34.3657 10.4509 34.9015 10.6253C35.4671 10.7998 35.8094 11.1922 35.7796 11.7446C35.7201 12.8783 35.6606 14.0266 35.4522 15.1459C34.7527 18.6925 34.0085 22.2101 33.2495 25.7422C32.8327 27.6755 33.1453 29.536 33.7406 31.3675C34.1722 32.6902 34.6634 33.9984 35.1397 35.3211C35.3778 35.9898 35.348 36.0625 34.6187 36.1497C33.3983 36.2805 32.1778 36.3822 30.9574 36.4694C30.5109 36.4985 30.3621 36.6584 30.6002 37.0509C31.4039 38.3155 32.2225 39.5655 33.0411 40.8156C33.1304 40.9609 33.2048 41.1208 33.2792 41.2662C33.1006 41.3098 32.9369 41.3824 32.7583 41.3824C29.8263 41.397 26.924 41.5859 24.0664 42.1964C22.6971 42.4871 21.3576 42.9377 20.0032 43.3302C19.4674 43.4901 19.393 43.461 19.3632 42.9087C19.0804 39.0132 18.0683 35.2775 16.6991 31.6146C15.7912 29.2017 15.2851 26.7016 15.2703 24.1143C15.2703 23.809 15.3298 23.4892 15.434 23.2131C15.7019 22.5008 16.327 22.4136 16.7735 23.0386C17.1456 23.5474 17.4135 24.1288 17.726 24.6957C17.86 24.9428 17.9939 25.248 18.1576 25.5388Z" fill="black"/>
<path d="M23.7836 24.1433C23.5753 23.3003 23.4413 22.4427 23.1288 21.6287C22.7269 20.5676 22.9502 19.5501 23.1288 18.5181C23.4413 16.643 23.8432 14.7824 24.2153 12.9219C24.2599 12.6748 24.3641 12.4132 24.5278 12.2387C24.6618 12.0789 24.9445 11.9335 25.1232 11.9626C25.3018 11.9916 25.5101 12.2387 25.5697 12.4132C25.659 12.7329 25.6887 13.0963 25.659 13.4306C25.5697 14.7679 25.4655 16.1052 25.3464 17.4424C25.3166 17.7768 25.3166 18.0675 25.778 18.082C26.2394 18.0965 26.1799 17.7768 26.2245 17.4861C26.5073 15.6691 26.7752 13.8376 27.0878 12.0207C27.1473 11.6428 27.3557 11.2649 27.564 10.9305C27.8915 10.3927 28.457 10.4218 28.7249 11.0032C28.8738 11.323 28.978 11.7009 28.9928 12.0498C29.0226 13.5905 28.9928 15.1313 29.0226 16.6721C29.0226 16.8174 29.2607 17.0936 29.35 17.0791C29.5286 17.0645 29.7221 16.8901 29.871 16.7447C29.9305 16.6866 29.8859 16.5412 29.9156 16.425C30.1984 14.9714 30.4812 13.5033 30.7937 12.0498C30.8682 11.7009 31.017 11.3521 31.1956 11.0468C31.3147 10.8433 31.5677 10.698 31.776 10.5381C31.9249 10.7416 32.1481 10.9305 32.2226 11.1631C32.3119 11.4684 32.3416 11.8027 32.3119 12.137C32.2226 13.6341 32.1184 15.1313 32.0142 16.643C31.9993 16.9337 31.9398 17.1808 32.3565 17.239C32.7881 17.2826 32.8328 17.0355 32.8923 16.7157C33.1007 15.5092 33.309 14.2882 33.5472 13.0818C33.6365 12.6603 33.83 12.2533 34.0234 11.8754C34.1127 11.7009 34.3509 11.5846 34.5295 11.4393C34.6634 11.6428 34.8867 11.8317 34.9016 12.0352C34.9462 12.4858 34.9462 12.951 34.8569 13.387C34.3509 16.0761 33.8151 18.7652 33.2644 21.4397C32.9518 22.9805 32.5798 24.5212 32.2821 26.0765C31.9398 27.8789 32.2672 29.6523 32.803 31.382C33.1453 32.4867 33.5621 33.5768 33.9341 34.667C34.1276 35.2194 34.083 35.3066 33.5025 35.3502C32.4458 35.4519 31.3891 35.5537 30.3324 35.5973C30.124 35.6118 29.7817 35.4083 29.7072 35.2339C29.1119 33.7658 28.5612 32.2977 28.0105 30.8151C27.9064 30.5099 27.8171 30.1755 27.8319 29.8558C27.8468 29.536 27.9212 29.1581 28.1147 28.9255C29.4542 27.2684 30.7193 25.5678 31.657 23.6636C32.2077 22.5299 32.7584 21.3816 32.6542 20.0879C32.6095 19.5501 32.4309 18.9541 32.1184 18.5326C31.4486 17.6023 30.2728 17.5006 29.2756 18.3436C28.338 19.1286 27.5492 20.0734 26.7306 20.9746C26.3287 21.4252 26.3436 21.4397 26.031 20.9164C25.8524 20.6112 25.6441 20.2914 25.3911 20.0443C25.019 19.6809 24.5427 19.7391 24.3641 20.2333C24.1557 20.8438 24.0218 21.4979 23.9622 22.1374C23.9027 22.7915 23.9474 23.4601 23.9474 24.1288C23.9325 24.1288 23.8581 24.1433 23.7836 24.1433Z" fill="white"/>
<path d="M27.728 27.9224C27.6536 27.6753 27.5941 27.4718 27.5494 27.2829C27.2964 25.8875 27.0583 24.5066 26.8202 23.1112C26.7755 22.8786 26.7606 22.5734 26.8797 22.3844C27.6834 21.1344 28.5466 19.9279 29.782 19.0703C30.8536 18.329 31.7019 18.7505 31.8061 20.0297C31.8954 21.0035 31.5382 21.8902 31.1512 22.7478C30.3326 24.5647 29.2164 26.2073 27.9513 27.7625C27.9364 27.7916 27.862 27.8207 27.728 27.9224Z" fill="white"/>
</svg>
