<svg width="174" height="70" viewBox="0 0 174 70" fill="none" xmlns="http://www.w3.org/2000/svg">
<path d="M60.1515 45.877C60.6892 45.877 61.0733 45.877 61.4574 45.877C73.4414 45.877 85.4511 45.877 97.4351 45.877C98.024 45.877 98.6386 45.8513 99.2019 45.7232C100.508 45.3903 101.43 44.6219 101.763 43.2643C102.096 41.8812 101.865 40.5492 100.738 39.704C99.6628 38.8843 98.4081 38.1671 97.1278 37.7317C91.0078 35.6057 84.8621 33.6334 78.7165 31.5587C76.2838 30.7391 73.9024 29.7914 72.0331 27.9215C67.3214 23.1829 65.7081 17.5991 67.8079 11.2212C69.9077 4.92021 74.6449 1.69282 81.0211 0.668265C81.3283 0.617037 81.6356 0.617065 81.9685 0.617065C89.6762 0.617065 97.3838 0.617065 105.066 0.617065C105.322 0.617065 105.578 0.642651 105.86 0.668265C105.86 4.5872 105.86 8.45493 105.86 12.4507C105.501 12.4507 105.168 12.4507 104.835 12.4507C97.5887 12.4507 90.3419 12.4507 83.0952 12.4507C81.1491 12.4507 80.1248 13.1423 79.6383 14.7048C79.1518 16.3184 79.6127 17.8552 81.2771 18.6749C83.6842 19.8531 86.1936 20.8777 88.7287 21.7486C93.9269 23.5416 99.2788 24.9503 104.4 26.9226C109.009 28.7156 112.492 32.0198 113.926 36.9377C116.563 45.9282 111.647 54.6625 103.299 57.1215C101.942 57.5313 100.457 57.685 99.0227 57.7106C86.3729 57.7618 73.7231 57.7362 61.0733 57.7618C60.2539 57.7618 60.0234 57.5057 60.0234 56.7117C60.0747 53.4843 60.049 50.2313 60.049 47.0039C60.1515 46.6453 60.1515 46.338 60.1515 45.877Z" fill="white"/>
<path d="M158.327 57.6593C158.711 56.02 159.096 54.432 159.48 52.8183C160.197 49.8727 160.914 46.9015 161.656 43.9815C161.938 42.8801 161.759 41.9324 161.144 40.9846C155.331 32.0966 149.544 23.1829 143.757 14.2693C143.066 13.1935 142.195 12.5788 140.915 12.5275C140.326 12.5019 139.711 12.4763 139.122 12.4763C137.611 12.4763 136.536 13.1423 135.717 14.4486C130.16 23.1573 124.552 31.8405 118.944 40.5492C118.816 40.7285 118.688 40.9078 118.534 41.1383C118.406 39.7552 118.381 38.4745 118.176 37.1938C117.587 33.4798 115.743 30.4573 112.824 28.0752C112.414 27.7422 112.261 27.5117 112.594 26.9738C116.767 20.5447 120.967 14.1156 125.064 7.63524C127.394 3.94683 130.698 1.79527 134.923 1.00123C138.943 0.232814 142.912 0.335273 146.804 1.56474C149.877 2.53807 152.335 4.38228 154.128 7.12297C159.992 16.1135 165.881 25.0784 171.745 34.0689C173.896 37.3731 174.332 40.9846 173.487 44.7755C172.565 48.8737 171.566 52.972 170.619 57.0446C170.516 57.4544 170.439 57.7106 169.927 57.7106C166.189 57.685 162.424 57.685 158.686 57.685C158.66 57.7618 158.558 57.7106 158.327 57.6593Z" fill="white"/>
<path d="M63.7876 0.591412C63.8132 0.975622 63.8388 1.25736 63.8388 1.53912C63.8388 4.86893 63.8132 8.19879 63.8644 11.503C63.8644 12.2714 63.634 12.4507 62.917 12.4507C55.1581 12.4251 47.3992 12.4251 39.6403 12.4251C36.7211 12.4251 35.6201 13.5265 35.6201 16.4209C35.6201 29.6633 35.6201 42.9057 35.6201 56.1481C35.6201 56.4299 35.5944 56.7117 35.6201 56.9934C35.6457 57.4801 35.4664 57.7106 34.9543 57.7106C31.2157 57.685 27.4514 57.685 23.7128 57.7106C23.1239 57.7106 23.0215 57.4544 23.0215 56.9422C23.0471 55.3797 23.0215 53.8173 23.0215 52.2548C23.0215 40.5236 23.0215 28.7924 23.0215 17.0612C23.0215 11.7591 24.7371 7.25104 29.0391 3.94684C31.907 1.74404 35.1847 0.565798 38.8465 0.591412C46.7846 0.617026 54.6972 0.591412 62.6353 0.591412C62.9426 0.591412 63.3267 0.591412 63.7876 0.591412Z" fill="white"/>
<path d="M12.3173 0.617065C17.2338 0.617065 22.0735 0.617065 26.862 0.617065C25.8121 1.53917 24.6854 2.41003 23.7379 3.40898C21.5357 5.73985 20.0249 8.48054 19.4616 11.6823C19.3591 12.2202 19.1543 12.4251 18.5653 12.4251C16.696 12.3995 14.8267 12.3995 12.9318 12.4251C12.4453 12.4251 12.2148 12.3226 12.2148 11.7591C12.2405 8.17317 12.2148 4.61282 12.2404 1.02686C12.2404 0.924403 12.2916 0.821977 12.3173 0.617065Z" fill="white"/>
<path d="M131.466 52.1011C131.441 55.6102 128.598 58.4021 125.09 58.3765C121.582 58.3509 118.791 55.5078 118.817 51.9987C118.842 48.5152 121.71 45.6976 125.218 45.7232C128.726 45.7744 131.492 48.5664 131.466 52.1011ZM128.47 50.1544C127.625 50.4618 126.857 50.7692 125.935 51.1021C125.935 50.5386 125.935 50.1288 125.935 49.6934C125.935 48.4127 125.73 48.2846 124.322 48.7201C124.322 49.4373 124.322 50.2057 124.322 51.1021C123.426 50.7692 122.683 50.4874 121.838 50.1544C121.633 50.6411 121.454 51.0765 121.249 51.5888C122.12 51.9474 122.914 52.2548 123.81 52.6134C123.144 53.3306 122.581 53.9453 121.992 54.6112C122.402 54.9698 122.734 55.2516 123.17 55.6358C123.836 54.9186 124.476 54.227 125.116 53.5355C125.705 54.1246 126.268 54.6625 126.78 55.226C127.088 55.5334 127.344 55.559 127.651 55.2516C127.856 55.0467 128.086 54.8418 128.598 54.3807C127.805 53.8172 127.113 53.3049 126.294 52.6902C127.395 52.2291 128.189 51.8962 129.034 51.5632C128.829 51.0509 128.675 50.6411 128.47 50.1544Z" fill="white"/>
<path d="M5.60938 0.591413C7.14579 0.591413 8.57976 0.565824 10.0394 0.617052C10.2186 0.617052 10.5259 0.975612 10.5259 1.18052C10.5515 4.71525 10.5515 8.27562 10.5259 11.8103C10.5259 12.0153 10.1418 12.3739 9.93692 12.3739C8.68219 12.4251 7.42745 12.4251 6.19832 12.3739C5.99347 12.3739 5.66058 12.0409 5.66058 11.8616C5.60937 8.17317 5.60938 4.45912 5.60938 0.591413Z" fill="white"/>
<path d="M0.435866 0.642639C1.10164 0.642639 1.76744 0.642639 2.51004 0.642639C2.53564 1.02685 2.56124 1.35981 2.56124 1.66718C2.56124 4.97139 2.56125 8.24998 2.58685 11.5542C2.58685 12.2201 2.43321 12.5275 1.74182 12.425C1.46015 12.3994 1.15286 12.4763 0.896791 12.3994C0.666329 12.3226 0.359049 12.0665 0.359049 11.8872C0.333442 8.22437 0.333442 4.56155 0.359049 0.898755C0.333442 0.821914 0.41026 0.745095 0.435866 0.642639Z" fill="white"/>
<path d="M126.421 69.032C125.73 69.2369 125.576 68.9552 125.602 68.3661C125.628 66.9829 125.602 65.5998 125.474 64.1654C125.372 64.3447 125.244 64.4983 125.167 64.6776C124.603 65.8559 124.066 67.0598 123.477 68.2124C123.297 68.571 122.913 68.8015 122.632 69.1089C122.376 68.8271 122.017 68.571 121.838 68.2636C121.172 66.9573 120.557 65.6253 119.712 64.3447C119.712 65.9071 119.712 67.4695 119.712 69.0576C119.354 69.0576 119.123 69.0576 118.842 69.0576C118.842 66.9829 118.842 64.9594 118.842 62.8847C119.636 62.6285 120.148 62.7822 120.506 63.6275C121.121 65.0875 121.863 66.4962 122.632 68.0587C123.374 66.5218 124.117 65.1387 124.731 63.7043C125.064 62.9359 125.5 62.5517 126.421 62.859C126.421 64.8825 126.421 66.9317 126.421 69.032Z" fill="white"/>
<path d="M74.5415 67.5463C74.5415 65.9838 74.5415 64.447 74.5415 62.8333C74.8744 62.8333 75.1048 62.8333 75.4121 62.8333C75.4121 64.9081 75.4121 66.9572 75.4121 69.0063C74.7719 69.2112 74.3366 69.0575 73.9013 68.5196C72.7746 67.0596 71.5967 65.6509 70.2652 64.0116C70.2652 65.8302 70.2652 67.3926 70.2652 69.0063C69.9323 69.0319 69.6762 69.0575 69.3945 69.0575C69.3945 66.9315 69.3945 64.8824 69.3945 62.8333C70.0347 62.6284 70.47 62.7821 70.8797 63.32C72.0064 64.78 73.1587 66.1888 74.311 67.5975C74.3879 67.5975 74.4647 67.5719 74.5415 67.5463Z" fill="white"/>
<path d="M150.492 62.859C150.492 64.9593 150.492 66.9829 150.492 69.0064C149.852 69.2113 149.417 69.0576 148.981 68.5453C147.855 67.0853 146.677 65.6765 145.371 64.0628C145.371 65.8558 145.371 67.4439 145.371 69.0576C145.012 69.0832 144.782 69.1088 144.475 69.1344C144.475 67.0085 144.475 64.9593 144.475 62.9102C145.115 62.7053 145.55 62.859 145.96 63.3713C147.087 64.8313 148.264 66.24 149.647 67.6232C149.647 66.9316 149.647 66.2656 149.647 65.5741C149.647 64.8825 149.673 64.2166 149.647 63.525C149.596 62.8846 149.826 62.6797 150.492 62.859Z" fill="white"/>
<path d="M116.358 62.8333C116.563 63.4481 116.307 63.6017 115.795 63.5761C114.668 63.5505 113.541 63.5761 112.363 63.5761C112.363 64.1909 112.363 64.7032 112.363 65.3947C113.413 65.3947 114.489 65.3691 115.564 65.4203C115.846 65.4203 116.307 65.6252 116.332 65.7789C116.409 66.4193 115.871 66.1888 115.538 66.1888C114.489 66.2144 113.464 66.1888 112.363 66.1888C112.363 66.906 112.363 67.5207 112.363 68.2891C113.541 68.2891 114.719 68.2891 115.871 68.2891C116.358 68.2891 116.665 68.3916 116.435 69.0832C115.641 69.0832 114.796 69.0832 113.951 69.0832C113.131 69.0832 112.312 69.0832 111.441 69.0832C111.441 66.9572 111.441 64.9081 111.441 62.8077C113.106 62.8334 114.745 62.8333 116.358 62.8333Z" fill="white"/>
<path d="M30.293 66.2656C30.4979 67.1621 30.6771 68.0586 30.882 68.9551C30.1138 69.2625 29.8321 69.0319 29.8065 68.3404C29.8065 68.0586 29.7809 67.7768 29.7297 67.4951C29.6273 66.7779 29.2431 66.4193 28.4749 66.3937C26.1191 66.3169 26.1191 66.2913 26.0423 68.5709C26.0423 68.699 26.0167 68.8526 25.9911 69.0319C25.735 69.0319 25.4789 69.0575 25.1973 69.0575V62.8334C26.6569 62.8334 28.1421 62.7053 29.5761 62.859C30.7284 62.987 31.1637 64.4983 30.4723 65.4204C30.3186 65.6253 30.0882 65.7533 29.909 65.907C30.1138 65.9583 30.2418 66.0863 30.293 66.2656ZM26.0679 63.6018C26.0679 64.2165 26.0167 64.6776 26.0935 65.1642C26.1191 65.3435 26.3752 65.5997 26.5544 65.5997C27.3738 65.6253 28.1933 65.6253 29.0127 65.574C29.5761 65.5484 29.909 65.2155 29.909 64.6263C29.909 64.0116 29.6017 63.6274 28.9871 63.6018C28.0653 63.5762 27.1178 63.6018 26.0679 63.6018Z" fill="white"/>
<path d="M63.2759 69.2369C61.1505 69.16 59.8189 67.8281 59.8957 65.8046C59.9726 63.858 61.4065 62.6285 63.4807 62.6541C65.5804 62.7053 66.9888 64.0885 66.9376 66.0351C66.8608 68.033 65.4012 69.2881 63.2759 69.2369ZM63.3527 68.4172C64.9915 68.4428 65.9902 67.4951 66.0158 65.9839C66.0414 64.4471 65.0171 63.4737 63.4039 63.4737C61.8162 63.4737 60.8176 64.3702 60.792 65.8815C60.7664 67.4183 61.7394 68.4172 63.3527 68.4172Z" fill="white"/>
<path d="M101.967 64.8568C101.532 64.5751 101.199 64.447 101.019 64.1909C100.456 63.4481 98.894 63.1663 98.177 63.781C97.9722 63.9603 97.7673 64.3446 97.8185 64.5495C97.8697 64.8056 98.177 65.1642 98.4331 65.2411C99.0989 65.446 99.8159 65.5228 100.507 65.6765C101.736 65.9326 102.274 66.4449 102.249 67.3158C102.223 68.2635 101.583 68.9807 100.405 69.0831C99.5342 69.16 98.6123 69.0575 97.7417 68.827C96.9991 68.6477 96.6406 68.0074 96.6406 66.8803C97.0503 67.1621 97.4088 67.2646 97.5625 67.5207C98.177 68.4684 100.251 68.7758 101.045 67.9817C101.506 67.5463 101.352 66.8547 100.687 66.6498C99.9951 66.4449 99.2525 66.3424 98.5355 66.1888C97.332 65.9582 96.7943 65.446 96.7943 64.5495C96.7943 63.6274 97.4088 62.987 98.5355 62.7565C100.251 62.3979 101.583 63.0126 101.967 64.2933C102.018 64.3702 101.992 64.4214 101.967 64.8568Z" fill="white"/>
<path d="M129.007 66.9573C129.263 67.1622 129.571 67.3159 129.75 67.572C130.339 68.4941 132.567 68.7503 133.258 67.9306C133.693 67.444 133.514 66.8292 132.797 66.6243C132.003 66.3938 131.184 66.3169 130.39 66.1376C129.263 65.8559 128.751 65.0618 129.084 64.0629C129.187 63.7299 129.443 63.3969 129.699 63.192C130.595 62.5005 132.516 62.4748 133.412 63.192C133.796 63.4994 134.001 64.0117 134.282 64.4215C134.18 64.5239 134.103 64.6264 134.001 64.7289C133.719 64.5496 133.361 64.4215 133.181 64.191C132.592 63.4482 131.082 63.1664 130.339 63.7811C130.134 63.9604 129.929 64.319 129.98 64.5496C130.032 64.8057 130.339 65.1643 130.595 65.2412C131.286 65.4461 132.029 65.5229 132.772 65.7022C133.95 65.9583 134.462 66.445 134.436 67.3159C134.41 68.238 133.821 68.9808 132.695 69.0833C131.824 69.1601 130.877 69.0832 130.032 68.8783C129.263 68.699 128.854 68.0587 128.828 67.239C128.828 67.1366 128.905 67.0597 129.007 66.9573Z" fill="white"/>
<path d="M81.8657 66.9828C82.1217 67.1621 82.5314 67.2902 82.6339 67.5463C83.0436 68.6221 85.553 68.6477 86.142 67.9818C86.5773 67.4951 86.4493 66.8804 85.7579 66.6755C84.9641 66.4449 84.1447 66.3681 83.3509 66.1632C82.1729 65.8814 81.6608 65.0874 81.9681 64.0372C81.9937 63.9348 82.0449 63.8323 82.0961 63.7299C82.5058 62.9615 83.735 62.526 84.9897 62.7309C86.2957 62.9358 86.8334 63.3969 87.0383 64.5495C86.6029 64.7288 86.3212 64.7032 86.014 64.2165C85.553 63.4225 83.8886 63.192 83.1972 63.8067C82.9924 63.986 82.7875 64.3702 82.8643 64.6007C82.9411 64.8569 83.2228 65.1899 83.5045 65.2667C84.2471 65.4716 85.0409 65.4972 85.7579 65.7534C86.2957 65.9327 86.859 66.2656 87.1919 66.7011C87.6528 67.3414 87.2431 68.3916 86.4493 68.8014C85.1689 69.4418 83.8374 69.4674 82.6339 68.7246C82.173 68.4428 81.9425 67.8281 81.584 67.3414C81.6352 67.2134 81.7376 67.1109 81.8657 66.9828Z" fill="white"/>
<path d="M47.1422 66.7779C46.7581 68.4684 45.3241 69.4162 43.6085 69.2113C41.688 68.9551 40.6381 67.7 40.6893 65.7789C40.7405 64.0116 41.944 62.8077 43.7877 62.6797C45.5034 62.5516 46.8605 63.4737 47.091 64.9337C46.6557 65.1386 46.3484 65.0874 46.0923 64.6007C45.5802 63.6018 44.4279 63.2432 43.1988 63.6018C42.0977 63.9348 41.5599 64.78 41.5855 66.0863C41.6112 67.3158 42.2513 68.1355 43.3524 68.366C44.5816 68.6221 45.529 68.2123 46.0667 67.1621C46.3996 66.6755 46.3996 66.6754 47.1422 66.7779Z" fill="white"/>
<path d="M159.07 65.1642C158.814 64.9593 158.455 64.8312 158.302 64.5751C157.713 63.653 156.637 63.2432 155.459 63.5761C154.307 63.8835 153.744 64.7544 153.769 66.0863C153.795 67.2902 154.461 68.1354 155.536 68.3916C156.74 68.6477 157.764 68.2379 158.25 67.1877C158.481 66.6498 158.788 66.6242 159.249 66.7779C159.095 68.2379 157.764 69.2881 156.099 69.2624C154.179 69.2112 152.899 67.9561 152.847 66.0351C152.796 64.1397 153.974 62.8846 155.869 62.7053C157.636 62.5516 159.044 63.4737 159.249 64.9337C159.198 65.0105 159.121 65.0874 159.07 65.1642Z" fill="white"/>
<path d="M38.9992 69.0576C38.4102 69.2625 37.9749 69.1089 37.8469 68.4941C37.6164 67.444 36.9762 67.0597 35.9263 67.2646C35.7983 67.2902 35.6447 67.2902 35.491 67.2646C34.4411 67.0597 33.8266 67.4696 33.5961 68.5197C33.4681 69.1088 33.084 69.2881 32.3926 69.0576C32.8791 68.0074 33.3401 66.9573 33.8266 65.9071C34.2363 65.0362 34.5948 64.1397 35.0301 63.2945C35.1325 63.0895 35.491 62.8846 35.7215 62.859C35.9263 62.8334 36.3105 63.0127 36.3873 63.192C37.2835 65.0874 38.1285 67.0085 38.9992 68.9296C39.0248 68.9296 38.9992 68.9808 38.9992 69.0576ZM35.8239 63.858C35.7471 63.858 35.6703 63.858 35.5934 63.8324C35.2349 64.652 34.9021 65.4717 34.518 66.3682C35.363 66.3682 36.08 66.3682 36.925 66.3682C36.5409 65.4973 36.1824 64.6776 35.8239 63.858Z" fill="white"/>
<path d="M95.0274 62.9615C94.3872 63.7812 93.7982 64.652 93.1069 65.4461C92.5435 66.112 92.2362 66.8036 92.3386 67.7001C92.3899 68.1355 92.3386 68.5966 92.3386 69.0832C92.0058 69.0832 91.7753 69.0832 91.5448 69.0832C91.4936 68.9552 91.4424 68.8783 91.468 68.8015C91.8265 66.9317 90.879 65.5485 89.7267 64.2422C89.3938 63.8324 89.1122 63.3969 88.7793 62.9103C89.4963 62.6797 89.9316 62.859 90.2901 63.4225C90.7766 64.191 91.34 64.8826 91.8521 65.5997C93.0556 64.8057 93.1581 62.9103 94.8225 62.7566C94.8737 62.8078 94.9506 62.8847 95.0274 62.9615Z" fill="white"/>
<path d="M20.7412 69.0063C19.973 69.2368 19.7938 69.0063 19.7938 68.3916C19.8194 67.034 19.7938 65.6765 19.8194 64.319C19.8194 63.7554 19.6401 63.5505 19.0768 63.6018C18.6671 63.6274 18.2317 63.653 17.7964 63.5761C17.6428 63.5505 17.5148 63.32 17.3867 63.1919C17.5404 63.0639 17.6684 62.8333 17.822 62.8333C19.5377 62.8077 21.2789 62.8077 22.9946 62.8077C23.3019 63.7042 22.7386 63.6018 22.252 63.6018C21.7655 63.6018 21.3046 63.6018 20.7412 63.6018C20.7412 65.446 20.7412 67.2133 20.7412 69.0063Z" fill="white"/>
<path d="M48.9352 62.8334C50.8045 62.8334 52.597 62.8334 54.4151 62.8334C54.5431 63.6018 54.5431 63.6018 53.6981 63.6018C53.2115 63.6018 52.7506 63.6018 52.1616 63.6018C52.1616 65.446 52.1616 67.239 52.1616 69.0576C51.8288 69.0576 51.5983 69.0576 51.3166 69.0576C51.291 68.9295 51.2398 68.8271 51.2398 68.7246C51.2398 67.2646 51.2142 65.8302 51.2398 64.3702C51.2398 63.7811 51.0862 63.525 50.4716 63.6018C50.1387 63.653 49.7802 63.6018 49.4473 63.6018C48.9608 63.6274 48.7559 63.4225 48.9352 62.8334Z" fill="white"/>
<path d="M109.137 63.6018C108.446 63.6018 107.729 63.6018 106.935 63.6018C106.935 65.446 106.935 67.2134 106.935 69.0576C106.602 69.0832 106.372 69.0832 106.039 69.1088C106.039 67.2646 106.039 65.4973 106.039 63.8067C105.271 63.192 104.067 64.1909 103.504 62.7821C105.45 62.7821 107.217 62.7566 108.958 62.8078C109.112 62.8078 109.24 63.1664 109.393 63.3713C109.291 63.4481 109.214 63.525 109.137 63.6018Z" fill="white"/>
<path d="M57.4883 69.0319C56.7713 69.2624 56.6176 68.9551 56.6432 68.366C56.6688 66.7523 56.6688 65.1386 56.6432 63.5249C56.6432 62.9358 56.7969 62.6284 57.4883 62.8589C57.4883 64.9081 57.4883 66.9572 57.4883 69.0319Z" fill="white"/>
<path d="M140.863 62.8077C141.145 62.8334 141.375 62.8333 141.631 62.8333C141.631 64.9081 141.631 66.9316 141.631 69.0319C141.401 69.0575 141.171 69.0831 140.863 69.1088C140.863 67.0084 140.863 64.9593 140.863 62.8077Z" fill="white"/>
<path d="M162.016 69.0575C162.016 68.7501 162.016 68.494 162.016 68.1866C162.349 68.1866 162.63 68.1866 162.963 68.1866C162.963 68.494 162.963 68.7501 162.963 69.0575C162.656 69.0575 162.349 69.0575 162.016 69.0575Z" fill="white"/>
</svg>
