<svg width="244" height="79" xmlns="http://www.w3.org/2000/svg" xmlns:xlink="http://www.w3.org/1999/xlink"><defs><path id="prefix__a" d="M0 0h46.607v37.755H0z"/><path id="prefix__c" d="M0 0h54.286v39.81H0z"/></defs><g fill="none" fill-rule="evenodd"><g transform="translate(.06 30.458)"><mask id="prefix__b" fill="#fff"><use xlink:href="#prefix__a"/></mask><path d="M41.86 0c-.825 0-1.564.491-1.884 1.252l-12.09 28.811L25.597 0h-3.585c-.811 0-1.546.48-1.871 1.224L7.593 29.934 5.505 0H1.982A2.045 2.045 0 00-.05 2.243l3.5 35.512h4.107c.811 0 1.545-.48 1.871-1.222L21.831 8.259l2.395 29.496h4.123c.803 0 1.535-.474 1.864-1.207L46.607 0H41.86" fill="#fff" mask="url(#prefix__b)"/></g><path d="M63.661 51.556c0 6.281-3.354 12.955-9.571 12.955-6.337 0-7.668-4.427-7.668-8.142 0-6.28 3.355-12.956 9.572-12.956 6.337 0 7.667 4.428 7.667 8.143zm-7.72-12.426c-8.487 0-14.648 7.25-14.648 17.239 0 7.78 4.804 12.426 12.85 12.426 8.518 0 14.7-7.249 14.7-17.239 0-7.78-4.823-12.426-12.902-12.426zM79.266 28.924c-.992 0-1.836.708-2.009 1.685l-6.654 37.605h3.429c.992 0 1.837-.708 2.009-1.685l6.654-37.605h-3.429" fill="#fff"/><g transform="translate(98.017 39.13)"><mask id="prefix__d" fill="#fff"><use xlink:href="#prefix__c"/></mask><path d="M15.203 12.499l-.002-.001c-.35-.116-.703-.226-1.052-.336-2.817-.885-5.249-1.65-5.249-4.019 0-2.272 2.37-3.86 5.763-3.86 3.691 0 7.475 1.908 8.548 2.493l.284.155 2.601-3.552-.351-.208C23.269 1.709 18.84 0 14.505 0 8.153 0 3.717 3.479 3.717 8.46c0 5.476 4.992 7.071 8.296 8.126l.828.262c3.352 1.055 6 1.887 6 4.408 0 2.708-3.086 4.125-6.134 4.125-3.777 0-8.009-2.183-9.652-3.123l-.278-.158L0 25.634l.346.219c1.413.895 6.482 3.812 12.361 3.812 6.8 0 11.368-3.528 11.368-8.778 0-5.031-3.845-6.713-8.872-8.388M48.999 10.682c0 9.48-4.414 14.594-8.568 14.594-3.358 0-6.134-2.217-7.906-4.135l2.166-12.428c2.723-2.201 5.671-4.324 9.125-4.324 4.283 0 5.183 3.422 5.183 6.293zM44.979 0c-3.018 0-6.086 1.185-9.354 3.618l.543-3.036h-3.432c-.99 0-1.835.708-2.008 1.683L24.074 39.87h3.431c.991 0 1.834-.707 2.008-1.682l2.231-12.565c1.765 1.548 4.962 4.043 9.481 4.043 7.69 0 13.061-7.981 13.061-19.408C54.286.74 47.163 0 44.979 0z" fill="#fff" mask="url(#prefix__d)"/></g><path d="M159.775 52.719c1.307-5.68 5.307-9.465 10.066-9.465 3.083 0 5.076 1.432 5.076 3.649 0 3.751-4.413 5.816-12.427 5.816h-2.715zm2.345 3.596c11.86 0 17.873-3.202 17.873-9.517 0-4.586-3.995-7.668-9.941-7.668-9.371 0-15.916 7.11-15.916 17.292 0 7.863 3.931 12.374 10.787 12.374 5.416 0 10.639-2.849 12.868-4.065l.321-.176-2.038-3.82-.325.17c-.235.123-.489.26-.762.404-2.428 1.297-6.099 3.256-9.429 3.256-5.115 0-6.189-4.342-6.189-7.985v-.265h2.751zM187.052 52.719c1.306-5.68 5.306-9.465 10.064-9.465 3.084 0 5.076 1.432 5.076 3.649 0 3.751-4.414 5.816-12.426 5.816h-2.714zm2.344 3.596c11.859 0 17.873-3.202 17.873-9.517 0-4.586-3.996-7.668-9.941-7.668-9.372 0-15.917 7.11-15.917 17.292 0 7.863 3.933 12.374 10.787 12.374 5.417 0 10.639-2.849 12.868-4.065l.323-.176-2.037-3.82-.327.17c-.235.123-.49.26-.761.404-2.43 1.297-6.101 3.256-9.431 3.256-5.114 0-6.187-4.342-6.187-7.985v-.265h2.75zM230.042 47.706l-2.062 11.593c-2.936 2.664-6.176 5.107-9.968 5.107-3.911 0-4.495-3.942-4.495-6.293 0-7.174 3.342-14.595 8.936-14.595 2.507 0 4.99 1.37 7.589 4.188zm5.021-18.782c-.991 0-1.835.709-2.007 1.686l-2.231 12.657c-1.76-1.587-4.924-4.137-9.165-4.137-7.908 0-13.43 8.002-13.43 19.46 0 4.933 2.25 10.205 8.566 10.205 4.3 0 8.032-2.429 10.245-4.272l-.638 3.691h3.428c.991 0 1.836-.708 2.008-1.684l6.654-37.606h-3.43zM240.808 63.678c0 .19-.071.335-.217.446-.153.115-.37.174-.642.174h-.182v-1.052h.23c.411 0 .591.053.669.099.096.057.142.165.142.333zm1.362 2.733l-1.283-1.691c.24-.136.418-.284.53-.439.135-.187.202-.42.202-.693 0-.414-.198-.705-.591-.867-.179-.076-.479-.113-.916-.113h-1.121v3.828h.776v-1.501h.335l1.105 1.456.033.045h.905a2.704 2.704 0 01-2.508.709 2.691 2.691 0 01-2.006-2.006 2.702 2.702 0 01.721-2.519 2.704 2.704 0 012.52-.721 2.694 2.694 0 012.006 2.006 2.71 2.71 0 01-.708 2.506zm.489-4.293a3.376 3.376 0 00-2.404-.996c-.909 0-1.764.353-2.404.996a3.375 3.375 0 00-.997 2.404c0 .909.354 1.763.996 2.404a3.376 3.376 0 002.405.997c.907 0 1.761-.354 2.403-.996a3.376 3.376 0 00.997-2.405c0-.908-.354-1.762-.996-2.404zM100.612 39.712h-7.401l.609-3.418c.395-1.978 1.22-2.823 2.757-2.823 1.057 0 3.263.579 4.282.884l.287.086 2.039-3.696-.39-.155c-1.441-.576-4.761-1.666-7.012-1.666-4.08 0-6.197 2.164-7.079 7.232l-.633 3.556h-3.757l-.708 4.124h3.751l-3.28 18.565-1.046 5.813h3.431c.991 0 1.836-.708 2.008-1.683l.729-4 3.299-18.695h7.404l.71-4.124" fill="#fff"/><g fill="#fff"><path d="M223.596 25.09L171.855 1.008a.524.524 0 00-.692.703l7.507 15.534a.445.445 0 01-.386.638l-69.8 2.48c-.23.008-.233.35-.002.361l81.522 3.966a.26.26 0 00.248-.363l-3.982-8.992a.417.417 0 01.5-.569l36.655 10.776c.287.085.442-.326.171-.452M191.998 8.414l14.538 6.721c.235.109.429-.211.223-.368L188.394.722c-.185-.141-.434.062-.332.271l3.273 6.769c.139.287.373.518.663.652"/></g><path d="M216.562 29.999a.67.67 0 01-.346.074l-49.208-2.703-18.599-1.051c-.225.07-.187.4.048.418l21.274 2.578-.078-.07c.057.044.087.07.078.07l47.763 4.631a.516.516 0 00.449-.186l5.745-7.012c.142-.173-.054-.415-.252-.313l-6.874 3.564" fill="#fff"/></g></svg>