<svg width="20" height="16" viewBox="0 0 20 16" fill="none" xmlns="http://www.w3.org/2000/svg">
<g clip-path="url(#clip0_1383_654)">
<path d="M9.99102 0H10.0203C10.3145 0.0127258 10.5488 0.0598586 10.7234 0.140456C11.0793 0.30542 11.434 0.472742 11.7883 0.642419C14.3926 1.88861 16.9969 3.13433 19.6016 4.37958C19.8316 4.48987 19.9645 4.67981 20 4.94894V5.09034C19.9578 5.35381 19.8242 5.53904 19.5996 5.6465C16.8824 6.94595 14.1594 8.24729 11.4309 9.55051C11.0004 9.75648 10.7574 9.86913 10.7016 9.88845C10.1535 10.0822 9.60352 10.0468 9.05156 9.78287C6.94297 8.7747 4.84727 7.77219 2.76445 6.77533C2.74531 6.76638 2.73555 6.77392 2.73555 6.7989V10.38C2.73555 10.4046 2.74531 10.4276 2.76211 10.4418C3.31719 10.9178 3.32344 11.86 2.83477 12.3936C2.81641 12.4138 2.80938 12.4374 2.81367 12.4643C2.92773 13.1359 3.04414 13.8071 3.16328 14.4768C3.19531 14.6564 3.20352 14.8124 3.18789 14.9444C3.16406 15.1466 3.09258 15.3243 2.97344 15.4775C2.825 15.6693 2.63047 15.773 2.38945 15.7895H1.91211C1.70625 15.7744 1.53555 15.6943 1.4 15.5496C1.15195 15.2852 1.06641 14.9354 1.14336 14.5013C1.2668 13.8061 1.38555 13.1227 1.5 12.4515C1.50313 12.4336 1.49766 12.4148 1.48594 12.403C1.24844 12.1617 1.11094 11.8006 1.12031 11.425C1.13047 11.0163 1.27578 10.685 1.55625 10.4305C1.56602 10.4215 1.57188 10.4074 1.57188 10.3928V6.23378C1.57188 6.21822 1.56602 6.20738 1.55391 6.20173C1.14922 6.00424 0.745313 5.81005 0.341797 5.61917C0.153125 5.53009 0.0394531 5.35192 0 5.08562V4.93716C0.0304687 4.7359 0.107422 4.58272 0.23125 4.47808C0.266016 4.44886 0.394141 4.38146 0.615625 4.27541C3.43828 2.926 6.26094 1.57706 9.0832 0.228123C9.38086 0.0857816 9.68359 0.00989788 9.99102 0Z" fill="white"/>
<path d="M10.4752 15.5778C9.18375 15.6278 7.89625 15.4812 6.6693 15.0613C6.15563 14.8855 5.67789 14.6569 5.23649 14.3745C4.65602 14.0031 3.97789 13.3815 3.82282 12.5816C3.79039 12.4157 3.77477 12.1975 3.77594 11.9269C3.78024 10.6727 3.78063 9.48028 3.7775 8.34863C3.7775 8.3359 3.78805 8.32695 3.79782 8.33166C5.44743 9.12066 7.09508 9.90872 8.74039 10.6954C9.57946 11.0965 10.4162 11.0979 11.2506 10.6991C12.9728 9.87573 14.6213 9.0872 16.1966 8.33354C16.208 8.32789 16.2205 8.33826 16.2205 8.35334C16.2209 9.58162 16.2209 10.8542 16.2205 12.1706C16.2197 13.2999 15.2709 14.1035 14.4763 14.5489C13.2599 15.2309 11.8423 15.5251 10.4752 15.5778Z" fill="white"/>
</g>
<defs>
<clipPath id="clip0_1383_654">
<rect width="20" height="15.7895" fill="white"/>
</clipPath>
</defs>
</svg>
