<svg width="23" height="23" viewBox="0 0 23 23" fill="none" xmlns="http://www.w3.org/2000/svg">
<path d="M20.55 5.68936C20.4777 6.77423 19.7334 7.75532 18.7837 8.24632C18.0133 8.64432 17.1998 8.72833 16.3422 8.49833C16.1818 8.45565 16.0147 8.40534 15.8418 8.34739C15.8198 8.33975 15.8081 8.32493 15.8058 8.30202C15.6823 6.99659 15.013 5.8102 13.8329 5.19163C13.8104 5.17995 13.7969 5.15659 13.7974 5.13143C13.8643 2.42309 17.0461 0.928092 19.1961 2.52506C19.9261 3.06727 20.3654 3.78198 20.5141 4.66919C20.5635 4.96522 20.5756 5.30528 20.55 5.68936Z" fill="white"/>
<path d="M9.03445 5.47778C8.14724 6.09141 7.62031 7.09047 7.48015 8.16635C7.47791 8.18342 7.46802 8.19825 7.4532 8.20723C7.25599 8.32627 7.04127 8.41702 6.80857 8.47901C6.0988 8.66858 5.43666 8.67307 4.82212 8.49203C3.59845 8.13176 2.59265 7.11473 2.35232 5.85692C2.15556 4.82911 2.52302 3.75008 3.26468 3.02414C4.68961 1.62932 6.96984 1.66975 8.27662 3.21147C8.81433 3.84576 9.07353 4.58877 9.05511 5.44049C9.05466 5.45621 9.04748 5.46879 9.03445 5.47778Z" fill="white"/>
<path d="M12.9747 5.61119C14.0614 6.09859 14.8004 7.11787 14.9297 8.28359C14.958 8.53785 14.9652 8.7966 14.9504 9.05984C14.901 9.95378 14.4199 10.801 13.7258 11.3419C12.5359 12.2695 10.9461 12.3319 9.71611 11.4353C8.87158 10.8199 8.35408 9.86035 8.21347 8.82265C8.19595 8.69238 8.19146 8.56211 8.19999 8.43183C8.35498 6.095 10.8836 4.67412 12.9747 5.61119Z" fill="white"/>
<path d="M0 16.6274V12.7439C0.0682812 11.9366 0.343203 11.2197 0.824316 10.593C1.59023 9.59531 2.59693 9.00369 3.84396 8.81862C4.08969 8.78223 4.38437 8.76471 4.72758 8.76651C5.64174 8.77145 6.55141 8.7719 7.45748 8.76785C7.46871 8.76785 7.47769 8.77684 7.47725 8.78807C7.47141 9.92459 7.96195 10.8486 8.75482 11.6258C8.76291 11.6339 8.76066 11.6478 8.74988 11.6518C8.6816 11.6797 8.61377 11.7183 8.54459 11.7403C8.35996 11.7987 8.19465 11.8639 8.04955 11.9357C6.63406 12.6356 5.70148 13.7394 5.25137 15.2474C5.12873 15.6598 5.03889 16.0155 5.03484 16.4796C5.0308 16.8731 5.0299 17.2671 5.0317 17.6615C5.0317 17.6727 5.02227 17.6821 5.01103 17.6817C4.91984 17.6795 4.82191 17.6714 4.71635 17.6583C4.31205 17.608 3.9073 17.5618 3.50256 17.5191C3.08658 17.4751 2.55695 17.3816 1.91367 17.2392C1.33957 17.1116 0.767266 16.9751 0.196758 16.83C0.156328 16.8197 0.120391 16.7976 0.0889453 16.7648C0.0507617 16.7249 0.0211133 16.679 0 16.6274Z" fill="white"/>
<path d="M23.0002 13.0512V16.2276C22.9903 16.3102 22.9548 16.3619 22.8937 16.3826C22.851 16.3974 22.8281 16.405 22.8259 16.4064C21.9395 16.8228 20.9984 17.1121 20.0021 17.2738C19.6274 17.3345 19.1935 17.3911 18.7002 17.4436C18.5057 17.4643 18.317 17.4948 18.1342 17.5357C18.1234 17.5379 18.1131 17.5299 18.1131 17.5186C18.1135 16.9203 18.1383 16.3071 18.0547 15.7352C17.9325 14.8961 17.6041 14.1149 17.07 13.3921C16.5435 12.6805 15.695 12.1541 14.8801 11.8185C14.7628 11.7704 14.6905 11.6743 14.5611 11.6509C14.5346 11.646 14.5315 11.6348 14.5517 11.6172C15.3787 10.8962 15.7992 9.95469 15.8127 8.79256C15.8127 8.77683 15.8207 8.76875 15.8365 8.7692C16.6644 8.77055 17.5282 8.7701 18.428 8.76785C18.8377 8.76695 19.2043 8.7975 19.5277 8.85994C20.9477 9.13351 21.9324 10.071 22.5581 11.3356C22.8155 11.8549 22.9629 12.4267 23.0002 13.0512Z" fill="white"/>
<path d="M13.5577 12.2583C14.7073 12.3944 15.6969 13.0022 16.4592 13.8647C17.089 14.5767 17.3747 15.6166 17.3909 16.5852C17.4116 17.821 17.3608 19.0073 17.2382 20.1448C17.2359 20.1695 17.2274 20.1915 17.2135 20.2113C17.2009 20.2292 17.1798 20.2431 17.1506 20.2535C16.4974 20.4803 15.8698 20.6722 15.2679 20.8294C14.3757 21.0625 13.493 21.1048 12.5218 21.1227C11.4864 21.1416 10.6171 21.1447 9.63917 20.9969C9.03677 20.9057 8.44874 20.7898 7.87509 20.6492C7.40341 20.5342 6.90927 20.4148 6.39222 20.2903C6.17165 20.2373 5.96501 20.1807 5.77185 20.1201C5.75702 20.1156 5.75029 20.1057 5.75163 20.0904C5.84148 19.0532 5.81991 18.0573 5.83204 16.9948C5.83699 16.5708 5.86214 16.0973 5.93761 15.6966C6.14021 14.6225 6.68331 13.7659 7.56693 13.1271C8.25917 12.6262 9.02015 12.3324 9.84941 12.2448C10.0673 12.2219 10.3665 12.212 10.7469 12.2156C11.3705 12.2214 12.0052 12.2219 12.6507 12.217C13.0007 12.2143 13.303 12.2282 13.5577 12.2583Z" fill="white"/>
</svg>
