<svg width="12" height="17" viewBox="0 0 12 17" fill="none" xmlns="http://www.w3.org/2000/svg">
<path d="M10.2609 9.9914C9.52342 10.8582 9.18006 11.9394 9.03749 13.1238C9.01991 13.2687 8.9203 13.3816 8.76717 13.3816C6.8621 13.3824 5.01288 13.3824 3.2203 13.382C3.05077 13.3816 2.96327 13.2531 2.94452 13.0996C2.79725 11.8785 2.441 10.8102 1.63866 9.87929C1.43749 9.64609 1.24257 9.41289 1.0535 9.1789C0.461706 8.44687 0.2328 7.62578 0.183581 6.67265C0.147643 5.97695 0.199206 5.32617 0.380456 4.6832C0.714831 3.49961 1.35467 2.51562 2.30038 1.73164C3.9703 0.346874 6.29295 0.0179681 8.2871 0.869921C9.2578 1.28437 10.1344 1.98125 10.7508 2.85781C11.5094 3.93672 11.8676 5.14297 11.825 6.47656C11.7937 7.4539 11.5957 8.36953 10.9785 9.13672C10.8672 9.27461 10.6281 9.55976 10.2609 9.9914ZM4.19842 1.25508C3.38163 1.55234 2.6785 2.025 2.08866 2.67344C1.41678 3.41172 0.986315 4.27812 0.797643 5.27265C0.729284 5.63359 0.699206 6.02851 0.707409 6.45781C0.709362 6.55703 0.716003 6.65508 0.728112 6.75195C0.73944 6.84492 0.749597 6.94023 0.758972 7.03828C0.7703 7.16133 0.799597 7.32422 0.846472 7.52617C0.964831 8.03906 1.19647 8.50664 1.54061 8.9289C1.70819 9.13476 1.88749 9.34961 2.07811 9.57383C2.47108 10.0355 2.79335 10.5352 3.01561 11.102C3.18827 11.5422 3.31444 12 3.39413 12.4746C3.41366 12.5918 3.43397 12.7066 3.45507 12.8191C3.45741 12.8309 3.46756 12.8394 3.47967 12.8394H8.51756C8.52967 12.8394 8.53631 12.8336 8.53788 12.8215C8.66795 11.7969 8.99999 10.7609 9.616 9.95195C9.80467 9.7039 10.0086 9.45547 10.2277 9.20586C10.3508 9.06562 10.4707 8.91523 10.5871 8.75547C11.1348 8.00234 11.293 7.14648 11.2879 6.20469C11.2863 5.9289 11.266 5.66875 11.2265 5.42422C11.0453 4.3 10.5586 3.33281 9.76678 2.52226C9.04608 1.78398 8.12186 1.27539 7.12421 1.05898C6.91756 1.01406 6.70038 0.979687 6.47264 0.956249C6.4121 0.949999 6.35116 0.945312 6.28983 0.941796C5.5785 0.901952 4.88163 1.00625 4.19842 1.25508Z" fill="white"/>
<path d="M4.19839 1.25508C4.88159 1.00625 5.57847 0.901956 6.2898 0.9418C6.35112 0.945315 6.41206 0.950003 6.47261 0.956253C6.70034 0.97969 6.91753 1.01407 7.12417 1.05899C8.12183 1.27539 9.04605 1.78399 9.76675 2.52227C10.5585 3.33281 11.0453 4.3 11.2265 5.42422C11.266 5.66875 11.2863 5.92891 11.2878 6.20469C11.2929 7.14649 11.1347 8.00235 10.5871 8.75547C10.4707 8.91524 10.3507 9.06563 10.2277 9.20586C10.0085 9.45547 9.80464 9.70391 9.61597 9.95196C8.99995 10.7609 8.66792 11.7969 8.53784 12.8215C8.53628 12.8336 8.52964 12.8395 8.51753 12.8395H3.47964C3.46753 12.8395 3.45737 12.8309 3.45503 12.8191C3.43394 12.7066 3.41362 12.5918 3.39409 12.4746C3.3144 12 3.18823 11.5422 3.01558 11.102C2.79331 10.5352 2.47105 10.0355 2.07808 9.57383C1.88745 9.34961 1.70815 9.13477 1.54058 8.92891C1.19644 8.50664 0.964795 8.03906 0.846435 7.52617C0.79956 7.32422 0.770264 7.16133 0.758936 7.03828C0.749561 6.94024 0.739404 6.84492 0.728076 6.75195C0.715967 6.65508 0.709326 6.55703 0.707373 6.45781C0.69917 6.02852 0.729248 5.6336 0.797607 5.27266C0.986279 4.27813 1.41675 3.41172 2.08862 2.67344C2.67847 2.025 3.38159 1.55235 4.19839 1.25508ZM9.2523 4.29922C9.4562 4.15586 9.58315 3.97188 9.63276 3.74766C9.79683 3.00742 9.0773 2.45391 8.39956 2.71328C8.22534 2.78008 8.0894 2.89102 7.99214 3.0461C7.98237 3.06133 7.9687 3.07031 7.95112 3.07305C7.75776 3.10391 7.573 3.13906 7.39097 3.20117C6.93979 3.35547 6.48745 3.58906 6.03394 3.90196C6.00894 3.91914 5.98433 3.91914 5.95972 3.90156C5.3769 3.49102 4.67612 3.14141 3.96401 3.07969C3.83706 3.06875 3.70503 3.07617 3.5687 3.10235C2.95112 3.2211 2.72065 3.71289 2.76792 4.30196C2.78706 4.54141 2.8437 4.7832 2.93745 5.02774C3.10815 5.47344 3.32886 5.8836 3.59878 6.25899C3.6148 6.28125 3.61519 6.31094 3.59917 6.3332C3.34839 6.68438 3.1394 7.06524 2.97222 7.47657C2.87339 7.71992 2.80894 7.95821 2.77847 8.1918C2.69995 8.79688 2.88589 9.33633 3.53081 9.48711C3.68472 9.52305 3.83315 9.5336 3.97651 9.51836C4.35894 9.47813 4.73198 9.3707 5.09644 9.19688C5.39839 9.05313 5.69214 8.8832 5.97769 8.68672C5.99097 8.67774 6.00894 8.67774 6.02222 8.68711C6.39136 8.94766 6.7894 9.1625 7.21597 9.33164C7.45386 9.42578 7.69448 9.48828 7.93784 9.51914C8.09487 9.53906 8.24566 9.53555 8.39019 9.50938C8.81011 9.4332 9.07612 9.19141 9.18823 8.78477C9.25386 8.54688 9.23511 8.2457 9.18003 7.99336C9.05191 7.40703 8.74566 6.83399 8.39175 6.30703C8.38472 6.2961 8.38472 6.28203 8.39214 6.2711C8.7312 5.775 9.01675 5.2332 9.16597 4.65196C9.19331 4.5461 9.19565 4.43516 9.22769 4.33281C9.23198 4.31875 9.24019 4.30742 9.2523 4.29922Z" fill="white"/>
<path d="M9.22783 4.33281C9.1958 4.43516 9.19346 4.54609 9.16611 4.65195C9.01689 5.2332 8.73135 5.775 8.39228 6.27109C8.38486 6.28203 8.38486 6.29609 8.39189 6.30703C8.7458 6.83398 9.05205 7.40703 9.18018 7.99336C9.23525 8.2457 9.254 8.54687 9.18838 8.78476C9.07627 9.19141 8.81025 9.4332 8.39033 9.50937C8.2458 9.53555 8.09502 9.53906 7.93799 9.51914C7.69463 9.48828 7.454 9.42578 7.21611 9.33164C6.78955 9.1625 6.3915 8.94766 6.02236 8.68711C6.00908 8.67773 5.99111 8.67773 5.97783 8.68672C5.69228 8.8832 5.39853 9.05312 5.09658 9.19687C4.73213 9.3707 4.35908 9.47812 3.97666 9.51836C3.8333 9.53359 3.68486 9.52305 3.53096 9.48711C2.88603 9.33633 2.7001 8.79687 2.77861 8.1918C2.80908 7.9582 2.87353 7.71992 2.97236 7.47656C3.13955 7.06523 3.34853 6.68437 3.59932 6.3332C3.61533 6.31094 3.61494 6.28125 3.59893 6.25898C3.329 5.88359 3.1083 5.47344 2.9376 5.02773C2.84385 4.7832 2.78721 4.54141 2.76807 4.30195C2.7208 3.71289 2.95127 3.22109 3.56885 3.10234C3.70518 3.07617 3.83721 3.06875 3.96416 3.07969C4.67627 3.14141 5.37705 3.49101 5.95986 3.90156C5.98447 3.91914 6.00908 3.91914 6.03408 3.90195C6.4876 3.58906 6.93994 3.35547 7.39111 3.20117C7.57314 3.13906 7.75791 3.10391 7.95127 3.07305C7.96885 3.07031 7.98252 3.06133 7.99229 3.04609C8.08955 2.89102 8.22549 2.78008 8.39971 2.71328C9.07744 2.45391 9.79697 3.00742 9.63291 3.74766C9.5833 3.97187 9.45635 4.15586 9.25244 4.29922C9.24033 4.30742 9.23213 4.31875 9.22783 4.33281ZM8.70947 3.91133C8.77627 3.93203 8.8376 3.925 8.89424 3.89023C9.05596 3.79023 9.1251 3.65117 9.10166 3.47266C9.06846 3.21875 8.76064 3.12539 8.56143 3.24336C8.41143 3.33242 8.34111 3.52305 8.40322 3.68437C8.45635 3.82266 8.58018 3.8707 8.70947 3.91133ZM4.7126 3.81758C4.50869 3.72578 4.27978 3.65586 4.02588 3.60742C3.88174 3.57969 3.72236 3.58984 3.58799 3.64492C3.454 3.7 3.36963 3.80156 3.33486 3.95C3.29932 4.10117 3.30283 4.2707 3.34619 4.45859C3.45635 4.93516 3.68252 5.37578 3.94229 5.79141C3.95518 5.81172 3.98408 5.81328 3.99893 5.79453C4.43994 5.24297 4.94111 4.74219 5.50205 4.29258C5.52002 4.27812 5.51846 4.25039 5.49893 4.23828C5.25088 4.08164 4.98877 3.94141 4.7126 3.81758ZM6.7915 4.06523C6.69463 4.12148 6.59893 4.17734 6.50479 4.23242C6.48213 4.2457 6.47978 4.27773 6.50049 4.29414C7.0583 4.74141 7.56025 5.2418 8.00635 5.7957C8.02158 5.81484 8.05127 5.81289 8.06416 5.7918C8.3165 5.37734 8.53916 4.94883 8.65322 4.48203C8.65713 4.46601 8.65088 4.45664 8.63486 4.45351C8.19502 4.36875 7.93018 4.10391 7.84072 3.65898C7.83799 3.64453 7.829 3.63906 7.81455 3.64258C7.45205 3.73906 7.11104 3.87969 6.7915 4.06523ZM4.31689 6.32891C4.81064 6.95391 5.36025 7.50391 5.96611 7.97891C5.98525 7.99414 6.01221 7.99414 6.03135 7.9793C6.64971 7.49766 7.19853 6.94883 7.67744 6.3332C7.69463 6.31133 7.69463 6.28047 7.67744 6.25859C7.19111 5.64297 6.64189 5.09609 6.03017 4.61758C6.01103 4.60273 5.98447 4.60273 5.96572 4.61758C5.35518 5.0957 4.80557 5.64492 4.31689 6.26484C4.30205 6.28359 4.30205 6.31016 4.31689 6.32891ZM3.94697 6.80078C3.64775 7.27422 3.36846 7.81601 3.30322 8.34766C3.28799 8.47266 3.30361 8.59336 3.34971 8.71016C3.48291 9.04844 3.92744 9.01406 4.20908 8.94609C4.66572 8.83594 5.09307 8.6125 5.5001 8.35469C5.51846 8.34297 5.52002 8.3168 5.50283 8.30312C4.95049 7.8625 4.44775 7.36094 3.99463 6.79805C3.98213 6.78242 3.95791 6.78398 3.94697 6.80078ZM8.58213 7.87305C8.45557 7.49414 8.26885 7.1418 8.05791 6.80078C8.04541 6.78086 8.01689 6.7793 8.00205 6.79766C7.55869 7.35117 7.05635 7.85312 6.49541 8.30312C6.47939 8.31601 6.48057 8.34101 6.49814 8.35195C6.84228 8.57031 7.17939 8.74102 7.51025 8.86445C7.68291 8.92852 7.87666 8.97969 8.06143 8.99766C8.19463 9.01055 8.31846 8.99062 8.4333 8.9375C8.81338 8.76172 8.68447 8.17969 8.58213 7.87305Z" fill="black"/>
<path d="M8.7092 3.91132C8.5799 3.8707 8.45608 3.82265 8.40295 3.68437C8.34084 3.52304 8.41116 3.33242 8.56116 3.24336C8.76037 3.12539 9.06819 3.21875 9.10139 3.47265C9.12483 3.65117 9.05569 3.79023 8.89397 3.89023C8.83733 3.925 8.776 3.93203 8.7092 3.91132Z" fill="white"/>
<path d="M4.71247 3.81758C4.98864 3.9414 5.25075 4.08164 5.4988 4.23828C5.51833 4.25039 5.51989 4.27812 5.50192 4.29258C4.94098 4.74218 4.43981 5.24297 3.9988 5.79453C3.98395 5.81328 3.95505 5.81172 3.94216 5.7914C3.68239 5.37578 3.45622 4.93515 3.34606 4.45859C3.3027 4.2707 3.29919 4.10117 3.33473 3.95C3.3695 3.80156 3.45388 3.7 3.58786 3.64492C3.72223 3.58984 3.88161 3.57968 4.02575 3.60742C4.27966 3.65586 4.50856 3.72578 4.71247 3.81758Z" fill="white"/>
<path d="M6.79155 4.06524C7.11108 3.87969 7.4521 3.73906 7.8146 3.64258C7.82905 3.63906 7.83803 3.64453 7.84077 3.65899C7.93022 4.10391 8.19507 4.36875 8.63491 4.45352C8.65093 4.45664 8.65718 4.46602 8.65327 4.48203C8.53921 4.94883 8.31655 5.37735 8.06421 5.7918C8.05132 5.81289 8.02163 5.81485 8.00639 5.7957C7.5603 5.2418 7.05835 4.74141 6.50053 4.29414C6.47983 4.27774 6.48218 4.2457 6.50483 4.23242C6.59897 4.17735 6.69468 4.12149 6.79155 4.06524Z" fill="white"/>
<path d="M4.3168 6.32891C4.30195 6.31016 4.30195 6.28359 4.3168 6.26484C4.80547 5.64492 5.35508 5.0957 5.96562 4.61758C5.98437 4.60273 6.01094 4.60273 6.03008 4.61758C6.6418 5.09609 7.19102 5.64297 7.67734 6.25859C7.69453 6.28047 7.69453 6.31133 7.67734 6.3332C7.19844 6.94883 6.64961 7.49766 6.03125 7.9793C6.01211 7.99414 5.98516 7.99414 5.96602 7.97891C5.36016 7.50391 4.81055 6.95391 4.3168 6.32891ZM6.90508 6.29844C6.90508 5.79805 6.49961 5.39258 5.99922 5.39258C5.49883 5.39258 5.09336 5.79805 5.09336 6.29844C5.09336 6.79883 5.49883 7.2043 5.99922 7.2043C6.49961 7.2043 6.90508 6.79883 6.90508 6.29844Z" fill="white"/>
<path d="M6.90498 6.29844C6.90498 6.79883 6.49951 7.2043 5.99912 7.2043C5.49873 7.2043 5.09326 6.79883 5.09326 6.29844C5.09326 5.79805 5.49873 5.39258 5.99912 5.39258C6.49951 5.39258 6.90498 5.79805 6.90498 6.29844ZM6.3624 6.29609C6.3624 6.09492 6.19951 5.93203 5.99834 5.93203C5.79717 5.93203 5.63428 6.09492 5.63428 6.29609C5.63428 6.49727 5.79717 6.66016 5.99834 6.66016C6.19951 6.66016 6.3624 6.49727 6.3624 6.29609Z" fill="black"/>
<path d="M5.99834 6.66015C6.19941 6.66015 6.3624 6.49716 6.3624 6.29609C6.3624 6.09503 6.19941 5.93203 5.99834 5.93203C5.79727 5.93203 5.63428 6.09503 5.63428 6.29609C5.63428 6.49716 5.79727 6.66015 5.99834 6.66015Z" fill="white"/>
<path d="M3.30301 8.34765C3.36824 7.81601 3.64754 7.27422 3.94676 6.80078C3.9577 6.78398 3.98192 6.78242 3.99442 6.79805C4.44754 7.36094 4.95028 7.8625 5.50262 8.30312C5.51981 8.31679 5.51824 8.34297 5.49988 8.35469C5.09285 8.6125 4.66551 8.83594 4.20887 8.94609C3.92723 9.01406 3.4827 9.04844 3.34949 8.71015C3.3034 8.59336 3.28778 8.47265 3.30301 8.34765Z" fill="white"/>
<path d="M8.58188 7.87305C8.68422 8.17969 8.81313 8.76172 8.43305 8.9375C8.31821 8.99063 8.19438 9.01055 8.06118 8.99766C7.87641 8.97969 7.68266 8.92852 7.51 8.86446C7.17914 8.74102 6.84203 8.57032 6.49789 8.35196C6.48032 8.34102 6.47914 8.31602 6.49516 8.30313C7.0561 7.85313 7.55844 7.35118 8.0018 6.79766C8.01664 6.7793 8.04516 6.78086 8.05766 6.80078C8.2686 7.1418 8.45532 7.49414 8.58188 7.87305Z" fill="white"/>
<path d="M8.27851 13.9039L3.7207 13.8959C3.58263 13.8957 3.47051 14.0074 3.47027 14.1455L3.47021 14.1807C3.46996 14.3187 3.5817 14.4309 3.71977 14.4311L8.27757 14.439C8.41565 14.4393 8.52777 14.3276 8.52801 14.1895L8.52807 14.1543C8.52831 14.0163 8.41658 13.9041 8.27851 13.9039Z" fill="white"/>
<path d="M7.76699 15.0444H4.23184C4.09355 15.0444 3.98145 15.1565 3.98145 15.2948V15.3214C3.98145 15.4597 4.09355 15.5718 4.23184 15.5718H7.76699C7.90528 15.5718 8.01738 15.4597 8.01738 15.3214V15.2948C8.01738 15.1565 7.90528 15.0444 7.76699 15.0444Z" fill="white"/>
<path d="M7.40245 16.7136H4.5837C4.39035 16.6429 4.33175 16.5124 4.40753 16.3218C4.44386 16.23 4.5255 16.1843 4.65245 16.1843C5.54347 16.1839 6.44972 16.1839 7.3712 16.1843C7.52902 16.1847 7.6216 16.3128 7.61613 16.4675C7.61183 16.5937 7.54074 16.6757 7.40245 16.7136Z" fill="white"/>
</svg>
