<svg width="100" height="135" viewBox="0 0 100 135" fill="none" xmlns="http://www.w3.org/2000/svg">
<rect x="25.5" y="28.5" width="48" height="24" rx="3.5" stroke="black" stroke-width="3"/>
<circle cx="50" cy="85" r="47.5" fill="#EEDC1B" stroke="black" stroke-width="5"/>
<circle cx="50" cy="85" r="37.5" fill="#FFB35F" stroke="black" stroke-width="5"/>
<mask id="path-4-outside-1_4_19" maskUnits="userSpaceOnUse" x="36" y="59" width="24" height="50" fill="black">
<rect fill="white" x="36" y="59" width="24" height="50"/>
<path d="M48.256 104V72.072C47.268 72.332 46.306 72.5747 45.37 72.8C44.4513 73.0253 43.5067 73.2333 42.536 73.424L41.86 69.836C42.692 69.5933 43.5933 69.264 44.564 68.848C45.552 68.432 46.514 67.9813 47.45 67.496C48.4033 67.0107 49.2527 66.534 49.998 66.066C50.7433 65.5807 51.3067 65.1733 51.688 64.844L54.444 65.312V104H48.256Z"/>
</mask>
<path d="M48.256 104V72.072C47.268 72.332 46.306 72.5747 45.37 72.8C44.4513 73.0253 43.5067 73.2333 42.536 73.424L41.86 69.836C42.692 69.5933 43.5933 69.264 44.564 68.848C45.552 68.432 46.514 67.9813 47.45 67.496C48.4033 67.0107 49.2527 66.534 49.998 66.066C50.7433 65.5807 51.3067 65.1733 51.688 64.844L54.444 65.312V104H48.256Z" fill="#EEDC1B"/>
<path d="M48.256 104H43.256V109H48.256V104ZM48.256 72.072H53.256V65.586L46.9835 67.2366L48.256 72.072ZM45.37 72.8L44.1997 67.9389L44.1893 67.9414L44.1789 67.9439L45.37 72.8ZM42.536 73.424L37.6224 74.3497L38.5554 79.3015L43.4997 78.3302L42.536 73.424ZM41.86 69.836L40.46 65.036L36.1069 66.3057L36.9464 70.7617L41.86 69.836ZM44.564 68.848L42.6237 64.2398L42.609 64.246L42.5944 64.2523L44.564 68.848ZM47.45 67.496L45.1816 63.0402L45.165 63.0486L45.1484 63.0572L47.45 67.496ZM49.998 66.066L52.6568 70.3004L52.6918 70.2785L52.7264 70.256L49.998 66.066ZM51.688 64.844L52.5251 59.9146L50.2027 59.5202L48.4199 61.0599L51.688 64.844ZM54.444 65.312H59.444V61.0895L55.2811 60.3826L54.444 65.312ZM54.444 104V109H59.444V104H54.444ZM53.256 104V72.072H43.256V104H53.256ZM46.9835 67.2366C46.0275 67.4882 45.0996 67.7223 44.1997 67.9389L46.5403 77.6611C47.5124 77.4271 48.5085 77.1758 49.5285 76.9074L46.9835 67.2366ZM44.1789 67.9439C43.339 68.15 42.4702 68.3414 41.5723 68.5178L43.4997 78.3302C44.5431 78.1253 45.5637 77.9007 46.5611 77.6561L44.1789 67.9439ZM47.4496 72.4983L46.7736 68.9103L36.9464 70.7617L37.6224 74.3497L47.4496 72.4983ZM43.26 74.636C44.3222 74.3262 45.4158 73.9228 46.5336 73.4437L42.5944 64.2523C41.7708 64.6052 41.0618 64.8605 40.46 65.036L43.26 74.636ZM46.5043 73.4562C47.6129 72.9894 48.6955 72.4824 49.7516 71.9348L45.1484 63.0572C44.3325 63.4803 43.4911 63.8746 42.6237 64.2398L46.5043 73.4562ZM49.7184 71.9518C50.7779 71.4124 51.7612 70.8628 52.6568 70.3004L47.3392 61.8316C46.7441 62.2052 46.0288 62.6089 45.1816 63.0402L49.7184 71.9518ZM52.7264 70.256C53.5412 69.7254 54.3226 69.1752 54.9561 68.6281L48.4199 61.0599C48.2907 61.1714 47.9455 61.4359 47.2696 61.876L52.7264 70.256ZM50.8509 69.7734L53.6069 70.2414L55.2811 60.3826L52.5251 59.9146L50.8509 69.7734ZM49.444 65.312V104H59.444V65.312H49.444ZM54.444 99H48.256V109H54.444V99Z" fill="black" mask="url(#path-4-outside-1_4_19)"/>
<path d="M15.2201 1.5H36.4248C37.4001 1.5 38.3312 1.90695 38.9936 2.62277L62.1292 27.6228C64.203 29.8637 62.6136 33.5 59.5604 33.5H40.656C39.7382 33.5 38.8571 33.1395 38.2026 32.4962L12.7667 7.49617C10.5325 5.30019 12.0874 1.5 15.2201 1.5Z" fill="#D71D1E" stroke="black" stroke-width="3"/>
<path d="M85.7799 1.5H64.5752C63.5999 1.5 62.6688 1.90695 62.0064 2.62277L38.8708 27.6228C36.797 29.8637 38.3864 33.5 41.4396 33.5H60.344C61.2618 33.5 62.1429 33.1395 62.7974 32.4962L88.2333 7.49617C90.4675 5.30019 88.9126 1.5 85.7799 1.5Z" fill="#D84138" stroke="black" stroke-width="3"/>
</svg>
