<svg width="12" height="16" viewBox="0 0 12 16" fill="none" xmlns="http://www.w3.org/2000/svg">
<path d="M3.27175 3.68313C3.47738 4.29719 3.73394 4.89656 4.04144 5.48063C4.63206 6.60313 5.36487 7.65125 6.20425 8.6125C6.90894 9.41938 7.7155 10.19 8.62394 10.9247C8.93331 11.175 9.30581 11.4338 9.56956 11.6716C9.99144 12.0525 10.3621 12.5341 10.6621 13.0241C10.683 13.0578 10.7039 13.0578 10.7252 13.0244C10.8671 12.8016 10.9896 12.5716 11.093 12.335C11.2546 11.9644 11.3858 11.5944 11.4861 11.2253C11.6305 10.695 11.7127 10.1609 11.733 9.6225C11.7671 8.71531 11.6196 7.85344 11.2899 7.03719C11.0855 6.53063 10.8164 6.05188 10.4827 5.60125C9.48425 4.25219 8.05863 3.29281 6.56488 2.56063C6.45769 2.50813 6.25519 2.41563 5.95738 2.28313C5.46988 2.06688 4.97925 1.89031 4.498 1.69656C4.27269 1.60563 4.013 1.47281 3.71956 1.29781C3.10738 0.9325 2.53831 0.505 2.01237 0.015C2.00175 0.00499997 1.98487 0.00718747 1.97738 0.019375C1.12706 1.37219 0.589875 2.85031 0.3655 4.45406C0.262688 5.19031 0.23675 5.90094 0.288 6.58594C0.303937 6.79656 0.329875 7.03813 0.366125 7.31063C0.398624 7.555 0.467375 7.84563 0.572062 8.18281C0.833937 9.02563 1.22644 9.81125 1.74956 10.5394C1.8805 10.7216 2.008 10.885 2.13144 11.0297C3.34425 12.4494 4.90144 13.2678 6.803 13.4844C7.52112 13.5659 8.2555 13.5419 8.99613 13.4666C9.00269 13.4659 9.00894 13.4688 9.01238 13.4744C9.24581 13.8503 9.44144 14.2566 9.56144 14.6756C9.58425 14.7553 9.60894 14.8375 9.6355 14.9219C9.70644 15.1478 9.74238 15.3884 9.78831 15.6241C9.78956 15.6319 9.79519 15.6384 9.803 15.6406C10.1239 15.7391 10.4483 15.8563 10.7764 15.9925C10.7905 15.9984 10.7961 15.9938 10.7939 15.9788C10.6911 15.3428 10.5327 14.7175 10.3189 14.1022C10.1858 13.7188 10.0224 13.3488 9.82894 12.9916C9.57519 12.5238 9.25894 12.1091 8.83988 11.7978C8.66019 11.6644 8.47706 11.5309 8.30144 11.3909C7.70988 10.9203 7.16675 10.4088 6.67175 9.85625C6.40675 9.56031 6.14081 9.24282 5.898 8.92281C4.93081 7.64875 4.16456 6.24656 3.59925 4.71594C3.48175 4.39813 3.37175 4.05781 3.26956 3.695C3.26863 3.69125 3.268 3.6875 3.26831 3.68375C3.26863 3.67688 3.26956 3.67656 3.27175 3.68313Z" fill="white"/>
</svg>
