<svg width="142" height="99" viewBox="0 0 142 99" fill="none" xmlns="http://www.w3.org/2000/svg">
<path d="M83.4609 40.2899L80.7556 40.2103C80.6164 40.2103 80.4971 40.2899 80.4573 40.4092C80.0594 41.5825 79.6815 42.7756 79.2837 43.9688C79.2638 44.0284 79.2041 44.0682 79.1047 44.0881C78.9057 44.0483 78.7466 44.0682 78.6074 44.1477C77.7719 44.625 76.9364 45.0028 76.1407 45.2812C77.5531 39.7331 73.5349 40.1706 69.7953 40.2502C69.6958 40.2502 69.6362 40.3098 69.6362 40.4092C69.6362 42.6364 69.6362 44.8636 69.6561 47.051C69.6561 47.1504 69.6162 47.23 69.5367 47.2896L66.8911 47.8663L65.5583 45.9573C65.4986 45.8778 65.5385 45.7783 65.5981 45.7385C67.1298 44.8636 67.5873 43.571 66.9508 41.8807C66.175 39.7927 62.2961 40.2303 60.5854 40.2502C60.5257 40.2502 60.4859 40.2899 60.4859 40.3496L60.5257 50.352C59.2725 51.5849 58.3973 52.5196 57.9 53.1559C56.0899 55.5024 55.2942 58.2069 55.4931 61.2295C55.8312 66.3997 61.1821 67.7122 65.2003 65.8031C68.8405 64.0532 80.8352 57.4711 84.0577 61.9652C84.555 62.6612 84.8335 63.7152 84.9329 65.127C85.3507 71.7489 82.168 78.7288 77.9708 83.6804C72.5205 90.1233 65.4788 96.0293 57.0845 97.9582C52.947 98.9127 48.5906 99.4695 44.3139 98.3162C42.0661 97.6997 40.9324 96.2282 40.8727 93.8618C40.7334 85.3507 40.8329 77.1181 40.3555 68.3287C40.077 63.4964 40.7931 53.0963 33.6121 52.4997C31.3246 52.3207 30.2703 52.7582 28.2612 54.0905C26.9484 54.9456 25.6754 55.8206 24.263 56.5166C19.2105 59.0619 13.4618 62.2238 9.04586 64.0533C6.5395 65.0873 3.73476 65.7236 1.9644 63.2976C-0.14413 60.3943 0.631602 54.4683 2.10359 51.3264C3.99331 47.3095 8.92647 44.5057 12.9247 42.1791C17.46 39.5343 21.876 37.5457 26.3517 35.2787C29.972 33.4493 33.4132 30.7249 33.1148 26.4296C32.8761 22.89 30.8074 19.0719 29.7531 15.5721C28.5397 11.4955 26.3119 1.87087 32.4187 0.280016C37.869 -1.15175 43.5779 3.16341 46.3827 7.39905C48.1729 10.1234 49.3664 12.7682 49.9831 15.3533C50.9777 19.5492 51.3357 23.8445 52.5491 28.0006C53.6034 31.5999 56.0898 34.1054 59.9687 34.3043C63.4299 34.5032 66.3142 33.4492 69.2383 31.6993C73.157 29.3329 75.6633 27.8415 76.7574 27.2052C79.6815 25.495 83.0432 24.5405 86.4646 24.9581C89.5876 25.3359 90.2241 27.6625 89.6473 30.4266C88.951 33.8072 86.1662 37.8837 83.4609 40.2899ZM43.7172 46.1363C43.3392 43.0142 44.851 40.9064 48.2326 42.4773C48.3519 42.537 48.4315 42.4972 48.4912 42.3779L49.0084 41.0257C49.0482 40.9262 49.0084 40.7871 48.8891 40.7473C43.9559 38.4406 40.4947 42.4574 41.7479 47.23C42.5635 50.4117 45.945 50.889 48.6702 49.8151C48.7299 49.7952 48.7498 49.7356 48.7498 49.6958L48.71 48.1248C48.71 48.0652 48.6901 48.0652 48.6305 48.0652C46.5816 48.6816 44.0752 49.0794 43.7172 46.1363ZM56.0302 47.8067C56.0899 47.8067 56.1496 47.8464 56.1694 47.9061L56.8059 50.0338C56.8258 50.0935 56.8855 50.1333 56.9452 50.1333L58.8946 50.1532C58.9941 50.1532 59.0736 50.0537 59.0338 49.9543L55.6522 40.2899C55.6324 40.2302 55.5727 40.1905 55.513 40.1905H53.1658C53.1061 40.1905 53.0464 40.2302 53.0265 40.2899L49.6449 49.9742C49.6051 50.0736 49.6847 50.1731 49.7841 50.1731L51.7336 50.1532C51.7932 50.1532 51.8529 50.1134 51.8728 50.0538L52.5292 47.926C52.5491 47.8663 52.6088 47.8266 52.6685 47.8266L56.0302 47.8067Z" fill="white"/>
<path d="M48.2528 42.4575C44.8513 40.9064 43.3595 43.0143 43.7374 46.1164C44.0955 49.0595 46.6018 48.6817 48.6705 48.0255C48.7103 48.0056 48.7501 48.0255 48.7501 48.0851L48.7899 49.6561C48.7899 49.7157 48.7501 49.7555 48.7104 49.7754C46.0051 50.8492 42.6235 50.372 41.788 47.1903C40.5547 42.4177 44.0159 38.4207 48.9291 40.7075C49.0286 40.7473 49.0883 40.8865 49.0485 40.986L48.5313 42.3382C48.4517 42.4774 48.3722 42.5171 48.2528 42.4575Z" fill="white"/>
<path d="M56.0308 47.8066L52.6492 47.8265C52.5895 47.8265 52.5299 47.8663 52.51 47.9259L51.8536 50.0537C51.8337 50.1133 51.774 50.1531 51.7143 50.1531L49.765 50.173C49.6655 50.173 49.5859 50.0736 49.6257 49.9741L53.0073 40.2898C53.0272 40.2302 53.0868 40.1904 53.1465 40.1904H55.4937C55.5534 40.1904 55.6131 40.2302 55.633 40.2898L59.0146 49.9542C59.0544 50.0536 58.9748 50.1531 58.8754 50.1531L56.9259 50.1332C56.8663 50.1332 56.8066 50.0934 56.7867 50.0338L56.1502 47.906C56.1502 47.8463 56.0905 47.8066 56.0308 47.8066ZM53.1266 45.9373C53.1067 45.997 53.1465 46.0567 53.2062 46.0567H55.5136C55.5733 46.0567 55.6131 45.997 55.5932 45.9373L54.4395 42.0795C54.4196 42 54.3002 42 54.2604 42.0795L53.1266 45.9373Z" fill="white"/>
<path d="M83.4615 40.2901C83.2427 40.5287 83.1831 40.827 83.3223 41.2048C84.297 44.0485 85.2916 46.8325 86.3061 49.5767C86.3857 49.7955 86.3061 49.9148 86.0674 49.9148H84.8937C84.655 49.9148 84.4561 49.7557 84.3964 49.5369L83.8793 47.9063C83.8196 47.7472 83.6804 47.6279 83.5013 47.6279H80.259C80.0998 47.6279 79.9407 47.7274 79.9009 47.8864L79.3241 49.5767C79.2445 49.7955 79.0456 49.9347 78.8069 49.9347H77.7725C77.5139 49.9347 77.4343 49.8153 77.5139 49.5568C78.0709 47.8864 78.608 46.2359 79.145 44.6053C79.1848 44.4661 79.1848 44.2871 79.145 44.0883C79.2445 44.0684 79.3042 44.0286 79.3241 43.969C79.7219 42.7758 80.0998 41.5827 80.4977 40.4094C80.5375 40.2901 80.6568 40.1907 80.796 40.2106L83.4615 40.2901ZM80.4778 45.7786C80.4181 46.0172 80.5972 46.2359 80.8359 46.2359H82.8648C83.1035 46.2359 83.2825 45.9973 83.203 45.7786L82.1686 42.3184C82.0691 41.9804 81.5718 41.9804 81.4723 42.3184L80.4778 45.7786Z" fill="white"/>
<path d="M64.7021 48.3238C64.364 47.4887 63.8269 46.0171 62.6334 46.3551C62.5737 46.375 62.514 46.4347 62.514 46.5142L62.5339 49.3778C62.1361 50.0738 61.2012 49.9544 60.4851 50.3919L60.4453 40.3894C60.4453 40.3298 60.4851 40.29 60.5447 40.29C62.2554 40.2702 66.1344 39.8128 66.9101 41.9207C67.5467 43.611 67.0891 44.9035 65.5574 45.7785C65.4779 45.8183 65.458 45.9177 65.5177 45.9972L66.8505 47.9062C67.0295 48.5227 67.3279 49.1193 67.7257 49.6761C67.8053 49.7954 67.7853 49.855 67.6262 49.855H66.3333C66.2338 49.855 66.1542 49.8153 66.0946 49.7556C65.5376 49.2585 65.3983 48.7414 64.7021 48.3238ZM62.4942 42.1593L62.514 44.4859C62.514 44.6052 62.6135 44.6847 62.7129 44.6847H63.4489C64.3838 44.6847 65.1397 44.0882 65.1397 43.3524V43.2331C65.1397 42.5172 64.364 41.9206 63.4291 41.9405H62.6931C62.5936 41.9604 62.4942 42.0599 62.4942 42.1593Z" fill="white"/>
<path d="M76.1217 45.2813C74.8287 46.0568 73.4362 46.4943 71.9642 46.5539C71.7653 46.5539 71.6062 46.7329 71.6062 46.9119L71.5266 49.6561C71.5266 49.7953 71.4073 49.8947 71.2879 49.8947L70.0149 49.9345C69.8557 49.9345 69.7762 49.855 69.7563 49.6959L69.7364 47.6278C69.7364 47.5284 69.6966 47.4488 69.617 47.3693L69.5176 47.2897C69.5971 47.23 69.6369 47.1505 69.6369 47.0511C69.6369 44.8637 69.617 42.6365 69.617 40.4093C69.617 40.3099 69.6767 40.2502 69.7762 40.2502C73.5158 40.1707 77.534 39.7332 76.1217 45.2813ZM71.7057 42.199L71.7255 44.7046C71.7255 44.8438 71.8449 44.9432 71.9642 44.9432H72.8196C73.6551 44.9233 74.3314 44.3268 74.3314 43.591V43.2728C74.3314 42.5371 73.6352 41.9405 72.7997 41.9604L71.9444 41.9803C71.8051 41.9405 71.7057 42.0598 71.7057 42.199Z" fill="white"/>
<path d="M89.4084 43.3523C89.7267 44.0483 91.2782 44.6448 91.9745 45.0028C93.3868 45.7187 94.1028 47.2499 93.2276 48.6617C92.2728 50.2327 89.3089 50.1333 87.817 49.6958C87.5982 49.6362 87.459 49.4373 87.459 49.2185V48.3436C87.459 48.085 87.5783 48.0055 87.817 48.1049C88.7122 48.4828 90.582 49.0992 91.4772 48.3436C92.5115 47.4885 91.6562 46.534 90.8207 46.1164C89.3885 45.4204 87.7176 44.8238 87.6778 42.9148C87.6182 39.8723 91.3578 39.8922 93.3271 40.787C93.4464 40.8467 93.5061 40.9859 93.4663 41.1052L93.1481 42C93.1083 42.1392 92.9491 42.1989 92.8298 42.1592C92.3126 41.9603 91.7357 41.8211 91.0992 41.7416C90.0648 41.6024 88.8713 42.1791 89.4084 43.3523Z" fill="white"/>
<path d="M138.82 47.9062C138.761 47.7472 138.621 47.6478 138.462 47.6478L135.379 47.5881C135.121 47.5881 134.882 47.7472 134.802 48.0057L134.365 49.3977C134.265 49.6959 134.066 49.8551 133.768 49.875L132.714 49.9346C132.415 49.9545 132.336 49.8153 132.435 49.5568C133.708 46.1762 134.723 43.2928 135.479 40.9264C135.598 40.5486 135.837 40.3696 136.175 40.3696C136.752 40.3895 137.309 40.3895 137.866 40.3696C137.965 40.3696 138.045 40.4293 138.084 40.5287L141.168 49.3778C141.267 49.6761 141.168 49.8153 140.829 49.8351L140.034 49.875C139.716 49.8948 139.497 49.7358 139.377 49.4375L138.82 47.9062ZM135.498 45.7387C135.439 45.9575 135.598 46.1762 135.817 46.1762H137.846C138.065 46.1762 138.244 45.9575 138.184 45.7387L137.189 42.1196C137.09 41.7815 136.632 41.7815 136.533 42.1196L135.498 45.7387Z" fill="white"/>
<path d="M102.816 42.0996V49.5766C102.816 49.7556 102.677 49.8947 102.498 49.8947L101.305 49.9146C101.126 49.9146 100.986 49.7754 100.986 49.5964L101.046 42.1393C101.046 41.9604 100.907 41.8212 100.748 41.8212L98.7188 41.8013C98.5596 41.8013 98.4204 41.6621 98.4204 41.503L98.3806 40.7871C98.3607 40.6082 98.5198 40.449 98.6989 40.449L105.422 40.4292C105.621 40.4292 105.76 40.6082 105.721 40.807L105.581 41.4831C105.562 41.6223 105.422 41.7417 105.283 41.7417L103.115 41.8013C102.956 41.8013 102.816 41.9405 102.816 42.0996Z" fill="white"/>
<path d="M109.778 41.7216C109.321 41.7216 109.122 41.9404 109.122 42.3778L109.162 43.7102C109.181 44.1278 109.4 44.3266 109.818 44.3067L112.106 44.2073C112.324 44.2073 112.523 44.3863 112.523 44.6051L112.543 45.3209C112.543 45.5596 112.424 45.6789 112.205 45.6789C111.409 45.7186 110.673 45.6988 109.997 45.5994C109.44 45.5198 109.161 45.7385 109.142 46.2357C109.122 46.8322 109.122 47.4089 109.162 47.9856C109.181 48.4032 109.42 48.5822 109.858 48.5424C110.773 48.443 111.608 48.4231 112.344 48.4827C112.662 48.5026 112.822 48.6816 112.822 48.9998V49.3378C112.822 49.656 112.662 49.7952 112.344 49.7952L107.948 49.7753C107.63 49.7753 107.471 49.6162 107.471 49.2981V40.6478C107.471 40.4887 107.55 40.4092 107.709 40.4092L112.464 40.4489C112.742 40.4489 112.881 40.5882 112.842 40.8666L112.782 41.3239C112.742 41.6023 112.603 41.7415 112.324 41.7216H109.778Z" fill="white"/>
<path d="M117.138 46.1563C116.998 46.2359 116.919 46.3751 116.919 46.5341L116.859 49.3579C116.859 49.6959 116.68 49.8749 116.342 49.9147L115.685 49.9743C115.327 49.9942 115.168 49.8351 115.168 49.4971L115.148 40.648C115.148 40.5286 115.228 40.4491 115.347 40.4491C116.799 40.3695 118.252 40.4491 119.724 40.6679C121.474 40.9463 122.13 42.9945 121.335 44.3865C121.076 44.8239 120.619 45.162 120.201 45.4801C120.121 45.5398 120.082 45.6194 120.062 45.7188C120.002 46.037 120.082 46.3552 120.28 46.6535C120.997 47.6875 121.653 48.6818 122.29 49.6164C122.389 49.7755 122.349 49.8351 122.17 49.8351L121.056 49.7755C120.877 49.7755 120.698 49.6761 120.599 49.517C119.922 48.6023 119.326 47.6875 118.769 46.733C118.391 46.0966 117.794 45.7586 117.138 46.1563ZM116.899 42.3382V44.2871C116.899 44.6251 117.177 44.9035 117.516 44.9035H117.774C118.948 44.9035 119.903 44.2473 119.903 43.4518V43.1735C119.903 42.378 118.948 41.7417 117.774 41.7417H117.516C117.177 41.7218 116.899 42.0002 116.899 42.3382Z" fill="white"/>
<path d="M126.368 46.0965C126.189 46.176 126.07 46.355 126.07 46.5538L126.01 49.2981C126.01 49.6759 125.811 49.8747 125.433 49.9145L124.836 49.9742C124.458 50.0139 124.279 49.8349 124.279 49.4571L124.299 40.608C124.299 40.4887 124.399 40.4092 124.518 40.4092C126.149 40.4688 128.059 40.2899 129.551 40.9063C130.505 41.3239 130.883 42.7557 130.724 43.6705C130.585 44.4261 129.968 45.0624 129.352 45.4999C129.153 45.6391 129.093 45.9175 129.212 46.1363C129.869 47.3692 130.645 48.5225 131.54 49.5963C131.679 49.7554 131.639 49.8151 131.44 49.8151H130.167C129.948 49.8151 129.769 49.7156 129.63 49.5367C128.914 48.4827 128.218 47.4487 127.522 46.4942C127.203 46.0169 126.806 45.8976 126.368 46.0965ZM126.03 42.2585L126.05 44.3863C126.05 44.6647 126.268 44.8834 126.567 44.8834H126.607C127.939 44.8834 129.033 44.2272 129.033 43.4517V43.1534C129.033 42.3779 127.939 41.7415 126.607 41.7614H126.567C126.249 41.7415 126.03 41.9801 126.03 42.2585Z" fill="white"/>
<path d="M53.1262 45.9375L54.2799 42.0797C54.2998 42.0001 54.4192 42.0001 54.4589 42.0797L55.6126 45.9375C55.6325 45.9972 55.5928 46.0568 55.5331 46.0568H53.2257C53.1461 46.0568 53.1063 45.9972 53.1262 45.9375Z" fill="white"/>
<path d="M62.5156 42.1393C62.5156 42.02 62.6151 41.9404 62.7146 41.9404H63.4505C64.3855 41.9404 65.1613 42.5172 65.1613 43.233V43.3524C65.1613 44.0682 64.4054 44.6648 63.4705 44.6847H62.7345C62.6151 44.6847 62.5355 44.5852 62.5355 44.4858L62.5156 42.1393Z" fill="white"/>
<path d="M71.7051 42.1989C71.7051 42.0597 71.8045 41.9603 71.9438 41.9603L72.7991 41.9404C73.6346 41.9205 74.3307 42.5171 74.3307 43.2529V43.5711C74.3307 44.3068 73.6744 44.9034 72.819 44.9233H71.9636C71.8244 44.9233 71.7249 44.8239 71.7249 44.6847L71.7051 42.1989Z" fill="white"/>
<path d="M64.7229 48.3039L62.5745 49.3379L62.5547 46.4744C62.5547 46.4147 62.5945 46.3352 62.674 46.3153C63.8476 45.9971 64.3847 47.4687 64.7229 48.3039Z" fill="white"/>
</svg>
