<svg width="128" height="44" viewBox="0 0 128 44" fill="none" xmlns="http://www.w3.org/2000/svg">
<path d="M86.5842 0.665527C85.9874 3.50917 85.4105 6.35282 84.8138 9.19647C83.7595 14.1878 82.7053 19.1989 81.651 24.1902C81.4521 25.105 81.4521 25.0851 80.5172 25.0851C78.8264 25.0851 77.1356 25.0851 75.4448 25.0851C75.2856 25.0851 75.047 25.1646 74.9674 24.9658C74.8878 24.7868 75.1066 24.6675 75.226 24.5283C76.3797 23.2357 77.5931 22.0227 78.528 20.5512C79.1049 19.6165 79.5624 18.6421 79.7215 17.5286C79.9602 15.8582 79.4032 14.4662 78.349 13.1935C75.027 9.17658 69.6364 10.9265 67.4881 13.5116C65.7575 15.5798 64.743 18.0058 64.0667 20.5909C63.7285 21.9034 63.4699 23.2357 63.4301 24.5879C63.4102 24.9459 63.2511 25.0851 62.8931 25.0851C61.1227 25.0652 59.3325 25.0652 57.5621 25.0652C57.0847 25.0652 56.9454 24.8266 56.9852 24.3891C57.0648 23.1363 57.2836 21.9034 57.5223 20.6904C57.8008 19.2785 58.0793 17.8666 58.0395 16.3951C57.9798 14.7446 57.3234 13.3923 56.0105 12.3981C53.3053 10.2902 50.1624 10.1709 47.3179 12.0799C45.9652 12.9946 44.7916 14.1082 43.8766 15.4803C42.3648 17.7871 42.5637 20.1733 43.5185 22.6193C43.797 23.3352 44.1551 24.0312 44.5131 24.7073C44.712 25.0851 44.6126 25.2044 44.1948 25.2044C42.1261 25.2044 40.0374 25.1845 37.9488 25.2044C37.4316 25.2044 37.4316 24.9857 37.5112 24.5681C38.5058 20.0143 39.4805 15.4406 40.4751 10.8867C41.2111 7.4863 41.9271 4.06597 42.6631 0.665527H86.5842Z" fill="white"/>
<path d="M127.699 1.2023C127.242 2.8727 126.943 4.56298 126.585 6.25326C126.088 8.50033 125.631 10.7673 125.153 13.0144C124.974 13.8098 124.954 13.8297 124.198 13.4518C123.224 12.9746 122.229 12.4973 121.274 11.9803C119.365 10.9661 117.435 10.9662 115.446 11.7218C113.636 12.4178 112.045 13.432 110.791 14.9035C109.081 16.912 108.882 19.2187 109.538 21.6646C109.837 22.7384 110.254 23.7725 110.771 24.7469C110.97 25.1446 110.911 25.2838 110.453 25.2838C106.296 25.2838 102.138 25.2838 97.9811 25.2838C97.822 25.2838 97.623 25.3435 97.5633 25.1645C97.5037 25.0054 97.7026 24.8861 97.802 24.7867C99.0154 23.5538 100.129 22.2214 101.005 20.73C101.88 19.2585 102.516 17.6875 102.238 15.9177C101.82 13.3325 99.4133 10.3895 95.435 11.165C93.3463 11.5826 91.3969 12.378 89.4873 13.2928C89.348 13.3524 89.2088 13.432 89.0696 13.5115C88.9502 13.5712 88.811 13.6905 88.6717 13.5712C88.5524 13.4717 88.632 13.3126 88.6519 13.1734C89.1889 10.5287 89.7061 7.88388 90.2631 5.25897C90.5814 3.72778 90.8996 2.19658 91.2179 0.665383C103.193 0.665383 115.187 0.665393 127.162 0.645508C127.62 0.665393 127.799 0.744934 127.699 1.2023Z" fill="white"/>
<path d="M36.9935 0.665527C37.3117 2.31603 37.3515 3.92678 36.0784 5.25912C35.5015 5.87557 34.7059 6.09431 33.9102 6.27328C32.7167 6.55167 31.4835 6.43237 30.29 6.59145C27.1471 7.00905 24.223 8.04311 21.836 10.151C19.9065 11.8413 19.2898 14.1082 19.9065 16.5939C20.5032 19.0001 22.0945 20.6108 24.5412 21.1676C26.2917 21.5653 27.9626 21.0483 29.5738 20.3324C30.5485 19.8949 31.4238 19.2984 32.2791 18.7018C32.8759 18.2842 32.9157 18.2842 32.9554 19.02C33.0549 20.3125 33.1146 21.625 32.8958 22.9176C32.7167 24.051 32.0603 24.747 30.9663 25.0453C30.2701 25.2243 29.5539 25.3038 28.8179 25.3237C20.8413 25.443 12.8647 25.3834 4.86823 25.4033C4.19191 25.4033 4.15217 25.3436 4.29141 24.6675C6.06178 16.6735 7.83211 8.67944 9.60248 0.685417H36.9935V0.665527Z" fill="white"/>
<path d="M0.830078 42.5247C1.24781 41.1526 1.44677 39.7407 1.74514 38.3487C1.92417 37.5732 2.08328 36.7976 2.22253 36.0221C2.2822 35.6641 2.4612 35.5051 2.81925 35.5249C3.09774 35.5448 3.37625 35.5249 3.65474 35.5249C4.05257 35.5249 4.49019 35.4852 4.15203 36.2408C4.4703 36.042 4.64934 35.9028 4.84825 35.8034C5.66382 35.3261 6.51914 35.1471 7.43416 35.5051C7.77232 35.6443 8.05083 35.863 8.20997 36.1812C8.3691 36.5192 8.48843 36.4397 8.68735 36.2408C9.18464 35.7437 9.82121 35.4653 10.5174 35.346C12.069 35.0676 13.1431 36.0619 12.8845 37.6129C12.5862 39.3032 12.2082 40.9935 11.87 42.6838C11.8104 43.0019 11.6512 43.1411 11.3329 43.1411C10.9351 43.1411 10.5572 43.1411 10.1792 43.1411C9.7615 43.161 9.66204 42.9622 9.74161 42.5645C10.0599 41.0531 10.3782 39.5219 10.6964 38.0106C10.776 37.6527 10.9153 37.2351 10.5174 36.9965C10.0997 36.7579 9.66202 36.897 9.28408 37.1754C8.84646 37.5135 8.56803 37.951 8.4089 38.468C7.99117 39.7407 7.81212 41.073 7.51374 42.3855C7.33472 43.1213 7.35461 43.1411 6.57883 43.1411C5.04716 43.1411 5.16654 43.3002 5.4848 41.7889C5.7434 40.5162 6.00196 39.2436 6.26055 37.9709C6.34012 37.6328 6.37989 37.2948 6.06162 37.0561C5.74335 36.8175 5.3853 36.9169 5.06703 37.0561C4.4305 37.3544 4.09238 37.9112 3.93325 38.5675C3.63487 39.8401 3.37625 41.1128 3.09777 42.3855C2.93863 43.1411 2.93865 43.161 2.18276 43.161C1.74515 43.161 1.30752 43.161 0.869901 43.161V42.5247H0.830078Z" fill="white"/>
<path d="M33.392 38.7264C33.4119 38.0304 33.3522 37.8117 33.0737 37.4935C32.3576 36.6782 31.005 36.9168 30.3684 37.9907C29.9905 38.6469 29.8115 39.3628 29.8314 40.1184C29.8712 40.8741 30.2491 41.411 30.8856 41.59C31.4824 41.7689 32.1786 41.5303 32.6162 40.9735C33.1334 40.3173 33.4119 39.5815 33.392 38.7264ZM30.1098 43.2604C29.8313 43.1212 29.533 43.0217 29.2545 42.8626C27.8223 42.0473 27.5239 40.715 27.683 39.2236C27.9615 36.4595 30.4281 34.7692 33.1135 35.4652C34.7446 35.8828 35.7392 37.3543 35.5602 39.0645C35.3613 41.1525 34.3269 42.5644 32.3178 43.2604H30.1098Z" fill="white"/>
<path d="M111.428 38.7266C111.448 37.8715 111.19 37.3147 110.593 37.1158C109.976 36.917 109.36 36.9767 108.862 37.434C108.067 38.1499 107.828 39.0845 107.848 40.0987C107.868 40.8345 108.226 41.3515 108.842 41.5503C109.519 41.7691 110.096 41.5305 110.553 41.0333C111.15 40.397 111.408 39.6015 111.428 38.7266ZM108.146 43.2605C108.027 43.2009 107.888 43.1412 107.768 43.0815C106.774 42.7236 106.137 42.0276 105.819 41.0134C105.302 39.2834 105.978 37.096 107.45 36.1017C108.803 35.1869 110.275 35.0477 111.786 35.6841C112.94 36.1613 113.457 37.1357 113.577 38.3488C113.776 40.6356 112.423 42.6838 110.533 43.1611C110.474 43.181 110.434 43.2207 110.394 43.2406H108.146V43.2605Z" fill="white"/>
<path d="M19.7478 38.7064C19.7677 37.8712 19.5091 37.3741 18.9521 37.1155C18.3355 36.857 17.5398 37.036 17.0226 37.5729C16.3662 38.2689 16.1474 39.124 16.1673 40.0586C16.1872 40.8143 16.5253 41.3313 17.1419 41.5501C17.7586 41.7688 18.4349 41.5699 18.8924 41.033C19.4693 40.3768 19.7279 39.5814 19.7478 38.7064ZM16.4855 43.2602C16.3662 43.2006 16.227 43.1409 16.1076 43.0812C15.113 42.7233 14.4367 42.0472 14.1781 41.0131C13.7405 39.3229 14.198 37.1354 15.8291 36.0616C17.1817 35.1668 18.6736 35.0276 20.1655 35.7037C21.538 36.3201 22.1746 37.8116 21.8762 39.5615C21.5579 41.2717 20.6827 42.5443 18.972 43.121C18.8925 43.1409 18.8128 43.2006 18.7333 43.2403H16.4855V43.2602Z" fill="white"/>
<path d="M70.8292 38.6868C71.2072 38.6868 71.6051 38.6868 71.983 38.6868C72.2018 38.6868 72.3411 38.6072 72.3609 38.3487C72.4206 37.3345 71.4061 36.6385 70.4712 37.0363C69.954 37.255 69.6557 37.6726 69.4369 38.1896C69.2976 38.5277 69.3772 38.6868 69.7551 38.6868C70.1331 38.6868 70.4712 38.6868 70.8292 38.6868ZM69.4567 43.2605C68.1637 42.7633 67.3283 41.8884 67.0697 40.4765C66.5326 37.5135 69.0987 34.8289 71.9233 35.3857C73.1964 35.6443 74.0119 36.4596 74.2506 37.7322C74.3501 38.289 74.3501 38.8459 74.2904 39.4225C74.2507 39.86 74.0716 40.0191 73.6141 40.0191C72.3013 39.9992 71.0083 39.9992 69.6955 40.0191C69.1584 40.0191 69.039 40.1782 69.1583 40.6952C69.397 41.6895 70.7298 42.1866 71.4061 41.3912C72.0625 40.6157 72.7389 40.8344 73.4749 40.9338C73.8329 40.9935 73.9125 41.1526 73.7335 41.4708C73.3158 42.1866 72.7389 42.7037 71.983 43.0218C71.804 43.1014 71.6249 43.1809 71.4459 43.2406H69.4567V43.2605Z" fill="white"/>
<path d="M45.9052 38.6868C46.2832 38.6868 46.681 38.6868 47.059 38.6868C47.2778 38.6868 47.417 38.6072 47.4369 38.3487C47.4767 37.5334 46.86 36.8772 46.0445 36.9368C45.3483 36.9766 44.5924 37.6726 44.4929 38.3686C44.4531 38.6072 44.5725 38.6868 44.7714 38.6868C45.1295 38.6868 45.5273 38.6868 45.9052 38.6868ZM44.4929 43.2605C44.0951 43.0218 43.6773 42.8826 43.2994 42.5844C41.7876 41.3713 41.7876 39.0447 42.6231 37.4936C43.4188 36.0022 44.7117 35.3062 46.4025 35.3261C48.0336 35.346 49.2073 36.4397 49.3664 38.0504C49.5454 39.9197 49.4858 39.9992 47.6159 39.9992C46.6412 39.9992 45.6865 40.0191 44.7118 39.9992C44.2344 39.9793 44.1349 40.218 44.2343 40.6157C44.3736 41.1725 44.7118 41.5702 45.2687 41.7094C45.8456 41.8486 46.4025 41.6696 46.7407 41.2122C47.0789 40.7549 47.417 40.6753 47.9143 40.8344C48.0734 40.8742 48.2326 40.8941 48.3718 40.914C49.0482 41.0134 49.0879 41.0929 48.6901 41.6895C48.153 42.5048 47.3772 42.9423 46.502 43.2605H44.4929Z" fill="white"/>
<path d="M52.1117 43.2605C51.2166 43.002 50.421 42.5843 49.9237 41.7293C49.5457 41.0532 49.6054 40.9338 50.3414 40.8145C50.4607 40.7946 50.5801 40.7748 50.6994 40.7549C51.2564 40.6356 51.694 40.5958 52.072 41.2122C52.4499 41.8287 53.5638 41.9281 54.2401 41.5304C54.459 41.3912 54.638 41.2321 54.638 40.9537C54.6181 40.6554 54.3993 40.5361 54.1805 40.4367C53.4445 40.1583 52.7085 39.9396 52.0123 39.6214C50.5801 38.9652 50.3016 37.3544 51.4354 36.2408C52.5891 35.1073 55.3342 34.9682 56.6073 35.9823C56.9255 36.2408 57.1444 36.5988 57.3035 36.9567C57.4427 37.255 57.3433 37.4141 57.0051 37.4539C56.7863 37.4737 56.5476 37.5334 56.3288 37.5732C55.8514 37.6726 55.4535 37.772 55.0955 37.2351C54.817 36.8175 53.5638 36.738 53.1063 36.9965C52.6886 37.2351 52.6687 37.6726 53.1063 37.8913C53.4246 38.0504 53.7627 38.13 54.1009 38.2493C54.5186 38.3885 54.9364 38.5277 55.3541 38.6868C56.1696 39.0049 56.8062 39.522 56.8659 40.4566C56.9255 41.4708 56.4282 42.2065 55.5928 42.7235C55.2745 42.9224 54.8966 43.0417 54.5385 43.2008H52.1117V43.2605Z" fill="white"/>
<path d="M116.401 43.2602C116.242 43.2006 116.083 43.121 115.904 43.0614C115.248 42.8625 114.75 42.4449 114.372 41.908C113.815 41.1325 113.895 40.9535 114.83 40.7944C114.989 40.7745 115.148 40.7546 115.287 40.7149C115.745 40.5955 116.043 40.6751 116.322 41.1324C116.74 41.8483 118.112 41.9677 118.749 41.4506C119.127 41.1325 119.087 40.7149 118.589 40.516C117.853 40.1978 117.058 39.9592 116.322 39.641C115.367 39.2234 115.009 38.5672 115.108 37.5332C115.188 36.8769 115.506 36.3599 116.063 36.0218C117.515 35.1469 119.027 35.0872 120.559 35.7832C121.036 36.002 121.354 36.4196 121.573 36.8968C121.732 37.2349 121.693 37.4735 121.255 37.5332C120.897 37.5729 120.519 37.6525 120.161 37.7121C119.902 37.7718 119.743 37.6922 119.584 37.4735C119.166 36.9565 118.072 36.7377 117.495 37.0161C117.297 37.1156 117.157 37.2548 117.137 37.4934C117.117 37.732 117.257 37.8911 117.476 37.9905C117.694 38.0701 117.913 38.1496 118.132 38.2093C118.749 38.4081 119.385 38.5672 119.962 38.8655C121.315 39.5416 121.613 41.0131 120.638 42.1665C120.181 42.7233 119.564 43.0017 118.928 43.2602H116.401Z" fill="white"/>
<path d="M99.7912 43.2605C98.0407 42.644 97.4042 41.2123 97.6628 39.2635C97.9214 37.255 99.1945 35.8233 101.064 35.4255C101.8 35.2665 102.536 35.2863 103.252 35.5449C103.869 35.7636 104.346 36.1613 104.685 36.738C105.242 37.7522 105.102 38.0306 103.968 38.0902C103.849 38.0902 103.71 38.0902 103.591 38.1101C103.193 38.2095 102.994 38.1101 102.855 37.6925C102.676 37.0761 102.119 36.8374 101.502 36.9965C100.985 37.1357 100.587 37.434 100.328 37.9113C99.9106 38.6868 99.7315 39.522 99.7713 40.397C99.7912 40.8742 99.9305 41.2719 100.388 41.4907C100.845 41.7094 101.283 41.5503 101.681 41.2918C101.92 41.1128 102.138 40.8742 102.238 40.5958C102.377 40.2578 102.596 40.1981 102.894 40.2578C103.272 40.3373 103.65 40.3969 104.048 40.4367C104.426 40.4964 104.466 40.6753 104.327 40.9935C103.889 41.9679 103.193 42.6838 102.178 43.0616C102.039 43.1213 101.92 43.1809 101.8 43.2406H99.7912V43.2605Z" fill="white"/>
<path d="M63.6284 43.2605C62.5542 42.5844 62.3951 42.2066 62.6338 40.9339C62.8526 39.8203 63.0714 38.7266 63.3101 37.6329C63.3896 37.2749 63.3101 37.1158 62.952 37.1556C62.5144 37.1954 62.4349 36.9567 62.5343 36.5988C62.5741 36.4397 62.6338 36.2608 62.6537 36.0818C62.6935 35.704 62.8725 35.4852 63.2703 35.5449C63.6483 35.5846 63.8472 35.4057 63.8472 35.0477C63.8671 34.5108 64.1654 34.1927 64.6229 33.954C65.0805 33.7154 65.4982 33.437 65.9358 33.1785C66.0353 33.1188 66.1546 33.0194 66.274 33.0989C66.3933 33.1785 66.3336 33.3177 66.3138 33.437C66.2143 33.954 66.1148 34.471 65.9955 34.9881C65.896 35.3858 66.0154 35.5449 66.4331 35.5449C67.1094 35.5449 67.1094 35.5647 66.9901 36.2409C66.8309 37.0959 66.8309 37.0959 65.9358 37.1556C65.6175 37.1755 65.5181 37.3346 65.4584 37.613C65.2396 38.6868 65.0009 39.7407 64.802 40.8146C64.6826 41.4708 64.8418 41.6895 65.4982 41.6498C66.0353 41.61 66.1148 41.8088 65.9756 42.2463C65.8761 42.5844 65.8164 42.9224 65.7369 43.2804H63.6284V43.2605Z" fill="white"/>
<path d="M24.3016 43.2602C23.2473 42.7233 23.0086 42.2858 23.2075 41.1125C23.4064 39.9791 23.6452 38.8257 23.8839 37.6922C23.9634 37.2945 23.8838 37.1155 23.4661 37.1553C23.108 37.1752 23.0484 36.9962 23.1081 36.6979C23.1478 36.4991 23.2075 36.2803 23.2274 36.0815C23.2871 35.7235 23.4462 35.4849 23.844 35.5446C24.222 35.6042 24.401 35.4054 24.4209 35.0474C24.4408 34.5105 24.7591 34.1923 25.2166 33.9736C25.6741 33.735 26.1316 33.4367 26.5692 33.1583C26.6687 33.0986 26.7483 33.0191 26.8676 33.0787C27.0069 33.1583 26.9472 33.2975 26.9273 33.4168C26.8278 33.9736 26.7084 34.5304 26.5692 35.0673C26.4896 35.4253 26.5891 35.5446 26.9471 35.5644C27.703 35.6042 27.703 35.6042 27.5638 36.3599C27.3848 37.1951 27.4047 37.215 26.5891 37.1752C26.2708 37.1553 26.1117 37.3144 26.0521 37.6127C25.8332 38.7263 25.5945 39.82 25.3956 40.9137C25.2961 41.4705 25.4553 41.6495 26.0321 41.6693C26.6687 41.6892 26.6687 41.6892 26.5493 42.3256C26.4897 42.6636 26.4499 42.9818 26.2907 43.3H24.3016V43.2602Z" fill="white"/>
<path d="M62.4544 31.5476C42.8213 31.5476 23.1881 31.5476 3.57481 31.5476C2.58023 31.5476 2.58026 31.5476 2.79907 30.5533C3.05766 29.3801 3.31626 28.2068 3.55496 27.0336C3.61464 26.6955 3.79362 26.5365 4.13178 26.5563C4.29092 26.5563 4.45009 26.5563 4.60922 26.5563C43.8557 26.5563 83.0822 26.5563 122.329 26.5563C123.343 26.5563 123.343 26.5563 123.124 27.5705C122.886 28.704 122.627 29.8375 122.408 30.9908C122.329 31.3885 122.15 31.5874 121.732 31.5476C121.533 31.5277 121.334 31.5476 121.155 31.5476C101.562 31.5476 82.008 31.5476 62.4544 31.5476Z" fill="white"/>
<path d="M83.9385 36.1811C84.754 35.5646 85.6094 35.1868 86.6239 35.3856C87.161 35.4851 87.5986 35.7237 87.8373 36.2208C87.9766 36.5191 88.076 36.4595 88.2948 36.2805C88.9711 35.664 89.7668 35.3061 90.6818 35.326C91.8554 35.3459 92.5516 36.0816 92.5317 37.235C92.5118 38.1895 92.2135 39.1043 92.0344 40.0389C91.8753 40.9139 91.6565 41.749 91.4974 42.624C91.4178 43.0416 91.2189 43.1808 90.8211 43.1609C90.5227 43.141 90.2243 43.1609 89.9259 43.1609C89.2894 43.1609 89.2496 43.1013 89.369 42.5047C89.6077 41.3314 89.8662 40.1582 90.1049 38.9849C90.1845 38.5872 90.284 38.1895 90.3436 37.7918C90.4431 37.1754 90.1249 36.8373 89.5082 36.9367C88.8518 37.056 88.4738 37.5134 88.1954 38.0503C87.7776 38.8855 87.6782 39.8003 87.4594 40.6951C87.3002 41.3513 87.1809 42.0076 87.0615 42.6638C87.0018 43.0217 86.8029 43.1609 86.4449 43.1609C86.0868 43.141 85.7487 43.141 85.3906 43.1609C84.9132 43.2007 84.8138 42.9819 84.9132 42.5644C85.2315 41.0729 85.5498 39.5616 85.8481 38.0702C85.9277 37.7123 86.0272 37.3146 85.6492 37.056C85.2514 36.7975 84.8734 36.9367 84.5154 37.1555C83.9186 37.5134 83.6401 38.11 83.481 38.7463C83.2025 39.9395 82.9439 41.1525 82.7052 42.3655C82.5461 43.1609 82.5461 43.1609 81.7106 43.1609C81.4321 43.1609 81.1537 43.1609 80.8752 43.1609C80.5569 43.1609 80.4376 43.0018 80.4972 42.6837C80.9747 40.4366 81.452 38.1696 81.9095 35.9226C81.9294 35.7834 81.9693 35.6044 82.1284 35.5845C82.6854 35.505 83.2622 35.4851 83.7993 35.5845C84.0579 35.6442 83.8191 35.9623 83.9385 36.1811Z" fill="white"/>
<path d="M39.5984 36.4399C39.9962 36.1416 40.2548 35.7836 40.6327 35.6047C40.9112 35.4853 41.1897 35.366 41.4881 35.3461C42.423 35.2865 42.6219 35.5649 42.244 36.3802C42.1843 36.5194 42.1047 36.6586 42.045 36.8177C41.9257 37.1756 41.7467 37.3347 41.309 37.2751C40.5531 37.1756 39.7177 37.7921 39.3199 38.667C39.0016 39.3829 38.8424 40.1386 38.6833 40.8942C38.564 41.4709 38.4247 42.0675 38.3253 42.6442C38.2656 43.022 38.0468 43.1811 37.6689 43.1612C37.3307 43.1413 36.9925 43.1413 36.6743 43.1612C36.2367 43.1811 36.0775 43.022 36.177 42.5646C36.6345 40.3971 37.092 38.2296 37.5296 36.062C37.6092 35.6643 37.7882 35.4654 38.2059 35.5251C38.3452 35.545 38.4844 35.5251 38.6236 35.5251C39.5387 35.5251 39.5387 35.5251 39.5984 36.4399Z" fill="white"/>
<path d="M78.2291 36.4995C78.4877 36.1813 78.7662 35.9029 79.1043 35.7041C79.6414 35.3859 80.1984 35.2467 80.8151 35.4654C81.0935 35.5649 81.193 35.7041 81.0538 35.9825C80.9543 36.1813 80.8548 36.4001 80.7752 36.5989C80.5962 37.0961 80.3575 37.3347 79.7409 37.3148C78.9452 37.275 78.3883 37.8517 78.0103 38.5278C77.6125 39.2835 77.4733 40.1187 77.2743 40.9539C77.155 41.5107 77.0356 42.0476 76.9361 42.6044C76.8765 43.0618 76.6378 43.2407 76.1803 43.2009C75.8222 43.1811 75.4443 43.201 75.0663 43.1811C74.7679 43.1811 74.6486 43.0419 74.7083 42.7436C75.1857 40.4965 75.6631 38.2295 76.1206 35.9825C76.1803 35.6842 76.3394 35.5649 76.6378 35.5649C76.9561 35.5649 77.2743 35.5848 77.5926 35.5649C78.0501 35.545 78.2689 35.6842 78.1098 36.1813C78.1296 36.241 78.1097 36.3404 78.2291 36.4995Z" fill="white"/>
<path d="M94.3608 43.1612C93.227 43.1612 93.2668 43.2209 93.5253 42.0874C93.9431 40.1386 94.3608 38.1898 94.7189 36.241C94.8183 35.6842 95.057 35.4854 95.6339 35.5052C97.0263 35.545 97.0462 35.5251 96.7677 36.8773C96.3699 38.7864 95.972 40.6954 95.5742 42.6044C95.4946 42.9822 95.3355 43.1811 94.9377 43.1413C94.7388 43.1612 94.5399 43.1612 94.3608 43.1612Z" fill="white"/>
<path d="M71.5054 34.7097C71.3462 34.7097 71.2468 34.7097 71.1275 34.7097C70.7296 34.7097 70.7097 34.5506 70.9086 34.2523C71.2667 33.7552 71.6048 33.2381 71.9629 32.741C72.1021 32.562 72.2613 32.4427 72.5 32.4626C72.9973 32.4626 73.4747 32.4626 73.972 32.4626C74.0714 32.4626 74.2107 32.4427 74.2704 32.5421C74.33 32.6615 74.2306 32.741 74.151 32.8007C73.5145 33.3972 72.8978 33.9739 72.2613 34.5506C72.0226 34.7693 71.7242 34.6898 71.5054 34.7097Z" fill="white"/>
<path d="M96.1916 34.6301C94.9981 34.6301 95.0379 34.7295 95.2965 33.5165C95.4756 32.7012 95.4755 32.7012 96.311 32.7012C97.6039 32.7012 97.6039 32.7012 97.3652 33.954C97.226 34.6301 97.226 34.6301 96.1916 34.6301Z" fill="white"/>
</svg>
