<svg width="176" height="42" viewBox="0 0 176 42" fill="none" xmlns="http://www.w3.org/2000/svg">
<path d="M164.781 32.2578C164.781 31.9396 164.781 31.701 164.781 31.4623C164.781 30.2493 164.781 29.0363 164.781 27.8233C164.781 27.6045 164.84 27.5051 165.059 27.4454C166.631 26.9682 168.143 26.3517 169.455 25.3177C169.873 24.9995 170.251 24.6416 170.37 24.0848C170.569 23.1501 170.052 22.2155 169.217 22.0167C168.719 21.8974 168.222 21.9769 167.784 22.1956C167.247 22.4541 166.73 22.7524 166.233 23.0706C163.05 25.0194 159.868 26.9881 156.665 28.9369C155.253 29.8118 153.681 30.1897 152.01 30.1499C151.334 30.13 150.658 29.9908 150.061 29.613C150.001 29.5732 149.842 29.5732 149.763 29.6329C148.032 30.8459 146.083 31.4424 144.014 31.6811C142.462 31.86 140.951 31.8004 139.459 31.2834C138.384 30.9055 137.469 30.2891 136.853 29.2948C136.833 29.255 136.813 29.2351 136.793 29.1755C136.475 29.3942 136.196 29.5732 135.898 29.7721C134.665 30.6271 133.431 31.4822 132.198 32.3373C131.999 32.4765 131.959 32.5958 131.979 32.8344C132.138 34.6639 132.039 36.4536 131.243 38.124C130.348 40.0132 128.816 40.9279 126.728 40.9677C125.415 40.9876 124.182 40.729 123.127 39.8938C122.193 39.1382 121.655 38.1439 121.516 36.9707C121.258 34.6639 122.193 32.8344 123.804 31.2834C124.659 30.4681 125.674 29.8715 126.768 29.434C126.967 29.3545 127.046 29.255 127.046 29.0363C127.026 28.6585 127.046 28.2806 127.046 27.8432C126.907 27.9227 126.807 27.9625 126.728 28.0221C125.554 28.7977 124.301 29.3346 122.909 29.5533C121.974 29.7124 121.039 29.7124 120.144 29.3942C118.552 28.8374 117.796 27.6244 117.478 26.0534C117.06 24.045 117.717 22.3149 118.851 20.7241C120.303 18.7156 122.292 17.4032 124.58 16.5083C126.29 15.8322 128.061 15.4544 129.891 15.2953C130.189 15.2754 130.507 15.2555 130.826 15.2357C130.826 15.355 130.845 15.4345 130.845 15.5141C130.845 16.8663 130.845 18.1986 130.845 19.5508C130.845 19.8292 130.746 19.869 130.507 19.8889C128.439 20.048 126.43 20.4457 124.599 21.4797C123.804 21.9172 123.127 22.4939 122.69 23.3092C122.411 23.8262 122.332 24.3632 122.451 24.92C122.491 25.1387 122.63 25.258 122.829 25.2182C123.167 25.1586 123.525 25.1188 123.824 24.9597C125.534 24.1046 126.688 22.7325 127.424 20.9826C127.524 20.7639 127.623 20.7042 127.842 20.7042C129.194 20.7241 130.527 20.7042 131.92 20.7042C131.92 22.7325 131.92 24.741 131.92 26.7693C131.999 26.7693 132.019 26.7693 132.059 26.7693C132.874 26.4909 133.67 26.1926 134.486 25.9142C134.645 25.8546 134.645 25.7751 134.605 25.6359C134.148 24.3831 133.829 23.1104 133.69 21.778C133.392 19.0139 133.65 16.3493 135.122 13.9033C135.46 13.3266 135.898 12.8096 136.375 12.3324C137.629 11.1193 139.081 10.8409 140.732 11.4176C142.681 12.1136 143.735 13.5056 144.034 15.5141C144.332 17.5623 143.875 19.531 143.158 21.4201C142.582 22.9712 141.786 24.4029 140.791 25.7353C140.652 25.9142 140.672 26.0336 140.811 26.1728C141.547 26.9682 142.462 27.2267 143.497 27.1273C143.855 27.0875 144.193 26.9682 144.531 26.8886C144.77 26.829 144.849 26.7097 144.75 26.4512C144.332 25.1785 144.093 23.8859 144.173 22.5536C144.312 19.7696 145.963 17.5822 148.867 17.085C150.121 16.8663 151.354 17.0453 152.468 17.6617C154.019 18.5168 154.775 19.8491 154.835 21.6189C154.875 22.5933 154.656 23.528 154.338 24.4427C154.298 24.562 154.258 24.7012 154.179 24.9001C154.437 24.8205 154.656 24.741 154.875 24.6614C156.168 24.1444 157.361 23.4087 158.555 22.6928C160.604 21.4599 162.652 20.1872 164.741 18.994C165.994 18.2782 167.327 17.7015 168.739 17.4032C169.853 17.1845 170.987 17.1844 172.081 17.4827C173.991 17.9998 175.105 19.2923 175.443 21.2212C175.841 23.4285 175.224 25.437 174.011 27.2665C172.28 29.8715 169.813 31.343 166.79 31.9396C166.133 32.0987 165.477 32.1583 164.781 32.2578ZM139.558 17.9799C139.498 17.5623 139.459 17.1447 139.339 16.747C139.299 16.5879 139.12 16.3493 138.981 16.3294C138.842 16.3095 138.643 16.4884 138.504 16.6276C138.384 16.747 138.325 16.9259 138.245 17.085C137.827 18.1191 137.648 19.1929 137.728 20.2866C137.748 20.6247 137.847 20.9627 137.987 21.2809C138.106 21.5593 138.365 21.5991 138.563 21.3604C138.703 21.2212 138.822 21.0423 138.902 20.8633C139.339 19.9684 139.478 18.994 139.558 17.9799ZM148.629 22.7524C148.629 23.2297 148.728 23.6473 148.987 24.0251C149.404 24.6018 150.061 24.6018 150.479 24.045C150.976 23.3888 150.976 22.2155 150.499 21.5593C150.061 20.9627 149.385 20.9627 148.967 21.5991C148.728 21.9371 148.629 22.3547 148.629 22.7524ZM127.782 35.2406C127.762 35.2207 127.722 35.2207 127.703 35.2008C127.703 35.1611 127.703 35.1014 127.703 35.0616C127.643 34.644 127.464 34.306 127.066 34.1469C126.748 34.0077 126.449 34.1071 126.191 34.3259C125.674 34.7435 125.654 35.6383 126.111 36.1156C126.489 36.4934 127.046 36.4934 127.384 36.0758C127.543 35.8372 127.643 35.519 127.782 35.2406Z" fill="white"/>
<path d="M116.305 29.951C114.773 29.951 113.222 29.951 111.65 29.951C111.65 29.8316 111.65 29.7123 111.65 29.593C111.65 27.863 111.65 26.1528 111.65 24.4228C111.65 23.9256 111.511 23.4484 111.213 23.0506C110.536 22.0961 109.204 22.116 108.567 23.0904C108.269 23.5478 108.169 24.0449 108.169 24.562C108.169 26.6102 108.169 28.6584 108.169 30.7066C108.169 30.8259 108.169 30.9452 108.169 31.1043C106.677 31.1043 105.245 31.1043 103.753 31.1043C103.733 30.8458 103.694 30.5873 103.694 30.3089C103.594 28.3203 103.495 26.3119 103.395 24.3233C103.375 23.8858 103.356 23.4285 103.276 23.0109C103.077 21.9569 102.082 20.9627 101.068 20.7638C100.471 20.6445 99.9938 20.9825 99.954 21.599C99.9341 21.8774 99.9739 22.1757 99.9938 22.4541C100.093 23.3489 100.252 24.2637 100.332 25.1585C100.511 27.1272 100.63 29.1158 100.571 31.0844C100.511 33.252 100.332 35.3996 99.6556 37.4677C99.2578 38.6808 98.7406 39.8142 97.7858 40.7091C97.0896 41.3852 96.2342 41.8028 95.2794 41.8625C94.4042 41.9221 93.6483 41.5642 92.972 41.0273C92.057 40.2716 91.5199 39.2773 91.122 38.1836C90.5253 36.5729 90.3065 34.8826 90.2468 33.1923C90.1473 29.8913 90.6446 26.6897 91.7387 23.5876C92.5145 21.42 93.5687 19.3917 95.1601 17.7014C95.2198 17.6219 95.2795 17.5026 95.2596 17.4031C95.1601 16.0907 95.0408 14.7782 94.9413 13.4658C94.8617 12.4317 94.7822 11.3778 94.7026 10.3437C94.6031 8.9915 94.4838 7.61939 94.3843 6.26717C94.3048 5.19334 94.2252 4.11953 94.1257 3.0457C94.0462 2.17074 93.9865 1.29576 93.9069 0.440675C93.9069 0.361133 93.887 0.281591 93.887 0.162278C95.3192 0.122506 96.7315 0.08274 98.2035 0.0429688C98.6212 5.17346 99.039 10.2841 99.4766 15.4344C100.988 15.3151 102.44 15.4742 103.793 16.1901C105.146 16.9259 106.081 18.0395 106.737 19.4514C106.856 19.3122 106.956 19.2127 107.075 19.1133C108.189 18.0395 109.522 17.5026 111.073 17.5423C113.122 17.5821 114.435 18.7156 115.31 20.4655C115.907 21.6586 116.245 22.9512 116.285 24.2836C116.345 26.1528 116.305 28.0419 116.305 29.951ZM94.6429 30.7066C94.7026 31.7605 94.7225 32.4764 94.7821 33.1923C94.8219 33.6497 94.9413 34.1071 95.0606 34.5445C95.1004 34.7036 95.2795 34.8031 95.3789 34.9423C95.4983 34.8229 95.6375 34.7235 95.717 34.5843C95.8364 34.3059 95.9359 34.0275 95.9956 33.7491C96.4332 31.681 96.4928 29.5731 96.3337 27.4851C96.2939 26.9681 96.1746 26.471 96.0353 25.9738C95.9955 25.8148 95.8165 25.6954 95.717 25.5761C95.5977 25.6954 95.4187 25.7949 95.359 25.9539C95.1999 26.3914 95.0408 26.8488 95.001 27.3062C94.8418 28.4993 94.7225 29.772 94.6429 30.7066Z" fill="white"/>
<path d="M14.5778 11.8747C13.9214 11.6759 13.3047 11.4572 12.6881 11.318C10.9177 10.9401 9.20702 11.0992 7.69525 12.173C6.34261 13.1275 5.66633 14.4798 5.62655 16.1303C5.60666 16.7865 5.68619 17.403 5.905 18.0592C6.00446 17.9995 6.08404 17.9399 6.1636 17.9001C7.01895 17.3234 7.91407 16.8859 8.94844 16.7865C10.5995 16.6075 11.9124 17.224 12.9069 18.5166C13.8816 19.7892 14.2396 21.2409 13.7224 22.8118C13.2649 24.2038 12.1908 24.9595 10.858 25.3771C9.9629 25.6555 9.04789 25.735 8.13287 25.6953C8.0533 25.6953 7.95383 25.6953 7.87427 25.6953C7.85437 25.6953 7.81461 25.7152 7.77483 25.735C8.05332 26.2521 8.45114 26.61 8.94844 26.8884C9.82367 27.3458 10.7586 27.3856 11.6935 27.2662C13.0064 27.0873 14.1999 26.5901 15.3536 25.914C15.5724 25.7947 15.6321 25.6555 15.5923 25.4169C15.4729 24.5419 15.3735 23.6669 15.2939 22.792C15.1746 21.4795 15.2143 20.1671 15.3536 18.8546C15.4928 17.5223 15.7713 16.2297 16.2885 14.9769C16.8256 13.6844 17.5417 12.531 18.6755 11.6958C19.8492 10.8407 21.2415 10.7214 22.2958 11.3776C23.0716 11.8549 23.549 12.5906 23.8872 13.4059C24.3845 14.6587 24.4641 15.9712 24.4044 17.2836C24.285 19.7296 23.6286 22.0363 22.7533 24.3033C22.4947 24.9993 22.1765 25.6754 21.8582 26.3714C21.7389 26.6498 21.7786 26.8884 22.077 26.9878C22.3754 27.1072 22.6936 27.1668 22.992 27.1867C23.9269 27.2066 24.7624 26.9282 25.5382 26.431C25.6177 26.3714 25.6973 26.3316 25.7769 26.272C25.7769 26.272 25.7968 26.272 25.8366 26.272C25.8366 26.3316 25.8564 26.4112 25.8564 26.4907C25.8564 27.6441 25.8564 28.7775 25.8564 29.9309C25.8564 30.1496 25.7769 30.269 25.5978 30.3883C23.5689 31.5814 21.4803 31.7604 19.3519 30.7263C18.9142 30.5275 18.5363 30.1894 18.0787 29.911C17.7406 30.1099 17.3626 30.3485 16.9648 30.5672C15.3934 31.4223 13.7026 31.999 11.9124 32.178C9.58501 32.4166 7.37699 32.0786 5.40771 30.7462C3.69701 29.573 2.74223 27.9423 2.44385 25.914C2.30461 24.8998 2.34437 23.9056 2.48361 22.9113C2.50351 22.7522 2.46375 22.5533 2.38418 22.3942C1.62829 20.9028 1.01164 19.3517 0.693368 17.7012C0.295533 15.6132 0.335336 13.5452 1.21057 11.5765C2.16538 9.40894 3.81636 7.87774 5.96467 6.92323C8.65006 5.74998 11.3752 5.59089 14.1601 6.56529C14.4386 6.66471 14.5579 6.78404 14.5579 7.10221C14.538 8.61352 14.5579 10.1248 14.5579 11.6361C14.5778 11.6759 14.5778 11.7753 14.5778 11.8747ZM20.7045 18.8148C20.7045 18.616 20.7045 18.3972 20.6647 18.1586C20.605 17.8603 20.5454 17.5422 20.426 17.2439C20.2868 16.9058 20.0083 16.8859 19.7696 17.1643C19.6502 17.2836 19.5707 17.4427 19.4911 17.6018C18.9938 18.6955 18.8346 19.8688 18.8943 21.0619C18.9142 21.4397 18.9938 21.8375 19.133 22.2153C19.2723 22.5931 19.5706 22.613 19.8093 22.3147C19.9486 22.1556 20.0679 21.9568 20.1475 21.7579C20.5453 20.8233 20.6647 19.8489 20.7045 18.8148ZM9.86344 21.4795C9.86344 20.8829 9.40593 20.4057 8.80918 20.4057C8.25221 20.4057 7.75492 20.9028 7.75492 21.4795C7.75492 22.0562 8.25223 22.5533 8.82909 22.5334C9.40595 22.5334 9.86344 22.0562 9.86344 21.4795Z" fill="white"/>
<path d="M63.4125 21.2413C63.87 20.3663 64.6457 19.9686 65.5607 19.7896C65.8193 19.7499 66.078 19.7499 66.3365 19.7499C66.5355 19.7499 66.615 19.8493 66.5951 20.068C66.5951 21.1816 66.5951 22.2952 66.5951 23.4088C66.5951 23.9259 66.5951 23.9258 66.0779 24.0452C65.2823 24.2241 64.6259 24.5622 64.3673 25.3974C64.3076 25.5962 64.2678 25.8349 64.2678 26.0536C64.2678 27.386 64.2678 28.6984 64.2678 30.0307C64.2678 30.1302 64.2678 30.2296 64.2678 30.3489C63.0345 30.3489 61.841 30.3489 60.6077 30.3489C60.6077 30.2296 60.5878 30.1302 60.5878 30.0109C60.5878 28.8177 60.5878 27.6047 60.5878 26.4116C60.5878 25.1786 59.3943 24.244 58.2008 24.5025C58.1411 24.5224 58.0616 24.6219 58.0616 24.7014C57.5842 27.4854 55.3364 29.6927 52.5714 30.1501C50.7812 30.4483 49.1103 30.0904 47.5587 29.1955C47.3598 29.0762 47.2007 29.0563 47.0017 29.1955C45.1518 30.3489 43.2223 31.3034 41.0939 31.7807C38.6074 32.3574 36.1806 32.2778 33.8732 31.1046C31.884 30.0904 30.4518 28.5194 29.4373 26.5706C28.4229 24.6417 27.9256 22.5736 27.8659 20.4061C27.7863 17.8806 28.2637 15.4943 29.4771 13.2672C31.148 10.2048 33.7141 8.31563 37.0758 7.44066C38.8263 6.98329 40.6165 6.88387 42.4267 7.02307C42.9041 7.06284 43.3616 7.12249 43.839 7.14238C43.9981 7.16226 44.0777 7.20203 44.0777 7.36112C44.0777 8.81277 44.0777 10.2644 44.0777 11.7161C44.0777 11.7558 44.0577 11.7956 44.0577 11.8155C43.3416 11.6962 42.6256 11.5769 41.9095 11.4774C40.3977 11.2985 38.9058 11.378 37.4736 11.895C34.7882 12.8297 33.2565 14.7983 32.6996 17.5227C32.2222 19.7896 32.5205 21.9771 33.6345 24.0253C34.5893 25.7553 35.9618 26.9684 37.9709 27.3064C39.2439 27.5251 40.4573 27.2467 41.6309 26.7894C42.6454 26.3718 43.5605 25.7951 44.4357 25.1588C44.5948 25.0394 44.5948 24.94 44.575 24.761C44.2169 22.8719 45.1518 21.0822 46.8824 20.4061C47.3797 20.2072 47.877 20.1277 48.414 20.247C49.2694 20.426 49.7667 21.0822 49.7866 21.9572C49.8065 22.6929 49.8264 23.4088 49.9059 24.1446C49.9855 24.7412 50.2043 25.3178 50.6618 25.7553C51.5172 26.5905 53.2876 26.2525 53.7848 25.1588C54.0037 24.6815 53.8445 24.2241 53.3472 24.0253C53.1881 23.9656 53.0091 23.9258 52.8499 23.8861C51.736 23.5679 50.801 23.031 50.1446 22.0566C49.5479 21.1617 49.4285 20.1675 49.6473 19.1533C49.9457 17.7613 50.7016 16.6477 51.915 15.8722C53.4069 14.9177 55.1375 15.1165 56.5299 16.3693C57.246 17.0056 57.803 17.7812 58.2406 18.6363C58.3997 18.9346 58.5589 19.0539 58.897 19.0539C59.7922 19.0539 60.6475 19.2527 61.463 19.6306C62.1791 19.9686 62.7759 20.4459 63.2732 21.0822C63.313 21.1419 63.3528 21.1816 63.4125 21.2413C63.3727 21.2214 63.3528 21.2214 63.4125 21.2413ZM53.1682 19.7499C53.1682 20.1675 53.5064 20.5254 53.9241 20.5453C54.3418 20.5453 54.7198 20.1873 54.7198 19.7697C54.7198 19.3323 54.3617 18.9743 53.9241 18.9743C53.5064 18.9743 53.1682 19.3124 53.1682 19.7499Z" fill="white"/>
<path d="M67.9281 19.9486C68.3259 19.9486 68.7038 19.9486 69.0619 19.9486C69.2409 19.9486 69.2807 19.889 69.3006 19.71C69.4199 17.7015 69.5592 15.713 69.6785 13.7045C69.7382 12.7898 69.7979 11.875 69.8576 10.9802C69.8576 10.8012 69.9173 10.7416 70.0963 10.7416C71.3296 10.7416 72.5629 10.7217 73.7961 10.7217C73.816 10.7217 73.8558 10.7416 73.9155 10.7614C73.6768 13.9829 73.4182 17.2044 73.1596 20.4656C73.5773 20.4656 73.9752 20.4855 74.373 20.4458C74.4526 20.4458 74.5123 20.3066 74.572 20.227C75.1289 19.3719 75.6063 18.4771 76.2229 17.6618C77.1976 16.3891 78.431 15.3749 80.0422 14.9573C81.8126 14.4801 83.4039 14.7982 84.6969 16.1504C85.95 17.443 86.1489 19.3321 85.2737 21.0423C84.5775 22.4542 83.4437 23.4684 82.1507 24.2837C81.4744 24.7212 80.7384 25.0592 80.0223 25.437C79.9427 25.4768 79.8432 25.5166 79.7438 25.5762C80.2808 26.312 80.9373 26.8092 81.7926 26.9682C82.7474 27.1671 83.6426 26.9285 84.4979 26.5308C85.0549 26.2722 85.592 25.9143 86.1291 25.616C86.2086 25.5762 86.2881 25.5166 86.3876 25.437C86.3876 25.5564 86.3876 25.6558 86.3876 25.7353C86.3876 27.1074 86.3876 28.4597 86.3876 29.8318C86.3876 30.0306 86.328 30.1698 86.1688 30.309C85.2936 31.0647 84.2791 31.4823 83.1652 31.6612C80.9572 32.0192 78.9282 31.5817 77.1579 30.2096C75.9842 29.2949 75.2085 28.0818 74.6913 26.6898C74.572 26.3916 74.4327 26.0933 74.2537 25.8149C74.1343 25.616 73.9354 25.4569 73.7365 25.3376C73.279 25.0791 72.8811 25.3177 72.8811 25.8348C72.8811 27.3858 72.8811 28.9369 72.8811 30.4681C72.8811 30.5675 72.8811 30.667 72.8811 30.7664C72.7817 30.7664 72.7021 30.7863 72.6225 30.7863C71.4688 30.7863 70.3151 30.7863 69.1614 30.7863C68.8829 30.7863 68.8431 30.6869 68.8431 30.4482C68.8431 28.4597 68.8431 26.4711 68.8431 24.4825C68.8431 24.0451 68.8431 24.045 68.3856 24.0252C68.2265 24.0252 68.0872 24.0252 67.9082 24.0252C67.9281 22.7127 67.9281 21.3605 67.9281 19.9486ZM81.2158 19.5509C81.2357 19.0339 80.8776 18.7754 80.44 19.014C79.5846 19.4515 79.0675 20.1872 78.9481 21.1417C78.8884 21.619 79.2465 21.8576 79.6841 21.6985C80.3803 21.4201 81.176 20.3065 81.2158 19.5509Z" fill="white"/>
<path d="M156.984 18.3777C156.904 18.2981 156.864 18.2385 156.805 18.1788C155.929 17.0851 155.034 15.9914 154.119 14.8579C157.302 12.8097 160.465 10.7615 163.667 8.69336C164.443 9.98593 165.219 11.2586 166.014 12.5909C162.991 14.5198 159.987 16.4488 156.984 18.3777Z" fill="white"/>
<path d="M20.7049 18.815C20.685 19.849 20.5458 20.8234 20.1479 21.7381C20.0684 21.937 19.949 22.1359 19.8097 22.295C19.5511 22.5932 19.2528 22.5733 19.1334 22.1955C18.9942 21.8376 18.9146 21.4399 18.8947 21.0421C18.8351 19.849 18.9942 18.6956 19.4915 17.582C19.5711 17.423 19.6506 17.2838 19.77 17.1446C20.0087 16.8662 20.2872 16.8861 20.4264 17.2241C20.5458 17.5025 20.6055 17.8207 20.6651 18.1388C20.7049 18.3775 20.685 18.6161 20.7049 18.815Z" fill="white"/>
<path d="M9.86438 21.4796C9.86438 22.0563 9.40689 22.5136 8.83003 22.5335C8.25317 22.5534 7.75586 22.0563 7.75586 21.4796C7.75586 20.9029 8.25315 20.4058 8.81012 20.4058C9.40687 20.4058 9.86438 20.883 9.86438 21.4796Z" fill="white"/>
</svg>
