<svg width="101" height="49" viewBox="0 0 101 49" fill="none" xmlns="http://www.w3.org/2000/svg">
<path d="M56.203 0.418457C56.2428 0.975255 56.3025 1.41276 56.3025 1.87013C56.3224 17.0031 56.3423 32.1559 56.3423 47.2889C56.3423 48.9593 56.3422 48.9593 54.6514 48.9593C52.0854 48.9593 49.5194 48.8996 46.9732 48.9792C45.8394 49.0189 45.541 48.6213 45.541 47.5474C45.5808 40.1301 45.5609 32.7127 45.5609 25.2954C45.5609 17.5798 45.5609 9.84425 45.5609 2.12862C45.5609 0.418458 45.5609 0.418457 47.3114 0.418457C50.2554 0.418457 53.1795 0.418457 56.203 0.418457Z" fill="white"/>
<path d="M0.644911 48.9597C0.644911 48.4029 0.644911 48.025 0.644911 47.6472C0.644911 38.6589 0.664784 29.6706 0.625 20.6823C0.625 19.6085 0.923373 19.3301 1.95774 19.3301C15.4643 19.35 28.9509 19.35 42.4574 19.3301C43.5315 19.3301 43.9692 19.6283 43.9294 20.7419C43.8299 24.2816 44.367 23.7646 40.8661 23.7646C29.5874 23.7845 18.3088 23.7646 7.01027 23.7646C5.04098 23.7646 5.02109 23.7845 5.02109 25.7531C5.02109 31.3012 5.02109 36.8493 5.02109 42.3974C5.02109 44.0877 5.10065 44.1871 6.75167 44.1672C9.69565 44.1076 12.6595 44.207 15.5836 43.9087C21.1732 43.3519 26.0666 41.3634 28.9907 36.1732C29.6272 35.0596 29.9455 33.767 30.4229 32.5739C30.5422 32.2756 30.7411 31.7586 30.9202 31.7586C32.2131 31.6791 33.4862 31.679 34.7792 31.7188C34.8587 31.7188 35.0378 32.2955 34.9781 32.5739C33.4265 39.7327 29.3288 44.7439 22.3269 47.1501C18.6668 48.4029 14.8476 48.9597 10.9687 48.9398C7.60703 48.9398 4.20554 48.9597 0.644911 48.9597Z" fill="white"/>
<path d="M100.839 0.498215C100.839 3.89866 100.859 7.25933 100.8 10.6001C100.8 10.8189 100.183 11.1768 99.8449 11.1768C97.2391 11.2166 94.6531 11.1967 92.0473 11.1967C88.3077 11.1967 84.5481 11.1967 80.8085 11.1967C79.2768 11.1967 79.0978 11.3757 79.0978 12.9267C79.0978 14.1795 79.0779 15.4522 79.0978 16.705C79.1177 17.4408 78.7795 17.7391 78.0634 17.7391C74.5028 17.7192 70.962 17.7391 67.4014 17.7391C66.566 17.7391 66.2676 17.3413 66.2676 16.526C66.2875 11.5149 66.2875 6.52355 66.2875 1.51237C66.2875 0.816374 66.3869 0.378906 67.2821 0.378906C78.322 0.418678 89.3818 0.398781 100.422 0.398781C100.501 0.438552 100.561 0.458444 100.839 0.498215Z" fill="white"/>
<path d="M100.839 48.9593C98.651 48.9593 96.6618 48.9593 94.6925 48.9593C85.6816 48.9593 76.6507 48.9394 67.6397 48.9791C66.6451 48.9791 66.2871 48.6809 66.2871 47.6866C66.307 42.7152 66.307 37.7438 66.2871 32.7922C66.2871 31.9769 66.6054 31.5991 67.4408 31.5991C71.0015 31.5991 74.5422 31.619 78.1028 31.5991C78.8388 31.5991 79.1173 31.9372 79.1173 32.6531C79.0974 33.9456 79.0974 35.2581 79.1173 36.5506C79.1173 37.9426 79.3162 38.1415 80.7086 38.1415C86.7955 38.1415 92.8625 38.1415 98.9494 38.1415C101.317 38.1415 100.859 38.0421 100.879 40.13C100.859 43.0333 100.839 45.9367 100.839 48.9593Z" fill="white"/>
<path d="M79.4367 19.3695C86.1203 19.3695 92.8238 19.3894 99.5074 19.3496C100.522 19.3496 100.92 19.5683 100.88 20.6819C100.8 23.3864 100.82 26.1107 100.88 28.8152C100.9 29.6901 100.681 30.0083 99.7461 30.0083C86.2396 29.9884 72.753 29.9884 59.2465 30.0083C58.2917 30.0083 58.0132 29.6504 57.9933 28.7356C57.9734 25.534 57.9536 25.534 61.1959 25.534C71.7783 25.534 82.3806 25.5141 92.963 25.5539C93.7189 25.5539 94.4947 25.8522 95.1909 26.1505C96.0861 26.5283 96.822 26.4687 97.4785 25.7528C98.115 25.0369 98.0951 24.3011 97.4785 23.5853C96.8419 22.8495 96.0861 22.8097 95.2108 23.1876C94.5146 23.4858 93.7189 23.7642 92.963 23.7642C81.8435 23.804 70.7042 23.7841 59.5847 23.7841C57.9933 23.7841 57.9933 23.7841 57.9933 22.2131C57.9933 19.3496 57.9933 19.3496 60.8378 19.3496C67.0441 19.3695 73.2304 19.3695 79.4367 19.3695Z" fill="white"/>
<path d="M0.664062 11.2364C0.664062 7.55758 0.664062 4.07759 0.664062 0.518067C0.962439 0.478295 1.26082 0.418632 1.5393 0.418632C5.47787 0.418632 9.43634 0.199907 13.355 0.498192C19.0043 0.935676 24.4745 2.18847 28.8905 6.12583C32.0533 8.94959 34.0424 12.5091 34.9972 16.6453C35.1763 17.4209 34.9575 17.739 34.2016 17.739C34.0822 17.739 33.9629 17.739 33.8634 17.739C30.8598 17.7987 30.9393 17.7788 29.8055 15.0147C27.7765 10.0831 24.017 7.04055 18.8451 6.04627C15.6426 5.42982 12.3206 5.42984 9.05839 5.07189C8.3025 4.99235 7.54662 4.73382 6.83052 4.43554C5.97518 4.0776 5.19938 4.01794 4.54295 4.77359C3.92631 5.46959 3.82685 6.20535 4.48328 6.94112C5.11981 7.67689 5.85581 7.73657 6.75094 7.33885C7.48693 7.02068 8.30251 6.74226 9.09818 6.72237C12.7384 6.60306 16.3786 6.70251 19.8795 7.89565C24.2358 9.36719 27.2792 12.1909 28.6717 16.6652C28.9303 17.4606 28.6916 17.739 27.9357 17.739C27.5577 17.739 27.1599 17.6993 26.782 17.7589C24.9718 18.0174 23.8181 17.4606 22.8832 15.7107C21.6101 13.3045 19.1037 12.3301 16.5377 11.833C11.7239 10.8785 6.8504 11.3359 1.99681 11.2563C1.59897 11.2364 1.18125 11.2364 0.664062 11.2364Z" fill="white"/>
<path d="M25.3501 25.5342C31.059 25.5342 36.7481 25.5342 42.457 25.5342C43.8892 25.5342 43.929 25.5938 43.929 27.0256C43.9489 30.0084 43.9489 30.0084 40.9651 30.0084C31.6757 30.0084 22.3663 30.0084 13.0769 30.0084C11.3662 30.0084 11.3264 30.0482 11.3065 31.7186C11.3065 33.4487 11.3065 35.1588 11.3065 36.8889C11.3065 37.6048 11.5452 38.1019 12.3608 38.0224C14.9268 37.7837 17.5525 37.8036 19.9594 36.6105C21.6502 35.7753 22.9034 34.5623 23.6195 32.8322C23.9775 31.9374 24.5146 31.48 25.5291 31.5794C26.4044 31.6589 27.2796 31.5794 28.1747 31.6192C28.7914 31.6391 29.0301 31.8578 28.8112 32.5737C27.4387 37.2866 24.2958 40.1104 19.6809 41.5421C15.7026 42.775 11.6049 42.6756 7.50718 42.6557C6.81097 42.6557 6.57227 42.3177 6.57227 41.6614C6.57227 36.6105 6.59216 31.5595 6.57227 26.5086C6.57227 25.5342 7.20881 25.5342 7.88513 25.5342C12.4801 25.5342 17.0751 25.5342 21.6502 25.5342C22.9034 25.5342 24.1168 25.5342 25.3501 25.5342Z" fill="white"/>
</svg>
