<svg width="155" height="23" viewBox="0 0 155 23" fill="none" xmlns="http://www.w3.org/2000/svg">
<path d="M82.9688 6.40332C82.9688 9.14754 82.9688 11.8719 82.9688 14.5962C82.9688 17.3205 82.9688 20.025 82.9688 22.7295C82.6108 22.8289 78.3141 22.8687 77.6179 22.7692C77.598 22.6101 77.5781 22.4511 77.5781 22.2721C77.5781 21.2579 77.5781 20.2637 77.5781 19.2495C77.5781 13.1048 77.5781 6.94028 77.5781 0.795622C77.5781 0.596765 77.5781 0.377987 77.5781 0.199016C77.9561 0.0797024 84.9182 0.0399335 86.2112 0.139362C86.4101 0.55696 86.6289 0.994432 86.8278 1.43192C88.8568 5.7471 90.8857 10.0623 92.9346 14.3775C92.9942 14.5167 93.0937 14.636 93.233 14.8547C93.3523 14.6161 93.4319 14.4968 93.5114 14.3576C94.2276 12.7468 94.9437 11.156 95.6598 9.54529C96.9925 6.54256 98.3451 3.55967 99.6779 0.556943C99.8171 0.238773 99.9762 0.0996123 100.354 0.0996123C103.059 0.119498 105.765 0.119457 108.47 0.119457C108.609 0.119457 108.768 0.119457 108.868 0.119457C108.928 0.159228 108.928 0.179111 108.947 0.179111C108.967 0.198997 108.967 0.199036 108.967 0.218921C108.987 0.298464 109.007 0.358092 109.007 0.437634C109.007 7.8152 109.007 15.1928 109.007 22.5704C109.007 22.63 108.987 22.6897 108.987 22.7295C108.649 22.8289 104.134 22.8687 103.477 22.7692C103.437 21.6954 103.457 20.6017 103.457 19.5279C103.457 18.4341 103.457 17.3404 103.457 16.2467C103.457 15.1729 103.457 14.0792 103.457 13.0054C103.457 11.9117 103.457 10.818 103.457 9.72425C103.457 8.63054 103.457 7.5368 103.457 6.46298C103.079 6.34366 103.059 6.32381 102.9 6.68175C102.304 7.97432 101.707 9.26689 101.13 10.5396C99.3 14.5167 97.4699 18.5137 95.6398 22.5107C95.5404 22.7493 95.4011 22.8488 95.1426 22.8289C93.9689 22.809 92.7754 22.809 91.6018 22.8289C91.3034 22.8289 91.1642 22.7096 91.0449 22.451C89.8911 19.9852 88.6976 17.5194 87.524 15.0337C86.2112 12.2497 84.8784 9.48558 83.5656 6.7016C83.3666 6.36354 83.3467 6.36355 82.9688 6.40332Z" fill="white"/>
<path d="M0 22.8292C0 15.2329 0 7.71609 0 0.159553C0.179026 0.159553 0.31829 0.139648 0.457532 0.139648C6.00733 0.139648 11.5571 0.139648 17.087 0.139648C18.1612 0.139648 19.2353 0.219176 20.2896 0.497575C21.7815 0.895288 22.9949 1.67082 23.6911 3.10259C24.0094 3.7787 24.2282 4.47469 24.3674 5.21046C24.6061 6.5428 24.7851 7.85527 24.7652 9.20749C24.7453 11.0171 24.7851 12.8465 24.7454 14.6561C24.7056 16.2072 24.4271 17.7185 23.8304 19.1503C23.1739 20.7412 21.9605 21.7355 20.3294 22.2326C19.0762 22.6104 17.8031 22.8292 16.4903 22.8292C11.219 22.8292 5.92775 22.8292 0.656432 22.8292C0.457514 22.8292 0.238701 22.8292 0 22.8292ZM5.58958 17.8975C5.80839 17.9174 6.00731 17.9174 6.18634 17.9174C9.20989 17.9174 12.2135 17.9174 15.2371 17.9174C15.436 17.9174 15.6548 17.9174 15.8537 17.9174C17.5246 17.8578 18.4993 17.0623 18.8773 15.4715C18.9768 15.034 19.0762 14.5965 19.0762 14.159C19.0961 12.2301 19.0961 10.3211 19.0762 8.39217C19.0563 7.65641 18.9171 6.92066 18.5988 6.24455C18.1811 5.30993 17.465 4.7531 16.4505 4.59401C16.1521 4.55424 15.8338 4.51451 15.5156 4.51451C12.3727 4.51451 9.20989 4.51451 6.06699 4.51451C5.90786 4.51451 5.74873 4.53436 5.5697 4.53436C5.58959 9.00862 5.58958 13.4232 5.58958 17.8975Z" fill="white"/>
<path d="M47.8596 13.0849C48.0187 13.2241 48.1182 13.3236 48.2375 13.4031C49.5902 14.298 50.2267 15.5905 50.3262 17.1814C50.366 17.7183 50.366 18.2353 50.3859 18.7722C50.4455 20.025 50.5649 21.2778 50.8831 22.4908C50.903 22.5703 50.9229 22.6698 50.9428 22.7891C50.8235 22.809 50.7041 22.8289 50.6047 22.8289C48.9934 22.8289 47.3822 22.8289 45.771 22.8289C45.3731 22.8289 45.2538 22.7494 45.1344 22.3516C44.9355 21.775 44.9156 21.1983 44.8957 20.6017C44.856 19.7466 44.8162 18.8915 44.7565 18.0364C44.7366 17.6984 44.6371 17.3603 44.5178 17.0421C44.12 15.8689 43.2447 15.2525 42.0114 15.2525C39.2266 15.2525 36.4417 15.2525 33.6768 15.2525C33.5375 15.2525 33.3983 15.2724 33.1994 15.2724C33.1994 17.7779 33.1994 20.2636 33.1994 22.7096C32.8214 22.8289 28.1071 22.8487 27.5501 22.7493C27.4507 22.4311 27.4308 0.63648 27.5302 0.119454C27.6496 0.119454 27.7689 0.0996094 27.9082 0.0996094C33.5972 0.0996094 39.2664 0.0996094 44.9554 0.0996094C45.7511 0.0996094 46.5269 0.17914 47.2827 0.397882C48.7945 0.835366 49.7891 1.7899 50.2665 3.28132C50.5251 4.11652 50.6246 4.95169 50.6643 5.80678C50.6842 6.8806 50.6842 7.97432 50.6047 9.04814C50.4853 10.639 49.7294 11.8719 48.337 12.6872C48.158 12.8065 48.0386 12.9457 47.8596 13.0849ZM33.1994 10.5992C33.458 10.6191 33.6569 10.639 33.8558 10.639C36.6804 10.639 39.5051 10.639 42.3297 10.639C42.5883 10.639 42.8668 10.6191 43.1254 10.5992C43.6625 10.5396 44.1001 10.3009 44.3984 9.86346C44.6173 9.52541 44.8162 9.1277 44.8957 8.74987C45.0947 7.85502 45.0748 6.96015 44.9156 6.0653C44.7963 5.34942 44.3785 4.85227 43.6425 4.69319C43.2248 4.61364 42.7872 4.53407 42.3695 4.53407C39.4653 4.51418 36.5412 4.53407 33.637 4.53407C33.4978 4.53407 33.3585 4.55399 33.1994 4.57388C33.1994 6.60221 33.1994 8.57089 33.1994 10.5992Z" fill="white"/>
<path d="M133.594 17.9369C133.594 19.5874 133.594 21.1782 133.594 22.7492C133.196 22.8486 113.225 22.8486 112.787 22.7492C112.787 15.2324 112.787 7.71568 112.787 0.198913C113.105 0.0994848 132.44 0.0597354 133.176 0.159164C133.296 0.477334 133.315 3.97721 133.196 4.51412C128.323 4.51412 123.429 4.51412 118.556 4.51412C118.416 4.89195 118.397 8.57079 118.536 9.04804C123.171 9.04804 127.805 9.04804 132.5 9.04804C132.52 10.44 132.5 11.7723 132.5 13.1643C131.525 13.1842 130.59 13.1643 129.675 13.1643C128.74 13.1643 127.805 13.1643 126.87 13.1643C125.955 13.1643 125.04 13.1643 124.125 13.1643C123.191 13.1643 122.256 13.1643 121.321 13.1643C120.386 13.1643 119.451 13.1643 118.536 13.1643C118.417 13.5024 118.397 17.3006 118.496 17.8773C119.312 17.9568 120.147 17.8971 120.983 17.917C121.818 17.917 122.634 17.917 123.469 17.917C124.304 17.917 125.16 17.917 125.995 17.917C126.831 17.917 127.646 17.917 128.482 17.917C129.317 17.917 130.173 17.917 131.008 17.917C131.863 17.9369 132.699 17.9369 133.594 17.9369Z" fill="white"/>
<path d="M59.6549 17.9369C64.7273 17.9369 69.74 17.9369 74.7925 17.9369C74.7925 19.5676 74.7925 21.1584 74.7925 22.789C74.6135 22.8089 74.4344 22.8288 74.2554 22.8288C71.3512 22.8288 68.447 22.8288 65.5627 22.8288C61.9026 22.8288 58.2624 22.8288 54.6024 22.8288C54.4233 22.8288 54.2244 22.8288 54.0454 22.8288C53.926 22.4112 53.9062 0.616549 54.0255 0.15918C60.8086 0.15918 67.6116 0.15918 74.4344 0.15918C74.4344 1.59095 74.4344 3.02272 74.4344 4.51414C73.957 4.51414 73.4796 4.53398 73.0022 4.53398C72.5049 4.53398 72.0276 4.53398 71.5303 4.53398C71.033 4.53398 70.5158 4.53398 70.0185 4.53398C69.5212 4.53398 69.0438 4.53398 68.5465 4.53398C68.0492 4.53398 67.5718 4.53398 67.0745 4.53398C66.5772 4.53398 66.0998 4.53398 65.6025 4.53398C65.1052 4.53398 64.6278 4.53398 64.1305 4.53398C63.6332 4.53398 63.1161 4.53398 62.6188 4.53398C62.1215 4.53398 61.6441 4.53398 61.1468 4.53398C60.6694 4.53398 60.1721 4.53398 59.6549 4.53398C59.5355 4.91181 59.5952 5.28963 59.5952 5.64757C59.5753 6.0254 59.5952 6.42315 59.5952 6.80097C59.5952 7.1788 59.5952 7.53674 59.5952 7.91457C59.5952 8.27251 59.5952 8.65031 59.5952 9.06791C60.8086 9.08779 61.9822 9.06791 63.1359 9.06791C64.2897 9.06791 65.4434 9.06791 66.5971 9.06791C67.7707 9.06791 68.9443 9.06791 70.0981 9.06791C71.2518 9.06791 72.4055 9.06791 73.5393 9.06791C73.6388 9.42585 73.6786 12.5877 73.5791 13.1842C72.6641 13.1842 71.7292 13.1842 70.8142 13.1842C69.8792 13.1842 68.9443 13.1842 68.0094 13.1842C67.0745 13.1842 66.1396 13.1842 65.2047 13.1842C64.2698 13.1842 63.3349 13.1842 62.3999 13.1842C61.465 13.1842 60.55 13.1842 59.5952 13.1842C59.6549 14.7751 59.6549 16.3063 59.6549 17.9369Z" fill="white"/>
<path d="M141.868 0.15918C141.868 0.377922 141.868 0.596678 141.868 0.795534C141.868 6.30385 141.868 11.7923 141.868 17.3006C141.868 17.9568 141.808 17.9568 142.524 17.9568C146.423 17.9568 150.342 17.9568 154.241 17.9568C154.44 17.9568 154.619 17.9568 154.798 17.9568C154.897 18.3545 154.917 22.3316 154.818 22.7691C154.499 22.8686 136.756 22.8885 136.219 22.789C136.219 15.2723 136.219 7.73556 136.219 0.179024C138.089 0.159138 139.939 0.15918 141.868 0.15918Z" fill="white"/>
<path d="M143.28 2.62492C143.241 1.1335 144.554 0 145.886 0C147.12 0 148.492 1.01418 148.492 2.62492C148.492 3.91748 147.557 5.2697 145.906 5.28959C144.255 5.30947 143.241 3.8976 143.28 2.62492ZM145.886 4.7527C147.06 4.7527 147.975 3.81806 147.975 2.62492C147.975 1.49144 147.06 0.556837 145.946 0.536951C144.792 0.517065 143.837 1.47157 143.818 2.64482C143.818 3.79819 144.733 4.73281 145.886 4.7527Z" fill="white"/>
<path d="M145.329 2.96298C145.329 3.3408 145.329 3.67883 145.329 4.05666C145.15 4.05666 145.011 4.05666 144.832 4.05666C144.832 3.14192 144.832 2.22721 144.832 1.29259C145.449 1.29259 146.045 1.27266 146.642 1.31243C147.02 1.33232 147.199 1.61075 147.239 2.02835C147.279 2.44595 147.12 2.68456 146.762 2.82376C146.682 2.86353 146.602 2.88339 146.483 2.92317C146.682 3.30099 146.881 3.65893 147.08 4.03676C146.583 4.15607 146.583 4.15612 146.364 3.77829C146.284 3.63909 146.205 3.49989 146.125 3.34081C145.906 2.86355 145.906 2.86355 145.329 2.96298ZM145.349 2.46583C145.747 2.46583 146.065 2.48572 146.403 2.46583C146.622 2.44595 146.722 2.26695 146.742 2.0681C146.762 1.86924 146.642 1.71015 146.403 1.69027C146.065 1.65049 145.707 1.59086 145.349 1.71017C145.349 1.9488 145.349 2.18744 145.349 2.46583Z" fill="white"/>
</svg>
