<svg width="158" height="38" viewBox="0 0 158 38" fill="none" xmlns="http://www.w3.org/2000/svg">
<path d="M117.402 37.5065C116.268 37.248 115.134 37.069 114.04 36.7508C112.151 36.1741 110.639 35.0009 109.366 33.5294C109.087 33.1913 109.028 32.9726 109.386 32.6345C110.38 31.68 111.315 30.7056 112.27 29.7312C112.409 29.592 112.568 29.4528 112.767 29.2738C112.926 29.4528 113.086 29.592 113.205 29.7312C114.518 31.1828 116.109 32.0976 118.098 32.2169C119.053 32.2766 120.008 32.1572 120.863 31.6601C121.898 31.0635 122.097 29.771 121.221 28.9755C120.704 28.4983 120.028 28.1602 119.371 27.8818C118.397 27.4643 117.362 27.166 116.368 26.8279C114.597 26.2512 112.907 25.5353 111.494 24.3223C107.973 21.2997 108.133 16.2885 111.892 13.5443C114.02 11.9932 116.447 11.3967 119.033 11.4762C122.375 11.5756 125.18 12.8483 127.467 15.3141C127.805 15.6919 127.805 15.8908 127.447 16.2289C126.453 17.2033 125.478 18.1975 124.503 19.1719C124.384 19.2912 124.245 19.3907 124.185 19.4503C123.429 18.8339 122.753 18.1578 121.977 17.6606C120.386 16.6266 118.675 16.3879 116.865 17.0442C116.606 17.1436 116.348 17.2828 116.109 17.4419C114.935 18.2572 114.876 19.6094 116.129 20.3054C117.183 20.9219 118.357 21.3792 119.511 21.7769C121.46 22.4332 123.409 23.0894 125.06 24.382C127.229 26.0524 128.382 28.1602 127.945 30.9442C127.527 33.5294 125.876 35.1799 123.628 36.3133C122.375 36.9497 121.042 37.2877 119.65 37.4269C119.511 37.4468 119.391 37.4866 119.272 37.5065C118.615 37.5065 117.999 37.5065 117.402 37.5065Z" fill="white"/>
<path d="M157.364 5.17215C156.986 6.38518 156.25 7.22037 154.918 7.37946C153.485 7.55843 152.133 6.58406 151.874 5.23184C151.616 3.81996 152.471 2.44783 153.843 2.07C155.276 1.69217 156.708 2.40806 157.205 3.78016C157.265 3.93925 157.324 4.09834 157.364 4.25743C157.364 4.5756 157.364 4.87387 157.364 5.17215ZM153.227 4.65514C153.207 5.49033 153.824 6.16643 154.599 6.16643C155.335 6.16643 155.952 5.51022 155.972 4.71479C155.992 3.89948 155.355 3.22337 154.579 3.22337C153.804 3.22337 153.247 3.83983 153.227 4.65514Z" fill="white"/>
<path d="M37.5158 36.8304C37.1578 36.8304 36.939 36.8304 36.7003 36.8304C34.7708 36.8304 32.8612 36.8105 30.9317 36.8503C30.3349 36.8702 30.0564 36.6515 29.8177 36.1344C29.2409 34.8021 28.6043 33.4698 27.9877 32.1573C27.928 32.0181 27.8286 31.859 27.7291 31.6602C25.7201 35.1799 22.8357 37.1884 18.7579 37.1884C14.6801 37.1884 11.7759 35.1998 9.74695 31.6403C9.3889 32.4158 9.05076 33.1118 8.7126 33.8277C8.31477 34.6828 7.91688 35.5578 7.47926 36.393C7.3798 36.5719 7.14114 36.7907 6.96212 36.7907C4.73424 36.8105 2.50633 36.8105 0.278453 36.7907C0.218778 36.7907 0.139242 36.7509 0 36.7111C0.0795671 36.4924 0.139233 36.3134 0.238691 36.1344C5.45033 25.1377 10.6421 14.1608 15.8537 3.16405C16.0527 2.74645 16.2914 2.62713 16.729 2.62713C18.0617 2.64701 19.3944 2.64701 20.7272 2.62713C21.2046 2.60724 21.4433 2.76635 21.6422 3.20383C24.7454 9.80586 27.8882 16.4079 31.0113 23.0099C33.08 27.3649 35.1487 31.7198 37.1976 36.0748C37.297 36.2736 37.3766 36.4924 37.5158 36.8304ZM18.7778 12.3711C18.6386 12.6495 18.5391 12.8285 18.4396 13.0074C17.7832 14.4193 17.1069 15.8113 16.4704 17.2431C16.2914 17.6408 16.0327 17.8397 15.615 17.9987C12.0146 19.2913 9.82649 21.8367 9.03082 25.5752C8.93136 26.0126 9.0706 26.1717 9.46844 26.2314C10.9603 26.4501 12.4522 26.4501 13.9441 26.2115C15.973 25.8734 17.823 24.9985 19.7127 24.2826C21.682 23.5468 23.711 23.0099 25.8394 23.3082C26.5157 23.4076 27.192 23.5866 27.928 23.7457C27.8484 23.5269 27.7888 23.348 27.6893 23.1889C26.456 20.6236 24.5066 18.8737 21.8014 17.9788C21.4035 17.8396 21.1648 17.6408 21.0057 17.263C20.6278 16.4079 20.2299 15.5727 19.8519 14.7375C19.5337 13.962 19.1757 13.2262 18.7778 12.3711ZM9.17007 29.6915C9.38888 30.2682 9.32922 30.8449 9.92597 31.0835C11.4179 31.6602 12.9694 31.9386 14.5607 31.8988C16.709 31.859 18.7579 31.3221 20.7471 30.467C23.1142 29.433 25.5211 28.5978 28.1667 28.737C28.306 28.737 28.485 28.5182 28.5645 28.3591C28.6441 28.2199 28.6242 28.0211 28.6441 27.862C28.7237 27.0865 28.664 26.9274 27.8882 26.987C26.6549 27.0666 25.4018 27.1262 24.2481 27.4643C22.4578 28.0012 20.7471 28.7966 18.9767 29.4727C16.4504 30.4074 13.8646 30.8051 11.1991 30.2881C10.5426 30.129 9.92596 29.9102 9.17007 29.6915ZM28.5049 26.0325C28.5049 24.8792 28.3656 24.6405 27.3313 24.4815C26.5157 24.3621 25.6604 24.3224 24.8448 24.382C23.0744 24.5212 21.4433 25.1576 19.8122 25.7939C18.38 26.3706 16.9478 26.9274 15.4758 27.3251C13.4866 27.862 11.4576 27.8222 9.42868 27.345C9.20987 27.2853 8.93137 27.1262 8.8518 27.5438C8.75234 28.1205 9.01096 28.5381 9.56793 28.6972C11.4775 29.254 13.407 29.3534 15.3166 28.8563C17.0074 28.4188 18.6585 27.8222 20.2697 27.2058C22.597 26.3109 24.9244 25.5553 27.4705 25.8734C27.8286 25.9331 28.1667 25.9928 28.5049 26.0325Z" fill="white"/>
<path d="M143.996 37.4269C136.636 37.4269 130.848 31.7197 130.848 24.4615C130.848 17.3026 136.755 11.4165 144.016 11.4563C151.535 11.496 157.363 17.243 157.284 24.7001C157.204 31.7993 151.376 37.4269 143.996 37.4269ZM151.137 24.4814C150.918 23.5268 150.819 22.5326 150.481 21.6178C149.466 19.0327 147.597 17.3822 144.772 17.064C142.027 16.7657 139.878 17.9191 138.347 20.186C136.477 22.9899 136.696 26.7682 138.824 29.3732C141.191 32.2765 145.349 32.7339 148.253 30.3675C150.103 28.8761 150.958 26.8875 151.137 24.4814Z" fill="white"/>
<path d="M65.6621 37.4265C58.2823 37.4265 52.5137 31.7194 52.5137 24.4015C52.5137 17.3023 58.4812 11.436 65.7019 11.436C73.1812 11.4559 78.9498 17.1631 78.9498 24.5804C78.9299 31.779 73.1016 37.4265 65.6621 37.4265ZM72.6839 24.481C72.7436 24.4611 72.7834 24.4611 72.8431 24.4412C72.5845 23.4072 72.4452 22.3135 72.0275 21.3391C69.919 16.4671 63.9316 15.5126 60.55 19.4698C57.9441 22.5123 58.2226 27.3247 61.1268 30.049C63.5735 32.3358 67.2137 32.5148 69.8394 30.4268C71.749 28.9354 72.6441 26.9071 72.6839 24.481Z" fill="white"/>
<path d="M89.0147 13.763C89.2534 13.6039 89.4125 13.4846 89.5717 13.3652C92.9732 10.8597 98.2246 10.8398 101.566 13.3453C103.675 14.9362 104.729 17.1435 105.087 19.6889C105.187 20.4445 105.207 21.2002 105.226 21.9558C105.246 26.6687 105.226 31.3617 105.226 36.0746C105.226 36.8303 105.226 36.8303 104.471 36.8303C102.919 36.8303 101.348 36.8303 99.796 36.8303C99.0003 36.8303 99.0003 36.8303 99.0003 36.0548C99.0003 31.501 99.0003 26.9471 99.0003 22.3933C99.0003 21.3791 98.9009 20.3849 98.4434 19.4502C97.6676 17.8992 96.4144 17.0242 94.6838 16.885C92.7941 16.7458 91.0635 17.2032 89.5318 18.3367C89.134 18.6349 88.955 18.973 88.955 19.4701C88.9749 24.9387 88.9749 30.4072 88.9749 35.8559C88.9749 36.7905 88.9749 36.7905 88.04 36.7905C86.4884 36.7905 84.917 36.7706 83.3654 36.7905C82.888 36.7905 82.709 36.6513 82.709 36.1542C82.7289 28.3391 82.7289 20.5241 82.709 12.709C82.709 12.2119 82.8483 12.0528 83.3654 12.0528C85.0165 12.0727 86.6675 12.0727 88.3384 12.0528C88.8357 12.0528 89.0346 12.192 89.0147 12.6891C88.9351 13.0471 88.9749 13.3652 89.0147 13.763Z" fill="white"/>
<path d="M50.4845 31.6004C50.4845 32.0578 50.4845 32.4356 50.4845 32.8135C50.4845 33.9271 50.4845 35.0606 50.4845 36.1741C50.4845 36.5122 50.4049 36.7309 50.0468 36.8701C47.819 37.6854 45.591 37.7451 43.4228 36.7906C40.9563 35.7168 39.9816 33.589 39.9617 31.0436C39.9219 25.6149 39.9418 20.1861 39.9418 14.7573C39.9418 10.5416 39.9617 6.3258 39.9219 2.11004C39.9219 1.51348 40.101 1.37429 40.6579 1.37429C42.3089 1.41406 43.96 1.41406 45.6309 1.37429C46.2077 1.3544 46.3469 1.57314 46.327 2.09017C46.2872 2.76628 46.327 3.46228 46.327 4.13839C46.327 12.4307 46.327 20.723 46.327 29.0153C46.327 29.3534 46.3271 29.6914 46.3668 30.0295C46.4663 31.6999 47.6001 32.4953 49.2313 32.0379C49.6291 31.9584 49.9872 31.7794 50.4845 31.6004Z" fill="white"/>
<path d="M134.927 2.40816C134.191 1.55308 133.295 1.21504 132.241 1.55309C131.346 1.83149 130.789 2.44795 130.65 3.36269C130.511 4.3172 130.829 5.09272 131.644 5.60975C132.46 6.12678 133.295 6.12678 134.131 5.64953C134.31 5.5501 134.389 5.25182 134.509 5.03308C134.31 4.95354 134.131 4.83421 133.932 4.83421C133.494 4.81432 133.057 4.91377 133.077 4.19789C133.097 3.68086 133.236 3.48201 133.773 3.52178C134.35 3.56155 134.907 3.54167 135.484 3.52178C135.822 3.52178 135.961 3.6212 135.961 3.97914C135.941 4.53594 135.981 5.07286 135.941 5.62965C135.921 5.82851 135.842 6.08703 135.702 6.22623C134.35 7.69777 131.843 7.75741 130.332 6.36541C128.84 5.01319 128.72 2.76613 130.073 1.25482C131.386 -0.236602 133.872 -0.435483 135.384 0.857083C135.981 1.37411 135.981 1.37413 135.424 1.93092C135.245 2.1099 135.086 2.24908 134.927 2.40816Z" fill="white"/>
<path d="M147.737 7.24056C147.737 8.19507 147.737 9.1297 147.737 10.1637C147.299 10.0842 146.941 10.0643 146.623 9.94501C146.484 9.88535 146.325 9.64673 146.325 9.48764C146.305 7.18091 146.325 4.85428 146.305 2.54755C146.305 2.16972 146.484 2.07028 146.842 2.07028C147.458 2.07028 148.075 2.01065 148.672 1.97088C150.223 1.85156 151.576 3.52195 151.278 5.19234C150.939 6.98205 149.348 7.77746 147.995 7.26043C147.956 7.22066 147.896 7.24056 147.737 7.24056ZM147.737 4.63555C147.737 4.8344 147.737 5.05314 147.737 5.252C147.737 5.96788 148.175 6.30593 148.871 6.14684C149.428 6.02753 149.845 5.49063 149.905 4.85429C149.965 4.13841 149.647 3.52195 149.109 3.30321C148.274 2.96516 147.737 3.30319 147.737 4.17815C147.737 4.33724 147.737 4.49635 147.737 4.63555Z" fill="white"/>
<path d="M145.389 4.69481C145.389 5.37092 145.369 6.06692 145.389 6.74303C145.389 7.10097 145.309 7.26005 144.911 7.26005C144.255 7.26005 143.618 7.22027 142.942 7.3197C141.609 7.53844 140.754 6.70326 140.694 5.31126C140.655 4.39652 140.694 3.48179 140.675 2.58694C140.655 1.99037 141.072 2.10969 141.43 2.0898C141.808 2.06991 142.107 2.10966 142.087 2.62669C142.067 3.46189 142.067 4.2971 142.087 5.1323C142.107 5.88795 142.544 6.26576 143.26 6.16633C143.738 6.08679 144.056 5.88795 144.036 5.31126C144.016 4.41641 144.056 3.52156 144.016 2.6466C143.996 2.05003 144.394 2.10969 144.772 2.0898C145.17 2.06991 145.429 2.14945 145.389 2.6466C145.369 3.32271 145.389 4.0187 145.389 4.69481Z" fill="white"/>
<path d="M138.188 2.22928C139.024 1.83156 139.839 1.89122 140.297 2.50767C140.476 2.76619 140.297 3.16391 139.839 3.60139C139.342 3.54173 138.884 3.34289 138.546 3.46221C138.029 3.64118 138.089 4.21785 138.089 4.6951C138.089 5.3911 138.069 6.10698 138.089 6.80298C138.109 7.22058 137.89 7.30012 137.572 7.24046C137.253 7.18081 136.716 7.49898 136.716 6.84276C136.696 5.41099 136.696 3.95934 136.736 2.52758C136.736 2.38838 136.995 2.14973 137.134 2.12984C137.472 2.09007 137.83 2.1895 138.188 2.22928Z" fill="white"/>
</svg>
