<svg width="146" height="59" viewBox="0 0 146 59" fill="none" xmlns="http://www.w3.org/2000/svg">
<path d="M119.274 13.3027C118.677 14.3566 118.2 15.2316 117.603 16.3054C115.813 14.7345 113.863 13.3027 112.232 11.5329C109.825 8.92785 107.498 6.26317 104.276 4.63255C103.361 4.15529 102.306 3.8769 101.292 3.67804C100.098 3.43942 99.5016 4.2945 99.9989 5.44786C100.596 6.81997 101.69 7.77448 103.003 8.33127C105.429 9.36533 107.896 10.3198 110.362 11.2147C111.317 11.5527 112.113 12.0101 112.869 12.7061C114.162 13.9191 115.594 14.993 116.967 16.3253C115.634 16.1662 114.261 16.1066 112.948 15.848C108.791 15.0128 104.713 13.8197 101.133 11.513C99.7801 10.638 98.6661 9.34544 97.6715 8.05288C96.6769 6.74043 96.8162 5.18934 97.6517 3.75757C99.9193 -0.159897 104.017 -1.19393 107.657 1.51052C109.925 3.2008 111.914 5.26891 113.903 7.29724C115.813 9.20626 117.543 11.334 119.274 13.3027Z" fill="white"/>
<path d="M123.173 17.4588C123.173 16.4048 123.153 15.4702 123.193 14.5356C123.193 14.3368 123.412 14.0782 123.591 13.939C126.833 11.4931 130.016 8.96762 133.358 6.62111C135.625 5.03026 138.251 4.49337 141.016 4.99051C143.144 5.36834 144.497 6.64101 145.014 8.74889C145.273 9.8426 145.492 10.9562 145.571 12.0698C145.69 13.7601 144.755 14.9333 143.423 15.8282C141.473 17.1406 139.245 17.5781 136.958 17.8167C132.502 18.2741 128.046 18.3934 123.551 17.7173C125.023 16.902 126.157 15.5498 128.007 15.2913C132.005 14.7742 135.983 14.2174 139.942 13.5016C141.095 13.3027 142.209 12.6067 143.204 11.9505C144.616 11.0159 144.378 9.44488 142.826 8.70911C141.414 8.05289 139.942 8.21197 138.569 8.64946C137.037 9.12671 135.526 9.74317 134.153 10.5784C130.692 12.6465 127.33 14.8737 123.929 17.0213C123.69 17.1406 123.451 17.2798 123.173 17.4588Z" fill="white"/>
<path d="M10.0492 27.8588C10.7056 28.0576 11.1433 28.1769 11.561 28.336C15.2012 29.7678 15.8775 34.0631 12.8539 36.5488C11.183 37.9408 9.17393 38.2789 7.10519 38.3783C5.11601 38.4578 3.14675 38.3783 1.15757 38.3982C0.481252 38.3982 0.222656 38.1794 0.222656 37.4834C0.242548 31.4581 0.242548 25.4526 0.222656 19.4273C0.222656 18.8307 0.381817 18.4927 1.05814 18.5125C3.50482 18.5921 5.9515 18.5324 8.37829 18.771C9.43255 18.8705 10.5664 19.3875 11.4416 20.0238C14.1071 21.9329 13.8883 25.4725 11.1035 27.2026C10.7852 27.4014 10.5067 27.5804 10.0492 27.8588ZM2.66936 32.7904C2.66936 33.8444 2.62954 34.8983 2.68922 35.9522C2.70911 36.2306 3.08705 36.7278 3.30586 36.7477C5.3746 36.7874 7.46325 37.0062 9.47231 36.2306C10.9244 35.6539 11.74 34.5403 11.7599 33.0887C11.7797 31.0604 10.6857 29.5093 8.61698 29.1513C6.8864 28.8729 5.07622 28.9525 3.30586 28.9326C3.10694 28.9326 2.72902 29.4298 2.70913 29.728C2.60967 30.7621 2.66936 31.7763 2.66936 32.7904ZM2.64945 23.484C2.64945 24.3788 2.64945 25.2736 2.64945 26.1685C2.64945 26.7651 2.82846 27.1031 3.50479 27.0833C4.69829 27.0634 5.89181 27.123 7.06543 27.0633C9.33309 26.944 10.6459 25.4924 10.5266 23.3447C10.447 21.9726 9.59169 21.1374 8.43796 20.5806C6.78695 19.7852 5.01657 20.0039 3.26609 20.1034C3.04728 20.1233 2.70915 20.6204 2.66936 20.9187C2.60969 21.7738 2.66935 22.6289 2.64945 23.484Z" fill="white"/>
<path d="M105.369 25.1547C106.762 24.7371 107.358 25.7314 107.995 26.7853C110.979 24.4189 113.823 24.4786 116.608 27.0836C117.881 25.7711 119.373 25.0354 121.223 25.095C123.331 25.1547 126.116 26.6859 125.997 29.8477C125.897 32.2936 125.977 34.7396 125.977 37.1855C125.977 38.4184 125.957 38.3587 124.664 38.4383C123.709 38.4979 123.491 38.1201 123.51 37.2252C123.57 34.7793 123.53 32.3334 123.53 29.8874C123.53 28.3761 122.934 27.4415 121.74 26.9842C120.288 26.4274 118.418 26.7455 117.603 27.7597C117.344 28.0779 117.225 28.5949 117.225 29.0125C117.205 31.7965 117.185 34.5606 117.264 37.3446C117.284 38.3985 116.727 38.3985 115.952 38.4184C115.136 38.4383 114.738 38.2593 114.778 37.3247C114.838 34.9185 114.798 32.4925 114.798 30.0863C114.798 27.8989 113.664 26.7256 111.556 26.7058C109.427 26.6859 107.895 28.0977 107.876 30.146C107.856 32.5521 107.836 34.9782 107.895 37.3843C107.915 38.2792 107.517 38.4383 106.762 38.4184C106.045 38.3786 105.369 38.5178 105.389 37.4042C105.429 34.2027 105.409 30.9812 105.409 27.7796C105.369 26.9444 105.369 26.0893 105.369 25.1547Z" fill="white"/>
<path d="M66.9193 25.5923C67.0983 25.4332 67.2973 25.0951 67.6155 24.9758C68.7096 24.5383 69.3461 24.9957 69.3461 26.1888C69.3461 29.8677 69.3461 33.5266 69.3461 37.2055C69.3461 40.2281 67.158 42.6143 64.1742 43.0121C62.4039 43.2507 60.733 43.1314 59.2809 42.0178C59.0223 41.8189 58.7239 41.2621 58.8233 41.0434C59.0422 40.5263 59.4997 40.6258 59.9771 40.9042C61.2104 41.6002 62.5233 41.7593 63.8958 41.3815C66.0043 40.8048 67.337 38.4582 66.7204 36.5691C65.1887 36.8077 63.677 37.2452 62.1652 37.2055C56.9536 37.0663 55.3821 33.0295 56.2374 29.3904C56.7148 27.362 58.147 26.1093 60.0765 25.6121C61.6281 25.1945 63.2592 25.0752 64.8506 24.9758C65.4672 24.9161 66.1236 25.3337 66.9193 25.5923ZM66.8796 30.6034C66.8796 29.5892 66.8597 28.5552 66.8796 27.541C66.8994 26.8252 66.5812 26.507 65.8651 26.5468C64.6715 26.6263 63.478 26.5468 62.3243 26.7655C58.9626 27.4416 57.7492 29.6887 58.6443 32.7312C59.6787 36.2509 64.8307 36.1913 66.4618 34.6203C66.7005 34.3817 66.8397 33.9243 66.8596 33.5664C66.9193 32.5721 66.8796 31.5778 66.8796 30.6034Z" fill="white"/>
<path d="M74.5568 25.8904C75.7503 25.5722 76.7648 25.1745 77.8389 25.0154C80.2259 24.6575 82.3941 25.2938 84.065 27.0636C84.6021 27.6403 85 28.575 85.0398 29.3505C85.1591 32.055 85.0597 34.7793 85.0995 37.4837C85.1193 38.657 84.3237 38.3587 83.6672 38.4183C82.9114 38.478 82.5931 38.2394 82.613 37.4241C82.6528 34.9185 82.6129 32.393 82.6328 29.8874C82.6527 28.6943 82.1356 27.8591 81.1211 27.3023C79.6889 26.5267 78.197 26.308 76.6255 26.7654C75.0939 27.2227 74.517 27.9784 74.517 29.5295C74.517 32.1345 74.4772 34.7594 74.5369 37.3644C74.5568 38.3388 74.0794 38.4183 73.3235 38.4183C72.5875 38.3985 72.0703 38.4184 72.0703 37.4042C72.1101 31.4584 72.1101 25.4927 72.0703 19.5469C72.0703 18.5526 72.5676 18.5327 73.3036 18.5327C74.0595 18.5327 74.5568 18.5924 74.517 19.5668C74.4573 21.2769 74.4971 23.007 74.4971 24.7171C74.517 25.095 74.5369 25.4529 74.5568 25.8904Z" fill="white"/>
<path d="M99.7608 36.012C97.6921 38.4579 95.2852 38.6966 92.7191 38.1C89.7155 37.404 87.8059 34.6598 87.9252 31.3389C88.0446 28.0379 90.0736 25.5721 93.1767 25.0749C96.3196 24.5778 99.2437 25.0153 101.631 27.3021C102.009 27.6601 102.287 28.3163 102.287 28.8333C102.347 31.6769 102.287 34.5206 102.327 37.3443C102.347 38.2989 101.889 38.4182 101.113 38.3983C100.358 38.3784 99.6812 38.4182 99.8006 37.3443C99.8802 37.0262 99.8006 36.6881 99.7608 36.012ZM99.9199 30.3645C99.8006 29.9071 99.7807 29.0521 99.3829 28.5152C98.1695 26.8845 95.2255 26.2084 93.0175 26.9442C90.9488 27.6402 90.2327 29.2907 90.0736 31.319C89.8945 33.8047 91.7444 36.1711 94.211 36.5887C96.6975 37.0063 99.005 35.495 99.5818 33.0292C99.7807 32.2536 99.8006 31.4582 99.9199 30.3645Z" fill="white"/>
<path d="M124.287 18.5127C126.297 18.5127 128.405 18.5127 130.514 18.5325C130.732 18.5325 130.971 18.632 131.15 18.7513C134.253 21.058 136.66 23.9017 137.535 27.7595C138.013 29.9071 137.814 32.0349 136.879 34.0433C134.91 38.279 134.114 42.7334 134.213 47.5258C133.259 45.8355 132.901 44.1055 132.622 42.3754C131.807 37.3642 132.821 32.7309 135.606 28.4952C136.461 27.1828 136.342 26.3675 135.129 25.4129C131.767 22.788 128.326 20.2825 124.387 18.5723C124.288 18.5325 124.228 18.453 124.287 18.5127Z" fill="white"/>
<path d="M41.0398 24.9755C42.5317 24.5579 43.029 25.7511 43.586 26.4868C45.1176 25.9897 46.5101 25.3732 47.9622 25.0749C50.747 24.5182 54.1486 26.4868 53.89 29.9867C53.7109 32.4525 53.8104 34.9382 53.87 37.4239C53.8899 38.4381 53.3529 38.4182 52.6169 38.4381C51.8411 38.458 51.3836 38.3586 51.4035 37.3842C51.4632 35.0774 51.3836 32.7508 51.4233 30.4441C51.5029 26.9641 49.3745 26.3476 46.7687 26.805C44.6601 27.1828 43.5065 28.7538 43.5065 30.8815C43.5065 33.069 43.4666 35.2564 43.5263 37.4239C43.5462 38.3387 43.1086 38.458 42.3726 38.4381C41.6366 38.4182 41.0001 38.4978 41.02 37.4041C41.0598 34.1627 41.0398 30.9214 41.0398 27.68C41.0398 26.805 41.0398 25.9102 41.0398 24.9755Z" fill="white"/>
<path d="M23.6536 28.4355C23.6536 25.4924 23.6933 22.5493 23.6337 19.6063C23.6138 18.5324 24.1708 18.5324 24.9267 18.5523C25.6428 18.5722 26.2793 18.4728 26.2594 19.5665C26.2196 25.5123 26.2196 31.4581 26.2594 37.4238C26.2594 38.5374 25.6229 38.4181 24.9068 38.438C24.131 38.4579 23.5939 38.4181 23.6138 37.3642C23.6934 34.3813 23.6536 31.3985 23.6536 28.4355Z" fill="white"/>
<path d="M29.4038 28.4951C29.4038 25.552 29.4435 22.6089 29.3838 19.6659C29.3639 18.6716 29.7817 18.4926 30.6171 18.5324C31.3531 18.5722 32.0295 18.4131 32.0096 19.6062C31.9499 25.5321 31.9499 31.4382 32.0096 37.3641C32.0295 38.5373 31.373 38.3981 30.6171 38.4379C29.7817 38.4777 29.344 38.3186 29.3639 37.3243C29.4435 34.3812 29.4038 31.4382 29.4038 28.4951Z" fill="white"/>
<path d="M17.5676 10.8767C16.5531 11.1948 15.9961 10.9761 15.6181 10.1011C15.1805 9.06706 14.5241 8.13243 14.0865 7.11827C13.6887 6.22341 13.1118 5.96491 12.1172 6.32285C12.1172 7.81428 12.1172 9.34547 12.1172 10.9562C11.6199 10.9562 11.2419 10.9562 10.8242 10.9562C10.8242 7.31714 10.8242 3.73772 10.8242 0.138421C12.1769 0.138421 13.4699 0.0190965 14.723 0.158296C16.2746 0.337267 17.2493 1.39122 17.3885 2.78321C17.5477 4.17521 16.8913 5.20927 15.4193 5.86549C15.2999 5.92515 15.1806 5.9649 14.9817 6.06433C15.837 7.67507 16.6923 9.24603 17.5676 10.8767ZM12.157 1.09292C12.157 2.54457 12.157 3.81725 12.157 5.18936C13.4699 5.1297 14.9219 5.64673 15.6977 4.25473C16.016 3.67805 16.016 2.62411 15.6977 2.04743C14.9219 0.695202 13.4699 1.17247 12.157 1.09292Z" fill="white"/>
<path d="M41.7559 10.9961C38.5732 10.9166 35.9873 8.31157 36.0868 5.30884C36.1862 2.326 38.8915 -0.0602973 42.0543 0.0391309C45.1972 0.118673 47.7035 2.60438 47.6439 5.56734C47.5842 8.60984 44.9386 11.0756 41.7559 10.9961ZM46.4305 5.48781C46.4305 3.08164 44.3618 1.07319 41.8952 1.07319C39.4286 1.07319 37.3201 3.1413 37.34 5.48781C37.3598 7.89397 39.4485 9.96206 41.8554 9.98195C44.3219 10.0018 46.4106 7.95362 46.4305 5.48781Z" fill="white"/>
<path d="M18.085 31.7565C18.085 29.8475 18.1248 27.9186 18.0651 26.0095C18.0452 25.1147 18.5027 24.9755 19.2188 24.9954C19.915 25.0153 20.5118 24.9755 20.5118 25.9897C20.472 29.8276 20.472 33.6456 20.5118 37.4836C20.5317 38.458 19.9747 38.4381 19.2984 38.4182C18.6618 38.4182 18.0452 38.5176 18.0651 37.5034C18.1248 35.5944 18.085 33.6854 18.085 31.7565Z" fill="white"/>
<path d="M35.1527 31.6573C35.1527 29.7682 35.1924 27.8989 35.1327 26.0098C35.093 24.9956 35.6897 24.9956 36.4058 24.9956C37.1219 24.9956 37.5993 25.0751 37.5794 26.0098C37.5397 29.8477 37.5397 33.6657 37.5794 37.5037C37.5993 38.4979 37.0225 38.4383 36.3661 38.4383C35.7097 38.4383 35.1128 38.5178 35.1327 37.5236C35.1924 35.5549 35.1527 33.6061 35.1527 31.6573Z" fill="white"/>
<path d="M19.1986 0.138184C19.6959 0.138184 20.034 0.138184 20.5114 0.138184C20.5114 1.27166 20.5114 2.36538 20.5114 3.43921C20.5114 4.77154 20.4716 6.08398 20.5114 7.39643C20.5512 8.86796 21.685 9.86225 23.2167 9.82248C24.6887 9.78271 25.7628 8.78844 25.7827 7.35668C25.8026 4.99029 25.7827 2.604 25.7827 0.138184C26.2203 0.138184 26.5983 0.138184 27.1154 0.138184C27.1154 0.635324 27.1154 1.15236 27.1154 1.66939C27.1154 3.61818 27.1353 5.56694 27.1154 7.51574C27.0757 9.5043 25.3849 10.956 23.157 10.9758C20.9291 10.9758 19.2383 9.52419 19.2184 7.51574C19.1587 5.08969 19.1986 2.64377 19.1986 0.138184Z" fill="white"/>
<path d="M7.6407 6.18396C8.1181 6.18396 8.45623 6.18396 8.85406 6.18396C8.85406 7.77481 8.85406 9.30603 8.85406 10.9565C6.94446 10.9366 5.05474 11.2747 3.26448 10.4594C1.21563 9.52477 0.0619204 7.89415 0.0420286 5.64707C0.00224512 3.4 1.13605 1.72958 3.12523 0.715414C5.07462 -0.258982 7.00411 -0.199305 8.83415 1.23246C8.69491 1.57052 8.55571 1.88867 8.37668 2.30627C6.62621 0.85462 4.83592 0.89439 3.06555 2.08753C1.53389 3.1017 0.937126 4.613 1.31507 6.40271C1.67312 8.13276 2.80698 9.28614 4.51768 9.68385C5.39291 9.88271 6.52671 10.0816 7.22293 9.68385C7.66054 9.42534 7.52133 8.13276 7.62079 7.27768C7.68046 6.93962 7.6407 6.58168 7.6407 6.18396Z" fill="white"/>
<path d="M29.9399 6.5418C29.9399 8.09288 29.9399 9.46498 29.9399 10.9166C29.4625 10.9166 29.1045 10.9166 28.5873 10.9166C28.5873 10.2604 28.5873 9.64396 28.5873 9.0275C28.5873 6.38271 28.6271 3.75782 28.5674 1.11303C28.5475 0.257945 28.826 0.0193088 29.6416 0.0789657C30.5566 0.158508 31.4915 0.0590861 32.4065 0.1784C34.1172 0.377256 35.251 1.66981 35.251 3.30043C35.2311 5.05036 34.0575 6.36281 32.2672 6.52189C31.5511 6.60143 30.8351 6.5418 29.9399 6.5418ZM29.9399 5.56739C31.3721 5.56739 32.7845 5.94523 33.6199 4.49358C34.0973 3.65838 34.0376 2.76351 33.4607 1.98797C32.5457 0.75506 31.2528 1.17266 29.9996 1.09312C29.9797 1.53061 29.9598 1.80902 29.9399 2.10731C29.9399 3.2209 29.9399 4.33448 29.9399 5.56739Z" fill="white"/>
<path d="M0.00319038 47.9832C1.49507 47.9832 2.86755 47.9434 4.24008 48.0031C5.11532 48.0429 5.85134 48.4605 6.07015 49.3951C6.30885 50.3894 6.18948 51.3041 5.23467 51.9405C5.15511 52.0001 5.09548 52.0598 4.97613 52.1791C6.38845 53.2529 5.57286 54.9233 6.12983 56.2159C6.05026 56.2954 5.9707 56.3551 5.89113 56.4346C5.67233 56.2159 5.33417 55.9971 5.2745 55.7386C5.13525 55.142 5.15513 54.5057 5.07557 53.8694C4.996 53.0342 4.55836 52.5171 3.68312 52.5171C2.72831 52.4972 1.7934 52.5171 0.759026 52.5171C0.759026 53.8495 0.759026 55.0625 0.759026 56.2755C0.679459 56.3352 0.599902 56.3749 0.520335 56.4346C0.361201 56.2556 0.042952 56.0966 0.042952 55.9176C-0.0167232 53.2529 0.00319038 50.628 0.00319038 47.9832ZM0.798849 51.9007C2.01225 51.8211 3.20575 51.8211 4.33958 51.6223C5.13525 51.503 5.41373 50.807 5.39384 50.0513C5.37395 49.2957 4.97608 48.719 4.24008 48.6593C3.10625 48.5599 1.97245 48.6394 0.719265 48.6394C0.719265 49.415 0.719265 50.1309 0.719265 50.8467C0.739156 51.145 0.778957 51.4234 0.798849 51.9007Z" fill="white"/>
<path d="M14.5432 57.1305C14.7421 57.2299 14.9808 57.2896 15.1399 57.4288C15.9356 58.2242 16.9501 58.5026 17.9049 58.0651C18.8995 57.6078 19.0784 56.7328 19.0387 55.8181C18.2629 56.0567 17.507 56.4146 16.7511 56.4743C15.8958 56.5339 15.1598 56.0766 14.7023 55.3209C13.8867 54.0085 14.0856 51.7017 15.0802 50.7671C16.0748 49.8325 17.5269 49.9319 18.8796 50.9858C19.0785 50.7472 19.2774 50.5086 19.4763 50.2699C19.5757 50.5483 19.7548 50.8268 19.7548 51.1052C19.7747 52.7159 19.8145 54.3465 19.7548 55.9572C19.6752 58.2839 17.8452 59.4571 15.6969 58.5822C15.1797 58.3634 14.7818 57.8464 14.3243 57.4884C14.3641 57.389 14.4636 57.2498 14.5432 57.1305ZM19.158 53.3323C19.0387 51.3637 17.7258 50.2302 16.1742 50.8466C15.3388 51.1847 14.8415 52.1193 14.8415 53.2926C14.8614 54.5454 15.3786 55.4601 16.2737 55.7783C17.1689 56.0964 18.1237 55.818 18.5812 54.963C18.8597 54.4857 18.979 53.8891 19.158 53.3323Z" fill="white"/>
<path d="M122.994 15.7489C122.994 15.8086 122.994 15.8881 122.994 15.9477C122.616 18.2942 122.556 18.334 120.527 17.8568C119.99 17.7375 119.453 17.5784 118.896 17.4789C118.06 17.3596 118.001 16.8426 118.16 16.1863C118.259 15.8085 118.399 15.4307 118.558 15.0728C119.035 13.979 119.532 13.7205 120.726 13.9592C121.104 14.0387 121.482 14.158 121.88 14.2575C122.934 14.5558 123.033 14.6751 122.994 15.7489Z" fill="white"/>
<path d="M46.6289 47.8242C48.0412 47.8839 49.3143 47.864 50.5874 48.0231C51.7809 48.1623 52.318 48.8782 52.3577 50.0315C52.4174 51.2247 51.9003 52.04 50.7863 52.3383C50.1498 52.4974 49.4934 52.5172 48.8369 52.557C48.3794 52.5968 47.9219 52.557 47.4644 52.557C47.1063 53.8098 47.6434 55.2018 47.1461 56.3552C46.987 56.3154 46.808 56.2955 46.6488 56.2557C46.6289 53.5314 46.6289 50.7673 46.6289 47.8242ZM47.3848 52.04C48.459 51.9605 49.4337 51.9604 50.4084 51.8213C51.3035 51.7019 51.6416 51.0258 51.6218 50.1707C51.6218 49.3157 51.1643 48.739 50.3487 48.6594C49.3939 48.56 48.3993 48.6395 47.3848 48.6395C47.3848 49.7134 47.3848 50.7673 47.3848 52.04Z" fill="white"/>
<path d="M112.073 55.5796C110.641 56.7329 109.189 56.8125 108.174 55.7983C107.12 54.7245 107.06 52.2388 108.075 51.0058C108.99 49.8923 110.462 49.8724 112.192 51.0058C112.252 49.9121 112.312 48.898 112.391 47.8838C112.531 47.9037 112.67 47.9037 112.789 47.9236C112.789 50.7076 112.789 53.5114 112.789 56.2954C112.73 56.3352 112.69 56.375 112.63 56.4147C112.431 56.1363 112.252 55.8579 112.073 55.5796ZM108.055 53.1932C108.055 54.2472 108.234 55.1023 109.089 55.6392C109.925 56.1562 110.979 55.9971 111.616 55.2812C112.431 54.3665 112.451 52.4774 111.675 51.503C111.079 50.7473 110.024 50.5087 109.189 50.9859C108.254 51.4632 108.095 52.3581 108.055 53.1932Z" fill="white"/>
<path d="M104.992 55.9373C103.977 56.1163 103.042 56.3947 102.107 56.3947C101.272 56.3947 100.735 55.7584 100.675 54.8834C100.615 54.0084 101.073 53.4118 101.908 53.1931C102.605 53.0141 103.341 52.9744 104.037 52.7755C104.375 52.6761 104.892 52.3977 104.892 52.1789C104.912 51.7812 104.713 51.2443 104.435 50.9858C103.738 50.3892 102.326 50.7273 101.809 51.4829C101.65 51.7017 101.451 51.9006 101.252 52.0994C101.153 52.0398 101.073 51.9801 100.973 51.9204C101.113 51.5824 101.192 51.2045 101.391 50.9261C101.928 50.1904 103.46 49.8722 104.514 50.2699C105.449 50.6278 105.648 51.3835 105.608 52.2784C105.588 53.0738 105.549 53.8692 105.628 54.6646C105.688 55.1817 105.927 55.6788 106.145 56.3549C105.668 56.514 105.151 56.4543 104.992 55.9373ZM104.852 53.2329C104.057 53.3522 103.241 53.4317 102.446 53.5908C101.769 53.73 101.292 54.1476 101.391 54.9033C101.491 55.6788 102.087 55.8976 102.764 55.9174C104.335 55.9771 105.131 54.9629 104.852 53.2329Z" fill="white"/>
<path d="M83.5678 52.1192C83.4684 50.7272 84.3038 50.0909 85.7758 50.1307C87.1484 50.1505 87.8446 50.7471 87.8844 51.9601C87.9042 52.9544 87.8445 53.9487 87.9241 54.9231C87.9639 55.3407 88.2424 55.7185 88.4612 56.2355C88.0434 56.6332 87.7053 56.5537 87.1484 55.6787C86.2532 56.2753 85.3382 56.7724 84.2044 56.3946C83.4684 56.156 83.0108 55.6986 82.9512 54.9231C82.8915 54.0879 83.2893 53.4913 84.0651 53.2527C84.7812 53.0339 85.557 53.0141 86.2731 52.7953C86.6312 52.6959 87.1483 52.3777 87.1682 52.1192C87.1881 51.7414 86.9494 51.2045 86.6312 50.9659C85.8952 50.3892 84.5624 50.767 84.0253 51.5624C83.906 51.7613 83.7269 51.9403 83.5678 52.1192ZM87.1484 53.2328C86.3527 53.3521 85.5371 53.4317 84.7414 53.5908C84.0651 53.73 83.6076 54.1475 83.6872 54.9032C83.7866 55.6986 84.3834 55.8975 85.0398 55.9174C86.6312 55.977 87.4467 54.9231 87.1484 53.2328Z" fill="white"/>
<path d="M21.7853 52.1196C21.8848 50.6083 22.7998 50.0118 24.3314 50.1509C25.6642 50.2703 26.1814 50.8271 26.2212 52.1992C26.2411 53.0145 26.1814 53.8497 26.241 54.665C26.2808 55.182 26.5195 55.6792 26.7383 56.3553C26.241 56.6337 25.7836 56.3553 25.4852 55.6394C24.5503 56.3155 23.6154 56.753 22.4815 56.3752C21.7256 56.1167 21.3278 55.6195 21.288 54.8639C21.2482 54.0883 21.6262 53.4918 22.3622 53.273C23.0783 53.0543 23.854 53.0344 24.5701 52.7957C24.9481 52.6764 25.5448 52.1992 25.505 52.0799C25.3459 51.6225 25.0476 51.0259 24.6497 50.847C23.7347 50.4294 22.939 50.8271 22.3224 51.702C22.1831 51.881 21.9643 51.9804 21.7853 52.1196ZM25.4653 53.2332C24.6895 53.3525 23.8938 53.4321 23.1379 53.5912C22.4218 53.7304 21.8848 54.148 22.0041 54.9434C22.1235 55.7388 22.7998 55.9576 23.496 55.9178C25.0675 55.8581 25.7438 54.9235 25.4653 53.2332Z" fill="white"/>
<path d="M12.833 53.4318C11.3014 53.4318 9.82939 53.4318 8.37729 53.4318C8.15848 54.5454 8.59611 55.4004 9.45146 55.7783C10.3665 56.1561 11.2815 55.8777 11.8981 55.0624C12.0771 54.8238 12.3357 54.6647 12.6341 54.5454C12.3158 56.0766 11.1422 56.7725 9.65033 56.4544C8.0391 56.1163 7.20369 54.6249 7.52196 52.6761C7.78055 51.0853 8.97404 50.0512 10.4261 50.1506C11.9976 50.2302 12.8529 51.3637 12.833 53.4318ZM12.1965 52.8551C11.9976 51.3239 11.361 50.6876 10.2073 50.7273C9.09336 50.7472 8.39718 51.5227 8.31761 52.8551C9.5708 52.8551 10.8438 52.8551 12.1965 52.8551Z" fill="white"/>
<path d="M58.6642 54.6848C58.1073 56.1961 56.9536 56.7927 55.3821 56.3949C53.9698 56.0171 53.1542 54.5655 53.4128 52.8553C53.6913 51.0855 54.8251 50.0315 56.3568 50.131C57.9084 50.2304 58.704 51.2843 58.8035 53.4121C57.2718 53.4121 55.7402 53.4121 53.8107 53.4121C54.2682 54.2672 54.4472 55.0825 54.9445 55.4206C55.4617 55.7785 56.3369 55.8779 56.9535 55.7188C57.5304 55.5597 57.9879 54.9234 58.4852 54.4859C58.5449 54.5456 58.6046 54.6251 58.6642 54.6848ZM58.0476 52.8553C58.0277 51.5031 57.4111 50.7872 56.2971 50.7276C55.1036 50.6679 54.3676 51.3838 54.1687 52.8553C55.4617 52.8553 56.7347 52.8553 58.0476 52.8553Z" fill="white"/>
<path d="M75.3328 53.3126C75.3328 55.1818 74.179 56.5142 72.5479 56.534C70.8969 56.534 69.7432 55.2614 69.7034 53.3722C69.6835 51.4234 70.8173 50.1309 72.5479 50.1309C74.2387 50.1507 75.3328 51.3837 75.3328 53.3126ZM74.6962 53.3523C74.6167 51.3638 73.3635 50.2701 71.7921 50.8467C70.877 51.1848 70.3201 52.3183 70.4195 53.6506C70.519 54.9432 71.1754 55.7784 72.2297 55.8977C73.1248 56.017 73.8608 55.6789 74.2586 54.8437C74.4774 54.3864 74.557 53.8495 74.6962 53.3523Z" fill="white"/>
<path d="M35.9483 53.273C35.9682 55.1622 34.8543 56.4945 33.2232 56.5343C31.5722 56.574 30.3787 55.2815 30.3389 53.4122C30.2991 51.4634 31.4329 50.151 33.1436 50.1311C34.8543 50.1112 35.9284 51.3242 35.9483 53.273ZM31.0351 53.0145C31.0749 53.5514 31.0749 53.8099 31.1147 54.0684C31.3136 55.2019 32.0694 55.8979 33.0839 55.9377C34.0984 55.9775 34.9339 55.3411 35.1129 54.1679C35.2323 53.4122 35.2124 52.5373 34.914 51.881C34.6753 51.364 33.9592 50.9464 33.3624 50.7674C32.6463 50.5487 31.8905 50.8669 31.5125 51.5827C31.2539 52.0998 31.1544 52.6963 31.0351 53.0145Z" fill="white"/>
<path d="M119.93 53.3125C119.93 55.2016 118.796 56.514 117.165 56.5339C115.514 56.5339 114.34 55.2414 114.321 53.3721C114.301 51.4233 115.435 50.1307 117.165 50.1506C118.876 50.1506 119.93 51.3637 119.93 53.3125ZM115.037 53.3522C115.057 53.5908 115.057 53.8096 115.096 54.0482C115.295 55.1817 116.051 55.8976 117.066 55.9373C118.08 55.9771 118.916 55.3607 119.095 54.1874C119.214 53.4715 119.194 52.6562 118.975 51.9801C118.577 50.6875 116.727 50.2302 115.832 51.2245C115.355 51.7614 114.977 53.3323 115.037 53.3522Z" fill="white"/>
<path d="M68.2118 52.0597C68.0527 51.9006 67.8538 51.7813 67.7344 51.6024C67.1974 50.8268 66.342 50.4689 65.5264 50.8268C65.2281 50.966 64.8701 51.3637 64.8303 51.662C64.8104 51.9603 65.0888 52.4376 65.3673 52.5569C65.984 52.8552 66.6802 52.9944 67.3366 53.2131C68.1124 53.4716 68.6893 53.9091 68.6296 54.8238C68.5699 55.7386 67.9931 56.1363 67.1974 56.355C65.4867 56.8124 64.313 56.1959 64.1141 54.4261C64.313 54.6051 64.5717 54.7244 64.7109 54.9431C65.2679 55.7982 66.2823 56.1959 67.1576 55.7187C67.4758 55.5397 67.8538 55.1022 67.8737 54.7841C67.8936 54.4659 67.5157 54.0085 67.1974 53.8693C66.6205 53.5909 65.9442 53.5114 65.3076 53.3125C64.512 53.0739 63.955 52.5966 64.0545 51.6819C64.134 50.787 64.691 50.3496 65.5066 50.1706C67.1178 49.8723 68.1919 50.5087 68.2118 52.0597Z" fill="white"/>
<path d="M41.3589 52.0599C41.16 51.8809 40.9214 51.7218 40.7821 51.5031C40.3047 50.8071 39.2703 50.4491 38.5343 50.8667C38.236 51.0258 37.9376 51.4434 37.9177 51.7616C37.8978 52.0201 38.2161 52.4377 38.4747 52.5769C38.9919 52.8354 39.5886 52.9746 40.1654 53.1337C41.0407 53.3922 41.7966 53.77 41.7767 54.8438C41.7568 55.6989 41.1004 56.2557 39.9466 56.4745C38.6736 56.7131 37.5397 56.1961 37.1618 55.1422C37.1021 54.9831 37.122 54.7842 37.2811 54.4461C37.4801 54.6251 37.7188 54.7842 37.858 55.0029C38.415 55.8381 39.4693 56.216 40.3445 55.7387C40.6628 55.5597 40.981 55.1223 41.0009 54.7643C41.0208 54.4859 40.6627 54.0484 40.3643 53.9092C39.7676 53.6308 39.1112 53.5314 38.4747 53.3524C37.6591 53.1138 37.1021 52.6564 37.1618 51.7417C37.2215 50.827 37.8182 50.3497 38.6934 50.1906C40.2251 49.9122 41.16 50.4292 41.5579 51.861C41.4982 51.9207 41.4186 51.9803 41.3589 52.0599Z" fill="white"/>
<path d="M125.38 52.0597C125.181 51.8807 125.002 51.6818 124.784 51.5426C124.306 51.2444 123.829 50.8665 123.312 50.7472C122.675 50.6279 122.019 50.8466 121.879 51.6222C121.74 52.3579 122.357 52.5767 122.874 52.7556C123.491 52.9744 124.207 53.0341 124.744 53.3721C125.181 53.6505 125.718 54.2471 125.699 54.6846C125.679 55.1817 125.241 55.8777 124.784 56.1362C123.132 57.0907 121.243 56.2357 121.104 54.3067C121.442 54.605 121.7 54.7442 121.84 54.9629C122.416 55.8578 123.53 56.2158 124.386 55.6987C124.684 55.5198 124.982 55.1022 124.982 54.784C124.982 54.4857 124.664 54.0482 124.386 53.909C123.769 53.6306 123.073 53.5113 122.397 53.3125C121.621 53.0738 121.104 52.6164 121.143 51.7614C121.183 50.8864 121.72 50.3893 122.556 50.1904C124.087 49.8524 125.082 50.3893 125.38 52.0597Z" fill="white"/>
<path d="M77.3823 50.7273C78.1979 50.5085 78.914 50.1903 79.6102 50.1903C80.7241 50.1705 81.4004 50.8863 81.4601 51.98C81.5198 53.2726 81.4999 54.5652 81.48 55.8379C81.48 55.9969 81.2811 56.1759 81.1816 56.335C81.0623 56.156 80.8434 55.9572 80.8235 55.7782C80.7838 54.7243 80.8236 53.6703 80.8037 52.6164C80.7838 51.2841 80.3661 50.767 79.3118 50.7273C78.2377 50.7074 77.442 51.4034 77.3624 52.5369C77.3027 53.551 77.3624 54.5851 77.3226 55.5992C77.3226 55.8379 77.1436 56.0765 77.0441 56.3151C76.9248 56.0964 76.706 55.8776 76.6861 55.639C76.6463 54.0879 76.6463 52.5368 76.6861 50.9858C76.6861 50.7471 76.885 50.5085 77.0044 50.2699C77.1834 50.4886 77.3425 50.6676 77.3823 50.7273Z" fill="white"/>
<path d="M98.6067 50.8267C97.2541 50.8267 96.0804 50.8267 94.867 50.8267C95.1654 50.2103 97.274 50.0512 99.7008 50.4091C98.5073 52.3778 96.8761 53.8493 95.4638 55.8379C96.9756 55.8379 98.2884 55.8379 99.6013 55.8379C99.6013 55.9572 99.6013 56.0765 99.6013 56.1958C97.9702 56.1958 96.3391 56.1958 94.5488 56.1958C94.708 55.8777 94.8074 55.5197 95.0262 55.2413C95.981 54.0482 96.9557 52.8948 97.9304 51.7216C98.1293 51.5028 98.3083 51.2244 98.6067 50.8267Z" fill="white"/>
<path d="M34.9531 20.1434C35.152 18.5725 35.6294 18.1947 37.0616 18.5924C37.2606 18.652 37.4794 18.9503 37.5589 19.1889C37.6385 19.4673 37.5789 19.7656 37.5789 20.0639C37.5789 21.5355 37.0816 21.9729 35.6693 21.4957C35.3311 21.3764 35.1918 20.6008 34.9531 20.1434Z" fill="white"/>
<path d="M20.5109 20.0837C20.5109 21.5155 19.9937 21.9132 18.5813 21.5354C18.4421 21.4956 18.2034 21.3763 18.2034 21.2967C18.1636 20.4814 18.0244 19.6263 18.2432 18.8707C18.3227 18.6321 19.3372 18.5923 19.934 18.5923C20.1329 18.5923 20.3915 19.0099 20.5109 19.3082C20.5904 19.5269 20.5109 19.8252 20.5109 20.0837Z" fill="white"/>
<path d="M28.1495 56.2356C28.1495 53.6107 28.1296 50.9659 28.1694 48.341C28.1694 48.1421 28.4877 47.9632 28.6468 47.7842C28.7264 47.8438 28.8259 47.9035 28.9054 47.9632C28.9054 50.5881 28.9253 53.2329 28.8855 55.8578C28.8855 56.0566 28.5673 56.2356 28.4081 56.4146C28.3286 56.3549 28.2291 56.2952 28.1495 56.2356Z" fill="white"/>
<path d="M90.3311 56.4348C90.1918 56.216 89.9134 56.0172 89.9134 55.7985C89.8935 53.3326 89.8935 50.8469 89.9134 48.3811C89.9134 48.1822 90.1918 47.9635 90.351 47.7646C90.4305 47.8243 90.53 47.8641 90.6096 47.9237C90.6096 50.6878 90.6096 53.4321 90.6096 56.1962C90.5101 56.2757 90.4305 56.3552 90.3311 56.4348Z" fill="white"/>
<path d="M60.6133 50.2106C60.7923 50.4493 60.9515 50.7078 61.1106 50.9265C61.5482 50.7078 62.0256 50.4095 62.5428 50.1907C62.6423 50.151 62.8412 50.3299 63.0003 50.4095C62.9009 50.5487 62.8014 50.7674 62.6821 50.8072C61.1902 51.1055 61.031 52.2191 60.9913 53.4321C60.9714 54.1878 61.0112 54.9434 60.9714 55.6991C60.9515 55.9377 60.7725 56.1564 60.6531 56.3752C60.5736 56.3553 60.4741 56.3155 60.3945 56.2957C60.3945 54.3071 60.3945 52.3185 60.3945 50.33C60.4542 50.3101 60.5337 50.2504 60.6133 50.2106Z" fill="white"/>
<path d="M92.9383 56.3949C92.7991 56.2159 92.5405 56.0171 92.5405 55.8381C92.5008 54.1677 92.5207 52.4774 92.5405 50.8071C92.5405 50.6281 92.7395 50.469 92.8389 50.29C92.9583 50.4491 93.1771 50.5883 93.1771 50.7474C93.197 52.5769 93.1969 54.4263 93.1969 56.2557C93.1174 56.3154 93.0378 56.3551 92.9383 56.3949Z" fill="white"/>
</svg>
