<svg width="192" height="47" viewBox="0 0 192 47" fill="none" xmlns="http://www.w3.org/2000/svg">
<path d="M13.9634 0C20.468 1.01417 26.3958 2.72435 32.0848 5.21006C36.9384 7.33782 41.4936 9.9826 45.8101 13.0649C46.6058 13.6416 46.8644 14.1586 46.7053 15.1727C44.8951 26.5473 40.5587 36.8282 33.7358 46.0949C33.2186 46.7909 32.7214 47.0693 31.8262 46.9102C20.5277 44.9018 10.2039 40.6065 0.854752 33.9448C0.0789733 33.388 -0.139836 32.8909 0.0391897 31.9562C2.1875 20.6612 6.48412 10.2809 13.0484 0.835193C13.3269 0.417595 13.7645 0.159085 13.9634 0ZM24.3668 16.7835C17.8622 16.7636 12.5312 22.0532 12.5113 28.5359C12.4914 35.0186 17.7628 40.4076 24.2276 40.4673C30.7521 40.5269 36.1228 35.1578 36.1228 28.6154C36.1427 22.0929 30.8714 16.8034 24.3668 16.7835Z" fill="white"/>
<path d="M58.3027 37.1464C59.9736 31.6579 61.565 26.4081 63.1961 21.1583C63.2757 20.8799 63.7332 20.5418 64.0316 20.5418C65.8218 20.4822 67.632 20.522 69.5615 20.522C69.8599 23.127 70.1582 25.6524 70.4367 28.158C70.5362 28.158 70.6356 28.1779 70.7351 28.1779C71.5705 26.0501 72.4458 23.9423 73.2017 21.7747C73.5398 20.8202 73.9774 20.4026 75.0317 20.4822C76.6429 20.5816 78.2542 20.5021 79.9848 20.5021C79.9848 26.07 79.9848 31.5187 79.9848 37.0469C78.1348 37.0469 76.3247 37.0469 74.3355 37.0469C74.4946 34.2629 74.6737 31.5386 74.8328 28.7944C74.7731 28.7546 74.6935 28.7347 74.6339 28.695C74.4946 29.0131 74.3355 29.3114 74.1963 29.6296C73.3807 31.7375 72.5253 33.8254 71.7695 35.9532C71.4512 36.8679 70.9937 37.2458 70.019 37.1464C69.2631 37.0668 68.4873 37.1264 67.5723 37.1264C67.254 34.3425 66.9556 31.6181 66.6573 28.8938C66.5777 28.8739 66.4981 28.854 66.4186 28.8341C66.3191 29.2319 66.1998 29.6097 66.1003 30.0074C65.603 32.0755 65.1455 34.1436 64.5686 36.1918C64.4692 36.5696 63.9321 37.0469 63.5542 37.0668C61.8833 37.206 60.2123 37.1464 58.3027 37.1464Z" fill="white"/>
<path d="M130.212 28.894C130.232 34.0245 126.174 38.1408 121.062 38.1408C115.969 38.1408 111.832 34.0046 111.852 28.9139C111.872 23.8828 115.929 19.7665 120.962 19.7068C126.034 19.6671 130.172 23.7834 130.212 28.894ZM121.161 25.7322C119.391 25.6725 117.939 27.0049 117.859 28.7548C117.759 30.5843 119.132 32.0956 120.922 32.1552C122.732 32.2149 124.224 30.803 124.244 28.9934C124.284 27.2435 122.911 25.7918 121.161 25.7322Z" fill="white"/>
<path d="M163.728 37.0868C161.758 37.0868 159.829 37.0868 157.76 37.0868C157.661 36.4107 157.561 35.7346 157.422 34.8795C156.268 34.8795 155.135 34.7801 154.06 34.9392C153.663 34.9988 153.185 35.6153 153.026 36.0926C152.748 36.9079 152.35 37.226 151.474 37.1862C149.764 37.1266 148.073 37.1664 146.203 37.1664C146.402 36.6692 146.541 36.2914 146.7 35.9533C149.068 31.2007 151.455 26.448 153.802 21.6755C154.2 20.8602 154.637 20.4425 155.632 20.5022C157.064 20.6016 158.516 20.4823 159.948 20.5619C160.306 20.5818 160.923 20.9397 160.963 21.238C161.938 26.3287 162.833 31.4194 163.748 36.53C163.807 36.6692 163.748 36.8482 163.728 37.0868ZM156.905 26.4281C156.786 26.4281 156.666 26.4082 156.567 26.4082C156.03 27.8997 155.473 29.3911 154.896 30.9819C155.751 30.9819 156.447 30.9819 157.243 30.9819C157.124 29.3911 157.004 27.9196 156.905 26.4281Z" fill="white"/>
<path d="M148.969 20.5022C148.75 21.0391 148.611 21.417 148.432 21.755C146.065 26.5276 143.658 31.2803 141.311 36.0528C140.913 36.8482 140.495 37.2261 139.58 37.1465C138.287 37.0471 136.596 37.5442 135.761 36.9079C134.945 36.2715 134.945 34.5415 134.647 33.2887C133.732 29.3315 132.857 25.3742 131.962 21.417C131.902 21.1585 131.882 20.9 131.822 20.5619C133.911 20.5619 135.92 20.5619 138.048 20.5619C138.347 23.2664 138.645 25.931 138.944 28.5957C139.043 28.6156 139.142 28.6156 139.242 28.6355C140.097 26.3884 141.032 24.1811 141.808 21.8942C142.186 20.7409 142.763 20.3631 143.956 20.4625C145.587 20.6017 147.199 20.5022 148.969 20.5022Z" fill="white"/>
<path d="M95.3608 24.6979C93.7496 24.6979 92.2179 24.6979 90.5868 24.6979C90.4674 25.2944 90.3879 25.8115 90.2486 26.5472C91.7405 26.5472 93.113 26.5472 94.585 26.5472C94.3861 27.9989 94.227 29.2318 94.0678 30.584C92.6356 30.584 91.3029 30.584 89.811 30.584C89.6917 31.28 89.6121 31.8766 89.4728 32.6919C91.1239 32.6919 92.6754 32.6919 94.3463 32.6919C94.1474 34.2827 93.9485 35.6549 93.7695 37.1463C90.4873 37.1463 87.3046 37.1463 84.1021 37.1463C83.744 37.1463 83.4059 37.0866 82.8887 37.0468C83.5849 31.5186 84.2811 26.07 84.9574 20.5815C88.6175 20.5815 92.1582 20.5815 95.8581 20.5815C95.699 21.9735 95.5398 23.286 95.3608 24.6979Z" fill="white"/>
<path d="M109.801 26.5273C106.977 24.9961 105.246 25.0557 103.874 26.6466C102.78 27.8994 102.66 29.6294 103.575 30.8822C104.709 32.4532 106.022 32.5526 109.205 31.2799C109.006 32.8708 108.886 34.4417 108.588 35.9928C108.508 36.4104 107.931 36.9473 107.494 37.0666C104.212 37.9615 101.109 37.6433 98.8807 34.8196C96.4539 31.7572 96.434 28.2573 98.0453 24.8568C99.5968 21.5956 102.362 19.9451 106.022 20.0843C107.494 20.144 108.926 20.5218 110.517 20.7604C110.259 22.7689 110.04 24.5984 109.801 26.5273Z" fill="white"/>
<path d="M172.342 31.9561C174.073 31.9561 175.644 31.9561 177.434 31.9561C177.236 33.6066 177.076 35.0981 176.838 36.5895C176.798 36.7883 176.46 36.9872 176.201 37.1065C176.062 37.186 175.843 37.1264 175.664 37.1264C172.382 37.1264 169.08 37.1264 165.639 37.1264C166.335 31.5385 167.031 26.0899 167.727 20.5815C169.736 20.5815 171.666 20.5815 173.735 20.5815C173.277 24.3598 172.82 28.0983 172.342 31.9561Z" fill="white"/>
<path d="M146.721 13.3434C145.985 14.8945 145.249 16.4456 144.513 18.0166C144.354 18.0166 144.195 18.0166 144.055 18.0365C143.359 16.4655 142.663 14.8945 141.987 13.3434C141.867 13.3434 141.768 13.3633 141.649 13.3633C141.649 14.8746 141.649 16.3661 141.649 17.8774C141.45 17.8774 141.251 17.8774 141.052 17.8774C140.873 16.0479 140.992 14.1985 140.992 12.3889C141.927 12.0111 142.365 12.3492 142.663 13.1048C143.14 14.298 143.717 15.4712 144.254 16.7041C145.647 15.332 145.368 12.8662 147.656 11.9912C147.656 14.1786 147.656 16.028 147.656 17.8774C147.517 17.8973 147.357 17.8973 147.218 17.9172C147.218 16.4058 147.218 14.9144 147.218 13.4031C147.039 13.3633 146.88 13.3633 146.721 13.3434Z" fill="white"/>
<path d="M121.717 17.8973C121.678 17.2211 121.618 16.5649 121.598 15.8888C121.578 14.994 121.558 14.0792 121.618 13.1844C121.638 12.8463 121.916 12.5281 122.075 12.21C122.414 12.3889 122.871 12.4884 123.05 12.7668C123.846 13.9599 124.562 15.1928 125.656 16.4058C125.656 15.0138 125.656 13.6218 125.656 12.21C125.815 12.21 125.974 12.21 126.133 12.21C126.133 14.0593 126.133 15.9087 126.133 18.116C124.164 16.9825 123.846 14.7752 122.294 13.2241C122.294 14.8945 122.294 16.3661 122.294 17.8376C122.115 17.8575 121.916 17.8774 121.717 17.8973Z" fill="white"/>
<path d="M170.79 16.7239C170.79 15.0138 170.79 13.6218 170.79 12.2298C170.929 12.2298 171.049 12.2298 171.188 12.2298C171.188 14.0791 171.188 15.9484 171.188 18.1159C169.199 17.0222 168.92 14.7751 167.349 13.2241C167.349 14.8944 167.349 16.3859 167.349 17.8574C167.17 17.8574 166.991 17.8574 166.812 17.8574C166.553 16.0279 166.732 14.1984 166.732 12.0508C169.04 12.8263 169.099 15.2126 170.79 16.7239Z" fill="white"/>
<path d="M64.0117 15.113C64.0117 13.1642 65.0063 12.0903 66.8562 12.0903C68.6067 12.0903 69.5814 13.0647 69.6212 14.8942C69.661 16.8629 68.5868 17.9765 66.6772 17.9566C64.887 17.9367 64.0117 17.0021 64.0117 15.113ZM68.8056 14.9936C68.8056 13.5022 68.0696 12.6471 66.7966 12.6471C65.5434 12.6471 64.8074 13.5221 64.7875 14.9936C64.7676 16.5248 65.4439 17.3799 66.6971 17.4197C67.9901 17.4595 68.8255 16.505 68.8056 14.9936Z" fill="white"/>
<path d="M119.886 14.9341C119.886 16.9028 118.931 17.9368 117.061 17.9567C115.212 17.9766 114.316 17.0221 114.316 15.0534C114.316 13.1245 115.371 12.0507 117.201 12.0706C118.991 12.1104 119.886 13.0649 119.886 14.9341ZM115.132 15.0534C115.132 16.5846 115.828 17.4198 117.081 17.4198C118.374 17.4198 119.13 16.5051 119.11 14.954C119.09 13.4427 118.374 12.6274 117.081 12.6473C115.828 12.687 115.132 13.5421 115.132 15.0534Z" fill="white"/>
<path d="M90.9452 15.0733C91.3828 15.9681 91.8204 16.8431 92.2381 17.7181C92.079 17.7976 91.9199 17.8971 91.7806 17.9766C91.4623 17.4397 91.1043 16.9028 90.8059 16.346C90.4081 15.5903 89.8909 15.1727 88.956 15.3915C88.8565 16.2664 88.777 17.1016 88.6775 17.917C88.5383 17.917 88.399 17.897 88.2598 17.897C88.2598 16.0676 88.2598 14.258 88.2598 12.2893C89.4334 12.2098 90.7462 11.7723 91.6215 12.9853C92.2978 13.9 91.5817 14.5762 90.9452 15.0733ZM88.9162 15.0534C89.7517 14.6756 90.3683 14.4569 90.9054 14.0989C91.0446 14.0194 90.9651 13.2438 90.8059 13.1643C90.2688 12.8859 89.6323 12.7864 88.9162 12.5876C88.9162 13.4626 88.9162 14.0194 88.9162 15.0534Z" fill="white"/>
<path d="M75.8263 18.1557C73.8769 16.9427 73.5188 14.7752 71.9076 13.1048C71.9076 14.9144 71.9076 16.3859 71.9076 17.8574C71.7684 17.8574 71.6291 17.8574 71.5098 17.8574C71.5098 16.028 71.5098 14.2184 71.5098 12.1304C73.7376 12.7468 73.678 15.2325 75.3688 16.5649C75.3688 15.0337 75.3688 13.6218 75.3688 12.2298C75.5279 12.2298 75.687 12.2298 75.8263 12.2497C75.8263 14.0792 75.8263 15.9086 75.8263 18.1557Z" fill="white"/>
<path d="M165.001 18.1158C163.39 15.8091 161.798 15.2921 160.227 18.1357C160.147 18.0363 160.068 17.9368 159.988 17.8374C160.128 17.38 160.247 16.9028 160.406 16.4653C160.883 15.2523 161.361 14.0392 161.858 12.8262C162.137 12.1302 162.733 11.7524 163.111 12.5081C163.947 14.1983 164.563 16.0079 165.26 17.7778C165.16 17.8772 165.081 17.9965 165.001 18.1158ZM162.515 12.7865C162.057 14.0393 161.759 14.8546 161.42 15.7693C162.216 15.7693 162.853 15.7693 163.648 15.7693C163.29 14.8148 162.972 13.9796 162.515 12.7865Z" fill="white"/>
<path d="M186.365 18.0761C184.733 15.9682 183.102 14.9739 181.511 18.3942C181.411 18.1954 181.332 17.9965 181.232 17.7976C181.571 16.8829 181.929 15.9682 182.287 15.0535C182.605 14.258 182.903 13.4626 183.241 12.6871C183.54 12.0109 184.157 11.8916 184.455 12.5081C185.251 14.2183 185.907 16.0278 186.603 17.7778C186.524 17.8772 186.444 17.9766 186.365 18.0761ZM183.878 12.8064C183.421 14.0194 183.102 14.8546 182.764 15.7693C183.58 15.7693 184.216 15.7693 184.992 15.7693C184.634 14.7949 184.316 13.9796 183.878 12.8064Z" fill="white"/>
<path d="M94.4266 12.1699C94.4664 12.5676 94.5459 12.9653 94.5658 13.363C94.5857 13.9994 94.5658 14.6357 94.5658 15.2522C94.5857 16.7436 95.1029 17.4197 96.1969 17.4197C97.291 17.4197 97.7883 16.7635 97.8082 15.2323C97.8281 14.238 97.8082 13.2239 98.0668 12.2296C98.6237 13.7807 98.8425 15.4311 98.1662 16.9027C97.8877 17.4794 96.6942 17.8373 95.8986 17.897C94.6056 17.9964 93.9094 17.2209 93.8497 15.9084C93.8099 14.6755 93.8497 13.4426 93.8497 12.2097C94.0486 12.2097 94.2475 12.1898 94.4266 12.1699Z" fill="white"/>
<path d="M131.663 12.6471C130.887 12.7068 130.111 12.7466 129.335 12.8062C128.361 15.1129 130.39 14.4766 131.345 15.0931C130.668 15.1527 129.992 15.2124 128.997 15.2919C129.196 16.0277 129.196 16.9623 129.614 17.2805C130.091 17.6384 130.986 17.4197 131.703 17.7378C130.668 17.7378 129.614 17.7378 128.401 17.7378C128.401 16.147 128.361 14.5363 128.44 12.9454C128.46 12.6869 128.878 12.2693 129.156 12.2494C129.992 12.15 130.827 12.2096 131.663 12.2096C131.643 12.3488 131.663 12.488 131.663 12.6471Z" fill="white"/>
<path d="M133.155 17.1214C133.771 17.2209 134.388 17.4396 134.965 17.38C135.323 17.3402 135.82 16.9425 135.9 16.6044C135.959 16.3061 135.601 15.8289 135.323 15.5505C135.084 15.3118 134.686 15.2323 134.368 15.0732C133.553 14.7153 132.936 14.1784 133.214 13.204C133.513 12.1898 134.408 12.0506 135.303 12.1301C135.701 12.1699 136.059 12.3887 136.437 12.5279C136.397 12.6472 136.357 12.7665 136.317 12.8659C135.999 12.8062 135.681 12.6472 135.402 12.7068C134.925 12.8062 134.468 13.025 133.99 13.204C134.249 13.6216 134.428 14.1187 134.766 14.4369C135.084 14.7352 135.661 14.7551 135.94 15.0533C136.317 15.4312 136.795 16.0277 136.735 16.4453C136.656 16.9425 136.119 17.5788 135.621 17.7777C134.726 18.1555 133.751 18.1356 133.155 17.1214Z" fill="white"/>
<path d="M187.281 17.0618C188.256 17.2209 188.873 17.4396 189.469 17.38C189.827 17.3402 190.325 16.9425 190.404 16.6044C190.484 16.3061 190.106 15.8289 189.827 15.5505C189.589 15.3118 189.191 15.2323 188.873 15.0732C188.077 14.7153 187.42 14.1784 187.719 13.204C188.017 12.1898 188.892 12.0506 189.807 12.1301C190.185 12.1699 190.563 12.3887 190.941 12.5279C190.902 12.6472 190.862 12.7665 190.842 12.8858C190.524 12.8262 190.205 12.6671 189.927 12.7267C189.449 12.8261 188.992 13.0648 188.515 13.2239C188.773 13.6415 188.952 14.1386 189.29 14.4568C189.609 14.755 190.185 14.7749 190.464 15.0732C190.842 15.451 191.319 16.0476 191.26 16.4652C191.18 16.9623 190.643 17.5987 190.146 17.7975C189.231 18.1157 188.236 18.1754 187.281 17.0618Z" fill="white"/>
<path d="M104.67 16.9623C103.934 18.0958 102.203 18.2748 101.149 17.4396C100.015 16.5248 99.8758 14.1982 100.89 13.0051C101.865 11.8716 103.596 11.8318 104.769 13.0448C103.416 12.7863 101.925 12.15 101.368 13.7806C101.069 14.6556 101.149 15.8885 101.586 16.6839C102.243 17.877 103.516 17.3401 104.67 16.9623Z" fill="white"/>
<path d="M110.3 17.1218C109.583 18.0166 108.629 18.0961 107.654 17.8376C106.301 17.4996 105.864 16.4059 105.844 15.1531C105.844 13.8605 106.242 12.7469 107.614 12.2697C108.629 11.9316 109.544 12.031 110.3 12.906C109.126 12.7469 107.873 12.1702 107.057 13.5423C106.48 14.5366 106.441 15.6502 107.117 16.6047C107.972 17.8376 109.166 17.3405 110.3 17.1218Z" fill="white"/>
<path d="M63.1364 16.8234C61.9031 18.1955 60.073 18.2353 59.0983 17.1814C58.064 16.0678 58.2032 13.7213 59.337 12.727C60.4112 11.7924 62.0423 11.8918 62.9175 13.1048C61.6445 12.727 60.252 12.1503 59.6553 13.602C59.2972 14.4769 59.337 15.8093 59.7548 16.6246C60.4112 17.8774 61.7041 17.3802 63.1364 16.8234Z" fill="white"/>
<path d="M77.5371 17.0422C78.3129 17.2013 78.8699 17.4399 79.4069 17.3802C79.8048 17.3405 80.4015 16.9626 80.501 16.6246C80.5806 16.3263 80.1429 15.8292 79.8446 15.4911C79.6456 15.2724 79.2876 15.2127 79.0091 15.0735C78.1339 14.6957 77.5172 14.119 77.8753 13.1049C78.2134 12.1106 79.1285 12.031 80.0037 12.1304C80.3816 12.1702 80.7397 12.4287 81.0977 12.5878C81.058 12.6872 81.0182 12.7867 80.9784 12.8861C80.6004 12.8066 80.2225 12.6077 79.8644 12.6674C79.4268 12.7469 79.029 13.0253 78.6113 13.2043C78.8301 13.602 78.9494 14.0792 79.2677 14.3576C79.586 14.6559 80.1628 14.6758 80.4413 14.9741C80.8391 15.3917 81.3762 16.0081 81.2967 16.4456C81.1972 16.9626 80.6203 17.5791 80.1031 17.8177C79.1682 18.2751 78.2731 17.9172 77.5371 17.0422Z" fill="white"/>
<path d="M159.193 13.2038C157.8 12.7067 156.647 12.2493 155.831 13.4425C155.135 14.4566 155.095 15.61 155.771 16.6242C156.607 17.8571 157.8 17.3798 158.974 17.1213C158.357 18.0162 157.442 18.0758 156.507 17.8968C155.294 17.6781 154.697 16.823 154.558 15.6299C154.399 14.039 154.956 12.8459 156.11 12.3488C157.243 11.8715 158.238 12.0704 159.193 13.2038Z" fill="white"/>
<path d="M180.457 13.1843C179.084 12.6673 177.95 12.2696 177.155 13.4627C176.478 14.4769 176.458 15.6502 177.155 16.6444C177.97 17.7779 179.104 17.4597 180.238 17.062C179.8 17.9966 178.945 17.9967 178.129 17.9171C176.856 17.7779 176.12 17.0222 175.941 15.7496C175.722 14.099 176.279 12.8463 177.473 12.3292C178.587 11.8719 179.601 12.0707 180.457 13.1843Z" fill="white"/>
<path d="M150.759 12.8063C149.904 15.1926 151.873 14.4568 152.808 15.0733C152.132 15.1329 151.475 15.1926 150.461 15.292C150.64 16.0278 150.6 16.9426 151.038 17.2607C151.515 17.6187 152.41 17.3999 153.126 17.7181C152.132 17.7181 151.117 17.7181 149.884 17.7181C149.884 16.1073 149.864 14.4171 149.904 12.7268C149.904 12.5478 150.202 12.2297 150.381 12.2297C151.276 12.17 152.171 12.2098 153.086 12.2098C153.086 12.349 153.086 12.508 153.086 12.6472C152.331 12.7069 151.555 12.7467 150.759 12.8063Z" fill="white"/>
<path d="M84.2404 12.8658C83.405 12.7664 82.848 12.7067 82.291 12.6471C82.291 12.5476 82.291 12.4681 82.3109 12.3687C83.763 12.3687 85.2151 12.3687 86.6672 12.3687C86.6871 12.4482 86.6871 12.5476 86.707 12.6272C86.1699 12.7067 85.6129 12.7664 84.8173 12.8857C84.8173 14.5362 84.8173 16.2265 84.8173 17.9168C84.6382 17.9168 84.4592 17.9168 84.2603 17.9366C84.2404 16.2265 84.2404 14.5561 84.2404 12.8658Z" fill="white"/>
<path d="M183.401 32.9706C183.143 32.9308 182.864 32.8115 182.625 32.8711C182.446 32.9109 182.267 32.9905 182.088 33.07C181.83 33.1893 181.73 33.5274 181.889 33.7859C182.009 33.9649 182.128 34.1637 182.247 34.3427C182.267 34.3824 182.327 34.3824 182.367 34.4023C183.262 34.7802 184.237 35.158 183.7 36.4307C183.341 37.3056 182.068 37.4051 180.557 36.5301C181.293 36.6295 181.69 36.7687 182.068 36.7091C182.307 36.6693 182.546 36.5301 182.765 36.3909C183.003 36.2517 183.083 35.9534 182.944 35.7148C182.824 35.496 182.705 35.2972 182.546 35.0983C182.446 34.979 182.228 34.9393 182.068 34.8796C181.293 34.5018 180.477 34.0245 181.074 33.0501C181.671 32.1155 182.586 32.2149 183.401 32.9706Z" fill="white"/>
<path d="M187.996 36.5897C188.852 36.6693 189.409 36.7289 189.946 36.7886C189.946 36.8681 189.946 36.9477 189.946 37.0272C189.23 37.0272 188.514 37.0272 187.658 37.0272C187.658 35.5756 187.658 34.0444 187.658 32.5331C187.778 32.5331 187.877 32.5132 187.996 32.5132C187.996 33.8256 187.996 35.158 187.996 36.5897Z" fill="white"/>
<path d="M112.447 11.9912C112.447 14.0991 112.447 15.9882 112.447 18.0166C111.671 17.1018 111.651 13.0849 112.447 11.9912Z" fill="white"/>
<path d="M173.615 17.8575C173.615 15.9684 173.615 14.0792 173.615 12.21C173.735 12.21 173.854 12.21 173.993 12.21C174.351 14.0792 174.192 15.9684 174.093 17.8575C173.933 17.8575 173.774 17.8575 173.615 17.8575Z" fill="white"/>
</svg>
