<svg width="182" height="51" viewBox="0 0 182 51" fill="none" xmlns="http://www.w3.org/2000/svg">
<path d="M181.844 33.9913C181.168 34.7072 180.471 35.423 179.835 36.1588C179.477 36.5764 179.099 36.7355 178.542 36.6559C176.871 36.4173 175.18 36.3378 173.529 35.9997C171.202 35.5423 170.088 34.3691 169.809 31.9828C169.591 29.9943 169.63 27.9858 169.551 25.9774C169.491 24.4462 169.431 22.8951 169.292 21.3639C169.034 18.6793 167.223 17.4862 164.816 16.9692C164.12 16.8101 163.384 16.7902 162.509 16.6908C162.509 17.1879 162.509 17.5459 162.509 17.9237C162.509 22.9349 162.489 27.946 162.529 32.9572C162.529 33.693 162.35 34.2299 161.793 34.7072C161.196 35.2043 160.679 35.8009 159.983 36.5168C159.983 36.0395 159.983 35.7213 159.983 35.423C159.983 29.4375 160.003 23.4718 159.963 17.4862C159.963 16.7107 160.241 16.1539 160.659 15.5175C161.674 14.0062 162.827 13.171 164.757 13.688C166.09 14.046 167.502 14.1454 168.855 14.4636C170.327 14.8017 171.222 15.8755 171.56 17.2874C171.858 18.4805 172.057 19.7333 172.117 20.9861C172.196 23.0542 172.097 25.1223 172.157 27.1904C172.176 28.1051 172.336 29.0398 172.554 29.9346C173.072 32.0624 174.762 32.8777 176.692 33.3152C177.428 33.4743 178.184 33.514 179.059 33.6134C179.079 33.1958 179.099 32.8578 179.099 32.5197C179.099 27.4489 179.119 22.3781 179.079 17.3072C179.079 16.6709 179.238 16.1936 179.715 15.776C180.451 15.0999 181.128 14.384 181.824 13.688C181.844 20.469 181.844 27.2302 181.844 33.9913Z" fill="white"/>
<path d="M0.272526 15.1794C0.272526 14.7221 0.352073 14.1255 0.252614 13.5687C-0.36403 9.8302 2.81865 6.25081 6.65776 5.69401C11.5114 4.97813 16.3451 4.10316 21.1788 3.30774C25.913 2.5322 30.6473 1.83619 35.3616 0.961217C37.311 0.603276 38.8825 1.06064 40.3942 2.2339C42.6022 3.92418 44.8301 5.57469 47.1574 7.086C49.5842 8.65696 50.2605 10.8643 50.0019 13.5488C49.9622 13.9863 49.9025 14.4238 49.9025 14.8613C49.8229 18.7589 49.7831 22.6763 49.6837 26.5739C49.5842 30.2727 49.5046 33.9714 49.3256 37.6701C49.1864 40.5734 46.6601 43.3176 43.736 43.9539C34.0885 46.0618 24.441 48.1896 14.8134 50.3373C12.2474 50.9139 10.2184 50.377 8.50774 48.3089C6.57824 45.9624 4.52939 43.7352 2.48054 41.4882C1.40639 40.3149 0.889146 38.9825 0.869254 37.3718C0.769795 31.605 0.630609 25.8381 0.491367 20.0713C0.451583 18.4606 0.352093 16.8896 0.272526 15.1794ZM41.8463 7.086C41.4882 7.12577 41.2098 7.12575 40.9313 7.16553C37.5099 7.76209 34.1084 8.37858 30.687 8.99503C25.2367 9.96943 19.7864 10.9637 14.336 11.8983C10.3974 12.5744 7.61259 15.0005 7.05562 18.6197C6.85671 19.8923 7.07549 21.2247 7.09539 22.5371C7.15506 26.2359 7.21477 29.9346 7.31423 33.6333C7.3739 36.3775 7.45346 39.1019 7.55292 41.8461C7.55292 42.1444 7.65239 42.4426 7.69217 42.7807C16.922 40.8717 26.0323 39.0621 35.1229 37.0934C38.6238 36.3378 41.1103 34.3293 41.4485 30.4715C41.6275 28.3636 41.727 26.2359 41.7469 24.1081C41.8264 19.8327 41.8264 15.5374 41.8463 11.262C41.8463 9.88988 41.8463 8.53765 41.8463 7.086Z" fill="white"/>
<path d="M59.6689 28.9403C59.7684 29.517 59.828 30.034 59.9673 30.5311C60.4646 32.3407 61.6779 33.2157 64.1047 33.3151C67.3073 33.4543 70.5099 33.514 73.7125 33.4941C76.0199 33.4742 76.7161 32.4998 76.2387 30.213C75.8011 28.0653 74.5877 27.071 72.0415 26.9517C69.0379 26.7926 66.0342 26.733 63.0305 26.5739C61.9962 26.5142 60.9419 26.375 59.9274 26.1364C58.3162 25.7785 57.3018 24.5655 57.2222 22.6962C57.1625 21.2048 57.2222 19.6537 57.5802 18.202C58.2168 15.6169 60.2656 14.3244 62.7322 13.9664C66.9095 13.3897 71.1067 13.2505 75.264 14.0857C77.5914 14.5431 78.8047 16.0941 78.8246 18.381C78.8246 18.6395 78.7649 18.9975 78.5859 19.1764C77.8897 19.9122 77.1338 20.6082 76.3381 21.3837C76.2984 21.0457 76.2785 20.7673 76.2387 20.469C75.9403 18.6395 74.8463 17.4066 73.0759 17.1879C70.4303 16.8498 67.7449 16.7901 65.0595 16.7106C63.9854 16.6708 62.9112 16.8498 61.8371 16.9691C60.1264 17.1481 59.4103 18.1026 59.7087 19.773C60.1264 22.1792 61.1209 23.1734 63.5875 23.3524C66.3127 23.5513 69.0578 23.5711 71.8028 23.7302C73.1157 23.8098 74.4286 23.9092 75.7017 24.1081C77.4322 24.3865 78.4666 25.5001 78.7053 27.1903C78.8644 28.3636 78.8843 29.5965 78.6655 30.7499C78.1085 33.6929 75.6022 35.94 72.3797 36.3576C68.2223 36.8945 64.0649 36.8548 59.9274 36.0196C58.0775 35.6417 56.6453 33.2754 57.1426 31.4856C57.1824 31.3464 57.262 31.2072 57.3614 31.1078C58.1372 30.4118 58.8732 29.7158 59.6689 28.9403Z" fill="white"/>
<path d="M155.448 33.673C154.692 34.6672 154.095 35.5223 153.439 36.3377C153.279 36.5365 152.961 36.6956 152.703 36.6956C146.795 36.7155 140.887 36.7155 134.999 36.6956C134.88 36.6956 134.78 36.6558 134.581 36.6161C134.561 36.278 134.541 35.9399 134.541 35.6019C134.541 29.6163 134.561 23.6506 134.521 17.665C134.521 16.7702 134.82 16.1139 135.317 15.3782C136.272 13.9464 137.406 13.4692 139.156 13.5288C144.448 13.668 149.739 13.5686 155.03 13.5686C155.348 13.5686 155.666 13.5686 156.184 13.5686C155.408 14.6026 154.751 15.5571 154.015 16.4321C153.856 16.631 153.379 16.6111 153.041 16.631C148.108 16.6509 143.155 16.631 138.221 16.631C137.068 16.631 137.068 16.631 137.068 17.7844C137.068 19.415 137.107 21.0456 137.048 22.6762C137.008 23.5114 137.326 23.7103 138.102 23.6904C141.583 23.6506 145.064 23.6705 148.545 23.6705C148.863 23.6705 149.182 23.6705 149.759 23.6705C148.943 24.7244 148.287 25.6591 147.531 26.5141C147.372 26.6931 146.934 26.6533 146.616 26.6533C143.871 26.6533 141.126 26.6533 138.38 26.6533C137.983 26.6533 137.585 26.6931 137.088 26.7329C137.088 28.9203 137.068 31.0481 137.107 33.1559C137.107 33.315 137.386 33.5536 137.585 33.6133C137.824 33.6928 138.102 33.6332 138.361 33.6332C143.672 33.6332 149.003 33.6332 154.314 33.6332C154.632 33.673 154.95 33.673 155.448 33.673Z" fill="white"/>
<path d="M86.025 26.7531C86.025 28.9405 86.0051 31.0682 86.0449 33.196C86.0449 33.3551 86.3234 33.5937 86.5223 33.6534C86.761 33.7329 87.0395 33.6732 87.2981 33.6732C92.6092 33.6732 97.9402 33.6732 103.251 33.6732C103.57 33.6732 103.888 33.6732 104.385 33.6732C103.629 34.6874 102.973 35.6022 102.277 36.4771C102.137 36.6561 101.759 36.6959 101.481 36.6959C95.7521 36.7158 90.0232 36.6959 84.2944 36.7157C83.6181 36.7157 83.459 36.497 83.459 35.8607C83.4789 29.5967 83.459 23.3327 83.4987 17.0489C83.4987 16.5716 83.8767 16.0745 84.1154 15.5972C85.0304 13.8274 86.5024 13.4694 88.4319 13.5092C93.9221 13.6484 99.4122 13.549 105.101 13.549C104.345 14.583 103.689 15.5376 102.953 16.4125C102.794 16.6114 102.316 16.6114 101.978 16.6114C97.0451 16.6313 92.092 16.6114 87.1588 16.6114C86.025 16.6114 86.025 16.6114 86.025 17.7647C86.025 19.4351 86.0648 21.0857 86.0051 22.7561C85.9852 23.5117 86.2637 23.6907 86.9599 23.6907C90.4608 23.6708 93.9817 23.6708 97.4827 23.6708C97.8009 23.6708 98.1192 23.6708 98.6762 23.6708C97.9004 24.7048 97.2638 25.5997 96.5477 26.4548C96.3886 26.6338 95.951 26.6337 95.6526 26.6337C92.8479 26.6536 90.0431 26.6337 87.2384 26.6536C86.8406 26.6735 86.4627 26.7332 86.025 26.7531Z" fill="white"/>
<path d="M130.603 13.7877C131.319 20.1113 130.026 25.898 125.869 30.8297C124.437 32.5398 122.826 34.1307 121.095 35.5426C119.364 36.9743 117.992 36.9147 116.162 35.5227C112.223 32.5399 109.796 28.5627 109.14 23.6907C108.822 21.3641 108.981 18.9778 108.941 16.6313C108.941 16.4524 109.001 16.1939 109.12 16.0745C109.836 15.3189 110.592 14.603 111.467 13.728C111.467 15.2393 111.467 16.5916 111.467 17.9438C111.447 23.5714 113.695 28.2048 117.793 31.9831C119.066 33.1563 120.538 34.0512 122.288 33.2557C123.184 32.858 124.079 32.1819 124.636 31.4064C126.844 28.3042 128.156 24.864 128.057 21.0062C128.037 20.2505 128.176 19.4551 128.037 18.7392C127.54 16.3529 129.091 15.1001 130.603 13.7877Z" fill="white"/>
<path d="M176.732 43.0988C176.732 41.9057 176.732 40.9711 176.732 39.9967C177.329 40.2353 177.468 41.6074 177.19 43.934C175.698 43.2977 175.161 41.7466 173.788 40.8319C173.788 41.4881 173.828 42.025 173.768 42.5619C173.729 42.9994 174.027 43.5562 173.291 43.934C173.291 42.542 173.291 41.2693 173.291 39.7183C174.664 40.6927 175.439 41.9852 176.732 43.0988Z" fill="white"/>
<path d="M117.913 39.917C119.286 39.917 120.121 40.6925 120.121 41.9453C120.121 43.1584 119.186 43.9936 117.873 43.9737C116.6 43.9538 115.705 43.1186 115.705 41.9652C115.705 40.7323 116.58 39.917 117.913 39.917ZM119.564 41.9056C119.544 40.8715 118.868 40.2352 117.853 40.255C116.899 40.2749 116.242 40.9709 116.262 41.9453C116.282 42.9396 116.998 43.6356 117.993 43.6157C118.947 43.5759 119.584 42.88 119.564 41.9056Z" fill="white"/>
<path d="M149.322 39.917C150.674 39.917 151.569 40.6925 151.569 41.9056C151.589 43.0987 150.654 43.9737 149.341 43.9538C148.088 43.9538 147.153 43.0987 147.114 41.9652C147.094 40.7721 147.989 39.9369 149.322 39.917ZM150.973 41.9255C150.973 40.8516 150.356 40.2352 149.322 40.2352C148.367 40.2551 147.71 40.9312 147.71 41.9056C147.71 42.9197 148.407 43.6157 149.401 43.5958C150.356 43.5958 150.973 42.9396 150.973 41.9255Z" fill="white"/>
<path d="M170.189 39.917C171.561 39.917 172.417 40.6926 172.397 41.9255C172.397 43.1385 171.462 43.9737 170.149 43.9538C168.876 43.9339 167.981 43.0987 167.961 41.9453C167.981 40.7323 168.836 39.917 170.189 39.917ZM170.229 40.255C169.234 40.255 168.518 40.9511 168.538 41.9453C168.558 42.9197 169.214 43.5958 170.169 43.6157C171.144 43.6356 171.8 42.9794 171.84 42.005C171.88 40.9312 171.243 40.255 170.229 40.255Z" fill="white"/>
<path d="M160.6 39.9966C160.6 40.8914 160.68 41.7863 160.58 42.6612C160.501 43.4566 159.625 43.9538 158.651 43.9538C157.636 43.9538 156.88 43.4765 156.761 42.6214C156.661 41.8857 156.681 41.1101 156.681 40.3545C156.681 40.2153 156.9 40.096 157.019 39.9766C157.099 40.1158 157.258 40.2352 157.258 40.3744C157.278 40.9908 157.258 41.6073 157.278 42.2039C157.318 43.0788 157.815 43.576 158.611 43.5958C159.466 43.6157 160.023 43.0987 160.063 42.2039C160.103 41.6272 160.043 41.0306 160.083 40.4539C160.103 40.2749 160.242 40.096 160.341 39.917C160.441 39.9568 160.52 39.9767 160.6 39.9966Z" fill="white"/>
<path d="M181.249 40.6531C180.771 40.5139 180.274 40.2753 179.797 40.2952C179.439 40.2952 179.08 40.6134 178.722 40.8122C179.001 41.0508 179.26 41.369 179.578 41.5281C180.095 41.7866 180.692 41.886 181.169 42.1843C181.865 42.6218 181.786 43.3178 181.05 43.6956C180.194 44.1331 178.563 44.1132 178.086 42.9996C178.305 43.0792 178.543 43.1388 178.722 43.2581C179.339 43.6956 179.976 43.7354 180.612 43.4172C181.189 43.1388 181.229 42.6815 180.672 42.3832C180.135 42.1048 179.498 42.0053 178.981 41.7071C178.623 41.5082 178.404 41.0906 178.126 40.7724C178.464 40.494 178.762 40.0565 179.12 39.977C179.916 39.8378 180.732 39.798 181.249 40.6531Z" fill="white"/>
<path d="M136.293 40.0366C137.467 40.0366 138.581 40.0366 139.694 40.0366C139.694 40.1162 139.714 40.1758 139.714 40.2554C138.779 40.2554 137.845 40.2554 136.85 40.2554C136.85 40.8122 136.85 41.19 136.85 41.7269C137.745 41.7269 138.66 41.7269 139.555 41.7269C139.555 41.8263 139.555 41.9059 139.555 42.0053C138.66 42.0053 137.785 42.0053 136.85 42.0053C136.85 42.582 136.85 42.9996 136.85 43.5564C137.805 43.5564 138.74 43.5564 139.675 43.5564C139.675 43.616 139.675 43.6956 139.675 43.7553C138.561 43.7553 137.467 43.7553 136.293 43.7553C136.293 42.5422 136.293 41.3292 136.293 40.0366Z" fill="white"/>
<path d="M143.016 42.9596C143.234 43.059 143.433 43.1982 143.652 43.2579C144.189 43.3772 144.746 43.4965 145.303 43.4965C145.522 43.4965 145.86 43.1584 145.92 42.8999C145.959 42.7607 145.641 42.4028 145.422 42.2835C145.005 42.0846 144.547 42.0051 144.11 41.8261C143.612 41.6272 142.956 41.5079 143.075 40.7523C143.195 40.0364 143.811 39.9568 144.428 39.9171C145.422 39.8773 145.661 39.9569 146.318 40.6528C146.019 40.5932 145.84 40.5733 145.681 40.5136C145.283 40.4142 144.905 40.2153 144.527 40.2551C144.209 40.2949 143.931 40.5932 143.632 40.7722C143.871 40.9909 144.05 41.3091 144.328 41.4284C144.846 41.667 145.462 41.7664 145.94 42.0448C146.218 42.2039 146.516 42.6414 146.477 42.9198C146.457 43.1982 146.079 43.5561 145.78 43.6953C144.726 44.1726 143.672 43.934 142.916 43.1386C142.956 43.1187 142.996 43.0391 143.016 42.9596Z" fill="white"/>
<path d="M135.278 40.6529C134.363 40.3547 133.389 39.8177 132.573 40.7126C132.275 41.0308 132.096 41.5279 132.056 41.9455C131.976 42.721 132.593 43.5165 133.349 43.5363C134.025 43.5562 134.702 43.2778 135.378 43.1386C134.741 44.0932 133.17 44.2522 132.175 43.4568C131.32 42.7807 131.201 41.4086 131.957 40.5734C132.792 39.6984 134.423 39.6587 135.278 40.6529Z" fill="white"/>
<path d="M124.437 40.2951C123.502 40.2951 122.587 40.2951 121.592 40.2951C121.592 40.7724 121.592 41.19 121.592 41.6871C122.507 41.6871 123.382 41.6871 124.278 41.6871C124.278 41.7667 124.297 41.8462 124.297 41.9258C123.422 41.9258 122.547 41.9258 121.811 41.9258C121.214 42.5621 121.93 43.4172 121.035 43.9342C121.035 42.5422 121.035 41.3093 121.035 40.0366C122.189 40.0366 123.303 40.0366 124.437 40.0366C124.437 40.136 124.437 40.2156 124.437 40.2951Z" fill="white"/>
<path d="M125.372 40.0366C126.586 40.0366 127.699 40.0366 128.813 40.0366C128.813 40.0963 128.813 40.1559 128.833 40.2355C127.918 40.2355 127.003 40.2355 126.009 40.2355C126.009 40.7724 126.009 41.19 126.009 41.707C126.884 41.707 127.779 41.707 128.674 41.707C128.674 41.7866 128.694 41.886 128.694 41.9655C127.819 41.9655 126.944 41.9655 125.929 41.9655C125.929 42.5422 125.949 42.9797 125.909 43.3973C125.889 43.5564 125.73 43.6757 125.631 43.8348C125.551 43.7155 125.392 43.5962 125.392 43.457C125.352 42.3235 125.372 41.19 125.372 40.0366Z" fill="white"/>
<path d="M163.803 40.3546C163.803 41.3687 163.823 42.3034 163.783 43.2181C163.783 43.417 163.584 43.6158 163.485 43.7948C163.405 43.6158 163.266 43.417 163.246 43.238C163.226 42.2835 163.226 41.329 163.226 40.2949C162.59 40.2949 162.053 40.2949 161.516 40.2949C161.516 40.2154 161.516 40.1557 161.516 40.0762C162.828 40.0762 164.161 40.0762 165.474 40.0762C165.474 40.1358 165.494 40.1756 165.494 40.2353C164.977 40.2949 164.46 40.3148 163.803 40.3546Z" fill="white"/>
<path d="M167.064 41.9457C167.064 42.4031 167.084 42.8804 167.045 43.3377C167.025 43.4968 166.866 43.636 166.786 43.7951C166.686 43.6559 166.488 43.5167 166.488 43.3775C166.468 42.3832 166.468 41.3889 166.488 40.3947C166.488 40.2555 166.686 40.1163 166.786 39.9771C166.866 40.1361 167.025 40.2952 167.045 40.4543C167.084 40.9515 167.064 41.4486 167.064 41.9457Z" fill="white"/>
<path d="M155.767 43.795C154.673 43.795 153.579 43.795 152.445 43.795C152.445 42.5223 152.445 41.2695 152.445 39.8179C153.201 40.3946 152.863 41.0707 152.923 41.6076C152.982 42.2041 152.943 42.8206 152.943 43.5563C153.937 43.5563 154.872 43.5563 155.807 43.5563C155.787 43.616 155.767 43.7155 155.767 43.795Z" fill="white"/>
<path d="M130.484 41.9457C130.484 42.4628 130.504 42.9798 130.464 43.4968C130.464 43.5962 130.265 43.6957 130.165 43.7951C130.086 43.6957 129.947 43.5962 129.947 43.4968C129.927 42.423 129.927 41.3691 129.947 40.2952C129.947 40.1958 130.086 40.0964 130.165 39.9771C130.265 40.0765 130.464 40.1759 130.464 40.2754C130.484 40.852 130.484 41.3889 130.484 41.9457Z" fill="white"/>
</svg>
