<svg width="162" height="47" viewBox="0 0 162 47" fill="none" xmlns="http://www.w3.org/2000/svg">
<path d="M43.125 9.44556V8.8291H49.6694V9.44556H43.125Z" fill="white"/>
<path d="M57.3467 2.06796V8.84896H55.2183V2.06796H53.0898V0.158936H59.495V2.06796H57.3467Z" fill="white"/>
<path d="M60.709 8.84896V0.158936H66.6168V2.06796H62.8573V3.51961H66.0798V5.42863H62.8573V6.95982H66.6168V8.86884H60.709V8.84896Z" fill="white"/>
<path d="M68.1289 8.84896V0.158936H70.2573V6.93994H73.8975V8.84896H68.1289Z" fill="white"/>
<path d="M75.1504 8.84896V0.158936H81.0582V2.06796H77.2987V3.51961H80.5211V5.42863H77.2987V6.95982H81.0582V8.86884H75.1504V8.84896Z" fill="white"/>
<path d="M85.5734 8.92834C84.5589 8.92834 83.803 8.59029 83.1665 7.95395C82.2515 7.03921 82.2913 5.82618 82.2913 4.51373C82.2913 3.20128 82.2515 1.98826 83.1665 1.07352C83.803 0.437177 84.5589 0.0991211 85.5734 0.0991211C87.2244 0.0991211 88.5572 1.01386 88.8555 2.92288H86.6873C86.5481 2.44563 86.2895 1.98826 85.5734 1.98826C85.1756 1.98826 84.8971 2.14734 84.7379 2.3462C84.539 2.60471 84.3998 2.903 84.3998 4.49385C84.3998 6.0847 84.539 6.38298 84.7379 6.6415C84.8971 6.84035 85.1955 6.99944 85.5734 6.99944C86.2895 6.99944 86.5481 6.56195 86.6873 6.06481H88.8555C88.5572 8.0136 87.2244 8.92834 85.5734 8.92834Z" fill="white"/>
<path d="M95.44 7.93417C94.8035 8.57051 94.0675 8.90857 93.0132 8.90857C91.959 8.90857 91.223 8.57051 90.5864 7.93417C89.6714 7.01943 89.7112 5.80641 89.7112 4.49396C89.7112 3.18151 89.6714 1.96848 90.5864 1.05374C91.223 0.417402 91.959 0.0793457 93.0132 0.0793457C94.0675 0.0793457 94.8035 0.417402 95.44 1.05374C96.3551 1.96848 96.3153 3.18151 96.3153 4.49396C96.3153 5.80641 96.3551 7.03932 95.44 7.93417ZM93.8686 2.36619C93.7094 2.16734 93.4111 1.98837 93.0132 1.98837C92.6154 1.98837 92.317 2.16734 92.1579 2.36619C91.959 2.62471 91.8396 2.92299 91.8396 4.49396C91.8396 6.06492 91.959 6.36321 92.1579 6.62172C92.317 6.82058 92.6154 7.01943 93.0132 7.01943C93.4111 7.01943 93.7094 6.84046 93.8686 6.62172C94.0675 6.36321 94.1868 6.08481 94.1868 4.49396C94.1868 2.90311 94.0675 2.62471 93.8686 2.36619Z" fill="white"/>
<path d="M103.755 8.84896V4.69286L102.521 6.84051H101.149L99.9155 4.69286V8.84896H97.7871V0.158936H99.8758L101.825 3.97698L103.775 0.158936H105.863V8.82907H103.755V8.84896Z" fill="white"/>
<path d="M111.055 8.84896V0.158936H116.445V0.994132H111.99V4.05652H115.789V4.89172H111.99V8.03365H116.445V8.86884H111.055V8.84896Z" fill="white"/>
<path d="M120.603 8.92845C119.29 8.92845 118.455 8.5904 117.619 7.77509L118.256 7.13875C118.972 7.85463 119.648 8.09326 120.623 8.09326C121.896 8.09326 122.672 7.49669 122.672 6.48252C122.672 6.02515 122.532 5.64732 122.254 5.38881C121.975 5.15018 121.757 5.07064 121.12 4.97121L120.106 4.81213C119.429 4.69281 118.892 4.47407 118.514 4.1559C118.077 3.75819 117.858 3.22128 117.858 2.52528C117.858 1.05374 118.912 0.0793457 120.643 0.0793457C121.757 0.0793457 122.493 0.357745 123.229 1.03386L122.632 1.63043C122.095 1.13328 121.518 0.894657 120.603 0.894657C119.449 0.894657 118.773 1.531 118.773 2.50539C118.773 2.92299 118.892 3.28093 119.171 3.49968C119.429 3.7383 119.887 3.89739 120.344 3.97693L121.299 4.11613C122.115 4.23544 122.513 4.41441 122.891 4.73258C123.368 5.1303 123.626 5.72687 123.626 6.44275C123.607 7.97394 122.413 8.92845 120.603 8.92845Z" fill="white"/>
<path d="M128.241 8.92848C127.385 8.92848 126.61 8.61031 126.013 8.03362C125.197 7.21831 125.197 6.36323 125.197 4.51387C125.197 2.6645 125.197 1.82931 126.013 1.01399C126.59 0.437311 127.385 0.119141 128.241 0.119141C129.792 0.119141 130.966 1.07365 131.244 2.70427H130.29C130.051 1.65033 129.315 0.954337 128.221 0.954337C127.644 0.954337 127.107 1.17308 126.729 1.57079C126.172 2.12759 126.112 2.72416 126.112 4.55364C126.112 6.38312 126.172 6.9598 126.729 7.53648C127.107 7.9342 127.664 8.15294 128.221 8.15294C129.315 8.15294 130.071 7.45694 130.309 6.403H131.244C130.986 7.97397 129.792 8.92848 128.241 8.92848Z" fill="white"/>
<path d="M136.219 8.9285C134.468 8.9285 133.195 7.71548 133.195 5.98543V0.158936H134.13V5.90588C134.13 7.21834 134.966 8.0933 136.219 8.0933C137.492 8.0933 138.327 7.21834 138.327 5.90588V0.158936H139.262V5.96554C139.242 7.71548 137.969 8.9285 136.219 8.9285Z" fill="white"/>
<path d="M141.629 8.84896V0.158936H147.02V0.994132H142.564V4.05652H146.363V4.89172H142.564V8.03365H147.02V8.86884H141.629V8.84896Z" fill="white"/>
<path d="M148.949 8.84896V0.158936H149.884V8.01376H154.32V8.84896H148.949Z" fill="white"/>
<path d="M161.003 8.84885L160.307 6.88017H156.507L155.811 8.84885H154.816L158.019 0.178711H158.795L161.977 8.84885H161.003ZM158.417 1.49116L156.786 6.06486H160.028L158.417 1.49116Z" fill="white"/>
<path d="M3.48036 13.3629V21.2177H2.54544V13.3629H0.0390625V12.5476H5.98668V13.3828H3.48036V13.3629Z" fill="white"/>
<path d="M7.61719 21.2177V12.5476H13.0078V13.3828H8.5521V16.4452H12.3514V17.2804H8.5521V20.4223H13.0078V21.2575H7.61719V21.2177ZM10.3822 11.6925H9.58645L10.6606 9.82324H11.7149L10.3822 11.6925Z" fill="white"/>
<path d="M17.643 21.2974C16.7877 21.2974 16.0119 20.9792 15.4152 20.4025C14.5996 19.5872 14.5996 18.7321 14.5996 16.8828C14.5996 15.0334 14.5996 14.1982 15.4152 13.3829C15.992 12.8062 16.7877 12.488 17.643 12.488C19.1946 12.488 20.3682 13.4425 20.6467 15.0732H19.6919C19.4532 14.0192 18.7172 13.3232 17.6231 13.3232C17.0463 13.3232 16.5092 13.542 16.1313 13.9397C15.5743 14.4965 15.5146 15.0931 15.5146 16.9225C15.5146 18.752 15.5743 19.3287 16.1313 19.9054C16.5092 20.3031 17.0662 20.5218 17.6231 20.5218C18.7172 20.5218 19.473 19.8258 19.7117 18.7719H20.6467C20.3682 20.3429 19.1946 21.2974 17.643 21.2974Z" fill="white"/>
<path d="M28.2255 21.2177L23.6107 14.2578V21.2177H22.6758V12.5476H23.551L28.1659 19.4877V12.5476H29.1008V21.2177H28.2255Z" fill="white"/>
<path d="M31.627 21.2177V12.5476H32.5619V21.2177H31.627Z" fill="white"/>
<path d="M37.7739 21.2974C36.9186 21.2974 36.1428 20.9792 35.546 20.4025C34.7305 19.5872 34.7305 18.7321 34.7305 16.8828C34.7305 15.0334 34.7305 14.1982 35.546 13.3829C36.1229 12.8062 36.9186 12.488 37.7739 12.488C39.3255 12.488 40.4991 13.4425 40.7776 15.0732H39.8228C39.5841 14.0192 38.848 13.3232 37.754 13.3232C37.1771 13.3232 36.6401 13.542 36.2621 13.9397C35.7051 14.4965 35.6455 15.0931 35.6455 16.9225C35.6455 18.752 35.7051 19.3287 36.2621 19.9054C36.6401 20.3031 37.197 20.5218 37.754 20.5218C38.848 20.5218 39.604 19.8258 39.8427 18.7719H40.7776C40.4991 20.3429 39.3255 21.2974 37.7739 21.2974Z" fill="white"/>
<path d="M47.7586 21.2177L47.0624 19.2491H43.2631L42.5669 21.2177H41.5723L44.7748 12.5476H45.5506L48.7333 21.2177H47.7586ZM45.1926 13.8799L43.5614 18.4536H46.8038L45.1926 13.8799Z" fill="white"/>
<path d="M56.0535 21.2177H54.4621L51.5977 12.5476H53.8057L55.2776 17.3997L56.7099 12.5476H58.9377L56.0535 21.2177Z" fill="white"/>
<path d="M59.8145 21.2177V12.5476H61.9429V19.3286H65.5831V21.2376H59.8145V21.2177Z" fill="white"/>
<path d="M69.6007 21.2972C68.5863 21.2972 67.8304 20.9592 67.1939 20.3228C66.2788 19.4081 66.3186 18.1951 66.3186 16.8826C66.3186 15.5702 66.2788 14.3572 67.1939 13.4424C67.8304 12.8061 68.5863 12.468 69.6007 12.468C71.2518 12.468 72.5845 13.3828 72.8829 15.2918H70.7147C70.5754 14.8145 70.3168 14.3572 69.6007 14.3572C69.2029 14.3572 68.9244 14.5162 68.7653 14.7151C68.5663 14.9736 68.4271 15.2719 68.4271 16.8627C68.4271 18.4536 68.5663 18.7519 68.7653 19.0104C68.9244 19.2092 69.2228 19.3683 69.6007 19.3683C70.3168 19.3683 70.5754 18.9308 70.7147 18.4337H72.8829C72.5845 20.3825 71.2518 21.2972 69.6007 21.2972Z" fill="white"/>
<path d="M79.6654 21.2973C78.3525 21.2973 77.5171 20.9593 76.6816 20.144L77.3182 19.5076C78.0343 20.2235 78.7106 20.4622 79.6853 20.4622C80.9584 20.4622 81.7342 19.8656 81.7342 18.8514C81.7342 18.394 81.5949 18.0162 81.3164 17.7577C81.0379 17.4992 80.8191 17.4395 80.1826 17.3401L79.1681 17.181C78.4918 17.0617 77.9547 16.843 77.5768 16.5248C77.1392 16.1271 76.9203 15.5902 76.9203 14.8942C76.9203 13.4226 77.9746 12.4482 79.7052 12.4482C80.8191 12.4482 81.5551 12.7266 82.2911 13.4028L81.6943 13.9993C81.1573 13.5022 80.5804 13.2636 79.6654 13.2636C78.5117 13.2636 77.8353 13.8999 77.8353 14.8743C77.8353 15.2919 77.9547 15.6498 78.2332 15.8686C78.4918 16.1072 78.9493 16.2663 79.4068 16.3458L80.3616 16.485C81.1772 16.6043 81.575 16.7833 81.9529 17.1015C82.4303 17.4992 82.6889 18.0958 82.6889 18.8116C82.6491 20.3627 81.4557 21.2973 79.6654 21.2973Z" fill="white"/>
<path d="M87.504 21.2973C85.7535 21.2973 84.4805 20.0843 84.4805 18.3542V12.5476H85.4153V18.2946C85.4153 19.607 86.2508 20.482 87.504 20.482C88.7771 20.482 89.6125 19.607 89.6125 18.2946V12.5476H90.5474V18.3542C90.5275 20.0843 89.2545 21.2973 87.504 21.2973Z" fill="white"/>
<path d="M96.1564 17.6582H93.849V21.2376H92.9141V12.5476H96.1365C97.7279 12.5476 98.8219 13.5419 98.8219 15.093C98.8418 16.644 97.7478 17.6582 96.1564 17.6582ZM96.0768 13.3629H93.849V16.8031H96.0768C97.1709 16.8031 97.9268 16.2265 97.9268 15.0731C97.9069 13.9396 97.151 13.3629 96.0768 13.3629Z" fill="white"/>
<path d="M100.611 21.2177V12.5476H106.002V13.3828H101.546V16.4452H105.346V17.2804H101.546V20.4223H106.002V21.2575H100.611V21.2177Z" fill="white"/>
<path d="M112.905 21.2177L110.936 17.3599H108.847V21.2177H107.912V12.5476H111.234C112.746 12.5476 113.8 13.4623 113.8 14.9538C113.8 16.2264 113.024 17.0418 111.91 17.2804L113.979 21.2177H112.905ZM111.154 13.3629H108.847V16.5446H111.154C112.169 16.5446 112.885 16.0276 112.885 14.9538C112.905 13.8998 112.169 13.3629 111.154 13.3629Z" fill="white"/>
<path d="M115.928 21.2177V12.5476H116.863V21.2177H115.928Z" fill="white"/>
<path d="M124.283 20.3825C123.706 20.9592 122.93 21.2774 122.055 21.2774C121.18 21.2774 120.424 20.9592 119.827 20.3825C119.012 19.5672 119.012 18.7121 119.012 16.8627C119.012 15.0134 119.012 14.1782 119.827 13.3629C120.404 12.7862 121.18 12.468 122.055 12.468C122.93 12.468 123.686 12.7862 124.283 13.3629C125.099 14.1782 125.099 15.0333 125.099 16.8627C125.099 18.6922 125.099 19.5672 124.283 20.3825ZM123.567 13.9197C123.189 13.522 122.632 13.3032 122.075 13.3032C121.498 13.3032 120.961 13.5418 120.583 13.9197C120.026 14.4765 119.967 15.073 119.967 16.8826C119.967 18.6922 120.026 19.2888 120.583 19.8456C120.961 20.2433 121.518 20.462 122.075 20.462C122.652 20.462 123.189 20.2234 123.567 19.8456C124.124 19.2888 124.184 18.6922 124.184 16.8826C124.184 15.073 124.104 14.4765 123.567 13.9197Z" fill="white"/>
<path d="M132.26 21.2177L130.291 17.3599H128.202V21.2177H127.268V12.5476H130.59C132.101 12.5476 133.156 13.4623 133.156 14.9538C133.156 16.2264 132.38 17.0418 131.266 17.2804L133.335 21.2177H132.26ZM130.53 13.3629H128.222V16.5446H130.53C131.544 16.5446 132.26 16.0276 132.26 14.9538C132.26 13.8998 131.544 13.3629 130.53 13.3629Z" fill="white"/>
<path d="M6.1054 32.7912C5.58822 33.3082 4.81249 33.5866 3.91736 33.5866H0.933594V24.9165H3.91736C4.81249 24.9165 5.58822 25.1949 6.1054 25.7119C7.00053 26.6068 6.9608 27.9391 6.9608 29.1521C6.9608 30.3652 7.00053 31.8964 6.1054 32.7912ZM5.449 26.388C4.99149 25.9307 4.4146 25.7517 3.73828 25.7517H1.8486V32.7713H3.73828C4.4146 32.7713 4.99149 32.5924 5.449 32.135C6.04575 31.5185 6.02588 30.226 6.02588 29.1521C6.02588 28.0982 6.04575 27.0045 5.449 26.388Z" fill="white"/>
<path d="M9.15039 33.5866V24.9165H14.5411V25.7517H10.0853V28.8141H13.8846V29.6493H10.0853V32.7713H14.5411V33.6065H9.15039V33.5866Z" fill="white"/>
<path d="M19.4941 33.5866V24.9165H20.4291V33.5866H19.4941Z" fill="white"/>
<path d="M28.4639 33.5866L23.849 26.6267V33.5866H22.9141V24.9165H23.7893L28.4042 31.8566V24.9165H29.3391V33.5866H28.4639Z" fill="white"/>
<path d="M36.8782 32.672C36.2616 33.3282 35.446 33.6663 34.5708 33.6663C33.7154 33.6663 32.9397 33.3481 32.3429 32.7714C31.5274 31.9561 31.5273 31.101 31.5273 29.2517C31.5273 27.4023 31.5274 26.5671 32.3429 25.7518C32.9198 25.1751 33.6955 24.8569 34.5708 24.8569C36.2218 24.8569 37.3556 25.9308 37.6142 27.462H36.6793C36.4406 26.3682 35.6648 25.6921 34.5708 25.6921C33.9939 25.6921 33.4568 25.9308 33.0789 26.3086C32.5219 26.8654 32.4623 27.462 32.4623 29.2715C32.4623 31.0811 32.5219 31.6777 33.0789 32.2544C33.4568 32.6521 34.0138 32.8708 34.5708 32.8708C35.2073 32.8708 35.824 32.6123 36.2218 32.1351C36.5799 31.7175 36.7191 31.2402 36.7191 30.5641V29.9079H34.5907V29.0926H37.654V30.4647C37.6143 31.4192 37.4153 32.0953 36.8782 32.672Z" fill="white"/>
<path d="M39.7832 33.5866V24.9165H45.1739V25.7517H40.7181V28.8141H44.5174V29.6493H40.7181V32.7713H45.1739V33.6065H39.7832V33.5866Z" fill="white"/>
<path d="M52.6338 33.5866L48.0189 26.6267V33.5866H47.084V24.9165H47.9592L52.5741 31.8566V24.9165H53.509V33.5866H52.6338Z" fill="white"/>
<path d="M56.0137 33.5866V24.9165H56.9486V33.5866H56.0137Z" fill="white"/>
<path d="M59.4551 33.5866V24.9165H64.8457V25.7517H60.39V28.8141H64.1893V29.6493H60.39V32.7713H64.8457V33.6065H59.4551V33.5866Z" fill="white"/>
<path d="M71.7682 33.5866L69.799 29.7288H67.7103V33.5866H66.7754V24.9165H70.0973C71.6091 24.9165 72.6634 25.8312 72.6634 27.3227C72.6634 28.5953 71.8876 29.4107 70.7737 29.6493L72.8424 33.5866H71.7682ZM70.0178 25.7517H67.7103V28.9334H70.0178C71.0322 28.9334 71.7483 28.4164 71.7483 27.3426C71.7483 26.2886 71.0322 25.7517 70.0178 25.7517Z" fill="white"/>
<path d="M75.5671 24.0814H74.7715L75.8456 22.2122H76.8999L75.5671 24.0814ZM74.7715 33.5867V24.9166H75.7064V33.5867H74.7715Z" fill="white"/>
<path d="M83.2664 33.5866L82.5702 31.618H78.7708L78.0747 33.5866H77.0801L80.2826 24.9165H81.0584L84.2411 33.5866H83.2664ZM80.7003 26.2488L79.0693 30.8225H82.3116L80.7003 26.2488Z" fill="white"/>
<path d="M93.8691 32.7912C93.3519 33.3082 92.5762 33.5866 91.681 33.5866H88.6973V24.9165H91.681C92.5762 24.9165 93.3519 25.1949 93.8691 25.7119C94.7642 26.6068 94.7245 27.9391 94.7245 29.1521C94.7245 30.3652 94.7642 31.8964 93.8691 32.7912ZM93.2127 26.388C92.7552 25.9307 92.1783 25.7517 91.502 25.7517H89.6123V32.7713H91.502C92.1783 32.7713 92.7552 32.5924 93.2127 32.135C93.8094 31.5185 93.7896 30.226 93.7896 29.1521C93.7896 28.0982 93.8094 27.0045 93.2127 26.388Z" fill="white"/>
<path d="M96.8926 33.5866V24.9165H102.283V25.7517H97.8275V28.8141H101.627V29.6493H97.8275V32.7713H102.283V33.6065H96.8926V33.5866Z" fill="white"/>
<path d="M3.48036 38.1206V45.9754H2.54544V38.1206H0.0390625V37.2854H5.98668V38.1206H3.48036Z" fill="white"/>
<path d="M7.61719 45.9753V37.3052H13.0078V38.1404H8.5521V41.2028H12.3514V42.038H8.5521V45.1799H13.0078V46.0151H7.61719V45.9753Z" fill="white"/>
<path d="M14.9375 45.9753V37.3052H15.8724V45.16H20.3083V45.9952H14.9375V45.9753Z" fill="white"/>
<path d="M21.9199 45.9753V37.3052H27.3106V38.1404H22.8548V41.2028H26.6542V42.038H22.8548V45.1799H27.3106V46.0151H21.9199V45.9753Z" fill="white"/>
<path d="M31.9458 46.0349C31.0904 46.0349 30.3146 45.7168 29.7179 45.1401C28.9023 44.3248 28.9023 43.4697 28.9023 41.6203C28.9023 39.7709 28.9023 38.9358 29.7179 38.1204C30.2947 37.5438 31.0904 37.2256 31.9458 37.2256C33.4973 37.2256 34.6709 38.1801 34.9494 39.8107H33.9946C33.7559 38.7568 33.0199 38.0608 31.9259 38.0608C31.349 38.0608 30.8119 38.2795 30.434 38.6772C29.877 39.234 29.8173 39.8306 29.8173 41.6601C29.8173 43.4896 29.877 44.0662 30.434 44.6429C30.8119 45.0406 31.3689 45.2594 31.9259 45.2594C33.0199 45.2594 33.7758 44.5634 34.0145 43.5094H34.9494C34.6709 45.1003 33.4973 46.0349 31.9458 46.0349Z" fill="white"/>
<path d="M41.9315 45.1401C41.3546 45.7168 40.5788 46.0349 39.7036 46.0349C38.8284 46.0349 38.0725 45.7168 37.4757 45.1401C36.6602 44.3248 36.6602 43.4697 36.6602 41.6203C36.6602 39.7709 36.6602 38.9358 37.4757 38.1204C38.0526 37.5438 38.8284 37.2256 39.7036 37.2256C40.5788 37.2256 41.3347 37.5438 41.9315 38.1204C42.747 38.9358 42.747 39.7908 42.747 41.6203C42.747 43.4697 42.747 44.3248 41.9315 45.1401ZM41.2154 38.6772C40.8374 38.2795 40.2805 38.0608 39.7235 38.0608C39.1665 38.0608 38.6096 38.2994 38.2316 38.6772C37.6747 39.234 37.6149 39.8306 37.6149 41.6402C37.6149 43.4498 37.6747 44.0464 38.2316 44.6032C38.6096 45.0009 39.1665 45.2196 39.7235 45.2196C40.2805 45.2196 40.8374 44.981 41.2154 44.6032C41.7724 44.0464 41.832 43.4498 41.832 41.6402C41.832 39.8306 41.7525 39.234 41.2154 38.6772Z" fill="white"/>
<path d="M51.4386 45.9753V39.3733L49.0515 44.6032H48.2559L45.849 39.3733V45.9753H44.9141V37.3052H45.849L48.6736 43.4697L51.4386 37.3052H52.3735V45.9753H51.4386Z" fill="white"/>
<path d="M57.7852 46.0351C56.0348 46.0351 54.7617 44.8221 54.7617 43.092V37.2854H55.6966V43.0323C55.6966 44.3448 56.5321 45.2198 57.7852 45.2198C59.0583 45.2198 59.8938 44.3448 59.8938 43.0323V37.2854H60.8287V43.092C60.8088 44.8419 59.5357 46.0351 57.7852 46.0351Z" fill="white"/>
<path d="M68.7451 45.9753L64.1302 39.0153V45.9753H63.1953V37.3052H64.0706L68.6855 44.2453V37.3052H69.6204V45.9753H68.7451Z" fill="white"/>
<path d="M72.127 45.9753V37.3052H73.0619V45.9753H72.127Z" fill="white"/>
<path d="M78.2739 46.0349C77.4186 46.0349 76.6428 45.7168 76.046 45.1401C75.2305 44.3248 75.2305 43.4697 75.2305 41.6203C75.2305 39.7709 75.2305 38.9358 76.046 38.1204C76.6229 37.5438 77.4186 37.2256 78.2739 37.2256C79.8255 37.2256 80.9991 38.1801 81.2776 39.8107H80.3228C80.0841 38.7568 79.3481 38.0608 78.2541 38.0608C77.6772 38.0608 77.1401 38.2795 76.7622 38.6772C76.2052 39.234 76.1455 39.8306 76.1455 41.6601C76.1455 43.4896 76.2052 44.0662 76.7622 44.6429C77.1401 45.0406 77.6971 45.2594 78.2541 45.2594C79.3481 45.2594 80.104 44.5634 80.3427 43.5094H81.2776C80.9991 45.1003 79.8255 46.0349 78.2739 46.0349Z" fill="white"/>
<path d="M88.2586 45.9753L87.5624 44.0066H83.7631L83.0669 45.9753H82.0723L85.2749 37.3052H86.0506L89.2333 45.9753H88.2586ZM85.6926 38.6176L84.0614 43.1913H87.3038L85.6926 38.6176Z" fill="white"/>
<path d="M93.2524 46.0349C92.3971 46.0349 91.6213 45.7168 91.0246 45.1401C90.209 44.3248 90.209 43.4697 90.209 41.6203C90.209 39.7709 90.209 38.9358 91.0246 38.1204C91.6014 37.5438 92.3971 37.2256 93.2524 37.2256C94.804 37.2256 95.9776 38.1801 96.2561 39.8107H95.3013C95.0626 38.7568 94.3266 38.0608 93.2326 38.0608C92.6557 38.0608 92.1186 38.2795 91.7407 38.6772C91.1837 39.234 91.124 39.8306 91.124 41.6601C91.124 43.4896 91.1837 44.0662 91.7407 44.6429C92.1186 45.0406 92.6756 45.2594 93.2326 45.2594C94.3266 45.2594 95.0825 44.5634 95.3212 43.5094H96.2561C95.9776 45.1003 94.7841 46.0349 93.2524 46.0349Z" fill="white"/>
<path d="M98.3047 45.9753V37.3052H99.2396V45.9753H98.3047Z" fill="white"/>
<path d="M106.658 45.1401C106.081 45.7168 105.305 46.0349 104.43 46.0349C103.555 46.0349 102.799 45.7168 102.202 45.1401C101.387 44.3248 101.387 43.4697 101.387 41.6203C101.387 39.771 101.387 38.9358 102.202 38.1205C102.779 37.5438 103.555 37.2256 104.43 37.2256C105.305 37.2256 106.061 37.5438 106.658 38.1205C107.474 38.9358 107.474 39.7908 107.474 41.6203C107.474 43.4697 107.474 44.3248 106.658 45.1401ZM105.942 38.6772C105.564 38.2795 105.007 38.0608 104.45 38.0608C103.893 38.0608 103.336 38.2994 102.958 38.6772C102.401 39.234 102.341 39.8306 102.341 41.6402C102.341 43.4498 102.401 44.0464 102.958 44.6032C103.336 45.0009 103.893 45.2196 104.45 45.2196C105.007 45.2196 105.564 44.981 105.942 44.6032C106.499 44.0464 106.559 43.4498 106.559 41.6402C106.559 39.8306 106.499 39.234 105.942 38.6772ZM104.649 36.4501H103.853L104.927 34.5808H105.982L104.649 36.4501Z" fill="white"/>
<path d="M115.192 45.9753L110.577 39.0153V45.9753H109.643V37.3052H110.518L115.133 44.2453V37.3052H116.068V45.9753H115.192Z" fill="white"/>
</svg>
