<svg width="169" height="29" viewBox="0 0 169 29" fill="none" xmlns="http://www.w3.org/2000/svg">
<path d="M0.214111 6.44871C0.253209 6.21814 0.259897 6.05389 0.309798 5.90467C0.886488 4.18134 1.46884 2.45957 2.0517 0.738316C2.2477 0.160075 2.43239 0.0170707 3.04818 0.018107C7.83301 0.0263972 12.6178 0.0388321 17.4032 0.0533399C17.9398 0.0548943 17.9907 0.14764 17.9588 0.777695C17.8045 3.79481 18.2242 6.70726 19.5114 9.46634C21.0202 12.7 23.3764 15.1607 26.3308 17.0762C28.1144 18.2322 30.0189 19.1343 32.0504 19.7576C32.6189 19.9322 32.7017 19.8814 32.8869 19.2975C33.9353 15.9907 34.9905 12.6866 36.0276 9.37671C36.1567 8.96427 36.3918 8.84717 36.7936 8.84924C39.3447 8.86323 41.8958 8.85183 44.4469 8.87152C44.7973 8.87411 44.9532 8.7596 45.0566 8.43577C45.2536 7.8197 45.4897 7.21607 45.732 6.54716C37.6043 6.54716 29.5482 6.54716 21.4272 6.54716C21.4637 6.33887 21.4755 6.17928 21.5203 6.02954C22.0687 4.19896 22.6294 2.37252 23.1675 0.538835C23.2987 0.0922 23.5842 0.0160334 23.9886 0.0170697C28.3058 0.0253599 32.6235 0.0222529 36.9407 0.0222529C51.8405 0.0222529 66.7403 0.0222529 81.6396 0.0222529C81.8336 0.0222529 82.027 0.0222529 82.276 0.0222529C82.2153 0.210855 82.1752 0.351788 82.1253 0.488577C81.4529 2.32434 80.7687 4.15647 80.1128 5.99845C79.9502 6.45597 79.6714 6.56737 79.2228 6.56633C70.3162 6.55286 61.4097 6.5513 52.5031 6.54767C51.6126 6.54716 51.6126 6.54768 51.3364 7.39535C51.2098 7.78447 51.0812 8.17255 50.9583 8.56271C50.9361 8.63318 50.9387 8.71142 50.9243 8.83733C60.4266 8.83733 69.9108 8.83733 79.4656 8.83733C79.266 9.44458 79.0911 9.98811 78.9079 10.5285C78.4758 11.8052 78.0082 13.0715 77.6203 14.3617C77.4649 14.8788 77.2077 14.9907 76.7169 14.9892C72.0525 14.9731 67.3875 14.9793 62.723 14.9793C58.5262 14.9793 54.3299 14.9793 50.1331 14.9793C49.9823 14.9793 49.8306 14.9845 49.6804 14.9767C48.7513 14.9286 48.8933 14.7778 48.563 15.7576C47.4441 19.0762 46.3488 22.4027 45.2685 25.7343C45.1162 26.2043 44.9002 26.3716 44.4017 26.3618C42.7267 26.3286 41.0506 26.3488 39.3751 26.3483C39.2109 26.3483 39.0468 26.3483 38.8081 26.3483C38.8632 26.1136 38.8884 25.9265 38.9496 25.7524C40.1261 22.4068 41.3073 19.0623 42.4874 15.7177C42.5276 15.6032 42.5703 15.4897 42.6088 15.3747C42.7071 15.0788 42.6171 14.9498 42.2919 14.9679C41.7801 14.9975 41.2667 15.0192 40.7543 15.0089C40.3504 15.0006 40.1591 15.1762 40.0593 15.5622C39.5001 17.7327 38.9496 19.9063 38.3436 22.0643C38.0329 23.1706 37.6049 24.2431 37.2458 25.3364C37.0127 26.0457 36.5199 26.3069 35.8069 26.3369C33.5891 26.4297 31.465 25.954 29.3645 25.3198C25.6312 24.1929 22.2158 22.469 19.3617 19.755C15.7235 16.2954 13.3875 12.0985 12.4692 7.12592C12.3442 6.44975 12.3503 6.44923 11.6744 6.44923C8.05165 6.44923 4.42843 6.44923 0.805721 6.44923C0.630296 6.44871 0.454356 6.44871 0.214111 6.44871Z" fill="white"/>
<path d="M152.725 20.5474C152.725 21.8329 152.722 23.1184 152.726 24.4039C152.727 24.9961 152.74 25.5883 152.749 26.1806C152.76 26.8754 152.902 27.0262 153.586 27.0987C153.732 27.1142 153.917 27.1267 154.004 27.2179C154.088 27.3065 154.116 27.5065 154.082 27.6345C154.059 27.7205 153.886 27.82 153.779 27.8205C151.937 27.8314 150.095 27.8386 148.254 27.8127C148.05 27.8096 147.789 27.6469 147.655 27.4775C147.282 27.0029 146.961 26.4868 146.623 25.9852C146.183 25.3329 145.753 24.6733 145.301 24.0293C145.193 23.8743 145.033 23.735 144.866 23.6443C144.196 23.2811 143.892 23.4723 143.9 24.221C143.906 24.8743 143.895 25.5277 143.903 26.1811C143.911 26.8619 144.063 27.0205 144.734 27.1225C144.892 27.1464 145.075 27.178 145.187 27.2754C145.262 27.3402 145.279 27.5485 145.233 27.6536C145.194 27.7417 145.028 27.821 144.918 27.8215C143.604 27.8329 142.291 27.8277 140.978 27.8293C140.741 27.8298 140.57 27.7314 140.633 27.4842C140.666 27.3593 140.829 27.1961 140.95 27.179C141.867 27.0505 141.918 27.0054 141.918 26.0666C141.919 24.0603 141.919 22.0546 141.918 20.0484C141.917 19.25 141.823 19.138 141.026 19.0546C140.754 19.0261 140.61 18.9329 140.615 18.637C140.621 18.3173 140.812 18.336 141.044 18.3365C142.584 18.3422 144.123 18.3329 145.662 18.3349C145.963 18.3354 146.267 18.3432 146.565 18.3857C147.821 18.5655 148.551 19.3665 148.606 20.6033C148.664 21.8868 147.947 22.879 146.756 23.1645C146.63 23.1945 146.507 23.2334 146.253 23.3044C147.812 23.723 148.324 25.0334 149.074 26.1091C149.371 26.5339 149.636 26.9744 150.177 27.1329C151.092 27.4008 151.666 26.9889 151.667 26.0422C151.669 24.0515 151.669 22.0609 151.667 20.0696C151.666 19.3209 151.614 18.9717 150.71 19.0246C150.6 19.0308 150.371 18.8132 150.386 18.7391C150.416 18.5899 150.574 18.3557 150.686 18.352C151.605 18.3215 152.527 18.3158 153.446 18.3546C153.626 18.3624 153.846 18.5624 153.964 18.7329C155.404 20.8308 156.828 22.9396 158.258 25.0448C158.28 25.0769 158.315 25.1002 158.39 25.1712C158.404 25.0256 158.422 24.9287 158.422 24.8324C158.423 23.2521 158.428 21.6712 158.421 20.0909C158.417 19.2432 158.279 19.1018 157.426 19.0432C157.167 19.0256 157.034 18.9339 157.04 18.6593C157.045 18.3945 157.191 18.3292 157.422 18.3303C158.403 18.3349 159.383 18.336 160.364 18.3303C160.615 18.3287 160.718 18.438 160.721 18.6847C160.725 18.937 160.61 19.022 160.367 19.0453C159.71 19.108 159.576 19.2448 159.484 19.9064C159.454 20.1158 159.453 20.3308 159.453 20.5432C159.451 22.7603 159.453 24.9774 159.452 27.1951C159.451 27.7697 159.329 27.894 158.762 27.8821C158.176 27.8697 157.79 27.5308 157.473 27.0738C156.324 25.4184 155.171 23.7645 154.018 22.1121C153.638 21.5681 153.249 21.0308 152.864 20.4904C152.818 20.5096 152.771 20.5287 152.725 20.5474ZM143.902 20.9215C143.902 21.3919 143.926 21.8645 143.894 22.3329C143.871 22.6925 144.033 22.8127 144.348 22.8671C145.15 23.0049 145.915 22.6899 146.308 22.0386C146.761 21.2873 146.751 20.1909 146.215 19.6007C146.011 19.3759 145.678 19.2329 145.377 19.1427C145.081 19.0536 144.75 19.0862 144.436 19.052C144.056 19.0106 143.872 19.1401 143.895 19.5557C143.922 20.0095 143.902 20.466 143.902 20.9215Z" fill="white"/>
<path d="M88.4699 20.5432C88.4637 20.6121 88.4514 20.6811 88.4514 20.7495C88.4514 22.5422 88.4508 24.3345 88.4539 26.1272C88.455 26.865 88.5975 27.0246 89.3382 27.0961C89.6233 27.1236 89.8414 27.177 89.8141 27.5438C89.7863 27.9148 89.5147 27.8231 89.31 27.8251C88.3747 27.834 87.4389 27.8272 86.5037 27.8293C86.2758 27.8298 86.0834 27.8184 86.0834 27.5023C86.0834 27.2132 86.2341 27.163 86.4785 27.134C87.2316 27.0448 87.3726 26.8811 87.3746 26.1143C87.3793 24.0329 87.3787 21.9521 87.3751 19.8707C87.3741 19.1868 87.2332 19.0494 86.551 19.0401C86.319 19.037 86.0875 19.0702 86.0854 18.7163C86.0834 18.3717 86.2783 18.3261 86.5556 18.3292C87.37 18.3375 88.1849 18.3474 88.9987 18.3261C89.3784 18.3163 89.562 18.5313 89.7513 18.8054C91.1954 20.8966 92.6471 22.9821 94.1061 25.0832C94.1169 25.0122 94.1452 24.9085 94.1457 24.8049C94.1488 23.2557 94.1534 21.7059 94.1452 20.1567C94.1406 19.2717 94.0176 19.1386 93.1405 19.0515C92.8869 19.0267 92.748 18.9474 92.7506 18.6707C92.7526 18.3759 92.9208 18.3272 93.1652 18.3287C94.1303 18.3349 95.0959 18.3215 96.0605 18.3437C96.1845 18.3469 96.3717 18.4945 96.4113 18.6152C96.4803 18.8235 96.4262 18.9961 96.1284 19.0603C95.2302 19.2541 95.1576 19.3671 95.1571 20.2857C95.1561 22.5945 95.1576 24.9039 95.1561 27.2127C95.1556 27.7625 95.0326 27.8796 94.4899 27.8661C93.9291 27.8516 93.5382 27.5718 93.2218 27.1163C91.7968 25.063 90.3584 23.0189 88.9236 20.9723C88.8125 20.8137 88.6916 20.6619 88.5753 20.5065C88.5404 20.5194 88.5054 20.5313 88.4699 20.5432Z" fill="white"/>
<path d="M140.031 23.0237C140.03 25.975 137.817 28.1491 134.822 28.1413C131.948 28.1335 129.717 25.96 129.711 23.1615C129.705 20.2024 131.921 18.0563 134.982 18.0594C137.941 18.062 140.032 20.1174 140.031 23.0237ZM137.987 22.9615C137.804 22.1817 137.662 21.3294 137.399 20.5164C137.033 19.3879 136.169 18.8796 135.015 18.8413C133.835 18.8024 132.894 19.2444 132.416 20.361C131.657 22.1304 131.691 23.9418 132.403 25.7164C132.836 26.7973 133.896 27.3387 135.179 27.2553C136.346 27.1796 137.138 26.5931 137.463 25.4517C137.687 24.6703 137.803 23.8584 137.987 22.9615Z" fill="white"/>
<path d="M114.201 20.7463C113.793 20.8535 113.569 20.8307 113.477 20.3758C113.27 19.3504 112.707 18.9634 111.853 19.0328C111.358 19.0727 110.857 19.0546 110.36 19.0338C110.037 19.0204 109.891 19.1167 109.899 19.4665C109.915 20.3167 109.911 21.168 109.901 22.0183C109.897 22.3157 110.011 22.438 110.305 22.4054C110.439 22.3903 110.576 22.4033 110.712 22.4007C111.384 22.3898 111.65 22.182 111.753 21.5193C111.795 21.2484 111.873 21.109 112.172 21.1209C112.49 21.1338 112.534 21.3167 112.532 21.5743C112.527 22.3945 112.537 23.2147 112.525 24.0349C112.522 24.237 112.642 24.5266 112.287 24.5769C111.944 24.6256 111.823 24.4323 111.76 24.1173C111.589 23.2515 111.142 22.9504 110.273 23.066C110.03 23.0981 109.896 23.1908 109.9 23.4701C109.913 24.4572 109.907 25.4447 109.908 26.4323C109.908 26.879 110.144 27.1204 110.57 27.1313C111.187 27.1468 111.807 27.1411 112.424 27.1126C113.272 27.0733 113.77 26.5821 114.003 25.7872C114.067 25.5696 114.068 25.3147 114.187 25.1375C114.277 25.0028 114.503 24.9359 114.681 24.9038C114.724 24.896 114.876 25.1453 114.87 25.2712C114.837 25.9981 114.762 26.7235 114.722 27.4505C114.706 27.7468 114.579 27.8334 114.298 27.8323C111.869 27.8246 109.44 27.8277 107.011 27.8282C106.801 27.8282 106.611 27.8147 106.612 27.5261C106.614 27.2572 106.75 27.166 107.004 27.1401C107.773 27.0624 107.914 26.9002 107.916 26.096C107.921 24.0758 107.919 22.0556 107.917 20.0349C107.916 19.2141 107.805 19.0888 106.997 19.0426C106.733 19.0276 106.605 18.9276 106.613 18.6587C106.621 18.4027 106.758 18.3323 106.998 18.3328C109.155 18.3369 111.312 18.3318 113.469 18.3312C114.075 18.3312 114.085 18.354 114.105 18.9789C114.123 19.5675 114.167 20.1535 114.201 20.7463Z" fill="white"/>
<path d="M84.5119 20.7293C84.0396 20.8971 83.8555 20.7484 83.7706 20.3241C83.5802 19.3748 83.1507 19.0417 82.202 19.0406C81.6737 19.0401 81.1449 19.0494 80.617 19.037C80.329 19.0303 80.206 19.1412 80.2091 19.4365C80.2178 20.3028 80.2153 21.1691 80.2106 22.0355C80.2091 22.3023 80.3151 22.4334 80.5898 22.4127C80.74 22.4013 80.8912 22.4049 81.0425 22.4018C81.7051 22.3873 81.9212 22.2163 82.0657 21.5505C82.1213 21.2951 82.1614 21.0868 82.5076 21.1194C82.8729 21.1541 82.84 21.3966 82.84 21.6432C82.8389 22.464 82.8405 23.2847 82.8389 24.1054C82.8384 24.3132 82.8904 24.5578 82.5699 24.5795C82.2705 24.5997 82.164 24.4433 82.1058 24.1531C81.934 23.2935 81.3877 22.9225 80.58 23.0557C80.3331 23.0966 80.207 23.1992 80.2096 23.4702C80.2204 24.4427 80.2065 25.4158 80.2235 26.3883C80.2322 26.892 80.4524 27.1168 80.9437 27.1376C81.471 27.1599 81.9999 27.1676 82.5272 27.1459C83.5833 27.1023 84.1451 26.6163 84.391 25.5692C84.4188 25.451 84.4018 25.3039 84.4671 25.2174C84.5772 25.0707 84.7367 24.9609 84.8751 24.836C84.9811 24.9966 85.1822 25.1598 85.1776 25.3174C85.1555 26.0604 85.0716 26.8008 85.0222 27.5433C85.0001 27.8738 84.7671 27.8282 84.5623 27.8288C83.4449 27.8324 82.3281 27.8308 81.2107 27.8308C79.9426 27.8308 78.6745 27.8371 77.4064 27.822C77.2557 27.82 77.0175 27.736 76.9743 27.6272C76.8709 27.3687 76.9614 27.1806 77.3035 27.1464C78.0968 27.0671 78.2285 26.906 78.2295 26.1163C78.2311 24.0795 78.2305 22.0432 78.23 20.0064C78.2295 19.2246 78.0988 19.0805 77.3226 19.0458C77.0941 19.0355 76.9444 18.9893 76.9403 18.7204C76.9357 18.4453 77.0705 18.3349 77.3267 18.3355C79.53 18.3375 81.7339 18.3406 83.9373 18.3401C84.2542 18.3401 84.3946 18.4733 84.4044 18.8038C84.4224 19.4494 84.4743 20.0961 84.5119 20.7293Z" fill="white"/>
<path d="M163.05 27.2345C162.583 27.8635 162.583 27.8635 162.165 27.7796C162.165 26.7609 162.165 25.75 162.165 24.7495C162.666 24.6407 162.784 24.9464 162.886 25.2568C163.261 26.3899 164.036 27.0837 165.207 27.2008C165.649 27.2454 166.183 27.1127 166.565 26.8791C167.393 26.3718 167.419 25.2298 166.642 24.6448C166.188 24.3039 165.654 24.0692 165.152 23.7951C164.583 23.4842 163.99 23.2143 163.443 22.8692C162.498 22.2728 162.074 21.278 162.272 20.2609C162.481 19.1909 163.317 18.3655 164.389 18.1479C165.361 17.9505 166.28 18.078 167.139 18.5764C167.413 18.7355 167.584 18.7769 167.707 18.3987C167.747 18.279 168.005 18.2319 168.163 18.151C168.227 18.2785 168.343 18.4049 168.346 18.5339C168.362 19.1863 168.368 19.8402 168.335 20.4915C168.327 20.6396 168.154 20.779 168.056 20.9225C167.936 20.8122 167.737 20.7194 167.707 20.5878C167.406 19.2832 165.988 18.7003 164.67 18.979C163.938 19.1339 163.621 20.0412 164.111 20.6412C164.379 20.9692 164.758 21.2267 165.13 21.4417C165.952 21.9174 166.849 22.2733 167.626 22.8086C169.184 23.8806 169.22 26.1889 167.759 27.3998C166.649 28.3195 164.796 28.3806 163.518 27.5397C163.369 27.4407 163.218 27.3443 163.05 27.2345Z" fill="white"/>
<path d="M76.2111 21.7324C75.7888 21.9008 75.5537 21.792 75.405 21.334C75.0557 20.2614 74.4204 19.4143 73.3061 19.0557C71.6717 18.5298 70.1891 19.3412 69.6201 21.0677C69.19 22.3728 69.1782 23.6982 69.5815 25.0086C70.4478 27.8211 73.4522 27.792 75.121 26.0682C75.4107 25.7692 75.6365 25.4076 75.8922 25.0749C76.6201 25.3931 76.6386 25.4537 76.2055 26.1055C75.4431 27.2522 74.3483 27.8542 73.0175 28.0485C71.5426 28.2636 70.168 28.0226 68.9529 27.0931C67.2609 25.7993 66.8437 24.0288 67.2223 22.0532C67.6143 20.0076 68.9354 18.7609 70.9221 18.2459C72.269 17.8967 73.5859 17.9946 74.8257 18.679C75.1493 18.8578 75.3474 18.8511 75.4446 18.4345C75.4714 18.3205 75.6468 18.205 75.7764 18.1676C75.8423 18.1485 76.0331 18.2967 76.0383 18.3775C76.1093 19.493 76.1571 20.6101 76.2111 21.7324Z" fill="white"/>
<path d="M56.2336 25.5936C56.7671 24.2247 57.2543 22.9719 57.7435 21.72C57.9586 21.1698 58.1824 20.6231 58.3928 20.0713C58.6978 19.2713 58.5245 19.034 57.6504 19.0402C57.5908 19.0407 57.5316 19.033 57.4765 19.0293C57.243 18.4848 57.334 18.3345 57.8953 18.3335C58.7848 18.3314 59.6742 18.3299 60.5637 18.335C60.7602 18.3361 61.0118 18.2589 61.0365 18.5962C61.0581 18.8894 60.9665 19.0361 60.6399 19.0563C60.201 19.0832 59.9402 19.4065 59.7761 19.7755C59.2406 20.9786 58.7138 22.1858 58.2086 23.4019C57.6746 24.6884 57.1633 25.9848 56.655 27.2817C56.5228 27.6195 56.372 27.8569 55.9492 27.8387C55.5417 27.8211 55.2197 27.819 55.0185 27.3346C54.0663 25.0408 53.0667 22.7672 52.095 20.4817C51.8079 19.8071 51.4941 19.1957 50.6864 19.0112C50.5712 18.9848 50.529 18.6361 50.4282 18.3713C50.6751 18.3527 50.8052 18.334 50.9359 18.334C52.0975 18.3319 53.2591 18.3309 54.4202 18.3345C54.6353 18.335 54.8925 18.2687 54.9193 18.6278C54.9434 18.9558 54.7814 19.0278 54.4917 19.062C53.9325 19.1278 53.8122 19.3444 54.0308 19.9185C54.6132 21.447 55.2171 22.9672 55.8113 24.491C55.9389 24.8133 56.0598 25.1372 56.2336 25.5936Z" fill="white"/>
<path d="M124.405 18.3323C125.642 18.3323 126.879 18.3421 128.116 18.3266C128.501 18.3219 128.659 18.454 128.661 18.852C128.664 19.4887 128.723 20.125 128.734 20.7618C128.737 20.9551 128.882 21.2463 128.508 21.2996C128.173 21.3473 128.077 21.1701 128.014 20.8685C127.755 19.6276 127.085 19.0628 125.956 19.0312C125.523 19.0188 125.379 19.1514 125.385 19.595C125.409 21.8126 125.404 24.0307 125.412 26.2484C125.415 26.9577 125.528 27.0758 126.242 27.1422C126.287 27.1463 126.333 27.1468 126.378 27.1468C126.632 27.1468 126.763 27.2986 126.694 27.522C126.655 27.6473 126.472 27.8131 126.351 27.8147C125.009 27.8354 123.665 27.8266 122.323 27.8287C122.086 27.8292 121.955 27.7416 121.96 27.4821C121.966 27.2235 122.103 27.1593 122.335 27.1406C123.241 27.067 123.346 26.951 123.348 26.0204C123.353 23.8784 123.343 21.7364 123.356 19.5944C123.359 19.1877 123.234 19.0276 122.81 19.0323C121.569 19.0463 121.023 19.5007 120.732 20.8546C120.675 21.1178 120.615 21.354 120.293 21.2924C120.181 21.2706 120.008 21.1152 120.009 21.0229C120.019 20.2343 120.051 19.4457 120.101 18.6592C120.123 18.325 120.402 18.3317 120.65 18.3338C121.284 18.339 121.917 18.3483 122.551 18.3514C123.169 18.3545 123.788 18.352 124.407 18.352C124.405 18.3452 124.405 18.339 124.405 18.3323Z" fill="white"/>
<path d="M101.105 18.3334C102.372 18.3334 103.639 18.3386 104.906 18.3298C105.212 18.3277 105.337 18.4391 105.345 18.7547C105.364 19.4977 105.421 20.2402 105.438 20.9832C105.44 21.0925 105.302 21.3018 105.24 21.2977C105.084 21.2863 104.911 21.207 104.79 21.1018C104.717 21.0376 104.724 20.8759 104.7 20.7568C104.467 19.6075 103.664 18.9904 102.498 19.035C102.196 19.0464 102.106 19.1681 102.11 19.4511C102.12 20.2868 102.115 21.1226 102.115 21.9583C102.115 23.3868 102.114 24.8153 102.115 26.2433C102.116 26.9521 102.237 27.0765 102.944 27.148C103.086 27.1625 103.262 27.1858 103.35 27.2765C103.422 27.3506 103.432 27.5547 103.381 27.6573C103.338 27.7459 103.171 27.82 103.059 27.821C101.715 27.8319 100.372 27.8252 99.0285 27.8309C98.7821 27.8319 98.6756 27.7433 98.6766 27.4848C98.6776 27.2252 98.7857 27.1558 99.0316 27.1418C99.9215 27.091 100.061 26.9299 100.061 26.0273C100.061 23.8848 100.051 21.7417 100.07 19.5998C100.074 19.1557 99.921 19.0127 99.4982 19.02C98.3715 19.0397 97.8031 19.4661 97.5083 20.5609C97.4651 20.7215 97.4815 20.9226 97.3889 21.0397C97.2866 21.1687 97.0973 21.2547 96.9316 21.2889C96.8827 21.2987 96.7197 21.0682 96.7212 20.949C96.731 20.2205 96.7804 19.493 96.8009 18.7645C96.8117 18.3801 97.0453 18.3298 97.3488 18.3324C98.4353 18.3422 99.5218 18.3464 100.608 18.3526C100.774 18.3536 100.94 18.3526 101.106 18.3526C101.105 18.3453 101.105 18.3396 101.105 18.3334Z" fill="white"/>
<path d="M63.7957 27.8287C63.1619 27.8287 62.5281 27.8266 61.8943 27.8297C61.6607 27.8308 61.4766 27.7971 61.4745 27.4924C61.4719 27.1893 61.6577 27.1624 61.8881 27.1417C62.7164 27.0686 62.8008 26.9847 62.8038 26.1391C62.811 24.0878 62.8105 22.0364 62.8038 19.9857C62.8013 19.1914 62.6824 19.0732 61.8907 19.0442C61.6381 19.0349 61.4802 18.9654 61.4843 18.6846C61.4884 18.4064 61.6484 18.3292 61.8994 18.3302C63.1825 18.3354 64.465 18.323 65.7475 18.3468C65.8817 18.3494 66.0983 18.5271 66.1266 18.6566C66.176 18.8836 66.0351 19.0261 65.7578 19.0473C64.8935 19.1142 64.7942 19.2359 64.7932 20.1152C64.7916 22.1344 64.7906 24.1536 64.7937 26.1733C64.7947 26.9515 64.9239 27.0893 65.7084 27.1427C65.9635 27.1598 66.1585 27.2132 66.1462 27.5235C66.1338 27.8287 65.9208 27.8313 65.6971 27.8303C65.0638 27.8272 64.4295 27.8292 63.7957 27.8287Z" fill="white"/>
<path d="M143.902 20.9214C143.902 20.466 143.922 20.0095 143.897 19.5556C143.873 19.1406 144.057 19.0106 144.437 19.052C144.751 19.0862 145.082 19.0536 145.378 19.1427C145.679 19.2328 146.012 19.3758 146.216 19.6007C146.752 20.1914 146.763 21.2878 146.309 22.0385C145.916 22.6898 145.151 23.0049 144.349 22.867C144.034 22.8126 143.871 22.6924 143.896 22.3328C143.926 21.8645 143.902 21.3919 143.902 20.9214Z" fill="black"/>
<path d="M137.985 22.9613C137.801 23.8582 137.684 24.6701 137.462 25.4515C137.136 26.5929 136.344 27.179 135.177 27.2551C133.894 27.3385 132.835 26.7971 132.401 25.7163C131.689 23.9416 131.655 22.1302 132.414 20.3608C132.892 19.2447 133.833 18.8022 135.013 18.8411C136.167 18.8794 137.031 19.3877 137.397 20.5162C137.66 21.3292 137.802 22.1815 137.985 22.9613Z" fill="black"/>
</svg>
