<svg width="173" height="50" viewBox="0 0 173 50" fill="none" xmlns="http://www.w3.org/2000/svg">
<path d="M82.3518 49.5551C82.2523 49.4358 82.2324 49.2767 82.2324 49.1375C82.2324 46.8109 82.2324 44.4843 82.2324 42.1576C82.2324 42.098 82.2324 42.0184 82.2324 41.9588C82.2523 41.8395 82.3319 41.74 82.4512 41.74C82.7496 41.74 83.0281 41.7202 83.3265 41.74C83.4856 41.74 83.5453 41.8196 83.5652 41.9985C83.5652 42.0781 83.5652 42.1576 83.5851 42.2571C83.6248 42.2571 83.6646 42.2571 83.6646 42.2372C83.9431 41.919 84.3012 41.7599 84.7189 41.7599C85.3355 41.74 85.9522 41.7201 86.5688 41.7798C87.5634 41.8792 88.0408 42.3963 88.1204 43.4502C88.1801 44.2058 88.1403 44.9814 88.1403 45.7569C88.1403 45.8762 88.1005 45.9956 88.0806 46.1149C87.9016 46.9302 87.3844 47.4074 86.529 47.4671C85.9124 47.5069 85.2958 47.487 84.6791 47.4671C84.3012 47.4671 84.0625 47.3279 83.605 46.9501C83.605 47.0694 83.5851 47.1489 83.5851 47.2285C83.5851 47.8449 83.5851 48.4614 83.5851 49.0778C83.5851 49.2568 83.5453 49.4159 83.4259 49.5352C83.0679 49.5551 82.7098 49.5551 82.3518 49.5551ZM86.8274 44.6036C86.8274 44.3053 86.8274 44.007 86.8274 43.7087C86.8274 43.6888 86.8274 43.6491 86.8274 43.6292C86.8075 43.2315 86.6484 43.0525 86.2704 43.0326C85.9124 42.9928 85.5345 42.9928 85.1764 42.9928C84.8581 42.9928 84.5399 42.9928 84.2216 43.0326C83.784 43.0724 83.6248 43.2513 83.605 43.6888C83.5851 44.3252 83.5851 44.9615 83.605 45.5978C83.6248 46.0353 83.8238 46.2342 84.2614 46.2342C84.8979 46.2541 85.5345 46.2541 86.171 46.2342C86.6285 46.2143 86.8075 46.0353 86.8274 45.5581C86.8274 45.2399 86.8274 44.9217 86.8274 44.6036Z" fill="white"/>
<path d="M172.741 46.1149C172.721 46.1944 172.701 46.2541 172.681 46.3336C172.621 46.8109 172.363 47.129 171.925 47.2881C171.647 47.3875 171.368 47.4472 171.07 47.4671C169.996 47.487 168.922 47.487 167.867 47.487C167.589 47.487 167.529 47.4273 167.509 47.129C167.509 46.9501 167.509 46.7711 167.509 46.5921C167.509 46.3137 167.589 46.2342 167.867 46.2342C168.205 46.2342 168.564 46.2342 168.902 46.2342C169.479 46.2342 170.055 46.2342 170.612 46.2342C170.752 46.2342 170.891 46.2143 171.03 46.1944C171.249 46.1348 171.368 45.9757 171.368 45.7569C171.368 45.5382 171.269 45.3791 171.05 45.3194C170.692 45.2399 170.334 45.2001 169.976 45.1604C169.558 45.1007 169.121 45.0609 168.683 45.0013C168.583 44.9814 168.504 44.9615 168.404 44.9416C167.847 44.7825 167.509 44.4246 167.41 43.828C167.37 43.5099 167.35 43.2116 167.43 42.9133C167.529 42.4161 167.808 42.0781 168.285 41.919C168.603 41.8196 168.941 41.7599 169.28 41.74C170.195 41.7202 171.11 41.74 172.045 41.74C172.403 41.74 172.442 41.7997 172.442 42.1576C172.442 42.3167 172.442 42.4957 172.442 42.6548C172.442 42.9133 172.383 42.9729 172.124 42.9729C172.045 42.9729 171.965 42.9729 171.866 42.9729C171.149 42.9729 170.413 42.9729 169.697 42.9729C169.518 42.9729 169.339 42.9928 169.16 43.0127C168.842 43.0525 168.703 43.2116 168.703 43.49C168.703 43.7684 168.822 43.9076 169.12 43.9473C169.498 44.007 169.856 44.0269 170.234 44.0865C170.632 44.1462 171.03 44.186 171.428 44.2655C171.607 44.3053 171.786 44.3649 171.965 44.4445C172.363 44.6433 172.582 44.9615 172.641 45.4189C172.641 45.4984 172.681 45.578 172.701 45.6575C172.741 45.8166 172.741 45.9757 172.741 46.1149Z" fill="white"/>
<path d="M14.7992 49.5551C14.7395 49.4954 14.66 49.4556 14.6003 49.396C14.3815 49.1971 14.3815 48.8591 14.5804 48.6801C14.7793 48.4812 15.0976 48.5011 15.2766 48.7C15.4755 48.9187 15.4357 49.2369 15.2169 49.4159C15.1572 49.4755 15.0777 49.5153 14.9981 49.5551C14.9583 49.5551 14.8788 49.5551 14.7992 49.5551Z" fill="white"/>
<path d="M13.3482 49.4955C13.2487 49.4359 13.1891 49.416 13.1493 49.3961C11.5579 48.1831 10.086 46.8706 8.7731 45.3394C7.16186 43.4702 6.22695 41.2629 5.72966 38.8766C5.55063 38.0215 5.45117 37.1267 5.45117 36.2517C5.47106 33.8455 6.16728 31.6382 7.53981 29.6497C8.33548 28.4963 9.33007 27.5219 10.4042 26.6469C16.6303 21.4568 22.8764 16.2865 29.0826 11.0765C29.8584 10.4202 30.5546 9.68448 31.2508 8.94871C32.2454 7.89477 33.1405 6.74141 33.8765 5.46872C34.513 4.35513 35.0103 3.162 35.2092 1.86943C35.2888 1.39217 35.3087 0.914917 35.3485 0.437662C35.3485 0.338233 35.3485 0.238809 35.3485 0.0996094C35.4281 0.119495 35.4877 0.139378 35.5275 0.159264C37.4172 1.61092 39.1876 3.18188 40.6198 5.11078C41.6542 6.52266 42.3106 8.11353 42.7681 9.78392C43.166 11.2555 43.3251 12.7668 43.2057 14.298C43.0466 16.2269 42.4101 17.9967 41.3558 19.6074C40.5601 20.8204 39.5854 21.8545 38.4715 22.7692C34.8512 25.772 31.211 28.7548 27.6106 31.7575C24.8854 34.0245 22.1603 36.3114 19.455 38.5982C17.8835 39.9305 16.4911 41.422 15.3573 43.1321C14.5218 44.3849 13.8853 45.7371 13.567 47.2286C13.4278 47.845 13.3681 48.4615 13.3681 49.0978C13.3482 49.237 13.3482 49.3364 13.3482 49.4955Z" fill="white"/>
<path d="M142.126 27.2035C142.206 27.3228 142.265 27.4222 142.325 27.5018C143.558 29.2517 144.772 30.9818 146.005 32.7317C146.104 32.8709 146.204 33.0101 146.264 33.1692C146.403 33.5271 146.244 33.8254 145.866 33.905C145.746 33.9248 145.627 33.9248 145.508 33.9248C144.374 33.9248 143.24 33.9248 142.106 33.9248C141.589 33.9248 141.211 33.726 140.933 33.2885C139.799 31.5187 138.645 29.7489 137.511 27.9592C137.372 27.7404 137.213 27.6609 136.934 27.6609C134.428 27.6609 131.922 27.6609 129.415 27.6609C129.296 27.6609 129.196 27.6609 129.057 27.6609C129.037 27.8001 129.037 27.9194 129.037 28.0387C129.037 29.6693 129.037 31.28 129.037 32.9107C129.037 33.0698 129.017 33.2288 128.998 33.3879C128.938 33.7061 128.719 33.8652 128.421 33.9248C128.341 33.9447 128.262 33.9447 128.162 33.9447C127.168 33.9447 126.173 33.9447 125.178 33.9447C125.119 33.9447 125.059 33.9447 125.019 33.9447C124.601 33.9248 124.363 33.6862 124.303 33.2885C124.283 33.1294 124.283 32.9703 124.283 32.8112C124.283 25.5928 124.283 18.3942 124.283 11.1757C124.283 11.0166 124.283 10.8376 124.323 10.6785C124.363 10.3405 124.562 10.1416 124.88 10.0621C125.019 10.0422 125.158 10.0223 125.298 10.0223C129.495 10.0223 133.712 10.0024 137.909 10.0422C139.461 10.0422 140.972 10.2411 142.444 10.7581C144.215 11.3944 145.528 12.5279 146.283 14.258C146.602 14.9937 146.821 15.7692 146.92 16.5448C147.159 18.1754 147.139 19.806 146.92 21.4168C146.821 22.1525 146.622 22.8684 146.343 23.5644C145.687 25.2149 144.513 26.3285 142.882 26.9649C142.623 27.0245 142.385 27.1041 142.126 27.2035ZM129.057 23.1468C129.196 23.1468 129.316 23.1468 129.435 23.1468C131.961 23.1468 134.488 23.1468 137.014 23.1468C137.69 23.1468 138.386 23.1269 139.063 23.0275C139.66 22.948 140.236 22.8088 140.793 22.5304C141.231 22.3116 141.589 21.9935 141.788 21.5361C141.927 21.198 142.047 20.8401 142.126 20.4623C142.285 19.6668 142.265 18.8714 142.226 18.076C142.206 17.5192 142.106 16.9624 141.907 16.4255C141.649 15.7693 141.211 15.292 140.555 15.0335C140.396 14.9738 140.236 14.9142 140.077 14.8744C139.341 14.6557 138.585 14.5562 137.829 14.5562C134.985 14.5363 132.16 14.5364 129.316 14.5364C129.216 14.5364 129.137 14.5562 129.057 14.5562C128.998 14.8744 128.998 22.8883 129.057 23.1468Z" fill="white"/>
<path d="M72.068 14.5761C71.9487 14.5761 71.8492 14.5761 71.7299 14.5761C67.1548 14.5761 62.5797 14.5761 58.0046 14.5761C57.8653 14.5761 57.746 14.5761 57.6067 14.5761C57.2487 14.5364 57.0299 14.3574 56.9503 14.0193C56.9304 13.9 56.9105 13.7807 56.9105 13.6614C56.9105 12.7666 56.9105 11.8518 56.9105 10.957C56.9105 10.8774 56.9105 10.778 56.9304 10.6985C56.9901 10.3007 57.189 10.1019 57.5868 10.0223C57.7062 10.0024 57.8255 10.0024 57.9449 10.0024C64.5688 10.0024 71.1928 10.0024 77.7969 10.0024C77.956 10.0024 78.1151 10.0223 78.2743 10.0621C78.5528 10.1218 78.7318 10.3206 78.7915 10.599C78.8312 10.7382 78.8312 10.8973 78.8312 11.0365C78.8312 11.9314 78.8312 12.8461 78.8312 13.741C78.8312 14.2779 78.6522 14.6955 78.2743 15.0733C75.7679 17.5192 73.2615 19.9652 70.7751 22.4111C68.9848 24.161 67.1946 25.911 65.4043 27.6609C64.8871 28.158 64.3699 28.6751 63.8527 29.1722C63.7931 29.2319 63.7334 29.2915 63.6339 29.4108C63.7931 29.4108 63.9124 29.4108 64.0119 29.4108C68.6268 29.4108 73.2615 29.4108 77.8764 29.4108C78.0356 29.4108 78.1947 29.4108 78.3538 29.4506C78.6323 29.5103 78.7915 29.6892 78.8511 29.9676C78.871 30.0869 78.8909 30.2261 78.8909 30.3653C78.8909 31.2403 78.8909 32.1352 78.8909 33.0101C78.8909 33.0897 78.8909 33.1692 78.871 33.2289C78.8113 33.7061 78.5528 33.9249 78.0952 33.9447C77.9958 33.9447 77.8963 33.9447 77.777 33.9447C71.1729 33.9447 64.5688 33.9447 57.9648 33.9447C57.8255 33.9447 57.6863 33.9448 57.5471 33.9249C57.2288 33.8851 57.01 33.7061 56.9304 33.388C56.8906 33.2488 56.8906 33.0897 56.8906 32.9505C56.8906 32.0556 56.8906 31.1608 56.8906 30.2858C56.8906 29.7688 57.0697 29.3512 57.4277 28.9733C58.7605 27.6808 60.0932 26.3683 61.4061 25.0758C63.256 23.2662 65.1059 21.4566 66.9559 19.6271C68.587 18.0362 70.1982 16.4454 71.8293 14.8545C71.9089 14.775 71.9885 14.7352 72.0879 14.6756C72.1078 14.6358 72.0879 14.596 72.068 14.5761Z" fill="white"/>
<path d="M94.4867 18.792C94.4867 16.2466 94.4867 13.6814 94.4867 11.136C94.4867 10.9571 94.4867 10.7781 94.5265 10.5991C94.5861 10.2809 94.7652 10.0821 95.0834 10.0224C95.2028 10.0025 95.342 9.98267 95.4813 9.98267C96.4162 9.98267 97.3312 9.98267 98.2661 9.98267C98.3059 9.98267 98.3457 9.98267 98.3855 9.98267C98.9822 10.0026 99.2408 10.2611 99.2806 10.8576C99.2806 10.9769 99.2806 11.0764 99.2806 11.1957C99.2806 16.0876 99.2806 20.9794 99.2806 25.8912C99.2806 26.3883 99.3005 26.8855 99.4 27.3826C99.6188 28.4962 100.196 29.0729 101.29 29.2916C101.668 29.3712 102.046 29.4109 102.443 29.4109C105.069 29.4109 107.695 29.4109 110.321 29.4109C110.818 29.4109 111.315 29.3513 111.793 29.1922C112.529 28.9734 113.006 28.4962 113.205 27.7604C113.364 27.2235 113.404 26.6468 113.424 26.09C113.424 25.9309 113.424 25.7719 113.424 25.6128C113.424 20.7607 113.424 15.9086 113.424 11.0764C113.424 10.9372 113.424 10.8179 113.424 10.6787C113.463 10.3406 113.662 10.102 114.001 10.0423C114.14 10.0224 114.279 10.0025 114.418 10.0025C115.333 10.0025 116.268 10.0025 117.183 10.0025C117.959 10.0025 118.218 10.2611 118.218 11.0366C118.218 14.5564 118.218 18.096 118.218 21.6158C118.218 22.9879 118.218 24.36 118.218 25.7321C118.218 26.6866 118.138 27.6212 117.899 28.5558C117.641 29.6297 117.203 30.6041 116.507 31.479C115.572 32.6523 114.359 33.3284 112.926 33.6664C112.091 33.8653 111.255 33.9647 110.38 33.9647C107.675 33.9647 104.97 33.9647 102.264 33.9647C101.23 33.9647 100.216 33.8454 99.2209 33.5272C97.3312 32.9506 96.0183 31.7376 95.2227 29.9478C94.8447 29.0729 94.6259 28.178 94.5464 27.2235C94.4867 26.5872 94.4668 25.9309 94.4668 25.2946C94.4867 23.1072 94.4867 20.9595 94.4867 18.792Z" fill="white"/>
<path d="M83.7051 21.9537C83.7051 18.3146 83.7051 14.6756 83.7051 11.0365C83.7051 10.8774 83.725 10.7183 83.7449 10.5593C83.8045 10.2809 83.9836 10.1019 84.262 10.0422C84.4013 10.0024 84.5405 10.0024 84.6798 10.0024C85.5948 10.0024 86.5297 10.0024 87.4447 10.0024C87.4845 10.0024 87.5442 10.0024 87.584 10.0024C88.1409 10.0422 88.4194 10.3007 88.4393 10.8774C88.4393 10.957 88.4393 11.0365 88.4393 11.1359C88.4393 18.3743 88.4393 25.6127 88.4393 32.851C88.4393 33.0101 88.4393 33.1493 88.4194 33.3084C88.3597 33.726 88.1012 33.9249 87.6834 33.9447C87.6238 33.9447 87.5442 33.9447 87.4845 33.9447C86.5297 33.9447 85.5948 33.9447 84.64 33.9447C84.5405 33.9447 84.461 33.9447 84.3615 33.9447C84.0233 33.905 83.8045 33.726 83.7449 33.388C83.7051 33.2289 83.7051 33.0499 83.7051 32.8908C83.7051 29.2319 83.7051 25.5928 83.7051 21.9537Z" fill="white"/>
<path d="M123.648 47.4671C123.191 47.4671 122.753 47.4671 122.295 47.4671C122.096 47.4671 121.878 47.4273 121.679 47.3875C120.923 47.2284 120.465 46.7512 120.266 46.0154C120.207 45.8165 120.187 45.5978 120.167 45.3791C120.147 45.1603 120.227 45.0609 120.465 45.0609C120.724 45.0609 120.983 45.0609 121.261 45.0609C121.48 45.0609 121.54 45.1206 121.599 45.3194C121.599 45.3592 121.619 45.3989 121.619 45.4387C121.719 45.8961 121.937 46.1148 122.415 46.1148C123.25 46.1347 124.066 46.1148 124.901 46.1148C124.941 46.1148 124.981 46.1148 125.021 46.1148C125.597 46.0353 125.916 45.4188 125.597 44.9018C125.538 44.8024 125.418 44.7228 125.299 44.6632C125.12 44.6035 124.921 44.5638 124.722 44.5439C124.145 44.4842 123.588 44.4643 123.012 44.4047C122.634 44.3649 122.256 44.3251 121.898 44.2854C121.778 44.2655 121.679 44.2456 121.559 44.2257C120.744 44.007 120.346 43.5695 120.266 42.7343C120.247 42.4559 120.247 42.1576 120.306 41.8593C120.445 40.9645 120.923 40.4872 121.798 40.3281C122.037 40.2883 122.256 40.2486 122.494 40.2486C123.27 40.2486 124.026 40.2287 124.802 40.2486C125.1 40.2486 125.418 40.3082 125.717 40.4077C126.294 40.5667 126.672 40.9645 126.851 41.5213C126.93 41.7798 126.99 42.0582 127.01 42.3366C127.03 42.5752 126.95 42.6547 126.731 42.6547C126.453 42.6547 126.174 42.6547 125.896 42.6547C125.737 42.6547 125.637 42.5951 125.617 42.436C125.617 42.3962 125.597 42.3366 125.597 42.2968C125.498 41.8195 125.279 41.6008 124.782 41.6008C124.026 41.5809 123.27 41.6008 122.494 41.6008C122.455 41.6008 122.395 41.6207 122.355 41.6207C121.818 41.7201 121.579 42.0383 121.699 42.5752C121.738 42.8138 121.878 42.9928 122.116 43.0525C122.295 43.0922 122.474 43.132 122.673 43.1519C123.25 43.1917 123.827 43.2314 124.404 43.2911C124.842 43.3309 125.279 43.3905 125.717 43.4502C125.876 43.47 126.035 43.5496 126.194 43.6092C126.612 43.7882 126.89 44.0865 127.03 44.5439C127.209 45.1603 127.189 45.7768 126.95 46.3733C126.791 46.7909 126.493 47.0693 126.095 47.2483C125.796 47.3676 125.478 47.4472 125.14 47.4671C124.603 47.4671 124.125 47.4671 123.648 47.4671Z" fill="white"/>
<path d="M73.3803 42.3364C74.0169 41.6404 74.7927 41.7001 75.5485 41.7597C75.9066 41.7796 76.2249 41.8791 76.5232 42.0978C76.6426 42.1773 76.7222 42.2768 76.8415 42.3961C76.8813 42.3762 76.9211 42.3563 76.9609 42.3165C77.3189 41.9188 77.7963 41.7796 78.2936 41.7597C78.6716 41.7398 79.0694 41.7597 79.4473 41.7995C80.1236 41.8989 80.5613 42.2768 80.7403 42.933C80.8199 43.2313 80.8795 43.5494 80.8795 43.8477C80.8994 44.9414 80.8994 46.0153 80.8795 47.109C80.8795 47.4271 80.8199 47.4868 80.5016 47.4868C80.3027 47.4868 80.1038 47.4868 79.9048 47.4868C79.5667 47.4868 79.5269 47.447 79.5269 47.109C79.5269 46.6118 79.5269 46.1346 79.5269 45.6374C79.5269 45.0608 79.5269 44.4841 79.5269 43.8875C79.5269 43.7483 79.507 43.5892 79.4871 43.45C79.4473 43.1915 79.2882 43.0523 79.0296 43.0125C78.5522 42.933 78.0748 42.933 77.5974 43.0125C77.3587 43.0523 77.1797 43.2114 77.1399 43.45C77.12 43.6091 77.1001 43.7881 77.1001 43.9472C77.1001 44.9414 77.1001 45.9158 77.1001 46.9101C77.1001 46.9897 77.1001 47.0692 77.1001 47.1686C77.0802 47.3874 77.0404 47.4669 76.8216 47.4669C76.563 47.4669 76.3243 47.4669 76.0657 47.4669C75.8469 47.4669 75.7872 47.4073 75.7674 47.1686C75.7674 47.0891 75.7674 47.0096 75.7674 46.9101C75.7674 45.896 75.7674 44.8818 75.7674 43.8676C75.7674 43.6887 75.7475 43.5097 75.7077 43.3506C75.6679 43.1517 75.5287 43.0523 75.3297 43.0125C74.8324 42.933 74.3351 42.933 73.8379 43.0125C73.5793 43.0523 73.44 43.2114 73.4002 43.4699C73.3803 43.6886 73.3406 43.9074 73.3406 44.1062C73.3406 45.0608 73.3406 45.9954 73.3406 46.9499C73.3406 47.0294 73.3406 47.1289 73.3406 47.2084C73.3207 47.4073 73.2809 47.447 73.082 47.4669C72.8234 47.4669 72.5648 47.4669 72.2863 47.4669C72.0874 47.4669 72.0277 47.3874 72.0078 47.1885C72.0078 47.109 72.0078 47.0294 72.0078 46.93C72.0078 45.359 72.0078 43.7881 72.0078 42.237C72.0078 41.7597 72.0476 41.72 72.525 41.72C72.6841 41.72 72.8632 41.72 73.0223 41.72C73.2809 41.72 73.3406 41.7796 73.3406 42.0381C73.3604 42.1177 73.3604 42.1972 73.3803 42.3364Z" fill="white"/>
<path d="M60.0535 47.4669C59.5363 47.4669 59.0192 47.4868 58.502 47.4669C57.9251 47.447 57.4079 47.2283 57.0101 46.7709C56.7117 46.4329 56.5725 46.0153 56.5128 45.5579C56.473 45.2596 56.4531 44.9415 56.4531 44.6233C56.4531 43.8477 56.473 43.0722 56.4929 42.2967C56.5128 41.9188 56.6123 41.5609 56.8112 41.2228C57.0499 40.8052 57.4079 40.507 57.8853 40.3678C58.1638 40.2882 58.4622 40.2485 58.7407 40.2286C59.596 40.2087 60.4713 40.2286 61.3266 40.2286C61.4857 40.2286 61.6449 40.2484 61.804 40.2683C62.9577 40.4274 63.455 41.2626 63.5744 42.1972C63.5943 42.3762 63.5943 42.5552 63.5943 42.7342C63.5943 42.9131 63.5346 42.9728 63.3556 42.9728C63.0373 42.9927 62.7389 42.9927 62.4207 42.9728C62.2416 42.9728 62.2018 42.9131 62.182 42.7342C62.1621 42.5552 62.1621 42.3762 62.1422 42.1972C62.0825 41.8592 61.8836 41.6603 61.5454 41.6007C61.4062 41.5808 61.2868 41.5609 61.1476 41.5609C60.3917 41.5609 59.6358 41.5609 58.8998 41.5609C58.7805 41.5609 58.681 41.5609 58.5617 41.5808C58.124 41.6603 57.9052 41.8393 57.9052 42.2967C57.8853 43.3108 57.8853 44.325 57.9052 45.3392C57.9251 45.8363 58.2036 46.0551 58.7009 46.0749C59.596 46.0948 60.4912 46.0948 61.3863 46.0749C61.8836 46.0749 62.1223 45.8164 62.182 45.3392C62.2018 45.1801 62.182 45.021 62.2018 44.8619C62.2217 44.6432 62.2814 44.5835 62.5002 44.5636C62.7787 44.5636 63.0572 44.5636 63.3357 44.5636C63.5346 44.5636 63.5943 44.6233 63.5943 44.8221C63.6142 45.1801 63.5943 45.5579 63.4948 45.9159C63.2362 46.8306 62.54 47.3874 61.5852 47.4272C61.0879 47.4868 60.5707 47.4669 60.0535 47.4669Z" fill="white"/>
<path d="M114.08 45.1602C113.463 45.1602 112.866 45.1602 112.25 45.1602C111.971 45.1602 111.932 45.2 111.951 45.4784C111.951 45.4982 111.951 45.5181 111.951 45.538C112.011 46.0749 112.17 46.234 112.727 46.234C113.583 46.234 114.438 46.234 115.293 46.234C115.373 46.234 115.472 46.234 115.552 46.234C115.751 46.2539 115.83 46.3135 115.83 46.5124C115.85 46.751 115.83 46.9897 115.83 47.2084C115.83 47.4073 115.771 47.447 115.572 47.4669C115.532 47.4669 115.472 47.4669 115.433 47.4669C114.498 47.4669 113.563 47.4669 112.628 47.4669C112.29 47.4669 111.971 47.4271 111.653 47.3078C111.315 47.1885 111.076 46.9698 110.897 46.6516C110.698 46.2738 110.619 45.8761 110.619 45.4585C110.599 44.7625 110.639 44.0665 110.658 43.3904C110.658 43.2512 110.698 43.1319 110.718 43.0125C110.897 42.2768 111.375 41.8592 112.111 41.7796C112.548 41.7399 112.986 41.72 113.423 41.72C113.881 41.72 114.338 41.72 114.796 41.7796C115.592 41.8791 116.049 42.3165 116.208 43.0921C116.268 43.3705 116.268 43.6688 116.288 43.9472C116.308 44.2256 116.288 44.4841 116.288 44.7625C116.288 45.0806 116.228 45.1403 115.91 45.1403C115.293 45.1602 114.677 45.1602 114.08 45.1602ZM114.915 44.1062C114.915 43.9074 114.935 43.7284 114.915 43.5494C114.876 43.2114 114.736 43.0324 114.378 43.0125C113.801 42.9728 113.225 42.9927 112.648 42.9927C112.528 42.9927 112.409 43.0125 112.329 43.0523C112.23 43.112 112.091 43.1915 112.071 43.271C112.011 43.4898 111.991 43.7085 111.971 43.9273C111.951 44.0267 112.031 44.1062 112.15 44.1062C112.21 44.1062 112.27 44.1062 112.309 44.1062C113.085 44.1062 113.841 44.1062 114.617 44.1062C114.697 44.1261 114.796 44.1062 114.915 44.1062Z" fill="white"/>
<path d="M92.3572 47.4669C91.9394 47.4669 91.5217 47.4868 91.1239 47.4669C90.9051 47.4669 90.6863 47.4073 90.4873 47.3476C90.0298 47.2084 89.7315 46.8902 89.5524 46.4329C89.3933 45.9755 89.3734 45.5181 89.3535 45.0409C89.3535 44.5239 89.3535 43.9869 89.3933 43.4699C89.4132 43.2313 89.4729 42.9728 89.5524 42.7342C89.7315 42.2569 90.0895 41.9387 90.5868 41.8194C90.8454 41.7598 91.104 41.72 91.3626 41.72C92.019 41.7001 92.6555 41.7001 93.312 41.72C93.6103 41.7399 93.9286 41.7995 94.227 41.8791C94.6447 41.9984 94.9431 42.2768 95.0823 42.6745C95.1818 42.9728 95.2813 43.291 95.3011 43.5892C95.3409 44.2455 95.321 44.9216 95.3011 45.5778C95.3011 45.7767 95.2614 45.9954 95.2017 46.1943C94.9829 46.9897 94.5055 47.4073 93.67 47.447C93.2324 47.4868 92.7948 47.4669 92.3572 47.4669ZM90.7459 44.5835C90.7459 44.9216 90.726 45.2795 90.7459 45.6176C90.7658 46.0153 90.9449 46.2141 91.3427 46.2141C91.9991 46.234 92.6754 46.234 93.3319 46.2141C93.7297 46.1943 93.9286 46.0352 93.9485 45.6176C93.9684 44.9415 93.9684 44.2455 93.9485 43.5694C93.9286 43.1716 93.7695 43.0126 93.3915 42.9927C92.6953 42.9728 91.9991 42.9728 91.3228 42.9927C90.9051 43.0126 90.7658 43.1915 90.7459 43.6091C90.7459 43.9472 90.7459 44.2654 90.7459 44.5835Z" fill="white"/>
<path d="M156.171 47.487C155.892 47.487 155.614 47.487 155.335 47.487C155.216 47.487 155.097 47.487 154.977 47.487C153.963 47.4472 153.406 46.9301 153.267 45.9359C153.227 45.6774 153.207 45.399 153.207 45.1206C153.207 44.524 153.227 43.9473 153.267 43.3507C153.287 43.132 153.366 42.8934 153.446 42.6746C153.625 42.257 153.943 41.9786 154.401 41.8593C154.679 41.7997 154.958 41.74 155.236 41.74C155.873 41.7201 156.509 41.7201 157.146 41.74C157.404 41.74 157.663 41.7798 157.921 41.8394C158.458 41.9587 158.817 42.2968 158.976 42.8138C159.075 43.132 159.135 43.4899 159.155 43.828C159.175 44.3251 159.175 44.8422 159.155 45.3393C159.155 45.5779 159.115 45.8166 159.075 46.0552C158.876 46.95 158.359 47.3875 157.444 47.4273C157.006 47.4869 156.589 47.4671 156.171 47.487C156.171 47.4671 156.171 47.4671 156.171 47.487ZM156.151 46.2342C156.489 46.2342 156.827 46.2342 157.166 46.2342C157.543 46.2143 157.683 46.0751 157.762 45.7171C157.782 45.5978 157.802 45.4984 157.802 45.3791C157.802 44.8819 157.802 44.3649 157.802 43.8678C157.802 43.1917 157.623 43.0127 156.927 42.9928C156.43 42.9729 155.912 42.9729 155.415 42.9928C154.719 43.0127 154.56 43.1917 154.54 43.8678C154.54 44.2655 154.54 44.6831 154.54 45.0808C154.54 45.2598 154.54 45.4586 154.56 45.6376C154.619 46.0751 154.778 46.2143 155.236 46.2342C155.534 46.2342 155.853 46.2342 156.151 46.2342Z" fill="white"/>
<path d="M131.246 47.4671C130.848 47.4671 130.43 47.4671 130.033 47.4671C129.854 47.4671 129.655 47.4273 129.476 47.3876C128.958 47.2484 128.6 46.9501 128.461 46.433C128.382 46.1546 128.302 45.8564 128.302 45.5581C128.282 44.9217 128.282 44.3053 128.302 43.6689C128.302 43.4104 128.362 43.1519 128.441 42.8934C128.62 42.2769 129.038 41.919 129.675 41.7997C129.893 41.7599 130.112 41.74 130.351 41.74C130.968 41.74 131.584 41.7202 132.201 41.74C132.479 41.74 132.778 41.7798 133.056 41.8593C133.534 41.9787 133.892 42.2968 134.051 42.7741C134.13 43.0525 134.21 43.3309 134.23 43.6292C134.25 44.2854 134.25 44.9416 134.23 45.5978C134.23 45.7768 134.21 45.9558 134.17 46.1348C133.991 46.97 133.454 47.4472 132.599 47.487C132.121 47.487 131.684 47.4671 131.246 47.4671ZM132.857 44.6036C132.857 44.2854 132.857 43.9473 132.857 43.6292C132.837 43.2315 132.698 43.0525 132.3 43.0326C131.604 43.0127 130.908 43.0127 130.232 43.0326C129.814 43.0525 129.655 43.2315 129.655 43.6491C129.635 44.2854 129.635 44.9416 129.655 45.578C129.675 46.0353 129.854 46.2342 130.311 46.2342C130.948 46.2541 131.584 46.2541 132.221 46.2342C132.678 46.2143 132.857 46.0353 132.857 45.5978C132.857 45.2598 132.857 44.9217 132.857 44.6036Z" fill="white"/>
<path d="M67.7307 47.4669C67.3329 47.4669 66.9152 47.4868 66.5173 47.4669C66.3184 47.4669 66.0996 47.4272 65.9007 47.3675C65.4432 47.2482 65.105 46.9499 64.9459 46.4925C64.8464 46.2141 64.7669 45.9357 64.7669 45.6375C64.747 44.9415 64.747 44.2455 64.7669 43.5495C64.7669 43.291 64.8464 43.0126 64.926 42.754C65.0851 42.2768 65.4233 41.9586 65.9206 41.8393C66.1792 41.7796 66.4378 41.72 66.6964 41.72C67.3727 41.7001 68.0689 41.7001 68.7452 41.72C69.0237 41.72 69.3221 41.7995 69.6006 41.8791C70.0183 41.9984 70.2968 42.2768 70.4559 42.6745C70.5952 42.9728 70.6548 43.291 70.6747 43.629C70.6747 44.2654 70.6747 44.9216 70.6747 45.5778C70.6747 45.7767 70.6349 45.9755 70.5952 46.1545C70.3962 46.9897 69.8791 47.4272 69.0237 47.4669C68.606 47.4868 68.1684 47.4669 67.7307 47.4669ZM66.1195 44.5835C66.1195 44.9017 66.1195 45.2398 66.1195 45.5579C66.1394 46.0153 66.3184 46.2141 66.7759 46.2141C67.4125 46.234 68.049 46.234 68.6855 46.2141C69.1232 46.1943 69.3221 46.0153 69.3221 45.5579C69.342 44.9017 69.342 44.2455 69.3221 43.5892C69.3221 43.1915 69.1629 43.0126 68.7651 42.9927C68.0689 42.9728 67.3727 42.9728 66.6964 42.9927C66.2786 43.0126 66.1394 43.1915 66.1195 43.6091C66.1195 43.9472 66.1195 44.2654 66.1195 44.5835Z" fill="white"/>
<path d="M98.5636 47.4869C98.0265 47.4869 97.4894 47.4869 96.9524 47.4869C96.6142 47.4869 96.5545 47.4272 96.5545 47.0891C96.5545 46.9102 96.5545 46.7312 96.5545 46.5522C96.5744 46.3136 96.6341 46.2341 96.8927 46.2341C97.3701 46.2341 97.8475 46.2341 98.3249 46.2341C98.7824 46.2341 99.22 46.2341 99.6775 46.2341C99.8168 46.2341 99.956 46.2142 100.095 46.1744C100.314 46.1147 100.433 45.9557 100.433 45.7369C100.433 45.5182 100.334 45.379 100.095 45.2994C99.8963 45.2398 99.7173 45.2199 99.5184 45.2C98.9813 45.1403 98.4641 45.0807 97.9271 45.021C97.8276 45.0011 97.7281 44.9813 97.6287 44.9614C96.8927 44.7824 96.5346 44.3847 96.4551 43.6489C96.4352 43.4103 96.4551 43.1518 96.4949 42.9132C96.5744 42.3961 96.8728 42.0382 97.39 41.8791C97.7082 41.7797 98.0265 41.72 98.3647 41.72C99.2797 41.7001 100.195 41.72 101.13 41.72C101.468 41.72 101.527 41.7797 101.527 42.0979C101.527 42.2768 101.527 42.4757 101.527 42.6546C101.527 42.8734 101.468 42.933 101.249 42.9529C101.13 42.9529 101.01 42.9529 100.891 42.9529C100.195 42.9529 99.4985 42.9529 98.8023 42.9529C98.6233 42.9529 98.4442 42.9728 98.2652 42.9927C97.947 43.0325 97.8276 43.1916 97.8077 43.4699C97.8077 43.7285 97.9271 43.8876 98.2453 43.9273C98.6233 43.987 98.9813 44.0268 99.3593 44.0665C99.7372 44.1262 100.115 44.166 100.493 44.2256C100.573 44.2455 100.652 44.2654 100.732 44.2853C101.329 44.4444 101.687 44.8222 101.766 45.4386C101.806 45.7767 101.806 46.1147 101.726 46.4329C101.627 46.8107 101.388 47.109 101.01 47.2283C100.732 47.3278 100.433 47.3874 100.135 47.4073C99.598 47.4869 99.0808 47.467 98.5636 47.4869C98.5636 47.467 98.5636 47.467 98.5636 47.4869Z" fill="white"/>
<path d="M161.82 42.3366C162.218 41.8593 162.695 41.74 163.193 41.74C163.69 41.74 164.187 41.74 164.685 41.7996C165.46 41.8991 165.898 42.2968 166.077 43.0723C166.137 43.3308 166.176 43.5893 166.176 43.8479C166.196 44.9416 166.176 46.0154 166.176 47.1091C166.176 47.4472 166.137 47.4869 165.779 47.4869C165.58 47.4869 165.361 47.4869 165.162 47.4869C164.883 47.4869 164.844 47.4273 164.824 47.1489C164.824 46.9898 164.824 46.8307 164.824 46.6716C164.824 45.7569 164.824 44.8421 164.824 43.9075C164.824 43.7683 164.804 43.6092 164.784 43.47C164.744 43.2115 164.585 43.0524 164.307 43.0325C164.147 43.0127 164.008 42.9928 163.849 42.9928C163.471 42.9928 163.093 42.9928 162.715 42.9928C162.636 42.9928 162.556 42.9928 162.496 43.0127C161.94 43.0723 161.78 43.2513 161.76 43.8081C161.76 44.7626 161.76 45.6972 161.76 46.6517C161.76 46.8506 161.76 47.0494 161.76 47.2483C161.76 47.4472 161.701 47.5068 161.502 47.5068C161.223 47.5068 160.965 47.5068 160.686 47.5068C160.487 47.5068 160.448 47.4472 160.428 47.2483C160.428 47.1688 160.428 47.0892 160.428 47.0296C160.428 45.4387 160.428 43.8479 160.428 42.257C160.428 42.2371 160.428 42.1973 160.428 42.1775C160.428 41.8394 160.487 41.7996 160.826 41.7798C161.024 41.7798 161.243 41.7798 161.442 41.7798C161.701 41.7798 161.76 41.8394 161.78 42.0979C161.8 42.1178 161.82 42.1974 161.82 42.3366Z" fill="white"/>
<path d="M142.584 46.9103C142.167 47.3875 141.669 47.487 141.132 47.4671C140.794 47.4671 140.456 47.4671 140.118 47.4671C139.999 47.4671 139.899 47.4671 139.78 47.4472C138.944 47.3279 138.487 46.8904 138.328 46.0552C138.288 45.8166 138.248 45.5779 138.248 45.3393C138.248 44.2854 138.248 43.2115 138.248 42.1576C138.248 42.098 138.248 42.0184 138.248 41.9587C138.268 41.8394 138.328 41.74 138.467 41.74C138.765 41.74 139.064 41.74 139.362 41.74C139.481 41.74 139.561 41.8195 139.581 41.9587C139.601 42.0582 139.601 42.1377 139.601 42.2372C139.601 43.2712 139.601 44.3251 139.601 45.3592C139.601 45.5183 139.621 45.6774 139.66 45.8364C139.7 46.0353 139.819 46.1546 140.018 46.1944C140.118 46.2143 140.217 46.2342 140.317 46.2342C140.834 46.2342 141.351 46.2342 141.868 46.2342C141.928 46.2342 141.988 46.2342 142.027 46.2143C142.386 46.1546 142.565 45.9955 142.584 45.6177C142.604 45.399 142.604 45.1603 142.604 44.9416C142.604 44.0467 142.604 43.1519 142.604 42.2769C142.604 42.1775 142.604 42.0979 142.604 41.9985C142.624 41.8195 142.704 41.74 142.883 41.74C143.161 41.7201 143.42 41.7201 143.698 41.74C143.877 41.74 143.937 41.8195 143.937 41.9786C143.937 42.0582 143.937 42.1377 143.937 42.1974C143.937 43.8081 143.937 45.399 143.937 47.0097C143.937 47.4472 143.917 47.4671 143.48 47.4671C143.301 47.4671 143.122 47.4671 142.943 47.4671C142.664 47.4671 142.624 47.4074 142.584 47.129C142.604 47.0892 142.584 47.0296 142.584 46.9103Z" fill="white"/>
<path d="M145.688 44.4046C145.688 44.0268 145.688 43.629 145.688 43.2512C145.688 42.9728 145.668 42.9728 145.41 42.9529C145.051 42.933 145.012 42.8933 145.012 42.5353C145.012 42.3961 145.012 42.2569 145.012 42.1177C145.012 41.7996 145.071 41.7598 145.37 41.7399C145.429 41.7399 145.509 41.7399 145.569 41.7399C145.827 41.72 145.986 41.5808 146.046 41.3422C146.086 41.1831 146.086 41.024 146.106 40.8649C146.106 40.7456 146.106 40.6462 146.126 40.5269C146.146 40.3678 146.225 40.2883 146.384 40.2883C147.061 40.2684 147.061 40.2883 147.061 40.8848C147.061 41.0837 147.061 41.2825 147.061 41.4814C147.061 41.7399 147.08 41.7598 147.339 41.7598C147.836 41.7598 148.334 41.7598 148.831 41.7598C148.911 41.7598 148.99 41.7598 149.05 41.7598C149.328 41.7598 149.408 41.8393 149.408 42.0979C149.408 42.2768 149.408 42.4558 149.408 42.6348C149.388 42.8933 149.328 42.9728 149.07 42.9728C148.612 42.9728 148.155 42.9728 147.697 42.9728C147.558 42.9728 147.439 42.9728 147.299 42.9728C147.1 42.9728 147.061 43.0126 147.061 43.2114C147.061 43.47 147.061 43.7285 147.061 44.0069C147.061 44.4841 147.061 44.9415 147.061 45.4187C147.061 45.5381 147.061 45.6375 147.08 45.7568C147.14 46.075 147.279 46.2341 147.598 46.2539C147.995 46.2937 148.393 46.2937 148.771 46.3136C149.408 46.3136 149.408 46.3136 149.408 46.9698C149.408 47.0693 149.408 47.1488 149.408 47.2482C149.388 47.4272 149.328 47.5067 149.169 47.5067C148.493 47.5067 147.797 47.5266 147.12 47.4471C146.285 47.3476 145.867 46.8704 145.768 46.0352C145.708 45.5182 145.708 44.9813 145.688 44.4642C145.668 44.4046 145.688 44.4046 145.688 44.4046Z" fill="white"/>
<path d="M107.375 44.3846C107.375 44.7227 107.375 45.0806 107.375 45.4187C107.375 45.538 107.395 45.6573 107.415 45.7766C107.455 46.0352 107.614 46.1744 107.872 46.2141C108.052 46.2539 108.231 46.2738 108.41 46.2738C108.748 46.2738 109.086 46.2738 109.424 46.2738C109.683 46.2738 109.742 46.3533 109.742 46.5919C109.742 46.7908 109.742 47.0096 109.742 47.2084C109.722 47.3874 109.663 47.4669 109.504 47.447C108.827 47.447 108.151 47.4669 107.475 47.3874C106.599 47.2681 106.182 46.7908 106.102 45.8959C106.062 45.4386 106.062 44.9812 106.042 44.5238C106.042 44.0864 106.042 43.6489 106.042 43.2114C106.042 42.9728 106.023 42.9529 105.784 42.9529C105.724 42.9529 105.664 42.9529 105.625 42.9529C105.466 42.933 105.386 42.8534 105.386 42.6944C105.366 42.4557 105.366 42.2171 105.386 41.9984C105.386 41.8393 105.466 41.7597 105.625 41.7399C105.704 41.7399 105.784 41.7399 105.844 41.7399C106.202 41.72 106.381 41.5609 106.44 41.183C106.46 40.9842 106.48 40.7655 106.48 40.5666C106.5 40.328 106.54 40.2882 106.798 40.2683C106.878 40.2683 106.957 40.2683 107.057 40.2683C107.335 40.2683 107.395 40.328 107.395 40.6263C107.395 40.845 107.395 41.0836 107.395 41.3024C107.395 41.362 107.395 41.4416 107.395 41.5012C107.415 41.7001 107.435 41.72 107.634 41.7399C107.833 41.7399 108.032 41.7399 108.231 41.7399C108.628 41.7399 109.026 41.7399 109.404 41.7399C109.683 41.7399 109.742 41.7995 109.762 42.0978C109.762 42.2768 109.762 42.4756 109.762 42.6546C109.762 42.8733 109.683 42.933 109.464 42.9529C109.265 42.9728 109.066 42.9529 108.867 42.9529C108.469 42.9529 108.052 42.9529 107.654 42.9529C107.415 42.9529 107.395 42.9926 107.395 43.2114C107.375 43.6091 107.375 43.9869 107.375 44.3846Z" fill="white"/>
<path d="M135.502 43.6093C135.502 42.5155 135.502 41.4218 135.502 40.3281C135.502 40.2685 135.502 40.1889 135.502 40.1293C135.522 39.7713 135.582 39.7117 135.94 39.7117C136.119 39.7117 136.318 39.7117 136.497 39.7117C136.775 39.7117 136.835 39.7912 136.874 40.0696C136.874 40.1492 136.874 40.2287 136.874 40.3281C136.874 42.5354 136.874 44.7228 136.874 46.9301C136.874 47.4671 136.855 47.5068 136.298 47.5068C136.138 47.5068 135.979 47.5068 135.82 47.5068C135.582 47.5068 135.502 47.4273 135.502 47.1887C135.502 47.1091 135.502 47.0296 135.502 46.9301C135.502 45.7967 135.502 44.703 135.502 43.6093Z" fill="white"/>
<path d="M150.541 44.6234C150.541 43.828 150.541 43.0326 150.541 42.2372C150.541 42.1576 150.541 42.0582 150.541 41.9786C150.561 41.8195 150.621 41.74 150.78 41.74C151.059 41.7201 151.337 41.7201 151.616 41.74C151.775 41.74 151.834 41.8195 151.854 41.9985C151.854 42.0781 151.854 42.1576 151.854 42.2173C151.854 43.8081 151.854 45.399 151.854 46.9898C151.854 47.0495 151.854 47.129 151.854 47.1887C151.834 47.4074 151.775 47.4671 151.556 47.4671C151.317 47.4671 151.078 47.4671 150.86 47.4671C150.561 47.4671 150.521 47.4074 150.521 47.1091C150.541 46.2938 150.541 45.4586 150.541 44.6234Z" fill="white"/>
<path d="M102.98 44.6234C102.98 43.828 102.98 43.0326 102.98 42.2372C102.98 42.1576 102.98 42.0582 102.98 41.9786C103 41.8195 103.06 41.74 103.239 41.74C103.518 41.7201 103.776 41.7201 104.055 41.74C104.234 41.74 104.293 41.8394 104.313 41.9985C104.333 42.0781 104.313 42.1576 104.313 42.257C104.313 43.828 104.313 45.399 104.313 46.9898C104.313 47.4472 104.293 47.487 103.816 47.487C103.637 47.487 103.438 47.487 103.259 47.487C103.04 47.487 102.98 47.4273 102.98 47.1887C102.98 46.8506 102.98 46.4927 102.98 46.1546C102.98 45.6376 102.98 45.1404 102.98 44.6234Z" fill="white"/>
<path d="M151.874 40.4276C151.874 40.5668 151.874 40.706 151.874 40.8452C151.854 41.0241 151.794 41.1037 151.615 41.1037C151.337 41.1236 151.058 41.1037 150.78 41.1037C150.64 41.1037 150.541 41.0242 150.541 40.885C150.541 40.5668 150.541 40.2685 150.541 39.9503C150.541 39.8111 150.621 39.7117 150.76 39.7117C151.058 39.6918 151.337 39.6918 151.635 39.7117C151.794 39.7117 151.854 39.7912 151.874 39.9702C151.894 40.1293 151.874 40.2685 151.874 40.4276Z" fill="white"/>
<path d="M102.98 40.4077C102.98 40.2486 102.98 40.1094 102.98 39.9503C102.999 39.7912 103.059 39.7117 103.218 39.7117C103.497 39.6918 103.755 39.6918 104.034 39.7117C104.213 39.7117 104.292 39.7912 104.312 39.9702C104.332 40.2685 104.332 40.5469 104.312 40.8452C104.312 41.044 104.233 41.1037 104.034 41.1236C103.775 41.1236 103.517 41.1236 103.258 41.1236C103.059 41.1236 102.999 41.0639 102.999 40.8452C102.96 40.6861 102.98 40.5469 102.98 40.4077Z" fill="white"/>
<path d="M20.0903 40.6463C20.0903 40.9048 19.8715 41.1435 19.593 41.1435C19.3344 41.1435 19.1156 40.9247 19.0957 40.6662C19.0957 40.3878 19.2946 40.1691 19.5731 40.1492C19.8516 40.1492 20.0903 40.3878 20.0903 40.6463Z" fill="white"/>
<path d="M16.3911 45.6574C16.3911 45.9159 16.1723 46.1545 15.8938 46.1744C15.6153 46.1744 15.3965 45.9557 15.3965 45.6773C15.3965 45.3989 15.5954 45.2 15.8739 45.1801C16.1325 45.1602 16.3712 45.3989 16.3911 45.6574Z" fill="white"/>
<path d="M23.7716 37.3055C23.7716 37.5839 23.5528 37.8026 23.2743 37.7827C22.9958 37.7827 22.7969 37.564 22.7969 37.2856C22.7969 37.0072 23.0157 36.8083 23.2743 36.8083C23.5528 36.8083 23.7716 37.0271 23.7716 37.3055Z" fill="white"/>
<path d="M27.9487 10.5394C27.9487 10.8178 27.71 11.0365 27.4315 11.0166C27.1531 10.9967 26.9541 10.7979 26.974 10.5195C26.974 10.2411 27.1928 10.0422 27.4713 10.0422C27.7299 10.0422 27.9487 10.261 27.9487 10.5394Z" fill="white"/>
<path d="M31.1505 7.17878C31.1505 7.45718 30.9118 7.67592 30.6532 7.67592C30.3747 7.67592 30.1758 7.43729 30.1758 7.15889C30.1758 6.90038 30.3946 6.68164 30.6532 6.68164C30.9118 6.68164 31.1505 6.90038 31.1505 7.17878Z" fill="white"/>
<path d="M18.5392 42.3365C18.5392 42.6149 18.3402 42.8137 18.0617 42.8137C17.7833 42.8137 17.5645 42.595 17.5645 42.3166C17.5645 42.0581 17.7833 41.8394 18.0617 41.8394C18.3203 41.8394 18.5392 42.0581 18.5392 42.3365Z" fill="white"/>
<path d="M15.2368 46.8506C15.5153 46.8506 15.7341 47.0892 15.7142 47.3676C15.6943 47.6261 15.4755 47.8449 15.2169 47.8449C14.9385 47.8449 14.7196 47.6062 14.7395 47.3278C14.7594 47.0693 14.9782 46.8506 15.2368 46.8506Z" fill="white"/>
<path d="M29.1207 8.35205C29.3992 8.35205 29.618 8.59067 29.5981 8.86907C29.5782 9.12758 29.3594 9.32644 29.0809 9.32644C28.8024 9.32644 28.6035 9.1077 28.6035 8.84919C28.6035 8.57079 28.8621 8.35205 29.1207 8.35205Z" fill="white"/>
<path d="M31.8664 5.01123C32.1449 5.01123 32.3438 5.22997 32.3637 5.48848C32.3637 5.76688 32.1449 5.98562 31.8664 5.98562C31.6078 5.98562 31.3691 5.76688 31.3691 5.50837C31.3691 5.22997 31.588 5.01123 31.8664 5.01123Z" fill="white"/>
<path d="M16.8489 44.4842C16.5704 44.4842 16.3516 44.2655 16.3516 44.0069C16.3516 43.7484 16.5505 43.5297 16.829 43.5098C17.1074 43.4899 17.3462 43.7087 17.3462 43.9871C17.3462 44.2456 17.1273 44.4842 16.8489 44.4842Z" fill="white"/>
<path d="M21.7618 38.9759C21.7618 39.2543 21.543 39.473 21.2645 39.473C21.0059 39.473 20.7871 39.2344 20.7871 38.9759C20.7871 38.6975 21.0059 38.4788 21.2844 38.4788C21.543 38.4986 21.7419 38.6975 21.7618 38.9759Z" fill="white"/>
<path d="M25.4407 11.7126C25.7191 11.7126 25.9181 11.9115 25.9181 12.1899C25.9181 12.4683 25.6992 12.6871 25.4208 12.6871C25.1622 12.6871 24.9434 12.4683 24.9434 12.2098C24.9434 11.9314 25.1423 11.7126 25.4407 11.7126Z" fill="white"/>
<path d="M32.8207 4.31523C32.5422 4.31523 32.3234 4.11636 32.3234 3.85785C32.3035 3.57945 32.5422 3.34082 32.8008 3.34082C33.0793 3.34082 33.2782 3.53969 33.2981 3.81809C33.318 4.09649 33.1191 4.31523 32.8207 4.31523Z" fill="white"/>
<path d="M33.4771 1.65063C33.7556 1.65063 33.9744 1.88927 33.9545 2.16767C33.9346 2.42618 33.7158 2.64492 33.4572 2.64492C33.1787 2.64492 32.9599 2.40628 32.9798 2.12789C32.9997 1.86937 33.2185 1.65063 33.4771 1.65063Z" fill="white"/>
<path d="M33.7759 0C34.0544 0 34.2533 0.198867 34.2533 0.477266C34.2533 0.755665 34.0345 0.974407 33.756 0.974407C33.4775 0.974407 33.2587 0.735775 33.2786 0.457376C33.2786 0.178977 33.4974 0 33.7759 0Z" fill="white"/>
<path d="M29.8368 5.03101C30.0954 5.03101 30.2943 5.22987 30.3142 5.48838C30.3142 5.7469 30.1153 5.96564 29.8368 5.98552C29.5782 5.98552 29.3793 5.78666 29.3594 5.52815C29.3594 5.24975 29.5583 5.03101 29.8368 5.03101Z" fill="white"/>
<path d="M18.8966 43.5295C19.1552 43.5295 19.3541 43.7483 19.3541 44.0068C19.3541 44.2653 19.1353 44.4841 18.8767 44.4841C18.6181 44.4841 18.3993 44.2454 18.4192 43.9869C18.4192 43.7284 18.638 43.5295 18.8966 43.5295Z" fill="white"/>
<path d="M25.4618 10.0422C25.7204 10.0422 25.9193 10.2411 25.9193 10.4996C25.9193 10.7581 25.7204 10.9769 25.4618 10.9769C25.2032 10.9769 24.9844 10.778 24.9844 10.4996C24.9844 10.261 25.2032 10.0422 25.4618 10.0422Z" fill="white"/>
<path d="M17.3053 49.0379C17.2854 49.2964 17.0865 49.4953 16.8279 49.4953C16.5693 49.4953 16.3505 49.2566 16.3704 48.9981C16.3903 48.7396 16.5892 48.5408 16.8478 48.5408C17.1064 48.5607 17.3053 48.7794 17.3053 49.0379Z" fill="white"/>
<path d="M25.2036 36.8281C25.4622 36.8281 25.681 37.027 25.681 37.2855C25.7009 37.544 25.4622 37.7826 25.2036 37.7826C24.945 37.7826 24.7461 37.5838 24.7461 37.3054C24.7461 37.0469 24.945 36.8281 25.2036 36.8281Z" fill="white"/>
<path d="M20.5686 42.3165C20.5686 42.575 20.3697 42.7938 20.131 42.7938C19.8724 42.8137 19.6536 42.6148 19.6536 42.3563C19.6337 42.0779 19.8525 41.8592 20.1111 41.8592C20.3498 41.8393 20.5487 42.058 20.5686 42.3165Z" fill="white"/>
<path d="M31.2698 3.83785C31.2698 4.09636 31.0709 4.29523 30.8123 4.31511C30.5537 4.31511 30.3349 4.09637 30.3548 3.81797C30.3548 3.55946 30.5736 3.3606 30.8322 3.3606C31.0709 3.3606 31.2698 3.57933 31.2698 3.83785Z" fill="white"/>
<path d="M17.6833 47.3676C17.6833 47.6261 17.4645 47.8249 17.2059 47.8249C16.9473 47.8249 16.7285 47.6062 16.7285 47.3676C16.7285 47.109 16.9473 46.8903 17.2258 46.9102C17.4844 46.8903 17.6833 47.109 17.6833 47.3676Z" fill="white"/>
<path d="M23.493 11.7324C23.7516 11.7324 23.9505 11.9313 23.9505 12.2097C23.9505 12.4682 23.7516 12.6869 23.493 12.6869C23.2344 12.6869 23.0156 12.4682 23.0156 12.1898C23.0355 11.9313 23.2344 11.7324 23.493 11.7324Z" fill="white"/>
<path d="M31.9655 2.14756C31.9655 2.40608 31.7665 2.60493 31.508 2.62481C31.2494 2.62481 31.0306 2.42596 31.0306 2.16745C31.0107 1.88905 31.2295 1.69019 31.508 1.69019C31.7665 1.69019 31.9655 1.88905 31.9655 2.14756Z" fill="white"/>
<path d="M23.7103 38.9758C23.7103 39.2343 23.5114 39.4332 23.2528 39.4332C22.9743 39.4332 22.7953 39.2542 22.7754 38.9758C22.7754 38.6974 22.9743 38.4985 23.2528 38.4985C23.5114 38.5184 23.7103 38.7173 23.7103 38.9758Z" fill="white"/>
<path d="M28.6249 6.70142C28.8835 6.70142 29.0824 6.90027 29.0824 7.17867C29.0824 7.43718 28.8835 7.63604 28.6249 7.63604C28.3464 7.63604 28.1475 7.43718 28.1674 7.15878C28.1475 6.90026 28.3663 6.70142 28.6249 6.70142Z" fill="white"/>
<path d="M26.6152 8.8292C26.6152 8.57069 26.834 8.37183 27.0926 8.37183C27.3512 8.37183 27.57 8.59057 27.5501 8.86897C27.5303 9.12748 27.3313 9.32634 27.0727 9.30645C26.8142 9.30645 26.6152 9.08772 26.6152 8.8292Z" fill="white"/>
<path d="M17.9028 45.2C18.1614 45.2 18.3603 45.3988 18.3802 45.6573C18.3802 45.9158 18.2012 46.1147 17.9227 46.1346C17.6442 46.1346 17.4453 45.9357 17.4453 45.6573C17.4453 45.3988 17.6442 45.2 17.9028 45.2Z" fill="white"/>
<path d="M31.8657 0.0195312C32.1243 0.0195312 32.3232 0.218394 32.3431 0.476908C32.3431 0.755306 32.1442 0.954158 31.8657 0.954158C31.6071 0.954158 31.4082 0.755295 31.4082 0.496782C31.4082 0.218383 31.6071 0.0195312 31.8657 0.0195312Z" fill="white"/>
<path d="M21.6031 40.189C21.8616 40.189 22.0805 40.3679 22.0805 40.6265C22.1003 40.9049 21.8815 41.1037 21.6229 41.1037C21.3644 41.1037 21.1654 40.9049 21.1654 40.6463C21.1455 40.3878 21.3445 40.189 21.6031 40.189Z" fill="white"/>
<path d="M24.0897 40.6463C24.0897 40.885 23.8908 41.1037 23.6521 41.1037C23.4134 41.1236 23.1946 40.9247 23.1946 40.6662C23.1747 40.4077 23.3935 40.189 23.6322 40.189C23.8709 40.2089 24.0897 40.4077 24.0897 40.6463Z" fill="white"/>
<path d="M26.5761 7.61619C26.3374 7.61619 26.1186 7.41733 26.1186 7.17871C26.0987 6.94008 26.2976 6.72134 26.5363 6.70145C26.775 6.68157 27.0137 6.90031 27.0137 7.13894C27.0336 7.41734 26.8148 7.61619 26.5761 7.61619Z" fill="white"/>
<path d="M25.243 38.5384C25.4817 38.5384 25.6806 38.7372 25.6806 38.9957C25.6806 39.2542 25.4618 39.4531 25.2032 39.4531C24.9645 39.4531 24.7656 39.2344 24.7656 38.9957C24.7855 38.7372 25.0043 38.5185 25.243 38.5384Z" fill="white"/>
<path d="M27.61 37.3055C27.61 37.5441 27.4111 37.743 27.1525 37.743C26.8939 37.743 26.7148 37.5441 26.7148 37.2856C26.7148 37.047 26.9337 36.8481 27.1724 36.8481C27.4111 36.868 27.61 37.0669 27.61 37.3055Z" fill="white"/>
<path d="M25.5221 8.84901C25.5221 9.08764 25.3232 9.30637 25.0845 9.30637C24.8458 9.30637 24.627 9.10752 24.627 8.86889C24.627 8.63026 24.8259 8.41153 25.0646 8.41153C25.3033 8.39164 25.5221 8.5905 25.5221 8.84901Z" fill="white"/>
<path d="M20.3697 45.6773C20.3697 45.9159 20.1708 46.1148 19.9321 46.1346C19.6735 46.1346 19.4746 45.9358 19.4746 45.6773C19.4746 45.4386 19.6934 45.2398 19.9321 45.2398C20.1509 45.2199 20.3697 45.4386 20.3697 45.6773Z" fill="white"/>
<path d="M30.415 0.476907C30.415 0.715535 30.236 0.934269 29.9774 0.934269C29.7188 0.954154 29.5 0.735421 29.5 0.476907C29.5 0.23828 29.7188 0.0394169 29.9376 0.0195312C30.2161 0.0195312 30.415 0.218394 30.415 0.476907Z" fill="white"/>
<path d="M22.1205 42.774C21.8818 42.774 21.663 42.5552 21.6829 42.3166C21.6829 42.078 21.9017 41.8792 22.1404 41.8792C22.3791 41.8792 22.578 42.0979 22.578 42.3365C22.578 42.5751 22.3791 42.774 22.1205 42.774Z" fill="white"/>
<path d="M21.563 11.7524C21.8017 11.7524 22.0006 11.9513 22.0006 12.2098C22.0006 12.4484 21.8017 12.6473 21.5431 12.6473C21.2845 12.6473 21.1055 12.4484 21.1055 12.1899C21.1055 11.9513 21.3044 11.7524 21.563 11.7524Z" fill="white"/>
<path d="M19.1958 47.805C18.9571 47.805 18.7383 47.6061 18.7383 47.3675C18.7383 47.1289 18.9173 46.9102 19.1759 46.9102C19.4146 46.9102 19.6334 47.109 19.6334 47.3476C19.6334 47.5863 19.4345 47.7851 19.1958 47.805Z" fill="white"/>
<path d="M21.3631 44.0069C21.3631 44.2655 21.1642 44.4444 20.9056 44.4444C20.647 44.4444 20.4679 44.2456 20.4878 43.987C20.4878 43.7285 20.6868 43.5496 20.9453 43.5496C21.184 43.5694 21.3631 43.7683 21.3631 44.0069Z" fill="white"/>
<path d="M29.5196 1.71021C29.7583 1.71021 29.9772 1.88918 29.9772 2.14769C29.9772 2.4062 29.7981 2.60507 29.5395 2.60507C29.3008 2.60507 29.082 2.40621 29.082 2.16758C29.082 1.92895 29.2611 1.71021 29.5196 1.71021Z" fill="white"/>
<path d="M23.4927 10.082C23.7513 10.082 23.9502 10.3008 23.9303 10.5394C23.9303 10.778 23.7115 10.9769 23.4728 10.9769C23.2142 10.9769 23.0352 10.778 23.0352 10.5195C23.0352 10.261 23.2341 10.082 23.4927 10.082Z" fill="white"/>
<path d="M27.7892 5.05103C28.0478 5.05103 28.2268 5.24988 28.2268 5.48851C28.2268 5.74703 28.0279 5.926 27.7892 5.926C27.5306 5.926 27.3516 5.72714 27.3516 5.48851C27.3516 5.24988 27.5505 5.05103 27.7892 5.05103Z" fill="white"/>
<path d="M18.7378 48.5806C18.9964 48.5806 19.1953 48.7794 19.1953 49.0181C19.1953 49.2766 18.9964 49.4555 18.7378 49.4555C18.4792 49.4555 18.3002 49.2766 18.3002 49.0181C18.2803 48.7794 18.4792 48.5806 18.7378 48.5806Z" fill="white"/>
<path d="M29.2408 3.81797C29.2408 4.0566 29.0618 4.25544 28.8032 4.25544C28.5446 4.25544 28.3457 4.07649 28.3457 3.81797C28.3457 3.57934 28.5446 3.38048 28.7833 3.3606C29.0419 3.38048 29.2408 3.57934 29.2408 3.81797Z" fill="white"/>
<path d="M29.5194 37.3054C29.5194 37.544 29.3006 37.723 29.0818 37.723C28.863 37.723 28.6641 37.5043 28.6641 37.2855C28.6641 37.0469 28.863 36.8679 29.1017 36.8679C29.3603 36.8878 29.5194 37.0668 29.5194 37.3054Z" fill="white"/>
<path d="M26.1776 5.50829C26.1776 5.72703 25.9588 5.92588 25.74 5.92588C25.5013 5.92588 25.3223 5.72702 25.3223 5.4884C25.3223 5.24977 25.5013 5.0708 25.7599 5.0708C25.9986 5.09069 26.1776 5.26966 26.1776 5.50829Z" fill="white"/>
<path d="M21.9415 46.095C21.7028 46.095 21.5039 45.8961 21.5039 45.6774C21.5039 45.4586 21.6829 45.2598 21.9216 45.2598C22.1603 45.2598 22.3593 45.4188 22.3593 45.6774C22.3593 45.8961 22.1802 46.095 21.9415 46.095Z" fill="white"/>
<path d="M23.4725 8.84915C23.4725 9.08777 23.2736 9.26674 23.0349 9.26674C22.7962 9.26674 22.6172 9.08776 22.6172 8.86902C22.6172 8.63039 22.7962 8.43155 23.0349 8.43155C23.2736 8.41166 23.4725 8.61052 23.4725 8.84915Z" fill="white"/>
<path d="M21.9198 10.5393C21.9198 10.7779 21.7209 10.9569 21.4822 10.9569C21.2435 10.9569 21.0645 10.758 21.0645 10.5194C21.0645 10.3007 21.2634 10.1018 21.5021 10.1018C21.7209 10.1018 21.9198 10.3007 21.9198 10.5393Z" fill="white"/>
<path d="M28.5057 0.477182C28.5057 0.71581 28.3267 0.914653 28.088 0.914653C27.8493 0.914653 27.6504 0.71581 27.6504 0.477182C27.6504 0.25844 27.8294 0.0794559 28.0681 0.0595703C28.3068 0.0595703 28.5057 0.238554 28.5057 0.477182Z" fill="white"/>
<path d="M24.9452 7.17883C24.9452 7.41745 24.7662 7.61631 24.5275 7.61631C24.2888 7.61631 24.0898 7.41745 24.0898 7.17883C24.0898 6.96008 24.2888 6.78112 24.5076 6.76123C24.7662 6.76123 24.9452 6.92031 24.9452 7.17883Z" fill="white"/>
<path d="M19.6125 12.6273C19.3738 12.6273 19.1748 12.4284 19.1947 12.1898C19.1947 11.9711 19.3738 11.7722 19.5926 11.7722C19.8313 11.7722 20.0302 11.9512 20.0302 12.1898C20.0501 12.4284 19.8512 12.6273 19.6125 12.6273Z" fill="white"/>
<path d="M26.078 40.6464C26.078 40.885 25.899 41.064 25.6404 41.064C25.4216 41.064 25.2227 40.885 25.2227 40.6662C25.2227 40.4276 25.4017 40.2288 25.6404 40.2288C25.899 40.2288 26.078 40.4077 26.078 40.6464Z" fill="white"/>
<path d="M21.1457 47.7652C20.907 47.7652 20.708 47.5664 20.7279 47.3278C20.7279 47.109 20.9269 46.9102 21.1457 46.9102C21.3844 46.9102 21.5833 47.0891 21.5833 47.3278C21.5833 47.5863 21.3844 47.7652 21.1457 47.7652Z" fill="white"/>
<path d="M26.7945 38.9559C26.8144 38.7173 27.0133 38.5582 27.252 38.5781C27.4708 38.598 27.6498 38.7968 27.6498 39.0156C27.6299 39.2542 27.431 39.4332 27.1923 39.4133C26.9536 39.3934 26.7746 39.1946 26.7945 38.9559Z" fill="white"/>
<path d="M23.75 42.3167C23.75 42.078 23.9489 41.8792 24.1876 41.8991C24.4064 41.8991 24.6053 42.0979 24.6053 42.3167C24.6053 42.5553 24.4064 42.7542 24.1677 42.7542C23.9489 42.7542 23.75 42.5553 23.75 42.3167Z" fill="white"/>
<path d="M23.3723 44.0069C23.3723 44.2455 23.1734 44.4443 22.9347 44.4443C22.696 44.4443 22.4971 44.2256 22.517 44.0069C22.517 43.7881 22.7159 43.6091 22.9347 43.5893C23.1933 43.5694 23.3723 43.7682 23.3723 44.0069Z" fill="white"/>
<path d="M26.7351 4.25552C26.4964 4.23563 26.3173 4.0169 26.3571 3.77827C26.377 3.55953 26.5958 3.38055 26.8146 3.40044C27.0533 3.42032 27.2324 3.63907 27.2125 3.85781C27.1727 4.09644 26.9539 4.27541 26.7351 4.25552Z" fill="white"/>
<path d="M20.6287 49.4357C20.39 49.4357 20.2109 49.2368 20.2109 49.0181C20.2109 48.7795 20.4099 48.5806 20.6287 48.6005C20.8475 48.6005 21.0663 48.7994 21.0663 49.038C21.0663 49.2567 20.8674 49.4357 20.6287 49.4357Z" fill="white"/>
<path d="M27.9882 2.1675C27.9882 2.40613 27.7892 2.5851 27.5505 2.5851C27.3118 2.5851 27.1328 2.38624 27.1328 2.14761C27.1527 1.92887 27.3317 1.74991 27.5505 1.74991C27.7892 1.73002 27.9882 1.92888 27.9882 2.1675Z" fill="white"/>
<path d="M21.4425 8.84914C21.4425 9.04799 21.2635 9.24684 21.0447 9.24684C20.8259 9.24684 20.627 9.06788 20.627 8.84914C20.627 8.6304 20.806 8.45142 21.0248 8.45142C21.2436 8.45142 21.4425 8.6304 21.4425 8.84914Z" fill="white"/>
<path d="M19.8917 10.5394C19.8917 10.7582 19.7127 10.9371 19.4939 10.9371C19.2751 10.9371 19.0762 10.7383 19.0762 10.5195C19.0762 10.3008 19.2751 10.1218 19.5138 10.1218C19.7326 10.1417 19.8917 10.3008 19.8917 10.5394Z" fill="white"/>
<path d="M22.1191 49.018C22.1191 48.7992 22.2982 48.6004 22.5369 48.6203C22.7557 48.6203 22.9347 48.7992 22.9347 49.018C22.9347 49.2367 22.7358 49.4356 22.517 49.4356C22.2982 49.4157 22.1191 49.2367 22.1191 49.018Z" fill="white"/>
<path d="M26.197 0.0795898C26.4158 0.0795898 26.6148 0.278444 26.5949 0.497186C26.575 0.715928 26.3959 0.875018 26.1771 0.875018C25.9384 0.875018 25.7793 0.676164 25.7793 0.457422C25.7992 0.23868 25.9782 0.0795898 26.197 0.0795898Z" fill="white"/>
<path d="M28.0672 40.6462C28.0672 40.865 27.908 41.0439 27.6892 41.0439C27.4704 41.0439 27.2715 40.865 27.2715 40.6462C27.2715 40.4275 27.4704 40.2485 27.6892 40.2485C27.908 40.2684 28.0672 40.4275 28.0672 40.6462Z" fill="white"/>
<path d="M23.5324 47.3279C23.5324 47.5268 23.3732 47.7256 23.1544 47.7455C22.9356 47.7654 22.7367 47.5864 22.7168 47.3478C22.7168 47.129 22.8759 46.9501 23.0947 46.9302C23.3136 46.9302 23.5125 47.1092 23.5324 47.3279Z" fill="white"/>
<path d="M25.5814 1.75C25.8002 1.75 25.9793 1.90907 25.9793 2.12782C25.9793 2.34656 25.8002 2.54541 25.5814 2.54541C25.3626 2.54541 25.1836 2.36645 25.1836 2.14771C25.1836 1.94885 25.3626 1.75 25.5814 1.75Z" fill="white"/>
<path d="M17.6829 12.6076C17.4641 12.6076 17.2851 12.4485 17.2652 12.2297C17.2453 12.011 17.4243 11.8121 17.6431 11.7922C17.8619 11.7922 18.0609 11.9712 18.0609 12.19C18.0807 12.4286 17.9017 12.6076 17.6829 12.6076Z" fill="white"/>
<path d="M26.238 42.7341C26.0192 42.7341 25.8203 42.5552 25.8203 42.3364C25.8203 42.1177 25.9794 41.9387 26.2181 41.9387C26.4568 41.9387 26.6359 42.1177 26.6359 42.3364C26.6359 42.5353 26.437 42.7341 26.238 42.7341Z" fill="white"/>
<path d="M25.1629 3.83801C25.1629 4.05675 24.9838 4.23573 24.765 4.23573C24.5462 4.23573 24.3672 4.05676 24.3672 3.81813C24.3672 3.59939 24.5462 3.42041 24.765 3.42041C24.9838 3.42041 25.1629 3.61926 25.1629 3.83801Z" fill="white"/>
<path d="M22.8752 7.17883C22.8752 7.39757 22.6961 7.55666 22.4773 7.57655C22.2585 7.57655 22.0596 7.37768 22.0795 7.15894C22.0795 6.9402 22.2784 6.76123 22.4773 6.76123C22.716 6.78112 22.8951 6.96008 22.8752 7.17883Z" fill="white"/>
<path d="M23.9705 45.2797C24.1893 45.2797 24.3683 45.4786 24.3484 45.6973C24.3285 45.916 24.1694 46.0751 23.9506 46.0751C23.7318 46.0751 23.5527 45.8961 23.5527 45.6774C23.5527 45.4587 23.7517 45.2598 23.9705 45.2797Z" fill="white"/>
<path d="M25.4011 43.9871C25.4011 44.2058 25.242 44.3848 25.0232 44.3848C24.7845 44.4047 24.6055 44.2257 24.6055 44.007C24.6055 43.7882 24.7646 43.6092 24.9834 43.5894C25.2022 43.5894 25.4011 43.7683 25.4011 43.9871Z" fill="white"/>
<path d="M29.2216 39.3736C29.0028 39.3736 28.8238 39.2145 28.8238 38.9957C28.8039 38.7571 28.9829 38.5781 29.2017 38.5781C29.4205 38.5781 29.6194 38.777 29.6194 38.9957C29.6194 39.1946 29.4404 39.3736 29.2216 39.3736Z" fill="white"/>
<path d="M30.6325 37.2656C30.6524 37.0468 30.8712 36.8679 31.0702 36.8877C31.289 36.9076 31.4481 37.1065 31.4282 37.3252C31.4083 37.5639 31.2293 37.7031 30.9906 37.6832C30.7718 37.6633 30.6126 37.4843 30.6325 37.2656Z" fill="white"/>
<path d="M23.7117 5.09082C23.9305 5.09082 24.1095 5.28967 24.1095 5.50842C24.1095 5.72716 23.9305 5.88623 23.7117 5.88623C23.4929 5.88623 23.3139 5.72716 23.3139 5.50842C23.294 5.28967 23.4929 5.09082 23.7117 5.09082Z" fill="white"/>
<path d="M28.2654 41.9387C28.4643 41.9387 28.6433 42.1177 28.6234 42.3165C28.6234 42.5353 28.4444 42.6944 28.2057 42.6745C28.0068 42.6546 27.8477 42.4756 27.8477 42.2768C27.8874 42.0978 28.0665 41.9387 28.2654 41.9387Z" fill="white"/>
<path d="M20.07 7.15876C20.0899 6.9599 20.269 6.78095 20.4679 6.80083C20.6668 6.82072 20.8458 6.99968 20.8259 7.19854C20.8259 7.41728 20.627 7.59626 20.4082 7.57637C20.2093 7.5366 20.0501 7.35761 20.07 7.15876Z" fill="white"/>
<path d="M26.357 45.6774C26.357 45.8762 26.178 46.0552 25.9791 46.0552C25.7603 46.0552 25.5812 45.8762 25.6011 45.6575C25.6011 45.4586 25.7801 45.2996 25.9791 45.2996C26.178 45.2996 26.357 45.4785 26.357 45.6774Z" fill="white"/>
<path d="M17.9019 10.5194C17.9019 10.7183 17.7229 10.8774 17.524 10.8973C17.3052 10.8973 17.1262 10.7183 17.146 10.4995C17.1659 10.3007 17.345 10.1416 17.5439 10.1416C17.7428 10.1615 17.9019 10.3206 17.9019 10.5194Z" fill="white"/>
<path d="M25.461 47.3676C25.461 47.5665 25.2819 47.7454 25.083 47.7454C24.8841 47.7454 24.7051 47.5665 24.7051 47.3676C24.7051 47.1489 24.8841 46.9699 25.1029 46.9898C25.3217 46.9699 25.461 47.1489 25.461 47.3676Z" fill="white"/>
<path d="M31.1908 38.5981C31.4096 38.5981 31.5688 38.7572 31.5688 38.976C31.5688 39.1748 31.4096 39.3538 31.1908 39.3538C30.972 39.3538 30.793 39.1748 30.793 38.9561C30.8129 38.7572 30.9919 38.5981 31.1908 38.5981Z" fill="white"/>
<path d="M29.6983 40.2683C29.8972 40.2683 30.0762 40.4473 30.0762 40.6461C30.0762 40.8649 29.8972 41.0439 29.6784 41.024C29.4596 41.0041 29.3203 40.845 29.3203 40.6263C29.3203 40.4274 29.4993 40.2683 29.6983 40.2683Z" fill="white"/>
<path d="M24.666 0.47741C24.666 0.676267 24.487 0.855227 24.2881 0.855227C24.0693 0.855227 23.9102 0.676262 23.9102 0.457521C23.9102 0.238779 24.0892 0.0796929 24.2881 0.0995786C24.487 0.0995786 24.666 0.278554 24.666 0.47741Z" fill="white"/>
<path d="M32.9815 36.9077C33.1804 36.9077 33.3594 37.0668 33.3594 37.2855C33.3594 37.4844 33.2003 37.6634 33.0014 37.6833C32.7825 37.6833 32.6035 37.5043 32.6035 37.3054C32.6035 37.0867 32.7825 36.9077 32.9815 36.9077Z" fill="white"/>
<path d="M21.6631 5.88626C21.4642 5.88626 21.2852 5.7073 21.2852 5.50845C21.2852 5.28971 21.4642 5.13062 21.683 5.13062C21.9018 5.13062 22.0609 5.30959 22.041 5.50845C22.0609 5.7073 21.862 5.88626 21.6631 5.88626Z" fill="white"/>
<path d="M22.7354 4.19583C22.5364 4.19583 22.3574 4.01687 22.3574 3.81802C22.3574 3.59928 22.5563 3.44019 22.7553 3.44019C22.9542 3.46007 23.1133 3.63904 23.1133 3.83789C23.1133 4.05663 22.9343 4.21572 22.7354 4.19583Z" fill="white"/>
<path d="M23.9898 2.14761C23.9898 2.34646 23.8307 2.52544 23.6318 2.52544C23.4329 2.54532 23.2538 2.38624 23.2339 2.1675C23.214 1.94876 23.3931 1.76978 23.6119 1.76978C23.8108 1.76978 23.9898 1.94875 23.9898 2.14761Z" fill="white"/>
<path d="M27.0322 44.3848C26.8333 44.3848 26.6543 44.2058 26.6543 44.007C26.6543 43.8081 26.8134 43.6292 27.0322 43.6292C27.251 43.6292 27.4301 43.8081 27.4301 44.007C27.4102 44.2058 27.2312 44.3848 27.0322 44.3848Z" fill="white"/>
<path d="M15.7334 12.5877C15.5146 12.5877 15.3555 12.4286 15.3555 12.2297C15.3555 12.011 15.4947 11.8519 15.7135 11.832C15.9323 11.832 16.1114 11.9911 16.1114 12.2098C16.1114 12.4286 15.9522 12.5877 15.7334 12.5877Z" fill="white"/>
<path d="M24.8044 49.0182C24.8044 49.237 24.6452 49.396 24.4463 49.396C24.2275 49.396 24.0684 49.237 24.0684 49.0381C24.0684 48.8194 24.2474 48.6404 24.4463 48.6404C24.6452 48.6404 24.8044 48.7995 24.8044 49.0182Z" fill="white"/>
<path d="M19.3946 8.84907C19.3946 9.06781 19.2354 9.20701 19.0166 9.20701C18.7978 9.20701 18.6387 9.04793 18.6387 8.84907C18.6387 8.63033 18.8177 8.45135 19.0365 8.47124C19.2354 8.47124 19.3946 8.65021 19.3946 8.84907Z" fill="white"/>
<path d="M28.7246 44.0069C28.7246 43.808 28.8837 43.6489 29.0827 43.6489C29.2816 43.6489 29.4407 43.8279 29.4407 44.0069C29.4407 44.2057 29.2617 44.3648 29.0827 44.3648C28.8837 44.3648 28.7246 44.1858 28.7246 44.0069Z" fill="white"/>
<path d="M30.6536 42.3167C30.6536 42.5155 30.4945 42.6746 30.2955 42.6746C30.0966 42.6746 29.9375 42.5155 29.9375 42.3167C29.9375 42.1178 30.0966 41.9587 30.2955 41.9587C30.4945 41.9587 30.6536 42.1178 30.6536 42.3167Z" fill="white"/>
<path d="M20.7073 4.19584C20.5084 4.19584 20.3691 4.01688 20.3691 3.81802C20.3691 3.61916 20.5482 3.46007 20.7272 3.47995C20.9261 3.47995 21.0654 3.65893 21.0654 3.85779C21.0654 4.03676 20.9062 4.19584 20.7073 4.19584Z" fill="white"/>
<path d="M14.1435 12.2297C14.1435 12.4286 13.9645 12.5877 13.7854 12.5678C13.5865 12.5678 13.4473 12.3888 13.4473 12.19C13.4473 11.9911 13.6263 11.832 13.8053 11.832C13.9843 11.8519 14.1435 12.0309 14.1435 12.2297Z" fill="white"/>
<path d="M19.9912 5.50831C19.9912 5.70716 19.8122 5.86624 19.6133 5.84636C19.4144 5.84636 19.2552 5.66739 19.2751 5.48842C19.2751 5.28956 19.4541 5.13048 19.6531 5.15036C19.8321 5.15036 19.9912 5.30945 19.9912 5.50831Z" fill="white"/>
<path d="M26.2971 49.3761C26.0982 49.3562 25.959 49.1772 25.959 48.9983C25.9789 48.7994 26.1579 48.6602 26.3568 48.6801C26.5557 48.7 26.7149 48.879 26.695 49.0579C26.6751 49.2369 26.4762 49.396 26.2971 49.3761Z" fill="white"/>
<path d="M22.7356 0.477571C22.7356 0.676427 22.5765 0.815623 22.3776 0.815623C22.1787 0.815623 22.0195 0.656537 22.0195 0.457681C22.0195 0.258825 22.1787 0.119629 22.3776 0.119629C22.5964 0.139515 22.7555 0.2986 22.7356 0.477571Z" fill="white"/>
<path d="M21.6432 2.50568C21.4443 2.50568 21.2852 2.34659 21.2852 2.14774C21.2852 1.94888 21.4443 1.78979 21.6432 1.78979C21.8421 1.78979 22.0013 1.94888 22.0013 2.14774C22.0212 2.34659 21.8421 2.50568 21.6432 2.50568Z" fill="white"/>
<path d="M15.8938 10.5196C15.8938 10.7184 15.7347 10.8775 15.5358 10.8775C15.3369 10.8775 15.1777 10.7184 15.1777 10.5196C15.1777 10.3207 15.3369 10.1616 15.5159 10.1616C15.7148 10.1616 15.8739 10.3207 15.8938 10.5196Z" fill="white"/>
<path d="M17.0065 9.20709C16.8076 9.20709 16.6484 9.04801 16.6484 8.84915C16.6484 8.6503 16.7877 8.49121 17.0065 8.49121C17.2054 8.49121 17.3645 8.6503 17.3645 8.84915C17.3447 9.04801 17.2054 9.20709 17.0065 9.20709Z" fill="white"/>
<path d="M27.0534 47.7055C26.8544 47.7055 26.6953 47.5266 26.6953 47.3476C26.6953 47.1487 26.8743 47.0095 27.0733 47.0095C27.2722 47.0095 27.4313 47.1885 27.4114 47.3675C27.4114 47.5464 27.2523 47.7055 27.0534 47.7055Z" fill="white"/>
<path d="M33.5377 38.9959C33.5377 39.1947 33.3786 39.3339 33.1797 39.3339C32.9808 39.3339 32.8216 39.1748 32.8415 38.976C32.8415 38.7771 33.0007 38.618 33.1996 38.6379C33.3786 38.6379 33.5377 38.797 33.5377 38.9959Z" fill="white"/>
<path d="M18.4004 6.8208C18.5993 6.8208 18.7584 6.96 18.7584 7.15885C18.7584 7.35771 18.6192 7.51679 18.4203 7.51679C18.2214 7.51679 18.0622 7.3776 18.0622 7.17874C18.0423 6.97989 18.2015 6.8208 18.4004 6.8208Z" fill="white"/>
<path d="M34.9303 36.9277C35.1292 36.9277 35.2884 37.0868 35.2884 37.2857C35.2884 37.4845 35.1491 37.6436 34.9303 37.6237C34.7314 37.6237 34.5723 37.4845 34.5723 37.2658C34.5723 37.0868 34.7314 36.9277 34.9303 36.9277Z" fill="white"/>
<path d="M31.707 41.0041C31.5081 41.0041 31.349 40.845 31.3689 40.6462C31.3689 40.4473 31.528 40.3081 31.7269 40.3081C31.9258 40.3081 32.0651 40.4672 32.0651 40.666C32.0651 40.8649 31.9059 41.0041 31.707 41.0041Z" fill="white"/>
<path d="M28.3466 45.6574C28.3466 45.8562 28.2074 46.0153 28.0084 46.0153C27.8095 46.0153 27.6504 45.8761 27.6504 45.6773C27.6504 45.4784 27.7896 45.3193 27.9885 45.3193C28.1676 45.3193 28.3267 45.4585 28.3466 45.6574Z" fill="white"/>
<path d="M14.9788 8.51099C15.1578 8.51099 15.3169 8.67008 15.3169 8.84905C15.3169 9.02802 15.1379 9.1871 14.9589 9.16722C14.7799 9.14733 14.6406 9.00813 14.6406 8.82916C14.6406 8.67008 14.7998 8.51099 14.9788 8.51099Z" fill="white"/>
<path d="M20.1504 0.477472C20.1504 0.298501 20.3095 0.139404 20.4886 0.139404C20.6676 0.139404 20.8068 0.298497 20.8267 0.457582C20.8267 0.636552 20.6875 0.795638 20.4886 0.815524C20.3095 0.815524 20.1504 0.676328 20.1504 0.477472Z" fill="white"/>
<path d="M33.3984 40.6462C33.3984 40.4672 33.5576 40.3081 33.7366 40.3081C33.9156 40.3081 34.0748 40.4871 34.0748 40.666C34.0748 40.8251 33.9156 40.9842 33.7366 40.9842C33.5576 40.9842 33.3984 40.8251 33.3984 40.6462Z" fill="white"/>
<path d="M16.69 7.15885C16.69 7.33782 16.5507 7.49692 16.3518 7.49692C16.1728 7.49692 16.0137 7.33782 16.0137 7.15885C16.0137 6.97988 16.1529 6.84069 16.3319 6.8208C16.5309 6.8208 16.69 6.97988 16.69 7.15885Z" fill="white"/>
<path d="M32.6822 42.3365C32.6822 42.5353 32.523 42.6745 32.3241 42.6546C32.1451 42.6546 32.0059 42.4955 32.0059 42.3166C32.0059 42.1376 32.165 41.9785 32.344 41.9785C32.5429 41.9984 32.6822 42.1575 32.6822 42.3365Z" fill="white"/>
<path d="M29.6794 45.6774C29.6794 45.4984 29.8386 45.3394 30.0176 45.3394C30.1966 45.3394 30.3557 45.5183 30.3358 45.6973C30.3358 45.8763 30.1767 46.0155 29.9977 46.0155C29.8187 46.0155 29.6595 45.8564 29.6794 45.6774Z" fill="white"/>
<path d="M31.4494 44.007C31.4494 44.2059 31.2903 44.3252 31.1112 44.3252C30.9322 44.3252 30.793 44.186 30.793 44.007C30.793 43.8082 30.9322 43.6689 31.1311 43.6689C31.3102 43.6689 31.4494 43.828 31.4494 44.007Z" fill="white"/>
<path d="M35.1682 39.3138C34.9892 39.3138 34.8301 39.1547 34.8301 38.9757C34.8301 38.7968 34.9892 38.6377 35.1682 38.6377C35.3473 38.6377 35.4865 38.7968 35.4865 38.9559C35.5064 39.1547 35.3473 39.3138 35.1682 39.3138Z" fill="white"/>
<path d="M17.9216 5.50833C17.9216 5.70719 17.7625 5.82649 17.5835 5.82649C17.4044 5.80661 17.2652 5.6873 17.2851 5.48844C17.2851 5.28959 17.4243 5.15039 17.6233 5.15039C17.7824 5.17028 17.9216 5.32936 17.9216 5.50833Z" fill="white"/>
<path d="M28.2073 49.3362C28.0084 49.3362 27.8691 49.1771 27.8691 48.9981C27.8691 48.8191 28.0482 48.6799 28.2272 48.6799C28.4062 48.6998 28.5455 48.839 28.5455 48.9981C28.5654 49.2168 28.4062 49.356 28.2073 49.3362Z" fill="white"/>
<path d="M13.8654 10.5194C13.8654 10.6984 13.7461 10.8376 13.5471 10.8376C13.3482 10.8376 13.209 10.6984 13.209 10.4996C13.209 10.3206 13.3482 10.1814 13.5273 10.1814C13.7262 10.1814 13.8654 10.3206 13.8654 10.5194Z" fill="white"/>
<path d="M18.719 4.15609C18.5201 4.15609 18.3809 4.01688 18.3809 3.83791C18.3809 3.65894 18.54 3.49987 18.719 3.51975C18.898 3.51975 19.0373 3.65894 19.0373 3.83791C19.0572 3.997 18.898 4.15609 18.719 4.15609Z" fill="white"/>
<path d="M29.3596 47.3476C29.3596 47.5266 29.2203 47.6856 29.0214 47.6856C28.8623 47.6856 28.7031 47.5464 28.7031 47.3675C28.7031 47.1686 28.8225 47.0294 29.0214 47.0095C29.2004 47.0095 29.3596 47.1487 29.3596 47.3476Z" fill="white"/>
<path d="M11.8557 11.8916C12.0348 11.8916 12.174 12.0308 12.174 12.2098C12.174 12.4086 12.0348 12.5478 11.8358 12.5478C11.6369 12.5478 11.5176 12.4086 11.5176 12.2297C11.5176 12.0109 11.6568 11.8916 11.8557 11.8916Z" fill="white"/>
<path d="M20.0119 2.18732C19.992 2.36629 19.8329 2.5055 19.6538 2.48561C19.4748 2.46573 19.3555 2.30664 19.3555 2.12767C19.3555 1.92881 19.5146 1.78962 19.7135 1.80951C19.8925 1.82939 20.0119 1.98847 20.0119 2.18732Z" fill="white"/>
<path d="M36.5407 37.2857C36.5407 37.1067 36.6999 36.9476 36.8789 36.9675C37.0579 36.9874 37.1972 37.1266 37.1972 37.3056C37.1972 37.5044 37.0579 37.6436 36.859 37.6436C36.68 37.6237 36.5209 37.4646 36.5407 37.2857Z" fill="white"/>
<path d="M17.7046 2.46583C17.5256 2.46583 17.4062 2.32663 17.4062 2.16754C17.4062 1.98857 17.5654 1.84937 17.7245 1.84937C17.8837 1.84937 18.0229 1.98857 18.0229 2.16754C18.0229 2.32663 17.8837 2.46583 17.7046 2.46583Z" fill="white"/>
<path d="M34.3725 42.0183C34.5516 42.0183 34.6908 42.1575 34.6908 42.3365C34.6908 42.4956 34.5516 42.6348 34.3924 42.6348C34.2333 42.6348 34.0742 42.5154 34.0742 42.3564C34.0543 42.1774 34.1935 42.0183 34.3725 42.0183Z" fill="white"/>
<path d="M32.0054 45.3789C32.1844 45.3789 32.3237 45.5181 32.3237 45.6772C32.3237 45.8363 32.1844 45.9755 32.0253 45.9755C31.8463 45.9755 31.707 45.8363 31.707 45.6573C31.707 45.4982 31.8264 45.3789 32.0054 45.3789Z" fill="white"/>
<path d="M30.9921 47.646C30.8131 47.646 30.6738 47.5068 30.6738 47.3278C30.6738 47.1687 30.833 47.0295 30.9921 47.0295C31.1711 47.0295 31.3104 47.1886 31.3104 47.3477C31.3104 47.5267 31.1711 47.646 30.9921 47.646Z" fill="white"/>
<path d="M14.3222 6.88037C14.5012 6.88037 14.6206 6.99969 14.6404 7.17866C14.6404 7.35763 14.5012 7.49684 14.3222 7.49684C14.1432 7.49684 14.0039 7.33774 14.0039 7.17866C14.0238 6.99969 14.1432 6.88037 14.3222 6.88037Z" fill="white"/>
<path d="M37.1585 38.6775C37.3375 38.6775 37.4568 38.7968 37.4568 38.9758C37.4568 39.1547 37.3176 39.2939 37.1386 39.2939C36.9596 39.2939 36.8203 39.1349 36.8203 38.9559C36.8402 38.7968 36.9794 38.6775 37.1585 38.6775Z" fill="white"/>
<path d="M11.8745 10.5194C11.8745 10.6984 11.7352 10.8376 11.5562 10.8376C11.3971 10.8376 11.2578 10.6984 11.2578 10.5393C11.2578 10.3802 11.3772 10.241 11.5562 10.2211C11.6954 10.2012 11.8745 10.3404 11.8745 10.5194Z" fill="white"/>
<path d="M35.7653 40.9645C35.5862 40.9645 35.4271 40.8253 35.447 40.6662C35.447 40.5071 35.5862 40.3679 35.7454 40.3679C35.9244 40.3679 36.0636 40.5071 36.0636 40.6861C36.0636 40.8253 35.9244 40.9446 35.7653 40.9645Z" fill="white"/>
<path d="M16.7088 4.13623C16.5497 4.13623 16.3906 4.01691 16.3906 3.85783C16.3707 3.67886 16.5099 3.51978 16.6889 3.51978C16.8481 3.51978 17.0072 3.63909 17.0072 3.79817C17.0271 3.97714 16.868 4.13623 16.7088 4.13623Z" fill="white"/>
<path d="M33.4588 43.987C33.4588 44.166 33.3196 44.3052 33.1405 44.3052C32.9814 44.3052 32.8422 44.166 32.8223 44.0069C32.8223 43.8279 32.9615 43.6887 33.1405 43.6887C33.3196 43.6887 33.4588 43.8279 33.4588 43.987Z" fill="white"/>
<path d="M9.60742 12.2098C9.60742 12.0308 9.72677 11.9115 9.88591 11.8916C10.0649 11.8916 10.2042 12.0308 10.2042 12.2098C10.2042 12.3887 10.0649 12.5279 9.88591 12.5279C9.72677 12.5279 9.60742 12.3887 9.60742 12.2098Z" fill="white"/>
<path d="M15.8744 5.52812C15.8744 5.68721 15.6954 5.8463 15.5362 5.82641C15.3771 5.80653 15.2379 5.66733 15.2578 5.50825C15.2578 5.32928 15.4169 5.20996 15.5959 5.20996C15.7551 5.20996 15.8744 5.34915 15.8744 5.52812Z" fill="white"/>
<path d="M12.9703 9.14746C12.7912 9.14746 12.6719 9.02815 12.6719 8.84918C12.6719 8.67021 12.8111 8.53101 12.9901 8.53101C13.1493 8.53101 13.2885 8.67021 13.3084 8.82929C13.2885 9.00826 13.1493 9.14746 12.9703 9.14746Z" fill="white"/>
<path d="M30.435 49.018C30.435 49.1771 30.3157 49.3163 30.1366 49.3362C29.9576 49.3362 29.8184 49.197 29.8184 49.0379C29.8184 48.8589 29.9775 48.7197 30.1366 48.7197C30.2958 48.7197 30.4151 48.8589 30.435 49.018Z" fill="white"/>
<path d="M18.5995 0.79555C18.4403 0.79555 18.3011 0.676237 18.2812 0.517152C18.2613 0.338181 18.4005 0.198975 18.5796 0.198975C18.7387 0.198975 18.8978 0.318302 18.8978 0.477387C18.9177 0.636473 18.7785 0.775664 18.5995 0.79555Z" fill="white"/>
<path d="M38.8085 36.9873C38.9875 36.9873 39.1069 37.1066 39.1069 37.2856C39.1069 37.4646 38.9676 37.5839 38.8085 37.5839C38.6295 37.5839 38.4902 37.4447 38.4902 37.2657C38.5101 37.1066 38.6295 36.9873 38.8085 36.9873Z" fill="white"/>
<path d="M32.3034 49.0181C32.3034 49.1772 32.1841 49.2965 32.0249 49.3164C31.8658 49.3164 31.7266 49.1772 31.7266 49.0181C31.7266 48.8591 31.8658 48.7397 32.0249 48.7397C32.1841 48.7397 32.3034 48.8591 32.3034 49.0181Z" fill="white"/>
<path d="M14.4023 3.83784C14.4023 3.67875 14.5018 3.55944 14.6808 3.53955C14.84 3.53955 14.9792 3.67875 14.9792 3.83784C14.9792 3.97704 14.84 4.11624 14.6808 4.11624C14.5217 4.11624 14.4023 3.99692 14.4023 3.83784Z" fill="white"/>
<path d="M39.1261 38.6975C39.2853 38.6975 39.4046 38.8168 39.4245 38.9759C39.4245 39.135 39.3052 39.2742 39.1261 39.2742C38.967 39.2742 38.8477 39.1549 38.8477 38.9958C38.8477 38.8168 38.9869 38.6975 39.1261 38.6975Z" fill="white"/>
<path d="M7.95622 11.9314C8.11535 11.9314 8.2546 12.0507 8.2546 12.2098C8.2546 12.3689 8.11535 12.5081 7.95622 12.5081C7.79709 12.5081 7.67773 12.3689 7.67773 12.2098C7.67773 12.0507 7.79709 11.9314 7.95622 11.9314Z" fill="white"/>
<path d="M40.7573 37.5639C40.5982 37.5639 40.4589 37.4446 40.4589 37.3054C40.439 37.1463 40.5783 37.0071 40.7573 37.0071C40.9164 37.0071 41.0358 37.1264 41.0358 37.2855C41.0358 37.4247 40.9164 37.5639 40.7573 37.5639Z" fill="white"/>
<path d="M36.4211 42.0383C36.5802 42.0383 36.7194 42.1576 36.7194 42.3167C36.7194 42.4758 36.5802 42.615 36.4211 42.615C36.2619 42.615 36.1426 42.4758 36.1426 42.3167C36.1426 42.1775 36.2619 42.0383 36.4211 42.0383Z" fill="white"/>
<path d="M12.5706 7.17866C12.5706 7.33774 12.4513 7.45706 12.2922 7.45706C12.133 7.45706 12.0137 7.33774 12.0137 7.17866C12.0137 7.01957 12.1529 6.88037 12.312 6.88037C12.4513 6.90026 12.5706 7.01957 12.5706 7.17866Z" fill="white"/>
<path d="M13.4873 5.78665C13.3282 5.76676 13.2088 5.64744 13.2287 5.48836C13.2486 5.32927 13.3879 5.20996 13.5271 5.20996C13.6862 5.20996 13.8255 5.36904 13.8056 5.52812C13.7857 5.68721 13.6465 5.78665 13.4873 5.78665Z" fill="white"/>
<path d="M11.239 8.84917C11.239 9.00825 11.0997 9.12757 10.9605 9.12757C10.8014 9.12757 10.6621 8.96848 10.6621 8.82928C10.6621 8.67019 10.8014 8.55089 10.9605 8.57077C11.0997 8.57077 11.239 8.69008 11.239 8.84917Z" fill="white"/>
<path d="M38.0534 40.6662C38.0534 40.8253 37.9141 40.9446 37.755 40.9446C37.5959 40.9446 37.4566 40.8054 37.4765 40.6264C37.4964 40.4673 37.6158 40.348 37.7749 40.3679C37.934 40.3878 38.0733 40.5071 38.0534 40.6662Z" fill="white"/>
<path d="M16.987 0.497262C16.987 0.656347 16.8478 0.77566 16.6886 0.77566C16.5295 0.77566 16.4102 0.656347 16.4102 0.497262C16.4102 0.338177 16.5494 0.198975 16.7085 0.198975C16.8677 0.198975 16.987 0.338177 16.987 0.497262Z" fill="white"/>
<path d="M15.7336 1.86914C15.8927 1.86914 16.0319 1.98845 16.0319 2.14754C16.0319 2.30662 15.8927 2.44583 15.7336 2.44583C15.5744 2.44583 15.4551 2.30663 15.4551 2.16743C15.4551 2.00834 15.5744 1.86914 15.7336 1.86914Z" fill="white"/>
<path d="M33.2585 47.3477C33.2585 47.5068 33.1392 47.6261 32.98 47.646C32.8209 47.646 32.6816 47.5068 32.6816 47.3477C32.6816 47.1886 32.8209 47.0693 32.98 47.0693C33.1392 47.0693 33.2585 47.1886 33.2585 47.3477Z" fill="white"/>
<path d="M35.1886 44.2853C35.0295 44.2853 34.9102 44.166 34.9102 44.0069C34.9102 43.8478 35.0295 43.7285 35.1886 43.7285C35.3478 43.7285 35.487 43.8677 35.487 44.0069C35.487 44.1461 35.3478 44.2853 35.1886 44.2853Z" fill="white"/>
<path d="M34.3132 45.6772C34.3132 45.8363 34.1938 45.9556 34.0148 45.9556C33.8557 45.9556 33.7363 45.8164 33.7363 45.6772C33.7363 45.5181 33.8955 45.3789 34.0546 45.3789C34.2137 45.3988 34.3132 45.5181 34.3132 45.6772Z" fill="white"/>
<path d="M9.56755 10.8178C9.40841 10.8178 9.28906 10.6786 9.28906 10.5196C9.28906 10.3605 9.42831 10.2213 9.60733 10.2412C9.76647 10.261 9.88582 10.3804 9.86592 10.5394C9.84603 10.6985 9.70679 10.8178 9.56755 10.8178Z" fill="white"/>
<path d="M10.5019 7.1589C10.5019 7.2981 10.3826 7.43731 10.2433 7.43731C10.1041 7.43731 9.96484 7.31799 9.96484 7.17879C9.96484 7.03959 10.0842 6.92028 10.2234 6.90039C10.3826 6.90039 10.5019 7.0197 10.5019 7.1589Z" fill="white"/>
<path d="M12.6711 4.09638C12.5119 4.09638 12.3926 3.97705 12.3926 3.83785C12.3926 3.69865 12.5119 3.57935 12.6512 3.57935C12.7904 3.57935 12.9297 3.69865 12.9297 3.83785C12.9297 3.97705 12.8103 4.09638 12.6711 4.09638Z" fill="white"/>
<path d="M15.0586 0.477273C15.0586 0.616472 14.9392 0.755671 14.8 0.755671C14.6607 0.755671 14.5215 0.636347 14.5215 0.497148C14.5215 0.357948 14.6408 0.21875 14.7801 0.21875C14.9392 0.21875 15.0586 0.338074 15.0586 0.477273Z" fill="white"/>
<path d="M41.3945 38.9758C41.3945 39.115 41.2751 39.2542 41.1359 39.2542C40.9967 39.2542 40.8574 39.1349 40.8574 38.9957C40.8574 38.8565 40.9569 38.7173 41.116 38.7173C41.2553 38.7173 41.3945 38.8167 41.3945 38.9758Z" fill="white"/>
<path d="M34.95 47.6062C34.8108 47.6062 34.6914 47.4869 34.6914 47.3477C34.6914 47.2085 34.8108 47.0693 34.95 47.0693C35.0892 47.0693 35.2086 47.1886 35.2086 47.3278C35.2086 47.4869 35.0892 47.6062 34.95 47.6062Z" fill="white"/>
<path d="M42.9472 37.2855C42.9472 37.4247 42.808 37.544 42.6688 37.544C42.5295 37.544 42.4102 37.4048 42.4102 37.2656C42.4102 37.1264 42.5494 37.0071 42.6886 37.0071C42.8478 37.027 42.9671 37.1463 42.9472 37.2855Z" fill="white"/>
<path d="M36.0438 45.4187C36.183 45.4187 36.3222 45.538 36.3222 45.6772C36.3222 45.8164 36.2029 45.9556 36.0636 45.9556C35.9244 45.9556 35.7852 45.8363 35.7852 45.6971C35.7852 45.538 35.9045 45.4187 36.0438 45.4187Z" fill="white"/>
<path d="M33.9148 49.2765C33.7557 49.2765 33.6562 49.1572 33.6562 49.018C33.6562 48.8788 33.7756 48.7595 33.9347 48.7595C34.074 48.7595 34.1933 48.8788 34.1933 49.018C34.1734 49.1771 34.0541 49.2765 33.9148 49.2765Z" fill="white"/>
<path d="M11.4777 5.24976C11.6169 5.24976 11.7363 5.36908 11.7363 5.50828C11.7363 5.64748 11.5971 5.76679 11.4578 5.76679C11.3186 5.76679 11.1992 5.64748 11.1992 5.50828C11.2191 5.34919 11.3385 5.24976 11.4777 5.24976Z" fill="white"/>
<path d="M40.0426 40.6463C40.0426 40.7855 39.9232 40.9048 39.784 40.9048C39.6447 40.9048 39.5254 40.7855 39.5254 40.6463C39.5254 40.5071 39.6447 40.3679 39.784 40.3679C39.9232 40.3878 40.0426 40.5071 40.0426 40.6463Z" fill="white"/>
<path d="M38.45 42.0581C38.5892 42.0581 38.7285 42.1774 38.7285 42.3166C38.7285 42.4558 38.629 42.5751 38.4699 42.595C38.3108 42.595 38.1914 42.4956 38.1914 42.3365C38.1914 42.1973 38.3108 42.078 38.45 42.0581Z" fill="white"/>
<path d="M36.959 43.987C36.959 43.8478 37.0783 43.7285 37.2375 43.7285C37.3966 43.7285 37.4961 43.8478 37.4961 43.987C37.4961 44.1262 37.3767 44.2455 37.2176 44.2455C37.0783 44.2654 36.959 44.1461 36.959 43.987Z" fill="white"/>
<path d="M6.28512 12.2297C6.28512 12.3689 6.16577 12.4882 6.00664 12.4683C5.84751 12.4683 5.74805 12.349 5.74805 12.1899C5.74805 12.0507 5.88729 11.9314 6.02653 11.9314C6.16577 11.9712 6.30502 12.0905 6.28512 12.2297Z" fill="white"/>
<path d="M14.0234 2.14767C14.0234 2.28687 13.9041 2.40618 13.7648 2.42607C13.6256 2.42607 13.5062 2.30676 13.4863 2.16756C13.4863 2.02836 13.6057 1.88916 13.7449 1.88916C13.9041 1.88916 14.0234 2.00847 14.0234 2.14767Z" fill="white"/>
<path d="M8.93083 9.10771C8.77169 9.10771 8.65234 8.9884 8.65234 8.8492C8.65234 8.71 8.77169 8.5708 8.91094 8.5708C9.05018 8.5708 9.14964 8.69011 9.16953 8.82931C9.18942 8.98839 9.08996 9.10771 8.93083 9.10771Z" fill="white"/>
<path d="M7.57927 10.778C7.44002 10.778 7.30078 10.6587 7.30078 10.5195C7.30078 10.3803 7.42013 10.261 7.55937 10.261C7.69862 10.261 7.81797 10.3803 7.81797 10.5195C7.83786 10.6786 7.7384 10.778 7.57927 10.778Z" fill="white"/>
<path d="M7.14205 8.82933C7.14205 8.96853 7.04259 9.08783 6.90334 9.08783C6.78399 9.08783 6.66464 8.9884 6.66464 8.86909C6.64475 8.72989 6.74421 8.61058 6.88345 8.61058C7.0227 8.5907 7.14205 8.71001 7.14205 8.82933Z" fill="white"/>
<path d="M40.4987 42.0781C40.6379 42.0781 40.7573 42.1775 40.7573 42.3167C40.7573 42.4361 40.6578 42.5554 40.5385 42.5554C40.3992 42.5753 40.2799 42.4559 40.2799 42.3366C40.26 42.1974 40.3594 42.098 40.4987 42.0781Z" fill="white"/>
<path d="M4.07854 12.4683C3.9393 12.4683 3.83984 12.3291 3.83984 12.2098C3.85974 12.0706 3.97909 11.9712 4.11833 11.9911C4.23768 12.0109 4.33714 12.1104 4.33714 12.2297C4.31725 12.3689 4.1979 12.4683 4.07854 12.4683Z" fill="white"/>
<path d="M9.68697 5.50839C9.68697 5.64759 9.56762 5.74701 9.42838 5.74701C9.28913 5.74701 9.18967 5.6277 9.20957 5.4885C9.22946 5.36918 9.32892 5.26975 9.44827 5.26975C9.56762 5.24987 9.68697 5.36919 9.68697 5.50839Z" fill="white"/>
<path d="M5.84886 10.5195C5.84886 10.6388 5.72951 10.7581 5.59026 10.7581C5.47091 10.7581 5.35156 10.6388 5.35156 10.5195C5.35156 10.4002 5.47091 10.261 5.59026 10.261C5.72951 10.2809 5.84886 10.4002 5.84886 10.5195Z" fill="white"/>
<path d="M11.7757 1.90894C11.9149 1.90894 12.0343 2.00837 12.0343 2.14757C12.0343 2.28677 11.9149 2.3862 11.7956 2.3862C11.6762 2.3862 11.5569 2.28677 11.5569 2.16746C11.537 2.04814 11.6563 1.92882 11.7757 1.90894Z" fill="white"/>
<path d="M39.266 43.7483C39.4053 43.7483 39.5047 43.8676 39.5047 44.0068C39.5047 44.1261 39.4053 44.2454 39.2859 44.2454C39.1467 44.2454 39.0273 44.146 39.0273 44.0068C39.0273 43.8676 39.1467 43.7483 39.266 43.7483Z" fill="white"/>
<path d="M10.8817 3.81798C10.8817 3.95718 10.7822 4.07649 10.643 4.07649C10.5236 4.07649 10.4043 3.97705 10.4043 3.83785C10.4043 3.69865 10.5038 3.57935 10.643 3.57935C10.7623 3.57935 10.8618 3.67878 10.8817 3.81798Z" fill="white"/>
<path d="M35.8055 48.7795C35.9447 48.7795 36.0442 48.8989 36.0442 49.0182C36.0442 49.1574 35.9248 49.2568 35.7856 49.2568C35.6662 49.2568 35.5668 49.1375 35.5469 49.0182C35.5668 48.8989 35.6662 48.7795 35.8055 48.7795Z" fill="white"/>
<path d="M37.1571 47.3477C37.1571 47.4869 37.0377 47.5864 36.8985 47.5864C36.7791 47.5665 36.6797 47.4671 36.6797 47.3477C36.6797 47.2085 36.799 47.1091 36.9383 47.129C37.0576 47.129 37.1571 47.2284 37.1571 47.3477Z" fill="white"/>
<path d="M43.3645 38.9758C43.3645 39.0951 43.2849 39.2144 43.1457 39.2144C43.0064 39.2343 42.8871 39.1348 42.8672 38.9956C42.8672 38.8763 42.9666 38.757 43.086 38.757C43.2252 38.7173 43.3446 38.8366 43.3645 38.9758Z" fill="white"/>
<path d="M44.8762 37.2855C44.8762 37.4048 44.7767 37.5042 44.6375 37.5241C44.4983 37.5241 44.3789 37.4048 44.3789 37.2855C44.3789 37.1463 44.4983 37.0469 44.6375 37.0667C44.7767 37.0469 44.8762 37.1662 44.8762 37.2855Z" fill="white"/>
<path d="M8.43443 7.1788C8.43443 7.318 8.31508 7.41744 8.17584 7.41744C8.0366 7.41744 7.95703 7.318 7.95703 7.1788C7.95703 7.0396 8.05649 6.94019 8.17584 6.94019C8.31508 6.94019 8.43443 7.0396 8.43443 7.1788Z" fill="white"/>
<path d="M13.1294 0.457383C13.1294 0.596583 13.0498 0.696001 12.9305 0.696001C12.7912 0.715887 12.6719 0.616472 12.6719 0.477273C12.6719 0.338074 12.7713 0.21875 12.9106 0.21875C13.0299 0.238636 13.1294 0.338069 13.1294 0.457383Z" fill="white"/>
<path d="M41.7934 40.4275C41.9326 40.4275 42.0321 40.507 42.0321 40.6462C42.052 40.7854 41.9525 40.9047 41.8133 40.9047C41.674 40.9047 41.5547 40.8053 41.5547 40.6661C41.5547 40.5269 41.6541 40.4275 41.7934 40.4275Z" fill="white"/>
<path d="M38.053 45.4387C38.1923 45.4387 38.3116 45.5382 38.3116 45.6774C38.3116 45.7967 38.2122 45.8961 38.0928 45.916C37.9536 45.916 37.8541 45.8166 37.8541 45.6774C37.8342 45.5382 37.9337 45.4387 38.053 45.4387Z" fill="white"/>
<path d="M2.1485 12.011C2.26785 12.011 2.36731 12.0905 2.36731 12.2098C2.36731 12.3292 2.28774 12.4286 2.16839 12.4485C2.04904 12.4485 1.92969 12.349 1.92969 12.2297C1.92969 12.1104 2.02915 12.011 2.1485 12.011Z" fill="white"/>
<path d="M43.821 40.885C43.7215 40.885 43.6022 40.7856 43.5823 40.6861C43.5624 40.5668 43.6817 40.4475 43.8011 40.4475C43.9204 40.4475 44.0398 40.5469 44.0398 40.6663C44.0398 40.7657 43.9403 40.8651 43.821 40.885Z" fill="white"/>
<path d="M45.0954 39.1946C44.9761 39.1946 44.8965 39.0951 44.8965 38.9758C44.8965 38.8565 44.9959 38.7571 45.1153 38.7571C45.2346 38.7571 45.354 38.8764 45.3341 38.9957C45.3142 39.115 45.2148 39.1946 45.0954 39.1946Z" fill="white"/>
<path d="M9.82623 2.38622C9.70688 2.38622 9.60742 2.28679 9.60742 2.16747C9.60742 2.04816 9.68699 1.94873 9.80634 1.94873C9.92569 1.94873 10.045 2.04816 10.045 2.16747C10.045 2.28679 9.94558 2.38622 9.82623 2.38622Z" fill="white"/>
<path d="M39.1081 47.3477C39.1081 47.467 39.0286 47.5664 38.9092 47.5863C38.7899 47.5863 38.6904 47.5067 38.6705 47.3874C38.6506 47.2681 38.7501 47.1488 38.8893 47.1488C38.9888 47.1289 39.0882 47.2283 39.1081 47.3477Z" fill="white"/>
<path d="M5.11168 8.84911C5.11168 8.96843 5.01222 9.06786 4.91276 9.06786C4.79341 9.06786 4.69395 8.9883 4.67406 8.86899C4.65417 8.74968 4.77352 8.63037 4.89287 8.63037C4.99233 8.63037 5.11168 8.7298 5.11168 8.84911Z" fill="white"/>
<path d="M7.61948 5.48852C7.61948 5.60783 7.53991 5.70726 7.42056 5.70726C7.30121 5.70726 7.20175 5.62772 7.20175 5.50841C7.18186 5.36921 7.28132 5.26978 7.42056 5.26978C7.52002 5.28966 7.61948 5.3692 7.61948 5.48852Z" fill="white"/>
<path d="M40.3011 45.6772C40.3011 45.7966 40.2216 45.896 40.1022 45.896C39.9829 45.896 39.8834 45.8164 39.8635 45.6971C39.8436 45.5778 39.963 45.4585 40.0823 45.4585C40.2017 45.4585 40.3011 45.5579 40.3011 45.6772Z" fill="white"/>
<path d="M46.7853 37.2856C46.7853 37.4049 46.6659 37.5044 46.5665 37.5044C46.4471 37.5044 46.3477 37.4049 46.3477 37.2856C46.3477 37.1663 46.467 37.047 46.5864 37.0669C46.7057 37.0669 46.7853 37.1663 46.7853 37.2856Z" fill="white"/>
<path d="M41.295 44.2058C41.1756 44.2058 41.0762 44.1064 41.0762 43.9871C41.0762 43.8677 41.1557 43.7683 41.2751 43.7683C41.4143 43.7683 41.5138 43.8677 41.4939 43.9871C41.5138 44.1263 41.4143 44.2257 41.295 44.2058Z" fill="white"/>
<path d="M8.8519 3.81801C8.8519 3.93732 8.77234 4.03674 8.65298 4.03674C8.51374 4.03674 8.41428 3.93732 8.43418 3.81801C8.43418 3.6987 8.53363 3.61914 8.65298 3.61914C8.75244 3.61914 8.83201 3.6987 8.8519 3.81801Z" fill="white"/>
<path d="M11.2189 0.497156C11.2189 0.61647 11.1194 0.715899 11.0001 0.715899C10.8807 0.715899 10.8011 0.61647 10.7812 0.497156C10.7812 0.357956 10.8807 0.258527 11.0001 0.278413C11.1393 0.278413 11.2189 0.377842 11.2189 0.497156Z" fill="white"/>
<path d="M3.81848 10.5194C3.81848 10.6387 3.73891 10.7183 3.59967 10.7381C3.48032 10.7381 3.38086 10.6586 3.38086 10.5393C3.38086 10.42 3.48032 10.3007 3.59967 10.3205C3.73891 10.3205 3.81848 10.4001 3.81848 10.5194Z" fill="white"/>
<path d="M6.36535 7.1787C6.36535 7.29802 6.26589 7.39745 6.14654 7.39745C6.02719 7.39745 5.92773 7.27813 5.92773 7.15881C5.94763 7.0395 6.04708 6.95996 6.14654 6.95996C6.28579 6.95996 6.36535 7.05939 6.36535 7.1787Z" fill="white"/>
<path d="M42.5485 42.5354C42.4292 42.5354 42.3496 42.4359 42.3496 42.3166C42.3496 42.1973 42.4292 42.0979 42.5485 42.0979C42.6878 42.0979 42.7673 42.1973 42.7673 42.3166C42.7673 42.4558 42.6679 42.5354 42.5485 42.5354Z" fill="white"/>
<path d="M37.9142 49.0181C37.9142 49.1374 37.8147 49.2368 37.6954 49.2368C37.576 49.2368 37.4766 49.1374 37.4766 49.0181C37.4766 48.8987 37.576 48.7993 37.6954 48.7993C37.8346 48.8192 37.9142 48.8987 37.9142 49.0181Z" fill="white"/>
<path d="M39.4258 49.0182C39.4258 48.9188 39.5053 48.8193 39.6048 48.8193C39.7043 48.8193 39.8037 48.9188 39.8037 49.0182C39.8037 49.1176 39.7242 49.217 39.6048 49.217C39.5053 49.217 39.4258 49.1375 39.4258 49.0182Z" fill="white"/>
<path d="M7.83723 1.94873C7.93669 1.94873 8.03615 2.02827 8.03615 2.12769C8.03615 2.22712 7.95658 2.32656 7.85712 2.32656C7.75766 2.32656 7.6582 2.24701 7.6582 2.14758C7.6582 2.06804 7.73777 1.96862 7.83723 1.94873Z" fill="white"/>
<path d="M43.5424 43.9871C43.5424 44.0865 43.4628 44.186 43.3633 44.2059C43.2639 44.2059 43.1644 44.1263 43.1445 44.0269C43.1445 43.9274 43.2241 43.828 43.3236 43.828C43.4429 43.8081 43.5225 43.8877 43.5424 43.9871Z" fill="white"/>
<path d="M6.62335 3.63903C6.72281 3.63903 6.82227 3.73846 6.80238 3.83789C6.80238 3.93732 6.70292 4.03675 6.60346 4.01687C6.504 4.01687 6.40454 3.91744 6.42444 3.81801C6.42444 3.71858 6.52389 3.61915 6.62335 3.63903Z" fill="white"/>
<path d="M40.8571 47.5466C40.7378 47.5466 40.6582 47.4671 40.6582 47.3478C40.6582 47.2484 40.7577 47.1489 40.8571 47.1489C40.9566 47.1489 41.056 47.2484 41.056 47.3478C41.056 47.4472 40.9566 47.5466 40.8571 47.5466Z" fill="white"/>
<path d="M5.35126 5.30957C5.45072 5.30957 5.55018 5.38911 5.55018 5.48853C5.55018 5.58796 5.47061 5.68739 5.35126 5.68739C5.2518 5.68739 5.15234 5.60785 5.15234 5.48853C5.17224 5.40899 5.2518 5.30957 5.35126 5.30957Z" fill="white"/>
<path d="M4.31605 7.17883C4.31605 7.27826 4.21659 7.35781 4.11713 7.35781C4.01767 7.35781 3.91822 7.25837 3.93811 7.15894C3.93811 7.03963 4.03757 6.97998 4.13702 6.97998C4.23648 6.97998 4.31605 7.07941 4.31605 7.17883Z" fill="white"/>
<path d="M42.2907 45.6774C42.2907 45.7768 42.1912 45.8762 42.0917 45.8563C41.9923 45.8563 41.8928 45.7569 41.9127 45.6575C41.9127 45.5581 42.0122 45.4785 42.1116 45.4785C42.2111 45.4984 42.3106 45.5779 42.2907 45.6774Z" fill="white"/>
<path d="M48.715 37.2856C48.715 37.3851 48.6155 37.4646 48.5161 37.4646C48.3967 37.4646 48.3171 37.3851 48.337 37.2658C48.337 37.1663 48.4365 37.0669 48.5359 37.0868C48.6155 37.0868 48.715 37.1663 48.715 37.2856Z" fill="white"/>
<path d="M1.63056 10.7184C1.5311 10.7184 1.43164 10.6389 1.43164 10.5394C1.43164 10.4201 1.51121 10.3406 1.61067 10.3406C1.71013 10.3406 1.80958 10.4201 1.80958 10.5195C1.82948 10.619 1.74991 10.7184 1.63056 10.7184Z" fill="white"/>
<path d="M3.06349 8.84913C3.06349 8.94856 2.96403 9.0281 2.86457 9.0281C2.74522 9.0281 2.68555 8.92867 2.68555 8.82924C2.68555 8.72981 2.78501 8.63038 2.88446 8.65026C2.98392 8.65026 3.08338 8.7497 3.06349 8.84913Z" fill="white"/>
<path d="M44.7767 42.3364C44.7767 42.4359 44.6773 42.5353 44.5778 42.5154C44.4784 42.5154 44.3789 42.416 44.3789 42.3165C44.3789 42.2171 44.4784 42.1177 44.5778 42.1376C44.6972 42.1376 44.7966 42.237 44.7767 42.3364Z" fill="white"/>
<path d="M9.08979 0.29834C9.20914 0.29834 9.28871 0.37789 9.28871 0.477318C9.28871 0.576747 9.20914 0.676172 9.10968 0.676172C9.01022 0.676172 8.91076 0.596621 8.91076 0.497193C8.89087 0.397765 8.99033 0.29834 9.08979 0.29834Z" fill="white"/>
<path d="M0.198918 12.4087C0.0994591 12.4087 0 12.3093 0 12.2098C0 12.1104 0.0994591 12.011 0.198918 12.011C0.298377 12.011 0.397835 12.0905 0.397835 12.2098C0.397835 12.3292 0.298377 12.4286 0.198918 12.4087Z" fill="white"/>
<path d="M46.0287 40.6662C46.0287 40.7855 45.9292 40.8451 45.8099 40.8451C45.7104 40.8252 45.6508 40.7656 45.6309 40.6662C45.6309 40.5667 45.7303 40.4673 45.8298 40.4673C45.9491 40.4673 46.0287 40.5468 46.0287 40.6662Z" fill="white"/>
<path d="M47.2633 38.9957C47.2633 39.115 47.1639 39.1946 47.0644 39.1747C46.9649 39.1747 46.8655 39.0753 46.8854 38.956C46.9053 38.8565 46.9649 38.7969 47.0843 38.7969C47.2036 38.7969 47.2832 38.8764 47.2633 38.9957Z" fill="white"/>
</svg>
