<svg width="156" height="63" viewBox="0 0 156 63" fill="none" xmlns="http://www.w3.org/2000/svg">
<path d="M155.368 58.3371C155.039 58.3625 154.912 58.2611 154.912 57.9064C154.938 57.1717 154.912 56.437 154.786 55.7023C154.558 56.1583 154.355 56.6397 154.101 57.0704C154.025 57.2224 153.848 57.4251 153.696 57.4251C153.569 57.4251 153.366 57.2477 153.29 57.0957C153.037 56.6397 152.834 56.1837 152.505 55.7277C152.505 56.5637 152.505 57.4251 152.505 58.2864C152.15 58.3878 151.922 58.4131 151.922 57.9571C151.922 56.7917 151.922 55.6263 151.922 54.4609C152.353 54.2836 152.606 54.3596 152.784 54.7902C153.037 55.4236 153.366 56.0063 153.696 56.7157C154.025 56.0317 154.355 55.449 154.583 54.8409C154.735 54.4609 154.963 54.3089 155.343 54.3342C155.369 55.7023 155.368 57.0197 155.368 58.3371Z" fill="white"/>
<path d="M1.23438 42.0214C1.23438 28.3913 1.23438 14.8119 1.23438 1.18188C14.8181 1.18188 28.3764 1.18188 41.9602 1.18188C41.9602 14.7866 41.9602 28.3913 41.9602 42.0214C28.4018 42.0214 14.8434 42.0214 1.23438 42.0214ZM9.59749 36.9038C18.1633 31.8875 26.6532 26.8966 35.219 21.8803C26.6532 17.0667 18.1633 12.3038 9.59749 7.51556C9.59749 17.3201 9.59749 27.0486 9.59749 36.9038Z" fill="white"/>
<path d="M81.6199 19.2455C80.5302 19.2455 79.4658 19.2708 78.4014 19.2202C78.224 19.2202 78.0212 18.9668 77.9199 18.7641C75.5123 15.0653 73.0794 11.3664 70.6718 7.64219C70.5451 7.46485 70.4184 7.28751 70.1903 6.93282C70.1903 11.113 70.1903 15.1413 70.1903 19.1948C68.9232 19.1948 67.7574 19.1948 66.5156 19.1948C66.5156 13.1398 66.5156 7.08483 66.5156 0.953831C67.7067 0.953831 68.8725 0.928521 70.0636 0.979191C70.241 0.979191 70.4184 1.25788 70.5451 1.46056C72.8766 5.10875 75.1828 8.75693 77.5144 12.4051C77.6411 12.5825 77.7678 12.7598 77.9959 12.9118C77.9959 8.9596 77.9959 4.98207 77.9959 0.979191C79.263 0.979191 80.4288 0.979191 81.6452 0.979191C81.6199 7.05952 81.6199 13.0892 81.6199 19.2455Z" fill="white"/>
<path d="M48.752 23.4005C49.5883 23.4005 50.3739 23.4005 51.1595 23.4005C52.9589 23.4005 54.7582 23.3245 56.5322 23.4512C60.2576 23.7299 62.5637 25.858 63.6788 29.3289C64.4391 31.7357 64.4391 34.2185 63.6028 36.6252C62.5637 39.6654 60.2829 41.3122 57.1657 41.5402C54.4541 41.7429 51.7424 41.6162 49.0307 41.6415C48.9547 41.6415 48.8787 41.6162 48.7773 41.5909C48.752 35.5359 48.752 29.5062 48.752 23.4005ZM52.5787 38.804C53.8712 38.804 55.1383 38.8801 56.3801 38.7787C58.0274 38.652 59.2438 37.816 59.8014 36.2452C60.6884 33.7878 60.6377 31.305 59.4466 28.9488C58.8891 27.8594 58.0527 26.9221 56.8363 26.7194C55.4424 26.4914 54.0232 26.5167 52.5787 26.4154C52.5787 30.6209 52.5787 34.6745 52.5787 38.804Z" fill="white"/>
<path d="M69.2528 33.6104C69.2528 35.3078 69.2528 36.8786 69.2528 38.5507C72.5727 38.5507 75.8926 38.5507 79.2378 38.5507C79.2378 39.5894 79.2378 40.5521 79.2378 41.5908C74.6761 41.5908 70.1398 41.5908 65.5527 41.5908C65.5527 35.5358 65.5527 29.5062 65.5527 23.4512C70.0384 23.4512 74.4734 23.4512 78.959 23.4512C78.959 24.4392 78.959 25.402 78.959 26.4407C75.7152 26.4407 72.4966 26.4407 69.2274 26.4407C69.2274 27.7834 69.2274 29.0248 69.2274 30.3422C72.0658 30.3422 74.9042 30.3422 77.7679 30.3422C77.7679 31.4569 77.7679 32.4957 77.7679 33.6357C74.9549 33.6104 72.1418 33.6104 69.2528 33.6104Z" fill="white"/>
<path d="M120.319 19.5243C115.909 19.4989 112.64 16.6868 111.905 12.2785C111.576 10.2518 111.703 8.27567 112.412 6.35023C113.781 2.65137 116.847 0.599266 120.801 0.700605C124.374 0.801944 127.288 3.15808 128.403 6.88228C129.113 9.31441 129.088 11.7212 128.201 14.1026C126.908 17.5735 124.044 19.5243 120.319 19.5243ZM125.312 10.6318C125.312 8.40235 124.855 6.85691 123.994 5.66618C122.118 3.10738 118.494 3.1074 116.619 5.69154C114.896 8.04767 114.82 11.9999 116.416 14.4067C118.19 17.0922 121.941 17.2441 123.918 14.66C124.957 13.3426 125.312 11.7972 125.312 10.6318Z" fill="white"/>
<path d="M139.098 9.59307C141.582 9.59307 144.015 9.59307 146.499 9.59307C146.499 12.6586 146.499 15.6734 146.499 18.7389C145.586 18.7389 144.674 18.7389 143.685 18.7389C143.685 18.2322 143.685 17.7255 143.685 17.0922C143.483 17.2442 143.407 17.3202 143.331 17.3962C140.163 20.7657 135.12 19.7016 132.712 17.3455C130.735 15.3947 129.899 12.9626 129.924 10.2518C129.95 7.2116 130.913 4.52614 133.371 2.55003C137.071 -0.414127 142.672 0.371233 145.181 4.19677C145.662 4.93148 146.017 5.7422 146.068 6.70492C145.079 6.70492 144.142 6.70492 143.204 6.70492C143.077 6.70492 142.925 6.5529 142.849 6.45156C142.596 6.12221 142.393 5.79286 142.165 5.46351C140.366 3.13271 136.944 3.08205 135.018 5.3115C132.966 7.69297 132.788 11.9999 134.613 14.5587C136.488 17.1682 140.112 17.3455 142.342 14.9134C142.976 14.2293 143.66 13.5453 143.381 12.4052C141.988 12.4052 140.568 12.4052 139.124 12.4052C139.098 11.4678 139.098 10.5558 139.098 9.59307Z" fill="white"/>
<path d="M122.55 33.7369C122.55 35.3584 122.55 36.9291 122.55 38.5506C125.819 38.5506 129.063 38.5506 132.358 38.5506C132.358 39.5893 132.358 40.6027 132.358 41.616C127.923 41.616 123.488 41.616 119.027 41.616C119.027 35.561 119.027 29.5314 119.027 23.4004C119.23 23.4004 119.433 23.4004 119.636 23.4004C123.538 23.4004 127.441 23.4004 131.344 23.4004C131.851 23.4004 132.003 23.5524 131.977 24.0338C131.952 24.8951 131.977 25.7565 131.977 26.6939C128.81 26.6939 125.718 26.6939 122.55 26.6939C122.55 27.9606 122.55 29.1767 122.55 30.4941C125.287 30.4941 128.049 30.4941 130.837 30.4941C130.837 31.6088 130.837 32.6476 130.837 33.7623C128.075 33.737 125.338 33.7369 122.55 33.7369Z" fill="white"/>
<path d="M132.66 36.1946C133.75 36.1946 134.764 36.1946 135.803 36.1946C135.904 36.1946 136.081 36.3466 136.107 36.4733C136.715 38.4747 137.577 39.1841 139.655 39.3108C140.643 39.3868 141.631 39.1841 142.518 38.7281C143.355 38.2974 143.887 37.664 143.862 36.7013C143.836 35.7132 143.279 35.0292 142.366 34.7252C141.555 34.4465 140.694 34.2692 139.857 34.0918C138.21 33.7371 136.563 33.3825 135.068 32.5211C133.42 31.5837 132.635 30.1903 132.888 28.2648C133.116 26.3141 134.181 24.946 135.904 24.11C138.286 22.9446 140.795 22.8179 143.304 23.6539C145.357 24.338 146.472 25.9087 146.801 28.0115C146.827 28.1635 146.801 28.3155 146.801 28.5182C145.686 28.5182 144.622 28.5182 143.558 28.5182C143.532 28.4675 143.481 28.4422 143.481 28.4169C143.127 26.7701 142.012 25.9847 140.415 25.9594C139.528 25.9594 138.616 26.1368 137.779 26.3901C137.019 26.6181 136.538 27.2008 136.487 28.0368C136.462 28.8982 136.816 29.6329 137.602 29.9369C138.616 30.317 139.705 30.545 140.77 30.8237C141.885 31.1024 143.076 31.2797 144.166 31.6597C147.638 32.9011 148.651 36.8533 146.269 39.6655C145.205 40.9069 143.811 41.6162 142.24 41.8949C140.263 42.2496 138.312 42.1736 136.411 41.4136C134.409 40.6282 133.192 39.1334 132.736 37.0307C132.711 36.904 132.685 36.752 132.685 36.6253C132.66 36.524 132.66 36.4226 132.66 36.1946Z" fill="white"/>
<path d="M65.6795 19.2456C64.5644 19.2456 63.4747 19.271 62.385 19.2203C62.2076 19.2203 61.9795 19.0176 61.9035 18.8403C61.498 17.7762 61.1432 16.7375 60.8137 15.6481C60.7123 15.2934 60.5603 15.1414 60.1548 15.1414C58.2288 15.1667 56.3027 15.1667 54.3513 15.1414C53.9712 15.1414 53.8191 15.2681 53.7431 15.6228C53.4136 16.8135 53.0335 18.0042 52.6534 19.195C51.4622 19.195 50.2965 19.195 49.0547 19.195C49.1054 18.967 49.1561 18.7643 49.2321 18.5869C51.1581 12.8866 53.0842 7.18631 54.9849 1.486C55.1116 1.08065 55.289 0.903304 55.7452 0.928638C56.6575 0.979308 57.5445 0.928625 58.4568 0.953959C58.6342 0.953959 58.9384 1.10598 58.989 1.28332C61.2445 7.21164 63.4747 13.14 65.7049 19.0683C65.7049 19.0936 65.6795 19.1443 65.6795 19.2456ZM59.3185 12.5826C59.4959 11.8986 57.5952 5.76757 56.9363 4.93152C56.2774 7.49033 55.2383 9.92247 54.7822 12.5826C56.3534 12.5826 57.8486 12.5826 59.3185 12.5826Z" fill="white"/>
<path d="M99.2087 19.2455C98.0429 19.2455 96.9278 19.2709 95.8128 19.2202C95.6607 19.2202 95.4833 18.9922 95.4073 18.8148C95.0271 17.7508 94.647 16.6867 94.2922 15.6227C94.1908 15.2933 94.0388 15.1413 93.6586 15.1413C91.7326 15.1666 89.8065 15.1666 87.8551 15.1413C87.4496 15.1413 87.2976 15.2933 87.1962 15.648C86.8921 16.712 86.588 17.7761 86.2332 18.8148C86.1825 18.9922 85.9291 19.1949 85.777 19.1949C84.7127 19.2202 83.6482 19.2202 82.5078 19.2202C82.6092 18.8908 82.6852 18.6121 82.7866 18.3335C84.6619 12.7345 86.5626 7.16088 88.438 1.56191C88.6154 1.05522 88.8181 0.877889 89.3503 0.903224C90.212 0.953894 91.0737 0.90321 91.9353 0.928545C92.1127 0.928545 92.3915 1.1059 92.4675 1.25791C94.6977 7.13556 96.9278 13.0132 99.1326 18.8655C99.1833 18.9922 99.1833 19.0935 99.2087 19.2455ZM93.1264 12.5825C92.4675 9.87171 91.4285 7.38887 90.5922 4.83007C89.7812 7.03419 89.0462 9.213 88.3367 11.3918C88.2099 11.7465 88.286 12.1518 88.2606 12.5825C89.8826 12.5825 91.4031 12.5825 93.1264 12.5825Z" fill="white"/>
<path d="M118.241 29.4049C117.125 29.4049 116.061 29.4302 114.997 29.3795C114.819 29.3795 114.591 29.1769 114.464 28.9995C113.932 28.3408 113.476 27.6061 112.893 27.0234C111.094 25.1993 108.636 25.8834 107.394 27.4541C106.38 28.7715 106 30.2663 105.924 31.8877C105.848 33.8131 106.152 35.6626 107.267 37.284C109.244 40.1215 112.969 39.7921 114.388 36.6506C114.718 35.9159 115.073 35.6626 115.833 35.7386C116.619 35.8146 117.43 35.7639 118.291 35.7639C118.139 37.208 117.582 38.424 116.695 39.4628C115.199 41.2109 113.197 41.8695 110.967 42.0469C107.368 42.3002 104.91 40.6281 103.364 37.512C102.021 34.8518 101.742 32.0144 102.477 29.1262C103.491 25.0473 106.988 22.6912 111.246 23.1725C114.997 23.6286 117.531 25.858 118.241 29.4049Z" fill="white"/>
<path d="M80.1504 23.4004C81.3922 23.4004 82.4819 23.3751 83.597 23.4257C83.7491 23.4257 83.9264 23.7297 83.9771 23.9071C84.9402 26.9979 85.9032 30.1141 86.8662 33.2302C87.1957 34.345 87.5505 35.4344 87.956 36.7264C88.0827 36.3718 88.1587 36.1691 88.2094 35.9917C89.4258 31.9888 90.6423 28.0113 91.8334 24.0084C91.9601 23.6031 92.1375 23.451 92.5683 23.451C93.5313 23.4764 94.4944 23.451 95.5841 23.451C95.5334 23.8817 95.5841 24.3124 95.4574 24.6925C93.6074 30.1901 91.732 35.6624 89.882 41.16C89.7806 41.4894 89.6032 41.5907 89.2738 41.5907C88.4121 41.5654 87.5505 41.5654 86.6888 41.5907C86.334 41.5907 86.2073 41.464 86.0806 41.16C84.1799 35.6624 82.2538 30.1647 80.3278 24.6671C80.2011 24.3124 80.2264 23.9071 80.1504 23.4004Z" fill="white"/>
<path d="M111.855 16.1295C111.855 17.2188 111.855 18.2069 111.855 19.2203C107.952 19.2203 104.075 19.2203 100.146 19.2203C100.146 13.1653 100.146 7.1103 100.146 1.00464C101.312 1.00464 102.478 1.00464 103.694 1.00464C103.694 6.04624 103.694 11.0625 103.694 16.1295C106.431 16.1295 109.118 16.1295 111.855 16.1295Z" fill="white"/>
<path d="M96.7754 23.502C98.0679 23.502 99.2843 23.502 100.577 23.502C100.577 29.5316 100.577 35.5359 100.577 41.5656C99.3097 41.5656 98.0679 41.5656 96.7754 41.5656C96.7754 35.5359 96.7754 29.5569 96.7754 23.502Z" fill="white"/>
<path d="M55.8477 54.4102C56.2785 54.4102 56.6586 54.4102 57.1148 54.4102C57.5963 56.513 58.1032 58.6158 58.5847 60.7186C58.61 60.7186 58.6607 60.7439 58.6861 60.7439C58.7874 60.4399 58.8888 60.1359 58.9648 59.8318C59.3196 58.6665 59.7251 57.501 60.0545 56.3356C60.2066 55.8036 60.5867 55.981 60.9162 55.9303C61.2457 55.905 61.4738 55.9303 61.5751 56.3356C61.9806 57.7797 62.4114 59.2238 62.9436 60.6679C63.2731 59.3758 63.5772 58.0838 63.9066 56.7917C64.0334 56.2343 64.2108 55.677 64.3121 55.0943C64.3882 54.5369 64.6416 54.2836 65.2245 54.3849C65.3765 54.4102 65.5539 54.3849 65.782 54.3849C65.7313 54.6129 65.706 54.8156 65.6553 54.9929C65.0217 57.3237 64.3628 59.6292 63.7799 61.96C63.6279 62.5426 63.3744 62.7707 62.7916 62.6693C62.6142 62.644 62.4368 62.6693 62.234 62.6693C61.7778 61.0732 61.3217 59.5278 60.8148 57.8051C60.6881 58.2104 60.5867 58.4891 60.5107 58.7678C60.1559 59.9332 59.7758 61.0986 59.4463 62.2893C59.2689 62.948 58.7621 62.5933 58.4073 62.6693C58.0778 62.7453 57.9258 62.5933 57.8244 62.2386C57.1908 59.7052 56.5319 57.1971 55.873 54.6636C55.8477 54.5876 55.873 54.5116 55.8477 54.4102Z" fill="white"/>
<path d="M134.638 58.3876C135.677 59.2237 135.955 60.0598 135.55 61.1491C135.195 62.1372 134.435 62.6185 133.193 62.6439C132.179 62.6692 131.14 62.6439 130.127 62.6439C130.076 62.6439 130.025 62.6185 129.924 62.5932C129.924 59.8824 129.924 57.1716 129.924 54.4101C131.191 54.4101 132.458 54.3594 133.725 54.4354C134.663 54.4861 135.296 55.0688 135.525 55.9808C135.753 56.9436 135.499 57.7796 134.638 58.3876ZM131.14 61.6052C131.901 61.6052 132.61 61.6305 133.294 61.6052C133.953 61.5545 134.384 61.0225 134.409 60.3384C134.435 59.705 134.08 59.173 133.497 59.1224C132.737 59.0717 131.951 59.097 131.14 59.097C131.14 59.9331 131.14 60.7184 131.14 61.6052ZM131.14 57.9823C131.85 57.9823 132.509 58.0076 133.142 57.9823C133.801 57.9316 134.257 57.4503 134.283 56.7916C134.333 56.0822 134.004 55.6008 133.294 55.5248C132.585 55.4488 131.875 55.4995 131.14 55.4995C131.14 56.3355 131.14 57.1209 131.14 57.9823Z" fill="white"/>
<path d="M29.2871 62.6693C29.2871 59.9078 29.2871 57.197 29.2871 54.3342C30.7063 54.4102 32.1255 54.3849 33.5447 54.5622C34.3557 54.6636 34.8879 55.2969 35.0146 56.133C35.2933 57.7291 35.3187 59.3251 35.0146 60.9212C34.8118 62.0106 34.0516 62.6187 32.7844 62.6693C31.644 62.6947 30.5036 62.6693 29.2871 62.6693ZM30.5796 55.449C30.5796 57.5264 30.5796 59.5532 30.5796 61.58C31.3399 61.58 32.0748 61.6053 32.7844 61.58C33.418 61.5546 33.7981 61.1746 33.8235 60.5412C33.8741 59.1985 33.8741 57.8558 33.8235 56.513C33.7981 55.829 33.3926 55.4743 32.7337 55.449C32.0241 55.4236 31.3399 55.449 30.5796 55.449Z" fill="white"/>
<path d="M39.5273 58.3878C39.578 57.7798 39.6034 57.0704 39.7301 56.3611C39.9328 55.1703 40.4904 54.6129 41.6561 54.4356C42.3911 54.3343 43.1514 54.3596 43.8863 54.461C44.9 54.5876 45.5336 55.221 45.711 56.2597C45.9644 57.7798 45.9644 59.2999 45.711 60.8199C45.5336 61.8587 44.9 62.4921 43.8863 62.6187C43.126 62.7201 42.3404 62.7454 41.6054 62.6187C40.3637 62.4414 39.8061 61.732 39.6541 60.3639C39.578 59.7559 39.578 59.1225 39.5273 58.3878ZM40.8198 58.4638C40.8705 59.0972 40.8705 59.6799 40.9466 60.2626C41.0479 61.2253 41.4027 61.58 42.3657 61.656C42.6952 61.6813 42.9993 61.6813 43.3288 61.6307C44.0637 61.5293 44.4692 61.1493 44.4945 60.4146C44.5452 59.1732 44.5452 57.9318 44.4945 56.6904C44.4692 55.8797 44.0383 55.4997 43.2274 55.4236C42.8726 55.3983 42.4924 55.3983 42.1376 55.4236C41.428 55.4997 41.0479 55.8797 40.9466 56.5637C40.8705 57.2224 40.8705 57.8811 40.8198 58.4638Z" fill="white"/>
<path d="M105.139 58.5398C105.215 57.7798 105.265 57.0704 105.341 56.3357C105.493 55.2463 106.127 54.5623 107.217 54.4356C107.977 54.3343 108.788 54.3596 109.548 54.461C110.537 54.5876 111.12 55.221 111.297 56.1837C111.576 57.7291 111.576 59.2492 111.297 60.7946C111.12 61.8334 110.486 62.4667 109.472 62.5934C108.661 62.6694 107.825 62.6694 107.014 62.5427C106.051 62.4161 105.493 61.7573 105.341 60.7946C105.24 60.0599 105.215 59.2745 105.139 58.5398ZM110.233 58.6665C110.207 57.9824 110.207 57.3998 110.131 56.8171C110.03 55.829 109.65 55.4997 108.661 55.4236C108.383 55.3983 108.104 55.4237 107.825 55.449C107.039 55.525 106.609 55.9304 106.583 56.7411C106.533 57.9571 106.533 59.1732 106.583 60.3893C106.609 61.0733 107.014 61.4787 107.622 61.6307C108.661 61.8587 109.599 61.6307 109.928 61.048C110.03 60.8706 110.08 60.6679 110.106 60.4906C110.157 59.8319 110.182 59.1985 110.233 58.6665Z" fill="white"/>
<path d="M71.4581 57.957C71.4581 56.7663 71.4581 55.6262 71.4581 54.4102C71.8889 54.4102 72.2691 54.4102 72.6745 54.4102C72.6745 57.1463 72.6745 59.8571 72.6745 62.6186C72.2944 62.6186 71.9143 62.6186 71.4834 62.6186C71.4834 61.4785 71.4834 60.3132 71.4834 59.0971C70.3177 59.0971 69.2279 59.0971 68.0622 59.0971C68.0622 60.2372 68.0622 61.4025 68.0622 62.5933C67.6313 62.5933 67.2512 62.5933 66.8457 62.5933C66.8457 59.8824 66.8457 57.1463 66.8457 54.4102C67.2005 54.4102 67.5553 54.4102 68.0115 54.4102C68.0115 55.5756 68.0115 56.7409 68.0115 57.957C69.2026 57.957 70.2923 57.957 71.4581 57.957Z" fill="white"/>
<path d="M14.362 62.644C13.9818 62.644 13.6271 62.644 13.1455 62.644C13.1455 62.036 13.1455 61.4533 13.1455 60.8706C13.1455 60.2879 13.1455 59.7052 13.1455 59.0972C11.9798 59.0972 10.9154 59.0972 9.7496 59.0972C9.7496 60.2879 9.7496 61.4533 9.7496 62.644C9.29343 62.644 8.9133 62.644 8.50781 62.644C8.50781 59.9079 8.50781 57.197 8.50781 54.4355C8.88795 54.4355 9.26808 54.4355 9.72425 54.4355C9.72425 55.6009 9.72425 56.7663 9.72425 57.9571C10.89 57.9571 11.9798 57.9571 13.1455 57.9571C13.1455 56.7917 13.1455 55.6263 13.1455 54.4355C13.5764 54.4355 13.9565 54.4355 14.362 54.4355C14.362 57.1717 14.362 59.8825 14.362 62.644Z" fill="white"/>
<path d="M113.959 60.1866C114.263 61.4026 114.998 61.8586 116.189 61.6053C116.898 61.4533 117.329 60.8959 117.304 60.1106C117.304 59.4265 117 59.0972 116.189 58.9451C115.581 58.8185 114.947 58.7425 114.364 58.6158C113.325 58.3625 112.869 57.8811 112.768 56.9944C112.666 56.057 113.148 55.069 113.984 54.6889C115.074 54.2076 116.189 54.2329 117.279 54.6129C118.039 54.8663 118.394 55.525 118.394 56.3864C118.039 56.3864 117.684 56.3864 117.329 56.3864C116.848 55.449 115.606 55.0943 114.592 55.601C114.161 55.829 113.933 56.209 114.06 56.6397C114.136 56.9437 114.44 57.2731 114.719 57.3744C115.302 57.5771 115.935 57.6024 116.544 57.7291C118.013 58.0078 118.647 58.7171 118.622 60.0599C118.622 61.4533 117.861 62.4667 116.493 62.644C115.783 62.7454 114.998 62.6947 114.313 62.492C113.274 62.188 112.844 61.3266 112.742 60.2119C113.148 60.1865 113.528 60.1866 113.959 60.1866Z" fill="white"/>
<path d="M125.387 56.3863C124.956 56.3863 124.601 56.3863 124.246 56.3863C123.79 55.3982 122.193 55.0182 121.332 55.7022C120.724 56.1836 120.85 57.0956 121.56 57.349C121.965 57.501 122.422 57.5263 122.852 57.6023C123.055 57.6276 123.258 57.653 123.461 57.7037C125.032 58.0077 125.589 58.6917 125.539 60.2118C125.488 61.5799 124.601 62.5679 123.207 62.6439C122.548 62.6946 121.839 62.6186 121.205 62.4159C120.242 62.1119 119.761 61.2505 119.761 60.1611C120.141 60.1611 120.495 60.1611 120.876 60.1611C121.332 61.4279 121.94 61.8332 123.131 61.5799C123.866 61.4279 124.272 60.8958 124.272 60.0851C124.272 59.4011 123.967 59.0717 123.156 58.8944C122.548 58.7677 121.915 58.6917 121.306 58.565C120.293 58.3117 119.786 57.805 119.71 56.9943C119.609 55.9302 120.039 55.0182 120.901 54.6382C121.991 54.1568 123.106 54.1821 124.196 54.5622C124.981 54.8662 125.336 55.5249 125.387 56.3863Z" fill="white"/>
<path d="M88.361 60.1611C88.7665 60.1611 89.1213 60.1611 89.4761 60.1611C89.8816 61.5039 90.4138 61.8079 91.7569 61.6052C92.4919 61.5038 92.8974 60.8958 92.8974 60.1358C92.8974 59.4517 92.5932 59.1224 91.7823 58.945C91.1487 58.8184 90.5151 58.7424 89.8816 58.5903C88.8932 58.3623 88.4117 57.8303 88.3357 56.9943C88.2343 56.0316 88.7158 55.0688 89.5268 54.6888C90.5912 54.2075 91.7316 54.2328 92.8213 54.5875C93.5563 54.8408 93.9364 55.4742 93.9618 56.3609C93.607 56.3609 93.2268 56.3609 92.8467 56.3609C92.4412 55.3729 90.7686 55.0182 89.9069 55.7529C89.3494 56.2342 89.4761 57.1209 90.1603 57.3743C90.5658 57.5263 91.022 57.5517 91.4528 57.6277C91.6555 57.653 91.8583 57.6783 92.061 57.7037C93.5563 57.9823 94.1645 58.6664 94.1645 60.0344C94.1645 61.4279 93.4296 62.4159 92.061 62.6439C91.4021 62.7453 90.6925 62.7199 90.0336 62.5679C88.9692 62.2892 88.3863 61.3772 88.361 60.1611Z" fill="white"/>
<path d="M28.3251 62.5933C28.2744 62.6186 28.2491 62.644 28.2237 62.644C27.0326 62.7706 27.058 62.7453 26.6778 61.6052C26.323 60.4905 26.6018 60.6932 25.436 60.6679C24.8278 60.6679 24.0929 60.4652 23.662 60.7439C23.2565 61.0226 23.2059 61.7826 22.9524 62.3146C22.8764 62.4666 22.6737 62.6186 22.4963 62.644C22.2175 62.6946 21.9134 62.6693 21.5586 62.6693C21.6346 62.4159 21.6853 62.2133 21.736 62.0359C22.547 59.6545 23.3833 57.2983 24.1182 54.9169C24.3209 54.2835 24.7264 54.4355 25.1319 54.3849C25.5881 54.3342 25.7401 54.5116 25.8669 54.9422C26.6018 57.3237 27.3874 59.7051 28.1477 62.1119C28.2237 62.2639 28.2744 62.4413 28.3251 62.5933ZM25.1066 56.285C25.0559 56.285 25.0052 56.2596 24.9799 56.2596C24.6251 57.349 24.2703 58.4384 23.9155 59.5531C24.6758 59.5531 25.36 59.5531 26.0949 59.5531C25.7401 58.4131 25.436 57.349 25.1066 56.285Z" fill="white"/>
<path d="M4.93355 54.3849C5.82055 57.1464 6.6822 59.8572 7.5692 62.644C7.08769 62.644 6.68221 62.644 6.22604 62.644C6.07398 62.1373 5.89658 61.6306 5.76987 61.1239C5.69384 60.7692 5.4911 60.6426 5.1363 60.6679C4.50273 60.6932 3.84381 60.6932 3.21024 60.6679C2.88079 60.6679 2.67805 60.7439 2.60202 61.0986C2.55134 61.3013 2.47531 61.4786 2.42463 61.6813C2.06983 62.8213 2.06982 62.8214 0.777344 62.6187C1.25886 61.1746 1.74037 59.7305 2.24723 58.2864C2.60203 57.2224 3.00751 56.1583 3.31162 55.0943C3.46367 54.5369 3.74245 54.2836 4.32533 54.3849C4.47739 54.4102 4.68012 54.3849 4.93355 54.3849ZM5.28835 59.5785C4.93355 58.4131 4.62944 57.3491 4.29998 56.285C4.2493 56.285 4.19862 56.285 4.17328 56.285C3.81848 57.3744 3.46369 58.4384 3.10889 59.5785C3.86917 59.5785 4.52807 59.5785 5.28835 59.5785Z" fill="white"/>
<path d="M73.6387 62.6187C73.7907 62.188 73.9175 61.7827 74.0695 61.3773C74.8045 59.2239 75.5647 57.0704 76.249 54.8916C76.4517 54.2583 76.8572 54.4103 77.288 54.3849C77.7189 54.3343 77.8709 54.5116 77.9976 54.8916C78.7579 57.3238 79.5435 59.7305 80.3292 62.1627C80.3798 62.2894 80.4052 62.4413 80.4559 62.6694C80.0757 62.6694 79.7463 62.6947 79.4422 62.644C79.3155 62.6187 79.1887 62.4667 79.062 62.3654C79.0113 62.34 79.0113 62.264 78.986 62.188C78.8339 61.7066 78.8086 60.9973 78.4538 60.7693C78.0737 60.5159 77.4147 60.6426 76.8825 60.6426C75.6407 60.6426 75.6407 60.6426 75.2606 61.808C74.9565 62.72 74.9565 62.7201 73.6387 62.6187ZM75.9702 59.5785C76.7558 59.5785 77.4147 59.5785 78.1497 59.5785C77.8202 58.4385 77.4908 57.3491 77.1106 56.1077C76.9839 56.4117 76.9332 56.5637 76.8825 56.7157C76.6038 57.6531 76.2997 58.5651 75.9702 59.5785Z" fill="white"/>
<path d="M143.888 57.9824C144.775 57.9824 145.662 57.9824 146.575 57.9824C146.575 58.3624 146.575 58.6664 146.575 59.0464C145.688 59.0464 144.801 59.0464 143.888 59.0464C143.888 59.9078 143.888 60.7185 143.888 61.5799C145.105 61.5799 146.321 61.5799 147.563 61.5799C147.563 61.9346 147.563 62.2639 147.563 62.6186C145.941 62.6186 144.294 62.6186 142.621 62.6186C142.621 59.8825 142.621 57.1716 142.621 54.4102C144.268 54.4102 145.89 54.4102 147.563 54.4102C147.563 54.7142 147.563 55.0182 147.563 55.3982C146.372 55.3982 145.155 55.3982 143.914 55.3982C143.888 56.3103 143.888 57.121 143.888 57.9824Z" fill="white"/>
<path d="M99.7145 59.6799C99.7145 60.6932 99.7145 61.656 99.7145 62.644C99.2837 62.644 98.9289 62.644 98.5234 62.644C98.5234 59.9332 98.5234 57.2224 98.5234 54.3342C99.8666 54.4102 101.235 54.3595 102.553 54.5876C103.693 54.7902 104.251 56.1077 104.048 57.5771C103.896 58.7678 103.009 59.6292 101.843 59.6799C101.159 59.7052 100.475 59.6799 99.7145 59.6799ZM99.7145 55.4743C99.7145 56.4623 99.7145 57.3997 99.7399 58.3371C99.7399 58.4385 99.9426 58.6411 100.069 58.6411C100.576 58.6665 101.108 58.6665 101.641 58.6158C102.376 58.5145 102.857 57.8304 102.832 57.045C102.806 56.209 102.35 55.5756 101.666 55.4996C101.032 55.4236 100.399 55.4743 99.7145 55.4743Z" fill="white"/>
<path d="M17.3004 59.0464C17.3004 59.9585 17.3004 60.7185 17.3004 61.5799C18.5422 61.5799 19.7587 61.5799 21.0005 61.5799C21.0005 61.9599 21.0005 62.2639 21.0005 62.6186C19.3532 62.6186 17.7566 62.6186 16.084 62.6186C16.084 59.8825 16.084 57.1716 16.084 54.4102C17.7313 54.4102 19.3532 54.4102 21.0005 54.4102C21.0005 54.7648 21.0005 55.0688 21.0005 55.4235C19.7587 55.4235 18.5676 55.4235 17.3258 55.4235C17.3258 56.2849 17.3258 57.0956 17.3258 57.957C18.2128 57.957 19.0998 57.957 20.0121 57.957C20.0121 58.337 20.0121 58.641 20.0121 59.021C19.1505 59.0464 18.2381 59.0464 17.3004 59.0464Z" fill="white"/>
<path d="M48.7008 59.0465C48.7008 60.2879 48.7008 61.4279 48.7008 62.6187C48.2699 62.6187 47.8898 62.6187 47.459 62.6187C47.459 59.9079 47.459 57.197 47.459 54.4355C49.1063 54.4355 50.7282 54.4355 52.4008 54.4355C52.4008 54.7396 52.4008 55.0689 52.4008 55.449C51.1844 55.449 49.9932 55.449 48.7515 55.449C48.7515 56.3103 48.7515 57.121 48.7515 58.0077C49.6384 58.0077 50.5255 58.0077 51.4378 58.0077C51.4378 58.3878 51.4378 58.6918 51.4378 59.0718C50.5255 59.0465 49.6385 59.0465 48.7008 59.0465Z" fill="white"/>
<path d="M82.1015 55.449C81.3412 55.449 80.7077 55.449 80.0234 55.449C80.0234 55.0943 80.0234 54.7902 80.0234 54.4355C81.7974 54.4355 83.5714 54.4355 85.3961 54.4355C85.3961 54.7396 85.3961 55.0689 85.3961 55.4236C84.7372 55.4236 84.1036 55.4236 83.3687 55.4236C83.3687 57.8304 83.3687 60.2119 83.3687 62.6187C82.9125 62.6187 82.5324 62.6187 82.0762 62.6187C82.1015 60.2626 82.1015 57.8811 82.1015 55.449Z" fill="white"/>
<path d="M137.096 54.4102C137.527 54.4102 137.881 54.4102 138.312 54.4102C138.312 56.7916 138.312 59.1477 138.312 61.5799C139.402 61.5799 140.466 61.5799 141.531 61.5799C141.531 61.9599 141.531 62.2893 141.531 62.6186C140.035 62.6186 138.591 62.6186 137.096 62.6186C137.096 59.8825 137.096 57.1716 137.096 54.4102Z" fill="white"/>
<path d="M126.984 54.4102C127.365 54.4102 127.719 54.4102 128.125 54.4102C128.125 57.1463 128.125 59.8571 128.125 62.6186C127.745 62.6186 127.39 62.6186 126.984 62.6186C126.984 59.9078 126.984 57.1716 126.984 54.4102Z" fill="white"/>
<path d="M150.401 54.9168C150.401 56.0822 150.401 57.1969 150.401 58.3116C150.199 58.3116 150.047 58.3116 149.844 58.3116C149.844 57.1969 149.844 56.0822 149.844 54.9168C149.565 54.8915 149.312 54.9168 149.084 54.8661C148.982 54.8408 148.906 54.7141 148.83 54.6381C148.931 54.5621 149.007 54.4101 149.109 54.4101C149.793 54.3848 150.477 54.3848 151.162 54.4101C151.263 54.4101 151.339 54.5621 151.415 54.6381C151.314 54.7141 151.238 54.8408 151.136 54.8661C150.908 54.8915 150.68 54.8915 150.401 54.9168Z" fill="white"/>
<path d="M86.3846 56.8424C86.5874 56.3863 86.7394 56.1077 86.8155 55.8036C86.8408 55.7276 86.5367 55.5756 86.334 55.4236C86.334 55.1703 86.334 54.8156 86.334 54.4355C86.6888 54.4355 87.0182 54.4355 87.449 54.4355C87.4237 55.0942 87.4491 55.7276 87.3223 56.3356C87.2717 56.589 86.8915 56.7917 86.6381 56.969C86.5621 57.0197 86.3593 56.8424 86.3846 56.8424Z" fill="white"/>
</svg>
