<svg width="125" height="67" viewBox="0 0 125 67" fill="none" xmlns="http://www.w3.org/2000/svg">
<path d="M85.8279 47.1958C86.6113 60.2135 101.392 65.2485 114.187 57.1352C115.206 58.1004 116.276 59.1179 117.347 60.1353C108.991 69.6834 92.4085 68.3007 84.6789 57.6048C79.1429 49.9611 79.0645 39.8651 84.47 32.1432C89.6927 24.656 99.1197 21.2907 108.103 23.6908C116.877 26.0387 123.327 34.0215 124.006 43.3609C124.267 47.0393 124.136 47.1958 120.35 47.1958C109.8 47.1958 99.2764 47.1958 88.7265 47.1958C87.8387 47.1958 86.9247 47.1958 85.8279 47.1958ZM118.548 42.1609C118.365 34.178 110.375 27.6039 101.548 27.8648C93.4792 28.0996 85.7235 35.1172 85.9585 42.1609C96.7695 42.1609 107.58 42.1609 118.548 42.1609Z" fill="white"/>
<path d="M58.1742 27.8387C58.1742 31.204 58.1742 34.0737 58.1742 36.9433C58.1742 45.9957 58.1481 55.0482 58.2003 64.1267C58.2003 65.9789 57.5997 66.6572 55.6935 66.605C53.97 66.5789 53.291 66.0833 53.291 64.2832C53.3432 43.8826 53.3432 23.482 53.291 3.08146C53.291 1.28141 53.9439 0.785748 55.6935 0.75966C57.5997 0.733572 58.2265 1.38577 58.2265 3.23799C58.1481 9.00338 58.2787 14.7427 58.1742 20.508C58.1481 22.4124 58.8271 23.0386 60.655 22.9864C65.1465 22.9081 69.6642 22.9864 74.1557 22.9603C75.9053 22.9603 77.4982 22.7777 77.4721 25.4386C77.446 28.2039 75.6703 27.8126 74.0251 27.8126C69.7686 27.8387 65.5382 27.8126 61.2817 27.8126C60.3417 27.8387 59.4538 27.8387 58.1742 27.8387Z" fill="white"/>
<path d="M42.8192 66.3441C42.6886 65.3267 42.4797 64.3354 42.4536 63.318C42.3752 56.6395 42.5319 49.935 42.2708 43.2565C41.8791 33.2128 33.4967 24.8125 23.7302 24.3429C12.7364 23.8212 3.72729 30.917 2.13437 41.3521C0.69813 50.9002 5.79026 59.9787 14.5383 63.4745C23.5474 67.0746 33.34 64.0223 39.0066 55.8569C39.3722 55.3351 39.7639 54.8134 40.3906 53.9525C40.3906 58.3352 40.3906 62.2745 40.3906 66.2137C40.0773 66.2398 39.7639 66.2659 39.4505 66.3181C39.2938 64.0745 39.1633 61.831 38.9805 59.0918C37.9098 60.057 37.2048 60.7092 36.4475 61.3353C29.4752 67.2572 19.6565 68.1964 11.6919 63.7615C3.46616 59.1439 -0.711997 50.0654 0.959265 40.4391C2.42162 32.0127 9.65505 24.8386 18.3247 23.2212C31.5643 20.7428 43.9159 30.891 44.0204 44.3783C44.0726 50.9002 44.0465 57.4221 44.0204 63.9441C44.0204 64.7528 43.7854 65.5354 43.6548 66.3441C43.3937 66.3441 43.1064 66.3441 42.8192 66.3441Z" fill="white"/>
<path d="M40.5483 44.4827C40.6005 54.8395 32.5837 63.0049 22.3472 63.0832C12.0062 63.1615 3.62381 54.9438 3.54547 44.6653C3.46713 34.5172 11.7451 26.1691 21.8771 26.0908C32.3748 26.0387 40.5222 34.0476 40.5483 44.4827ZM39.1904 44.7174C39.1904 35.3259 31.7741 27.8648 22.4255 27.8387C12.9986 27.8126 5.32119 35.4302 5.3473 44.7435C5.37342 53.9264 13.0769 61.6484 22.2166 61.7005C31.6175 61.7788 39.1904 54.1873 39.1904 44.7174Z" fill="white"/>
</svg>
