<svg width="231" height="42" viewBox="0 0 231 42" fill="none" xmlns="http://www.w3.org/2000/svg">
<path d="M14.778 41.9999C11.6183 37.4867 8.48467 32.9736 5.32494 28.4865C3.78424 26.2951 2.26964 24.0777 0.728942 21.8863C0.493921 21.5471 0.467782 21.3384 0.702803 20.9732C5.29877 14.3991 9.8948 7.82501 14.4647 1.25091C14.6736 0.937856 14.9086 0.833496 15.2742 0.833496C21.7503 0.833496 28.2525 0.859584 34.7287 0.833496C35.0942 0.833496 35.3293 0.96397 35.5382 1.27702C39.0113 6.39021 42.4844 11.4773 45.9575 16.5905C46.8976 17.9731 47.8377 19.3558 48.8039 20.7384C48.8822 20.8689 48.9605 20.9993 48.9605 21.208C48.83 21.1298 48.6994 21.0776 48.5949 20.9993C42.4321 17.347 36.2694 13.6687 30.1066 9.9903C29.8194 9.83378 29.6104 9.70333 29.3754 10.0686C26.8163 13.6948 24.2311 17.2948 21.6459 20.8949C21.3847 21.2602 21.3586 21.521 21.6459 21.9124C24.2311 25.4864 26.7902 29.1126 29.3493 32.7127C29.5582 33.0257 29.7149 33.0518 30.0283 32.8431C36.1388 29.1908 42.2493 25.5646 48.3338 21.9124C48.5949 21.7558 48.8822 21.5993 49.1955 21.5211C49.1433 21.6254 49.0911 21.7037 49.0389 21.808C44.5735 28.33 40.1081 34.8779 35.6688 41.3999C35.5382 41.5825 35.4337 41.7912 35.3032 41.9738C28.4614 41.9999 21.6197 41.9999 14.778 41.9999Z" fill="white"/>
<path d="M120.145 12.9123C120.145 12.2861 120.145 11.7122 120.145 11.1383C120.145 10.8513 120.25 10.7209 120.537 10.7209C121.451 10.7209 122.365 10.7209 123.279 10.7209C123.592 10.7209 123.723 10.8513 123.697 11.1644C123.697 11.2426 123.697 11.347 123.697 11.4253C123.697 17.7646 123.723 24.13 123.697 30.4693C123.671 33.6259 122.522 36.3129 120.25 38.4782C115.027 43.461 106.331 42 103.171 35.6085C102.91 35.0868 102.728 34.5389 102.493 33.9389C102.78 33.9128 102.936 33.8868 103.093 33.8868C104.007 33.8868 104.921 33.8868 105.835 33.8868C106.201 33.8868 106.383 34.0172 106.592 34.3303C108.081 36.8347 110.274 38.0608 113.173 37.9043C116.568 37.7217 119.44 35.1651 120.093 31.7998C120.171 31.3563 120.224 30.8867 120.276 30.4171C120.302 29.9997 120.276 29.5562 120.276 29.0345C117.247 31.5128 113.904 32.4259 110.144 31.4606C107.559 30.8084 105.522 29.2953 104.007 27.104C100.978 22.7734 101.605 16.9037 105.417 13.1731C109.099 9.57304 115.497 8.89475 120.145 12.9123ZM112.833 13.8253C108.786 13.8253 105.496 17.0863 105.496 21.0777C105.496 25.1213 108.838 28.4605 112.886 28.4084C116.933 28.3562 120.119 25.1996 120.119 21.156C120.119 17.0863 116.829 13.7993 112.833 13.8253Z" fill="white"/>
<path d="M193.394 29.2691C190.417 31.6692 187.179 32.5561 183.549 31.7213C181.043 31.1474 179.006 29.7908 177.465 27.7299C174.357 23.582 174.592 17.8166 177.857 14.086C181.251 10.1729 188.015 8.58155 193.394 13.0947C193.394 12.4947 193.394 11.9468 193.394 11.399C193.394 10.8251 193.42 10.799 193.969 10.799C194.804 10.799 195.614 10.8251 196.449 10.799C196.893 10.7729 197.024 10.9555 197.024 11.3729C197.024 14.1904 197.024 17.034 197.024 19.8514C197.024 23.5298 197.024 27.1821 197.024 30.8604C197.024 31.5909 197.024 31.5909 196.319 31.5909C195.562 31.5909 194.778 31.5909 194.021 31.5909C193.446 31.5909 193.42 31.5648 193.42 31.017C193.394 30.4691 193.394 29.9213 193.394 29.2691ZM193.394 21.1558C193.394 17.1383 190.156 13.9034 186.082 13.9034C182.035 13.9034 178.823 17.1383 178.823 21.208C178.823 25.2255 182.061 28.5386 186.03 28.4864C190.417 28.4082 193.473 24.8863 193.394 21.1558Z" fill="white"/>
<path d="M78.7812 21.1558C78.7812 15.1295 83.5339 10.3555 89.5139 10.3555C95.5723 10.3555 100.455 15.2078 100.429 21.1818C100.403 27.1298 95.5201 31.9822 89.5401 31.9561C83.6123 31.9561 78.7812 27.1038 78.7812 21.1558ZM96.8518 21.1297C96.8518 17.0861 93.5876 13.8251 89.5923 13.8251C85.5447 13.8251 82.2804 17.0861 82.2804 21.1036C82.2804 25.1211 85.5969 28.4342 89.5661 28.4342C93.5876 28.382 96.8518 25.1472 96.8518 21.1297Z" fill="white"/>
<path d="M168.742 14.347C168.507 14.347 168.351 14.347 168.194 14.347C164.355 14.347 160.543 14.347 156.704 14.347C156.103 14.347 156.104 14.347 156.104 13.7469C156.104 12.9382 156.104 12.1295 156.104 11.3208C156.104 10.9555 156.208 10.7729 156.6 10.7729C162.057 10.7729 167.489 10.7729 172.947 10.7729C173.312 10.7729 173.443 10.9034 173.443 11.2686C173.391 12.1817 173.391 13.0947 173.364 14.0078C173.364 14.2165 173.234 14.4513 173.103 14.5817C169.735 18.234 166.366 21.8602 162.997 25.4864C162.318 26.2169 161.666 26.9473 160.987 27.6778C160.908 27.756 160.882 27.8343 160.752 27.9908C161.013 27.9908 161.17 27.9908 161.352 27.9908C165.191 27.9908 169.004 27.9908 172.842 27.9908C173.469 27.9908 173.469 27.9908 173.469 28.6169C173.469 29.3996 173.469 30.1822 173.469 30.9648C173.469 31.5648 173.469 31.5648 172.868 31.5648C168.298 31.5648 163.729 31.5648 159.185 31.5648C158.323 31.5648 157.461 31.5648 156.626 31.5648C156.286 31.5648 156.13 31.4344 156.156 31.0952C156.182 30.1822 156.156 29.2691 156.182 28.356C156.182 28.1473 156.286 27.9126 156.443 27.756C159.159 24.8081 161.901 21.8602 164.643 18.9123C165.974 17.4775 167.28 16.0427 168.612 14.6078C168.586 14.5818 168.638 14.5035 168.742 14.347Z" fill="white"/>
<path d="M130.643 12.2339C131.714 11.7383 132.706 11.1382 133.803 10.7991C139.261 9.05122 145.162 12.7296 145.972 18.3645C146.05 18.9906 146.102 19.6167 146.102 20.2428C146.129 23.7908 146.102 27.3387 146.102 30.8866C146.102 31.591 146.102 31.591 145.371 31.591C144.614 31.591 143.831 31.591 143.073 31.591C142.525 31.591 142.499 31.5649 142.499 30.991C142.499 27.2604 142.499 23.5299 142.499 19.7993C142.499 17.008 140.619 14.6862 137.903 14.034C134.247 13.1731 130.669 15.9384 130.643 19.695C130.617 23.4256 130.643 27.1822 130.643 30.9127C130.643 31.5649 130.643 31.5649 129.99 31.5649C129.233 31.5649 128.45 31.5649 127.692 31.5649C127.092 31.5649 127.092 31.5649 127.092 30.9649C127.092 25.5647 127.092 20.1907 127.092 14.7905C127.092 13.6166 127.092 12.4426 127.092 11.2948C127.092 10.9035 127.222 10.773 127.614 10.773C128.45 10.7991 129.285 10.7991 130.147 10.773C130.591 10.7469 130.696 10.9295 130.669 11.3208C130.617 11.66 130.643 11.973 130.643 12.2339Z" fill="white"/>
<path d="M203.944 12.2599C204.832 11.7903 205.668 11.2947 206.529 10.9555C212.144 8.79026 218.542 12.573 219.351 18.4949C219.403 18.9384 219.456 19.3819 219.456 19.8254C219.456 23.5037 219.456 27.1821 219.456 30.8605C219.456 31.4605 219.456 31.4605 218.855 31.4605C218.098 31.4605 217.367 31.4605 216.609 31.4605C215.904 31.4605 215.904 31.4605 215.904 30.7822C215.904 27.1038 215.904 23.4516 215.904 19.7732C215.904 16.9296 214.024 14.5817 211.23 13.9295C207.6 13.0686 203.996 15.8079 203.944 19.5384C203.892 23.295 203.918 27.0516 203.918 30.8083C203.918 31.5387 203.918 31.5387 203.161 31.5387C202.377 31.5387 201.568 31.5387 200.784 31.5387C200.471 31.5387 200.314 31.4083 200.314 31.0952C200.314 30.9648 200.314 30.8344 200.314 30.7039C200.314 24.3385 200.314 17.9471 200.314 11.5817C200.314 10.7729 200.314 10.7729 201.124 10.7729C201.881 10.7729 202.665 10.799 203.422 10.7729C203.788 10.7729 203.944 10.9033 203.918 11.2686C203.944 11.6338 203.944 11.9469 203.944 12.2599Z" fill="white"/>
<path d="M77.1376 24.2342C76.8504 24.9125 76.6414 25.5386 76.3281 26.0865C74.5262 29.4518 71.6799 31.4084 67.8935 31.878C62.1485 32.5562 56.7952 28.5909 55.9596 22.8777C54.9673 16.0688 59.4849 11.1382 65.256 10.3556C70.3481 9.65124 75.1791 12.6252 76.8765 17.3471C77.1115 17.9993 77.0853 18.0254 76.4064 18.0254C75.5447 18.0254 74.683 17.9993 73.8473 18.0254C73.5079 18.0254 73.325 17.8949 73.1422 17.608C71.706 15.1818 69.5647 13.8514 66.7183 13.8253C63.2713 13.7731 60.2161 16.3297 59.5894 19.7211C58.8321 23.7125 61.3651 27.4691 65.3343 28.2778C68.3896 28.9039 71.5493 27.443 73.1162 24.6517C73.3251 24.2864 73.534 24.156 73.9257 24.1821C74.7613 24.2082 75.5969 24.1821 76.4587 24.1821C76.6154 24.1821 76.7982 24.2082 77.1376 24.2342Z" fill="white"/>
<path d="M222.223 15.3382C222.223 12.1294 222.223 8.92059 222.223 5.7379C222.223 5.11179 222.223 5.11182 222.85 5.11182C223.659 5.11182 224.469 5.11182 225.278 5.11182C225.67 5.11182 225.8 5.24225 225.8 5.63356C225.774 7.17274 225.8 8.68581 225.774 10.225C225.774 10.6424 225.905 10.7728 226.323 10.7467C227.681 10.7206 229.065 10.7467 230.423 10.7207C230.814 10.7207 230.945 10.8511 230.945 11.2424C230.919 12.1033 230.919 12.9381 230.945 13.799C230.945 14.1903 230.814 14.2947 230.449 14.2947C229.065 14.2686 227.681 14.2947 226.297 14.2686C225.905 14.2686 225.774 14.399 225.8 14.7903C225.827 17.9469 225.8 21.1036 225.8 24.2602C225.8 26.582 227.211 28.0168 229.561 28.0429C229.9 28.0429 230.214 28.0429 230.553 28.0429C230.84 28.0429 230.971 28.1472 230.945 28.4342C230.945 29.3733 230.945 30.2864 230.945 31.2256C230.945 31.4604 230.84 31.5908 230.605 31.5908C228.125 31.7473 225.879 31.2517 224.129 29.3733C222.928 28.069 222.275 26.5559 222.275 24.7819C222.197 21.6253 222.223 18.4687 222.223 15.3382Z" fill="white"/>
<path d="M152.735 21.2081C152.735 24.4691 152.735 27.7039 152.735 30.9649C152.735 31.591 152.736 31.591 152.109 31.591C151.325 31.591 150.516 31.5649 149.732 31.591C149.236 31.6171 149.158 31.3823 149.184 30.9649C149.184 26.4256 149.184 21.8603 149.184 17.321C149.184 15.3384 149.184 13.3818 149.184 11.3991C149.184 10.8252 149.21 10.8252 149.759 10.8252C150.542 10.8252 151.351 10.8252 152.135 10.8252C152.709 10.8252 152.735 10.8252 152.735 11.4252C152.735 14.6862 152.735 17.9472 152.735 21.2081Z" fill="white"/>
<path d="M150.855 7.90324C149.602 7.90324 148.609 6.88583 148.609 5.63362C148.609 4.30315 149.628 3.33789 150.986 3.33789C152.239 3.36398 153.258 4.35533 153.231 5.55536C153.205 6.93801 152.239 7.90324 150.855 7.90324Z" fill="white"/>
</svg>
