<svg width="134" height="64" viewBox="0 0 134 64" fill="none" xmlns="http://www.w3.org/2000/svg">
<path d="M0.884766 53.5208H7.62201V55.2165H3.13049V57.46H7.62201V59.1557H3.13049V61.3992H8.19651V62.521H0.884766V53.5208Z" fill="white"/>
<path d="M9.89453 52.9468H12.1403V62.4949H9.89453V52.9468Z" fill="white"/>
<path d="M14.9597 60.8775V58.634C14.9074 57.9035 15.1686 57.2253 15.717 56.7818C16.4743 56.3383 17.2838 56.1557 18.1717 56.2078C18.9812 56.1557 19.7384 56.3122 20.4435 56.7818C20.9919 57.2253 21.2009 57.9035 21.1486 58.634V60.2514H16.6571V60.8775C16.6049 61.2167 16.7615 61.5558 17.0227 61.7123C17.4405 61.9471 17.9889 61.9993 18.4589 61.9471C19.1379 61.9471 19.8951 61.8428 20.6002 61.6602V62.5993C19.8429 62.7559 19.0073 62.8602 18.1978 62.8602C16.0304 62.808 14.9597 62.1558 14.9597 60.8775ZM18.9028 58.5818V57.6166C18.9028 57.3818 18.7984 57.2253 18.6417 57.1209C18.3805 57.0166 18.0672 56.9644 17.8322 56.9644C17.5188 56.9122 17.2315 57.0166 16.9182 57.1209C16.7615 57.2253 16.6571 57.4079 16.6571 57.6166V58.5818H18.9028Z" fill="white"/>
<path d="M23.3945 52.9468H25.6403V62.4949H23.3945V52.9468ZM25.4052 59.26L27.6249 56.3121H29.949L27.6249 59.26L30.1841 63.0688H27.8599L25.4052 59.26Z" fill="white"/>
<path d="M34.2844 63.0689C34.0493 63.0167 33.8404 62.9645 33.6054 62.9123C33.3704 62.8602 33.1615 62.7558 32.9787 62.5732C32.7959 62.4167 32.6392 62.1819 32.5869 61.9471C32.4825 61.6601 32.4042 61.321 32.4042 60.9818V57.4339H31.2812V55.7643H32.4042V54.0686H34.6499V56.3121H36.3473V57.4339H34.6499V60.3036C34.6499 60.5123 34.65 60.7731 34.7022 60.9558C34.7544 61.1123 34.8589 61.2166 35.0155 61.2688C35.2244 61.321 35.4334 61.3732 35.6684 61.3732C35.8773 61.3732 36.1384 61.321 36.3212 61.321V62.9906C35.9295 63.0428 35.59 63.0428 35.1722 63.0428C34.8589 63.0689 34.5716 63.0689 34.2844 63.0689Z" fill="white"/>
<path d="M38.0176 55.7642H40.2633V57.2251C40.0022 56.9903 40.1066 56.7816 40.2633 56.599C40.42 56.3642 40.655 56.2077 40.9423 56.1033C41.1773 55.999 41.7256 55.7642 41.7256 55.7642H42.5091V57.4599H41.8563C41.4123 57.4077 41.0207 57.512 40.6551 57.6946C40.3678 57.9294 40.2111 58.1903 40.2633 58.5816V63.0687H38.0176V55.7642Z" fill="white"/>
<path d="M46.505 63.0687C46.2439 63.0166 45.9566 62.9644 45.6694 62.9122C45.4082 62.86 45.121 62.7035 44.9121 62.5209C44.7032 62.3122 44.5204 62.0774 44.4159 61.8165C44.2592 61.4774 44.207 61.1122 44.207 60.7208V58.8164C44.207 58.4251 44.2592 58.0599 44.4159 57.6686C44.5204 57.4077 44.7032 57.1207 44.9643 56.912C45.1733 56.7555 45.4604 56.599 45.7216 56.5207C46.0088 56.4164 46.3222 56.3642 46.6617 56.312C47.0012 56.312 47.3145 56.312 47.6018 56.312C48.0457 56.312 48.3591 56.312 48.5941 56.3642C48.8813 56.4164 49.1425 56.4685 49.4297 56.5207C49.717 56.5729 49.9781 56.7294 50.187 56.912C50.3959 57.1207 50.5787 57.3555 50.7354 57.6164C50.8921 58.0077 50.9443 58.3729 50.9443 58.7643V60.6687C50.9443 61.06 50.8921 61.373 50.7354 61.7644C50.6309 62.0252 50.4743 62.3122 50.2392 62.4687C50.0303 62.6252 49.7431 62.7296 49.5342 62.86C49.247 62.9644 48.9336 63.0166 48.5941 63.0166C48.3068 63.0166 47.9935 63.0687 47.6018 63.0687C47.1056 63.0687 46.7401 63.0687 46.505 63.0687ZM48.7508 61.6078C48.9335 61.5556 49.0903 61.4252 49.1425 61.3209C49.247 61.1383 49.2469 60.9295 49.2469 60.7469V58.1642C49.2991 57.8773 49.1947 57.5903 48.9597 57.3555C48.2808 57.0686 47.419 57.0686 46.7139 57.3555C46.4789 57.5903 46.3745 57.8773 46.4267 58.1642V60.7469C46.4267 60.9817 46.4789 61.1383 46.5312 61.3209C46.6356 61.5035 46.7662 61.5556 46.9229 61.6078C47.6018 61.7122 48.1763 61.7122 48.7508 61.6078Z" fill="white"/>
<path d="M53.2168 58.0078H57.7083V59.7035H53.2168V58.0078Z" fill="white"/>
<path d="M62.1993 54.0686H64.68L67.7354 62.4949H65.7246L64.9673 60.2514H61.8075L61.0503 62.4949H59.0918L62.1993 54.0686ZM64.5234 59.1296L63.4005 55.7643H63.3482L62.2254 59.1296H64.5234Z" fill="white"/>
<path d="M70.033 62.7296C69.6413 62.3383 69.4585 61.8426 69.5107 61.2687V56.312H71.7564V60.9817C71.7564 61.2165 71.7565 61.373 71.8087 61.5556C71.8609 61.66 71.9654 61.7904 72.0698 61.8426C72.2787 61.8948 72.4876 61.947 72.6965 61.8948C72.9577 61.8948 73.2188 61.8948 73.5322 61.8426C73.6889 61.7904 73.7933 61.7383 73.8977 61.5556C73.95 61.3991 74.0022 61.1643 74.0022 60.9295V56.312H76.2479V63.0426H74.0022V62.2078C73.8194 62.8339 73.1404 63.1731 71.8348 63.1731C71.2341 63.2253 70.5553 63.1209 70.033 62.7296Z" fill="white"/>
<path d="M80.9757 63.0689C80.7407 63.0167 80.5318 62.9645 80.2968 62.9123C80.0618 62.8602 79.8528 62.7558 79.67 62.5732C79.4872 62.4167 79.3306 62.1819 79.2783 61.9471C79.1739 61.6601 79.0956 61.321 79.0956 60.9818V57.4339H77.9727V55.7643H79.0956V54.0686H81.3413V56.3121H83.0387V57.4339H81.3413V60.3036C81.3413 60.5123 81.3413 60.7731 81.3935 60.9558C81.4457 61.1123 81.5503 61.2166 81.7069 61.2688C81.9159 61.321 82.1248 61.3732 82.3598 61.3732C82.5687 61.3732 82.8298 61.321 83.0126 61.321V62.9906C82.6209 63.0428 82.2814 63.0428 81.8636 63.0428C81.6025 63.0689 81.2629 63.0689 80.9757 63.0689Z" fill="white"/>
<path d="M87.5812 63.0687C87.294 63.0166 87.0328 62.9644 86.7456 62.9122C86.4583 62.86 86.1971 62.7035 85.9882 62.5209C85.7793 62.3122 85.5965 62.0774 85.4921 61.8165C85.3354 61.4774 85.2832 61.1122 85.2832 60.7208V58.8164C85.2832 58.4251 85.3354 58.0599 85.4921 57.6686C85.5965 57.4077 85.7793 57.1207 86.0404 56.912C86.2493 56.7555 86.5366 56.6512 86.7977 56.5207C87.0589 56.4164 87.3984 56.3642 87.7379 56.312C88.0774 56.312 88.3907 56.312 88.6779 56.312C89.1219 56.312 89.4352 56.312 89.6702 56.3642C89.9314 56.4164 90.2187 56.4685 90.5059 56.5207C90.767 56.5729 91.0542 56.7294 91.2631 56.912C91.472 57.1207 91.6549 57.3555 91.8116 57.6164C91.9683 58.0077 92.0204 58.3729 92.0204 58.7643V60.6687C92.0204 61.06 91.9683 61.373 91.8116 61.7644C91.7071 62.0252 91.5243 62.3122 91.3154 62.4687C91.1065 62.6252 90.8192 62.7296 90.6103 62.86C90.323 62.9644 90.0097 63.0166 89.6702 63.0166C89.383 63.0166 89.0696 63.0687 88.6779 63.0687C88.1818 63.0687 87.7901 63.0687 87.5812 63.0687ZM89.2524 61.6078C89.4352 61.5556 89.5919 61.4252 89.6441 61.3209C89.7486 61.1383 89.7486 60.9295 89.7486 60.7469V58.1642C89.8008 57.8773 89.6963 57.5903 89.4613 57.3555C88.7823 57.0686 87.9206 57.0686 87.2156 57.3555C86.9806 57.5903 86.8761 57.8773 86.9284 58.1642V60.7469C86.9284 60.9817 86.9805 61.1383 87.0328 61.3209C87.1372 61.5035 87.2678 61.5556 87.4244 61.6078C88.1034 61.7122 88.6779 61.7122 89.2524 61.6078Z" fill="white"/>
<path d="M94.1367 56.312H96.5131V57.1468C96.6175 56.5207 97.3226 56.1815 98.4977 56.1815C99.02 56.1815 99.4639 56.2337 99.9339 56.4163C100.273 56.5729 100.508 56.8598 100.613 57.1468C100.717 56.8076 100.952 56.5207 101.24 56.3642C101.684 56.2076 102.206 56.0772 102.728 56.1294C103.172 56.1294 103.642 56.1815 104.086 56.3642C104.373 56.4685 104.608 56.7033 104.765 56.9903C104.869 57.3294 105 57.7207 104.948 58.112V63.0687H102.702V58.399C102.702 58.1642 102.702 57.9555 102.65 57.7729C102.598 57.6685 102.519 57.5381 102.415 57.4859C102.18 57.4338 101.919 57.4337 101.736 57.4337C101.422 57.4337 101.135 57.4338 100.874 57.4859C100.691 57.5381 100.561 57.5903 100.508 57.7729C100.456 58.0077 100.378 58.1642 100.456 58.399V63.0687H98.7589V58.399C98.7589 58.1642 98.7588 57.9555 98.7066 57.7729C98.6543 57.6685 98.576 57.5381 98.4716 57.4859C98.2365 57.4338 97.9754 57.4337 97.7926 57.4337C97.4792 57.4337 97.192 57.4338 96.9309 57.4859C96.7481 57.5381 96.6175 57.5903 96.5653 57.7729C96.513 58.0077 96.4347 58.1642 96.5131 58.399V63.0687H94.3195L94.1367 56.312Z" fill="white"/>
<path d="M107.794 62.7297C107.507 62.6253 107.22 62.3905 107.115 62.1036C106.958 61.6601 106.88 61.2166 106.958 60.747C106.958 60.3035 107.011 59.9122 107.193 59.5209C107.298 59.2339 107.533 59.0252 107.872 58.8426C108.264 58.6861 108.708 58.6078 109.1 58.5556H111.163V58.1643C111.346 57.9295 111.346 57.7208 111.241 57.5382C111.137 57.3817 110.954 57.2513 110.797 57.2513C110.51 57.1991 110.17 57.1469 109.831 57.1991C109.048 57.1991 107.794 57.3556 107.794 57.3556V55.7903C108.604 55.686 109.413 55.6338 110.275 55.686C110.928 55.686 111.581 55.7382 112.155 55.8425C112.521 55.9469 112.912 56.1817 113.121 56.5208C113.33 56.9121 113.435 57.4078 113.382 57.8774V62.4949H111.137V62.1036C111.137 62.3905 110.928 62.5471 110.693 62.6775C109.753 62.9645 108.734 62.9645 107.794 62.7297ZM110.693 61.5036C110.797 61.5036 110.849 61.4514 110.98 61.4514C111.032 61.3992 111.084 61.347 111.084 61.2949C111.137 61.1905 111.137 61.1383 111.137 61.0079V59.7035H109.726C109.491 59.7035 109.283 59.7035 109.048 59.7557C108.943 59.8078 108.813 59.86 108.76 59.9905C108.708 60.2253 108.708 60.434 108.708 60.6688C108.708 60.9035 108.708 61.1122 108.76 61.2949C108.813 61.3992 108.917 61.5296 109.048 61.5296C109.283 61.5818 109.492 61.5818 109.779 61.5818C110.144 61.5557 110.405 61.5557 110.693 61.5036Z" fill="white"/>
<path d="M118.081 63.0689C117.846 63.0167 117.637 62.9645 117.402 62.9123C117.167 62.8602 116.958 62.7558 116.775 62.5732C116.593 62.4167 116.436 62.1819 116.384 61.9471C116.279 61.6601 116.201 61.321 116.201 60.9818V57.4339H115.078V55.7643H116.201V54.0686H118.447V56.3121H120.144V57.4339H118.447V60.3036C118.447 60.5123 118.447 60.7731 118.499 60.9558C118.551 61.1123 118.656 61.2166 118.812 61.2688C119.021 61.321 119.23 61.3732 119.465 61.3732C119.674 61.3732 119.935 61.321 120.118 61.321V62.9906C119.726 63.0428 119.387 63.0428 118.969 63.0428C118.656 63.0689 118.368 63.0689 118.081 63.0689Z" fill="white"/>
<path d="M122.391 53.5208H124.636V55.2165H122.391V53.5208ZM122.391 56.3121H124.636V63.0428H122.391V56.3121Z" fill="white"/>
<path d="M126.883 52.9468H129.129V62.4949H126.883V52.9468ZM129.181 59.26L131.4 56.3121H133.725L131.4 59.26L133.96 63.0688H131.635L129.181 59.26Z" fill="white"/>
<path d="M86.5607 47.8911H48.5395C45.8498 47.8911 43.6562 45.6997 43.6562 43.0127V5.02902C43.6562 2.34199 45.8498 0.150635 48.5395 0.150635H86.5607C89.2504 0.150635 91.4439 2.34199 91.4439 5.02902V43.0127C91.47 45.6997 89.2765 47.8911 86.5607 47.8911ZM44.7791 4.63772V42.8562C44.7791 44.7084 46.2937 46.2215 48.1478 46.2215H86.404C88.2581 46.2215 89.7727 44.7084 89.7727 42.8562V4.63772C89.7727 2.7855 88.2581 1.27239 86.404 1.27239H48.1478C46.2937 1.2463 44.7791 2.7855 44.7791 4.63772Z" fill="white"/>
<path d="M74.3405 12.4901H82.4617V9.67267H73.061C73.061 9.67267 70.084 9.6205 70.084 12.6206V20.786C70.084 23.7861 73.061 23.7339 73.061 23.7339H82.4617V20.9165H74.3405C73.8443 20.9165 73.4788 20.473 73.4788 19.9773V18.099H82.4879V15.2815H73.4788V13.4293C73.4527 12.9336 73.8443 12.4901 74.3405 12.4901Z" fill="white"/>
<path d="M77.2909 28.5601C77.9698 28.5601 78.0742 28.9514 78.0742 28.9514L81.7824 40.0126H85.0466L80.3984 27.5427C80.3984 27.5427 79.9283 26.2122 77.2909 26.2122C74.6534 26.2122 74.1834 27.5427 74.1834 27.5427L69.5352 40.0126H73.0082L74.1312 36.6472H78.2309L77.0558 33.2819H75.0712L76.5335 29.0036C76.5074 28.9514 76.6119 28.5601 77.2909 28.5601Z" fill="white"/>
<path d="M63.3461 9.67266V13.1945L61.1003 11.7075V10.3249L58.4629 9.9857L49.2709 4.11597V4.16815V4.89861L58.1495 10.6379L61.0743 14.5772V12.6467L63.32 14.1337V19.299L61.0743 17.812V16.5076L58.4368 16.1685L49.2709 10.2205V10.2988V11.0292L58.1757 16.7424L61.0743 20.6556V18.7512L63.32 20.2382V25.4035L61.0743 23.9166V22.6122L58.4368 22.273L49.2448 16.299V16.3511V17.0816L58.1495 22.7948L61.0482 26.7079V24.8035L63.2939 26.2905V31.4559L61.0482 29.9689V28.6645L58.4107 28.3254L49.2188 22.4035V22.4557V23.1861L58.1235 28.8993L61.022 32.8124V30.8298L63.2678 32.3168V35.7082L49.2188 43.091V43.8736L63.2678 36.3865V40.1692H66.088V9.82918H63.3461V9.67266Z" fill="white"/>
</svg>
