<svg xmlns="http://www.w3.org/2000/svg" version="1.0" width="924.000000pt" height="208.000000pt" viewBox="0 0 924.000000 208.000000" preserveAspectRatio="xMidYMid meet">

<g transform="translate(0.000000,208.000000) scale(0.100000,-0.100000)" fill="#ffffff" stroke="none">
<path d="M1610 1450 l0 -620 445 0 445 0 2 428 3 427 2113 3 2112 2 0 -430 0 -430 450 0 450 0 0 620 0 620 -3010 0 -3010 0 0 -620z" fill="#ffffff"/>
<path d="M2900 1020 l0 -190 190 0 190 0 0 190 0 190 -190 0 -190 0 0 -190z" fill="#ffffff"/>
<path d="M3670 1020 l0 -190 185 0 185 0 0 190 0 190 -185 0 -185 0 0 -190z" fill="#ffffff"/>
<path d="M4430 1020 l0 -190 190 0 190 0 0 190 0 190 -190 0 -190 0 0 -190z" fill="#ffffff"/>
<path d="M5200 1020 l0 -190 185 0 185 0 0 190 0 190 -185 0 -185 0 0 -190z" fill="#ffffff"/>
<path d="M5960 1020 l0 -190 190 0 190 0 0 190 0 190 -190 0 -190 0 0 -190z" fill="#ffffff"/>
<path d="M20 270 l0 -170 60 0 c53 0 60 2 60 20 0 17 -7 20 -40 20 l-40 0 0 55 0 55 40 0 c33 0 40 3 40 20 0 17 -7 20 -40 20 l-40 0 0 55 0 55 40 0 c33 0 40 3 40 20 0 18 -7 20 -60 20 l-60 0 0 -170z" fill="#ffffff"/>
<path d="M760 270 c0 -163 1 -170 20 -170 19 0 20 7 20 170 0 163 -1 170 -20 170 -19 0 -20 -7 -20 -170z" fill="#ffffff"/>
<path d="M1050 420 c0 -15 7 -20 25 -20 l25 0 0 -150 c0 -143 1 -150 20 -150 19 0 20 7 20 150 l0 150 30 0 c23 0 30 4 30 20 0 18 -7 20 -75 20 -68 0 -75 -2 -75 -20z" fill="#ffffff"/>
<path d="M1282 415 c-21 -47 -6 -49 26 -5 21 28 21 30 4 30 -10 0 -24 -11 -30 -25z" fill="#ffffff"/>
<path d="M1680 420 c0 -13 7 -20 20 -20 13 0 20 7 20 20 0 13 -7 20 -20 20 -13 0 -20 -7 -20 -20z" fill="#ffffff"/>
<path d="M2180 433 c-26 -9 -40 -35 -40 -74 0 -31 9 -48 50 -95 52 -60 64 -100 35 -124 -23 -19 -45 -4 -45 30 0 23 -4 30 -20 30 -16 0 -20 -7 -20 -34 0 -81 117 -87 133 -7 9 41 -5 74 -53 129 -43 48 -55 107 -25 118 20 8 45 -13 45 -37 0 -12 7 -19 20 -19 11 0 20 6 20 13 -1 56 -47 89 -100 70z" fill="#ffffff"/>
<path d="M2870 420 c0 -13 7 -20 20 -20 13 0 20 7 20 20 0 13 -7 20 -20 20 -13 0 -20 -7 -20 -20z" fill="#ffffff"/>
<path d="M3370 380 c0 -58 -1 -59 -23 -51 -47 18 -57 0 -57 -109 0 -109 10 -127 57 -109 14 5 23 5 23 -1 0 -6 9 -10 20 -10 19 0 20 7 20 170 0 163 -1 170 -20 170 -18 0 -20 -7 -20 -60z m-5 -165 c0 -73 -3 -90 -15 -90 -12 0 -16 18 -18 93 -3 85 -1 93 15 90 16 -3 18 -15 18 -93z" fill="#ffffff"/>
<path d="M3690 270 c0 -163 1 -170 20 -170 19 0 20 7 20 170 0 163 -1 170 -20 170 -19 0 -20 -7 -20 -170z" fill="#ffffff"/>
<path d="M4390 420 c0 -13 7 -20 20 -20 13 0 20 7 20 20 0 13 -7 20 -20 20 -13 0 -20 -7 -20 -20z" fill="#ffffff"/>
<path d="M4742 415 c-21 -47 -6 -49 26 -5 21 28 21 30 4 30 -10 0 -24 -11 -30 -25z" fill="#ffffff"/>
<path d="M5080 437 c0 -1 -16 -74 -35 -161 -19 -88 -35 -163 -35 -167 0 -5 9 -9 20 -9 14 0 20 7 20 23 0 53 10 67 50 67 40 0 50 -11 50 -56 0 -23 24 -43 37 -30 3 3 -9 80 -27 171 -31 158 -34 165 -56 165 -13 0 -24 -1 -24 -3z m50 -184 c0 -19 -5 -23 -30 -23 -16 0 -30 4 -30 8 0 14 22 126 27 142 6 15 32 -87 33 -127z" fill="#ffffff"/>
<path d="M6380 420 c0 -13 7 -20 20 -20 13 0 20 7 20 20 0 13 -7 20 -20 20 -13 0 -20 -7 -20 -20z" fill="#ffffff"/>
<path d="M6610 270 c0 -163 1 -170 20 -170 19 0 20 7 20 170 0 163 -1 170 -20 170 -19 0 -20 -7 -20 -170z" fill="#ffffff"/>
<path d="M7020 271 l0 -171 39 0 c45 0 92 15 103 33 4 7 8 69 8 138 0 154 -3 161 -89 167 l-61 4 0 -171z m105 -1 l0 -125 -32 -3 -33 -3 0 131 0 131 33 -3 32 -3 0 -125z" fill="#ffffff"/>
<path d="M7210 420 c0 -13 7 -20 20 -20 13 0 20 7 20 20 0 13 -7 20 -20 20 -13 0 -20 -7 -20 -20z" fill="#ffffff"/>
<path d="M7680 430 c0 -5 -21 -9 -47 -7 -40 2 -48 -1 -51 -18 -4 -17 -2 -18 12 -6 13 11 22 11 42 2 31 -14 30 -14 48 5 18 18 21 34 6 34 -5 0 -10 -4 -10 -10z" fill="#ffffff"/>
<path d="M7980 270 c0 -163 1 -170 20 -170 19 0 20 7 20 170 0 163 -1 170 -20 170 -19 0 -20 -7 -20 -170z" fill="#ffffff"/>
<path d="M8300 380 c0 -58 -1 -59 -23 -51 -47 18 -57 0 -57 -109 0 -109 10 -127 57 -109 14 5 23 5 23 -1 0 -6 9 -10 20 -10 19 0 20 7 20 170 0 163 -1 170 -20 170 -18 0 -20 -7 -20 -60z m-5 -165 c0 -73 -3 -90 -15 -90 -12 0 -16 18 -18 93 -3 85 -1 93 15 90 16 -3 18 -15 18 -93z" fill="#ffffff"/>
<path d="M8860 420 c0 -13 7 -20 20 -20 13 0 20 7 20 20 0 13 -7 20 -20 20 -13 0 -20 -7 -20 -20z" fill="#ffffff"/>
<path d="M9090 270 c0 -163 1 -170 20 -170 19 0 20 7 20 170 0 163 -1 170 -20 170 -19 0 -20 -7 -20 -170z" fill="#ffffff"/>
<path d="M8687 383 c-4 -3 -7 -15 -7 -25 0 -10 -4 -18 -10 -18 -5 0 -10 -7 -10 -15 0 -8 5 -15 10 -15 6 0 10 -40 10 -99 0 -98 0 -99 25 -105 14 -4 30 -4 35 -1 15 9 12 25 -5 25 -12 0 -15 17 -15 90 0 53 4 90 10 90 6 0 10 7 10 15 0 8 -4 15 -10 15 -5 0 -10 11 -10 25 0 24 -18 34 -33 18z" fill="#ffffff"/>
<path d="M193 330 c-27 -11 -39 -50 -24 -78 6 -12 24 -30 41 -42 37 -26 44 -80 10 -80 -15 0 -20 7 -20 25 0 18 -5 25 -20 25 -27 0 -26 -34 1 -61 15 -15 28 -19 47 -14 38 9 46 20 46 61 0 30 -7 43 -37 68 -38 32 -51 76 -22 76 8 0 15 -9 15 -20 0 -13 7 -20 20 -20 20 0 27 24 12 46 -11 17 -44 24 -69 14z" fill="#ffffff"/>
<path d="M324 315 c-24 -25 -26 -31 -22 -105 2 -44 9 -85 15 -91 19 -19 74 -15 89 6 21 28 18 55 -6 55 -15 0 -20 -7 -20 -25 0 -18 -5 -25 -20 -25 -20 0 -21 5 -18 87 3 74 6 88 21 91 12 3 17 -3 17 -22 0 -19 5 -26 20 -26 40 0 17 61 -27 75 -17 4 -30 -1 -49 -20z" fill="#ffffff"/>
<path d="M450 230 c0 -92 3 -110 17 -119 10 -5 26 -5 40 0 14 5 23 5 23 -1 0 -6 9 -10 20 -10 19 0 20 7 20 120 0 113 -1 120 -20 120 -18 0 -20 -8 -22 -102 -3 -89 -5 -103 -20 -106 -16 -3 -18 7 -18 102 0 99 -1 106 -20 106 -19 0 -20 -7 -20 -110z" fill="#ffffff"/>
<path d="M640 333 c-31 -11 -40 -37 -40 -119 0 -91 9 -107 62 -107 31 0 58 23 58 50 0 23 -38 15 -42 -9 -5 -39 -33 -28 -36 15 l-3 37 42 0 41 0 -4 55 c-3 31 -9 60 -14 64 -13 13 -47 20 -64 14z m38 -61 c3 -37 1 -42 -17 -42 -18 0 -21 6 -21 38 0 68 33 71 38 4z" fill="#ffffff"/>
<path d="M875 333 c-38 -10 -51 -63 -15 -63 13 0 20 7 20 20 0 13 7 20 20 20 15 0 20 -7 20 -28 0 -24 -5 -30 -37 -38 -41 -10 -57 -44 -47 -101 7 -37 27 -48 57 -32 16 9 22 9 25 0 2 -6 13 -11 24 -11 19 0 20 5 16 105 -1 57 -7 108 -13 113 -14 14 -47 20 -70 15z m45 -152 c0 -39 -20 -68 -40 -56 -11 7 -14 78 -3 88 3 4 15 7 25 7 14 0 18 -8 18 -39z" fill="#ffffff"/>
<path d="M1270 333 c-31 -11 -40 -37 -40 -119 0 -91 9 -107 62 -107 31 0 58 23 58 50 0 23 -38 15 -42 -9 -5 -39 -33 -28 -36 15 l-3 37 42 0 41 0 -4 55 c-3 31 -9 60 -14 64 -13 13 -47 20 -64 14z m38 -61 c3 -37 1 -42 -17 -42 -18 0 -21 6 -21 38 0 68 33 71 38 4z" fill="#ffffff"/>
<path d="M1413 329 c-12 -4 -27 -18 -33 -30 -15 -27 -9 -164 7 -180 19 -19 74 -15 89 6 21 28 18 55 -6 55 -15 0 -20 -7 -20 -25 0 -18 -5 -25 -20 -25 -20 0 -21 5 -18 87 3 74 6 88 21 91 12 3 17 -3 17 -22 0 -19 5 -26 20 -26 35 0 19 59 -20 72 -8 3 -25 2 -37 -3z" fill="#ffffff"/>
<path d="M1520 220 c0 -113 1 -120 20 -120 19 0 20 7 20 98 0 110 -6 142 -26 142 -11 0 -14 -24 -14 -120z" fill="#ffffff"/>
<path d="M1583 333 c-18 -6 -16 -23 2 -23 12 0 15 -18 15 -105 0 -98 1 -105 20 -105 19 0 20 7 20 93 0 50 -3 102 -6 114 -6 22 -29 33 -51 26z" fill="#ffffff"/>
<path d="M1680 220 c0 -113 1 -120 20 -120 19 0 20 7 20 120 0 113 -1 120 -20 120 -19 0 -20 -7 -20 -120z" fill="#ffffff"/>
<path d="M1764 315 c-24 -25 -26 -31 -22 -105 2 -44 9 -85 15 -91 19 -19 74 -15 89 6 21 28 18 55 -6 55 -15 0 -20 -7 -20 -25 0 -18 -5 -25 -20 -25 -20 0 -21 5 -18 87 3 74 6 88 21 91 12 3 17 -3 17 -22 0 -19 5 -26 20 -26 40 0 17 61 -27 75 -17 4 -30 -1 -49 -20z" fill="#ffffff"/>
<path d="M1925 333 c-38 -10 -51 -63 -15 -63 13 0 20 7 20 20 0 13 7 20 20 20 15 0 20 -7 20 -28 0 -24 -5 -30 -37 -38 -41 -10 -58 -44 -48 -101 6 -36 27 -48 58 -32 16 9 22 9 25 0 2 -6 13 -11 24 -11 19 0 20 5 16 105 -1 57 -7 108 -13 113 -14 14 -47 20 -70 15z m45 -152 c0 -39 -20 -68 -40 -56 -11 7 -14 78 -3 88 3 4 15 7 25 7 14 0 18 -8 18 -39z" fill="#ffffff"/>
<path d="M2310 230 c0 -92 3 -110 17 -119 10 -5 26 -5 40 0 14 5 23 5 23 -1 0 -6 9 -10 20 -10 19 0 20 7 20 120 0 113 -1 120 -20 120 -18 0 -20 -8 -22 -102 -3 -89 -5 -103 -20 -106 -16 -3 -18 7 -18 102 0 99 -1 106 -20 106 -19 0 -20 -7 -20 -110z" fill="#ffffff"/>
<path d="M2460 175 c0 -158 1 -165 20 -165 18 0 20 7 20 55 0 52 1 55 20 45 15 -8 24 -6 40 10 17 17 20 33 20 100 0 67 -3 83 -20 100 -17 17 -24 19 -42 9 l-22 -12 22 -8 c22 -8 23 -13 20 -91 -3 -70 -6 -83 -20 -86 -16 -3 -18 6 -18 80 0 96 -7 128 -26 128 -11 0 -14 -31 -14 -165z" fill="#ffffff"/>
<path d="M2660 333 c-31 -11 -40 -37 -40 -119 0 -91 9 -107 62 -107 31 0 58 23 58 50 0 23 -38 15 -42 -9 -5 -39 -33 -28 -36 15 l-3 37 42 0 41 0 -4 55 c-3 31 -9 60 -14 64 -13 13 -47 20 -64 14z m38 -61 c3 -37 1 -42 -17 -42 -18 0 -21 6 -21 38 0 68 33 71 38 4z" fill="#ffffff"/>
<path d="M2780 220 c0 -113 1 -120 20 -120 19 0 20 7 20 95 0 76 3 97 15 101 8 4 15 15 15 26 0 18 -2 19 -17 7 -13 -11 -17 -11 -20 -1 -3 6 -11 12 -19 12 -11 0 -14 -23 -14 -120z" fill="#ffffff"/>
<path d="M2870 220 c0 -113 1 -120 20 -120 19 0 20 7 20 120 0 113 -1 120 -20 120 -19 0 -20 -7 -20 -120z" fill="#ffffff"/>
<path d="M2980 327 c-24 -12 -25 -16 -25 -107 0 -93 1 -95 27 -108 39 -18 76 1 84 45 8 43 0 151 -12 162 -18 17 -49 20 -74 8z m45 -107 c0 -73 -2 -85 -17 -88 -16 -3 -18 6 -18 88 0 82 2 91 18 88 15 -3 17 -15 17 -88z" fill="#ffffff"/>
<path d="M3110 220 c0 -113 1 -120 20 -120 19 0 20 7 20 95 0 76 3 97 15 101 8 4 15 15 15 26 0 18 -2 19 -17 7 -13 -11 -17 -11 -20 -1 -3 6 -11 12 -19 12 -11 0 -14 -23 -14 -120z" fill="#ffffff"/>
<path d="M3480 333 c-31 -11 -40 -37 -40 -119 0 -91 9 -107 62 -107 31 0 58 23 58 50 0 23 -38 15 -42 -9 -5 -39 -33 -28 -36 15 l-3 37 42 0 41 0 -4 55 c-3 31 -9 60 -14 64 -13 13 -47 20 -64 14z m38 -61 c3 -37 1 -42 -17 -42 -18 0 -21 6 -21 38 0 68 33 71 38 4z" fill="#ffffff"/>
<path d="M3760 220 c0 -113 1 -120 20 -120 19 0 20 7 20 98 0 110 -6 142 -26 142 -11 0 -14 -24 -14 -120z" fill="#ffffff"/>
<path d="M3823 333 c-18 -6 -16 -23 2 -23 12 0 15 -18 15 -105 0 -98 1 -105 20 -105 19 0 20 7 20 93 0 50 -3 102 -6 114 -6 22 -29 33 -51 26z" fill="#ffffff"/>
<path d="M3937 329 c-14 -8 -17 -26 -17 -104 0 -84 2 -95 20 -105 14 -8 26 -8 41 0 19 11 20 9 17 -37 -2 -35 -7 -48 -18 -48 -8 0 -16 10 -18 22 -2 15 -10 23 -23 23 -20 0 -23 -8 -13 -35 8 -21 45 -35 72 -28 32 8 42 55 42 194 0 122 -1 129 -20 129 -11 0 -20 -4 -20 -10 0 -6 -9 -6 -23 -1 -14 5 -30 5 -40 0z m61 -103 c-3 -68 -6 -81 -20 -84 -16 -3 -18 6 -18 81 0 88 3 99 26 90 12 -4 14 -23 12 -87z" fill="#ffffff"/>
<path d="M4120 333 c-31 -11 -40 -37 -40 -119 0 -91 9 -107 62 -107 31 0 58 23 58 50 0 23 -38 15 -42 -9 -5 -39 -33 -28 -36 15 l-3 37 42 0 41 0 -4 55 c-3 31 -9 60 -14 64 -13 13 -47 20 -64 14z m38 -61 c3 -37 1 -42 -17 -42 -18 0 -21 6 -21 38 0 68 33 71 38 4z" fill="#ffffff"/>
<path d="M4230 220 c0 -113 1 -120 20 -120 19 0 20 7 20 98 0 110 -6 142 -26 142 -11 0 -14 -24 -14 -120z" fill="#ffffff"/>
<path d="M4293 333 c-18 -6 -16 -23 2 -23 12 0 15 -18 15 -105 0 -98 1 -105 20 -105 19 0 20 7 20 93 0 50 -3 102 -6 114 -6 22 -29 33 -51 26z" fill="#ffffff"/>
<path d="M4390 220 c0 -113 1 -120 20 -120 19 0 20 7 20 120 0 113 -1 120 -20 120 -19 0 -20 -7 -20 -120z" fill="#ffffff"/>
<path d="M4510 333 c-31 -11 -40 -37 -40 -119 0 -91 9 -107 62 -107 31 0 58 23 58 50 0 23 -38 15 -42 -9 -5 -39 -33 -28 -36 15 l-3 37 42 0 41 0 -4 55 c-3 31 -9 60 -14 64 -13 13 -47 20 -64 14z m38 -61 c3 -37 1 -42 -17 -42 -18 0 -21 6 -21 38 0 68 33 71 38 4z" fill="#ffffff"/>
<path d="M4620 220 c0 -113 1 -120 20 -120 19 0 20 7 20 95 0 76 3 97 15 101 8 4 15 15 15 26 0 18 -2 19 -17 7 -13 -11 -17 -11 -20 -1 -3 6 -11 12 -19 12 -11 0 -14 -23 -14 -120z" fill="#ffffff"/>
<path d="M4720 220 c0 -113 1 -120 20 -120 19 0 20 7 20 120 0 113 -1 120 -20 120 -19 0 -20 -7 -20 -120z" fill="#ffffff"/>
<path d="M4835 333 c-38 -10 -51 -63 -15 -63 13 0 20 7 20 20 0 13 7 20 20 20 15 0 20 -7 20 -28 0 -24 -5 -30 -37 -38 -41 -10 -57 -44 -47 -101 7 -37 27 -48 57 -32 16 9 22 9 25 0 2 -6 13 -11 24 -11 19 0 20 5 16 105 -1 57 -7 108 -13 113 -14 14 -47 20 -70 15z m45 -152 c0 -39 -20 -68 -40 -56 -11 7 -14 78 -3 88 3 4 15 7 25 7 14 0 18 -8 18 -39z" fill="#ffffff"/>
<path d="M5270 333 c-31 -11 -40 -37 -40 -119 0 -91 9 -107 62 -107 31 0 58 23 58 50 0 23 -38 15 -42 -9 -5 -39 -33 -28 -36 15 l-3 37 42 0 41 0 -4 55 c-3 31 -9 60 -14 64 -13 13 -47 20 -64 14z m38 -61 c3 -37 1 -42 -17 -42 -18 0 -21 6 -21 38 0 68 33 71 38 4z" fill="#ffffff"/>
<path d="M5380 220 c0 -113 1 -120 20 -120 19 0 20 7 20 95 0 76 3 97 15 101 8 4 15 15 15 26 0 18 -2 19 -17 7 -13 -11 -17 -11 -20 -1 -3 6 -11 12 -19 12 -11 0 -14 -23 -14 -120z" fill="#ffffff"/>
<path d="M5510 327 c-24 -12 -25 -16 -25 -107 0 -93 1 -95 27 -108 39 -18 76 1 84 45 8 43 0 151 -12 162 -18 17 -49 20 -74 8z m45 -107 c0 -73 -2 -85 -17 -88 -16 -3 -18 6 -18 88 0 82 2 91 18 88 15 -3 17 -15 17 -88z" fill="#ffffff"/>
<path d="M5670 333 c-31 -11 -40 -37 -40 -119 0 -91 9 -107 62 -107 31 0 58 23 58 50 0 23 -38 15 -42 -9 -5 -39 -33 -28 -36 15 l-3 37 42 0 41 0 -4 55 c-3 31 -9 60 -14 64 -13 13 -47 20 -64 14z m38 -61 c3 -37 1 -42 -17 -42 -18 0 -21 6 -21 38 0 68 33 71 38 4z" fill="#ffffff"/>
<path d="M5813 330 c-27 -11 -39 -50 -24 -78 6 -12 24 -30 41 -42 37 -26 44 -80 10 -80 -15 0 -20 7 -20 25 0 18 -5 25 -20 25 -27 0 -26 -34 1 -61 15 -15 28 -19 47 -14 38 9 46 20 46 61 0 30 -7 43 -37 68 -38 32 -51 76 -22 76 8 0 15 -9 15 -20 0 -13 7 -20 20 -20 20 0 27 24 12 46 -11 17 -44 24 -69 14z" fill="#ffffff"/>
<path d="M5930 175 c0 -158 1 -165 20 -165 18 0 20 7 20 55 0 52 1 55 20 45 15 -8 24 -6 40 10 17 17 20 33 20 100 0 67 -3 83 -20 100 -17 17 -24 19 -42 9 l-22 -12 22 -8 c22 -8 23 -13 20 -91 -3 -70 -6 -83 -20 -86 -16 -3 -18 6 -18 80 0 96 -7 128 -26 128 -11 0 -14 -31 -14 -165z" fill="#ffffff"/>
<path d="M6115 333 c-38 -10 -51 -63 -15 -63 13 0 20 7 20 20 0 13 7 20 20 20 15 0 20 -7 20 -28 0 -24 -5 -30 -37 -38 -41 -10 -57 -44 -47 -101 7 -37 27 -48 57 -32 16 9 22 9 25 0 2 -6 13 -11 24 -11 19 0 20 5 16 105 -1 57 -7 108 -13 113 -14 14 -47 20 -70 15z m45 -152 c0 -39 -20 -68 -40 -56 -11 7 -14 78 -3 88 3 4 15 7 25 7 14 0 18 -8 18 -39z" fill="#ffffff"/>
<path d="M6273 330 c-12 -5 -27 -19 -33 -31 -15 -27 -9 -164 7 -180 19 -19 74 -15 89 6 21 28 18 55 -6 55 -15 0 -20 -7 -20 -25 0 -18 -5 -25 -20 -25 -20 0 -21 5 -18 87 3 74 6 88 21 91 12 3 17 -3 17 -22 0 -19 5 -26 20 -26 13 0 20 7 20 20 0 20 -33 61 -47 59 -5 0 -18 -4 -30 -9z" fill="#ffffff"/>
<path d="M6380 220 c0 -113 1 -120 20 -120 19 0 20 7 20 120 0 113 -1 120 -20 120 -19 0 -20 -7 -20 -120z" fill="#ffffff"/>
<path d="M6495 333 c-38 -10 -51 -63 -15 -63 13 0 20 7 20 20 0 13 7 20 20 20 15 0 20 -7 20 -28 0 -24 -5 -30 -37 -38 -41 -10 -57 -44 -47 -101 7 -37 27 -48 57 -32 16 9 22 9 25 0 2 -6 13 -11 24 -11 19 0 20 5 16 105 -1 57 -7 108 -13 113 -14 14 -47 20 -70 15z m45 -152 c0 -39 -20 -68 -40 -56 -11 7 -14 78 -3 88 3 4 15 7 25 7 14 0 18 -8 18 -39z" fill="#ffffff"/>
<path d="M6770 327 c0 -8 11 -62 24 -121 18 -79 22 -115 15 -139 -9 -33 3 -60 19 -42 8 10 72 278 72 303 0 6 -7 12 -15 12 -8 0 -15 -1 -15 -2 0 -13 -31 -172 -33 -175 -3 -2 -11 36 -18 84 -11 69 -18 88 -32 91 -10 2 -17 -3 -17 -11z" fill="#ffffff"/>
<path d="M7210 220 c0 -113 1 -120 20 -120 19 0 20 7 20 120 0 113 -1 120 -20 120 -19 0 -20 -7 -20 -120z" fill="#ffffff"/>
<path d="M7313 330 c-27 -11 -39 -50 -24 -78 6 -12 24 -30 41 -42 37 -26 44 -80 10 -80 -15 0 -20 7 -20 25 0 18 -5 25 -20 25 -27 0 -26 -34 1 -61 15 -15 28 -19 47 -14 63 15 66 80 7 130 -36 31 -48 75 -20 75 8 0 15 -9 15 -20 0 -13 7 -20 20 -20 20 0 27 24 12 46 -11 17 -44 24 -69 14z" fill="#ffffff"/>
<path d="M7470 333 c-31 -11 -40 -37 -40 -119 0 -91 9 -107 62 -107 31 0 58 23 58 50 0 23 -38 15 -42 -9 -5 -39 -33 -28 -36 15 l-3 37 42 0 41 0 -4 55 c-3 31 -9 60 -14 64 -13 13 -47 20 -64 14z m38 -61 c3 -37 1 -42 -17 -42 -18 0 -21 6 -21 38 0 68 33 71 38 4z" fill="#ffffff"/>
<path d="M7580 220 c0 -113 1 -120 20 -120 19 0 20 7 20 98 0 110 -6 142 -26 142 -11 0 -14 -24 -14 -120z" fill="#ffffff"/>
<path d="M7643 333 c-18 -6 -16 -23 2 -23 12 0 15 -18 15 -105 0 -98 1 -105 20 -105 19 0 20 7 20 93 0 50 -3 102 -6 114 -6 22 -29 33 -51 26z" fill="#ffffff"/>
<path d="M7770 327 c-24 -12 -25 -16 -25 -107 0 -93 1 -95 27 -108 39 -18 76 1 84 45 8 43 0 151 -12 162 -18 17 -49 20 -74 8z m45 -107 c0 -73 -2 -85 -17 -88 -16 -3 -18 6 -18 88 0 82 2 91 18 88 15 -3 17 -15 17 -88z" fill="#ffffff"/>
<path d="M8060 220 c0 -113 1 -120 20 -120 19 0 20 7 20 98 0 110 -6 142 -26 142 -11 0 -14 -24 -14 -120z" fill="#ffffff"/>
<path d="M8123 333 c-18 -6 -16 -23 2 -23 12 0 15 -18 15 -105 0 -98 1 -105 20 -105 19 0 20 7 20 93 0 50 -3 102 -6 114 -6 22 -29 33 -51 26z" fill="#ffffff"/>
<path d="M8370 230 c0 -92 3 -110 17 -119 10 -5 26 -5 40 0 14 5 23 5 23 -1 0 -6 9 -10 20 -10 19 0 20 7 20 120 0 113 -1 120 -20 120 -18 0 -20 -8 -22 -102 -3 -89 -5 -103 -20 -106 -16 -3 -18 7 -18 102 0 99 -1 106 -20 106 -19 0 -20 -7 -20 -110z" fill="#ffffff"/>
<path d="M8553 330 c-27 -11 -39 -50 -24 -78 6 -12 24 -30 41 -42 37 -26 44 -80 10 -80 -15 0 -20 7 -20 25 0 18 -5 25 -20 25 -29 0 -27 -45 4 -65 50 -33 105 11 90 71 -4 14 -22 36 -40 51 -36 27 -48 73 -19 73 8 0 15 -9 15 -20 0 -13 7 -20 20 -20 20 0 27 24 12 46 -11 17 -44 24 -69 14z" fill="#ffffff"/>
<path d="M8760 220 c0 -113 1 -120 20 -120 19 0 20 7 20 95 0 76 3 97 15 101 8 4 15 15 15 26 0 18 -2 19 -17 7 -13 -11 -17 -11 -20 -1 -3 6 -11 12 -19 12 -11 0 -14 -23 -14 -120z" fill="#ffffff"/>
<path d="M8860 220 c0 -113 1 -120 20 -120 19 0 20 7 20 120 0 113 -1 120 -20 120 -19 0 -20 -7 -20 -120z" fill="#ffffff"/>
<path d="M8975 333 c-38 -10 -51 -63 -15 -63 13 0 20 7 20 20 0 13 7 20 20 20 15 0 20 -7 20 -28 0 -24 -5 -30 -37 -38 -41 -10 -57 -44 -47 -101 7 -37 27 -48 57 -32 16 9 22 9 25 0 2 -6 13 -11 24 -11 19 0 20 5 16 105 -1 57 -7 108 -13 113 -14 14 -47 20 -70 15z m45 -152 c0 -39 -20 -68 -40 -56 -11 7 -14 78 -3 88 3 4 15 7 25 7 14 0 18 -8 18 -39z" fill="#ffffff"/>
</g>
</svg>