<svg width="192" height="53" viewBox="0 0 192 53" fill="none" xmlns="http://www.w3.org/2000/svg">
<path d="M161.538 0.243774C161.485 0.869879 161.407 1.49598 161.407 2.12209C161.407 9.87014 161.407 17.6443 161.407 25.3923V27.375H142.083C142.031 21.2444 142.083 15.0616 142.057 8.80054H49.3803V27.4011H30.0302V25.5749C30.0302 17.8269 30.0302 10.0527 30.0302 2.3047C30.0302 1.62642 29.9519 0.948143 29.9258 0.269863H161.538V0.243774Z" fill="white"/>
<path d="M58.2598 23.8531H65.8327C66.2244 25.0271 66.3027 29.9316 65.9632 32.0186H58.2598V23.8531Z" fill="white"/>
<path d="M82.8319 23.8793H75.0762V32.0447H82.8319V23.8793Z" fill="white"/>
<path d="M99.6236 23.8531H91.8418V31.9664H99.6236V23.8531Z" fill="white"/>
<path d="M108.449 23.8531H116.388V31.9925H108.423C108.371 29.3316 108.397 26.6967 108.449 23.8531Z" fill="white"/>
<path d="M125.057 31.9925V23.9053H132.995C133.204 26.514 133.073 29.2011 133.047 31.9925H125.057Z" fill="white"/>
<path d="M0 50.3323V41.4885H3.47309V42.4277H1.25345V45.2712H2.84637V46.2104H1.25345V49.367H3.47309V50.3062H0V50.3323Z" fill="white"/>
<path d="M5.53591 50.4364C5.01364 50.4364 4.59583 50.2799 4.28247 49.9668C3.9691 49.6538 3.7602 49.2625 3.62963 48.7668L4.56971 48.4538C4.80474 49.0799 5.1181 49.3929 5.5098 49.3929C5.71871 49.3929 5.87539 49.3407 5.97984 49.2364C6.0843 49.132 6.13652 48.9755 6.13652 48.7668C6.13652 48.4798 6.03207 48.219 5.82316 48.0364L4.56971 47.0972C4.43915 46.9928 4.30858 46.9146 4.20413 46.8363C4.09967 46.7581 4.02133 46.6537 3.91688 46.5233C3.81242 46.3928 3.73408 46.2624 3.68186 46.1059C3.62963 45.9493 3.60352 45.7928 3.60352 45.6102C3.60352 45.0624 3.78631 44.671 4.12579 44.3841C4.46526 44.0971 4.9353 43.9667 5.5098 43.9667C5.77093 43.9667 6.03207 44.0189 6.24098 44.0971C6.44988 44.1754 6.65879 44.3058 6.78936 44.4623C6.94604 44.6189 7.05049 44.8015 7.15495 44.9841C7.2594 45.1667 7.33774 45.4015 7.38997 45.6363L6.44988 45.9493C6.39766 45.8189 6.34543 45.7145 6.31932 45.6363C6.26709 45.558 6.21486 45.4537 6.13652 45.3493C6.05818 45.245 5.97984 45.1667 5.87539 45.1145C5.77093 45.0624 5.66648 45.0363 5.53591 45.0363C5.327 45.0363 5.17032 45.0884 5.06587 45.1928C4.96142 45.2972 4.90919 45.4537 4.90919 45.6624C4.90919 45.8711 5.01364 46.0276 5.22255 46.1841L6.476 47.1233C6.60657 47.2276 6.73713 47.332 6.84159 47.4363C6.94604 47.5407 7.05049 47.6711 7.12883 47.8016C7.23329 47.932 7.28552 48.0885 7.33774 48.2451C7.38997 48.4016 7.41608 48.5842 7.41608 48.7929C7.41608 49.3407 7.23329 49.7321 6.89381 50.019C6.55434 50.306 6.11041 50.4364 5.53591 50.4364Z" fill="white"/>
<path d="M9.793 50.4365C9.47964 50.4365 9.21851 50.3843 8.98348 50.28C8.74846 50.1756 8.56567 50.0452 8.4351 49.8887C8.30453 49.7321 8.20008 49.5234 8.12174 49.2626C8.0434 49.0017 7.99117 48.7408 7.93895 48.4799C7.91283 48.2191 7.88672 47.9321 7.88672 47.593C7.88672 47.3321 7.88672 47.0451 7.88672 46.7581C7.88672 46.419 7.91283 46.132 7.93895 45.8712C7.96506 45.6103 8.01729 45.3494 8.12174 45.1146C8.20008 44.8537 8.30453 44.645 8.4351 44.4885C8.56567 44.332 8.74846 44.2016 8.98348 44.0972C9.21851 43.9929 9.47964 43.9407 9.793 43.9407C10.4458 43.9407 10.942 44.1233 11.2292 44.4885C11.5165 44.8537 11.6732 45.3755 11.6993 46.0799V46.2364H10.4197V46.0538C10.4197 45.8973 10.3936 45.7668 10.3936 45.6364C10.3675 45.5059 10.3414 45.4016 10.3153 45.2711C10.2892 45.1407 10.2108 45.0624 10.1325 45.0103C10.0541 44.9581 9.94968 44.9059 9.81912 44.9059C9.68855 44.9059 9.58409 44.932 9.50575 45.0103C9.42741 45.0885 9.34907 45.1929 9.32296 45.3233C9.27073 45.4538 9.24462 45.6103 9.21851 45.7407C9.19239 45.8973 9.19239 46.0538 9.19239 46.2364C9.19239 46.6538 9.19239 47.2538 9.19239 48.0886C9.19239 48.2712 9.21851 48.4278 9.24462 48.5582C9.27073 48.6886 9.29685 48.8191 9.34907 48.9495C9.4013 49.08 9.45353 49.1843 9.53187 49.2365C9.61021 49.3147 9.71466 49.3408 9.84523 49.3408C9.94968 49.3408 10.0541 49.3147 10.1325 49.2887C10.2108 49.2365 10.263 49.1843 10.3153 49.1321C10.3675 49.0799 10.3936 48.9756 10.4197 48.8713C10.4458 48.7669 10.472 48.6625 10.472 48.5843C10.472 48.506 10.472 48.3756 10.472 48.2451V48.0886H11.7254V48.2451C11.7254 48.5843 11.6732 48.8712 11.5948 49.1321C11.5165 49.393 11.412 49.6017 11.2554 49.8104C11.0987 50.0191 10.9159 50.1495 10.6809 50.2539C10.3936 50.3843 10.1064 50.4365 9.793 50.4365Z" fill="white"/>
<path d="M13.3698 50.4365C13.0825 50.4365 12.8736 50.3322 12.6908 50.1496C12.508 49.967 12.4297 49.7061 12.4297 49.4191V44.045H13.6831V49.0278C13.6831 49.1582 13.7354 49.2626 13.8137 49.3408C13.892 49.4191 13.9965 49.4713 14.1271 49.4713C14.2054 49.4713 14.2576 49.4713 14.336 49.4452C14.4143 49.4191 14.4665 49.393 14.5188 49.3669C14.571 49.3148 14.6232 49.2887 14.6754 49.2626C14.7016 49.2365 14.7538 49.1843 14.8321 49.1321C14.9105 49.08 14.9366 49.0278 14.9627 49.0278V44.045H16.2161V50.3583H14.9627V49.68C14.8321 49.7843 14.7538 49.8626 14.7016 49.9148C14.6493 49.967 14.5449 50.0191 14.4404 50.1235C14.3099 50.2017 14.2054 50.28 14.1271 50.3061C14.0487 50.3322 13.9182 50.3844 13.7876 50.4104C13.657 50.4365 13.5003 50.4365 13.3698 50.4365Z" fill="white"/>
<path d="M19.1153 50.4364C18.8019 50.4364 18.5408 50.3842 18.3058 50.2799C18.0707 50.1755 17.8879 50.0451 17.7574 49.8625C17.6268 49.6799 17.5223 49.4712 17.444 49.2103C17.3657 48.9494 17.3134 48.6886 17.2612 48.4277C17.2351 48.1668 17.209 47.8537 17.209 47.5146C17.209 47.2276 17.209 46.9668 17.209 46.6798C17.209 46.3407 17.2351 46.0537 17.2873 45.7928C17.3134 45.5319 17.3918 45.2971 17.4701 45.0624C17.5485 44.8276 17.679 44.6189 17.8096 44.4623C17.9402 44.3058 18.123 44.1754 18.358 44.0971C18.593 43.9928 18.828 43.9667 19.1414 43.9667C19.4025 43.9667 19.6375 43.9928 19.8464 44.071C20.0554 44.1493 20.212 44.2536 20.3687 44.3841C20.4993 44.5145 20.6298 44.6971 20.7082 44.8537C20.7865 45.0363 20.8649 45.245 20.9171 45.4798C20.9693 45.7406 20.9954 45.9754 21.0216 46.2102C21.0477 46.445 21.0477 46.732 21.0477 47.045V47.2015H18.4885V47.5146C18.4885 47.5668 18.4885 47.619 18.4885 47.7233C18.4885 47.8537 18.4885 47.9581 18.4885 48.0885C18.4885 48.219 18.4885 48.3494 18.5147 48.4798C18.5408 48.6103 18.5408 48.7146 18.5669 48.8451C18.593 48.9755 18.6452 49.0538 18.6713 49.132C18.7236 49.2103 18.7758 49.2886 18.8541 49.3407C18.9325 49.3929 19.0108 49.419 19.1153 49.419C19.2458 49.419 19.3503 49.3929 19.4286 49.3407C19.507 49.2886 19.5853 49.2103 19.6114 49.106C19.6637 49.0016 19.6898 48.8973 19.6898 48.7929C19.7159 48.6885 19.7159 48.5581 19.7159 48.4016V48.1407H20.9693V48.4016C20.9432 49.0799 20.7865 49.5755 20.4732 49.9408C20.212 50.2538 19.742 50.4364 19.1153 50.4364ZM18.4885 46.5494H19.742V46.158C19.742 46.0015 19.742 45.845 19.7159 45.7146C19.6898 45.5841 19.6637 45.4537 19.6375 45.3493C19.5853 45.2189 19.5331 45.1406 19.4547 45.0624C19.3764 44.9841 19.2719 44.958 19.1414 44.958C19.0108 44.958 18.9064 44.9841 18.828 45.0624C18.7497 45.1406 18.6713 45.2189 18.6452 45.3493C18.593 45.4798 18.5669 45.6102 18.5669 45.7406C18.5408 45.8711 18.5408 46.0276 18.5408 46.1841V46.5494H18.4885Z" fill="white"/>
<path d="M21.9355 50.3321V41.4884H23.189V50.3321H21.9355Z" fill="white"/>
<path d="M25.4339 50.4365C25.0944 50.4365 24.781 50.2799 24.546 49.993C24.311 49.6799 24.1804 49.3408 24.1804 48.9755C24.1804 48.6625 24.2326 48.4016 24.3371 48.1407C24.4415 47.8799 24.546 47.6973 24.6766 47.5407C24.781 47.3842 24.9899 47.2277 25.2511 47.0711C25.5122 46.9146 25.7211 46.8103 25.8517 46.732C25.9822 46.6798 26.2173 46.5755 26.5829 46.445C26.6351 46.419 26.6873 46.3929 26.7134 46.3929V45.9494C26.7134 45.6363 26.6612 45.3754 26.5829 45.2189C26.5045 45.0363 26.3217 44.958 26.0867 44.958C25.8778 44.958 25.7211 45.0363 25.6167 45.1928C25.5122 45.3494 25.46 45.5581 25.46 45.8189C25.46 45.845 25.46 45.8972 25.46 45.9755H24.1543C24.1543 45.3754 24.3371 44.8798 24.6505 44.5406C24.9899 44.1754 25.4339 43.9928 26.0345 43.9928C26.6351 43.9928 27.079 44.1754 27.4185 44.5406C27.758 44.9059 27.9146 45.3754 27.9146 45.9755V48.819C27.9146 49.4712 27.9669 49.993 28.0713 50.3843H26.8179L26.6612 49.4451C26.5829 49.5756 26.5306 49.6799 26.5045 49.7582C26.4523 49.8364 26.4001 49.9147 26.3217 50.0191C26.2434 50.1234 26.165 50.2017 26.0867 50.2538C26.0084 50.306 25.9039 50.3582 25.7994 50.4104C25.695 50.4104 25.5644 50.4365 25.4339 50.4365ZM26.0606 49.393C26.1389 49.393 26.2434 49.3669 26.3217 49.3147C26.4001 49.2625 26.4784 49.2103 26.5045 49.1582C26.5567 49.106 26.609 49.0538 26.6612 48.9495C26.6612 48.9234 26.6873 48.9234 26.6873 48.9234V47.1755C26.6351 47.2016 26.5567 47.2798 26.4262 47.332C26.2956 47.4103 26.2173 47.4625 26.1389 47.5146C26.0606 47.5668 25.9822 47.619 25.8778 47.7233C25.7733 47.8016 25.695 47.8799 25.6428 47.9581C25.5905 48.0364 25.5383 48.1407 25.4861 48.2451C25.4339 48.3494 25.4339 48.4799 25.4339 48.5842C25.4339 49.1321 25.6428 49.393 26.0606 49.393Z" fill="white"/>
<path d="M32.0929 50.3321V42.6102H30.5V41.4884H34.9132V42.6102H33.3464V50.3321H32.0929Z" fill="white"/>
<path d="M36.8457 50.4364C36.5324 50.4364 36.2712 50.3843 36.0362 50.2799C35.8012 50.1756 35.6184 50.0451 35.4878 49.8625C35.3573 49.6799 35.2528 49.4712 35.1745 49.2103C35.0961 48.9494 35.0439 48.6886 34.9917 48.4277C34.9656 48.1668 34.9395 47.8538 34.9395 47.5146C34.9395 47.2276 34.9395 46.9668 34.9395 46.6798C34.9395 46.3407 34.9656 46.0537 35.0178 45.7928C35.0439 45.5319 35.1222 45.2972 35.2006 45.0624C35.2789 44.8276 35.4095 44.6189 35.5401 44.4624C35.6706 44.3058 35.8534 44.1754 36.0884 44.0971C36.3235 43.9928 36.5585 43.9667 36.8718 43.9667C37.133 43.9667 37.368 43.9928 37.5769 44.071C37.7858 44.1493 37.9425 44.2536 38.0992 44.3841C38.2559 44.5145 38.3603 44.6971 38.4387 44.8537C38.517 45.0363 38.5953 45.245 38.6476 45.4798C38.6998 45.7406 38.7259 45.9754 38.752 46.2102C38.7781 46.445 38.7781 46.732 38.7781 47.045V47.2016H36.2451V47.5146C36.2451 47.5668 36.2451 47.619 36.2451 47.7233C36.2451 47.8538 36.2451 47.9581 36.2451 48.0885C36.2451 48.219 36.2451 48.3494 36.2712 48.4799C36.2974 48.6103 36.2974 48.7146 36.3235 48.8451C36.3496 48.9755 36.4018 49.0538 36.4279 49.132C36.4801 49.2103 36.5324 49.2886 36.6107 49.3407C36.6891 49.3929 36.7674 49.419 36.8718 49.419C37.0024 49.419 37.1069 49.3929 37.1852 49.3407C37.2636 49.2886 37.3419 49.2103 37.368 49.106C37.4202 49.0016 37.4463 48.8973 37.4463 48.7929C37.4725 48.6886 37.4725 48.5581 37.4725 48.4016V48.1407H38.7259V48.4016C38.6998 49.0799 38.5431 49.5755 38.2298 49.9408C37.9425 50.2538 37.4725 50.4364 36.8457 50.4364ZM36.219 46.5494H37.4725V46.1581C37.4725 46.0015 37.4725 45.845 37.4463 45.7146C37.4202 45.5841 37.3941 45.4537 37.368 45.3493C37.3158 45.2189 37.2636 45.1406 37.1852 45.0624C37.1069 44.9841 37.0024 44.958 36.8718 44.958C36.7413 44.958 36.6368 44.9841 36.5585 45.0624C36.4801 45.1406 36.4018 45.2189 36.3757 45.3493C36.3235 45.4798 36.2974 45.6102 36.2974 45.7406C36.2712 45.8711 36.2712 46.0276 36.2712 46.1841V46.5494H36.219ZM36.5324 43.4449L37.1591 41.5405H38.4125L37.1591 43.4449H36.5324Z" fill="white"/>
<path d="M41.1289 50.4364C40.8156 50.4364 40.5544 50.3842 40.3194 50.2799C40.0844 50.1755 39.9016 50.0451 39.771 49.8886C39.6405 49.7321 39.536 49.5234 39.4577 49.2625C39.3793 49.0016 39.3271 48.7407 39.2749 48.5059C39.2227 48.2711 39.2227 47.9581 39.2227 47.619C39.2227 47.3581 39.2227 47.0711 39.2227 46.7841C39.2227 46.445 39.2488 46.158 39.2749 45.8972C39.301 45.6363 39.3532 45.3754 39.4577 45.1406C39.536 44.8797 39.6405 44.671 39.771 44.5145C39.9016 44.358 40.0844 44.2276 40.3194 44.1232C40.5544 44.0188 40.8156 43.9667 41.1289 43.9667C41.7818 43.9667 42.2779 44.1493 42.5652 44.5145C42.8524 44.8797 43.0091 45.4015 43.0352 46.1059V46.2624H41.7818V46.0798C41.7818 45.9233 41.7557 45.7928 41.7557 45.6624C41.7295 45.5319 41.7034 45.4276 41.6773 45.2971C41.6512 45.1667 41.5729 45.0884 41.4945 45.0363C41.4162 44.9841 41.3117 44.9319 41.1812 44.9319C41.0506 44.9319 40.9461 44.958 40.8678 45.0363C40.7895 45.1145 40.7111 45.2189 40.685 45.3493C40.6328 45.4798 40.6067 45.6363 40.5806 45.7667C40.5544 45.9233 40.5544 46.0798 40.5544 46.2624C40.5544 46.6798 40.5544 47.2798 40.5544 48.1146C40.5544 48.2972 40.5806 48.4538 40.6067 48.5842C40.6328 48.7146 40.6589 48.8451 40.7111 48.9755C40.7634 49.106 40.8156 49.2103 40.8939 49.2625C40.9723 49.3407 41.0767 49.3668 41.2073 49.3668C41.3117 49.3668 41.4162 49.3407 41.4945 49.3147C41.5729 49.2625 41.6251 49.2103 41.6773 49.1581C41.7295 49.106 41.7557 49.0016 41.7818 48.8972C41.8079 48.7929 41.834 48.6885 41.834 48.6103C41.834 48.532 41.834 48.4016 41.834 48.2711V48.1146H43.0874V48.2711C43.0874 48.6103 43.0352 48.8972 42.9569 49.1581C42.8785 49.419 42.7741 49.6277 42.6174 49.8364C42.4607 50.0451 42.2779 50.1755 42.0429 50.2799C41.7295 50.3842 41.4423 50.4364 41.1289 50.4364Z" fill="white"/>
<path d="M43.791 50.3321V44.0189H45.0445V44.6972C45.2273 44.5146 45.3839 44.3841 45.5145 44.3059C45.6451 44.2276 45.8018 44.1233 46.0107 44.045C46.2196 43.9667 46.4546 43.9146 46.6896 43.9146C46.9507 43.9146 47.1858 44.0189 47.3424 44.2015C47.4991 44.4102 47.6036 44.645 47.6036 44.932V50.306H46.3501V45.6103C46.3501 45.4016 46.324 45.2189 46.2457 45.1407C46.1935 45.0363 46.0629 44.9841 45.854 44.9841C45.7495 44.9841 45.6451 45.0102 45.5406 45.0624C45.4362 45.1146 45.3578 45.1407 45.3056 45.1929C45.2534 45.2189 45.175 45.2972 45.0706 45.3755V50.3582H43.791V50.3321Z" fill="white"/>
<path d="M48.7539 43.0797V41.8275H50.0074V43.0797H48.7539ZM48.7539 50.3321V44.0189H50.0074V50.3321H48.7539Z" fill="white"/>
<path d="M52.8008 50.4364C52.4875 50.4364 52.2263 50.3842 51.9913 50.2799C51.7563 50.1755 51.5735 50.0451 51.4429 49.8886C51.3123 49.7321 51.2079 49.5234 51.1296 49.2625C51.0512 49.0016 50.999 48.7407 50.9468 48.5059C50.8945 48.2711 50.8945 47.9581 50.8945 47.619C50.8945 47.3581 50.8945 47.0711 50.8945 46.7841C50.8945 46.445 50.9206 46.158 50.9468 45.8972C50.9729 45.6363 51.0251 45.3754 51.1296 45.1406C51.2079 44.8797 51.3123 44.671 51.4429 44.5145C51.5735 44.358 51.7563 44.2276 51.9913 44.1232C52.2263 44.0188 52.4875 43.9667 52.8008 43.9667C53.4537 43.9667 53.9498 44.1493 54.2371 44.5145C54.5243 44.8797 54.681 45.4015 54.7071 46.1059V46.2624H53.4537V46.0798C53.4537 45.9233 53.4275 45.7928 53.4275 45.6624C53.4014 45.5319 53.3753 45.4276 53.3492 45.2971C53.3231 45.1667 53.2447 45.0884 53.1664 45.0363C53.0881 44.9841 52.9836 44.9319 52.853 44.9319C52.7225 44.9319 52.618 44.958 52.5397 45.0363C52.4613 45.1145 52.383 45.2189 52.3569 45.3493C52.3047 45.4798 52.2785 45.6363 52.2524 45.7667C52.2263 45.9233 52.2263 46.0798 52.2263 46.2624C52.2263 46.6798 52.2263 47.2798 52.2263 48.1146C52.2263 48.2972 52.2524 48.4538 52.2785 48.5842C52.3047 48.7146 52.3308 48.8451 52.383 48.9755C52.4352 49.106 52.4875 49.2103 52.5658 49.2625C52.6441 49.3407 52.7486 49.3668 52.8792 49.3668C52.9836 49.3668 53.0881 49.3407 53.1664 49.3147C53.2447 49.2625 53.297 49.2103 53.3492 49.1581C53.4014 49.106 53.4275 49.0016 53.4537 48.8972C53.4798 48.7929 53.5059 48.6885 53.5059 48.6103C53.5059 48.532 53.5059 48.4016 53.5059 48.2711V48.1146H54.7593V48.2711C54.7593 48.6103 54.7071 48.8972 54.6288 49.1581C54.5504 49.419 54.446 49.6277 54.2893 49.8364C54.1326 50.019 53.9498 50.1755 53.7148 50.2799C53.4275 50.3842 53.1403 50.4364 52.8008 50.4364Z" fill="white"/>
<path d="M56.5874 50.4365C56.248 50.4365 55.9346 50.2799 55.6996 49.993C55.4646 49.6799 55.334 49.3408 55.334 48.9755C55.334 48.6625 55.3862 48.4016 55.4907 48.1407C55.5951 47.8799 55.6996 47.6973 55.8301 47.5407C55.9346 47.3842 56.1435 47.2277 56.4046 47.0711C56.6658 46.9146 56.8747 46.8103 57.0052 46.732C57.1358 46.6798 57.3708 46.5755 57.7364 46.445C57.7887 46.419 57.8409 46.3929 57.867 46.3929V45.9494C57.867 45.6363 57.8148 45.3754 57.7364 45.2189C57.6581 45.0363 57.4753 44.958 57.2403 44.958C57.0314 44.958 56.8747 45.0363 56.7702 45.1928C56.6658 45.3494 56.6135 45.5581 56.6135 45.8189C56.6135 45.845 56.6135 45.8972 56.6135 45.9755H55.3601C55.3601 45.3754 55.5429 44.8798 55.8563 44.5406C56.1957 44.1754 56.6397 43.9928 57.2403 43.9928C57.8409 43.9928 58.2848 44.1754 58.6243 44.5406C58.9638 44.9059 59.1204 45.3754 59.1204 45.9755V48.819C59.1204 49.4712 59.1727 49.993 59.2771 50.3843H58.0237L57.867 49.4451C57.7886 49.5756 57.7364 49.6799 57.7103 49.7582C57.6581 49.8364 57.6059 49.9147 57.5275 50.0191C57.4492 50.1234 57.3708 50.2017 57.2925 50.2538C57.2142 50.306 57.1097 50.3582 57.0052 50.4104C56.8486 50.4104 56.718 50.4365 56.5874 50.4365ZM57.2142 49.393C57.2925 49.393 57.3969 49.3669 57.4753 49.3147C57.5536 49.2625 57.632 49.2103 57.6581 49.1582C57.7103 49.106 57.7625 49.0538 57.8148 48.9495C57.8148 48.9234 57.8409 48.9234 57.8409 48.9234V47.1755C57.7886 47.2016 57.7103 47.2798 57.5797 47.332C57.4492 47.4103 57.3708 47.4625 57.2925 47.5146C57.2142 47.5668 57.1358 47.619 57.0314 47.7233C56.9269 47.8016 56.8486 47.8799 56.7963 47.9581C56.7441 48.0364 56.6919 48.1407 56.6397 48.2451C56.5874 48.3494 56.5874 48.4799 56.5874 48.5842C56.5874 49.1321 56.7963 49.393 57.2142 49.393Z" fill="white"/>
<path d="M64.604 50.4364C63.8206 50.4364 63.1939 50.2017 62.7761 49.7321C62.3583 49.2625 62.1233 48.6364 62.071 47.8277L63.3245 47.5146C63.3767 48.7668 63.8206 49.419 64.5779 49.419C65.2047 49.419 65.518 49.106 65.518 48.4799C65.518 48.2973 65.4919 48.1146 65.4397 47.9581C65.3874 47.8016 65.3091 47.6451 65.2046 47.5146C65.1002 47.3842 64.9957 47.2798 64.9174 47.2016C64.8391 47.1233 64.7085 47.019 64.5779 46.9146L63.0111 45.6624C62.7239 45.4276 62.4889 45.1406 62.3061 44.8015C62.1233 44.4624 62.0449 44.045 62.0449 43.6015C62.0449 42.9493 62.2538 42.4275 62.6455 42.0362C63.0372 41.6449 63.5856 41.4623 64.2646 41.4623C64.9696 41.4623 65.5441 41.6449 65.9619 41.984C66.3798 42.3232 66.6409 42.8188 66.7453 43.471C66.7453 43.5493 66.7715 43.6276 66.7715 43.758L65.518 44.071C65.518 44.0189 65.518 43.9406 65.4919 43.8102C65.4397 43.4189 65.3091 43.0797 65.1263 42.8449C64.9174 42.6101 64.6563 42.4797 64.2646 42.4797C63.9512 42.4797 63.7162 42.558 63.5595 42.7406C63.4028 42.8971 63.3245 43.1319 63.3245 43.4449C63.3245 43.9406 63.5334 44.358 63.9512 44.6972L65.5441 45.9494C66.3798 46.6276 66.7976 47.4364 66.7976 48.4016C66.7976 49.0538 66.5887 49.5495 66.197 49.9147C65.8314 50.2538 65.283 50.4364 64.604 50.4364Z" fill="white"/>
<path d="M68.6002 50.4364C68.313 50.4364 68.1041 50.3321 67.9213 50.1494C67.7385 49.9668 67.6602 49.706 67.6602 49.419V44.0449H68.9136V49.0277C68.9136 49.1581 68.9658 49.2625 69.0442 49.3407C69.1225 49.419 69.227 49.4712 69.3575 49.4712C69.4359 49.4712 69.4881 49.4712 69.5664 49.4451C69.6448 49.419 69.697 49.3929 69.7492 49.3668C69.8015 49.3146 69.8537 49.2885 69.9059 49.2625C69.932 49.2364 69.9843 49.1842 70.0626 49.132C70.1409 49.0798 70.167 49.0277 70.1932 49.0277V44.0449H71.4466V50.3581H70.1932V49.6799C70.0626 49.7842 69.9843 49.8625 69.932 49.9147C69.8798 49.9668 69.7753 50.019 69.6709 50.1234C69.5403 50.2016 69.4359 50.2799 69.3575 50.306C69.2792 50.3321 69.1486 50.3842 69.0181 50.4103C68.8875 50.4364 68.7308 50.4364 68.6002 50.4364Z" fill="white"/>
<path d="M72.5684 52.2365V44.045H73.8218V44.6711C73.9263 44.5667 74.0046 44.4885 74.0307 44.4363C74.0829 44.4102 74.1352 44.332 74.2396 44.2537C74.3441 44.1754 74.4224 44.1233 74.5008 44.0711C74.5791 44.045 74.6574 43.9928 74.7619 43.9667C74.8663 43.9406 74.9969 43.9146 75.1014 43.9146C75.3103 43.9146 75.4931 43.9406 75.6759 44.0189C75.8325 44.0972 75.9892 44.2015 76.0937 44.3059C76.1981 44.4102 76.3026 44.5667 76.3809 44.7754C76.4593 44.9841 76.5115 45.1668 76.5637 45.3233C76.5898 45.4798 76.6421 45.7146 76.6421 45.9755C76.6682 46.2624 76.6682 46.4711 76.6682 46.6538C76.6682 46.8364 76.6682 47.0712 76.6682 47.3581V47.4625C76.6682 47.7494 76.6421 48.0103 76.6159 48.2712C76.5898 48.5321 76.5376 48.793 76.4593 49.0538C76.3809 49.3147 76.3026 49.5495 76.172 49.7321C76.0676 49.9147 75.9109 50.0973 75.7281 50.2017C75.5453 50.3321 75.3103 50.3843 75.0753 50.3843C74.6574 50.3843 74.2135 50.1756 73.8218 49.7321V52.1844H72.5684V52.2365ZM74.7619 49.393C74.8925 49.393 74.9969 49.3408 75.1014 49.2364C75.1797 49.1321 75.258 49.0017 75.3103 48.819C75.3625 48.6364 75.3886 48.4538 75.3886 48.2712C75.4147 48.0886 75.4147 47.8799 75.4147 47.6451V46.8103C75.4147 46.6538 75.4147 46.5494 75.4147 46.4451C75.4147 46.3668 75.4147 46.2364 75.3886 46.0798C75.3886 45.9233 75.3625 45.819 75.3364 45.7146C75.3103 45.6103 75.2842 45.5059 75.258 45.4016C75.2319 45.2972 75.1797 45.1929 75.1275 45.1407C75.0753 45.0624 75.023 45.0102 74.9186 44.9841C74.8402 44.932 74.7358 44.9059 74.6574 44.9059C74.6052 44.9059 74.553 44.9059 74.5269 44.9059C74.4746 44.9059 74.4485 44.932 74.3963 44.932C74.3441 44.9581 74.318 44.9581 74.2657 44.9581C74.2396 44.9581 74.1874 44.9841 74.1352 45.0102C74.0829 45.0363 74.0568 45.0624 74.0307 45.0624C74.0046 45.0624 73.9785 45.0885 73.9263 45.1407C73.874 45.1668 73.8479 45.1929 73.8218 45.1929V49.106C74.1091 49.3147 74.4224 49.393 74.7619 49.393Z" fill="white"/>
<path d="M79.4883 50.4364C79.175 50.4364 78.9138 50.3842 78.6788 50.2799C78.4438 50.1755 78.261 50.0451 78.1304 49.8625C77.9998 49.6799 77.8954 49.4712 77.8171 49.2103C77.7387 48.9494 77.6865 48.6886 77.6343 48.4277C77.6081 48.1668 77.582 47.8537 77.582 47.5146C77.582 47.2276 77.582 46.9668 77.582 46.6798C77.582 46.3407 77.6081 46.0537 77.6604 45.7928C77.6865 45.5319 77.7648 45.2971 77.8432 45.0624C77.9215 44.8276 78.0521 44.6189 78.1826 44.4623C78.3132 44.3058 78.496 44.1754 78.731 44.0971C78.966 43.9928 79.2011 43.9667 79.5144 43.9667C79.7756 43.9667 80.0106 43.9928 80.2195 44.071C80.4284 44.1493 80.5851 44.2536 80.7418 44.3841C80.8984 44.5145 81.0029 44.6971 81.0812 44.8537C81.1596 45.0363 81.2379 45.245 81.2901 45.4798C81.3424 45.7406 81.3685 45.9754 81.3946 46.2102C81.4207 46.445 81.4207 46.732 81.4207 47.045V47.2015H78.8616V47.5146C78.8616 47.5668 78.8616 47.619 78.8616 47.7233C78.8616 47.8537 78.8616 47.9581 78.8616 48.0885C78.8616 48.219 78.8616 48.3494 78.8877 48.4798C78.8877 48.6103 78.9138 48.7146 78.9399 48.8451C78.966 48.9494 79.0183 49.0538 79.0444 49.132C79.0966 49.2103 79.1488 49.2886 79.2272 49.3407C79.3055 49.3929 79.3839 49.419 79.4883 49.419C79.6189 49.419 79.7233 49.3929 79.8017 49.3407C79.88 49.2886 79.9584 49.2103 79.9845 49.106C80.0367 49.0016 80.0628 48.8973 80.0628 48.7929C80.0889 48.6885 80.0889 48.5581 80.0889 48.4016V48.1407H81.3424V48.4016C81.3163 49.0799 81.1596 49.5755 80.8462 49.9408C80.5851 50.2538 80.115 50.4364 79.4883 50.4364ZM78.8616 46.5494H80.115V46.158C80.115 46.0015 80.115 45.845 80.0889 45.7146C80.0628 45.5841 80.0367 45.4537 80.0106 45.3493C79.9584 45.2189 79.9061 45.1406 79.8278 45.0624C79.7495 44.9841 79.645 44.958 79.5144 44.958C79.3839 44.958 79.2794 44.9841 79.2011 45.0624C79.1227 45.1406 79.0444 45.2189 79.0183 45.3493C78.966 45.4798 78.9399 45.6102 78.9399 45.7406C78.9138 45.8711 78.9138 46.0276 78.9138 46.1841V46.5494H78.8616Z" fill="white"/>
<path d="M82.3086 50.3321V44.0189H83.562V44.8537C83.6926 44.5928 83.8754 44.3841 84.1104 44.2015C84.3454 44.0189 84.6327 43.9146 84.9199 43.9146C84.9199 43.9146 84.9983 43.9146 85.1288 43.9406V45.3233C84.8938 45.2189 84.6588 45.1929 84.4238 45.1929C84.1627 45.1929 83.9537 45.2711 83.7971 45.4276C83.6404 45.5842 83.562 45.819 83.562 46.0798V50.3321H82.3086Z" fill="white"/>
<path d="M85.7832 43.0797V41.8275H87.0367V43.0797H85.7832ZM85.7832 50.3321V44.0189H87.0367V50.3321H85.7832Z" fill="white"/>
<path d="M91.4761 49.8364C91.1888 50.2277 90.6927 50.4364 90.0137 50.4364C89.3348 50.4364 88.8386 50.2277 88.5513 49.8364C88.2641 49.4451 88.1074 48.8711 88.1074 48.1407V46.2363C88.1074 45.5058 88.2641 44.9319 88.5513 44.5406C88.8386 44.1493 89.3348 43.9406 90.0137 43.9406C90.6927 43.9406 91.1888 44.1493 91.4761 44.5406C91.7633 44.9319 91.92 45.5058 91.92 46.2363V48.1407C91.92 48.8711 91.7894 49.4451 91.4761 49.8364ZM89.8048 49.3668C89.8831 49.3929 89.9615 49.3929 90.0398 49.3929C90.1182 49.3929 90.1965 49.3668 90.2748 49.3668C90.3532 49.3407 90.4054 49.3146 90.4315 49.2624C90.4837 49.2364 90.5099 49.1581 90.536 49.1059C90.5621 49.0277 90.5882 48.9755 90.6143 48.9233C90.6404 48.8711 90.6404 48.7929 90.6404 48.6885C90.6404 48.5842 90.6404 48.5059 90.6404 48.4276C90.6404 48.3755 90.6404 48.2711 90.6404 48.1668V46.2624C90.6404 46.1319 90.6404 46.0537 90.6404 45.9754C90.6404 45.9232 90.6404 45.845 90.6404 45.7145C90.6404 45.6102 90.6143 45.5319 90.6143 45.4797C90.5882 45.4276 90.5621 45.3493 90.536 45.2971C90.5099 45.2189 90.4576 45.1667 90.4315 45.1406C90.3793 45.1145 90.3271 45.0623 90.2748 45.0362C90.1965 45.0101 90.1182 44.9841 90.0398 44.9841C89.9615 44.9841 89.8831 45.0101 89.8048 45.0362C89.7265 45.0623 89.6742 45.0884 89.6481 45.1406C89.5959 45.1667 89.5698 45.2449 89.5437 45.2971C89.5175 45.3754 89.4914 45.4276 89.4653 45.4797C89.4392 45.5319 89.4392 45.6102 89.4392 45.7145C89.4392 45.8189 89.4392 45.8971 89.4392 45.9754C89.4392 46.0276 89.4392 46.1319 89.4392 46.2624V48.1668C89.4392 48.2972 89.4392 48.3755 89.4392 48.4276C89.4392 48.4798 89.4392 48.5842 89.4392 48.6885C89.4392 48.7929 89.4653 48.8711 89.4653 48.9233C89.4914 48.9755 89.5175 49.0537 89.5437 49.1059C89.5698 49.1842 89.622 49.2364 89.6481 49.2624C89.6742 49.2885 89.7265 49.3146 89.8048 49.3668Z" fill="white"/>
<path d="M92.9629 50.3321V44.0189H94.2163V44.8537C94.3469 44.5928 94.5297 44.3841 94.7647 44.2015C94.9997 44.0189 95.287 43.9146 95.5742 43.9146C95.5742 43.9146 95.6526 43.9146 95.7832 43.9406V45.3233C95.5481 45.2189 95.3131 45.1929 95.0781 45.1929C94.817 45.1929 94.608 45.2711 94.4514 45.4276C94.2947 45.5842 94.2163 45.7929 94.2163 46.0537V50.306H92.9629V50.3321Z" fill="white"/>
<path d="M99.9093 50.4364C99.6221 50.4364 99.3871 50.3581 99.1781 50.2016C98.9692 50.0451 98.8126 49.8364 98.682 49.5494C98.5775 49.2885 98.4731 49.0016 98.4209 48.7146C98.3686 48.4276 98.3425 48.1146 98.3164 47.7755C98.3164 47.6189 98.3164 47.2537 98.3164 46.6537C98.3164 46.445 98.3425 46.2363 98.3425 46.0537C98.3686 45.8711 98.3686 45.6884 98.4209 45.5058C98.447 45.3232 98.4992 45.1406 98.5514 45.0102C98.6037 44.8536 98.6559 44.7232 98.7342 44.5928C98.8126 44.4623 98.917 44.3319 99.0215 44.2536C99.1259 44.1754 99.2565 44.0971 99.4132 44.0449C99.5698 43.9927 99.7265 43.9666 99.9093 43.9666C100.04 43.9666 100.17 43.9927 100.301 44.0188C100.432 44.0449 100.536 44.1232 100.667 44.2014C100.771 44.2797 100.876 44.358 100.928 44.4101C101.006 44.4623 101.084 44.5667 101.189 44.671V41.5144H102.442V50.332H101.189V49.7581C101.006 49.9668 100.797 50.1233 100.614 50.2277C100.405 50.3581 100.17 50.4364 99.9093 50.4364ZM100.223 49.3929C100.536 49.3929 100.849 49.3146 101.163 49.1842V45.2189C100.876 45.0623 100.562 44.958 100.223 44.958C100.092 44.958 99.9877 44.9841 99.9093 45.0623C99.831 45.1145 99.7526 45.2189 99.7265 45.3232C99.6743 45.4276 99.6482 45.558 99.6221 45.6884C99.596 45.8189 99.596 45.9493 99.596 46.1319C99.596 46.8624 99.596 47.4624 99.596 47.8798C99.596 48.0885 99.6221 48.2711 99.6221 48.4537C99.6482 48.6103 99.6743 48.7668 99.7265 48.9233C99.7788 49.0798 99.831 49.1842 99.9093 49.2625C99.9877 49.3407 100.092 49.3929 100.223 49.3929Z" fill="white"/>
<path d="M105.395 50.4364C105.081 50.4364 104.82 50.3842 104.585 50.2799C104.35 50.1755 104.167 50.0451 104.037 49.8625C103.906 49.6799 103.802 49.4712 103.723 49.2103C103.645 48.9494 103.593 48.6886 103.541 48.4277C103.514 48.1668 103.488 47.8537 103.488 47.5146C103.488 47.2276 103.488 46.9668 103.488 46.6798C103.488 46.3407 103.514 46.0537 103.567 45.7928C103.593 45.5319 103.671 45.2971 103.749 45.0624C103.828 44.8276 103.958 44.6189 104.089 44.4623C104.219 44.3058 104.402 44.1754 104.637 44.0971C104.872 43.9928 105.107 43.9667 105.421 43.9667C105.682 43.9667 105.917 43.9928 106.126 44.071C106.335 44.1493 106.491 44.2536 106.648 44.3841C106.779 44.5145 106.909 44.6971 106.987 44.8537C107.066 45.0363 107.144 45.245 107.196 45.4798C107.249 45.7406 107.275 45.9754 107.301 46.2102C107.327 46.445 107.327 46.732 107.327 47.045V47.2015H104.794V47.5146C104.794 47.5668 104.794 47.619 104.794 47.7233C104.794 47.8537 104.794 47.9581 104.794 48.0885C104.794 48.219 104.794 48.3494 104.82 48.4798C104.846 48.6103 104.846 48.7146 104.872 48.8451C104.898 48.9755 104.951 49.0538 104.977 49.132C105.029 49.2103 105.081 49.2886 105.16 49.3407C105.238 49.3929 105.316 49.419 105.421 49.419C105.551 49.419 105.656 49.3929 105.734 49.3407C105.812 49.2886 105.891 49.2103 105.917 49.106C105.969 49.0016 105.995 48.8973 105.995 48.7929C106.021 48.6885 106.021 48.5581 106.021 48.4016V48.1407H107.275V48.4016C107.249 49.0799 107.092 49.5755 106.779 49.9408C106.491 50.2538 106.021 50.4364 105.395 50.4364ZM104.794 46.5494H106.047V46.158C106.047 46.0015 106.047 45.845 106.021 45.7146C105.995 45.5841 105.969 45.4537 105.943 45.3493C105.891 45.2189 105.838 45.1406 105.76 45.0624C105.682 44.9841 105.577 44.958 105.447 44.958C105.316 44.958 105.212 44.9841 105.133 45.0624C105.055 45.1406 104.977 45.2189 104.951 45.3493C104.898 45.4798 104.872 45.6102 104.872 45.7406C104.846 45.8711 104.846 46.0276 104.846 46.1841V46.5494H104.794Z" fill="white"/>
<path d="M110.381 50.3321V41.4884H111.634V50.3321H110.381Z" fill="white"/>
<path d="M112.939 50.3321V44.0189H114.193V44.6972C114.376 44.5146 114.532 44.3841 114.663 44.3059C114.794 44.2276 114.95 44.1233 115.159 44.045C115.368 43.9667 115.603 43.9146 115.838 43.9146C116.099 43.9146 116.334 44.0189 116.491 44.2015C116.648 44.4102 116.752 44.645 116.752 44.932V50.306H115.499V45.6103C115.499 45.4016 115.472 45.2189 115.394 45.1407C115.342 45.0363 115.211 44.9841 115.002 44.9841C114.898 44.9841 114.794 45.0102 114.689 45.0624C114.585 45.1146 114.506 45.1407 114.454 45.1929C114.402 45.2189 114.323 45.2972 114.219 45.3755V50.3582H112.939V50.3321Z" fill="white"/>
<path d="M119.834 52.2364C119.677 52.2364 119.547 52.2364 119.442 52.2364C119.338 52.2364 119.207 52.2364 119.05 52.2104C118.868 52.2104 118.737 52.1843 118.633 52.1843C118.528 52.1582 118.398 52.1321 118.241 52.106C118.084 52.0799 117.98 52.0538 117.875 52.0017C117.771 51.9495 117.692 51.8973 117.588 51.8451C117.51 51.793 117.431 51.7147 117.379 51.6103C117.327 51.5321 117.301 51.4277 117.301 51.2973C117.301 50.9581 117.379 50.6973 117.562 50.4625C117.745 50.2277 117.954 50.0451 118.241 49.9146C118.058 49.8625 117.928 49.8103 117.797 49.7059C117.666 49.6016 117.614 49.4972 117.614 49.3668C117.614 49.3146 117.614 49.2624 117.64 49.1842C117.64 49.132 117.666 49.0537 117.692 49.0016C117.719 48.9494 117.745 48.8972 117.771 48.819C117.797 48.7407 117.823 48.6885 117.849 48.6624C117.875 48.6363 117.901 48.5842 117.954 48.5059C118.006 48.4276 118.032 48.4016 118.058 48.3755C118.084 48.3494 118.11 48.2972 118.163 48.245C118.215 48.1928 118.241 48.1407 118.241 48.1407C117.823 47.645 117.614 47.0189 117.614 46.2363C117.614 45.7928 117.692 45.4015 117.823 45.0623C117.954 44.7232 118.189 44.4362 118.476 44.2536C118.763 44.071 119.103 43.9406 119.52 43.9406C119.755 43.9406 119.964 43.9666 120.121 44.0449C120.304 44.1232 120.434 44.2014 120.539 44.3058C120.643 44.4101 120.748 44.5406 120.852 44.6971C121.113 44.2275 121.453 43.9927 121.923 43.9666H121.949H121.975C122.001 43.9666 122.001 43.9666 122.001 43.9666V44.9841C122.001 44.9841 121.949 44.9841 121.923 44.9841C121.792 44.9841 121.662 44.9841 121.61 44.9841C121.531 44.9841 121.453 45.0101 121.374 45.0362C121.296 45.0623 121.218 45.0884 121.166 45.1406C121.218 45.271 121.27 45.4276 121.322 45.6623C121.374 45.871 121.401 46.0797 121.401 46.2624C121.401 46.7059 121.322 47.0972 121.192 47.4363C121.061 47.7754 120.852 48.0363 120.565 48.245C120.278 48.4537 119.912 48.5581 119.494 48.5581L118.868 48.4798C118.868 48.5059 118.841 48.532 118.815 48.5581C118.789 48.6103 118.763 48.6363 118.763 48.6624C118.737 48.6885 118.737 48.7146 118.711 48.7668C118.685 48.819 118.685 48.845 118.685 48.8711C118.685 48.9494 118.737 49.0277 118.815 49.0798C118.894 49.132 118.998 49.1842 119.155 49.2103C119.312 49.2364 119.442 49.2624 119.573 49.2624C119.703 49.2885 119.86 49.2885 120.017 49.2885C120.173 49.2885 120.304 49.3146 120.356 49.3146C120.539 49.3407 120.722 49.3668 120.852 49.3929C121.009 49.419 121.139 49.4711 121.296 49.5494C121.453 49.6277 121.583 49.7059 121.662 49.7842C121.766 49.8625 121.845 49.9929 121.897 50.1494C121.949 50.306 122.001 50.4625 122.001 50.6451C122.001 50.8799 121.949 51.0886 121.871 51.2712C121.792 51.4538 121.688 51.6103 121.557 51.7147C121.427 51.8451 121.27 51.9234 121.061 52.0017C120.878 52.0799 120.669 52.1321 120.461 52.1582C120.304 52.2104 120.095 52.2364 119.834 52.2364ZM119.834 51.2973C119.912 51.2973 119.99 51.2973 120.069 51.2973C120.147 51.2973 120.225 51.2973 120.304 51.2712C120.408 51.2712 120.487 51.2451 120.539 51.219C120.617 51.1929 120.669 51.1668 120.722 51.1408C120.774 51.1147 120.826 51.0625 120.852 51.0103C120.878 50.9581 120.904 50.906 120.904 50.8277C120.904 50.4886 120.565 50.2538 119.886 50.1755L118.841 50.0451C118.711 50.1233 118.606 50.2799 118.502 50.4364C118.424 50.619 118.371 50.8016 118.371 50.9842C118.371 51.0364 118.398 51.0886 118.424 51.1147C118.45 51.1408 118.502 51.1929 118.58 51.1929C118.659 51.219 118.711 51.219 118.789 51.2451C118.868 51.2712 118.946 51.2712 119.05 51.2712C119.155 51.2712 119.233 51.2712 119.312 51.2712C119.39 51.2712 119.468 51.2712 119.573 51.2712C119.729 51.2973 119.808 51.2973 119.834 51.2973ZM119.52 47.5667C120.043 47.5667 120.304 47.1233 120.304 46.2363C120.304 46.0537 120.304 45.8971 120.278 45.7406C120.252 45.5841 120.225 45.4276 120.147 45.2971C120.095 45.1406 120.017 45.0362 119.912 44.958C119.808 44.8797 119.677 44.8275 119.52 44.8275C119.364 44.8275 119.233 44.8797 119.129 44.958C119.024 45.0362 118.946 45.1667 118.894 45.2971C118.841 45.4536 118.789 45.5841 118.789 45.7406C118.763 45.8971 118.763 46.0537 118.763 46.2363C118.737 47.1233 118.998 47.5667 119.52 47.5667Z" fill="white"/>
<path d="M124.195 50.4364C123.882 50.4364 123.621 50.3842 123.386 50.2799C123.151 50.1755 122.968 50.0451 122.837 49.8625C122.707 49.6799 122.602 49.4712 122.524 49.2103C122.446 48.9494 122.394 48.6886 122.341 48.4277C122.315 48.1668 122.289 47.8537 122.289 47.5146C122.289 47.2276 122.289 46.9668 122.289 46.6798C122.289 46.3407 122.315 46.0537 122.367 45.7928C122.394 45.5319 122.472 45.2971 122.55 45.0624C122.629 44.8276 122.759 44.6189 122.89 44.4623C123.02 44.3058 123.203 44.1754 123.438 44.0971C123.673 43.9928 123.908 43.9667 124.221 43.9667C124.483 43.9667 124.718 43.9928 124.927 44.071C125.135 44.1493 125.292 44.2536 125.449 44.3841C125.605 44.5145 125.71 44.6971 125.788 44.8537C125.867 45.0363 125.945 45.245 125.997 45.4798C126.049 45.7406 126.076 45.9754 126.102 46.2102C126.128 46.445 126.128 46.732 126.128 47.045V47.2015H123.595V47.5146C123.595 47.5668 123.595 47.619 123.595 47.7233C123.595 47.8537 123.595 47.9581 123.595 48.0885C123.595 48.219 123.595 48.3494 123.621 48.4798C123.647 48.6103 123.647 48.7146 123.673 48.8451C123.699 48.9755 123.751 49.0538 123.778 49.132C123.83 49.2103 123.882 49.2886 123.96 49.3407C124.039 49.3929 124.117 49.419 124.221 49.419C124.352 49.419 124.456 49.3929 124.535 49.3407C124.613 49.2886 124.691 49.2103 124.718 49.106C124.77 49.0016 124.796 48.8973 124.796 48.7929C124.822 48.6885 124.822 48.5581 124.822 48.4016V48.1407H126.076V48.4016C126.049 49.0799 125.893 49.5755 125.579 49.9408C125.292 50.2538 124.822 50.4364 124.195 50.4364ZM123.569 46.5494H124.822V46.158C124.822 46.0015 124.822 45.845 124.796 45.7146C124.77 45.5841 124.744 45.4537 124.718 45.3493C124.665 45.2189 124.613 45.1406 124.535 45.0624C124.456 44.9841 124.352 44.958 124.221 44.958C124.091 44.958 123.986 44.9841 123.908 45.0624C123.83 45.1406 123.751 45.2189 123.725 45.3493C123.673 45.4798 123.647 45.6102 123.647 45.7406C123.621 45.8711 123.621 46.0276 123.621 46.1841V46.5494H123.569Z" fill="white"/>
<path d="M127.016 50.3321V44.0189H128.269V44.6972C128.452 44.5146 128.609 44.3841 128.739 44.3059C128.87 44.2276 129.026 44.1233 129.235 44.045C129.444 43.9667 129.679 43.9146 129.914 43.9146C130.175 43.9146 130.41 44.0189 130.567 44.2015C130.724 44.4102 130.828 44.645 130.828 44.932V50.306H129.575V45.6103C129.575 45.4016 129.549 45.2189 129.47 45.1407C129.418 45.0363 129.287 44.9841 129.079 44.9841C128.974 44.9841 128.87 45.0102 128.765 45.0624C128.661 45.1146 128.582 45.1407 128.53 45.1929C128.478 45.2189 128.4 45.2972 128.295 45.3755V50.3582H127.016V50.3321Z" fill="white"/>
<path d="M131.977 43.0797V41.8275H133.23V43.0797H131.977ZM131.977 50.3321V44.0189H133.23V50.3321H131.977Z" fill="white"/>
<path d="M136.234 50.4364C135.921 50.4364 135.66 50.3842 135.425 50.2799C135.19 50.1755 135.007 50.0451 134.877 49.8625C134.746 49.6799 134.641 49.4712 134.563 49.2103C134.485 48.9494 134.433 48.6886 134.38 48.4277C134.354 48.1668 134.328 47.8537 134.328 47.5146C134.328 47.2276 134.328 46.9668 134.328 46.6798C134.328 46.3407 134.354 46.0537 134.406 45.7928C134.433 45.5319 134.511 45.2971 134.589 45.0624C134.668 44.8276 134.798 44.6189 134.929 44.4623C135.059 44.3058 135.242 44.1754 135.477 44.0971C135.712 43.9928 135.947 43.9667 136.261 43.9667C136.522 43.9667 136.757 43.9928 136.966 44.071C137.174 44.1493 137.331 44.2536 137.488 44.3841C137.618 44.5145 137.749 44.6971 137.827 44.8537C137.906 45.0363 137.984 45.245 138.036 45.4798C138.088 45.7406 138.115 45.9754 138.141 46.2102C138.167 46.445 138.167 46.732 138.167 47.045V47.2015H135.634V47.5146C135.634 47.5668 135.634 47.619 135.634 47.7233C135.634 47.8537 135.634 47.9581 135.634 48.0885C135.634 48.219 135.634 48.3494 135.66 48.4798C135.686 48.6103 135.686 48.7146 135.712 48.8451C135.738 48.9755 135.79 49.0538 135.817 49.132C135.869 49.2103 135.921 49.2886 135.999 49.3407C136.078 49.3929 136.156 49.419 136.261 49.419C136.391 49.419 136.496 49.3929 136.574 49.3407C136.652 49.2886 136.731 49.2103 136.757 49.106C136.809 49.0016 136.835 48.8973 136.835 48.7929C136.861 48.6885 136.861 48.5581 136.861 48.4016V48.1407H138.115V48.4016C138.088 49.0799 137.932 49.5755 137.618 49.9408C137.331 50.2538 136.861 50.4364 136.234 50.4364ZM135.608 46.5494H136.861V46.158C136.861 46.0015 136.861 45.845 136.835 45.7146C136.809 45.5841 136.783 45.4537 136.757 45.3493C136.704 45.2189 136.652 45.1406 136.574 45.0624C136.496 44.9841 136.391 44.958 136.261 44.958C136.13 44.958 136.026 44.9841 135.947 45.0624C135.869 45.1406 135.79 45.2189 135.764 45.3493C135.712 45.4798 135.686 45.6102 135.686 45.7406C135.66 45.8711 135.66 46.0276 135.66 46.1841V46.5494H135.608Z" fill="white"/>
<path d="M139.055 50.3321V44.0189H140.308V44.8537C140.439 44.5928 140.621 44.3841 140.857 44.2015C141.092 44.0189 141.379 43.9146 141.666 43.9146C141.666 43.9146 141.744 43.9146 141.875 43.9406V45.3233C141.64 45.2189 141.405 45.1929 141.17 45.1929C140.909 45.1929 140.7 45.2711 140.543 45.4276C140.386 45.5842 140.308 45.7929 140.308 46.0537V50.306H139.055V50.3321Z" fill="white"/>
<path d="M142.527 50.3321V44.0189H143.781V50.3321H142.527ZM142.841 43.4449L143.467 41.5405H144.721L143.467 43.4449H142.841Z" fill="white"/>
<path d="M146.078 50.4365C145.738 50.4365 145.425 50.2799 145.19 49.993C144.955 49.6799 144.824 49.3408 144.824 48.9755C144.824 48.6625 144.876 48.4016 144.981 48.1407C145.085 47.8799 145.19 47.6973 145.32 47.5407C145.425 47.3842 145.634 47.2277 145.895 47.0711C146.156 46.9146 146.365 46.8103 146.495 46.732C146.626 46.6798 146.861 46.5755 147.227 46.445C147.279 46.419 147.331 46.3929 147.357 46.3929V45.9494C147.357 45.6363 147.305 45.3754 147.227 45.2189C147.148 45.0624 146.966 44.958 146.731 44.958C146.522 44.958 146.365 45.0363 146.26 45.1928C146.156 45.3494 146.104 45.5581 146.104 45.8189C146.104 45.845 146.104 45.8972 146.104 45.9755H144.85C144.85 45.3754 145.033 44.8798 145.346 44.5406C145.686 44.1754 146.13 43.9928 146.731 43.9928C147.331 43.9928 147.775 44.1754 148.115 44.5406C148.454 44.9059 148.611 45.3754 148.611 45.9755V48.819C148.611 49.4712 148.663 49.993 148.767 50.3843H147.514L147.357 49.4451C147.279 49.5756 147.227 49.6799 147.201 49.7582C147.148 49.8364 147.096 49.9147 147.018 50.0191C146.939 50.1234 146.861 50.2017 146.783 50.2538C146.704 50.306 146.6 50.3582 146.495 50.4104C146.365 50.4104 146.234 50.4365 146.078 50.4365ZM146.731 49.393C146.809 49.393 146.913 49.3669 146.992 49.3147C147.07 49.2625 147.148 49.2103 147.174 49.1582C147.227 49.106 147.279 49.0538 147.331 48.9495C147.331 48.9234 147.357 48.9234 147.357 48.9234V47.1755C147.305 47.2016 147.227 47.2798 147.096 47.332C146.966 47.4103 146.887 47.4625 146.809 47.5146C146.731 47.5668 146.652 47.619 146.548 47.7233C146.443 47.8016 146.365 47.8799 146.313 47.9581C146.26 48.0364 146.208 48.1407 146.156 48.2451C146.104 48.3494 146.104 48.4799 146.104 48.5842C146.078 49.1321 146.313 49.393 146.731 49.393Z" fill="white"/>
<path d="M153.234 50.4364C152.946 50.4364 152.711 50.3581 152.502 50.2016C152.293 50.0451 152.137 49.8364 152.006 49.5494C151.902 49.2885 151.797 49.0016 151.745 48.7146C151.693 48.4276 151.667 48.1146 151.641 47.7755C151.641 47.6189 151.641 47.2537 151.641 46.6537C151.641 46.445 151.667 46.2363 151.667 46.0537C151.693 45.8711 151.693 45.6884 151.745 45.5058C151.771 45.3232 151.823 45.1406 151.876 45.0102C151.928 44.8536 151.98 44.7232 152.058 44.5928C152.137 44.4623 152.241 44.3319 152.346 44.2536C152.45 44.1754 152.581 44.0971 152.737 44.0449C152.894 43.9927 153.051 43.9666 153.234 43.9666C153.364 43.9666 153.495 43.9927 153.625 44.0188C153.756 44.0449 153.86 44.1232 153.991 44.2014C154.095 44.2797 154.2 44.358 154.252 44.4101C154.33 44.4623 154.409 44.5667 154.513 44.671V41.5144H155.767V50.332H154.513V49.7581C154.33 49.9668 154.121 50.1233 153.939 50.2277C153.704 50.3581 153.495 50.4364 153.234 50.4364ZM153.547 49.3929C153.86 49.3929 154.174 49.3146 154.487 49.1842V45.2189C154.2 45.0623 153.886 44.958 153.547 44.958C153.416 44.958 153.312 44.9841 153.234 45.0623C153.155 45.1145 153.077 45.2189 153.051 45.3232C152.999 45.4276 152.972 45.558 152.946 45.6884C152.92 45.8189 152.92 45.9493 152.92 46.1319C152.92 46.8624 152.92 47.4624 152.92 47.8798C152.92 48.0885 152.946 48.2711 152.946 48.4537C152.972 48.6103 152.999 48.7668 153.051 48.9233C153.103 49.0798 153.155 49.1842 153.234 49.2625C153.312 49.3407 153.416 49.3929 153.547 49.3929Z" fill="white"/>
<path d="M158.717 50.4364C158.403 50.4364 158.142 50.3842 157.907 50.2799C157.672 50.1755 157.489 50.0451 157.359 49.8625C157.228 49.6799 157.124 49.4712 157.046 49.2103C156.967 48.9494 156.915 48.6886 156.863 48.4277C156.837 48.1668 156.811 47.8537 156.811 47.5146C156.811 47.2276 156.811 46.9668 156.811 46.6798C156.811 46.3407 156.837 46.0537 156.889 45.7928C156.915 45.5319 156.993 45.2971 157.072 45.0624C157.15 44.8276 157.281 44.6189 157.411 44.4623C157.542 44.3058 157.725 44.1754 157.96 44.0971C158.195 43.9928 158.43 43.9667 158.743 43.9667C159.004 43.9667 159.239 43.9928 159.448 44.071C159.657 44.1493 159.814 44.2536 159.97 44.3841C160.127 44.5145 160.231 44.6971 160.31 44.8537C160.388 45.0363 160.466 45.245 160.519 45.4798C160.571 45.7406 160.597 45.9754 160.623 46.2102C160.649 46.445 160.649 46.732 160.649 47.045V47.2015H158.116V47.5146C158.116 47.5668 158.116 47.619 158.116 47.7233C158.116 47.8537 158.116 47.9581 158.116 48.0885C158.116 48.219 158.116 48.3494 158.142 48.4798C158.142 48.6103 158.168 48.7146 158.195 48.8451C158.221 48.9494 158.273 49.0538 158.299 49.132C158.351 49.2103 158.403 49.2886 158.482 49.3407C158.56 49.3929 158.638 49.419 158.743 49.419C158.874 49.419 158.978 49.3929 159.056 49.3407C159.135 49.2886 159.213 49.2103 159.239 49.106C159.291 49.0016 159.317 48.8973 159.317 48.7929C159.344 48.6885 159.344 48.5581 159.344 48.4016V48.1407H160.597V48.4016C160.571 49.0799 160.414 49.5755 160.101 49.9408C159.814 50.2538 159.344 50.4364 158.717 50.4364ZM158.09 46.5494H159.344V46.158C159.344 46.0015 159.344 45.845 159.317 45.7146C159.291 45.5841 159.265 45.4537 159.239 45.3493C159.187 45.2189 159.135 45.1406 159.056 45.0624C158.978 44.9841 158.874 44.958 158.743 44.958C158.612 44.958 158.508 44.9841 158.43 45.0624C158.351 45.1406 158.273 45.2189 158.247 45.3493C158.195 45.4798 158.168 45.6102 158.168 45.7406C158.142 45.8711 158.142 46.0276 158.142 46.1841V46.5494H158.09Z" fill="white"/>
<path d="M161.537 50.3321V41.4884H162.791V50.3321H161.537Z" fill="white"/>
<path d="M166.055 50.3321V41.4884H168.013C168.927 41.4884 169.58 41.671 169.972 42.0623C170.363 42.4276 170.546 43.0798 170.546 44.0189V47.4886C170.546 48.4538 170.363 49.1843 169.972 49.6278C169.58 50.0973 168.927 50.3321 168.013 50.3321H166.055ZM167.308 49.393H168.013C168.222 49.393 168.405 49.3669 168.535 49.3408C168.692 49.3147 168.797 49.2364 168.901 49.1321C169.006 49.0277 169.058 48.9495 169.11 48.8451C169.162 48.7669 169.188 48.6103 169.214 48.4277C169.241 48.2451 169.241 48.0886 169.241 47.9582C169.241 47.8277 169.241 47.6451 169.241 47.3842C169.241 47.306 169.241 47.2277 169.241 47.2016V44.358C169.241 44.2015 169.241 44.0711 169.241 43.9667C169.241 43.8624 169.241 43.758 169.214 43.6276C169.214 43.4972 169.188 43.3928 169.188 43.3145C169.162 43.2363 169.136 43.158 169.11 43.0537C169.084 42.9493 169.032 42.8971 169.006 42.845C168.953 42.7928 168.901 42.7406 168.849 42.6884C168.797 42.6363 168.718 42.5841 168.614 42.558C168.535 42.5319 168.431 42.5058 168.327 42.4797C168.222 42.4536 168.092 42.4536 167.961 42.4536H167.282V49.393H167.308Z" fill="white"/>
<path d="M171.643 43.0797V41.8275H172.896V43.0797H171.643ZM171.643 50.3321V44.0189H172.896V50.3321H171.643Z" fill="white"/>
<path d="M175.77 50.4364C175.248 50.4364 174.83 50.2799 174.517 49.9668C174.203 49.6538 173.995 49.2625 173.864 48.7668L174.804 48.4538C175.039 49.0799 175.352 49.3929 175.744 49.3929C175.953 49.3929 176.11 49.3407 176.214 49.2364C176.319 49.132 176.371 48.9755 176.371 48.7668C176.371 48.4798 176.266 48.219 176.058 48.0364L174.804 47.0972C174.674 46.9928 174.543 46.9146 174.439 46.8363C174.334 46.7581 174.256 46.6537 174.151 46.5233C174.047 46.3928 173.968 46.2624 173.916 46.1059C173.864 45.9493 173.838 45.7928 173.838 45.6102C173.838 45.0624 174.021 44.671 174.36 44.3841C174.7 44.0971 175.17 43.9667 175.744 43.9667C176.005 43.9667 176.266 44.0189 176.475 44.0971C176.684 44.1754 176.893 44.3058 177.024 44.4623C177.18 44.6189 177.285 44.8015 177.389 44.9841C177.494 45.1667 177.572 45.4015 177.624 45.6363L176.684 45.9493C176.632 45.8189 176.58 45.7145 176.554 45.6363C176.501 45.558 176.449 45.4537 176.371 45.3493C176.293 45.245 176.214 45.1667 176.11 45.1145C176.005 45.0624 175.901 45.0363 175.77 45.0363C175.561 45.0363 175.405 45.0884 175.3 45.1928C175.196 45.2972 175.144 45.4537 175.144 45.6624C175.144 45.8711 175.248 46.0276 175.457 46.1841L176.71 47.1233C176.841 47.2276 176.972 47.332 177.076 47.4363C177.18 47.5407 177.285 47.6711 177.363 47.8016C177.468 47.932 177.52 48.0885 177.572 48.2451C177.624 48.4016 177.65 48.5842 177.65 48.7929C177.65 49.3407 177.468 49.7321 177.128 50.019C176.789 50.2799 176.345 50.4364 175.77 50.4364Z" fill="white"/>
<path d="M180.209 50.4364C179.896 50.4364 179.635 50.3842 179.399 50.2799C179.164 50.1755 178.982 50.0451 178.851 49.8625C178.721 49.6799 178.616 49.4712 178.538 49.2103C178.459 48.9494 178.407 48.6886 178.355 48.4277C178.329 48.1668 178.303 47.8537 178.303 47.5146C178.303 47.2276 178.303 46.9668 178.303 46.6798C178.303 46.3407 178.329 46.0537 178.381 45.7928C178.407 45.5319 178.486 45.2971 178.564 45.0624C178.642 44.8276 178.773 44.6189 178.903 44.4623C179.034 44.3058 179.217 44.1754 179.452 44.0971C179.687 43.9928 179.922 43.9667 180.235 43.9667C180.496 43.9667 180.731 43.9928 180.94 44.071C181.149 44.1493 181.306 44.2536 181.462 44.3841C181.619 44.5145 181.724 44.6971 181.802 44.8537C181.88 45.0363 181.959 45.245 182.011 45.4798C182.063 45.7406 182.089 45.9754 182.115 46.2102C182.141 46.445 182.141 46.732 182.141 47.045V47.2015H179.608V47.5146C179.608 47.5668 179.608 47.619 179.608 47.7233C179.608 47.8537 179.608 47.9581 179.608 48.0885C179.608 48.219 179.608 48.3494 179.635 48.4798C179.635 48.6103 179.661 48.7146 179.687 48.8451C179.713 48.9755 179.765 49.0538 179.791 49.132C179.843 49.2103 179.896 49.2886 179.974 49.3407C180.052 49.3929 180.131 49.419 180.235 49.419C180.366 49.419 180.47 49.3929 180.548 49.3407C180.627 49.2886 180.705 49.2103 180.731 49.106C180.784 49.0016 180.81 48.8973 180.81 48.7929C180.836 48.6885 180.836 48.5581 180.836 48.4016V48.1407H182.089V48.4016C182.063 49.0799 181.906 49.5755 181.593 49.9408C181.306 50.2538 180.836 50.4364 180.209 50.4364ZM179.608 46.5494H180.862V46.158C180.862 46.0015 180.862 45.845 180.836 45.7146C180.81 45.5841 180.784 45.4537 180.757 45.3493C180.705 45.2189 180.653 45.1406 180.575 45.0624C180.496 44.9841 180.392 44.958 180.261 44.958C180.131 44.958 180.026 44.9841 179.948 45.0624C179.87 45.1406 179.791 45.2189 179.765 45.3493C179.713 45.4798 179.687 45.6102 179.687 45.7406C179.661 45.8711 179.661 46.0276 179.661 46.1841V46.5494H179.608Z" fill="white"/>
<path d="M183.029 50.3321V44.0189H184.283V44.6972C184.466 44.5146 184.622 44.3841 184.753 44.3059C184.883 44.2276 185.04 44.1232 185.249 44.045C185.458 43.9667 185.693 43.9145 185.928 43.9145C186.189 43.9145 186.424 44.0189 186.581 44.2015C186.737 44.4102 186.842 44.645 186.842 44.932V50.306H185.588V45.6102C185.588 45.4015 185.562 45.2189 185.484 45.1407C185.432 45.0363 185.301 44.9841 185.092 44.9841C184.988 44.9841 184.883 45.0102 184.779 45.0624C184.674 45.1146 184.596 45.1407 184.544 45.1928C184.492 45.2189 184.413 45.2972 184.309 45.3754V50.3582H183.029V50.3321ZM185.588 43.445C185.432 43.445 185.275 43.4189 185.092 43.3406C184.936 43.2623 184.779 43.2102 184.622 43.1319C184.466 43.0536 184.335 43.0276 184.178 43.0276C184.022 43.0276 183.943 43.1319 183.943 43.3667H183.186C183.186 42.9754 183.29 42.6623 183.473 42.4014C183.656 42.1406 183.917 42.0101 184.283 42.0101C184.466 42.0101 184.701 42.0884 184.988 42.2188C185.275 42.3493 185.51 42.4275 185.667 42.4275C185.823 42.4275 185.928 42.3232 185.928 42.0884H186.685C186.685 42.4797 186.581 42.7928 186.398 43.0536C186.189 43.3145 185.928 43.445 185.588 43.445Z" fill="white"/>
<path d="M191.177 49.8364C190.89 50.2277 190.394 50.4364 189.715 50.4364C189.036 50.4364 188.54 50.2277 188.253 49.8364C187.965 49.4451 187.809 48.8711 187.809 48.1407V46.2363C187.809 45.5058 187.965 44.9319 188.253 44.5406C188.54 44.1493 189.036 43.9406 189.715 43.9406C190.394 43.9406 190.89 44.1493 191.177 44.5406C191.464 44.9319 191.621 45.5058 191.621 46.2363V48.1407C191.595 48.8711 191.464 49.4451 191.177 49.8364ZM189.48 49.3668C189.558 49.3929 189.637 49.3929 189.715 49.3929C189.793 49.3929 189.872 49.3668 189.95 49.3668C190.028 49.3407 190.08 49.3146 190.107 49.2624C190.159 49.2364 190.185 49.1581 190.211 49.1059C190.237 49.0277 190.263 48.9755 190.289 48.9233C190.315 48.8711 190.315 48.7929 190.315 48.6885C190.315 48.5842 190.315 48.5059 190.315 48.4276C190.315 48.3755 190.315 48.2711 190.315 48.1668V46.2624C190.315 46.1319 190.315 46.0537 190.315 45.9754C190.315 45.9232 190.315 45.845 190.315 45.7145C190.315 45.6102 190.289 45.5319 190.289 45.4797C190.263 45.4276 190.237 45.3493 190.211 45.2971C190.185 45.2189 190.133 45.1667 190.107 45.1406C190.054 45.1145 190.002 45.0623 189.95 45.0362C189.872 45.0101 189.793 44.9841 189.715 44.9841C189.637 44.9841 189.558 45.0101 189.48 45.0362C189.402 45.0623 189.349 45.0884 189.323 45.1406C189.271 45.1667 189.245 45.2449 189.219 45.2971C189.193 45.3754 189.167 45.4276 189.14 45.4797C189.114 45.5319 189.114 45.6102 189.114 45.7145C189.114 45.8189 189.114 45.8971 189.114 45.9754C189.114 46.0276 189.114 46.1319 189.114 46.2624V48.1668C189.114 48.2972 189.114 48.3755 189.114 48.4276C189.114 48.4798 189.114 48.5842 189.114 48.6885C189.114 48.7929 189.14 48.8711 189.14 48.9233C189.167 48.9755 189.193 49.0537 189.219 49.1059C189.245 49.1842 189.297 49.2364 189.323 49.2624C189.349 49.2885 189.402 49.3146 189.48 49.3668Z" fill="white"/>
</svg>
