<svg width="126" height="48" viewBox="0 0 126 48" fill="none" xmlns="http://www.w3.org/2000/svg">
<path d="M32.3079 36.256C32.0206 37.5083 31.7595 38.5517 31.5245 39.6213C31.0806 41.5257 30.5583 43.4301 30.2188 45.3606C30.036 46.378 29.4876 46.7694 28.5475 46.952C22.5153 48.0998 16.8226 47.2129 11.5999 43.978C5.07155 39.9605 1.23287 34.0125 0.501688 26.421C-0.803985 13.1945 8.49239 3.12464 19.4078 1.0898C30.7933 -1.0494 42.4399 5.70735 45.913 16.612C45.9652 16.7946 45.9914 17.0033 46.0697 17.3425C45.6519 17.3946 45.3124 17.4468 44.9729 17.4468C42.6749 17.4468 40.3509 17.4207 38.0529 17.4729C37.2956 17.499 36.8778 17.1859 36.5122 16.5598C34.3448 12.8554 31.1328 10.5075 26.9547 9.5683C19.0162 7.79433 10.9993 12.7249 9.22358 20.9165C7.57843 28.5862 12.0438 36.0734 19.4862 38.2648C23.3771 39.4126 27.1113 39.0213 30.715 37.143C30.9761 37.0126 31.2111 36.856 31.4722 36.7256C31.6811 36.5952 31.8901 36.4908 32.3079 36.256Z" fill="white"/>
<path d="M68.4492 23.186H75.4477C73.6981 31.0645 71.9746 38.8387 70.2772 46.6389H63.6444C63.801 45.7258 63.9577 44.891 64.1667 43.8736C63.8011 44.1345 63.566 44.291 63.331 44.4997C60.2235 47.2389 56.5937 47.8389 52.7289 46.8998C49.0469 46.0128 47.9501 42.7257 48.5246 39.8561C49.2558 36.0734 50.1437 32.3168 50.9793 28.5601C51.371 26.8123 51.7628 25.0383 52.1806 23.2382H59.1528C58.4478 26.447 57.7427 29.5776 57.0638 32.7603C56.646 34.6386 56.2281 36.5169 55.8886 38.4213C55.4186 40.8735 56.8288 42.3083 59.3618 42.0735C61.8948 41.8388 63.7488 40.5605 64.715 38.2908C65.4723 36.4647 65.9423 34.482 66.4124 32.5254C67.1174 29.3949 67.7442 26.3166 68.4492 23.186Z" fill="white"/>
<path d="M113.312 27.5428H109.029C109.395 25.9776 109.734 24.5949 110.074 23.134H114.304C114.826 20.76 115.323 18.4643 115.871 16.0642H122.661C122.19 18.386 121.747 20.6817 121.25 23.1079H125.951C125.768 23.9427 125.637 24.6471 125.481 25.3514C125.324 26.0297 125.141 26.6819 124.906 27.5167H120.206C119.814 29.1863 119.475 30.7516 119.135 32.2908C118.665 34.4821 118.195 36.6996 117.725 38.8909C117.229 41.2128 117.777 41.891 120.206 41.7867C120.78 41.7606 121.355 41.7084 122.112 41.6302C122.034 42.1519 121.982 42.6215 121.877 43.065C121.642 44.1085 121.433 45.152 121.146 46.1694C121.068 46.4564 120.702 46.8477 120.441 46.8477C118.352 46.8477 116.237 47.0303 114.174 46.6912C111.066 46.1694 109.813 44.0041 110.466 40.8997C111.353 36.6996 112.293 32.4995 113.207 28.2993C113.26 28.1428 113.26 27.9863 113.312 27.5428Z" fill="white"/>
<path d="M42.4922 45.9867H34.2143C35.4677 40.5344 36.7212 35.1864 37.9746 29.6819H28.0254C28.626 27.1775 29.2005 24.8556 29.7749 22.4556H48.1327C46.2264 30.308 44.3724 38.0821 42.4922 45.9867Z" fill="white"/>
<path d="M96.7566 22.6644C96.2604 24.8297 95.7904 26.8384 95.3204 28.9776C94.8242 28.8993 94.3803 28.8472 93.9364 28.7689C89.9149 28.2471 86.7552 29.2907 85.1361 33.5169C84.2222 35.943 83.7521 38.5518 83.1253 41.0823C82.6814 42.9084 82.2897 44.7346 81.8458 46.6651H78.3466H74.7168C76.5186 38.7344 78.2683 30.9864 80.0179 23.1601H86.7551C86.5201 24.2036 86.3112 25.221 86.0762 26.2384C88.9225 23.0557 92.4479 22.0644 96.7566 22.6644Z" fill="white"/>
<path d="M99.5772 23.1599H106.654C104.93 31.0384 103.102 38.8125 101.353 46.6128H94.25C96.0518 38.7865 97.8015 31.0123 99.5772 23.1599Z" fill="white"/>
<path d="M108.559 14.7336C108.115 16.5337 107.723 18.2555 107.305 20.0033H100.229C100.646 18.2294 101.064 16.5076 101.456 14.7336H108.559Z" fill="white"/>
</svg>
