<svg width="77" height="77" viewBox="0 0 77 77" fill="none" xmlns="http://www.w3.org/2000/svg">
<path d="M38.7408 0.699707C39.4504 0.699707 40.16 0.775716 40.8443 0.902389C41.3258 1.00373 41.7819 1.07973 42.2635 1.18107C51.843 3.13184 58.5335 11.315 58.3561 20.9421C58.1787 30.8733 51.0574 38.9298 41.1737 40.3232C40.3881 40.4245 39.6025 40.4752 38.7915 40.4752C32.6332 40.5005 26.5003 40.4752 20.342 40.4752C20.1392 40.4752 19.8858 40.5512 19.7084 40.4498C19.6324 40.3992 19.5563 40.3485 19.4803 40.2978C18.9988 39.9432 18.9481 39.2338 19.379 38.8538C19.455 38.7778 19.531 38.7271 19.6324 38.7271C20.7728 38.4737 21.9893 38.4991 23.1297 38.2711C31.7462 36.675 37.7525 28.9479 37.5497 19.8021C37.3723 11.543 30.6565 4.1199 22.268 2.92917C21.6091 2.82783 20.9249 2.82782 20.2659 2.70115C19.7591 2.59981 19.0748 2.49847 18.8974 2.14378C18.8468 2.04244 18.8468 1.94111 18.8721 1.81444C18.9988 1.18107 19.5817 0.725047 20.2406 0.725047C26.3989 0.699712 32.5572 0.699707 38.7408 0.699707ZM35.6997 38.0684C44.0375 37.1817 51.1587 27.7825 50.1704 19.2194C49.2074 10.9603 41.6552 2.62515 35.6237 3.25852C42.1114 7.2614 45.7354 12.987 45.7608 20.5875C45.7608 28.2385 42.1114 33.9895 35.6997 38.0684ZM41.6552 3.10651C48.4471 7.28674 52.0711 13.063 52.0458 20.7141C52.0204 28.2892 48.371 34.0148 41.6552 38.1951C49.8663 37.2577 56.6328 28.9732 56.5314 20.4861C56.4301 12.0243 49.5875 3.84122 41.6552 3.10651ZM29.1613 3.18252C35.7757 7.2614 39.4251 13.0124 39.4251 20.6635C39.4251 28.3145 35.7504 34.0402 29.1613 38.1444C36.7894 37.8404 43.9108 29.1506 43.8601 20.4354C43.8347 12.0497 36.5613 3.38519 29.1613 3.18252Z" fill="white"/>
<path d="M76.1711 65.9872C75.2334 69.7114 71.7107 72.1182 67.7319 71.7382C63.3476 71.3075 60.5599 68.5714 60.3572 64.4925C60.1038 59.7042 62.3593 56.3094 66.3634 55.4987C71.6094 54.4346 75.8416 57.4494 76.3231 62.0857C76.3231 62.2377 76.5259 64.8218 76.1711 65.9872ZM63.7785 64.0111C63.7785 64.7965 64.0572 65.6072 64.4881 66.5446C65.8566 69.4581 69.9874 69.7368 71.7868 67.1019C73.1046 65.1512 73.0792 61.807 71.6854 59.9069C70.2662 57.9308 67.3518 57.5761 65.5271 59.1722C64.26 60.3122 63.9052 61.8323 63.7785 64.0111Z" fill="white"/>
<path d="M17.0217 50.2543C17.0217 50.8117 17.0217 51.2931 17.0217 51.7491C17.0217 57.7534 16.9964 63.7324 17.0471 69.7367C17.0724 71.0288 16.6922 71.5102 15.3998 71.3328C14.8169 71.2568 14.234 71.3074 13.423 71.3074C13.423 70.5981 13.423 69.9901 13.423 69.382C13.423 67.3553 13.3724 65.3285 13.4484 63.3017C13.4737 62.3643 13.2457 61.9336 12.1813 61.959C9.90041 62.035 7.61954 62.0096 5.33869 61.959C4.47704 61.9336 4.17295 62.2123 4.17295 63.099C4.22363 65.7592 4.19827 68.4193 4.19827 71.1808C2.98182 71.1808 1.81606 71.1808 0.599609 71.1808C0.599609 64.1884 0.599609 57.2467 0.599609 50.229C1.76538 50.229 2.88047 50.229 4.17295 50.229C4.17295 53.0412 4.17295 55.8533 4.17295 58.7668C7.16339 58.7668 9.97642 58.7921 12.7895 58.7161C12.9922 58.7161 13.3723 58.0828 13.3723 57.7534C13.423 55.7266 13.3977 53.6999 13.3977 51.6731C13.3977 51.2171 13.3977 50.761 13.3977 50.229C14.6395 50.2543 15.7292 50.2543 17.0217 50.2543Z" fill="white"/>
<path d="M46.0907 57.5508C46.0907 55.068 46.0907 52.7119 46.0907 50.2544C47.2818 50.2544 48.3208 50.2544 49.4613 50.2544C49.4866 50.7864 49.5373 51.2931 49.5373 51.7745C49.5373 57.7281 49.5373 63.6818 49.5373 69.6354C49.5373 70.3955 49.8921 71.3582 48.4222 71.3329C46.3187 71.2822 46.3188 71.3582 46.2174 69.7114C46.2174 69.6354 46.1667 69.5594 46.0907 69.3314C44.8489 70.6741 43.379 71.4848 41.605 71.5862C37.3221 71.8902 34.1036 69.1034 33.7995 64.7458C33.7234 63.5044 33.7741 62.187 34.0529 60.971C35.32 55.3973 41.3516 53.4972 45.6345 57.2974C45.6852 57.3988 45.8119 57.4241 46.0907 57.5508ZM46.2174 63.4284C46.2174 63.1751 46.192 62.9217 46.1667 62.6684C45.9386 60.2109 44.19 58.3362 41.9598 58.1841C39.679 58.0321 37.981 59.5015 37.4235 62.0604C37.0687 63.6058 37.2207 65.0752 37.9303 66.4939C39.3241 69.3314 42.8214 69.4327 45.0516 67.2033C46.2174 65.9872 46.3188 63.4538 46.2174 63.4284Z" fill="white"/>
<path d="M26.5261 66.6459C27.4638 63.8591 28.4269 61.0976 29.3646 58.3108C30.2769 55.6 30.8598 55.296 33.8502 56.0307C32.355 59.7802 30.8851 63.5297 29.3899 67.2793C28.3255 69.9901 27.1851 72.6502 26.1714 75.3864C25.8166 76.3744 25.3097 76.8305 24.2453 76.6785C23.6371 76.6025 22.9782 76.6531 22.1165 76.6531C22.7754 75.0823 23.3076 73.6129 23.9919 72.1942C24.3974 71.3075 24.3974 70.5475 24.0426 69.6607C22.2686 65.1512 20.5199 60.6416 18.6699 55.8533C19.9371 55.8533 21.0268 55.8027 22.1419 55.904C22.3953 55.9293 22.674 56.4867 22.8008 56.8667C23.8145 59.7295 24.7775 62.6177 25.7659 65.4805C25.8926 65.8605 26.0447 66.2405 26.1967 66.6459C26.2981 66.6459 26.3994 66.6459 26.5261 66.6459Z" fill="white"/>
<path d="M59.7238 58.5136C56.1252 59.1469 55.4916 59.8816 55.4662 63.6565C55.4409 66.1393 55.4662 68.6221 55.4662 71.2062C54.3005 71.2062 53.2107 71.2062 52.0703 71.2062C52.0703 66.114 52.0703 61.0724 52.0703 55.9041C53.0333 55.9041 54.0217 55.9041 55.0861 55.9041C55.1621 56.3348 55.2382 56.8161 55.3395 57.4748C56.5053 56.0054 57.8231 55.1947 59.7238 55.5494C59.7238 56.5628 59.7238 57.5508 59.7238 58.5136Z" fill="white"/>
</svg>
