<svg fill="none" xmlns="http://www.w3.org/2000/svg" viewBox="551.48 15.12 148.2 48.38">
<path d="M699.005 26.0877H698.744C660.88 26.0877 623.015 26.0877 585.151 26.0877C584.837 26.0877 584.524 26.0616 584.21 26.0616C584.184 26.0616 584.158 26.0616 584.132 26.0616C584.132 26.6616 584.106 27.2355 584.106 27.8355C584.028 27.9138 583.975 27.9921 583.897 28.0442C583.819 28.0964 583.688 28.0703 583.61 28.1225C583.296 28.3573 582.853 28.566 582.774 28.853C582.722 29.0877 583.061 29.5312 583.349 29.7139C583.714 29.9486 583.74 30.1834 583.584 30.5226C583.427 30.8878 583.349 31.2791 583.166 31.6183C583.088 31.7748 582.8 31.9574 582.617 31.9313C582.174 31.8791 581.756 31.853 581.521 32.2704C581.26 32.74 581.495 33.1574 581.834 33.5227C581.912 33.7053 582.121 33.9661 582.043 34.0444C581.73 34.514 581.338 34.9575 580.972 35.401C580.946 35.4531 580.79 35.3749 580.685 35.3749C580.398 35.2966 580.084 35.2184 579.797 35.114C579.327 34.9314 578.883 35.1662 578.831 35.6618C578.805 35.9227 578.857 36.1836 578.831 36.4445C578.831 36.6271 578.753 36.7836 578.7 36.9401C577.865 37.3575 577.029 37.775 576.194 38.1924C575.828 38.2967 575.436 38.375 575.071 38.4793C574.392 38.5837 573.713 38.7402 573.008 38.7663C572.172 38.8185 571.336 38.7663 570.501 38.7663C569.091 38.5054 567.707 38.1663 566.453 37.488C564.129 36.2358 562.51 34.3314 561.335 32.0096C560.734 30.8095 560.525 29.5312 560.343 28.2008C560.29 27.4703 560.264 26.7399 560.212 26.0094C557.496 26.0094 554.781 26.0355 552.065 26.0094C551.699 26.0094 551.49 26.0616 551.49 26.5051C551.516 30.8617 551.49 35.2444 551.49 39.6011C551.49 39.9924 551.647 40.0968 552.012 40.0968C554.258 40.0968 556.504 40.0968 558.75 40.0968C560.996 40.0968 563.241 40.0968 565.487 40.1228C569.848 40.1228 574.183 40.1228 578.544 40.1228C578.57 40.1228 578.57 40.1228 578.596 40.1228C578.622 40.1228 578.622 40.1228 578.648 40.1228C578.674 40.1228 578.7 40.1228 578.727 40.1489C578.753 40.1489 578.779 40.175 578.805 40.175C578.857 40.2011 578.909 40.2011 578.988 40.2272C578.988 40.3315 578.988 40.4359 578.988 40.5402C578.988 41.662 579.014 42.7838 579.014 43.9056C579.014 49.2275 579.014 54.5754 579.04 59.8973C579.014 61.0452 579.014 62.167 578.988 63.3148C579.014 63.3148 579.04 63.3409 579.04 63.3409C583.088 63.3409 587.135 63.3409 591.157 63.3409C591.862 63.3409 591.862 63.3409 591.862 62.6365V41.2185C591.862 41.0359 591.809 40.8272 591.888 40.6446C591.94 40.4881 592.097 40.3055 592.227 40.2794C592.514 40.2272 592.802 40.2533 593.115 40.2533H698.927C699.658 40.2533 699.658 40.2533 699.658 39.5228C699.658 35.2705 699.658 30.9921 699.658 26.7399C699.684 26.0877 699.684 26.0877 699.005 26.0877ZM597.502 37.9054C595.909 37.8793 594.29 37.8793 592.697 37.9054C592.332 37.9054 592.175 37.801 592.175 37.4097C592.201 34.6444 592.201 31.853 592.175 29.0877C592.175 28.6964 592.306 28.5921 592.671 28.5921C594.29 28.6182 595.909 28.6182 597.528 28.5921C597.972 28.5921 598.077 28.7486 598.077 29.166C598.051 30.5226 598.077 31.9052 598.077 33.2618C598.077 34.6183 598.051 36.001 598.077 37.3575C598.129 37.801 597.972 37.9054 597.502 37.9054ZM615.782 37.9054C614.136 37.9054 612.465 37.9054 610.82 37.8793C610.611 37.8793 610.35 37.7489 610.193 37.5923C608.862 36.288 607.53 34.9314 606.198 33.6009C606.067 33.4705 605.937 33.3661 605.702 33.1574C605.676 33.4705 605.676 33.6531 605.676 33.8357C605.676 35.0357 605.65 36.2097 605.676 37.4097C605.676 37.801 605.545 37.9054 605.18 37.9054C603.613 37.8793 602.072 37.8793 600.505 37.9054C600.114 37.9054 599.957 37.8271 599.957 37.3836C599.983 34.5923 599.983 31.8009 599.957 29.0095C599.957 28.6182 600.061 28.4616 600.479 28.4877C602.046 28.5138 603.613 28.4877 605.206 28.5138C605.519 28.5138 605.885 28.6964 606.094 28.9051C607.556 30.2095 608.992 31.5661 610.428 32.8966C610.454 32.9226 610.507 32.9226 610.611 32.9748C610.611 32.7922 610.637 32.6096 610.637 32.4531C610.637 31.3052 610.637 30.1313 610.637 28.9834C610.637 28.6703 610.689 28.5138 611.055 28.5138C612.648 28.5399 614.241 28.5138 615.834 28.5138C616.173 28.5138 616.252 28.6703 616.252 28.9573C616.252 31.8009 616.252 34.6444 616.252 37.488C616.252 37.801 616.121 37.9054 615.782 37.9054ZM633.017 35.0357C631.632 36.5749 629.831 37.3054 627.82 37.5923C624.686 38.0097 621.527 37.6967 618.367 37.801C618.001 37.801 617.897 37.6706 617.897 37.3315C617.923 35.9227 617.897 34.5401 617.897 33.1313C617.897 31.7748 617.923 30.4182 617.897 29.0356C617.897 28.6182 618.001 28.4616 618.445 28.4616C621.057 28.4877 623.668 28.3312 626.253 28.5138C628.734 28.6964 631.136 29.3225 632.964 31.253C634.009 32.3487 634.009 33.9661 633.017 35.0357ZM648.841 36.314C647.744 37.0967 646.491 37.6184 645.133 37.775C643.906 37.9054 642.652 38.0097 641.425 37.9837C639.362 37.9315 637.404 37.4619 635.732 36.1575C635.027 35.5836 634.714 34.801 634.688 33.9661C634.636 32.3487 634.688 30.7313 634.662 29.0877C634.662 28.7225 634.766 28.566 635.158 28.566C636.829 28.5921 638.5 28.5921 640.172 28.566C640.563 28.566 640.668 28.6964 640.668 29.0877C640.642 30.653 640.694 32.2183 640.642 33.8096C640.642 34.2792 640.851 34.5923 641.216 34.7488C641.973 35.0618 642.757 35.1401 643.514 34.7488C643.827 34.5923 643.984 34.3053 643.984 33.8879C643.958 32.2704 643.984 30.653 643.958 29.0095C643.958 28.5921 644.062 28.4356 644.506 28.4356C646.125 28.4616 647.744 28.4616 649.364 28.4356C649.807 28.4356 649.99 28.566 649.964 29.0356C649.938 29.9226 649.964 30.7834 649.964 31.6704C649.964 32.427 649.938 33.1835 649.964 33.9401C650.095 35.0097 649.625 35.7401 648.841 36.314ZM663.256 36.288C661.767 37.3315 660.096 37.6445 658.347 37.801C657.485 37.8793 656.597 37.9315 655.709 37.9054C653.933 37.8532 652.21 37.4619 650.513 36.8358C651.061 36.0793 651.583 35.401 652.079 34.6966C652.288 34.4096 652.523 34.4096 652.784 34.514C654.09 35.0357 655.422 35.3227 656.806 35.1923C657.093 35.1662 657.38 34.9836 657.668 34.8792C657.406 34.7227 657.171 34.4879 656.884 34.4357C656.075 34.2792 655.213 34.227 654.403 34.0444C653.489 33.8357 652.628 33.5487 651.897 32.9487C651.035 32.2444 651.009 31.1226 651.844 30.3139C652.837 29.3486 654.116 28.9573 655.396 28.6964C657.145 28.3573 658.947 28.279 660.723 28.6182C661.767 28.8269 662.786 29.0877 663.961 29.3486C663.334 30.1313 662.838 30.7834 662.29 31.3835C662.211 31.4617 661.976 31.4878 661.846 31.4617C660.88 31.2791 659.913 31.0182 658.921 30.8878C658.477 30.8356 657.955 30.9661 657.511 31.0965C657.198 31.2009 657.354 31.4617 657.537 31.54C658.007 31.7226 658.503 31.8791 658.999 31.9835C660.253 32.2444 661.532 32.427 662.786 32.74C663.543 32.9226 664.013 33.4966 664.144 34.2792C664.248 35.114 663.961 35.7662 663.256 36.288ZM674.929 31.4617C674.537 31.4356 674.38 31.5661 674.38 31.9835C674.406 33.7053 674.38 35.4271 674.406 37.1488C674.406 37.6445 674.25 37.801 673.754 37.775C672.213 37.7489 670.646 37.7489 669.105 37.775C668.583 37.775 668.479 37.5923 668.479 37.1228C668.505 35.4271 668.479 33.7053 668.505 32.0096C668.505 31.5922 668.4 31.4356 667.956 31.4356C667.225 31.4617 666.468 31.4356 665.737 31.4356C665.397 31.4356 665.293 31.3052 665.293 30.9921C665.319 30.3139 665.319 29.6095 665.293 28.9312C665.267 28.5138 665.449 28.4356 665.815 28.4356C667.695 28.4616 669.575 28.4356 671.456 28.4356C673.283 28.4356 675.111 28.4356 676.939 28.4356C677.618 28.4356 677.618 28.4356 677.618 29.1399C677.618 29.7139 677.592 30.2878 677.618 30.8356C677.644 31.3313 677.462 31.4617 676.992 31.4356C676.313 31.4617 675.608 31.4878 674.929 31.4617ZM693.312 37.801C691.641 37.801 689.97 37.775 688.299 37.801C687.855 37.801 687.568 37.6706 687.463 37.2532C687.306 36.7575 686.993 36.6271 686.497 36.6532C685.426 36.7054 684.356 36.6793 683.285 36.6532C682.893 36.6532 682.658 36.7314 682.58 37.1488C682.502 37.6967 682.188 37.8271 681.64 37.8271C679.995 37.801 678.349 37.8271 676.73 37.8271H676.052C676.522 37.0445 676.913 36.3662 677.305 35.714C678.715 33.3922 680.125 31.0704 681.509 28.7486C681.666 28.4877 681.849 28.4095 682.11 28.4095C683.964 28.4095 685.844 28.4095 687.698 28.4095C688.038 28.4095 688.246 28.5138 688.403 28.8008C689.97 31.3574 691.537 33.914 693.104 36.4706C693.365 36.888 693.626 37.3054 693.939 37.8271H693.312V37.801Z" fill="#CCCDD0"/>
<path d="M579.065 63.3931C579.039 63.4192 579.039 63.4453 579.039 63.4714C578.83 63.4714 578.621 63.4714 578.413 63.4714C574.261 63.4714 570.082 63.4714 565.93 63.4714C565.852 63.4714 565.8 63.4453 565.695 63.4453V40.3316C565.774 40.3055 565.852 40.2794 565.93 40.2794C570.03 40.2794 574.104 40.2794 578.204 40.2794C578.491 40.2794 578.752 40.2794 579.039 40.2794C579.039 40.3838 579.039 40.4881 579.039 40.5925C579.039 41.7142 579.065 42.836 579.065 43.9578C579.065 49.2797 579.065 54.6277 579.091 59.9495C579.065 61.0974 579.065 62.2192 579.039 63.367C579.013 63.3931 579.039 63.3931 579.065 63.3931Z" fill="white"/>
<path d="M584.133 26.0877C584.133 26.6877 584.107 27.2616 584.107 27.8617C584.028 27.9399 583.976 28.0182 583.898 28.0704C583.819 28.1225 583.689 28.0964 583.611 28.1486C583.297 28.3834 582.853 28.5921 582.775 28.8791C582.723 29.1139 583.062 29.5574 583.349 29.74C583.715 29.9748 583.741 30.2095 583.584 30.5487C583.428 30.9139 583.349 31.3052 583.167 31.6444C583.088 31.8009 582.801 31.9835 582.618 31.9574C582.174 31.9052 581.757 31.8792 581.521 32.2966C581.26 32.7661 581.495 33.1835 581.835 33.5488C581.913 33.7314 582.122 33.9923 582.044 34.0705C581.73 34.5401 581.339 34.9836 580.973 35.4271C580.947 35.4793 580.79 35.401 580.686 35.401C580.399 35.3227 580.085 35.2445 579.798 35.1401C579.328 34.9575 578.884 35.1923 578.832 35.688C578.806 35.9488 578.858 36.2097 578.832 36.4706C578.832 36.6532 578.753 36.8097 578.701 36.9663C577.866 37.3837 577.03 37.8011 576.194 38.2185C575.829 38.3228 575.437 38.4011 575.071 38.5054C574.393 38.6098 573.714 38.7663 573.008 38.7924C572.173 38.8446 571.337 38.7924 570.502 38.7924C569.091 38.5315 567.707 38.1924 566.454 37.5141C564.13 36.2619 562.511 34.3575 561.336 32.0357C560.735 30.8357 560.526 29.5574 560.343 28.2269C560.291 27.4964 560.265 26.766 560.213 26.0355C560.265 25.7225 560.291 25.4355 560.343 25.1224C560.526 24.4703 560.683 23.8181 560.866 23.1659C561.519 21.2354 562.641 19.5919 564.052 18.157C564.391 17.8179 564.835 17.557 565.227 17.27C565.853 16.9048 566.48 16.5657 567.107 16.2005C567.185 16.2787 567.29 16.357 567.368 16.4352C567.707 16.8005 568.308 16.957 568.648 16.7744C568.987 16.5657 569.118 15.9918 568.961 15.4961C568.961 15.47 568.961 15.4439 568.961 15.3917C569.692 15.3135 570.423 15.2091 571.181 15.1309C571.207 15.2874 571.207 15.3656 571.233 15.4439C571.468 16.07 572.068 16.4352 572.46 16.1222C572.747 15.8874 572.878 15.4961 573.087 15.183C573.818 15.2352 574.523 15.2874 575.254 15.3396C575.254 15.6004 575.254 15.7309 575.254 15.8613C575.228 16.2526 575.306 16.6439 575.672 16.7744C576.038 16.9048 576.482 16.9048 576.769 16.4874C576.978 16.1744 577.239 16.1483 577.552 16.357C577.709 16.4874 577.892 16.6179 578.074 16.67C578.832 16.8787 579.093 17.3222 578.753 18.0788C578.545 18.3396 578.571 18.5744 578.832 18.7831C579.197 19.0962 579.85 19.044 580.216 18.6788C580.346 18.4179 580.503 18.4701 580.66 18.6527C581.078 19.1223 581.522 19.6179 581.939 20.0875C581.678 20.4788 581.469 20.7919 581.26 21.1049C581.234 21.2876 581.156 21.4702 581.208 21.6267C581.391 22.2006 582.305 22.3572 582.932 21.9397C583.01 22.018 583.062 22.0702 583.141 22.1484C583.297 22.618 583.48 23.1137 583.611 23.5833C583.637 23.7137 583.558 23.9746 583.428 24.0529C582.618 24.6268 582.279 24.9398 583.245 25.7486C583.558 25.879 583.846 25.9833 584.133 26.0877Z" fill="white"/>
<path d="M623.799 33.1575C623.799 32.714 623.799 32.2705 623.799 31.827C623.799 31.5139 623.877 31.4096 624.217 31.3835C625.287 31.3574 626.306 31.54 627.167 32.14C628.186 32.8444 628.055 33.6792 626.932 34.4618C626.071 35.0619 625.078 35.0619 624.086 34.9836C623.982 34.9836 623.825 34.7488 623.825 34.5923C623.799 34.1227 623.799 33.627 623.799 33.1575Z" fill="#CCCDD0"/>
<path d="M684.905 31.54C685.349 32.5053 685.714 33.3401 686.106 34.2271C685.322 34.2271 684.617 34.2271 683.834 34.2271C684.173 33.3401 684.513 32.5053 684.905 31.54Z" fill="#CCCDD0"/>
</svg>