<svg width="201" height="47" viewBox="0 0 201 47" fill="none" xmlns="http://www.w3.org/2000/svg">
<path d="M25.386 46.932C24.707 46.8799 24.0019 46.8277 23.323 46.7755C20.1894 46.5146 17.1341 45.9146 14.2094 44.7146C8.30776 42.2623 4.57352 37.8535 2.69335 31.8012C1.70104 28.5402 1.36154 25.1749 1.2832 21.7835C1.2832 21.3922 1.2832 21.0009 1.2832 20.5574C2.51054 21.3139 3.7901 21.8878 5.20022 21.9661C6.63647 22.0444 7.91605 21.5748 9.14338 20.7139C9.1695 21.053 9.22172 21.34 9.22172 21.627C9.32618 23.6357 9.35222 25.6445 9.56113 27.6271C9.97895 31.5925 11.2063 35.2969 13.6871 38.5057C16.0895 41.6362 19.2754 43.6972 22.9313 45.0798C25.0204 45.8624 27.1617 46.3842 29.3552 46.7233C29.4858 46.7494 29.5902 46.7755 29.773 46.8277C29.3291 46.8799 28.9374 46.906 28.5718 46.9581C27.5273 46.932 26.4566 46.932 25.386 46.932Z" fill="white"/>
<path d="M0.735123 14.9224C0.865691 14.4789 0.94399 14.0354 1.10067 13.618C1.91019 11.5049 3.97319 10.2788 6.11449 10.5658C8.2558 10.8527 9.97928 12.6789 10.1882 14.8963C10.4232 17.2703 9.1959 19.4095 7.10682 20.1921C4.59992 21.1574 1.77965 19.7226 0.970135 17.0616C0.865681 16.7486 0.813438 16.4094 0.708984 16.0964C0.735098 15.7051 0.735123 15.3137 0.735123 14.9224Z" fill="white"/>
<path d="M31.2358 45.1842C32.7504 44.6625 34.1083 43.9581 35.3095 42.9928C37.6597 41.1406 39.1482 38.6623 40.1666 35.897C41.1067 33.3926 41.5768 30.7838 41.7595 28.1229C42.0207 23.9227 41.6551 19.8009 40.3233 15.8095C39.0177 11.8441 36.8241 8.42664 33.5338 5.81787C31.4186 4.14826 28.9639 3.36563 26.3003 3.02649C22.3572 2.53082 18.9625 3.8352 15.8289 6.07875C13.8443 7.48748 12.0946 9.13101 10.58 11.0354C10.5017 11.1398 10.4234 11.2441 10.2928 11.3746C9.14385 9.96581 7.60312 9.54841 5.85352 9.47015C5.90574 9.39188 5.93188 9.31362 5.95799 9.28753C8.07318 7.14834 10.2667 5.13959 12.878 3.57433C15.62 1.9308 18.5969 1.04382 21.7828 0.756856C24.9425 0.443804 28.0761 0.522067 31.2097 1.14817C39.3832 2.7917 44.7104 7.6701 47.3217 15.5225C48.314 18.4443 48.9669 21.4705 49.0974 24.5749C49.3324 30.3664 47.9746 35.6622 44.2926 40.2536C42.1774 42.9146 39.4354 44.6625 36.0407 45.2625C34.4739 45.5494 32.9071 45.5233 31.3403 45.2886C31.3142 45.2625 31.3142 45.2364 31.2358 45.1842Z" fill="white"/>
<path d="M152.768 31.1751C152.768 30.9925 152.768 30.8621 152.768 30.7316C152.768 26.088 152.768 21.4183 152.768 16.7747C152.768 16.4095 152.846 16.2791 153.238 16.2791C158.8 16.2791 164.362 16.2791 169.924 16.2791C170.499 16.2791 171.099 16.2791 171.674 16.3834C173.972 16.7225 175.434 19.3052 174.677 21.5749C174.389 22.4097 173.946 23.1401 173.058 23.7662C173.267 23.9227 173.476 24.001 173.606 24.1575C174.494 25.0967 174.912 26.2185 174.912 27.4968C174.912 28.3837 174.52 29.1142 173.919 29.7142C173.032 30.6273 172.039 31.1751 170.681 31.1751C165.824 31.149 160.993 31.1751 156.136 31.2012C155.17 31.2012 154.178 31.2012 153.211 31.2012C153.081 31.2012 152.95 31.2012 152.768 31.1751ZM156.45 24.6793C156.45 26.2185 156.45 27.7055 156.45 29.2446C156.606 29.2446 156.737 29.2446 156.867 29.2446C161.098 29.2446 165.328 29.2446 169.585 29.2446C169.741 29.2446 169.898 29.2446 170.055 29.2186C171.23 29.0881 171.961 28.4098 172.092 27.3402C172.222 26.1402 171.7 25.2271 170.603 24.8619C170.211 24.7315 169.794 24.6793 169.376 24.6793C165.224 24.6532 161.072 24.6793 156.893 24.6793C156.737 24.6793 156.606 24.6793 156.45 24.6793ZM156.397 22.6966C156.606 22.6966 156.763 22.6966 156.92 22.6966C161.098 22.6966 165.25 22.6966 169.428 22.6966C169.663 22.6966 169.898 22.6966 170.133 22.6445C171.125 22.514 171.804 21.9401 171.987 21.0531C172.327 19.54 171.517 18.4182 169.95 18.2617C169.767 18.2356 169.585 18.2356 169.402 18.2356C166.555 18.2356 163.683 18.2356 160.837 18.2356C159.479 18.2356 158.095 18.2356 156.737 18.2356C156.45 18.2356 156.345 18.3139 156.371 18.6009C156.397 19.1748 156.371 19.7748 156.371 20.3487C156.397 21.1314 156.397 21.8879 156.397 22.6966Z" fill="white"/>
<path d="M131.25 16.279C131.25 16.4877 131.25 16.6703 131.25 16.8269C131.25 20.2443 131.25 23.6618 131.25 27.0793C131.25 27.4967 131.303 27.9402 131.381 28.3576C131.485 28.8794 131.877 29.1663 132.426 29.2185C132.556 29.2185 132.687 29.2185 132.817 29.2185C136.708 29.2185 140.625 29.2185 144.516 29.2185C145.378 29.2185 145.796 28.8533 145.874 27.9924C145.9 27.7315 145.9 27.4446 145.9 27.1837C145.9 23.6879 145.9 20.2183 145.9 16.7225C145.9 16.3573 146.005 16.2529 146.37 16.279C147.336 16.3051 148.329 16.3051 149.295 16.279C149.582 16.279 149.686 16.3312 149.686 16.6442C149.686 20.2965 149.686 23.9488 149.686 27.6011C149.686 27.9402 149.634 28.2794 149.582 28.6185C149.269 30.2881 148.172 31.2012 146.475 31.2012C143.863 31.2012 141.226 31.2012 138.614 31.2012C135.977 31.2012 133.313 31.2012 130.676 31.2012C129.005 31.2012 127.83 30.1316 127.621 28.462C127.568 28.1489 127.568 27.8359 127.568 27.5228C127.568 23.9227 127.568 20.3487 127.568 16.7486C127.568 16.3834 127.647 16.2529 128.038 16.2529C128.979 16.279 129.919 16.2529 130.859 16.2529C130.937 16.279 131.068 16.279 131.25 16.279Z" fill="white"/>
<path d="M200.999 24.6793C194.732 24.6793 188.49 24.6793 182.302 24.6793C182.249 24.7315 182.223 24.7576 182.223 24.7836C182.223 26.0098 182.171 27.2359 182.197 28.4359C182.223 29.0359 182.589 29.349 183.242 29.349C186.584 29.3229 189.953 29.3229 193.295 29.2968C195.75 29.2707 198.231 29.2707 200.685 29.2446C200.764 29.2446 200.842 29.2446 200.973 29.2707C200.973 29.8707 200.973 30.4708 200.973 31.0447C200.973 31.0969 200.868 31.1751 200.79 31.2012C200.685 31.2273 200.581 31.2012 200.476 31.2012C194.627 31.2012 188.778 31.2012 182.902 31.1751C182.197 31.1751 181.44 31.0447 180.761 30.8099C179.325 30.3403 178.567 29.1925 178.567 27.6794C178.567 25.0706 178.593 22.4879 178.567 19.8792C178.541 18.5748 179.142 17.7139 180.16 17.0356C181.022 16.4878 181.988 16.2791 182.98 16.2791C185.357 16.253 187.733 16.2791 190.109 16.2791C190.371 16.2791 190.475 16.3573 190.475 16.6182C190.449 17.1399 190.475 17.6878 190.475 18.2617C190.266 18.2617 190.109 18.2617 189.953 18.2617C187.864 18.2617 185.748 18.2617 183.659 18.2617C182.667 18.2617 182.171 18.7574 182.145 19.7487C182.145 20.5835 182.171 21.4444 182.145 22.2792C182.119 22.6966 182.328 22.6966 182.641 22.6966C188.386 22.6966 194.105 22.6966 199.85 22.6966C200.189 22.6966 200.685 22.5923 200.868 22.7749C201.051 22.9836 200.947 23.4532 200.973 23.8184C200.999 24.0793 200.999 24.3662 200.999 24.6793Z" fill="white"/>
<path d="M73.0947 18.2617C73.0947 22.5923 73.0947 26.8446 73.0947 31.1751C71.8673 31.1751 70.6661 31.1751 69.4648 31.1751C69.4648 26.2446 69.4648 21.2879 69.4648 16.3051C69.5954 16.3051 69.726 16.2791 69.8827 16.2791C75.706 16.2791 81.5293 16.2791 87.3526 16.2791C88.4232 16.2791 89.4155 16.6182 90.2773 17.2182C91.1129 17.7921 91.5569 18.6269 91.5569 19.6444C91.583 23.4271 91.5569 27.2098 91.5569 30.9925C91.5569 31.0186 91.5308 31.0708 91.5308 31.149C90.3557 31.149 89.1544 31.149 87.9271 31.149C87.9271 30.9664 87.9271 30.8099 87.9271 30.6273C87.9271 27.2098 87.9271 23.7923 87.9271 20.3748C87.9271 20.0357 87.8749 19.6705 87.7704 19.3313C87.5093 18.5487 87.0392 18.2356 86.2036 18.2356C83.54 18.2356 80.8765 18.2356 78.239 18.2356C76.6722 18.2356 75.1053 18.2356 73.5385 18.2356C73.408 18.2617 73.2774 18.2617 73.0947 18.2617Z" fill="white"/>
<path d="M115.112 18.2618C115.112 22.5923 115.112 26.8707 115.112 31.1752C114.956 31.1752 114.851 31.2012 114.721 31.2012C113.754 31.2012 112.788 31.1752 111.822 31.2012C111.456 31.2012 111.378 31.0708 111.404 30.7578C111.404 26.7924 111.404 22.8271 111.404 18.8618C111.404 18.6792 111.404 18.4965 111.404 18.2878C108.349 18.2878 105.32 18.2878 102.238 18.2878C102.238 17.6617 102.238 17.0617 102.238 16.4617C102.238 16.4095 102.343 16.3052 102.395 16.3052C102.499 16.2791 102.604 16.3052 102.708 16.3052C109.759 16.3052 116.81 16.3052 123.86 16.3052C124.383 16.3052 124.382 16.3052 124.382 16.8008C124.382 17.2704 124.382 17.7661 124.382 18.2618C121.275 18.2618 118.22 18.2618 115.112 18.2618Z" fill="white"/>
<path d="M65.9663 16.3312C65.9663 21.2618 65.9663 26.1924 65.9663 31.2012C65.6007 31.2012 65.2612 31.2012 64.9218 31.2012C64.1906 31.2012 63.4333 31.2012 62.7021 31.2012C62.4149 31.2012 62.3366 31.123 62.3366 30.836C62.3366 26.1141 62.3366 21.3662 62.3366 16.6443C62.3366 16.4617 62.3105 16.2791 62.5977 16.2791C63.6684 16.2791 64.7651 16.2791 65.8358 16.2791C65.888 16.3051 65.9141 16.3051 65.9663 16.3312Z" fill="white"/>
<path d="M98.7657 16.2791C98.7657 21.2618 98.7657 26.2185 98.7657 31.1752C97.5645 31.1752 96.3894 31.1752 95.1621 31.1752C95.1621 30.9925 95.1621 30.8621 95.1621 30.7056C95.1621 26.062 95.1621 21.4184 95.1621 16.7747C95.1621 16.3834 95.2404 16.253 95.6582 16.2791C96.6505 16.3052 97.695 16.2791 98.7657 16.2791Z" fill="white"/>
<path d="M138.328 40.7232C137.675 39.9145 137.596 39.471 138.04 39.1058C138.484 38.7145 139.372 38.7405 139.764 39.1579C140.156 39.5754 140.025 40.0188 139.372 40.7232C139.451 40.8015 139.529 40.8536 139.607 40.9319C139.894 41.1667 140.208 41.4276 140.547 41.7145C140.626 41.3754 140.678 41.1145 140.756 40.8015C140.913 40.8015 141.07 40.8015 141.331 40.8015C141.148 41.2189 140.991 41.5841 140.835 41.9493C141.148 42.3667 141.461 42.8102 141.801 43.2798C141.383 43.3842 141.096 43.4363 140.887 43.0189C140.782 42.8102 140.626 42.6537 140.469 42.445C140.338 42.6015 140.234 42.7059 140.156 42.8102C139.79 43.2015 139.346 43.4102 138.824 43.4624C138.223 43.5146 137.701 43.2798 137.492 42.8363C137.257 42.3406 137.388 41.558 137.779 41.1667C137.91 40.9841 138.119 40.8797 138.328 40.7232ZM138.954 43.0189C139.424 42.9668 139.79 42.6537 140.129 42.2624C140.156 42.2102 140.129 42.0537 140.077 42.0015C139.686 41.6624 139.268 41.3232 138.85 40.9841C138.772 40.9319 138.641 40.9058 138.563 40.9319C138.145 41.0363 137.832 41.6624 137.91 42.1841C137.988 42.7059 138.38 43.0189 138.954 43.0189ZM139.477 39.8884C139.477 39.4971 139.242 39.2101 138.876 39.2101C138.563 39.2101 138.275 39.4449 138.275 39.7319C138.275 40.0449 138.719 40.5145 139.007 40.5145C139.216 40.5145 139.477 40.2015 139.477 39.8884Z" fill="white"/>
<path d="M126.838 40.9058C127.308 41.0623 127.674 41.271 127.778 41.7667C127.882 42.3928 127.595 42.9145 126.968 43.1754C126.237 43.4624 125.48 43.4363 124.723 43.3319C124.723 41.871 124.723 40.4101 124.723 38.9492C125.402 38.9492 126.081 38.9231 126.733 38.9492C127.099 38.9753 127.412 39.184 127.465 39.6014C127.543 40.0449 127.491 40.4362 127.099 40.7232C127.047 40.7493 126.968 40.8014 126.838 40.9058ZM125.193 42.1319C125.193 42.2363 125.193 42.445 125.219 42.6537C125.245 42.758 125.375 42.9145 125.454 42.9145C125.872 42.8885 126.316 42.8624 126.733 42.7841C127.047 42.7058 127.203 42.445 127.23 42.1058C127.256 41.7667 127.099 41.5058 126.812 41.3754C126.603 41.271 126.342 41.2188 126.107 41.1928C125.193 41.1145 125.193 41.1145 125.193 42.1319ZM125.193 40.0188C125.193 40.8536 125.193 40.8536 126.028 40.7754C126.211 40.7493 126.42 40.7493 126.551 40.6449C126.733 40.4884 126.916 40.2797 126.942 40.0449C127.021 39.5753 126.655 39.2884 126.054 39.2623C125.193 39.2362 125.193 39.2362 125.193 40.0188Z" fill="white"/>
<path d="M156.163 41.0884C156.163 41.9232 155.902 42.6276 155.197 43.1233C154.178 43.8798 152.716 43.4885 152.194 42.3406C151.828 41.5319 151.88 40.6971 152.298 39.9406C152.742 39.1058 153.682 38.6884 154.57 38.8971C155.432 39.0797 156.085 39.8884 156.137 40.8536C156.163 40.9058 156.163 40.9841 156.163 41.0884ZM155.667 41.1667C155.588 40.8015 155.536 40.4884 155.432 40.1754C155.197 39.6275 154.753 39.2884 154.152 39.2362C153.552 39.184 153.134 39.4971 152.873 39.9667C152.455 40.6971 152.429 41.4797 152.847 42.2363C153.108 42.758 153.578 43.045 154.178 43.045C154.753 43.045 155.145 42.6798 155.38 42.2102C155.51 41.8711 155.562 41.5058 155.667 41.1667Z" fill="white"/>
<path d="M192.957 38.9493C193.349 38.8188 193.558 38.8971 193.767 39.2362C194.445 40.3058 195.151 41.3233 195.908 42.445C195.908 42.2102 195.882 42.0537 195.882 41.8972C195.856 41.0102 195.856 40.0971 195.83 39.2102C195.83 39.0275 195.882 38.871 196.091 38.9232C196.195 38.9493 196.326 39.0797 196.326 39.1841C196.352 40.5145 196.326 41.8711 196.326 43.2016C196.326 43.2277 196.3 43.2798 196.3 43.332C196.091 43.4364 195.934 43.3842 195.777 43.1755C195.02 42.0537 194.263 40.932 193.532 39.8102C193.505 39.758 193.505 39.7058 193.427 39.7319C193.427 40.645 193.427 41.532 193.427 42.445C193.427 42.6798 193.453 42.9407 193.427 43.1755C193.427 43.2538 193.27 43.3581 193.166 43.3581C193.114 43.3581 192.957 43.2277 192.957 43.1755C192.957 41.7407 192.957 40.3319 192.957 38.9493Z" fill="white"/>
<path d="M110.151 38.9232C110.804 38.9232 111.404 38.8449 112.005 38.9493C113.18 39.158 113.807 40.1493 113.598 41.4015C113.389 42.6537 112.501 43.4103 111.248 43.4103C110.125 43.4103 110.125 43.4103 110.151 42.2885C110.151 41.1928 110.151 40.0711 110.151 38.9232ZM111.248 42.9929C111.953 43.019 112.501 42.7581 112.815 42.132C113.154 41.4537 113.18 40.7493 112.762 40.0971C112.345 39.4449 111.666 39.3145 110.96 39.3145C110.699 39.3145 110.621 39.4449 110.621 39.7058C110.647 40.6189 110.647 41.532 110.647 42.445C110.673 42.9668 110.673 42.9929 111.248 42.9929Z" fill="white"/>
<path d="M103.727 43.2798C103.465 43.4102 103.309 43.3059 103.152 43.0711C102.395 41.9493 101.611 40.8536 100.802 39.6275C100.802 39.8362 100.802 39.9667 100.802 40.0971C100.828 41.0363 100.828 42.0015 100.88 42.9407C100.906 43.332 100.776 43.4102 100.41 43.2798C100.41 41.845 100.41 40.3841 100.41 38.9232C100.724 38.8188 100.959 38.8449 101.194 39.184C101.846 40.2536 102.552 41.271 103.23 42.3146C103.23 42.3406 103.283 42.3406 103.309 42.3406C103.309 41.1928 103.309 40.071 103.309 38.8971C103.439 38.8971 103.596 38.8971 103.753 38.8971C103.727 40.3841 103.727 41.845 103.727 43.2798Z" fill="white"/>
<path d="M150.078 41.1406C150.887 41.6623 150.966 42.5493 151.331 43.3059C150.94 43.4363 150.678 43.3841 150.6 42.9667C150.548 42.7319 150.443 42.4971 150.365 42.2623C150.182 41.6884 149.791 41.3754 149.164 41.4275C148.981 41.4536 148.798 41.4536 148.589 41.4536C148.589 41.9493 148.589 42.4189 148.589 42.8624C148.589 43.3841 148.589 43.3841 148.041 43.3059C148.041 41.871 148.041 40.4101 148.041 38.897C148.798 38.897 149.556 38.7405 150.287 39.0014C150.992 39.2362 151.122 40.2275 150.522 40.7753C150.417 40.9058 150.261 41.0101 150.078 41.1406ZM148.537 40.1492C148.537 41.0884 148.668 41.1928 149.608 40.958C150.156 40.8275 150.417 40.4362 150.339 39.9405C150.234 39.4449 149.712 39.2101 148.877 39.2883C148.276 39.3405 148.589 39.7579 148.511 40.0449C148.537 40.071 148.537 40.0971 148.537 40.1492Z" fill="white"/>
<path d="M122.841 38.9231C123.024 38.9231 123.181 38.9231 123.442 38.9231C123.363 40.0188 123.363 41.1145 123.207 42.1841C123.076 43.071 122.371 43.4884 121.457 43.4624C120.517 43.4102 119.916 42.9667 119.838 42.0275C119.76 41.0101 119.812 39.9927 119.812 38.9231C119.916 38.9231 120.099 38.9231 120.308 38.9231C120.308 39.6536 120.308 40.3579 120.308 41.0623C120.308 41.4275 120.334 41.8188 120.413 42.1841C120.543 42.7841 120.909 43.0189 121.562 43.0189C122.188 43.0189 122.606 42.7841 122.684 42.158C122.789 41.4275 122.789 40.671 122.815 39.9144C122.841 39.6014 122.841 39.2622 122.841 38.9231Z" fill="white"/>
<path d="M178.777 38.9232C179.012 38.9232 179.169 38.9232 179.378 38.9232C179.378 39.3667 179.378 39.8102 179.378 40.2276C179.404 40.8537 179.378 41.4798 179.482 42.0798C179.587 42.7581 179.979 43.019 180.658 43.019C181.336 43.019 181.728 42.7581 181.807 42.0537C181.911 41.3232 181.885 40.5667 181.885 39.8102C181.885 39.5232 181.885 39.2101 181.885 38.8971C182.068 38.8971 182.224 38.8971 182.485 38.8971C182.407 40.0189 182.407 41.1146 182.25 42.2102C182.12 43.0711 181.415 43.4885 180.527 43.4364C179.613 43.4103 179.038 42.9929 178.934 42.1059C178.83 41.0624 178.83 39.9928 178.777 38.9232Z" fill="white"/>
<path d="M83.3852 43.3059C82.7846 43.4102 82.7846 43.4102 82.6279 42.9145C82.3406 41.9232 82.3407 41.9232 81.27 41.9232C80.1994 41.9232 80.1993 41.9232 79.9121 42.9667C79.7815 43.4363 79.7815 43.4363 79.207 43.3319C79.2331 43.2015 79.2593 43.0972 79.3115 42.9667C79.8338 41.6884 80.3561 40.4101 80.8783 39.1579C80.9306 39.0536 81.1655 38.9492 81.2961 38.9492C81.4528 38.9492 81.6878 39.0275 81.7139 39.1318C82.2362 40.4101 82.7324 41.6884 83.2285 42.9667C83.333 43.045 83.3591 43.1754 83.3852 43.3059ZM82.1317 41.4536C81.8445 40.7232 81.5834 40.0449 81.27 39.2623C80.9567 40.0449 80.6955 40.7493 80.4082 41.4536C81.0088 41.4536 81.5311 41.4536 82.1317 41.4536Z" fill="white"/>
<path d="M200.424 41.4015C200.921 41.2711 200.947 41.2972 200.947 41.7667C200.947 42.158 200.947 42.5754 200.947 42.9668C200.947 43.2016 200.868 43.2798 200.659 43.332C200.007 43.4885 199.354 43.4885 198.727 43.2537C197.552 42.8102 197.056 41.2971 197.656 40.0971C198.205 39.0275 199.458 38.5579 200.659 38.9493C200.633 39.0797 200.607 39.2362 200.607 39.3927C200.32 39.3667 200.059 39.3145 199.772 39.3145C198.727 39.2884 198.1 39.8362 197.97 40.8537C197.839 41.8189 198.44 42.732 199.328 42.9407C199.406 42.9668 199.51 42.9668 199.589 42.9928C200.32 43.0972 200.424 43.0189 200.398 42.3146C200.424 42.0276 200.424 41.7146 200.424 41.4015Z" fill="white"/>
<path d="M66.8543 43.3059C66.332 43.3841 66.332 43.3841 66.332 42.8624C66.332 41.558 66.332 40.2536 66.332 38.871C67.0632 38.8971 67.7944 38.8971 68.4994 38.9753C68.9172 39.0275 69.2045 39.3145 69.2567 39.758C69.3351 40.2797 69.2306 40.7754 68.7606 41.1145C68.3166 41.4276 67.7944 41.558 67.246 41.5319C66.9327 41.5319 66.8281 41.6363 66.8543 41.9493C66.8543 42.3928 66.8543 42.8363 66.8543 43.3059ZM66.8543 40.2275C66.8543 41.245 66.9848 41.3232 68.0033 41.0623H68.0294C68.6039 40.9058 68.8389 40.5145 68.7606 39.9927C68.6561 39.4449 68.0555 39.184 67.1677 39.2884C66.5932 39.3666 66.9326 39.8101 66.8543 40.071C66.8281 40.1232 66.8543 40.1754 66.8543 40.2275Z" fill="white"/>
<path d="M91.8702 38.9232C91.8441 39.0797 91.844 39.2102 91.8179 39.3928C91.609 39.3667 91.4001 39.3145 91.2174 39.3145C90.9301 39.2884 90.6428 39.2884 90.3556 39.3145C90.0944 39.3406 89.8594 39.471 89.8072 39.7841C89.755 40.0971 89.8856 40.3319 90.1467 40.4624C90.5123 40.645 90.904 40.7754 91.2174 41.0102C91.5046 41.1928 91.818 41.4276 91.9747 41.6885C92.3664 42.3407 92.0269 43.1494 91.2957 43.332C90.7734 43.4625 90.1989 43.4364 89.6505 43.4103C89.2327 43.3842 89.2327 43.332 89.3894 42.8885C89.5983 42.9146 89.8072 42.9929 90.0162 42.9929C90.3556 42.9929 90.7212 43.0451 91.0607 42.9407C91.2696 42.8885 91.5046 42.6798 91.609 42.4711C91.7396 42.1842 91.583 41.8972 91.3218 41.7407C91.1129 41.6102 90.8779 41.4798 90.6429 41.3754C90.3556 41.2189 90.0683 41.1146 89.8072 40.932C89.4155 40.6711 89.2588 40.3058 89.311 39.8624C89.3633 39.3928 89.6506 39.0797 90.0945 38.9493C90.7212 38.7667 91.2696 38.7928 91.8702 38.9232Z" fill="white"/>
<path d="M144.62 43.332C144.463 43.332 144.307 43.332 144.098 43.332C144.098 41.8711 144.098 40.4102 144.098 38.9232C144.803 38.9232 145.482 38.871 146.161 38.9493C146.605 38.9753 146.944 39.2623 147.022 39.7319C147.101 40.2536 146.996 40.7493 146.552 41.0884C146.108 41.4276 145.586 41.5319 145.038 41.5058C144.698 41.5058 144.62 41.6363 144.62 41.9493C144.646 42.3928 144.62 42.8363 144.62 43.332ZM144.62 40.2275C144.62 41.245 144.75 41.3493 145.769 41.0624C145.899 41.0363 146.056 41.0102 146.108 40.9058C146.265 40.6971 146.474 40.4623 146.5 40.2015C146.578 39.5754 146.108 39.2623 145.273 39.2623C144.594 39.2623 144.594 39.2623 144.594 40.0449C144.62 40.1232 144.62 40.1754 144.62 40.2275Z" fill="white"/>
<path d="M64.9744 38.8188C64.9483 39.0797 64.9222 39.2363 64.8961 39.3667C64.4783 39.3406 64.0866 39.2884 63.6949 39.2884C63.3554 39.2884 62.9898 39.3406 62.9115 39.758C62.8332 40.1754 63.0943 40.3841 63.4077 40.5406C63.7733 40.7232 64.1649 40.8798 64.5305 41.0885C65.105 41.4276 65.34 41.8972 65.2356 42.445C65.1311 42.9929 64.7917 43.332 64.1127 43.4103C63.6427 43.4625 63.1465 43.4364 62.6765 43.3842C62.572 43.3842 62.4414 43.2016 62.4414 43.0972C62.4414 42.8624 62.5981 42.8885 62.807 42.9146C63.2771 42.9668 63.7471 42.9668 64.191 42.9407C64.4783 42.9146 64.7133 42.7581 64.7655 42.445C64.8178 42.132 64.6872 41.8711 64.4261 41.7146C64.0344 41.4798 63.5904 41.2972 63.1987 41.0624C62.9376 40.8798 62.6503 40.6711 62.5459 40.3841C62.2586 39.758 62.6243 39.0536 63.3293 38.9232C63.8255 38.8189 64.3738 38.8449 64.9744 38.8188Z" fill="white"/>
<path d="M134.828 38.9231C134.802 39.0797 134.802 39.2101 134.776 39.3666C134.436 39.3405 134.123 39.2884 133.783 39.2623C133.627 39.2623 133.418 39.2362 133.287 39.3144C133.104 39.4188 132.869 39.5753 132.791 39.784C132.687 40.0449 132.843 40.3058 133.105 40.4362C133.548 40.671 133.992 40.8536 134.436 41.1145C134.932 41.4015 135.194 41.8189 135.115 42.3928C135.063 42.8624 134.802 43.2537 134.332 43.3059C133.731 43.3841 133.104 43.3841 132.478 43.358C132.399 43.358 132.347 43.1754 132.295 43.0711C132.399 43.0189 132.504 42.9145 132.608 42.9145C133.078 42.9145 133.548 42.9667 133.992 42.9667C134.28 42.9667 134.541 42.7841 134.619 42.4711C134.697 42.1058 134.515 41.871 134.227 41.6884C133.992 41.558 133.731 41.4275 133.496 41.2971C133.261 41.1667 133 41.0623 132.791 40.9058C132.399 40.6449 132.243 40.2797 132.321 39.8362C132.373 39.3666 132.661 39.0797 133.078 38.9231C133.627 38.7666 134.201 38.8188 134.828 38.9231Z" fill="white"/>
<path d="M169.506 43.4102C169.558 43.1493 169.584 43.0189 169.636 42.8624C169.871 42.9145 170.08 42.9667 170.289 42.9928C170.629 42.9928 170.994 42.9928 171.334 42.9667C171.621 42.9406 171.908 42.758 171.882 42.4449C171.882 42.2102 171.726 41.9232 171.569 41.7406C171.412 41.558 171.125 41.4797 170.89 41.3493C170.603 41.1927 170.342 41.0623 170.054 40.9058C169.636 40.6449 169.506 40.2536 169.584 39.784C169.637 39.3144 169.95 39.0275 170.368 38.897C170.942 38.7144 171.517 38.7927 172.117 38.897C172.091 39.0796 172.065 39.2101 172.039 39.3405C171.621 39.3144 171.229 39.2622 170.812 39.2622C170.472 39.2622 170.133 39.3405 170.054 39.7318C169.95 40.1492 170.211 40.3579 170.55 40.5145C170.942 40.6971 171.334 40.8797 171.699 41.0884C172.3 41.4275 172.483 41.8971 172.352 42.5493C172.222 43.1232 171.778 43.358 171.255 43.4102C170.707 43.4624 170.159 43.4102 169.506 43.4102Z" fill="white"/>
<path d="M166.686 39.3405C166.686 39.784 166.66 40.2014 166.712 40.6188C166.712 40.6971 166.921 40.8275 167.025 40.8275C167.443 40.8536 167.861 40.8275 168.279 40.8275C168.279 40.958 168.279 41.0623 168.279 41.2188C167.861 41.2188 167.469 41.2449 167.051 41.2188C166.764 41.2188 166.633 41.271 166.659 41.5841C166.686 41.8971 166.686 42.2363 166.686 42.5493C166.686 42.8363 166.79 42.9667 167.103 42.9667C167.678 42.9406 168.252 42.9667 168.853 42.9667C168.879 43.1232 169.01 43.358 168.67 43.358C167.861 43.3841 167.025 43.358 166.189 43.358C166.189 41.871 166.189 40.4362 166.189 38.9492C166.999 38.9492 167.835 38.9492 168.67 38.9492C168.749 39.2362 168.696 39.3666 168.357 39.3666C167.782 39.3144 167.26 39.3405 166.686 39.3405Z" fill="white"/>
<path d="M128.9 38.9231C129.71 38.9231 130.519 38.9231 131.355 38.9231C131.355 39.0535 131.381 39.184 131.381 39.3405C130.833 39.3405 130.284 39.3666 129.762 39.3405C129.423 39.3144 129.318 39.4448 129.37 39.7579C129.396 39.9405 129.37 40.1492 129.37 40.3318C129.37 40.8536 129.37 40.8536 129.893 40.8275C130.206 40.8275 130.545 40.8014 130.859 40.8014C130.885 40.8014 130.911 40.8275 130.963 40.8275C130.963 40.9318 130.963 41.0623 130.963 41.2188C130.572 41.2188 130.18 41.2449 129.788 41.2188C129.422 41.1927 129.318 41.3232 129.37 41.6623C129.396 41.9493 129.423 42.2362 129.396 42.5232C129.37 42.9145 129.553 42.9667 129.893 42.9667C130.441 42.9406 131.015 42.9667 131.59 42.9667C131.642 43.2276 131.59 43.3841 131.25 43.3841C130.571 43.3841 129.866 43.3841 129.188 43.3841C129.005 43.3841 128.874 43.358 128.874 43.1232C128.874 41.7667 128.874 40.4101 128.874 39.0796C128.848 39.0014 128.874 38.9753 128.9 38.9231Z" fill="white"/>
<path d="M70.25 38.9231C71.0856 38.9231 71.9212 38.9231 72.7307 38.9231C72.8352 39.2622 72.7308 39.3666 72.3913 39.3405C71.8691 39.3144 71.3207 39.3405 70.7462 39.3405C70.7462 39.784 70.72 40.2014 70.7722 40.6188C70.7722 40.6971 70.9551 40.8014 71.0857 40.8014C71.5035 40.8275 71.9213 40.8014 72.3652 40.8014C72.3652 40.9058 72.3913 41.0362 72.3913 41.1927C71.9996 41.1927 71.634 41.1927 71.2684 41.1927C70.7461 41.1927 70.7462 41.1927 70.7462 41.7145C70.7462 41.8971 70.7462 42.0797 70.7462 42.2623C70.7723 42.9406 70.7722 42.9145 71.4512 42.9145C71.9212 42.9145 72.4174 42.9145 73.018 42.9145C72.9136 43.071 72.8352 43.3058 72.7569 43.3058C71.9212 43.3319 71.1117 43.3319 70.25 43.3319C70.25 41.8449 70.25 40.4101 70.25 38.9231Z" fill="white"/>
<path d="M106.52 40.2275C106.442 39.8884 106.546 39.7579 106.833 39.7579C107.173 39.7579 107.512 39.7318 107.852 39.7579C108.322 39.8101 108.661 40.0971 108.74 40.4623C108.818 40.8797 108.635 41.271 108.191 41.5319C108.139 41.558 108.087 41.6102 108.034 41.6362C108.269 41.7928 108.505 41.9232 108.687 42.1058C109.105 42.5493 109.079 43.2276 108.635 43.7754C108.087 44.4537 107.303 44.6363 106.468 44.7146C106.389 44.7146 106.285 44.5581 106.154 44.4276C106.624 44.3233 107.016 44.2972 107.355 44.1407C107.695 43.9841 108.061 43.7754 108.269 43.4885C108.635 42.9928 108.4 42.3667 107.799 42.158C107.46 42.0536 107.12 42.0015 106.755 41.9493C106.677 41.7406 106.781 41.6623 106.99 41.6102C107.277 41.558 107.591 41.5058 107.852 41.4015C108.113 41.2971 108.296 41.0884 108.269 40.7493C108.243 40.4362 108.008 40.2536 107.721 40.2275C107.356 40.2014 106.938 40.2275 106.52 40.2275Z" fill="white"/>
<path d="M76.8814 42.9146C76.9336 43.2016 76.8813 43.3842 76.5679 43.3842C76.124 43.3842 75.654 43.4364 75.2101 43.332C74.2178 43.1233 73.6172 42.2885 73.6172 41.2189C73.6172 40.0971 74.3222 39.1319 75.3406 38.8971C75.7584 38.8188 76.2024 38.8449 76.6724 38.8188C76.6202 39.0797 76.6202 39.2102 76.5941 39.3667C75.889 39.2623 75.21 39.1841 74.6878 39.758C74.2961 40.1493 74.1655 40.645 74.1916 41.1928C74.2177 42.4972 75.0534 43.0451 76.8814 42.9146Z" fill="white"/>
<path d="M177.758 38.8188C177.706 39.0797 177.68 39.2102 177.654 39.3667C176.948 39.2623 176.243 39.1841 175.695 39.8102C175.303 40.2537 175.199 40.7754 175.251 41.3233C175.355 42.5494 176.243 43.0972 177.941 42.9146C178.019 43.2016 177.941 43.3842 177.627 43.3842C177.183 43.3842 176.713 43.4364 176.269 43.3581C175.277 43.1494 174.65 42.2885 174.65 41.2189C174.65 40.0971 175.355 39.158 176.4 38.9232C176.844 38.8189 177.262 38.8449 177.758 38.8188Z" fill="white"/>
<path d="M157.756 43.332C157.573 43.332 157.416 43.332 157.26 43.332C157.26 41.845 157.26 40.4102 157.26 38.8971C158.069 38.8971 158.853 38.8971 159.662 38.8971C159.714 38.8971 159.845 39.0536 159.845 39.1058C159.845 39.1841 159.714 39.3145 159.636 39.3145C159.244 39.3406 158.853 39.3145 158.461 39.3145C158.252 39.3145 158.017 39.3145 157.782 39.3145C157.782 39.8102 157.756 40.2797 157.808 40.7493C157.808 40.8276 157.991 40.9319 158.121 40.9319C158.513 40.958 158.931 40.9319 159.349 40.9319C159.349 41.0885 159.349 41.1928 159.349 41.3493C159.009 41.3493 158.696 41.3493 158.383 41.3493C157.782 41.3493 157.782 41.3493 157.782 41.9233C157.756 42.3928 157.756 42.8363 157.756 43.332Z" fill="white"/>
<path d="M119.003 38.8971C119.003 39.0536 119.003 39.158 119.003 39.2884C118.663 39.2884 118.35 39.3145 118.01 39.2884C117.697 39.2623 117.566 39.3928 117.593 39.7058C117.619 40.8015 117.619 41.8972 117.619 42.9929C117.619 43.1233 117.54 43.3059 117.436 43.332C117.175 43.4103 117.07 43.3059 117.07 43.019C117.096 41.9233 117.07 40.8276 117.096 39.7319C117.096 39.3928 116.992 39.2623 116.652 39.2884C116.391 39.3145 116.13 39.3406 115.869 39.3145C115.791 39.3145 115.66 39.1841 115.66 39.1058C115.66 39.0275 115.791 38.8971 115.843 38.8971C116.914 38.8971 117.958 38.8971 119.003 38.8971Z" fill="white"/>
<path d="M95.97 38.8971C96.1006 39.2362 95.97 39.3406 95.6827 39.3145C95.3432 39.3145 94.8732 39.184 94.7165 39.3666C94.5337 39.5753 94.6121 40.0188 94.6121 40.358C94.6121 41.1928 94.6121 42.0537 94.6121 42.8885C94.6121 43.0711 94.6904 43.332 94.3509 43.332C94.0114 43.332 94.0637 43.0972 94.0637 42.9146C94.0637 41.845 94.0637 40.7754 94.0898 39.7058C94.0898 39.3666 93.9853 39.2362 93.6459 39.2623C93.3847 39.2884 93.1236 39.3145 92.8625 39.2884C92.7842 39.2884 92.6797 39.1579 92.6797 39.0797C92.6797 39.0014 92.8103 38.871 92.8625 38.871C93.907 38.8971 94.9516 38.8971 95.97 38.8971Z" fill="white"/>
<path d="M184.627 43.3058C184.627 42.7058 184.627 42.158 184.627 41.584C184.627 40.9579 184.601 40.3057 184.627 39.6796C184.627 39.3405 184.496 39.2883 184.209 39.2883C183.896 39.3144 183.556 39.2883 183.217 39.2883C183.217 39.1579 183.217 39.0535 183.217 38.9231C184.314 38.9231 185.41 38.9231 186.507 38.9231C186.638 39.2361 186.507 39.3405 186.194 39.3144C185.123 39.2883 185.123 39.2883 185.123 40.3579C185.123 41.1927 185.123 42.0536 185.149 42.8884C185.175 43.358 185.149 43.3841 184.627 43.3058Z" fill="white"/>
<path d="M188.779 43.332C188.57 43.332 188.413 43.332 188.204 43.332C188.204 42.0016 188.204 40.6711 188.204 39.3406C187.734 39.3406 187.29 39.3406 186.82 39.3406C186.82 39.2102 186.82 39.0797 186.82 38.9232C187.499 38.9232 188.178 38.9232 188.857 38.9232C189.197 38.9232 189.562 38.8971 189.902 38.9232C190.006 38.9232 190.085 39.0537 190.189 39.1319C190.085 39.2102 190.006 39.3145 189.902 39.3406C189.693 39.3667 189.458 39.3406 189.249 39.3145C188.883 39.2624 188.753 39.3928 188.753 39.7841C188.779 40.8537 188.779 41.9494 188.805 43.019C188.779 43.0972 188.779 43.2016 188.779 43.332Z" fill="white"/>
<path d="M165.303 42.9406C165.407 43.2537 165.277 43.358 164.989 43.358C164.337 43.358 163.658 43.358 163.005 43.358C162.796 43.358 162.691 43.3059 162.691 43.0711C162.691 41.7406 162.691 40.4101 162.691 39.1057C162.691 39.0536 162.718 39.0014 162.718 38.9492C162.874 38.9492 163.031 38.9492 163.214 38.9492C163.214 39.7579 163.214 40.5667 163.214 41.3754C163.214 41.7928 163.214 42.2363 163.188 42.6537C163.161 42.9145 163.266 42.9667 163.501 42.9667C164.102 42.9406 164.676 42.9406 165.303 42.9406Z" fill="white"/>
<path d="M84.168 38.9231C84.3769 38.9231 84.5336 38.9231 84.6903 38.9231C84.6903 39.9927 84.6903 41.0101 84.6903 42.0536C84.6903 42.9667 84.6642 42.9667 85.6043 42.9406C85.9698 42.9406 86.3615 42.9145 86.7271 42.9145C86.7532 42.9145 86.7794 42.9406 86.8316 42.9406C86.9099 43.2276 86.8576 43.358 86.5182 43.358C85.8653 43.358 85.1864 43.358 84.5336 43.358C84.3508 43.358 84.1941 43.358 84.1941 43.0971C84.168 41.7145 84.168 40.3318 84.168 38.9231Z" fill="white"/>
<path d="M77.8477 38.9231C78.0305 38.9231 78.2132 38.9231 78.396 38.9231C78.396 40.384 78.396 41.8449 78.396 43.3319C78.2132 43.3319 78.0566 43.3319 77.8477 43.3319C77.8477 41.8449 77.8477 40.4101 77.8477 38.9231Z" fill="white"/>
<path d="M98.4265 38.9231C98.6093 38.9231 98.766 38.9231 98.9488 38.9231C98.9488 40.384 98.9488 41.8188 98.9488 43.2797C98.4526 43.4363 98.4004 43.3841 98.4004 42.9145C98.4004 41.7145 98.4004 40.4884 98.4004 39.2883C98.4004 39.184 98.4004 39.0535 98.4265 38.9231Z" fill="white"/>
<path d="M161.255 38.897C161.255 39.8623 161.255 40.7754 161.255 41.6884C161.255 42.1319 161.255 42.6015 161.282 43.045C161.282 43.2276 161.229 43.3319 161.02 43.3319C160.811 43.3319 160.707 43.2537 160.707 43.045C160.707 41.7406 160.707 40.4623 160.707 39.1579C160.707 38.7405 161.02 38.9231 161.255 38.897Z" fill="white"/>
<path d="M191.546 38.9493C191.546 39.1841 191.546 39.4189 191.546 39.6798C191.546 40.7494 191.546 41.845 191.546 42.9146C191.546 43.1233 191.625 43.3842 191.259 43.3581C190.92 43.3581 190.998 43.1233 190.998 42.9146C190.998 41.7146 190.998 40.5407 190.998 39.3406C190.998 38.871 191.024 38.845 191.546 38.9493Z" fill="white"/>
<path d="M87.6922 38.9231C87.8749 38.9231 88.0055 38.9231 88.1883 38.9231C88.1883 39.0274 88.2145 39.1318 88.2145 39.2361C88.2145 40.4884 88.2145 41.7406 88.2145 43.0189C88.2145 43.2015 88.2406 43.3841 87.9533 43.3841C87.6661 43.3841 87.666 43.2276 87.666 43.0189C87.666 41.7667 87.666 40.5144 87.666 39.2361C87.666 39.1318 87.666 39.0274 87.6922 38.9231Z" fill="white"/>
</svg>
