<svg width="148" height="17" viewBox="0 0 148 17" fill="none" xmlns="http://www.w3.org/2000/svg">
<path d="M47.7324 16.4084C49.1164 10.93 50.4482 5.58202 51.8061 0.260129C52.0673 0.207953 52.2762 0.155795 52.4851 0.155795C63.8706 0.155795 75.256 0.129679 86.6676 0.207942C88.2344 0.207942 89.8535 0.755808 91.3681 1.25147C92.3865 1.56453 93.0393 2.4254 93.0654 3.67761C93.0915 4.95591 92.282 5.55593 91.3419 5.92115C90.0101 6.44291 88.6 6.78206 87.0593 7.27773C88.3389 7.43425 89.5401 7.46032 90.663 7.74728C92.2037 8.11251 93.7705 8.50382 95.1806 9.20819C97.5569 10.4082 97.6092 12.8344 95.3634 14.3214C93.1699 15.7562 90.6891 16.2519 88.1822 16.3302C83.1684 16.4606 78.1807 16.4084 73.167 16.4084C65.1501 16.4084 57.1594 16.4084 49.1426 16.4084C48.6986 16.4084 48.3069 16.4084 47.7324 16.4084ZM64.8368 11.8691C65.124 11.9213 65.3068 11.9735 65.5157 11.9735C68.6232 11.9735 71.7046 11.9996 74.8121 11.9474C75.4127 11.9474 76.0395 11.8692 76.5617 11.6083C76.9795 11.3996 77.5801 10.9039 77.5801 10.5387C77.5801 10.0169 77.2146 9.26037 76.7967 9.05167C76.0394 8.68644 75.1255 8.50385 74.2637 8.50385C71.7568 8.42559 69.2761 8.47774 66.7692 8.47774C66.2991 8.47774 65.8029 8.47774 65.3068 8.47774C65.124 9.70386 64.9673 10.7474 64.8368 11.8691ZM65.6724 5.52985C68.6754 5.52985 71.574 5.55592 74.4726 5.50374C75.2299 5.47765 76.2484 5.29504 76.1961 4.27762C76.1439 3.33846 75.1255 3.18195 74.3682 3.15586C71.809 3.0776 69.2499 3.05149 66.6908 3.05149C66.4558 3.05149 66.038 3.28632 65.9858 3.49502C65.803 4.1733 65.7507 4.87766 65.6724 5.52985Z" fill="white"/>
<path d="M143.465 5.63426C140.175 5.63426 137.015 5.63426 133.855 5.63426C131.949 5.63426 130.043 5.60815 128.136 5.66033C127.457 5.68642 126.961 5.50381 126.674 4.85162C126.152 3.67767 125.186 3.18201 124.01 3.18201C121.739 3.20809 119.441 3.20812 117.195 3.41682C115.941 3.52118 115.889 3.8081 116.333 5.00814C117.012 6.88645 117.717 8.7387 118.37 10.617C118.631 11.3996 119.101 11.8431 119.858 12.0257C122.835 12.6779 125.812 12.704 128.763 12.0518C130.173 11.7388 130.278 11.4257 129.651 10.0953C129.546 9.86048 129.442 9.65177 129.311 9.31263C129.755 9.28654 130.095 9.26044 130.408 9.26044C135.135 9.26044 139.861 9.28655 144.588 9.23437C145.319 9.23437 145.867 9.41699 146.259 10.0953C146.494 10.5388 146.834 10.93 147.095 11.3735C148.061 12.9649 147.852 14.0867 146.129 14.6606C144.17 15.3128 142.107 15.8346 140.07 16.0433C132.576 16.852 125.081 16.6955 117.586 16.4607C113.722 16.3302 109.857 16.0432 106.123 14.791C105.627 14.6084 105.13 14.4258 104.634 14.191C103.485 13.6432 102.702 12.8605 102.441 11.4518C102.049 9.31261 101.474 7.19954 100.952 5.08644C100.508 3.18203 100.926 1.982 102.754 1.46025C104.974 0.808055 107.298 0.260199 109.57 0.181936C115.837 0.0254095 122.104 -0.052868 128.371 0.208009C131.871 0.338448 135.37 1.01673 138.791 1.7211C141.376 2.26894 142.446 3.39071 143.465 5.63426Z" fill="white"/>
<path d="M15.7695 9.26053C15.665 9.57358 15.6128 9.70402 15.5606 9.83446C14.7772 11.5562 14.96 12.1041 16.7618 12.3128C18.5375 12.4954 20.3394 12.4432 22.1151 12.3389C23.1596 12.2867 23.8908 11.5823 24.3608 10.5388C25.771 7.38223 27.2856 4.27778 28.6957 1.14725C29.0091 0.442884 29.3746 0.10376 30.1841 0.10376C35.0151 0.155935 39.8461 0.129833 44.8077 0.129833C44.6771 0.599412 44.5988 0.964657 44.4682 1.32988C43.3976 4.51258 42.2486 7.66918 41.2301 10.8519C40.6295 12.7041 39.5066 14.0085 37.8093 14.5042C35.3546 15.2085 32.8216 15.939 30.2886 16.0433C24.2042 16.3303 18.0936 16.4086 12.0092 16.2781C9.16281 16.2259 6.26421 15.7042 3.47006 14.9998C0.310332 14.2172 -0.159694 12.391 1.7727 9.62575C1.90327 9.44314 2.21662 9.28664 2.45164 9.28664C6.89093 9.26055 11.2519 9.26053 15.7695 9.26053Z" fill="white"/>
</svg>
