<svg width="166" height="31" viewBox="0 0 166 31" fill="none" xmlns="http://www.w3.org/2000/svg">
<path d="M74.9197 30.6456C73.0799 30.6456 71.3931 30.6456 69.5004 30.6456C69.472 30.1129 69.421 29.5746 69.421 29.0362C69.4191 22.8575 69.4305 16.6807 69.4286 10.502C69.4286 7.95953 67.9816 6.31427 65.7395 6.26893C63.4463 6.2236 61.8143 7.91419 61.8067 10.4661C61.7859 16.541 61.8124 22.6158 61.8181 28.6925C61.8181 29.2988 61.8181 29.9033 61.8181 30.6135C59.9423 30.6135 58.2159 30.6135 56.2646 30.6135C56.2646 30.0563 56.2646 29.5123 56.2646 28.9664C56.2627 22.8915 56.2948 16.8148 56.2457 10.7419C56.2117 6.64861 57.8324 3.49598 61.5102 1.67883C65.1256 -0.106217 68.605 0.441574 71.769 2.9463C71.8861 3.03886 72.0259 3.10308 72.2185 3.2183C72.6643 2.90474 73.1158 2.57229 73.5804 2.2625C79.5117 -1.69103 87.7852 2.20017 88.0421 9.27423C88.2933 16.2142 88.0818 23.1711 88.0667 30.1205C88.0667 30.2622 87.9817 30.4019 87.9118 30.6267C86.1834 30.6267 84.4588 30.6267 82.5208 30.6267C82.5208 29.9883 82.5189 29.3895 82.5208 28.7907C82.551 22.7159 82.5926 16.6411 82.6058 10.5663C82.6114 7.93308 81.106 6.27271 78.7901 6.2746C76.6084 6.27649 75.0425 7.83486 75.0311 10.0997C75.0009 16.4843 75.0009 22.867 74.9858 29.2516C74.9839 29.652 74.948 30.0563 74.9197 30.6456Z" fill="white"/>
<path d="M136.724 5.90803C136.724 4.35343 136.653 3.01796 136.773 1.69948C136.806 1.3557 137.438 0.794683 137.799 0.792794C144.227 0.749349 150.661 0.637901 157.085 0.836239C161.475 0.970353 164.953 4.79355 165.002 9.19288C165.075 15.8797 165.026 22.5665 165.073 29.2534C165.081 30.3093 164.762 30.6814 163.666 30.6757C157.597 30.6455 151.528 30.7267 145.459 30.6852C140.668 30.6512 136.86 26.7789 136.807 22.0244C136.755 17.253 140.449 13.2994 145.249 13.1578C148.795 13.052 152.353 12.9991 155.893 13.1748C158.183 13.2881 159.907 11.6579 159.941 9.497C159.973 7.36439 158.275 5.90803 155.812 5.90614C150.155 5.90236 144.495 5.90803 138.838 5.90803C138.23 5.90803 137.622 5.90803 136.724 5.90803ZM160.005 18.0539C157.37 18.1521 155.032 18.273 152.693 18.3145C150.23 18.3561 147.765 18.2711 145.302 18.3334C143.371 18.3825 142.006 19.8956 141.96 21.8601C141.917 23.7679 143.292 25.4755 145.183 25.5057C149.801 25.5794 154.422 25.5303 159.04 25.4642C159.365 25.4604 159.953 24.9258 159.962 24.6217C160.041 22.3776 160.005 20.1279 160.005 18.0539Z" fill="white"/>
<path d="M124.937 5.94777C124.021 5.94777 123.314 5.94777 122.606 5.94777C116.945 5.94777 111.285 5.92888 105.624 5.95911C103.052 5.97233 101.378 7.72715 101.658 10.0033C101.884 11.8507 103.307 13.1408 105.231 13.1503C108.936 13.1692 112.642 13.0993 116.346 13.1522C120.32 13.2088 123.603 15.7268 124.75 19.4763C125.832 23.0124 124.519 26.9829 121.304 29.1118C120.107 29.9051 118.582 30.5984 117.188 30.6324C110.605 30.7967 104.019 30.7192 97.432 30.7192C97.2412 30.7192 97.0486 30.6305 96.6972 30.5436C96.6972 29.2024 96.7086 27.8764 96.6935 26.5523C96.6821 25.4926 97.4547 25.6323 98.0988 25.6286C101.289 25.6135 104.48 25.621 107.67 25.6172C110.553 25.6135 113.433 25.6323 116.314 25.5927C117.91 25.57 119.098 24.7672 119.659 23.2901C120.184 21.9036 120.073 20.4283 118.887 19.4574C118.159 18.8605 117.075 18.4393 116.134 18.4072C112.64 18.2882 109.138 18.3807 105.639 18.36C100.39 18.3297 96.497 14.567 96.4913 9.54241C96.4857 4.57452 100.454 0.762649 105.681 0.756982C111.548 0.751316 117.413 0.809873 123.28 0.766428C124.536 0.756983 125.069 1.0951 124.956 2.40791C124.861 3.52238 124.937 4.65007 124.937 5.94777Z" fill="white"/>
<path d="M23.7029 0.717285C25.42 0.717285 26.8933 0.717285 28.5707 0.717285C28.5707 3.23334 28.5669 5.68896 28.5707 8.14457C28.5782 12.0301 29.7777 13.2485 33.6066 13.2617C35.4596 13.2674 37.3108 13.2976 39.1638 13.2655C41.8593 13.2182 43.3554 11.7033 43.3743 9.01915C43.3932 6.30097 43.378 3.5828 43.378 0.756953C45.0025 0.756953 46.5042 0.756953 48.0928 0.756953C48.0928 4.6916 48.3082 8.55069 48.0267 12.372C47.7963 15.5057 44.825 17.8669 41.6289 18.0199C40.6145 18.069 39.5964 18.0275 38.3818 18.0275C38.3818 22.1963 38.3818 26.1801 38.3818 30.3622C36.916 30.3622 35.6372 30.451 34.3867 30.3018C34.0599 30.2621 33.5915 29.4876 33.5801 29.04C33.5103 26.0063 33.5443 22.9689 33.5461 19.9334C33.5461 19.3781 33.5461 18.8227 33.5461 18.0558C32.3183 18.0558 31.2568 18.0822 30.1952 18.0501C26.7668 17.95 24.1374 15.5341 23.7652 12.1434C23.6935 11.4804 23.7086 10.808 23.7067 10.1393C23.6991 7.06221 23.7029 3.98325 23.7029 0.717285Z" fill="white"/>
<path d="M0.660652 0.751221C2.18124 0.751221 3.6055 0.751221 5.19409 0.751221C5.22243 1.35001 5.26965 1.89403 5.26965 2.43804C5.27721 8.61107 5.27343 14.7841 5.2791 20.9571C5.28287 24.8162 6.41623 25.9572 10.2149 25.9572C13.7075 25.9572 17.202 25.9572 20.825 25.9572C20.825 27.5741 20.825 29.0739 20.825 30.7569C18.5111 30.7569 16.2614 30.7588 14.0116 30.7569C11.6958 30.755 9.37997 30.8117 7.06792 30.7286C3.55639 30.602 0.596429 27.8102 0.551095 24.3364C0.45287 16.673 0.520871 9.00775 0.526538 1.34246C0.528426 1.1989 0.590761 1.05156 0.660652 0.751221Z" fill="white"/>
<path d="M160.006 18.054C160.006 20.128 160.042 22.3758 159.963 24.6218C159.951 24.9259 159.366 25.4586 159.041 25.4642C154.423 25.5304 149.802 25.5795 145.184 25.5058C143.293 25.4756 141.918 23.768 141.961 21.8602C142.007 19.8957 143.372 18.3826 145.303 18.3335C147.766 18.2712 150.231 18.3562 152.694 18.3146C155.033 18.275 157.369 18.1522 160.006 18.054Z" fill="white"/>
</svg>
