<svg width="126" height="43" viewBox="0 0 126 43" fill="none" xmlns="http://www.w3.org/2000/svg">
<path d="M0.755859 42.4573C0.755859 28.3439 0.755859 14.3087 0.755859 0.169189C42.3546 0.169189 83.9012 0.169189 125.552 0.169189C125.552 14.2305 125.552 28.2917 125.552 42.4573C84.0056 42.4573 42.433 42.4573 0.755859 42.4573ZM122.523 39.5094C122.523 27.3004 122.523 15.2479 122.523 3.19536C82.8044 3.19536 43.1902 3.19536 3.49776 3.19536C3.49776 15.3261 3.49776 27.4048 3.49776 39.5094C43.1902 39.5094 82.8566 39.5094 122.523 39.5094Z" fill="white"/>
<path d="M29.1154 14.5696C27.5225 14.5696 26.1385 14.5696 24.5456 14.5696C24.5456 21.7959 24.5456 29.0222 24.5456 36.2485C22.1692 36.2485 19.9757 36.2485 17.6516 36.2485C17.6516 29.0222 17.6516 21.822 17.6516 14.5957C16.1109 14.5957 14.6747 14.5957 13.134 14.5957C13.134 21.7699 13.134 28.944 13.134 36.2224C10.836 36.2224 8.64246 36.2224 6.31836 36.2224C6.31836 26.3874 6.31836 16.5001 6.31836 6.50854C16.1109 6.50854 25.9296 6.50854 35.8527 6.50854C35.8527 16.3697 35.8527 26.2569 35.8527 36.2224C33.633 36.2224 31.4134 36.2224 29.0893 36.2224C29.1154 28.9961 29.1154 21.8481 29.1154 14.5696Z" fill="white"/>
<path d="M46.6105 36.2224C44.2603 36.2224 42.0668 36.2224 39.7949 36.2224C39.7949 26.3873 39.7949 16.474 39.7949 6.48242C46.1144 6.48242 52.4338 6.48242 58.8577 6.48242C58.8577 16.3957 58.8577 26.283 58.8577 36.2224C56.6642 36.2224 54.4446 36.2224 52.1205 36.2224C52.1205 33.5093 52.1205 30.8483 52.1205 28.1091C50.2925 28.1091 48.5429 28.1091 46.6366 28.1091C46.6105 30.7962 46.6105 33.4571 46.6105 36.2224ZM51.9377 14.6479C50.1358 14.6479 48.3863 14.6479 46.6889 14.6479C46.6889 16.8132 46.6889 18.848 46.6889 20.8567C48.5168 20.8567 50.2403 20.8567 51.9377 20.8567C51.9377 18.7175 51.9377 16.7088 51.9377 14.6479Z" fill="white"/>
<path d="M62.7227 6.48242C65.0206 6.48242 67.2142 6.48242 69.486 6.48242C69.486 10.2651 69.486 13.9696 69.486 17.7784C71.6273 17.7784 73.6903 17.7784 75.8577 17.7784C75.8577 14.0218 75.8577 10.3173 75.8577 6.50851C78.1818 6.50851 80.4015 6.50851 82.6994 6.50851C82.6994 16.3957 82.6994 26.2308 82.6994 36.1963C80.4798 36.1963 78.2602 36.1963 75.9361 36.1963C75.9361 32.5179 75.9361 28.8135 75.9361 25.0047C73.7948 25.0047 71.7579 25.0047 69.5644 25.0047C69.5644 28.683 69.5644 32.4136 69.5644 36.2485C67.2142 36.2485 64.9945 36.2485 62.7227 36.2485C62.7227 26.283 62.7227 16.4479 62.7227 6.48242Z" fill="white"/>
<path d="M111.894 13.4739C111.894 15.0131 111.894 16.3697 111.894 17.8306C114.558 17.8306 117.169 17.8306 119.859 17.8306C119.859 20.2306 119.859 22.5003 119.859 24.8482C117.195 24.8482 114.61 24.8482 111.921 24.8482C111.921 26.3352 111.921 27.7178 111.921 29.2048C114.506 29.2048 117.117 29.2048 119.833 29.2048C119.833 31.5788 119.833 33.8484 119.833 36.1963C114.924 36.1963 110.04 36.1963 105.053 36.1963C105.053 26.3091 105.053 16.4479 105.053 6.48242C109.936 6.48242 114.871 6.48242 119.859 6.48242C119.859 8.77814 119.859 11.0478 119.859 13.4478C117.222 13.4739 114.61 13.4739 111.894 13.4739Z" fill="white"/>
<path d="M101.163 29.2309C101.163 31.6831 101.163 33.9528 101.163 36.2746C96.2274 36.2746 91.3703 36.2746 86.4609 36.2746C86.4609 26.3352 86.4609 16.4479 86.4609 6.48242C88.7067 6.48242 90.9002 6.48242 93.2505 6.48242C93.2505 14.0218 93.2505 21.5872 93.2505 29.2309C95.9663 29.2309 98.5254 29.2309 101.163 29.2309Z" fill="white"/>
</svg>
