<svg width="218" height="46" viewBox="0 0 218 46" fill="none" xmlns="http://www.w3.org/2000/svg">
<path d="M34.209 17.1662C33.2951 17.9227 32.7728 18.288 32.3288 18.7315C29.7697 21.0793 27.1584 23.4011 24.7037 25.8273C23.4503 27.0534 22.5885 26.9491 21.3612 25.8012C18.7237 23.349 15.9818 21.0272 13.266 18.6793C12.8221 18.288 12.3259 17.9227 11.5425 17.3227C11.4381 18.2358 11.3336 18.8619 11.3075 19.4619C11.2814 21.6533 11.2553 23.8446 11.3075 26.036C11.3336 27.1056 10.9419 27.6013 9.81903 27.6013C7.12934 27.5752 4.43967 27.5491 1.77609 27.6013C0.6271 27.6274 0.339844 27.0534 0.339844 26.036C0.365957 18.1836 0.365957 10.3051 0.339844 2.45273C0.339844 1.38313 0.679313 0.887466 1.80219 0.913553C4.36131 0.965729 6.92044 0.83529 9.47956 0.965729C10.2891 1.0179 11.2292 1.51357 11.882 2.06141C15.2245 4.90497 18.5409 7.80071 21.779 10.7486C22.7974 11.6878 23.5025 11.7139 24.4948 10.6704C27.2889 7.77462 30.1353 4.93106 33.0861 2.19185C33.8173 1.51357 34.9663 0.965729 35.9325 0.939642C40.4501 0.809203 44.9678 0.939641 49.4854 0.861378C50.9739 0.83529 51.3656 1.4614 51.3656 2.79187C51.3656 7.87897 51.6789 6.86155 47.3702 6.99199C45.7773 7.04416 44.1844 6.91372 42.6176 7.07025C42.0953 7.12243 41.6514 7.82679 41.1813 8.21811C41.6514 8.63551 42.1214 9.39205 42.6176 9.41814C44.9156 9.54858 47.2396 9.54858 49.5637 9.47032C50.8172 9.41814 51.3656 9.86163 51.3395 11.1138C51.3133 16.1227 51.3133 21.1054 51.3395 26.1143C51.3395 27.21 50.8955 27.6274 49.7988 27.6013C45.1506 27.5752 40.5285 27.5752 35.8803 27.6013C34.6007 27.6013 34.1829 27.1317 34.209 25.8534C34.2612 23.1403 34.209 20.4272 34.209 17.1662Z" fill="white"/>
<path d="M83.6674 10.54C84.7119 10.0965 85.4431 9.57472 86.2265 9.52255C88.6028 9.4182 90.9792 9.52255 93.3555 9.47037C94.5567 9.44429 95.0006 9.88778 94.9745 11.0617C94.9484 12.6531 94.9484 14.2444 95.0267 15.8097C95.1051 17.1402 94.5828 17.6619 93.2249 17.6358C90.5352 17.5576 87.8455 17.5576 85.182 17.688C84.5291 17.7141 83.8763 18.3924 83.2234 18.7576C83.8763 19.1228 84.5291 19.775 85.2081 19.8011C87.8977 19.9315 90.5613 19.8794 93.251 19.8272C94.4783 19.8011 95.0267 20.2446 95.0006 21.5229C94.9484 24.0795 95.0529 26.6361 94.9745 29.1927C94.8701 32.8971 91.8931 35.8711 88.1589 35.9755C84.6858 36.0537 81.2127 36.0276 77.7396 36.0016C74.4493 35.9755 72.1252 33.758 71.7335 30.1318C72.3602 30.0797 72.987 29.9753 73.6398 29.9753C76.5123 29.9492 79.3848 30.0275 82.2311 29.897C82.8578 29.8709 83.4323 29.2188 84.033 28.8535C83.4062 28.4361 82.8318 27.7839 82.1789 27.6535C81.1866 27.4448 80.116 27.6013 79.0714 27.5752C75.8856 27.5491 73.5615 26.0361 72.1775 23.2708C70.5584 20.0881 70.7673 16.8271 72.2558 13.5922C73.8487 10.0704 79.8026 7.82685 83.6674 10.54Z" fill="white"/>
<path d="M110.565 26.5578C108.371 27.9404 105.551 27.9144 102.705 27.1056C99.8585 26.2969 98.135 23.9751 98.0827 21.0011C98.0305 17.7141 98.0827 14.427 98.0305 11.14C98.0044 9.91385 98.3961 9.3921 99.7018 9.41818C102.209 9.49645 104.716 9.49645 107.196 9.41818C108.58 9.36601 109.024 9.91385 108.972 11.2443C108.92 13.6183 108.946 15.9923 108.972 18.3663C108.972 19.3054 108.659 20.6359 110.069 20.662C111.636 20.6881 111.27 19.2532 111.296 18.288C111.348 15.914 111.374 13.54 111.296 11.1661C111.27 9.93994 111.61 9.3921 112.941 9.44427C115.37 9.52253 117.825 9.52253 120.253 9.44427C121.454 9.41818 121.846 9.88776 121.846 11.0356C121.82 16.0445 121.82 21.0272 121.846 26.036C121.846 27.2361 121.376 27.6274 120.227 27.6013C117.903 27.5491 115.579 27.6535 113.281 27.5491C112.576 27.523 111.818 27.0274 110.565 26.5578Z" fill="white"/>
<path d="M193.737 27.5752C193.006 24.0012 193.424 21.0794 196.218 18.7315C197.523 17.6358 198.542 16.1488 199.665 14.8705C199.586 14.6879 199.508 14.5053 199.43 14.3487C197.993 14.3487 196.557 14.2966 195.121 14.3748C193.868 14.427 193.319 13.9313 193.45 12.653C193.502 12.053 193.476 11.4269 193.45 10.8269C193.397 9.91383 193.789 9.49642 194.729 9.52251C201.675 9.5486 208.648 9.5486 215.594 9.52251C216.665 9.52251 216.9 10.0182 216.978 10.9573C217.109 13.0444 216.847 14.8444 215.228 16.4358C213.557 18.0793 212.173 20.0359 210.658 21.8359C210.711 22.0446 210.763 22.2533 210.789 22.4359C212.251 22.4359 213.74 22.4881 215.202 22.4098C216.534 22.3316 217.03 22.8272 217.004 24.1838C216.926 28.1752 217.344 27.6535 213.635 27.6796C207.969 27.7056 202.276 27.7056 196.609 27.7056C195.695 27.7056 194.729 27.6274 193.737 27.5752Z" fill="white"/>
<path d="M163.836 14.3748C163.836 18.2097 163.81 22.0446 163.862 25.8795C163.888 27.1056 163.496 27.6273 162.191 27.6013C159.135 27.523 156.106 27.5491 153.051 27.6013C151.824 27.6273 151.354 27.2099 151.354 25.9316C151.406 18.2097 151.432 10.4616 151.38 2.73968C151.38 1.35703 151.85 0.965719 153.181 0.991806C156.158 1.07007 159.161 1.07007 162.138 0.991806C163.444 0.965719 163.836 1.48747 163.836 2.71359C163.81 6.57457 163.836 10.4877 163.836 14.3748Z" fill="white"/>
<path d="M148.585 17.5575C145.19 17.5575 141.978 17.5835 138.766 17.5053C138.427 17.5053 138.114 16.827 137.748 16.4879C137.33 16.1226 136.86 15.8357 136.416 15.4965C136.103 15.9661 135.581 16.3835 135.476 16.9053C135.111 19.1227 135.737 19.7749 137.957 19.801C141.404 19.8271 144.877 19.801 148.533 19.801C148.22 22.3054 147.018 23.9229 145.321 25.1751C140.908 28.4882 132.682 28.5143 128.191 25.3055C123.307 21.7837 123.438 14.8965 128.478 11.5573C132.813 8.68764 140.934 8.73981 145.217 11.7138C147.149 13.0965 148.376 14.8443 148.585 17.5575Z" fill="white"/>
<path d="M190.76 17.401C187.104 17.401 183.709 17.401 180.21 17.401C180.105 17.0879 180.079 16.6705 179.87 16.4618C179.478 16.0705 179.008 15.6009 178.538 15.5749C178.251 15.5488 177.729 16.2531 177.624 16.6966C177.102 18.8358 177.859 19.7489 180.105 19.7489C183.578 19.775 187.025 19.7489 190.733 19.7489C190.159 22.8533 188.488 24.7838 186.033 25.9578C181.437 28.123 176.684 28.3057 172.036 26.2447C168.641 24.7316 166.657 22.0707 166.787 18.2097C166.918 14.3226 169.111 11.8704 172.558 10.5138C176.841 8.84423 181.202 9.02684 185.432 10.6443C188.331 11.7661 190.289 13.827 190.76 17.401Z" fill="white"/>
<path d="M68.0265 18.5488C68.0265 21.0533 67.9743 23.5316 68.0526 26.036C68.0787 27.21 67.6348 27.6535 66.4597 27.6274C63.4044 27.5752 60.3752 27.5752 57.32 27.6274C56.1188 27.6535 55.7271 27.1578 55.7532 26.0099C55.8054 21.0272 55.8054 16.0183 55.7532 11.0356C55.7532 9.83555 56.1449 9.44424 57.3461 9.47033C60.4014 9.5225 63.4305 9.5225 66.4858 9.47033C67.687 9.44424 68.0787 9.91382 68.0526 11.0878C67.9743 13.54 68.0265 16.0444 68.0265 18.5488Z" fill="white"/>
<path d="M136.077 7.0963C134.562 7.0963 133.048 7.0963 131.507 7.0963C130.228 7.0963 129.836 6.39193 129.836 5.24407C129.836 4.07013 130.254 3.39185 131.533 3.39185C134.51 3.39185 137.487 3.39185 140.464 3.39185C141.744 3.39185 142.135 4.14839 142.162 5.27016C142.188 6.44411 141.718 7.12239 140.464 7.12239C139.002 7.0963 137.539 7.0963 136.077 7.0963Z" fill="white"/>
<path d="M61.916 3.33969C63.3783 3.33969 64.8407 3.33969 66.303 3.33969C67.6609 3.33969 68.0526 4.12232 68.0265 5.34844C68.0265 6.60065 67.4781 7.09632 66.2508 7.09632C63.3261 7.07023 60.4014 7.07023 57.5028 7.09632C56.1188 7.09632 55.7793 6.31368 55.7793 5.08756C55.7793 3.83535 56.3538 3.3136 57.555 3.3136C58.9912 3.33969 60.4536 3.33969 61.916 3.33969Z" fill="white"/>
<path d="M158.536 37.4102C158.64 37.4624 158.692 37.5668 158.692 37.645C158.718 37.7494 158.692 37.8277 158.614 37.932C158.562 38.0103 158.483 38.0624 158.405 38.0624C158.327 38.0624 158.248 38.0364 158.144 38.0103C157.857 37.8016 157.543 37.6711 157.178 37.5407C156.838 37.4363 156.473 37.3842 156.081 37.3842C155.611 37.3842 155.141 37.4624 154.749 37.645C154.331 37.8277 153.966 38.0624 153.652 38.3755C153.339 38.6885 153.104 39.0538 152.947 39.4973C152.765 39.9408 152.686 40.4103 152.686 40.9321C152.686 41.4799 152.765 41.9495 152.947 42.393C153.13 42.8365 153.365 43.2017 153.679 43.5148C153.992 43.8278 154.358 44.0626 154.775 44.2452C155.193 44.4017 155.637 44.5061 156.107 44.5061C156.499 44.5061 156.864 44.4539 157.204 44.3496C157.543 44.2452 157.857 44.0887 158.17 43.9061C158.248 43.8539 158.327 43.8539 158.431 43.8539C158.51 43.8539 158.588 43.9061 158.666 43.9844C158.718 44.0626 158.745 44.167 158.745 44.2713C158.718 44.3757 158.666 44.4539 158.588 44.5061C158.379 44.6365 158.17 44.7409 157.883 44.8713C157.622 44.9757 157.334 45.08 157.021 45.1322C156.734 45.1844 156.42 45.2366 156.133 45.2366C155.559 45.2366 155.036 45.1322 154.54 44.9235C154.044 44.7148 153.6 44.4278 153.209 44.0626C152.817 43.6974 152.53 43.2278 152.295 42.7321C152.086 42.2104 151.955 41.6365 151.955 40.9843C151.955 40.3582 152.06 39.8103 152.268 39.2886C152.477 38.7668 152.791 38.3233 153.156 37.9581C153.548 37.5668 153.966 37.2798 154.488 37.0711C154.984 36.8624 155.533 36.7581 156.107 36.7581C156.551 36.7581 156.995 36.8102 157.413 36.9407C157.804 37.0189 158.196 37.1755 158.536 37.4102Z" fill="white"/>
<path d="M167.728 37.7234L164.856 44.8714C164.83 44.9497 164.778 45.0018 164.725 45.054C164.673 45.1062 164.595 45.1062 164.543 45.1062C164.412 45.1062 164.334 45.0801 164.282 45.0279C164.229 44.9758 164.203 44.8975 164.203 44.8192C164.203 44.7671 164.203 44.741 164.203 44.6888L167.337 37.0451C167.363 36.9668 167.415 36.8886 167.467 36.8625C167.52 36.8364 167.598 36.8103 167.676 36.8103C167.755 36.8103 167.833 36.8364 167.885 36.8625C167.937 36.9146 167.99 36.9668 168.016 37.0451L171.123 44.6627C171.149 44.7149 171.149 44.7671 171.149 44.7931C171.149 44.8975 171.123 44.9758 171.045 45.054C170.967 45.1062 170.888 45.1323 170.784 45.1323C170.705 45.1323 170.627 45.1062 170.575 45.0801C170.523 45.0279 170.47 44.9757 170.444 44.8975L167.493 37.6973L167.728 37.7234ZM165.535 42.7061L165.822 42.0018H169.504L169.635 42.7061H165.535Z" fill="white"/>
<path d="M180.836 36.8103C181.489 36.8103 182.011 36.9929 182.403 37.3581C182.769 37.7234 182.978 38.219 182.978 38.8451C182.978 39.1843 182.899 39.4973 182.769 39.8104C182.638 40.1234 182.403 40.3582 182.142 40.5408C181.855 40.7235 181.515 40.8278 181.124 40.8539L181.071 40.6191C181.359 40.6191 181.646 40.6713 181.933 40.7495C182.22 40.8278 182.455 40.9582 182.69 41.1409C182.925 41.3235 183.082 41.5583 183.239 41.8191C183.369 42.08 183.448 42.4192 183.448 42.8105C183.448 43.2279 183.369 43.567 183.239 43.8801C183.108 44.167 182.925 44.4279 182.664 44.6105C182.429 44.7931 182.168 44.9236 181.855 45.0018C181.568 45.0801 181.254 45.1323 180.915 45.1323H177.729C177.624 45.1323 177.546 45.1062 177.468 45.0279C177.389 44.9497 177.363 44.8714 177.363 44.767V37.2016C177.363 37.0973 177.389 37.019 177.468 36.9407C177.546 36.8625 177.624 36.8364 177.729 36.8364H180.836V36.8103ZM180.732 37.5147H177.964L178.094 37.2799V40.6191L177.964 40.4365H180.732C181.15 40.4365 181.489 40.3061 181.776 40.0452C182.064 39.7843 182.194 39.393 182.194 38.8973C182.194 38.4799 182.064 38.1408 181.803 37.8799C181.568 37.6451 181.202 37.5147 180.732 37.5147ZM180.836 41.193H178.042L178.094 41.0887V44.4801L178.016 44.3757H180.836C181.359 44.3757 181.776 44.2453 182.116 43.9844C182.455 43.7235 182.638 43.3322 182.638 42.7583C182.638 42.367 182.56 42.0539 182.377 41.8191C182.22 41.5844 181.985 41.4278 181.724 41.3235C181.437 41.2191 181.15 41.193 180.836 41.193Z" fill="white"/>
<path d="M194.363 44.3757C194.467 44.3757 194.546 44.4018 194.624 44.48C194.702 44.5583 194.728 44.6366 194.728 44.7148C194.728 44.8192 194.702 44.8975 194.624 44.9757C194.546 45.054 194.467 45.0801 194.363 45.0801H190.159C190.054 45.0801 189.976 45.054 189.897 44.9757C189.819 44.8975 189.793 44.8192 189.793 44.7148V37.1494C189.793 37.0451 189.819 36.9668 189.897 36.8885C189.976 36.8103 190.054 36.7842 190.159 36.7842C190.263 36.7842 190.341 36.8103 190.42 36.8885C190.498 36.9668 190.524 37.0451 190.524 37.1494V44.5844L190.289 44.3757H194.363Z" fill="white"/>
<path d="M201.178 36.8103H205.513C205.617 36.8103 205.696 36.8364 205.774 36.9147C205.852 36.9929 205.879 37.0712 205.879 37.1755C205.879 37.2799 205.852 37.3581 205.774 37.4364C205.696 37.4886 205.617 37.5408 205.513 37.5408H201.439L201.57 37.3321V40.6452L201.439 40.4887H204.991C205.095 40.4887 205.173 40.5148 205.252 40.593C205.33 40.6713 205.356 40.7495 205.356 40.8539C205.356 40.9582 205.33 41.0365 205.252 41.1148C205.173 41.1669 205.095 41.2191 204.991 41.2191H201.465L201.57 41.0887V44.5062L201.518 44.4279H205.513C205.617 44.4279 205.696 44.454 205.774 44.5323C205.852 44.6105 205.879 44.6888 205.879 44.7931C205.879 44.8975 205.852 44.9758 205.774 45.054C205.696 45.1062 205.617 45.1584 205.513 45.1584H201.178C201.074 45.1584 200.995 45.1323 200.917 45.054C200.839 44.9758 200.812 44.8975 200.812 44.7931V37.2277C200.812 37.1234 200.839 37.0451 200.917 36.9668C200.995 36.8364 201.1 36.8103 201.178 36.8103Z" fill="white"/>
<path d="M214.601 45.2105C214 45.2105 213.478 45.1322 213.034 44.9235C212.59 44.7409 212.172 44.4279 211.754 44.0365C211.702 43.9844 211.676 43.9583 211.65 43.9061C211.624 43.8539 211.598 43.8018 211.598 43.7496C211.598 43.6452 211.624 43.567 211.702 43.4887C211.78 43.4104 211.859 43.3583 211.963 43.3583C212.068 43.3583 212.146 43.4104 212.224 43.4887C212.538 43.8278 212.877 44.0626 213.269 44.2452C213.661 44.4279 214.078 44.5061 214.522 44.5061C214.914 44.5061 215.227 44.4539 215.541 44.3235C215.828 44.1931 216.063 44.0365 216.246 43.8018C216.429 43.5931 216.507 43.3322 216.507 43.0452C216.507 42.68 216.403 42.393 216.194 42.1582C216.011 41.9495 215.75 41.7408 215.41 41.6104C215.097 41.4539 214.731 41.3234 214.34 41.2191C214.026 41.1147 213.713 41.0104 213.399 40.8799C213.112 40.7495 212.851 40.6191 212.616 40.4364C212.381 40.2538 212.224 40.0451 212.094 39.7842C211.963 39.5234 211.911 39.2103 211.911 38.8451C211.911 38.4277 212.015 38.0625 212.25 37.7233C212.459 37.3842 212.773 37.1494 213.191 36.9668C213.608 36.7842 214.078 36.6798 214.601 36.6798C215.071 36.6798 215.515 36.7581 215.933 36.9146C216.35 37.0711 216.716 37.3059 216.951 37.619C217.081 37.7494 217.134 37.8538 217.134 37.9581C217.134 38.0364 217.081 38.1146 217.003 38.1929C216.925 38.2712 216.846 38.2972 216.742 38.2972C216.664 38.2972 216.585 38.2712 216.533 38.219C216.403 38.0625 216.22 37.9059 216.011 37.7755C215.802 37.6451 215.567 37.5407 215.332 37.4624C215.071 37.3842 214.836 37.3581 214.548 37.3581C214.183 37.3581 213.843 37.4103 213.556 37.5407C213.269 37.6451 213.034 37.8277 212.851 38.0364C212.668 38.2451 212.59 38.5059 212.59 38.819C212.59 39.1581 212.694 39.419 212.877 39.6277C213.06 39.8364 213.321 40.019 213.635 40.1495C213.948 40.2799 214.261 40.4104 214.627 40.5408C214.966 40.6451 215.28 40.7495 215.593 40.8538C215.906 40.9843 216.194 41.1408 216.429 41.2973C216.664 41.4799 216.846 41.7147 217.003 41.9756C217.134 42.2626 217.212 42.6017 217.212 43.0191C217.212 43.4104 217.108 43.7757 216.873 44.1148C216.638 44.4279 216.324 44.6887 215.933 44.8714C215.593 45.1061 215.123 45.1844 214.601 45.2105Z" fill="white"/>
</svg>
