<svg width="150" height="37" viewBox="0 0 150 37" fill="none" xmlns="http://www.w3.org/2000/svg">
<g clip-path="url(#clip0_312_508)">
<path opacity="0.982" fill-rule="evenodd" clip-rule="evenodd" d="M126.592 -0.0297241C126.904 -0.0297241 127.217 -0.0297241 127.529 -0.0297241C128.718 0.50256 129.079 1.39341 128.613 2.64283C128.074 3.43883 127.342 3.70609 126.416 3.44459C125.369 2.89337 125.047 2.05201 125.449 0.920517C125.702 0.435979 126.083 0.119232 126.592 -0.0297241Z" fill="white"/>
<path opacity="0.994" fill-rule="evenodd" clip-rule="evenodd" d="M-0.0292969 27.2303C-0.0292969 21.034 -0.0292969 14.8376 -0.0292969 8.64123C0.323677 7.42278 1.12446 6.71996 2.37305 6.53288C5.49805 6.49327 8.62307 6.49327 11.748 6.53288C14.0881 6.76278 15.7775 7.94072 16.8164 10.0666C17.0548 10.6174 17.2111 11.1916 17.2852 11.7889C17.3145 16.936 17.3242 22.0832 17.3145 27.2303C16.2205 27.2402 15.1268 27.2303 14.0332 27.2006C13.9062 27.1511 13.8183 27.0621 13.7695 26.9334C13.692 21.9076 13.653 16.8792 13.6523 11.8483C13.3887 10.8684 12.7734 10.2448 11.8066 9.97751C9.05279 9.94781 6.29889 9.93789 3.54492 9.94781C3.55469 15.6097 3.54492 21.2715 3.51563 26.9334C3.4668 27.0621 3.37891 27.1511 3.25195 27.2006C2.15838 27.2303 1.06463 27.2402 -0.0292969 27.2303Z" fill="white"/>
<path opacity="0.991" fill-rule="evenodd" clip-rule="evenodd" d="M27.8027 6.50323C30.0503 6.47692 32.2964 6.50661 34.541 6.59231C37.0616 7.08816 38.6924 8.58283 39.4336 11.0763C39.5368 11.5456 39.5954 12.0207 39.6094 12.5016C39.6636 14.2848 39.6441 16.0665 39.5508 17.8467C39.4511 18.2247 39.207 18.4326 38.8184 18.4703C34.502 18.5 30.1856 18.5099 25.8692 18.5C25.8594 19.6286 25.8692 20.757 25.8985 21.8853C26.2067 23.0175 26.9391 23.661 28.0957 23.8154C31.5723 23.8352 35.0489 23.855 38.5254 23.8748C38.5938 23.9441 38.6621 24.0134 38.7305 24.0827C38.7598 25.1318 38.7696 26.1809 38.7598 27.2304C34.891 27.2586 31.0238 27.2289 27.1582 27.1413C24.9334 26.6879 23.4001 25.3912 22.5586 23.2512C22.4162 22.8464 22.3185 22.4307 22.2656 22.004C22.2266 18.599 22.2266 15.194 22.2656 11.7889C22.8742 8.68742 24.7199 6.92549 27.8027 6.50323ZM27.8027 9.94785C29.8927 9.93793 31.9825 9.94785 34.0723 9.97755C35.0133 10.2384 35.6285 10.8423 35.918 11.7889C35.999 12.8559 36.0283 13.925 36.0059 14.996C32.6269 14.996 29.2481 14.996 25.8692 14.996C25.8594 13.9466 25.8692 12.8974 25.8985 11.8483C26.1793 10.841 26.8141 10.2075 27.8027 9.94785Z" fill="white"/>
<path opacity="0.988" fill-rule="evenodd" clip-rule="evenodd" d="M58.7402 6.50323C59.7756 6.49331 60.8109 6.50323 61.8457 6.53293C62.056 6.57765 62.1732 6.70635 62.1973 6.91896C60.5695 10.2583 58.9096 13.5842 57.2168 16.8965C58.8475 20.1233 60.4787 23.3502 62.1094 26.5771C62.1996 26.8514 62.1117 27.0395 61.8457 27.1413C60.7324 27.1809 59.6191 27.1809 58.5059 27.1413C58.3185 27.0909 58.1525 27.0018 58.0078 26.874C56.4694 23.8941 54.946 20.9047 53.4375 17.9061C53.1286 17.2996 53.1091 16.686 53.3789 16.065C54.8587 13.1642 56.3235 10.2541 57.7734 7.33469C57.9487 6.86907 58.271 6.5919 58.7402 6.50323Z" fill="white"/>
<path opacity="0.993" fill-rule="evenodd" clip-rule="evenodd" d="M69.4043 36.9703C68.2131 36.9703 67.0213 36.9703 65.8301 36.9703C65.8201 27.1907 65.8301 17.4111 65.8594 7.6316C65.9935 7.00082 66.3744 6.63456 67.0019 6.53288C70.5369 6.49327 74.0725 6.49327 77.6074 6.53288C80.0637 6.76308 81.7922 8.02019 82.793 10.3042C83.0033 10.84 83.1398 11.3943 83.2031 11.9671C83.2424 15.2533 83.2424 18.5396 83.2031 21.8258C82.7994 24.4528 81.3439 26.1652 78.8379 26.9631C78.5109 27.053 78.1793 27.1124 77.8418 27.1412C75.0486 27.1709 72.256 27.1808 69.4629 27.1709C69.4822 30.4417 69.4629 33.7081 69.4043 36.9703ZM69.4629 10.0072C72.1975 9.99728 74.9314 10.0072 77.666 10.0369C78.6932 10.2859 79.3277 10.9294 79.5703 11.9671C79.6096 15.2731 79.6096 18.5791 79.5703 21.8852C79.2551 23.0164 78.5226 23.6598 77.373 23.8154C74.7363 23.8451 72.0996 23.855 69.4629 23.8451C69.4629 19.2324 69.4629 14.6198 69.4629 10.0072Z" fill="white"/>
<path opacity="0.99" fill-rule="evenodd" clip-rule="evenodd" d="M93.6621 6.50323C95.9098 6.47692 98.1557 6.50661 100.4 6.59231C103.066 7.13621 104.716 8.74966 105.352 11.4326C105.447 13.5491 105.466 15.6673 105.41 17.7873C105.327 18.2281 105.063 18.4557 104.619 18.4703C100.303 18.5 95.9865 18.5099 91.6699 18.5C91.6442 19.651 91.6735 20.7992 91.7578 21.9446C92.0614 23.0836 92.7938 23.7072 93.9551 23.8154C97.4315 23.8352 100.908 23.855 104.385 23.8748C104.476 23.9469 104.544 24.036 104.59 24.1421C104.619 25.1713 104.629 26.2007 104.619 27.2304C100.75 27.2586 96.883 27.2289 93.0176 27.1413C90.6305 26.6221 89.0584 25.1868 88.3008 22.8355C88.1719 22.369 88.094 21.8939 88.0664 21.4101C88.0272 18.3615 88.0272 15.3127 88.0664 12.2641C88.3026 9.67626 89.601 7.88464 91.9629 6.88926C92.5237 6.6947 93.0897 6.566 93.6621 6.50323ZM93.6621 9.94785C95.7715 9.93793 97.8809 9.94785 99.9903 9.97755C100.957 10.2448 101.572 10.8684 101.836 11.8483C101.865 12.8974 101.875 13.9466 101.865 14.996C98.4862 14.996 95.1076 14.996 91.7285 14.996C91.7186 14.0654 91.7285 13.1349 91.7578 12.2047C91.9225 11.0384 92.5571 10.2862 93.6621 9.94785Z" fill="white"/>
<path opacity="0.993" fill-rule="evenodd" clip-rule="evenodd" d="M115.928 6.50323C117.432 6.50323 118.935 6.50323 120.439 6.50323C120.449 7.55266 120.439 8.60184 120.41 9.65091C120.364 9.75698 120.296 9.84606 120.205 9.91816C118.703 9.97868 117.199 10.0381 115.693 10.0963C114.664 10.4466 114.088 11.1692 113.965 12.2641C113.945 17.1737 113.926 22.0832 113.906 26.9928C113.858 27.1215 113.77 27.2106 113.643 27.2601C112.529 27.2898 111.416 27.2997 110.303 27.2898C110.293 22.3802 110.303 17.4706 110.332 12.561C110.475 9.66647 111.891 7.73629 114.58 6.77049C115.032 6.65468 115.482 6.56559 115.928 6.50323Z" fill="white"/>
<path opacity="0.984" fill-rule="evenodd" clip-rule="evenodd" d="M125.186 6.50323C126.26 6.49331 127.334 6.50323 128.408 6.53293C128.588 6.57682 128.715 6.68568 128.789 6.85957C128.818 13.6498 128.828 20.4401 128.818 27.2304C127.724 27.2403 126.63 27.2304 125.537 27.2007C125.365 27.1258 125.258 26.9971 125.215 26.8146C125.186 20.0442 125.176 13.2737 125.186 6.50323Z" fill="white"/>
<path opacity="0.991" fill-rule="evenodd" clip-rule="evenodd" d="M149.971 11.8483C149.971 16.7183 149.971 21.5883 149.971 26.4583C149.783 26.8764 149.47 27.1635 149.033 27.3194C145.34 27.3773 141.649 27.3575 137.959 27.2601C135.286 26.6098 133.695 24.9172 133.184 22.1822C133.144 21.1528 133.144 20.1233 133.184 19.0939C133.734 16.2595 135.404 14.5471 138.193 13.9567C140.926 13.8706 143.661 13.8409 146.397 13.8676C146.406 13.3723 146.397 12.8774 146.367 12.3828C146.262 11.128 145.608 10.346 144.404 10.0369C141.514 10.0172 138.623 9.99733 135.732 9.97755C135.567 9.92808 135.459 9.81916 135.41 9.6509C135.381 8.60184 135.371 7.55265 135.381 6.50323C138.389 6.49331 141.397 6.50323 144.404 6.53293C147.523 6.95169 149.378 8.72347 149.971 11.8483ZM138.721 17.3122C141.28 17.3122 143.838 17.3122 146.397 17.3122C146.397 19.4899 146.397 21.6675 146.397 23.8451C143.936 23.855 141.475 23.8451 139.014 23.8154C137.866 23.6853 137.134 23.0617 136.816 21.9446C136.699 21.0142 136.699 20.0838 136.816 19.1533C137.122 18.18 137.757 17.5663 138.721 17.3122Z" fill="white"/>
<path opacity="0.99" fill-rule="evenodd" clip-rule="evenodd" d="M43.6231 6.56262C44.6584 6.5527 45.6935 6.56262 46.7285 6.59231C47.0256 6.6191 47.2697 6.7478 47.4609 6.97835C48.8867 9.78946 50.3125 12.6006 51.7383 15.4117C52.197 16.1797 52.2946 16.9913 52.0313 17.8467C50.5515 20.7476 49.0866 23.6577 47.6367 26.5771C47.4852 26.9089 47.241 27.1366 46.9043 27.2601C45.7715 27.2997 44.6387 27.2997 43.5059 27.2601C43.2837 27.1381 43.2154 26.9501 43.3008 26.6958C44.9736 23.4532 46.624 20.1967 48.252 16.9262C46.5792 13.7034 44.9288 10.4666 43.3008 7.21591C43.1944 6.88065 43.3018 6.66287 43.6231 6.56262Z" fill="white"/>
</g>
<defs>
<clipPath id="clip0_312_508">
<rect width="150" height="37" fill="white"/>
</clipPath>
</defs>
</svg>
