<svg width="137" height="58" viewBox="0 0 137 58" fill="none" xmlns="http://www.w3.org/2000/svg">
<path d="M77.4207 41.7665C77.4207 34.775 72.3286 28.1487 64.4163 28.1487C56.1905 28.1487 50.3672 34.9315 50.3672 42.6274C50.3672 50.6885 55.7727 57.106 64.4163 57.106C70.4746 57.106 77.029 54.5494 77.029 50.6363C77.029 48.5754 75.4883 47.1927 73.6865 47.1927C71.8324 47.1927 69.43 49.7232 65.4608 49.7232C60.3164 49.7232 59.0368 46.9579 59.0368 45.2622H73.5298C76.0628 45.2622 77.4207 44.5839 77.4207 41.7665ZM59.0107 39.7577C59.0107 37.9577 61.0737 34.9315 64.2073 34.9315C67.3409 34.9315 69.4039 37.9577 69.4039 39.7577H59.0107Z" fill="white"/>
<path d="M92.9317 35.8445C96.0653 35.8445 96.6398 37.175 98.7027 37.175C100.557 37.175 101.993 35.5836 101.993 33.4184C101.993 29.1661 96.0653 28.1226 92.4878 28.1226C84.3665 28.1226 78.9609 34.5401 78.9609 42.6012C78.9609 50.6623 84.3665 57.0799 92.4878 57.0799C95.6736 57.0799 101.993 55.5407 101.993 51.5232C101.993 49.8275 100.557 47.9753 98.7027 47.9753C97.5276 47.9753 95.9348 49.3579 92.4878 49.3579C88.9363 49.3579 86.9778 46.2796 86.9778 42.5751C86.9778 38.949 88.8841 35.8445 92.9317 35.8445Z" fill="white"/>
<path d="M116.748 35.8445C119.882 35.8445 120.456 37.175 122.519 37.175C124.373 37.175 125.809 35.5836 125.809 33.4184C125.809 29.1661 119.882 28.1226 116.304 28.1226C108.183 28.1226 102.777 34.5401 102.777 42.6012C102.777 50.6623 108.183 57.0799 116.304 57.0799C119.49 57.0799 125.809 55.5407 125.809 51.5232C125.809 49.8275 124.373 47.9753 122.519 47.9753C121.344 47.9753 119.751 49.3579 116.304 49.3579C112.753 49.3579 110.794 46.2796 110.794 42.5751C110.794 38.949 112.7 35.8445 116.748 35.8445Z" fill="white"/>
<path d="M131.527 28.1747C129.151 28.1747 127.506 30.0269 127.506 32.3487V52.9319C127.506 55.2537 129.151 57.1059 131.527 57.1059C133.904 57.1059 135.549 55.2537 135.549 52.9319V32.3487C135.523 30.0269 133.878 28.1747 131.527 28.1747Z" fill="white"/>
<path d="M131.527 26.2964C134.138 26.2964 136.306 24.1833 136.306 21.5223C136.306 18.8614 134.138 16.7483 131.527 16.7483C128.916 16.7483 126.748 18.8614 126.748 21.5223C126.722 24.1833 128.89 26.2964 131.527 26.2964Z" fill="white"/>
<path d="M47.1033 29.0617H44.3875V28.9574V23.7398C44.3875 21.418 42.7423 19.5658 40.366 19.5658C37.9897 19.5658 36.3446 21.418 36.3446 23.7398V29.0878H33.6548C31.5657 29.0878 29.8945 30.5748 29.8945 32.714C29.8945 34.8532 31.5657 36.3402 33.6548 36.3402H36.3446V53.1407C36.3446 55.4625 37.9897 57.1582 40.366 57.1582C42.7423 57.1582 44.3875 55.4625 44.3875 53.1407V36.3663V36.3141H47.1033C49.1924 36.3141 50.8636 34.8271 50.8636 32.6879C50.8636 30.5487 49.1924 29.0617 47.1033 29.0617Z" fill="white"/>
<path d="M17.5429 31.6183C13.7825 31.6183 10.7012 34.6445 10.7012 38.4533C10.7012 42.2621 13.7825 45.2882 17.5429 45.2882C21.3032 45.2882 24.3846 42.2882 24.3846 38.4533C24.3846 34.6445 21.2771 31.6183 17.5429 31.6183ZM17.5429 40.9577C16.1589 40.9577 15.0099 39.8359 15.0099 38.4272C15.0099 37.0445 16.1328 35.9228 17.5429 35.9228C18.9269 35.9228 20.0498 37.0445 20.0498 38.4272C20.0498 39.8359 18.9269 40.9577 17.5429 40.9577Z" fill="white"/>
<path d="M22.817 0C19.0566 0 15.9753 3.00009 15.9753 6.83498C15.9753 8.00892 16.2626 9.07852 16.7587 10.0438L11.2487 14.2439C10.0997 13.4091 8.71575 12.9134 7.20117 12.9134C3.44083 12.9134 0.359375 15.9135 0.359375 19.7484C0.359375 23.5572 3.44083 26.5834 7.20117 26.5834C10.9615 26.5834 14.0429 23.5833 14.0429 19.7484C14.0429 18.8092 13.8601 17.9483 13.5206 17.1396L19.3439 12.7308C20.3623 13.3308 21.5635 13.696 22.817 13.696C26.5773 13.696 29.6587 10.696 29.6587 6.86106C29.6587 3.00009 26.5773 0 22.817 0ZM7.20117 22.2267C5.81716 22.2267 4.69422 21.1049 4.69422 19.7223C4.69422 18.3397 5.81716 17.1918 7.20117 17.1918C8.58519 17.1918 9.70804 18.3136 9.70804 19.7223C9.73416 21.1049 8.6113 22.2267 7.20117 22.2267ZM22.817 9.3394C21.433 9.3394 20.284 8.21762 20.284 6.83498C20.284 5.45233 21.4069 4.30447 22.817 4.30447C24.201 4.30447 25.35 5.42624 25.35 6.83498C25.35 8.21762 24.201 9.3394 22.817 9.3394Z" fill="white"/>
</svg>
