<svg width="79" height="65" viewBox="0 0 79 65" fill="none" xmlns="http://www.w3.org/2000/svg">
<path d="M31.935 36.9713C38.0173 28.5348 44.0489 20.4531 49.5989 12.574C50.6887 11.0539 53.1722 8.69775 51.1448 7.38034C49.4975 6.31629 47.5461 8.57109 46.5578 10.1672C45.1639 12.4473 43.6687 14.5754 41.768 16.5008C37.6625 20.6051 34.0385 23.5186 28.235 23.2652C25.9542 23.1639 23.6733 23.2399 21.3418 23.2399C22.1781 18.7303 23.2932 17.4889 27.1199 17.7929C31.8083 18.1729 35.7111 16.2982 38.2454 12.5233C40.1714 9.66046 41.9455 7.53234 43.9222 4.36551C46.3551 0.489301 51.2715 0.1093 54.414 2.28808C57.7086 4.56821 58.5449 9.07777 55.8586 13.0806C50.8154 20.6304 44.6824 29.5989 39.3858 36.9966H31.935V36.9713Z" fill="white"/>
<path d="M11.7109 36.9712C13.9411 33.4497 15.411 30.7135 17.3117 28.3574C17.3117 28.3574 20.8344 28.1294 22.1522 28.0027C26.7899 27.5973 32.7961 26.6093 36.4455 24.9119C34.3927 27.8507 30.6166 33.551 28.1077 36.9712" fill="white"/>
<path d="M44.5039 36.9713C49.7499 28.0028 57.9356 20.7063 60.5712 10.7751C63.4349 13.2326 64.6261 16.8048 62.4973 20.1997C59.1267 25.6466 54.6157 32.0056 50.5355 36.9459" fill="white"/>
<path d="M56.1875 36.9714C59.9889 31.4737 65.8937 26.2294 66.5273 19.009C69.7712 22.4039 69.8218 25.6721 66.9074 30.6123C65.5896 32.8418 64.6012 34.0072 62.3204 36.9714H56.1875Z" fill="white"/>
<path d="M22.9372 64.0794H17.007L16.196 58.5564H7.80756L5.39997 64.0794H0.00195312L11.8877 38.8967H18.7049L22.9372 64.0794ZM9.73356 54.1482H15.5624L14.0925 44.065L9.73356 54.1482Z" fill="white"/>
<path d="M36.8511 38.8967L32.6695 64.0794H27.2969L31.4784 38.8967H36.8511Z" fill="white"/>
<path d="M56.5407 57.4417C54.9695 62.1286 52.1058 64.4594 47.9749 64.4594C45.3899 64.4594 43.3879 63.6487 41.994 62.0273C40.5748 60.4058 39.8906 58.3284 39.8906 55.8202C39.8906 53.0081 40.7776 50.5 42.5262 48.2705C44.2749 46.0664 46.6318 44.9517 49.5462 44.9517C52.2072 44.9517 54.1586 45.6864 55.4004 47.1304C56.6422 48.5999 57.2503 50.1453 57.2503 51.8174V52.2227L52.4352 52.5267C52.4352 51.2853 52.1565 50.3986 51.599 49.8666C51.0414 49.3346 50.4078 49.0559 49.6729 49.0559C48.4564 49.0559 47.4935 49.7652 46.7839 51.1587C46.0743 52.5774 45.7194 54.4015 45.7194 56.6816C45.7194 58.9871 46.6571 60.1272 48.5578 60.1272C50.2304 60.1272 51.3962 59.0378 52.0551 56.8336L56.5407 57.4417Z" fill="white"/>
<path d="M70.6832 44.8503C73.0907 44.8503 75.0675 45.661 76.5627 47.2825C78.0579 48.9039 78.7928 51.0067 78.7928 53.6415C78.7928 56.631 77.8805 59.1898 76.0812 61.2925C74.2565 63.4206 72.001 64.4594 69.264 64.4594C66.9071 64.4594 64.9557 63.6487 63.4351 62.0526C61.8892 60.4565 61.1289 58.4297 61.1289 55.9976C61.1289 52.7801 62.0159 50.12 63.7899 48.0172C65.5386 45.9144 67.8448 44.8503 70.6832 44.8503ZM70.6578 48.4732C69.1372 48.4732 68.0728 49.4359 67.4646 51.336C66.8817 53.2615 66.5777 55.2122 66.5777 57.239C66.5777 59.6205 67.5153 60.7858 69.3653 60.7858C70.8859 60.7858 71.9249 59.7471 72.4825 57.6697C73.04 55.5922 73.3188 53.6921 73.3188 51.9947C73.3441 49.6639 72.4571 48.4732 70.6578 48.4732Z" fill="white"/>
</svg>
