<svg width="153" height="30" viewBox="0 0 153 30" fill="none" xmlns="http://www.w3.org/2000/svg">
<path d="M71.4347 9.39319C71.4347 9.51986 71.4347 9.6212 71.4347 9.74787C71.4347 15.4735 71.4347 21.1991 71.4347 26.9248C71.4347 27.4315 71.4347 27.4315 70.9278 27.4315C69.7114 27.4315 68.4696 27.4315 67.2531 27.4315C66.873 27.4315 66.8477 27.4062 66.8477 27.0515C66.8477 18.1843 66.8477 9.31718 66.8477 0.450042C66.8477 0.0953564 66.873 0.0700372 67.2531 0.0700372C68.3175 0.0700372 69.3566 0.0700372 70.421 0.0700372C70.6744 0.0700372 70.8518 0.171364 70.9785 0.374041C72.3977 2.47682 73.8169 4.60493 75.2361 6.70771C77.517 10.0772 79.7978 13.4721 82.0786 16.8416C82.3574 17.2723 82.6615 17.6777 82.9403 18.083C82.9656 18.083 82.991 18.0576 83.0163 18.0576C83.0163 17.931 83.0163 17.8043 83.0163 17.6776C83.0163 12.0027 83.0163 6.3277 83.0163 0.652724C83.0163 0.551386 83.0163 0.450059 83.0163 0.34872C83.0163 0.146043 83.0924 0.0446777 83.2951 0.0446777C84.6383 0.0446777 85.9814 0.0446777 87.2992 0.0446777C87.5273 0.0446777 87.6034 0.146043 87.6034 0.34872C87.6034 0.424724 87.6034 0.500705 87.6034 0.602044C87.6034 9.36785 87.6034 18.1337 87.6034 26.8995C87.6034 27.0008 87.6034 27.0768 87.6034 27.1782C87.6034 27.3555 87.5273 27.4315 87.3499 27.4315C86.1842 27.4315 85.0437 27.4315 83.878 27.4315C83.7766 27.4315 83.6246 27.3048 83.5485 27.2035C83.1937 26.6968 82.8643 26.1901 82.5095 25.6834C80.8622 23.2513 79.2403 20.8191 77.593 18.387C75.7936 15.7269 73.9943 13.0667 72.195 10.3812C71.9669 10.0519 71.7388 9.69722 71.4854 9.36786C71.4854 9.3932 71.46 9.39319 71.4347 9.39319Z" fill="white"/>
<path d="M99.3867 13.7255C99.3867 9.34264 99.3867 4.93441 99.3867 0.551507C99.3867 -0.00585628 99.3867 -0.00585937 99.9443 -0.00585937C105.469 -0.00585937 111.019 -0.00585937 116.544 -0.00585937C117.076 -0.00585937 117.076 -0.00588101 117.076 0.526147C117.076 1.5902 117.076 2.62893 117.076 3.69298C117.076 4.073 117.051 4.09835 116.67 4.09835C112.616 4.09835 108.535 4.09835 104.481 4.09835C103.999 4.09835 103.999 4.09835 103.999 4.57971C103.999 6.7585 103.999 8.91193 103.999 11.0907C103.999 11.5721 103.999 11.5721 104.481 11.5721C107.902 11.5721 111.323 11.5721 114.744 11.5721C115.226 11.5721 115.226 11.5721 115.226 12.0281C115.226 13.0922 115.226 14.1562 115.226 15.2203C115.226 15.6256 115.201 15.651 114.77 15.651C111.348 15.651 107.902 15.651 104.481 15.651C103.999 15.651 103.999 15.651 103.999 16.1323C103.999 18.3871 103.999 20.6419 103.999 22.8714C103.999 23.3527 103.999 23.3527 104.481 23.3527C108.51 23.3527 112.54 23.3527 116.594 23.3527C117.101 23.3527 117.101 23.3527 117.101 23.8594C117.101 24.9235 117.101 25.9622 117.101 27.0263C117.101 27.4063 117.076 27.4063 116.696 27.4063C111.07 27.4063 105.418 27.4063 99.7922 27.4063C99.4121 27.4063 99.4121 27.3809 99.4121 26.9756C99.3867 22.5927 99.3867 18.1591 99.3867 13.7255Z" fill="white"/>
<path d="M34.6367 0.0700372C34.7888 0.0700372 34.8901 0.0446777 34.9915 0.0446777C36.4361 0.0446777 37.8806 0.0446777 39.2998 0.0446777C39.6039 0.0446777 39.7306 0.14604 39.8066 0.424721C41.0991 4.60495 42.4169 8.78516 43.7348 12.9654C44.495 15.3722 45.23 17.7536 45.9903 20.1604C46.0156 20.2111 46.041 20.2365 46.0663 20.3378C46.193 19.9324 46.3197 19.5777 46.4211 19.2231C47.891 14.5868 49.3355 9.92523 50.8054 5.28898C51.3122 3.64222 51.8444 1.99548 52.3513 0.34872C52.402 0.171377 52.5033 0.0700372 52.7061 0.0700372C54.2267 0.0700372 55.7219 0.0700372 57.2424 0.0700372C57.3185 0.0700372 57.3692 0.0953827 57.4959 0.120717C57.4705 0.272726 57.4452 0.424715 57.3945 0.576723C56.6849 2.75551 55.9753 4.90897 55.2657 7.08776C53.9479 11.1413 52.6301 15.1949 51.3122 19.2737C50.4759 21.8832 49.6143 24.4674 48.8033 27.0768C48.7019 27.3808 48.5752 27.5075 48.2204 27.5075C46.8266 27.4822 45.4327 27.5075 44.0135 27.5075C43.532 27.5075 43.532 27.5075 43.38 27.0515C41.9101 22.5166 40.4402 17.9817 38.945 13.4468C37.8552 10.0772 36.7402 6.70771 35.6504 3.3382C35.3463 2.40081 35.0422 1.43811 34.7381 0.500722C34.6874 0.323379 34.6621 0.222045 34.6367 0.0700372Z" fill="white"/>
<path d="M133.929 15.727C133.929 12.0028 133.929 8.30398 133.929 4.57978C133.929 4.09842 133.929 4.09842 133.448 4.09842C131.294 4.09842 129.14 4.09842 126.985 4.09842C126.504 4.09842 126.504 4.09841 126.504 3.61705C126.504 2.60367 126.504 1.56496 126.504 0.551577C126.504 0.0195483 126.504 0.0195312 127.061 0.0195312C130.052 0.0195312 133.068 0.0195312 136.058 0.0195312C139.175 0.0195312 142.318 0.0195312 145.435 0.0195312C145.942 0.0195312 145.942 0.0195235 145.942 0.526217C145.942 1.59027 145.942 2.67968 145.942 3.74373C145.942 4.02242 145.84 4.12374 145.562 4.12374C143.357 4.12374 141.152 4.12374 138.947 4.12374C138.516 4.12374 138.516 4.12377 138.516 4.55446C138.516 11.9522 138.516 19.3499 138.516 26.7476C138.516 26.849 138.516 26.9503 138.516 27.0516C138.542 27.3303 138.415 27.4317 138.136 27.4317C136.894 27.4317 135.653 27.4317 134.386 27.4317C133.904 27.4317 133.904 27.4317 133.904 26.9756C133.929 23.2261 133.929 19.4766 133.929 15.727Z" fill="white"/>
<path d="M14.5401 0.0702115C14.4134 0.500901 14.312 0.8809 14.1853 1.23559C13.2222 4.14908 12.2846 7.08792 11.3215 10.0014C10.2318 13.2949 9.16741 16.6138 8.10301 19.9073C7.31739 22.3141 6.53176 24.7462 5.74613 27.153C5.69545 27.3303 5.59408 27.4063 5.39134 27.4063C3.89611 27.4063 2.40089 27.4063 0.905672 27.4063C0.626901 27.4063 0.601558 27.305 0.677586 27.077C0.956357 26.2663 1.20978 25.4809 1.46321 24.6702C2.42624 21.6807 3.4146 18.7165 4.37763 15.727C5.41668 12.5602 6.43039 9.39338 7.46944 6.25188C8.10301 4.30111 8.73658 2.37567 9.3448 0.424896C9.44618 0.120879 9.57289 0.0195312 9.90235 0.0195312C11.3215 0.0448659 12.7154 0.0195312 14.1346 0.0195312C14.2613 0.0448659 14.3627 0.0702115 14.5401 0.0702115Z" fill="white"/>
<path d="M30.227 27.4062C30.075 27.4062 29.9736 27.4315 29.8722 27.4315C28.4277 27.4315 26.9832 27.4315 25.564 27.4315C25.2852 27.4315 25.1585 27.3302 25.0825 27.0769C24.1194 24.1127 23.1564 21.1739 22.1934 18.235C20.8756 14.2068 19.5577 10.1533 18.2399 6.12506C17.6317 4.25029 17.0235 2.3502 16.4152 0.475433C16.2885 0.0954123 16.3139 0.0700684 16.7193 0.0700684C18.1385 0.0700684 19.5831 0.0700684 21.0023 0.0700684C21.2557 0.0700684 21.4078 0.146085 21.4838 0.399432C23.1057 5.4157 24.7277 10.4066 26.3749 15.4229C27.1099 17.6777 27.8448 19.9325 28.5798 22.1872C29.1119 23.834 29.6441 25.4807 30.1763 27.1275C30.1763 27.1782 30.2017 27.2795 30.227 27.4062Z" fill="white"/>
<path d="M15.4279 29.1797C13.4512 29.1797 11.4745 29.1797 9.52308 29.1797C9.09225 29.1797 9.06691 29.1797 9.19362 28.749C9.49773 27.8117 9.80185 26.8743 10.106 25.9369C10.182 25.7342 10.3087 25.6582 10.5114 25.6582C11.3731 25.6582 12.2348 25.6582 13.0964 25.6582C15.4786 25.6582 17.8608 25.6582 20.2431 25.6582C20.5725 25.6582 20.7246 25.7596 20.8259 26.0636C21.1047 26.9503 21.4088 27.837 21.6876 28.7237C21.8143 29.1037 21.7636 29.1544 21.3835 29.1544C19.3814 29.1797 17.4047 29.1797 15.4279 29.1797Z" fill="white"/>
<path d="M150.402 0.0446777C151.543 0.0446777 152.43 0.9314 152.43 2.07146C152.43 3.18619 151.517 4.09824 150.402 4.09824C149.262 4.09824 148.375 3.1862 148.375 2.04614C148.375 0.906079 149.237 0.0446777 150.402 0.0446777ZM151.923 2.12214C151.923 1.13409 151.315 0.500736 150.402 0.475401C149.49 0.475401 148.806 1.18476 148.806 2.12214C148.806 3.03419 149.49 3.74356 150.402 3.74356C151.289 3.74356 151.923 3.08486 151.923 2.12214Z" fill="white"/>
<path d="M149.643 2.04615C149.643 1.7928 149.643 1.51413 149.643 1.26078C149.643 1.0581 149.719 0.956763 149.922 0.982097C150.125 0.982097 150.353 0.982097 150.555 0.982097C150.86 0.982097 151.088 1.15942 151.164 1.4381C151.265 1.71678 151.214 1.97015 151.012 2.17283C150.936 2.24884 150.936 2.40082 150.961 2.50216C150.986 2.62883 151.088 2.73017 151.138 2.85684C151.164 2.95818 151.164 3.08486 151.189 3.1862C151.037 3.16087 150.834 3.16086 150.733 3.05952C150.606 2.93285 150.555 2.70486 150.454 2.52752C150.403 2.45151 150.327 2.40084 150.251 2.32483C150.226 2.42617 150.15 2.50218 150.15 2.60352C150.125 2.70485 150.175 2.83154 150.125 2.93288C150.074 3.00888 149.973 3.13552 149.896 3.13552C149.82 3.13552 149.668 3.00888 149.668 2.93288C149.618 2.62886 149.643 2.32483 149.643 2.04615ZM150.454 1.99547C150.555 1.89413 150.733 1.79282 150.758 1.66614C150.783 1.43813 150.606 1.36212 150.403 1.33678C150.201 1.33678 150.15 1.41279 150.15 1.61546C150.125 1.81814 150.15 1.9448 150.454 1.99547Z" fill="white"/>
</svg>
