<svg width="167" height="56" viewBox="0 0 167 56" fill="none" xmlns="http://www.w3.org/2000/svg">
<path d="M0.789062 55.118C0.814405 39.8158 0.839745 24.5391 0.865088 9.23691C0.865088 6.39943 0.865088 3.58727 0.865088 0.597772C1.85345 0.547102 2.61375 0.471052 3.37403 0.471052C19.8722 0.471052 36.3956 0.496414 52.8937 0.42041C54.9718 0.42041 55.504 1.02846 55.4787 3.05524C55.4027 20.4095 55.428 37.7637 55.428 55.118C37.2066 55.118 19.0105 55.118 0.789062 55.118ZM3.09526 6.19672C2.99389 7.64079 2.89251 8.47687 2.89251 9.31291C2.89251 22.8923 2.89251 36.4717 2.89251 50.0511C2.89251 52.9392 2.91786 52.9393 5.90831 52.9393C17.4899 52.9393 29.0969 52.9393 40.6786 52.9393C43.9985 52.9393 44.0745 52.8885 43.0861 49.7977C37.4347 31.7087 25.6249 18.6614 9.45627 9.31291C7.58091 8.19819 5.55351 7.36211 3.09526 6.19672ZM53.578 27.4272C53.578 19.9535 53.578 12.5051 53.578 5.03134C53.578 2.42187 53.4259 2.26987 50.7649 2.26987C41.5149 2.26987 32.2901 2.26987 23.04 2.26987C18.9345 2.26987 18.9345 2.26981 18.8078 6.24736C18.7824 6.60204 18.8838 7.00743 18.7317 7.31145C16.6283 11.365 19.3399 13.1891 22.077 15.3932C32.9236 24.2097 40.9827 35.0023 44.9868 48.5563C46.2793 52.9646 46.2793 52.8633 50.9424 52.9393C53.0205 52.9899 53.654 52.2299 53.654 50.2284C53.5273 42.6534 53.578 35.0276 53.578 27.4272ZM15.6146 9.99692C16.8564 7.86881 16.755 5.48737 16.3748 3.13124C16.3241 2.80189 15.5132 2.34587 15.057 2.34587C11.433 2.26987 7.80902 2.2952 4.21035 2.34587C3.83021 2.34587 3.19664 2.77651 3.14596 3.08052C3.09527 3.40987 3.4754 4.01791 3.80485 4.19525C7.63161 6.14603 11.5091 7.99548 15.6146 9.99692Z" fill="white"/>
<path d="M119.469 55.1181C119.469 44.8322 119.469 34.5463 119.469 24.1591C121.217 24.1591 122.687 24.1591 124.385 24.1591C126.413 30.8474 128.465 37.6118 130.518 44.4015C130.746 44.3762 130.949 44.3509 131.177 44.3002C131.177 37.6118 131.177 30.9235 131.177 24.1338C132.495 24.1338 133.458 24.1338 134.852 24.1338C134.852 34.4703 134.852 44.8069 134.852 55.1434C133.154 55.1434 131.431 55.1434 129.733 55.1434C129.631 54.5861 129.606 54.0287 129.454 53.522C127.604 47.7203 125.754 41.9441 123.878 36.1424C123.701 35.585 123.473 35.053 123.27 34.4957C123.143 34.521 123.017 34.5463 122.915 34.5717C122.915 41.4374 122.915 48.2777 122.915 55.1434C121.75 55.1181 120.609 55.1181 119.469 55.1181Z" fill="white"/>
<path d="M59.2793 55.118C59.2793 44.8827 59.2793 34.6476 59.2793 24.1083C62.6245 24.1083 65.7924 23.9817 68.9349 24.2097C69.6445 24.2603 70.6328 25.4257 70.8609 26.2364C71.9253 30.2646 72.3308 34.3182 70.6075 37.5104C71.3424 39.7398 72.1027 41.4119 72.4322 43.1853C72.711 44.7814 72.4322 46.4535 72.5082 48.0749C72.6603 51.3938 71.5198 53.8766 68.2506 55.118C65.2602 55.118 62.2697 55.118 59.2793 55.118ZM62.9794 45.9215C62.9794 47.1375 62.9286 48.3283 63.03 49.5444C63.0807 49.9751 63.4609 50.6337 63.841 50.7604C67.2876 51.9258 69.315 50.431 69.2897 46.8082C69.2897 45.9468 69.2897 45.1107 69.2643 44.2494C69.1883 41.4372 68.4534 41.0319 64.8547 40.9305C62.1684 40.8545 63.1821 42.7293 63.0047 43.9961C62.9287 44.6548 62.9794 45.2881 62.9794 45.9215ZM62.9794 37.029C67.2116 37.6624 67.9212 37.0796 67.9212 33.1781C67.9212 32.038 67.8958 30.898 67.9212 29.7833C67.9719 28.3645 67.3129 27.6298 65.9191 27.6298C64.9561 27.6298 64.0184 27.7565 62.9794 27.8072C62.9794 30.9993 62.9794 33.9635 62.9794 37.029Z" fill="white"/>
<path d="M104.543 55.118C104.543 44.8322 104.543 34.5717 104.543 24.0578C107.761 24.0578 110.727 23.9311 113.666 24.1084C115.618 24.2097 117.113 26.1098 117.265 28.5166C117.417 31.0501 117.696 33.7103 117.189 36.1424C116.86 37.7131 115.39 39.2078 114.072 40.3732C113.159 41.1586 112.881 41.716 113.185 42.8307C114.325 46.9096 115.39 51.0138 116.479 55.118C115.187 55.118 113.92 55.118 112.627 55.118C111.411 50.4058 110.169 45.7189 108.953 41.0066C108.623 41.0573 108.268 41.0827 107.939 41.1333C107.939 45.7949 107.939 50.4565 107.939 55.118C106.798 55.118 105.683 55.118 104.543 55.118ZM108.344 37.2318C110.169 37.2571 112.602 38.1692 113.185 36.1677C113.869 33.7863 113.894 30.8728 113.134 28.5673C112.551 26.7939 110.068 27.7566 108.37 27.8073C108.344 31.0501 108.344 34.0903 108.344 37.2318Z" fill="white"/>
<path d="M136.551 55.1181C138.629 45.6429 140.707 36.1677 142.785 26.6926C143.419 23.8551 143.444 23.8551 146.637 24.1845C147.93 29.6821 149.298 35.2304 150.54 40.804C151.63 45.5669 152.593 50.3552 153.606 55.1181C152.466 55.1181 151.326 55.1181 150.185 55.1181C149.323 51.1912 148.361 47.2897 147.6 43.3375C147.245 41.488 146.029 41.7667 144.762 41.6654C143.368 41.564 142.709 42.096 142.481 43.4641C141.822 47.3657 141.062 51.2419 140.352 55.1181C139.11 55.1181 137.843 55.1181 136.551 55.1181ZM145.395 31.9875C145.193 31.9875 144.965 32.0129 144.762 32.0129C144.356 34.1156 143.925 36.1931 143.495 38.3972C144.711 38.3972 145.573 38.3972 146.739 38.3972C146.257 36.1424 145.826 34.0649 145.395 31.9875Z" fill="white"/>
<path d="M156.191 55.1181C156.191 50.7859 156.216 46.4536 156.166 42.1214C156.166 41.2854 155.912 40.4493 155.608 39.6639C153.682 34.5717 151.731 29.5047 149.754 24.3871C152.896 23.5764 153.023 23.6271 154.037 26.4392C155.203 29.6314 156.368 32.8236 157.737 36.6238C158.675 34.065 159.41 32.0382 160.144 30.0114C160.525 28.9474 160.93 27.8834 161.31 26.8193C162.425 23.7285 162.425 23.7285 166.049 24.2098C165.036 26.7433 164.225 29.3021 163.034 31.6835C159.992 37.7639 158.903 44.1229 159.486 50.8619C159.612 52.2807 159.536 53.6994 159.536 55.1181C158.472 55.1181 157.331 55.1181 156.191 55.1181Z" fill="white"/>
<path d="M87.7906 38.3718C85.0789 38.3718 82.3926 38.3971 79.6809 38.3718C75.4741 38.3211 73.1172 35.6863 73.1172 31.1514C73.1425 26.8698 75.398 24.4124 79.5542 24.3617C85.155 24.2857 90.7811 24.2857 96.3818 24.3617C100.589 24.4124 102.743 26.8951 102.717 31.4554C102.692 35.6356 100.285 38.2704 96.3058 38.3464C93.4674 38.3971 90.629 38.3718 87.7906 38.3718ZM87.9427 27.6045C85.6111 27.6045 83.2543 27.5539 80.9227 27.6045C78.3378 27.6805 76.6651 29.0739 76.6145 31.0754C76.5384 33.0515 77.9323 34.7236 80.4412 34.7996C85.3831 35.0022 90.3502 34.9769 95.3174 34.8249C97.6996 34.7489 99.2962 32.9755 99.2709 31.1514C99.2202 29.2006 97.4715 27.6805 94.9879 27.6045C92.6311 27.5539 90.2995 27.6045 87.9427 27.6045Z" fill="white"/>
</svg>
