<svg width="98" height="69" viewBox="0 0 98 69" fill="none" xmlns="http://www.w3.org/2000/svg">
<path d="M74.4143 43.0107C73.73 42.6053 73.0204 42.2 72.3361 41.82C66.6594 38.5518 61.0079 35.2836 55.3312 32.0154C52.3154 30.2673 50.4654 27.6832 49.8571 24.263C49.7304 23.6043 49.7051 22.9456 49.7051 22.2869C49.7051 14.9905 49.7051 7.71947 49.7051 0.423081C49.7051 0.347077 49.7051 0.271072 49.7051 0.220403C49.7304 0.220403 49.7304 0.220403 49.7557 0.195068C57.9921 14.4585 66.2285 28.7219 74.4649 42.9854C74.4396 42.9854 74.4143 43.0107 74.4143 43.0107Z" fill="white"/>
<path d="M21.5 42.96C29.7364 28.6965 37.9728 14.4331 46.2092 0.169678C46.2345 0.169678 46.2345 0.169678 46.2598 0.195012C46.2598 0.271016 46.2598 0.347021 46.2598 0.423025C46.2598 7.69408 46.2852 14.9905 46.2598 22.2615C46.2345 26.5178 44.3845 29.7859 40.7098 31.9394C34.3741 35.6382 28.0131 39.2864 21.6774 42.9346C21.6267 42.96 21.6013 42.9853 21.5507 43.0106C21.5253 42.9853 21.5253 42.9853 21.5 42.96Z" fill="white"/>
<path d="M23.2988 45.9494C23.6536 45.7468 24.0337 45.5187 24.3885 45.3161C30.4201 41.8452 36.4517 38.349 42.4833 34.8782C44.384 33.7888 46.4367 33.3074 48.6162 33.4341C50.4155 33.5354 52.0882 34.0928 53.6341 35.0049C59.8937 38.6277 66.1534 42.2506 72.4131 45.8481C72.4891 45.8988 72.5398 45.9241 72.6665 46.0001C56.1684 46.0001 39.7209 46.0001 23.2988 46.0001C23.3242 45.9748 23.3242 45.9748 23.2988 45.9494Z" fill="white"/>
<path d="M0.490234 59.3009C0.490234 57.7808 0.490234 56.2861 0.490234 54.766C0.490234 54.0566 0.921092 53.626 1.63069 53.6006C2.97385 53.6006 4.31703 53.5753 5.68554 53.6006C8.24516 53.626 10.2979 55.4247 10.602 57.9582C10.754 59.1489 10.7794 60.365 10.4246 61.5304C9.76571 63.5825 7.86502 64.9759 5.68554 65.0012C4.34238 65.0012 2.9992 65.0012 1.63069 65.0012C0.895749 65.0012 0.490234 64.5705 0.490234 63.8358C0.490234 62.3411 0.490234 60.821 0.490234 59.3009ZM2.41631 63.0758C2.51768 63.0758 2.56835 63.0758 2.64438 63.0758C3.68344 63.0758 4.72252 63.0758 5.76157 63.0758C7.2061 63.0505 8.49857 61.9357 8.67597 60.517C8.752 59.909 8.72663 59.2756 8.72663 58.6676C8.72663 56.8941 7.4088 55.5514 5.63481 55.5514C4.64644 55.5514 3.65809 55.5514 2.64438 55.5514C2.56835 55.5514 2.49231 55.5514 2.39094 55.5767C2.41628 58.0849 2.41631 60.5677 2.41631 63.0758Z" fill="white"/>
<path d="M14.7835 55.5512C14.7835 55.6526 14.7581 55.7286 14.7581 55.8046C14.7581 56.5646 14.7581 57.35 14.7581 58.11C14.7581 58.3127 14.8088 58.3887 15.0116 58.3887C16.6082 58.3887 18.2047 58.3887 19.8013 58.3887C19.9027 58.3887 20.0041 58.3887 20.1308 58.3887C20.1308 59.0221 20.1308 59.6301 20.1308 60.2888C18.3568 60.2888 16.5575 60.2888 14.7581 60.2888C14.7581 61.2515 14.7581 62.1636 14.7581 63.1263C14.8595 63.1263 14.9609 63.1263 15.0622 63.1263C17.1403 63.1263 19.2438 63.1263 21.3219 63.1263C21.9048 63.1263 22.0822 63.3036 22.0822 63.8863C22.0822 64.1904 22.0822 64.4944 22.0822 64.7984C22.0822 65.0011 22.0062 65.0517 21.8288 65.0517C20.7897 65.0517 19.7506 65.0517 18.7116 65.0517C17.1657 65.0517 15.6198 65.0517 14.0739 65.0517C13.2629 65.0517 12.8574 64.6464 12.8574 63.861C12.8574 60.8462 12.8574 57.8567 12.8574 54.8419C12.8574 54.0565 13.2629 53.6511 14.0485 53.6511C16.6335 53.6511 19.2184 53.6511 21.8034 53.6511C22.0315 53.6511 22.1328 53.7018 22.1075 53.9551C22.0822 54.4112 22.0822 54.8672 22.1075 55.3232C22.1075 55.5512 22.0315 55.6019 21.8288 55.6019C19.5986 55.6019 17.3685 55.6019 15.113 55.6019C15.0116 55.5512 14.9102 55.5512 14.7835 55.5512Z" fill="white"/>
<path d="M88.3535 61.6064C88.9871 61.6064 89.5953 61.6064 90.2288 61.6064C90.2542 61.7584 90.2795 61.8851 90.3049 62.0118C90.4569 62.6198 90.9891 63.0758 91.6227 63.0758C92.687 63.0758 93.7514 63.0758 94.7905 63.0758C95.348 63.0758 95.8296 62.6451 95.9056 62.0878C95.9309 61.8344 95.9563 61.5557 95.9309 61.3024C95.8803 60.6183 95.3734 60.1623 94.6892 60.1623C93.5994 60.1623 92.4843 60.1623 91.3946 60.1623C89.6713 60.1623 88.4041 58.9209 88.3788 57.1982C88.3788 56.7928 88.3788 56.3621 88.4295 55.9568C88.6829 54.6394 89.6966 53.6766 91.0905 53.626C92.4083 53.55 93.7515 53.5753 95.0693 53.6513C96.4632 53.7526 97.6543 55.07 97.705 56.4888C97.705 56.6155 97.6796 56.6915 97.5276 56.6915C96.9954 56.6915 96.4885 56.6915 95.9563 56.6915C95.8296 56.6915 95.7789 56.6408 95.7535 56.5141C95.6522 55.9314 95.2214 55.5514 94.6132 55.5514C93.5234 55.5514 92.4083 55.5514 91.3185 55.5514C90.7103 55.5514 90.3049 55.9568 90.3049 56.5648C90.3049 56.7675 90.3049 56.9701 90.3049 57.1728C90.3049 57.8315 90.7104 58.2369 91.3693 58.2369C92.5097 58.2369 93.6754 58.2115 94.8159 58.2369C96.083 58.2622 97.0461 58.8956 97.5529 60.0356C98.0091 61.0744 98.0091 62.1638 97.5276 63.1771C97.0207 64.2919 96.083 64.8999 94.8665 64.9506C93.6501 65.0012 92.459 65.0012 91.2425 64.9252C89.6713 64.8239 88.3281 63.3292 88.3281 61.7331C88.3281 61.7331 88.3535 61.6824 88.3535 61.6064Z" fill="white"/>
<path d="M55.9648 65.0013C55.9648 64.8999 55.9648 64.7986 55.9648 64.7226C55.9648 61.4291 55.9648 58.1102 55.9648 54.8167C55.9648 54.0567 56.3957 53.626 57.156 53.626C58.8286 53.626 60.5011 53.626 62.1738 53.626C64.0745 53.626 65.4683 55.0194 65.443 56.9195C65.443 57.5022 65.4684 58.1102 65.367 58.6929C65.0882 60.1877 63.7958 61.201 62.3005 61.2264C60.932 61.2264 59.5635 61.2264 58.1697 61.2264C57.9416 61.2264 57.8655 61.2771 57.8655 61.5051C57.8655 62.5691 57.8655 63.6585 57.8655 64.7226C57.8655 64.9506 57.7895 65.0266 57.5614 65.0266C57.1053 65.0013 56.6744 65.0266 56.2182 65.0266C56.1675 65.0266 56.0916 65.0013 55.9648 65.0013ZM60.2478 55.5514C59.5635 55.5514 58.8539 55.5514 58.1697 55.5514C57.9669 55.5514 57.8908 55.6021 57.8908 55.8048C57.8908 56.8942 57.8908 57.9835 57.8908 59.0476C57.8908 59.2249 57.9415 59.3009 58.1443 59.3009C59.5128 59.3009 60.856 59.3009 62.2245 59.3009C63.0101 59.3009 63.5423 58.7689 63.5423 58.0089C63.5423 57.6289 63.5423 57.2488 63.5423 56.8688C63.517 56.0581 63.0101 55.5514 62.2245 55.5514C61.5403 55.5514 60.9067 55.5514 60.2478 55.5514Z" fill="white"/>
<path d="M54.5707 65.0264C53.8105 65.0264 53.1516 65.0264 52.4673 65.0264C52.3913 65.0264 52.3152 64.925 52.2645 64.849C51.9858 64.3677 51.6817 63.861 51.4283 63.3543C51.3522 63.2023 51.2508 63.1263 51.0734 63.1263C49.0207 63.1263 46.9679 63.1263 44.9152 63.1263C44.7378 63.1263 44.6364 63.177 44.535 63.3543C44.2563 63.8357 43.9775 64.3423 43.6988 64.8237C43.6227 64.9757 43.5213 65.0264 43.3439 65.0264C42.761 65.0264 42.2035 65.0264 41.6206 65.0264C41.5446 65.0264 41.4686 65.001 41.3672 65.001C43.572 61.1502 45.7515 57.2993 47.9563 53.4231C50.1865 57.2993 52.3659 61.1248 54.5707 65.0264ZM50.1865 61.2008C49.4515 59.8834 48.7165 58.6167 47.9816 57.3246C47.2213 58.642 46.5117 59.9088 45.7768 61.2008C47.272 61.2008 48.6913 61.2008 50.1865 61.2008Z" fill="white"/>
<path d="M76.3403 57.2994C76.3403 56.1593 76.3403 55.0446 76.3403 53.9046C76.3403 53.6765 76.4164 53.6259 76.6191 53.6259C77.0753 53.6512 77.5315 53.6512 77.9876 53.6259C78.2157 53.6259 78.2664 53.7019 78.2664 53.9299C78.2664 56.0833 78.2664 58.2368 78.2664 60.4156C78.2664 61.581 78.9 62.5437 79.939 62.9237C80.2178 63.025 80.5472 63.101 80.8513 63.101C81.3835 63.1264 81.9158 63.1264 82.4226 63.0504C83.6644 62.8477 84.5767 61.7583 84.5767 60.5169C84.5767 58.3128 84.5767 56.134 84.5767 53.9299C84.5767 53.7019 84.6274 53.6005 84.8809 53.6259C85.3117 53.6512 85.7425 53.6259 86.1733 53.6259C86.5281 53.6259 86.5281 53.6259 86.5281 53.9552C86.5281 56.0833 86.5281 58.2114 86.5281 60.3649C86.5281 60.7956 86.4774 61.2516 86.3507 61.657C85.8185 63.6331 84.0699 65.0011 82.0171 65.0265C81.2315 65.0518 80.4459 65.0772 79.6856 64.8491C77.7342 64.2918 76.391 62.5437 76.3657 60.5169C76.315 59.4275 76.3403 58.3635 76.3403 57.2994Z" fill="white"/>
<path d="M38.4545 55.5514C38.4545 55.7034 38.4545 55.8047 38.4545 55.906C38.4545 58.8449 38.4545 61.7837 38.4545 64.7225C38.4545 64.9759 38.3785 65.0519 38.1251 65.0265C37.6942 65.0012 37.2381 65.0012 36.8073 65.0265C36.5538 65.0265 36.5031 64.9505 36.5031 64.7225C36.5031 61.809 36.5031 58.8702 36.5031 55.9567C36.5031 55.5007 36.5538 55.5514 36.123 55.5514C34.8305 55.5514 33.5634 55.5514 32.2709 55.5514C32.0428 55.5514 31.9668 55.5007 31.9668 55.2473C31.9921 54.8167 31.9668 54.3606 31.9668 53.9299C31.9668 53.6006 31.9668 53.6006 32.2963 53.6006C34.9826 53.6006 37.6942 53.6006 40.3805 53.6006C41.1408 53.6006 41.9012 53.6006 42.6614 53.6006C42.8642 53.6006 42.9402 53.6513 42.9402 53.8539C42.9148 54.31 42.9148 54.766 42.9402 55.222C42.9402 55.45 42.8895 55.526 42.6361 55.526C41.3436 55.526 40.0257 55.526 38.7333 55.526C38.6572 55.5514 38.5812 55.5514 38.4545 55.5514Z" fill="white"/>
<path d="M26.7698 63.101C26.9979 63.101 27.1754 63.101 27.3781 63.101C29.1268 63.101 30.8754 63.101 32.6494 63.101C33.1309 63.101 33.3083 63.2784 33.3083 63.7597C33.3083 64.1397 33.3083 64.5451 33.3083 64.9251C33.3083 64.9505 33.3083 64.9758 33.283 65.0265C33.1816 65.0265 33.1056 65.0518 33.0042 65.0518C30.698 65.0518 28.3918 65.0518 26.0856 65.0518C25.3 65.0518 24.8691 64.6211 24.8691 63.8357C24.8691 60.5422 24.8691 57.2487 24.8691 53.9552C24.8691 53.7018 24.9198 53.6258 25.1732 53.6258C25.6041 53.6512 26.0603 53.6512 26.4911 53.6258C26.7445 53.6005 26.7952 53.7018 26.7952 53.9552C26.7952 56.894 26.7952 59.8075 26.7952 62.7463C26.7699 62.8477 26.7698 62.949 26.7698 63.101Z" fill="white"/>
<path d="M69.2444 63.1012C69.3458 63.1012 69.4472 63.1012 69.5485 63.1012C71.2212 63.1012 72.8684 63.1012 74.5411 63.1012C75.0733 63.1012 75.276 63.3038 75.276 63.8359C75.276 64.1399 75.276 64.4439 75.276 64.7479C75.276 64.9759 75.2253 65.0266 74.9972 65.0266C73.8568 65.0266 72.7417 65.0266 71.6013 65.0266C70.5876 65.0266 69.5739 65.0266 68.5602 65.0266C67.7746 65.0266 67.3184 64.5959 67.3184 63.8105C67.3184 60.517 67.3184 57.2235 67.3184 53.93C67.3184 53.702 67.369 53.626 67.6225 53.626C68.0786 53.6513 68.5095 53.6513 68.9657 53.626C69.1938 53.626 69.2444 53.6766 69.2444 53.9047C69.2444 55.2981 69.2444 56.6915 69.2444 58.1102C69.2444 59.681 69.2444 61.2771 69.2444 62.8478C69.2444 62.8985 69.2444 62.9745 69.2444 63.1012Z" fill="white"/>
<path d="M56.6995 68.7761C50.8707 68.7761 45.0926 68.7761 39.2891 68.7761C39.3397 68.6748 39.3651 68.5988 39.4158 68.5228C39.6693 68.0668 39.948 67.6107 40.1761 67.1547C40.2774 66.9774 40.4042 66.9014 40.6069 66.9014C44.8899 66.9014 49.1727 66.9014 53.4556 66.9014C54.0892 66.9014 54.7482 66.9014 55.3817 66.9014C55.5591 66.9014 55.6605 66.952 55.7366 67.104C56.0407 67.6614 56.3701 68.1934 56.6995 68.7761Z" fill="white"/>
</svg>
