<svg width="87" height="69" viewBox="0 0 87 69" fill="none" xmlns="http://www.w3.org/2000/svg">
<path d="M74.0334 68.0532C72.7155 67.2932 71.4738 66.4571 71.195 64.785C71.119 64.3797 71.0683 63.9997 71.0176 63.5436C72.0566 63.3156 72.8169 63.2143 73.045 64.5824C73.2224 65.6211 74.084 66.1785 75.1737 66.3558C76.2888 66.5331 77.3279 66.4065 78.0882 65.5197C79.0766 64.405 78.6964 62.9356 77.2519 62.4289C76.1621 62.0236 75.0217 61.7449 73.8813 61.4155C72.6142 61.0355 71.6005 60.3515 71.4231 58.9074C71.2457 57.2353 71.6765 55.7659 73.2478 54.9552C74.895 54.0938 76.6436 54.1698 78.2656 55.0565C79.5834 55.7912 80.0396 57.0326 79.9636 58.578C79.0512 58.7554 78.3163 59.0594 77.9868 57.6407C77.632 56.0446 75.2498 55.4619 73.9573 56.5006C72.7916 57.4126 73.0196 59.1607 74.4135 59.6674C75.3258 59.9968 76.2888 60.2501 77.2519 60.4781C79.406 61.0355 80.2931 61.8715 80.3944 63.5183C80.5211 65.5704 79.6341 66.9892 77.708 67.7745C77.5306 67.8505 77.3786 67.9265 77.2012 68.0279C76.1368 68.0532 75.0978 68.0532 74.0334 68.0532Z" fill="white"/>
<path d="M49.7039 68.0532C47.5751 67.1664 46.8402 65.3677 46.7895 63.2649C46.7388 60.4781 46.7641 57.6913 46.7641 54.8031C47.347 54.8031 47.8792 54.8031 48.5888 54.8031C48.5888 55.3858 48.5888 55.9685 48.5888 56.5512C48.6395 59.11 48.6142 61.6688 48.7662 64.2276C48.8676 65.697 49.856 66.4064 51.3005 66.4064C52.7197 66.4064 53.6574 65.6717 53.7841 64.1769C53.9362 62.2768 53.9361 60.3514 53.9868 58.426C54.0122 57.2353 53.9868 56.0192 53.9868 54.7524C54.5951 54.7524 55.1019 54.7524 55.6848 54.7524C55.7102 54.9805 55.7861 55.2338 55.7861 55.4871C55.7861 58.122 55.8115 60.7821 55.7861 63.4169C55.7608 65.5197 54.9752 67.2171 52.8717 68.0278C51.8327 68.0531 50.7683 68.0532 49.7039 68.0532Z" fill="white"/>
<path d="M39.2375 68.0532C36.2724 66.8372 35.6895 64.253 35.5881 61.4662C35.5374 59.6421 35.7909 57.8433 36.83 56.2726C37.869 54.7018 39.3896 54.2205 41.1635 54.4485C42.9122 54.6765 44.0019 55.7406 44.6101 57.362C44.7622 57.742 44.8129 58.1474 44.9396 58.6287C43.9766 58.7554 43.1149 59.0847 42.7094 57.7167C42.4306 56.7539 41.645 56.0699 40.5046 56.0446C39.3642 56.0192 38.6039 56.6526 38.1984 57.59C37.1594 60.0221 37.1594 62.5049 38.2238 64.9624C38.6293 65.8744 39.3896 66.4571 40.454 66.4571C41.4677 66.4571 42.1266 65.8744 42.6081 65.0384C42.7602 64.785 42.9121 64.481 42.9375 64.2024C43.0389 62.8089 43.8752 62.7076 45.0663 62.9863C44.9396 65.3424 43.8752 67.0652 41.7211 68.0786C40.9101 68.0532 40.0738 68.0532 39.2375 68.0532Z" fill="white"/>
<path d="M11.9687 68.0531C8.54741 66.5837 8.1672 63.3662 8.42063 60.022C8.49666 58.8819 8.8515 57.7165 9.33301 56.6778C10.1947 54.803 12.1967 54.0177 14.3255 54.5244C16.1502 54.9551 17.4934 56.6525 17.5694 58.6793C17.0119 58.6793 16.4543 58.6793 15.8968 58.6793C15.694 58.2486 15.542 57.8179 15.3392 57.4125C14.8831 56.5511 14.1988 56.0191 13.1851 56.0191C12.1714 56.0444 11.4618 56.5511 11.0309 57.4378C9.86517 59.8953 9.86519 62.3781 10.9803 64.8609C11.4364 65.8743 12.2221 66.457 13.3879 66.4063C14.5283 66.3557 15.2632 65.7223 15.6687 64.6836C15.8208 64.2529 15.9474 63.8222 16.0995 63.3408C16.657 63.3408 17.2146 63.3408 17.7975 63.3408C17.7468 65.621 16.657 67.1157 14.6803 68.0277C13.7933 68.0531 12.881 68.0531 11.9687 68.0531Z" fill="white"/>
<path d="M47.0938 0.257514C49.3999 0.257514 51.6301 0.206841 53.8603 0.282845C55.6343 0.333514 56.9521 1.7776 56.9521 3.57636C56.9775 6.97121 57.0028 10.3661 56.9267 13.7609C56.9014 14.5716 56.3692 15.3823 56.0144 16.345C56.8 16.9531 56.9774 18.0678 56.9774 19.2839C56.9521 22.1974 56.9267 25.1109 56.9774 27.999C57.0027 29.2911 57.2055 30.5831 57.3575 32.0019C56.6226 32.0019 55.6596 32.0526 54.7219 31.9766C54.4685 31.9512 54.0884 31.6725 54.0123 31.4192C53.8096 30.7098 53.6069 29.9498 53.6069 29.2151C53.5562 25.8456 53.5815 22.5014 53.5815 19.1319C53.5815 18.7265 53.5815 18.3211 53.5815 17.8398C52.4917 17.8398 51.5287 17.8398 50.439 17.8398C50.439 22.5267 50.439 27.1883 50.439 31.9259C49.2732 31.9259 48.2342 31.9259 47.0938 31.9259C47.0938 21.412 47.0938 10.8981 47.0938 0.257514ZM50.4897 3.67769C50.4897 7.32589 50.4897 10.8474 50.4897 14.3943C51.5541 14.3943 52.5171 14.3943 53.5308 14.3943C53.5308 10.7967 53.5308 7.27522 53.5308 3.67769C52.4918 3.67769 51.5287 3.67769 50.4897 3.67769Z" fill="white"/>
<path d="M63.8452 16.0917C63.8452 12.4182 63.8452 8.76999 63.8452 5.09646C63.8452 2.33498 65.898 0.181525 68.4576 0.00418242C71.6001 -0.198495 73.8303 2.30964 73.8303 4.89378C73.8303 12.4182 73.881 19.9426 73.805 27.4417C73.7797 30.3045 71.4735 32.3313 68.5844 32.2553C65.8727 32.1792 63.8452 30.0005 63.8452 27.1883C63.8199 23.4894 63.8452 19.7906 63.8452 16.0917ZM70.3584 28.5817C70.3584 20.2213 70.3584 11.9622 70.3584 3.70305C69.2686 3.70305 68.2803 3.70305 67.2919 3.70305C67.2919 12.0382 67.2919 20.2973 67.2919 28.5817C68.331 28.5817 69.3193 28.5817 70.3584 28.5817Z" fill="white"/>
<path d="M31.0779 0.282959C32.193 0.282959 33.1813 0.282959 34.3217 0.282959C34.3217 9.70746 34.3217 19.1066 34.3217 28.5565C35.4115 28.5565 36.3746 28.5565 37.4643 28.5565C37.4643 19.1573 37.4643 9.78347 37.4643 0.308299C38.6301 0.308299 39.6691 0.308299 40.8095 0.308299C40.8348 0.612315 40.8855 0.941659 40.8855 1.27101C40.8855 9.91014 40.8855 18.5746 40.8855 27.2137C40.8855 29.6965 39.4663 31.546 37.1855 32.1287C34.93 32.7114 32.6238 31.7233 31.534 29.5952C31.2046 28.9365 31.0272 28.1511 31.0019 27.4164C30.9765 18.5493 30.9766 9.68213 30.9766 0.789655C31.0019 0.662981 31.0272 0.536306 31.0779 0.282959Z" fill="white"/>
<path d="M24.842 0.257475C24.842 1.42287 24.842 2.41093 24.842 3.57632C22.6879 3.57632 20.5591 3.57632 18.3543 3.57632C18.3543 7.24985 18.3543 10.7714 18.3543 14.4449C19.9509 14.4449 21.5221 14.4449 23.1694 14.4449C23.1694 15.585 23.1694 16.573 23.1694 17.7384C21.5728 17.7384 20.0016 17.7384 18.3543 17.7384C18.3543 21.4119 18.3543 24.9335 18.3543 28.5817C20.4577 28.5817 22.5612 28.5817 24.766 28.5817C24.766 29.7217 24.766 30.7604 24.766 32.0018C23.727 32.0018 22.6625 32.0018 21.5728 32.0018C20.4831 32.0018 19.368 32.0018 18.2783 32.0018C16.2002 31.9765 14.9077 30.6844 14.8824 28.5817C14.8824 21.9693 14.8824 15.3569 14.8824 8.74459C14.8824 6.9965 14.857 5.27375 14.8824 3.52565C14.9077 1.80289 16.0988 0.38415 17.7714 0.308146C20.1283 0.181472 22.4345 0.257475 24.842 0.257475Z" fill="white"/>
<path d="M47.0685 46.4426C34.4225 46.4426 21.7765 46.4426 9.13046 46.4426C8.47154 46.4426 7.78731 46.2906 7.33114 47.0759C7.20443 47.304 6.64688 47.38 6.29208 47.4053C4.69549 47.4306 3.09888 47.4053 1.52763 47.4306C0.564608 47.4306 0.10847 47.0506 0.133812 46.0119C0.133812 44.9985 0.46329 44.5425 1.50234 44.5425C3.12428 44.5678 4.77154 44.5425 6.39347 44.5678C6.72293 44.5678 7.22977 44.6438 7.33114 44.8465C7.81265 45.7586 8.64898 45.5559 9.40926 45.5559C34.5999 45.5559 59.7906 45.5559 84.956 45.5812C85.4882 45.5812 85.995 45.8345 86.5272 45.9612C86.2231 46.8986 85.4628 46.4426 84.9306 46.4426C72.2846 46.4426 59.6892 46.4172 47.0685 46.4426Z" fill="white"/>
<path d="M47.0936 51.0535C34.3716 51.0535 21.6495 51.0535 8.92745 51.0535C8.34457 51.0535 7.76165 50.9269 7.38151 51.6616C7.25479 51.9149 6.67198 52.0669 6.2665 52.0669C4.6699 52.1176 3.09864 52.1176 1.50205 52.0923C0.336283 52.0669 0.158862 51.7376 0.13352 50.4202C0.108177 49.3054 0.767054 49.2041 1.60336 49.2041C3.14927 49.2041 4.72059 49.2041 6.2665 49.2294C6.59595 49.2294 7.0774 49.2548 7.22946 49.4321C7.88837 50.4202 8.85144 50.1668 9.73844 50.1668C34.8784 50.1668 60.0184 50.1668 85.1584 50.1922C85.6146 50.1922 86.4002 49.7108 86.4509 50.6735C86.4509 50.7749 85.6146 51.0282 85.1584 51.0282C72.4617 51.0535 59.7903 51.0535 47.0936 51.0535Z" fill="white"/>
<path d="M47.0929 37.0689C34.4469 37.0689 21.8009 37.0689 9.15485 37.0689C8.49593 37.0689 7.81167 36.9169 7.40619 37.7276C7.30482 37.9556 6.74729 38.057 6.3925 38.057C4.77056 38.0823 3.1233 38.0823 1.50137 38.0823C0.690398 38.0823 0.158203 37.8796 0.158203 36.8662C0.158203 35.9035 0.310207 35.2195 1.45063 35.2195C3.07257 35.2195 4.7199 35.2195 6.34184 35.2195C6.64595 35.2195 7.07677 35.2448 7.20348 35.4222C7.96376 36.5116 9.07886 36.1822 10.0672 36.1822C35.1059 36.1822 60.1444 36.1822 85.1577 36.2075C85.6139 36.2075 86.3742 35.7515 86.4756 36.6889C86.4756 36.7902 85.6392 37.0436 85.1831 37.0436C72.461 37.0689 59.7643 37.0689 47.0929 37.0689Z" fill="white"/>
<path d="M46.9675 41.7559C34.3215 41.7559 21.6754 41.7559 9.02942 41.7559C8.42119 41.7559 7.78756 41.6292 7.38208 42.3892C7.25537 42.6426 6.64721 42.7439 6.26707 42.7439C4.67048 42.7946 3.07387 42.7692 1.50262 42.7692C0.488913 42.7692 0.134117 42.3132 0.15946 41.2745C0.15946 40.3118 0.514231 39.8811 1.47725 39.8811C3.09919 39.8811 4.74645 39.8557 6.36839 39.9064C6.72318 39.9064 7.25537 40.0078 7.38208 40.2358C7.83825 41.0718 8.54787 40.9198 9.23213 40.9198C34.5242 40.9198 59.8416 40.9198 85.1337 40.9451C85.5898 40.9451 86.0713 41.2492 86.5275 41.4012C86.0713 41.5278 85.6152 41.7559 85.1843 41.7559C72.4116 41.7559 59.6896 41.7559 46.9675 41.7559Z" fill="white"/>
<path d="M27.3776 62.2261C27.3776 64.1262 27.3776 65.849 27.3776 67.6984C26.7947 67.7238 26.2879 67.7491 25.6543 67.7744C25.6543 63.4169 25.6543 59.1353 25.6543 54.6257C27.5803 54.7271 29.557 54.6257 31.4577 54.9804C33.8399 55.4111 34.7776 58.8059 33.2064 60.6554C33.0036 60.8834 32.801 61.0861 32.5475 61.3648C34.5243 63.0368 33.0037 65.6716 34.2962 67.5211C32.5222 68.2051 32.0406 67.9264 31.9646 66.1783C31.9393 65.8743 31.9393 65.5703 31.914 65.2663C31.7619 62.4541 31.5085 62.2261 28.6701 62.2261C28.3153 62.2261 27.9351 62.2261 27.3776 62.2261ZM27.4536 56.4498C27.4536 57.8432 27.4536 59.1606 27.4536 60.554C27.8084 60.5794 28.1125 60.6047 28.4166 60.6047C29.0249 60.6047 29.6331 60.5794 30.216 60.5287C31.4324 60.4274 31.9646 59.8447 31.99 58.6539C32.0153 57.2605 31.5591 56.6018 30.292 56.4752C29.3796 56.3738 28.4927 56.4498 27.4536 56.4498Z" fill="white"/>
<path d="M66.3537 56.2979C65.264 56.2979 64.3516 56.2979 63.3633 56.2979C63.3633 55.7405 63.3633 55.3099 63.3633 54.7778C65.8976 54.7778 68.4065 54.7778 71.0168 54.7778C71.0168 55.2339 71.0168 55.6899 71.0168 56.2726C70.1044 56.2726 69.1667 56.2726 68.1277 56.2726C68.1277 60.0981 68.1277 63.8223 68.1277 67.6479C67.5194 67.6479 67.0126 67.6479 66.3537 67.6479C66.3537 63.9237 66.3537 60.1741 66.3537 56.2979Z" fill="white"/>
<path d="M20.1794 56.3739C19.7485 56.3232 19.3684 56.2726 18.9629 56.2219C18.9629 55.7659 18.9629 55.3099 18.9629 54.7778C20.3821 54.7778 21.8013 54.7778 23.2965 54.7778C23.2965 55.2085 23.2965 55.6645 23.2965 56.2219C22.9417 56.2726 22.5362 56.2979 22.0801 56.3486C22.0801 59.5914 22.0801 62.7836 22.0801 66.0011C22.5109 66.0518 22.8657 66.1278 23.3218 66.1784C23.3218 66.6598 23.3218 67.1412 23.3218 67.6732C21.8773 67.6732 20.4581 67.6732 18.9629 67.6732C18.9629 67.1665 18.9629 66.7358 18.9629 66.2291C19.343 66.1531 19.7232 66.0771 20.1794 65.9758C20.1794 62.8089 20.1794 59.6674 20.1794 56.3739Z" fill="white"/>
<path d="M62.4001 66.2038C62.4001 66.7358 62.4001 67.1665 62.4001 67.6985C60.9809 67.6985 59.587 67.6985 58.0918 67.6985C58.0918 67.2425 58.0918 66.7611 58.0918 66.2291C58.4212 66.1784 58.7761 66.1024 59.2322 66.0264C59.2322 62.8596 59.2322 59.6674 59.2322 56.3993C58.8521 56.3486 58.4972 56.2979 58.0664 56.2472C58.0664 55.7659 58.0664 55.3099 58.0664 54.7778C59.5109 54.7778 60.9048 54.7778 62.3747 54.7778C62.3747 55.2592 62.3747 55.7152 62.3747 56.2726C62.0199 56.3232 61.6651 56.3486 61.209 56.3993C61.209 59.6168 61.209 62.8089 61.209 66.0264C61.5638 66.0518 61.9439 66.1278 62.4001 66.2038Z" fill="white"/>
</svg>
