<svg width="158" height="71" viewBox="0 0 158 71" fill="none" xmlns="http://www.w3.org/2000/svg">
<path d="M37.5984 16.3998C35.2669 16.3998 32.986 16.3998 30.6291 16.3998C30.6291 16.7038 30.6291 16.9572 30.6291 17.2358C30.6291 31.854 30.6292 46.4721 30.6038 61.0902C30.6038 61.5209 30.4771 62.0276 30.249 62.4076C28.7791 64.941 27.2839 67.4238 25.814 69.932C25.6873 70.1347 25.5859 70.3373 25.4085 70.5907C25.2565 70.3627 25.1551 70.2107 25.0537 70.0333C23.5332 67.4745 22.0126 64.9157 20.5427 62.3316C20.34 61.9769 20.2133 61.5462 20.2133 61.1408C20.1879 46.5227 20.1879 31.9046 20.1879 17.2865C20.1879 17.0078 20.1879 16.7291 20.1879 16.3744C13.7002 16.3744 7.26313 16.3744 0.775391 16.3744C0.775391 14.8544 0.775391 13.4103 0.775391 11.9155C7.21245 11.9155 13.6495 11.9155 20.1626 11.9155C20.1626 11.6369 20.1626 11.4089 20.1626 11.1808C20.1626 8.87539 20.1626 6.59525 20.1626 4.28979C20.1626 2.16168 21.7085 0.641602 23.812 0.641602C31.5415 0.641602 39.271 0.641602 47.0005 0.641602C47.2033 0.641602 47.4314 0.641602 47.6848 0.641602C47.6848 2.61771 47.6848 4.56848 47.6848 6.62059C47.4567 6.62059 47.2033 6.62059 46.9752 6.62059C42.0334 6.62059 37.0915 6.62059 32.1497 6.62059C30.9586 6.62059 30.5278 7.02595 30.5278 8.21668C30.5278 9.40741 30.5278 10.5981 30.5278 11.8649C36.3566 11.8649 42.1347 11.8649 47.9889 11.8649C47.9889 12.1942 47.9889 12.4476 47.9889 12.7009C47.9889 16.6531 47.9889 20.6053 47.9889 24.5829C47.9889 25.0896 48.065 25.5963 48.2424 26.0776C48.6225 27.1924 49.4588 27.7244 50.6246 27.7244C51.7396 27.7244 52.576 27.1417 52.9561 26.0523C53.1335 25.5456 53.2095 25.0136 53.2095 24.4816C53.2349 20.5547 53.2095 16.6531 53.2095 12.7262C53.2095 12.4729 53.2095 12.2195 53.2095 11.9155C56.6055 11.9155 59.9254 11.9155 63.3466 11.9155C63.3466 12.1435 63.3466 12.3716 63.3466 12.5996C63.3466 17.6158 63.3466 22.6321 63.3213 27.6737C63.3213 29.9032 61.7247 31.4993 59.5199 31.4993C53.4629 31.4993 47.4314 31.4993 41.3745 31.4993C39.1443 31.4993 37.5477 29.9032 37.5477 27.6991C37.5477 24.1775 37.5477 20.6813 37.5477 17.1598C37.5984 16.9318 37.5984 16.7038 37.5984 16.3998Z" fill="white"/>
<path d="M98.6738 31.4993C98.6738 24.9629 98.6738 18.4772 98.6738 11.9155C98.9273 11.9155 99.1553 11.9155 99.3834 11.9155C107.265 11.9155 115.147 11.9155 123.028 11.9155C124.067 11.9155 125.005 12.1942 125.867 12.7516C126.855 13.3849 127.387 14.297 127.387 15.4624C127.413 17.1091 127.413 18.7306 127.387 20.3773C127.336 22.2014 125.968 23.5442 123.839 23.8482C123.13 23.9495 122.42 23.9242 121.533 23.9748C123.586 26.5083 125.588 28.9404 127.641 31.4739C127.387 31.4992 127.21 31.5246 127.032 31.5246C123.206 31.5246 119.353 31.5246 115.527 31.4993C115.223 31.4993 114.843 31.2966 114.64 31.0686C112.967 29.1938 111.345 27.2937 109.673 25.3936C109.521 25.2162 109.368 25.0642 109.09 24.7602C109.09 27.091 109.09 29.2445 109.09 31.4739C105.618 31.4992 102.171 31.4993 98.6738 31.4993ZM109.14 21.3654C110.636 21.3654 112.055 21.3654 113.474 21.3654C114.64 21.3654 115.501 20.6813 115.78 19.5666C116.338 17.4132 115.197 15.9438 113.018 15.9438C111.725 15.9438 110.433 15.9438 109.14 15.9438C109.14 17.7679 109.14 19.5159 109.14 21.3654Z" fill="white"/>
<path d="M144.392 11.9157C147.382 11.9157 150.398 11.9157 153.389 11.9157C155.644 11.9157 157.241 13.5118 157.241 15.7665C157.241 19.7188 157.241 23.671 157.241 27.6232C157.241 29.726 155.898 31.2207 153.819 31.4487C153.389 31.4994 152.932 31.5247 152.476 31.5247C146.799 31.5247 141.097 31.474 135.421 31.55C133.495 31.5754 131.492 29.802 131.569 27.6738C131.67 23.6963 131.67 19.7188 131.569 15.7412C131.518 13.6891 133.368 11.789 135.497 11.865C138.462 11.9663 141.427 11.9157 144.392 11.9157ZM147.382 22.0242C147.408 21.4922 147.408 20.9601 147.408 20.4281C147.408 19.8961 147.408 19.3641 147.408 18.832C147.382 17.3626 146.47 16.3492 145.051 16.2226C143.404 16.0452 142.01 16.7546 141.908 18.1987C141.706 20.7321 141.706 23.291 141.858 25.8244C141.934 27.1672 143.277 27.8259 144.949 27.6992C146.318 27.5978 147.306 26.7618 147.382 25.4697C147.433 24.3043 147.382 23.1643 147.382 22.0242Z" fill="white"/>
<path d="M94.1639 18.1733C90.7426 18.1733 87.3974 18.1733 84.0775 18.1733C83.2412 16.4759 81.1377 15.8425 79.4651 16.7799C78.7555 17.1853 78.3754 17.7933 78.35 18.604C78.3247 20.8334 78.3247 23.0629 78.35 25.3177C78.35 26.4831 79.0596 27.3698 80.2001 27.5978C80.8083 27.7245 81.4672 27.7245 82.1008 27.6231C83.2412 27.4205 83.9761 26.5591 84.0775 25.419C84.1282 24.9377 84.0775 24.4563 84.0775 23.8736C83.596 23.8736 83.1652 23.8736 82.7343 23.8736C82.3035 23.8736 81.898 23.8736 81.4165 23.8736C81.4165 22.7335 81.4165 21.6695 81.4165 20.5548C85.6487 20.5548 89.9063 20.5548 94.2146 20.5548C94.2146 24.203 94.2146 27.8765 94.2146 31.6007C93.9105 31.6007 93.6317 31.6007 93.3783 31.6007C90.7933 31.6007 88.2337 31.5754 85.6487 31.626C85.1165 31.626 84.7617 31.4994 84.559 30.9927C84.4323 30.6633 84.2042 30.3846 83.9761 30.0046C83.7987 30.2073 83.6467 30.3593 83.52 30.5113C82.861 31.2207 82.0501 31.626 81.0364 31.6007C78.0206 31.5754 74.9795 31.6007 71.9637 31.5754C69.8349 31.5754 68.2383 29.9793 68.2383 27.8765C68.2383 23.8229 68.2383 19.7441 68.2383 15.6905C68.2383 13.5877 69.8349 11.9663 71.9383 11.9663C78.0966 11.9663 84.2549 11.9663 90.4132 11.9663C92.5673 11.9663 94.1639 13.5877 94.1639 15.7158C94.1639 16.4759 94.1639 17.2866 94.1639 18.1733Z" fill="white"/>
</svg>
