<svg width="179" height="33" viewBox="0 0 179 33" fill="none" xmlns="http://www.w3.org/2000/svg">
<path d="M27.7248 5.37997C21.9719 0.921066 15.7883 -0.117649 9.24989 3.15053C5.34711 5.1013 2.73681 8.29347 1.52036 12.499C-0.912547 20.9355 4.63751 29.4226 13.7609 31.2973C21.6425 32.9188 30.8673 27.3705 31.8303 20.0994C25.1905 20.0994 18.6014 20.0994 11.9869 20.0994C11.9869 19.8968 11.9616 19.6688 11.9616 19.4661C12.3924 19.4154 12.8232 19.2887 13.2287 19.2887C19.3363 19.2887 25.4186 19.2887 31.5262 19.2887C33.1481 19.2887 33.3255 19.4661 32.7933 20.9862C30.7405 27.0411 26.4576 30.664 20.2993 32.0828C11.8602 34.0082 3.04092 28.9666 0.658703 20.8848C-2.38243 10.6749 5.44848 0.591723 16.4979 0.439714C20.35 0.389045 23.822 1.45309 26.9391 3.73321C27.37 4.03723 27.6741 4.49327 28.0289 4.87329C27.9528 5.05063 27.8261 5.20263 27.7248 5.37997Z" fill="white"/>
<path d="M27.4713 22.6076C22.3013 22.6076 17.1568 22.6076 11.9868 22.6076C11.9868 22.4303 11.9868 22.2529 11.9868 22.1009C17.7143 22.1009 23.4418 22.1009 29.1692 22.1009C28.1808 26.2052 22.1239 29.8787 16.4472 29.828C10.1368 29.7774 4.4347 25.3185 3.06619 19.3648C1.67234 13.2845 4.76416 7.12814 10.5676 4.39199C15.8389 1.90919 23.163 3.02391 25.9253 7.1028C25.4692 6.87479 24.9623 6.67211 24.5315 6.36809C19.9951 3.3786 15.2814 3.02392 10.4409 5.48138C5.3217 8.09085 2.76208 13.6645 4.00387 19.2128C5.16964 24.4571 10.1622 28.5613 15.6615 28.8653C19.7924 29.0933 23.3657 27.8773 26.3055 24.8878C26.8123 24.3811 27.1925 23.7477 27.6487 23.165C27.598 22.9877 27.5473 22.8103 27.4713 22.6076Z" fill="white"/>
<path d="M70.4277 16.8058C70.4277 12.0936 70.4277 7.38132 70.4277 2.64373C70.6051 2.64373 70.7825 2.64374 70.9599 2.61841C70.9599 6.59595 70.9599 10.5735 70.9599 14.9817C74.5333 12.6509 77.9038 11.9922 81.5278 13.2843C83.6566 14.0444 85.3293 15.3871 86.5457 17.2872C88.8519 20.8847 88.4464 25.445 85.5573 28.7131C82.2121 32.5133 77.549 32.9694 71.264 30.0052C71.112 30.7399 70.9853 31.4493 70.8332 32.1587C70.7065 32.1587 70.5798 32.1333 70.4531 32.1333C70.4531 30.7399 70.4531 29.3212 70.4531 27.8011C72.4805 29.8785 74.8881 31.2466 77.9545 31.1706C80.9957 31.1199 83.4286 29.9292 85.2786 27.5477C87.9396 24.1529 87.6101 19.4153 84.569 16.2991C80.7422 12.4229 76.3073 12.5749 70.4277 16.8058Z" fill="white"/>
<path d="M168.53 13.0056C174.206 13.0056 178.692 17.2618 178.692 22.6581C178.692 27.9784 174.13 32.412 168.58 32.4627C163.03 32.5387 158.317 28.0038 158.342 22.6328C158.367 17.2619 162.878 13.0056 168.53 13.0056ZM168.403 31.4999C173.624 31.5253 177.678 27.6997 177.704 22.7595C177.729 17.7939 173.649 13.8163 168.58 13.791C163.537 13.7656 159.406 17.6672 159.356 22.5061C159.305 27.5477 163.258 31.4746 168.403 31.4999Z" fill="white"/>
<path d="M110.368 19.9982C108.315 14.8299 103.627 16.426 99.6735 16.0967C99.8002 15.7673 99.8255 15.5393 99.9016 15.514C102.461 15.0073 104.995 14.9059 107.53 15.6913C109.811 16.4007 111.838 19.1368 111.306 21.8983C110.799 21.721 110.317 21.5436 109.861 21.3663C107.175 20.3022 104.413 19.8462 101.574 20.6316C99.116 21.3156 97.7474 23.165 97.7221 25.6478C97.6714 28.308 98.8879 30.0307 101.447 30.8668C104.235 31.7788 106.922 31.2721 109.557 30.2081C110.089 29.9801 110.622 29.7521 111.331 29.4734C111.331 30.5121 111.331 31.3481 111.331 32.1842C111.204 32.2095 111.078 32.2095 110.976 32.2349C110.824 31.7788 110.647 31.2975 110.596 31.1455C107.935 31.4241 105.401 31.9308 102.892 31.9055C98.8118 31.8548 96.5563 29.22 96.7084 25.1665C96.8351 21.8983 99.5214 19.3648 103.196 19.3648C105.528 19.3142 107.859 19.7449 110.368 19.9982Z" fill="white"/>
<path d="M54.7648 29.3972C54.7648 30.436 54.7648 31.2973 54.7648 32.1841C54.6381 32.2094 54.5114 32.2347 54.41 32.2601C54.258 31.804 54.1059 31.348 53.9285 30.7906C52.7121 31.12 51.5209 31.6014 50.2792 31.7281C48.7079 31.9054 47.1113 32.0574 45.5654 31.8294C41.8654 31.3227 39.9393 28.8652 40.1167 25.2677C40.2941 21.9488 42.7524 19.4154 46.3257 19.3394C48.4038 19.2887 50.5072 19.7954 52.6107 20.0487C52.9401 20.0994 53.2443 20.2008 53.5991 20.2768C53.3456 18.1486 51.7744 16.5272 49.2654 16.2485C47.2634 16.0205 45.2106 16.1979 43.1832 16.1979C43.1578 16.0459 43.1578 15.8939 43.1325 15.7418C43.3099 15.6405 43.4873 15.4125 43.6647 15.4125C45.7681 15.3871 47.9223 15.1591 50.0004 15.4632C53.2189 15.9445 55.221 18.8073 54.6888 21.8728C54.2073 21.6955 53.7765 21.5435 53.3456 21.3662C51.1155 20.4034 48.7839 20.0741 46.3764 20.2768C43.2592 20.5554 41.1558 22.6582 41.0544 25.6224C40.953 28.4599 42.8791 30.816 46.0216 31.044C48.0743 31.196 50.2031 30.7146 52.2812 30.36C53.0922 30.3093 53.8271 29.8026 54.7648 29.3972Z" fill="white"/>
<path d="M77.7769 29.8534C73.4433 29.828 70.1994 26.5092 70.2248 22.1769C70.2754 18.1487 73.6967 14.8552 77.8529 14.8552C82.0852 14.8552 85.6078 18.3514 85.5571 22.481C85.4811 26.5598 81.9838 29.8787 77.7769 29.8534ZM77.8276 15.8433C74.1022 15.8433 71.1624 18.7061 71.1371 22.3543C71.1118 25.9772 74.2543 29.0933 77.8783 29.0426C81.5276 28.992 84.5434 26.0278 84.5434 22.4303C84.5688 18.6808 81.6543 15.8179 77.8276 15.8433Z" fill="white"/>
<path d="M68.399 2.4917C68.475 2.92239 68.6017 3.37842 68.6017 3.80911C68.6017 12.8789 68.627 21.9234 68.6017 30.9932C68.6017 31.3986 68.3229 31.8293 68.1709 32.2346C67.9935 31.8293 67.664 31.4493 67.664 31.0439C67.6387 21.9234 67.6387 12.8283 67.6387 3.70777C67.6387 3.30242 67.7654 2.89705 67.8414 2.4917C68.0188 2.4917 68.2216 2.4917 68.399 2.4917Z" fill="white"/>
<path d="M113.231 32.1587C113.18 31.7026 113.13 31.272 113.13 30.8159C113.13 27.9024 113.13 24.9636 113.13 22.0501C113.079 16.9072 110.165 13.9177 105.045 13.791C103.474 13.7657 101.878 13.943 100.306 14.019C99.9008 14.0444 99.5206 13.9937 99.0645 13.639C99.2419 13.5377 99.4193 13.3603 99.622 13.3097C102.638 12.8536 105.628 12.7016 108.593 13.5883C111.457 14.4497 113.459 16.4005 113.713 19.3393C114.067 23.2662 113.915 27.2437 113.966 31.1959C113.966 31.5 113.814 31.8293 113.738 32.1333C113.561 32.1586 113.408 32.1587 113.231 32.1587Z" fill="white"/>
<path d="M48.0491 30.056C47.1368 29.904 46.1738 29.828 45.3121 29.5493C43.4621 28.9666 42.6511 27.9026 42.6005 26.2812C42.5244 24.305 43.3607 22.8356 45.1601 22.2023C48.5307 21.0115 51.5971 21.8983 54.4102 23.7984C55.4492 24.5077 55.1958 27.3959 54.0807 28.1306C52.256 29.3213 50.254 29.9547 48.0491 30.056ZM48.2012 29.296C48.2772 29.372 48.3279 29.448 48.4039 29.5493C50.0766 28.8906 51.8252 28.3586 53.3711 27.5226C54.5369 26.8892 54.5115 24.7357 53.4218 24.1024C51.141 22.785 48.6827 22.1009 46.0217 22.7343C44.5012 23.089 43.8169 24.153 43.6395 25.5971C43.4621 27.0665 44.197 28.1053 45.4895 28.6373C46.3512 28.992 47.3142 29.068 48.2012 29.296Z" fill="white"/>
<path d="M104.615 30.0559C103.602 30.0559 102.765 29.8279 101.878 29.5492C100.104 28.9919 99.2173 27.8518 99.1412 26.2557C99.0652 24.457 99.9522 22.8862 101.625 22.2528C105.021 20.9608 108.138 21.8728 111.002 23.8236C112.117 24.5836 111.813 27.6238 110.52 28.2065C108.67 29.0425 105.756 30.1573 104.615 30.0559ZM103.804 29.0932C104.691 29.3212 105.629 29.2705 106.491 28.9412C107.58 28.5358 108.771 28.1051 109.912 27.5478C111.002 26.9904 111.179 24.8116 110.216 24.2289C107.732 22.7089 105.071 21.9235 102.157 22.8862C100.789 23.3422 100.332 24.5076 100.231 25.7997C100.13 27.0664 100.738 28.0292 101.904 28.5105C102.461 28.7639 103.069 28.9159 103.804 29.0932Z" fill="white"/>
<path d="M42.3984 13.3857C46.4279 12.9043 50.4574 12.3469 54.2081 14.7031C56.1595 15.9191 57.1479 17.8699 57.2492 20.074C57.4266 23.9249 57.3506 27.8011 57.3506 31.6519C57.3506 31.8293 57.2239 31.9813 56.8184 32.2093C56.7424 31.7533 56.5903 31.3226 56.5903 30.8666C56.565 28.0038 56.5903 25.1156 56.565 22.2528C56.5396 16.9832 53.5492 13.8923 48.3032 13.8163C46.7827 13.791 45.2368 13.9683 43.7162 14.0443C43.26 14.0697 42.8039 14.0443 42.373 14.0443C42.373 13.8163 42.3984 13.5883 42.3984 13.3857Z" fill="white"/>
<path d="M134.215 16.2738C133.759 16.4765 133.328 16.7045 132.872 16.8565C127.955 18.5539 127.854 18.7059 127.854 23.8489C127.854 26.2303 127.854 28.6118 127.854 30.9679C127.854 31.3986 127.727 31.8293 127.651 32.26C127.474 32.26 127.322 32.26 127.144 32.2853C127.043 31.8039 126.891 31.3479 126.865 30.8666C126.84 27.345 126.789 23.8235 126.891 20.3273C126.916 19.618 127.398 18.6299 127.955 18.3006C129.602 17.3378 131.427 16.6538 133.176 15.8938C133.429 15.7924 133.759 15.8684 134.063 15.8684C134.139 15.9951 134.164 16.1471 134.215 16.2738Z" fill="white"/>
<path d="M152.107 16.3246C151.043 16.7553 149.953 17.2113 148.864 17.6166C146.633 18.4274 145.442 19.7194 145.696 22.3542C145.974 25.0904 145.772 27.9025 145.746 30.664C145.746 31.1707 145.67 31.6521 145.62 32.1588C145.442 32.1588 145.29 32.1841 145.113 32.1841C145.037 31.8294 144.885 31.4494 144.885 31.0947C144.859 27.4212 144.834 23.773 144.91 20.0995C144.91 19.5421 145.189 18.6807 145.62 18.4527C147.52 17.4393 149.522 16.6286 151.525 15.7419C151.651 15.6912 151.854 15.8432 152.031 15.8939C152.057 16.0712 152.082 16.1979 152.107 16.3246Z" fill="white"/>
<path d="M143.237 13.1831C143.237 19.4914 143.237 25.8251 143.237 32.1334C143.085 32.1334 142.959 32.1334 142.807 32.1334C142.807 25.7997 142.807 19.4914 142.807 13.1577C142.933 13.183 143.085 13.1831 143.237 13.1831Z" fill="white"/>
<path d="M125.32 13.0056C125.32 19.5926 125.32 25.8503 125.32 32.3107C124.458 31.2719 124.433 14.4497 125.32 13.0056Z" fill="white"/>
<path d="M127.145 16.5526C127.145 15.3365 127.145 14.2724 127.145 13.1831C127.297 13.1831 127.449 13.1577 127.626 13.1577C127.753 13.7404 127.905 14.2978 128.057 14.9565C130.034 14.5258 131.757 13.2084 133.784 13.3351C133.835 13.4617 133.86 13.5884 133.911 13.7151C131.681 14.6525 129.476 15.5645 127.145 16.5526Z" fill="white"/>
<path d="M176.537 8.19206C175.599 9.56014 174.839 10.8269 173.927 11.9416C173.673 12.2456 172.913 12.1443 172.254 12.2456C173.04 8.74942 173.977 7.83738 176.537 8.19206Z" fill="white"/>
<path d="M146.026 14.8804C147.952 14.2723 149.802 13.6896 151.652 13.1069C151.728 13.3096 151.778 13.4869 151.854 13.6896C149.624 14.6523 147.394 15.5897 145.088 16.5778C145.088 15.5391 145.088 14.4497 145.088 13.3349C145.215 13.3096 145.367 13.2843 145.493 13.2589C145.671 13.791 145.848 14.323 146.026 14.8804Z" fill="white"/>
<path d="M176.106 22.7343C176.081 26.9399 172.761 30.1574 168.453 30.132C164.195 30.1067 160.901 26.8385 160.926 22.6076C160.951 18.4274 164.373 15.0832 168.579 15.1592C172.837 15.2352 176.132 18.5287 176.106 22.7343ZM168.681 16.0966C164.93 16.0206 161.838 18.9088 161.762 22.5823C161.712 26.1545 164.651 29.144 168.351 29.296C172.001 29.4227 175.219 26.3825 175.27 22.7596C175.295 19.1621 172.381 16.198 168.681 16.0966Z" fill="white"/>
</svg>
