<svg width="118" height="53" viewBox="0 0 118 53" fill="none" xmlns="http://www.w3.org/2000/svg">
<path d="M115.611 35.4274C115.18 35.934 114.699 36.3647 114.217 36.7954C111.861 38.7969 109.225 40.4183 106.488 41.837C101.546 44.4465 96.3001 46.3213 90.9021 47.7654C86.7459 48.8801 82.5136 49.7161 78.2307 50.2988C74.7587 50.7802 71.2614 51.0842 67.7388 51.2615C63.7853 51.4642 59.8319 51.4642 55.8784 51.3629C52.4825 51.2615 49.0865 51.0335 45.716 50.7042C40.9262 50.2228 36.1618 49.4628 31.4733 48.3734C26.3795 47.1827 21.4123 45.6119 16.6732 43.3318C13.5054 41.8117 10.5402 40.0129 7.90459 37.6568C5.97854 35.9341 4.35661 33.9833 3.31756 31.6018C1.67028 27.8776 1.97441 24.2548 3.84977 20.7079C5.04088 18.4531 6.7135 16.5783 8.63955 14.9063C10.819 12.9808 13.2519 11.4101 15.8369 10.042C16.0143 9.94066 16.0649 9.96599 16.0903 10.194C16.1917 11.4101 16.6985 12.4235 17.6109 13.2342C17.8643 13.4622 17.8643 13.4622 17.5602 13.6395C15.6088 14.8809 13.7841 16.2743 12.1875 17.9464C10.8444 19.3398 9.72928 20.8853 9.07037 22.7347C8.31009 24.8375 8.51283 26.8896 9.22242 28.9417C10.0841 31.4498 11.63 33.5273 13.5307 35.3514C16.0396 37.7328 18.9794 39.5062 22.0965 40.9757C26.126 42.8758 30.3329 44.1932 34.6412 45.2065C38.2652 46.0679 41.9399 46.676 45.6146 47.132C48.8331 47.5373 52.077 47.7907 55.3209 47.9427C58.9195 48.12 62.4929 48.1454 66.0915 48.0947C69.234 48.044 72.4019 47.892 75.5444 47.6387C81.6013 47.1573 87.6329 46.3466 93.5631 44.9785C98.7583 43.7878 103.827 42.1917 108.642 39.8356C111.05 38.6449 113.356 37.2515 115.408 35.5034C115.434 35.478 115.485 35.4274 115.611 35.4274Z" fill="white"/>
<path d="M28.9396 20.1252C29.193 19.8972 29.3958 19.6945 29.6238 19.5172C30.5615 18.7825 31.6259 18.3264 32.8677 18.3771C34.4136 18.4278 35.5794 19.4412 35.8328 20.9866C35.9088 21.4933 35.9595 21.9746 35.9595 22.4813C35.9595 26.5095 35.9595 30.5378 35.9595 34.566C35.9595 34.8193 35.8835 34.87 35.6554 34.87C34.7937 34.8447 33.9574 34.8447 33.0958 34.87C32.8677 34.87 32.817 34.8193 32.817 34.5913C32.817 30.9938 32.817 27.3709 32.817 23.7734C32.817 23.3427 32.7917 22.9373 32.7157 22.5067C32.5636 21.6199 32.006 21.3159 31.119 21.4933C30.3334 21.6706 29.7505 22.2026 29.2183 22.8107C29.1423 22.912 29.1676 23.0387 29.1676 23.14C29.1676 26.9402 29.1676 30.7404 29.1676 34.5406C29.1676 34.8193 29.0916 34.87 28.8382 34.87C28.0019 34.8447 27.1656 34.8447 26.3039 34.87C26.0758 34.87 26.0252 34.8193 26.0252 34.5913C26.0252 30.9178 26.0252 27.2442 26.0252 23.5707C26.0252 22.1266 25.9491 20.6826 25.645 19.2638C25.6197 19.0865 25.6703 19.0358 25.7971 19.0105C26.6587 18.7825 27.495 18.5798 28.3567 18.3518C28.5341 18.3011 28.5848 18.3518 28.6101 18.5038C28.7622 18.9851 28.8889 19.5172 28.9396 20.1252Z" fill="white"/>
<path d="M58.8685 20.1505C59.5274 19.4158 60.2877 18.9091 61.2 18.6051C61.935 18.3518 62.6953 18.3011 63.4555 18.4784C64.748 18.8078 65.6097 19.7958 65.7871 21.1892C65.8378 21.6706 65.8631 22.1266 65.8631 22.608C65.8631 26.5855 65.8631 30.5631 65.8631 34.5153C65.8631 34.7687 65.8124 34.87 65.5337 34.8446C64.7227 34.8193 63.9371 34.8446 63.1261 34.8446C62.7206 34.8446 62.7206 34.8446 62.7206 34.4646C62.7206 30.9178 62.7206 27.3456 62.7206 23.7987C62.7206 23.3934 62.7206 22.988 62.6446 22.5826C62.4925 21.6453 61.8336 21.2146 60.9213 21.5186C60.1863 21.7466 59.6541 22.228 59.1473 22.7853C59.0459 22.912 59.0713 23.0387 59.0713 23.1654C59.0713 26.9402 59.0713 30.6898 59.0713 34.4646C59.0713 34.8446 59.0713 34.8446 58.6911 34.8446C57.8802 34.8446 57.0692 34.8446 56.2582 34.8446C56.0048 34.8446 55.9287 34.794 55.9287 34.5406C55.9287 31.1204 55.9287 27.6749 55.9287 24.2547C55.9287 22.5827 55.9034 20.9106 55.5486 19.2638C55.4979 19.0865 55.574 19.0105 55.7514 18.9598C56.5877 18.7571 57.3986 18.5291 58.2096 18.3264C58.387 18.2757 58.463 18.3011 58.539 18.5038C58.6911 19.0105 58.7925 19.5425 58.8685 20.1505Z" fill="white"/>
<path d="M98.0994 20.1505C98.885 19.2638 99.7973 18.7065 100.887 18.4784C102.129 18.2251 103.269 18.4024 104.207 19.3651C104.815 20.0239 105.018 20.8346 105.069 21.6959C105.094 22.5066 105.094 23.292 105.094 24.1027C105.094 27.5736 105.094 31.0698 105.094 34.5406C105.094 34.794 105.043 34.87 104.79 34.87C103.954 34.8447 103.117 34.8447 102.306 34.87C102.002 34.87 101.977 34.7687 101.977 34.5153C101.977 31.1205 101.977 27.7003 101.977 24.3054C101.977 23.748 101.977 23.1653 101.901 22.608C101.749 21.6453 101.09 21.2399 100.152 21.5186C99.4172 21.7466 98.885 22.228 98.4035 22.7853C98.3021 22.8867 98.3528 23.0133 98.3528 23.14C98.3528 26.9402 98.3528 30.7151 98.3528 34.5153C98.3528 34.794 98.2768 34.87 97.998 34.87C97.1617 34.8447 96.3254 34.8447 95.5144 34.87C95.261 34.87 95.2103 34.8193 95.2103 34.566C95.2103 30.7151 95.2103 26.8642 95.2103 22.988C95.2103 21.7466 95.1089 20.5305 94.8302 19.3398C94.7795 19.0865 94.8302 19.0105 95.0836 18.9598C95.8946 18.7571 96.6802 18.5544 97.4912 18.3264C97.6686 18.2757 97.7446 18.3011 97.7953 18.5038C97.9473 19.0105 98.0487 19.5425 98.0994 20.1505Z" fill="white"/>
<path d="M46.1468 14.6784C45.7414 14.3997 45.3105 14.2731 44.8544 14.2224C44.3475 14.1717 43.942 14.3744 43.6886 14.8051C43.5112 15.1091 43.4352 15.4385 43.4352 15.7678C43.4098 16.6545 43.4352 17.5666 43.4098 18.4533C43.4098 18.656 43.5112 18.656 43.6379 18.656C44.4489 18.656 45.2598 18.656 46.0708 18.656C46.2736 18.656 46.3496 18.6813 46.2736 18.9093C46.0962 19.6693 45.9441 20.4041 45.792 21.1641C45.7414 21.3668 45.6653 21.4174 45.4879 21.4174C44.8797 21.4174 44.2968 21.4174 43.6886 21.4174C43.4352 21.4174 43.3845 21.4934 43.3845 21.7215C43.3845 25.9777 43.3845 30.2339 43.4098 34.4648C43.4098 34.7688 43.3085 34.8448 43.0297 34.8448C42.1934 34.8195 41.3571 34.8195 40.4954 34.8448C40.242 34.8448 40.166 34.7942 40.166 34.5155C40.166 30.2846 40.166 26.0537 40.166 21.8228C40.166 21.3668 40.2167 21.4174 39.7605 21.4174C39.1016 21.4174 39.1016 21.4174 39.1016 20.7334C39.1016 20.1507 39.1269 19.5427 39.1016 18.96C39.1016 18.6813 39.1776 18.6306 39.431 18.656C39.6084 18.6813 39.7858 18.656 39.9632 18.656C40.1406 18.6813 40.1913 18.6053 40.1913 18.4279C40.166 17.8199 40.1406 17.2372 40.1406 16.6292C40.1406 15.5651 40.242 14.5264 40.6982 13.5383C41.3317 12.1196 42.4468 11.4102 43.9674 11.3849C44.9811 11.3596 45.9441 11.5369 46.8311 12.0943C47.0085 12.1956 47.0339 12.297 46.9578 12.4743C46.6791 13.209 46.4256 13.9437 46.1468 14.6784Z" fill="white"/>
<path d="M25.0874 9.66203C25.0113 8.49663 24.5805 7.48325 23.7695 6.6472C23.8456 6.5712 23.9216 6.54587 23.9976 6.52053C27.9511 5.20313 31.9553 4.13907 36.0608 3.4297C40.0396 2.74566 44.0184 2.28964 48.0479 2.03629C52.4322 1.75761 56.8165 1.75761 61.2008 1.96029C61.4795 1.96029 61.7583 1.98562 62.0371 2.03629C49.239 2.21363 36.9224 4.77243 25.0874 9.66203Z" fill="white"/>
<path d="M22.248 25.0909C22.248 28.2324 22.248 31.3739 22.248 34.5154C22.248 34.7941 22.1719 34.8447 21.9185 34.8447C21.0569 34.8194 20.2206 34.8447 19.3589 34.8447C19.1562 34.8447 19.1055 34.8194 19.1055 34.5914C19.1055 28.3844 19.1055 22.2027 19.1055 15.9957C19.1055 15.8184 19.1308 15.7424 19.3335 15.717C20.2459 15.6157 21.1836 15.489 22.0959 15.3623C22.1973 15.337 22.2733 15.3624 22.248 15.489C22.248 15.565 22.248 15.641 22.248 15.717C22.248 18.8585 22.248 21.9747 22.248 25.0909Z" fill="white"/>
<path d="M51.951 26.6363C51.951 29.2711 51.951 31.9059 51.951 34.5407C51.951 34.794 51.875 34.8447 51.6216 34.8447C50.7599 34.8194 49.8729 34.8447 49.0113 34.8447C48.8085 34.8447 48.7578 34.8194 48.7578 34.5914C48.7578 29.3978 48.7578 24.2041 48.7578 18.9852C48.7578 18.8078 48.8085 18.7318 48.9859 18.7065C49.8729 18.6052 50.7599 18.4785 51.6469 18.3518C51.9003 18.3265 51.9257 18.4025 51.9257 18.6305C51.951 21.316 51.951 23.9761 51.951 26.6363Z" fill="white"/>
<path d="M20.6023 6.52054C22.4777 6.57121 23.9476 8.06595 23.8969 9.94072C23.8462 11.7648 22.3256 13.1836 20.4503 13.1582C18.6256 13.1329 17.1811 11.5875 17.2318 9.71272C17.2824 7.96462 18.8283 6.46987 20.6023 6.52054Z" fill="white"/>
<path d="M50.3026 12.2715C51.4431 12.2715 52.3554 13.1582 52.3554 14.3236C52.3554 15.489 51.4431 16.4011 50.252 16.4011C49.1116 16.4011 48.2246 15.5143 48.1992 14.3236C48.2246 13.2089 49.1369 12.2968 50.3026 12.2715Z" fill="white"/>
<path d="M62.5696 2.06163C62.4683 2.06163 62.3669 2.06163 62.2148 2.06163C62.3669 1.98562 62.4683 2.03629 62.5696 2.06163Z" fill="white"/>
<path d="M92.3973 24.3308C92.2199 23.0388 91.8904 21.8227 91.2062 20.708C90.015 18.7065 87.937 17.8198 85.7575 18.3772C84.2876 18.7572 83.3246 19.7452 82.6403 21.0373C81.728 22.8107 81.4999 24.7108 81.4492 26.6869C81.4746 27.447 81.4999 28.2324 81.6013 28.9924C81.7787 30.2845 82.0828 31.5259 82.691 32.6913C84.4143 36.0101 88.6972 35.8834 90.5473 33.6286C91.2822 32.7166 91.7384 31.7032 92.0425 30.5885C92.6253 28.5364 92.676 26.4336 92.3973 24.3308ZM89.1027 26.3829C89.1027 27.9283 89.0774 29.2457 88.7479 30.5378C88.6466 30.9432 88.4945 31.2979 88.2664 31.6525C87.6329 32.6406 86.391 32.6406 85.7068 31.7032C85.3266 31.1712 85.1239 30.5632 85.0479 29.9298C84.7438 27.7257 84.7184 25.5215 85.0986 23.3174C85.2 22.7854 85.352 22.2787 85.6815 21.8227C86.3404 20.8853 87.5822 20.86 88.2664 21.772C88.7479 22.4054 88.8746 23.1654 89.0013 23.9001C89.0267 24.1028 89.052 24.2801 89.052 24.4828C89.1281 25.1669 89.1281 25.8762 89.1027 26.3829Z" fill="white"/>
<path d="M72.4519 27.6242C74.6567 27.6242 76.8869 27.6242 79.0917 27.6242C79.3198 27.6242 79.3705 27.5736 79.3705 27.3456C79.3705 26.0788 79.3451 24.8121 79.1677 23.5707C78.9903 22.3546 78.6609 21.1892 77.9513 20.1505C76.2787 17.693 72.68 17.6677 70.906 19.5931C69.9683 20.6065 69.4361 21.8226 69.132 23.1653C68.7519 24.8628 68.7012 26.5855 68.8532 28.3336C68.9546 29.6257 69.208 30.8671 69.7656 32.0578C70.3738 33.3246 71.2101 34.3633 72.5786 34.8953C74.8088 35.7567 77.2924 35.174 79.0917 33.1979C79.1677 33.0965 79.1677 33.0459 79.1171 32.9445C78.7369 32.2352 78.3568 31.5258 77.9513 30.7657C77.5205 31.1964 77.115 31.5765 76.6081 31.8551C75.9239 32.2605 75.1636 32.4632 74.3779 32.2858C73.3389 32.0831 72.7814 31.3231 72.4519 30.3857C72.1731 29.6003 72.1478 28.7896 72.1478 27.9536C72.1478 27.6749 72.2238 27.6242 72.4519 27.6242ZM72.1478 24.8628C72.1732 24.0014 72.2492 23.1653 72.5026 22.3546C72.5786 22.0759 72.7053 21.8226 72.8574 21.5946C73.5163 20.6319 74.9355 20.6319 75.5944 21.5946C75.9492 22.1013 76.0252 22.7093 76.1013 23.292C76.1773 23.7734 76.152 24.2801 76.1773 24.7614C76.1773 25.0148 76.1013 25.0401 75.8732 25.0401C75.2903 25.0148 74.7074 25.0401 74.1245 25.0401C73.5163 25.0401 72.9334 25.0401 72.3252 25.0401C72.1985 25.0401 72.1478 25.0148 72.1478 24.8628Z" fill="white"/>
</svg>
