<svg width="157" height="23" viewBox="0 0 157 23" fill="none" xmlns="http://www.w3.org/2000/svg">
<path d="M95.1895 22.0291C95.1895 21.8771 95.1895 21.7504 95.1895 21.5984C95.1895 17.6462 95.1895 13.694 95.1895 9.74175C95.1895 7.89232 96.5833 6.47359 98.4333 6.47359C102.387 6.44826 106.315 6.44826 110.268 6.47359C112.676 6.47359 114.678 8.47502 114.754 10.9325C114.805 12.0725 114.627 13.1366 113.968 14.0993C113.842 14.2767 113.943 14.378 114.019 14.5047C115.109 16.2528 115.008 18.7102 113.766 20.281C112.879 21.3957 111.688 22.0291 110.268 22.0291C105.352 22.0544 100.435 22.0291 95.5189 22.0291C95.4176 22.0544 95.3162 22.0544 95.1895 22.0291ZM99.9539 18.2795C100.106 18.2795 100.207 18.2795 100.334 18.2795C102.818 18.2795 105.327 18.2795 107.81 18.2795C108.368 18.2795 108.9 18.2795 109.457 18.2795C110.015 18.2542 110.395 17.8489 110.42 17.3168C110.446 16.6075 110.015 16.1767 109.305 16.1767C106.29 16.1767 103.274 16.1767 100.283 16.1767C100.182 16.1767 100.081 16.2021 99.9793 16.2021C99.9539 16.8608 99.9539 17.5448 99.9539 18.2795ZM99.9539 12.4019C100.106 12.4019 100.182 12.4019 100.283 12.4019C103.274 12.4019 106.264 12.4019 109.255 12.4019C109.99 12.4019 110.42 11.9965 110.42 11.3125C110.42 10.6538 109.99 10.2738 109.255 10.2738C106.264 10.2738 103.274 10.2738 100.283 10.2738C100.157 10.2738 100.055 10.2991 99.9285 10.2991C99.9539 11.0085 99.9539 11.6672 99.9539 12.4019Z" fill="white"/>
<path d="M49.0663 10.2738C48.9396 10.2738 48.7875 10.2738 48.6608 10.2738C44.1244 10.2738 39.5881 10.2738 35.0517 10.2738C34.1901 10.2738 33.7086 10.9071 33.9367 11.6925C34.0634 12.1485 34.4435 12.4018 35.001 12.4272C37.3072 12.4272 39.6134 12.4272 41.9196 12.4272C42.908 12.4272 43.9217 12.4272 44.91 12.4272C47.2669 12.4272 49.1169 14.2766 49.0916 16.6327C49.0916 17.3675 49.117 18.1275 48.9903 18.8369C48.6101 20.6863 46.9882 22.0544 45.0874 22.0797C40.9819 22.1304 36.9017 22.1304 32.7962 22.0797C30.8448 22.0544 29.527 20.6103 29.527 18.6342C29.527 18.3808 29.603 18.3048 29.8564 18.3048C31.3517 18.3048 32.8216 18.3048 34.3168 18.3048C37.4339 18.3048 40.5511 18.3048 43.6683 18.3048C44.4032 18.3048 44.8087 17.8488 44.758 17.1394C44.7326 16.6834 44.4539 16.3287 43.9977 16.2274C43.8203 16.1767 43.6429 16.1767 43.4655 16.1767C40.2216 16.1767 36.9525 16.1767 33.7086 16.1767C31.4277 16.1767 29.5777 14.378 29.527 12.0725C29.527 11.3125 29.5017 10.5524 29.6537 9.81771C30.0339 7.89227 31.7318 6.52419 33.7086 6.52419C37.7634 6.52419 41.7929 6.52419 45.8477 6.52419C47.8498 6.49886 49.3957 8.29765 49.0663 10.2738Z" fill="white"/>
<path d="M81.5537 22.0544C80.1598 22.0544 78.7914 22.0798 77.3975 22.0544C74.103 22.0038 71.2392 19.3183 70.9858 16.0501C70.8844 14.606 70.8084 13.1366 71.1125 11.6925C71.7207 8.88039 74.1537 6.75228 77.0174 6.5496C78.0058 6.4736 78.9941 6.49892 79.9824 6.49892C81.7818 6.49892 83.5558 6.49892 85.3551 6.49892C88.6497 6.49892 91.336 8.67772 92.0202 11.8952C92.0963 12.3006 92.147 12.7313 92.147 13.162C92.147 14.226 92.1977 15.2901 92.071 16.3541C91.7415 19.2676 89.1312 21.8011 86.2168 21.9784C84.6709 22.0798 83.125 22.0037 81.5791 22.0037C81.5537 22.0291 81.5537 22.0291 81.5537 22.0544ZM81.5537 10.2738C80.7174 10.2738 79.8557 10.2485 79.0194 10.2738C77.6002 10.2991 76.5612 10.9832 75.8769 12.1992C75.4208 13.0099 75.4461 13.8966 75.4714 14.758C75.5221 16.7088 77.1188 18.2542 79.0701 18.2542C80.7174 18.2542 82.39 18.2542 84.0373 18.2542C85.4818 18.2542 86.7489 17.3928 87.3318 16.0754C87.6613 15.3154 87.636 14.5047 87.6106 13.7193C87.5346 11.7432 85.9887 10.2738 84.0119 10.2738C83.201 10.2738 82.3647 10.2738 81.5537 10.2738Z" fill="white"/>
<path d="M139.082 22.0545C137.536 22.0545 136.015 22.0545 134.52 22.0545C134.419 22.0545 134.292 21.9532 134.241 21.8518C133.785 21.0158 133.329 20.2051 132.898 19.3691C132.797 19.1664 132.67 19.1157 132.467 19.1157C129.249 19.1157 126.005 19.1157 122.786 19.1157C122.558 19.1157 122.457 19.1917 122.356 19.3691C121.925 20.2051 121.494 21.0158 121.038 21.8265C120.987 21.9279 120.86 22.0545 120.759 22.0545C119.238 22.0799 117.743 22.0545 116.172 22.0545C116.349 21.6998 116.527 21.3958 116.679 21.0665C118.934 16.8609 121.164 12.63 123.42 8.42445C124.104 7.13238 125.194 6.49902 126.638 6.49902C127.931 6.49902 129.198 6.49902 130.491 6.49902C130.719 6.49902 130.82 6.575 130.921 6.75235C133.582 11.7686 136.269 16.7849 138.93 21.8265C139.006 21.8772 139.031 21.9532 139.082 22.0545ZM130.769 15.3155C129.73 13.3394 128.691 11.4393 127.652 9.46318C126.613 11.4393 125.574 13.3647 124.535 15.3155C126.613 15.3155 128.641 15.3155 130.769 15.3155Z" fill="white"/>
<path d="M69.8472 6.49898C69.9739 8.34842 68.9856 9.76716 67.3383 10.1472C67.0849 10.1979 66.8061 10.2232 66.5273 10.2485C65.3869 10.2485 64.2718 10.2485 63.106 10.2485C63.106 14.1754 63.106 18.1023 63.106 22.0292C61.5095 22.0292 59.9383 22.0292 58.3417 22.0292C58.3417 18.1023 58.3417 14.2007 58.3417 10.2485C58.1643 10.2485 58.0375 10.2485 57.9108 10.2485C55.9341 10.2485 53.9574 10.2485 51.9806 10.2485C51.5244 10.2485 51.5244 10.2485 51.5498 9.7925C51.5751 8.32309 52.3354 7.18302 53.6532 6.70167C54.0334 6.57499 54.4389 6.47366 54.8444 6.47366C59.7609 6.44833 64.652 6.47366 69.5685 6.47366C69.6192 6.499 69.7205 6.49898 69.8472 6.49898Z" fill="white"/>
<path d="M141.236 22.0545C141.236 21.9025 141.236 21.7758 141.236 21.6492C141.236 17.7223 141.236 13.8207 141.236 9.89386C141.236 7.89242 142.605 6.49902 144.632 6.49902C145.063 6.49902 145.519 6.49902 145.975 6.49902C145.975 10.4259 145.975 14.3528 145.975 18.2796C149.523 18.2796 153.046 18.2796 156.594 18.2796C156.594 19.5464 156.594 20.7878 156.594 22.0292C151.5 22.0545 146.406 22.0545 141.236 22.0545Z" fill="white"/>
<path d="M0.914062 12.3765C0.914062 11.1858 1.06607 10.0204 1.42087 8.93102C3.04281 4.04143 6.3881 1.15328 11.4567 0.266565C12.0649 0.165226 12.673 0.139922 13.2813 0.139922C15.2833 0.114587 17.3108 0.139922 19.1355 0.139922C12.6984 1.55866 9.15043 5.66288 8.56754 12.4019C6.08395 12.3766 3.52436 12.3765 0.914062 12.3765Z" fill="white"/>
<path d="M10.0371 12.63C10.0371 11.4393 10.1892 10.2739 10.544 9.18448C12.1659 4.29489 15.5112 1.40674 20.5797 0.520021C21.1879 0.418682 21.7962 0.39334 22.4044 0.39334C24.4065 0.368005 25.04 0.39334 26.8647 0.39334C18.4509 2.1161 16.8797 5.91629 16.2715 12.6553C13.7879 12.63 12.6221 12.63 10.0371 12.63Z" fill="white"/>
<path d="M26.8641 22.0545C25.2421 22.0545 23.6962 22.0545 22.125 22.0545C22.125 21.9278 22.0996 21.8265 22.0996 21.7252C22.0996 17.7729 22.0996 13.8461 22.0996 9.89386C22.0996 8.19644 23.088 6.87904 24.6339 6.57502C25.2928 6.44835 25.9771 6.49902 26.6613 6.49902C26.7374 6.49902 26.8133 6.6257 26.8387 6.70171C26.864 6.75238 26.8387 6.82838 26.8387 6.90439C26.8387 11.8447 26.8387 16.7596 26.8387 21.6998C26.864 21.8012 26.8641 21.9025 26.8641 22.0545Z" fill="white"/>
</svg>
