<svg width="124" height="69" viewBox="0 0 124 69" fill="none" xmlns="http://www.w3.org/2000/svg">
<path d="M119.466 16.837C118.781 22.816 115.157 27.7056 109.582 29.783C108.518 30.1884 107.402 30.3911 106.186 30.4671C104.133 30.5684 102.207 30.4417 100.281 29.555C97.0119 28.0349 93.616 25.7801 91.6899 22.7653C89.5865 19.4465 88.7248 15.3929 89.9919 11.542C90.1187 11.1367 90.4989 10.326 91.0817 9.08458C93.5146 4.01765 98.127 0.850809 103.804 0.901478C108.011 0.926813 111.559 2.29489 114.473 5.03103C117.768 8.17254 119.998 12.1501 119.466 16.837ZM95.8208 14.8609C95.5421 17.9771 96.7332 21.5239 99.3942 23.272C100.864 24.2347 102.663 24.4121 104.336 24.4374C107.833 24.4627 110.925 21.8786 112.066 18.6358C113.003 15.9503 112.851 13.4675 111.609 11.1367C110.139 8.42588 108.163 6.88047 105.046 6.50045C104.463 6.42444 103.829 6.44978 103.17 6.60178C98.9126 7.43783 96.2263 10.6047 95.8208 14.8609Z" fill="white"/>
<path d="M22.453 22.7401C24.1257 22.9681 26.812 25.0962 26.736 21.752C26.6093 16.4317 26.5839 11.0861 26.6599 5.76582C26.6599 4.85378 26.7106 4.04306 26.7866 3.35903C27.04 1.10424 30.3853 1.30692 31.9819 1.63627C32.7676 1.81361 33.1476 2.39631 33.2744 3.13102C33.6038 4.80311 33.3758 6.98189 33.4011 8.14728C33.5025 13.9489 33.4771 18.9145 33.3251 23.0188C33.2491 25.0202 32.286 26.8443 30.7401 28.187C27.5216 30.9738 23.0613 31.1765 19.7161 28.567C18.1701 27.3763 18.0181 25.9322 19.2345 24.2602C20.1215 23.0694 21.1859 22.5881 22.453 22.7401Z" fill="white"/>
<path d="M56.3626 25.6789C54.8674 28.2123 52.6626 29.6564 49.7229 30.2391C48.0502 30.5685 46.4283 30.5685 44.8317 30.2138C43.4886 29.9351 42.2974 29.1751 41.1824 27.9337C39.231 25.7295 38.2426 23.1454 38.2172 20.1812C38.1919 15.621 38.1666 11.0861 38.1666 6.52584C38.1666 5.38578 37.9384 1.91493 39.8645 1.68691C40.8782 1.56024 41.9933 1.53491 43.1844 1.63624C44.3502 1.73758 44.6036 3.00432 44.6036 3.9417C44.6289 11.1621 44.5276 15.849 44.857 20.7639C44.9584 22.1827 45.1865 23.0187 46.2509 23.8294C46.6057 24.1081 47.0365 24.2601 47.5433 24.3361C50.7365 24.7162 51.8516 22.7654 51.8516 19.9026C51.8263 14.4049 51.8263 8.9073 51.8516 3.40967C51.8516 2.82698 52.0797 2.34562 52.5106 2.01627C53.4483 1.30689 56.1346 1.50957 57.0722 1.76292C57.6805 1.91493 57.9592 3.207 57.9592 3.76436C58.0099 7.51389 58.0352 11.2634 58.0606 15.013C58.0606 18.4838 58.1366 22.664 56.3626 25.6789Z" fill="white"/>
<path d="M80.3867 5.86696C79.2209 5.3096 77.7763 5.25893 76.4585 5.36027C73.4427 5.56294 71.5674 7.26037 70.3256 10.0472C68.4756 14.1767 68.4249 18.433 70.1989 22.8412C70.9338 24.6653 71.9982 26.3121 73.9496 26.9708C78.4606 28.5415 81.2737 26.6161 84.5682 23.8546C85.2778 23.2466 86.3929 23.6012 86.2915 24.564C86.1648 26.008 85.5059 27.0974 84.2894 27.8575C81.9325 29.3269 79.5757 30.3909 76.7626 30.4669C75.6729 30.4923 74.6592 30.4669 73.6962 30.4163C72.6064 30.3403 71.5674 29.8336 70.503 29.5042C65.0796 27.7815 61.7598 23.0946 61.7598 17.4449C61.7598 13.062 63.407 9.36315 66.5495 6.551C69.9454 3.4855 74.1016 2.26943 78.6633 3.15615C80.9442 3.61217 82.7435 5.15759 84.999 3.53617C85.3538 3.28282 85.7087 3.23215 86.0888 3.4095C86.1648 3.43483 86.2155 3.4855 86.2662 3.5615C86.4436 3.86552 86.5196 4.1442 86.4942 4.34688C86.4435 6.29765 86.4689 8.27376 86.5703 10.2245C86.6209 11.1112 86.545 11.8966 85.4552 11.7953C84.4669 11.6939 84.3148 10.5539 84.0613 9.79384C83.4531 8.04574 81.9579 6.60167 80.3867 5.86696Z" fill="white"/>
<path d="M13.6344 48.2774C12.57 47.8468 11.4043 47.9228 10.2639 47.9734C8.97139 48.0494 7.78024 48.4801 6.74119 49.2148C6.05694 49.7215 5.39809 50.3802 4.58712 50.5576C0.70968 51.4189 -0.278733 47.3401 1.92609 44.9839C2.12883 44.7559 2.63573 44.3506 3.39601 43.7425C4.66314 42.7291 5.93026 41.7158 7.17205 40.677C10.3652 37.9916 13.4824 35.5088 16.2701 33.482C17.1571 32.8486 18.2215 32.4939 19.4379 32.4433C21.7188 32.3166 26.4832 32.2913 33.7059 32.3673C41.9423 32.4433 50.1533 32.3419 58.3897 32.4179C59.7836 32.4179 61.4309 32.8233 61.4309 34.5714C61.4309 36.9528 59.9356 38.5743 59.6062 40.8544C59.3274 42.6785 59.4035 44.4772 59.7836 46.3013C60.3412 48.9361 63.8385 48.5815 65.7392 48.5055C65.9673 48.5055 66.1446 48.3788 66.2713 48.1761C66.8796 47.0614 66.9556 45.6933 67.1584 44.4519C67.2851 43.6919 67.4624 42.9572 67.6652 42.2225C68.2987 40.0943 68.907 37.9662 69.5406 35.8634C69.718 35.2301 70.0474 34.4447 70.5289 33.5327C71.1118 32.4179 72.1762 32.4939 73.2913 32.4686C77.7262 32.3926 82.1612 32.3673 86.6216 32.3673C87.3565 32.3673 87.838 32.2406 88.1168 32.0126C88.5729 31.6325 89.5106 30.3911 90.0935 31.2779C90.3469 31.6832 90.4483 31.9619 90.9298 32.1392C91.3606 32.2659 91.7408 32.3419 92.0702 32.3419C99.0142 32.3419 105.933 32.3419 112.877 32.3166C116.298 32.3166 117.742 34.9007 119.01 37.6875C119.821 39.4863 120.606 41.1837 121.645 42.9825C122.101 43.7679 122.558 44.5786 122.988 45.3893C123.749 46.808 123.749 48.6575 123.369 50.1015C123.191 50.8362 120.91 50.8869 120.302 50.9123C119.947 50.9123 119.542 51.0896 119.086 51.4189C119.01 51.4696 118.984 51.5203 118.959 51.5963C118.883 51.9256 118.908 52.2043 119.01 52.4577C120.986 56.8659 122.355 59.8047 123.419 62.8449C123.799 63.9089 123.825 65.809 123.115 66.7971C122.304 67.9118 120.784 68.2918 119.466 68.2918C112.801 68.3172 106.11 68.2919 99.445 68.2158C98.558 68.2158 97.012 67.9625 96.5559 67.0758C95.7702 65.581 95.7196 63.9343 95.6436 62.2875C95.4662 59.2474 94.934 56.2832 94.8326 53.2177C94.7819 51.9003 94.7059 50.7602 94.5539 49.8229C94.4271 48.8855 93.8442 48.4041 92.8559 48.3788C91.1832 48.3534 89.5106 48.3281 87.8127 48.3534C86.3935 48.3534 85.4051 48.6575 85.4305 50.2535C85.4811 55.0671 85.3798 59.8554 85.1264 64.6437C85.0757 65.505 84.9489 66.3411 84.7209 67.1265C84.6702 67.3291 84.5435 67.4811 84.3407 67.5571C82.7948 68.2918 79.5509 67.8865 78.1064 67.8612C66.246 67.8358 54.4109 67.7345 42.5505 67.5825C40.9793 67.5571 39.9148 67.5825 38.9011 66.6198C38.1915 65.9357 38.0141 65.0743 38.3436 64.0356C38.9265 62.2622 40.1429 60.3114 40.5738 58.5127C41.2073 55.7765 40.8779 53.2937 40.4471 50.5576C40.3711 50.0002 40.0923 49.5188 39.6615 49.1388C39.5094 48.9868 39.2559 48.9615 39.0532 49.0375C38.7998 49.1388 38.597 49.3668 38.4196 49.7215C37.5326 51.6976 36.2656 53.8764 35.3279 55.2952C32.9963 58.8167 30.6648 62.3635 28.3079 65.8851C27.5223 67.0758 25.7736 67.2785 24.5318 67.2785C22.6818 67.2531 20.7557 67.1771 18.9564 67.1771C13.6344 67.2278 9.02205 67.1771 5.09393 67.0504C4.35899 67.0251 2.86375 66.7971 2.30621 66.1384C1.4699 65.125 1.44461 62.7435 1.64735 61.7555C1.77407 61.1728 2.15416 60.5648 2.78773 59.9567C5.29666 57.4486 7.83094 54.9911 10.3906 52.559C10.8721 52.103 11.6324 51.3176 12.6461 50.1522C13.1783 49.5695 13.7105 49.3162 13.6852 48.4041C13.7612 48.3788 13.7358 48.3028 13.6344 48.2774Z" fill="white"/>
</svg>
