<svg width="151" height="67" viewBox="0 0 151 67" fill="none" xmlns="http://www.w3.org/2000/svg">
<path fill-rule="evenodd" clip-rule="evenodd" d="M0.923828 42.7583V41.6183L1.73481 41.5676C2.39373 41.5423 2.79926 41.4156 2.97666 41.2383C3.15406 41.0609 3.25539 40.4022 3.25539 39.3128C3.33142 37.0834 3.35679 34.6766 3.35679 32.0671C3.35679 30.699 3.35676 29.1283 3.33142 27.3549C3.30608 26.2908 3.25537 25.6321 3.154 25.4041C3.10332 25.2774 3.00196 25.2014 2.8499 25.1254C2.69784 25.0494 2.06425 24.9734 0.923828 24.8974V23.7573C2.01357 23.7827 3.07801 23.808 4.14241 23.808C5.35886 23.808 6.52458 23.7827 7.66501 23.7573C8.14652 24.8974 8.65339 26.0374 9.18559 27.1775C9.56573 27.9882 11.1877 31.3831 14.1021 37.3874C17.1686 31.2057 19.3227 26.6708 20.5392 23.7573C21.6289 23.808 22.6426 23.8333 23.631 23.8333C24.7714 23.8333 25.8865 23.808 26.9509 23.7573V24.8974C25.7598 24.9734 25.1008 25.0747 24.9488 25.2014C24.7967 25.3281 24.6954 25.7588 24.6447 26.4428C24.5686 27.5829 24.5433 29.7363 24.5433 32.9285C24.5433 34.5246 24.5687 36.222 24.594 38.0208C24.6194 39.8195 24.6953 40.8076 24.7714 41.0609C24.822 41.1876 24.9235 41.2889 25.0502 41.3649C25.1769 41.441 25.8104 41.517 26.9509 41.6183V42.7583C25.481 42.6823 24.1885 42.657 23.0481 42.657C21.8823 42.657 20.3111 42.6823 18.3344 42.7583V41.6183L19.1453 41.5929C19.7788 41.5676 20.159 41.4916 20.3364 41.3396C20.4884 41.1876 20.5899 40.8076 20.6406 40.1742C20.6912 39.5408 20.7166 38.0461 20.7166 35.6646V27.5069C19.3227 30.2937 17.5487 33.9419 15.3946 38.4768C14.5076 40.3262 13.8233 41.8463 13.3165 43.0117H12.4042C11.7199 41.4663 10.8076 39.4902 9.69247 37.134L5.00405 27.5069V29.3563C5.00405 34.4486 5.02939 37.9448 5.08007 39.8702C5.10542 40.6556 5.20678 41.1116 5.38418 41.3143C5.56157 41.4916 6.24585 41.6183 7.38627 41.669V42.809C6.47393 42.733 5.53626 42.7077 4.62392 42.7077C3.20473 42.657 1.98822 42.7077 0.923828 42.7583Z" fill="white"/>
<path fill-rule="evenodd" clip-rule="evenodd" d="M28.4707 41.7448C29.1549 41.7195 29.5604 41.6435 29.7124 41.5422C29.8138 41.4662 29.9913 41.1875 30.2193 40.7314C30.6502 39.7941 31.233 38.4767 31.9173 36.8299L35.744 27.4561H37.3406L42.2318 39.0847C42.8653 40.6048 43.2708 41.4155 43.3975 41.5675C43.5496 41.7195 44.0058 41.8208 44.766 41.8715V42.7836C43.5749 42.7329 42.4852 42.7076 41.4208 42.7076C40.179 42.7076 38.9879 42.7329 37.8474 42.7836V41.8715C38.7091 41.8462 39.2159 41.7955 39.3427 41.7195C39.4694 41.6688 39.5454 41.5421 39.5454 41.3901C39.5454 41.2635 39.3934 40.7821 39.0893 39.9967L38.3797 38.1473C37.4927 38.122 36.4789 38.122 35.3892 38.122C34.4262 38.122 33.5645 38.122 32.7789 38.1473L32.2974 39.3887C32.1707 39.7181 31.9933 40.2248 31.8159 40.9088C31.7652 41.0608 31.7398 41.1875 31.7398 41.3141C31.7398 41.4915 31.8159 41.5928 31.9426 41.6688C32.0947 41.7448 32.6015 41.8208 33.4632 41.8715V42.7836C32.7536 42.7329 31.8666 42.7076 30.8275 42.7076C29.8138 42.7076 29.0282 42.7329 28.4453 42.7836V41.7448H28.4707ZM35.5666 31.2563L33.2858 36.8046C33.9447 36.8299 34.6796 36.8552 35.4906 36.8552C36.3269 36.8552 37.1379 36.8299 37.8982 36.8046L35.5666 31.2563Z" fill="white"/>
<path fill-rule="evenodd" clip-rule="evenodd" d="M45.375 42.7329V41.8208C46.0339 41.7701 46.4141 41.7195 46.5661 41.6181C46.7182 41.5421 47.0476 41.1368 47.5798 40.4527L51.2292 35.5885C50.0887 33.587 49.1764 32.0669 48.4922 30.9776C47.8079 29.9135 47.301 29.2548 46.9462 29.0268C46.7688 28.9001 46.5408 28.8494 46.2874 28.8494C46.1353 28.8494 45.8819 28.8748 45.5778 28.9254L45.4764 28.0387L49.5312 27.228C49.9621 27.5574 50.3168 27.8867 50.5956 28.2414C50.8744 28.5961 51.3812 29.4575 52.1162 30.8255L53.2566 32.9283L55.9176 29.0774C56.3738 28.4187 56.7032 27.8867 56.9313 27.5067C57.3368 27.5574 57.6916 27.6081 58.0211 27.6081C58.4266 27.6081 58.908 27.5827 59.4656 27.5067V28.3934C58.8573 28.4441 58.4772 28.4948 58.3505 28.5961C58.1477 28.6974 57.8183 29.0774 57.3114 29.7108L53.9662 34.0937L54.6758 35.3858C55.9176 37.6406 56.7793 39.1607 57.2861 39.9207C57.945 40.9594 58.3505 41.4915 58.4772 41.5928C58.6039 41.6688 58.9334 41.7448 59.4909 41.7701V42.6822C58.6546 42.6315 57.8944 42.6062 57.1341 42.6062C56.4752 42.6062 55.8162 42.6315 55.1826 42.6822C54.9039 42.2262 54.5238 41.5675 54.0423 40.6807L51.8881 36.7539L49.7593 39.794C49.5059 40.1741 48.923 41.1368 47.9853 42.6822C47.4278 42.6315 46.9969 42.6062 46.7182 42.6062C46.4647 42.6569 46.0086 42.6822 45.375 42.7329Z" fill="white"/>
<path fill-rule="evenodd" clip-rule="evenodd" d="M61.6701 42.7583V42.049C62.177 41.821 62.6332 41.5423 63.0894 41.2129C63.2161 38.7808 63.2667 36.222 63.2667 33.5619C63.2667 31.4844 63.2414 29.5083 63.1907 27.6589C63.1654 26.3415 63.0893 25.5814 63.0133 25.3787C62.9626 25.2521 62.8866 25.1761 62.7345 25.1254C62.6078 25.0747 61.9489 24.9987 60.7578 24.8974V23.7573C62.5065 23.808 64.1284 23.8333 65.5983 23.8333C67.0428 23.8333 68.4113 23.808 69.7038 23.7573V24.8974C68.462 24.9734 67.7524 25.0747 67.5496 25.2267C67.4229 25.3027 67.3469 25.4801 67.2962 25.7081C67.2455 25.9615 67.2202 27.4055 67.1695 30.091L67.0935 36.678C67.0935 37.9194 67.1189 39.3382 67.1949 40.9596C68.386 41.0103 69.2476 41.0609 69.8305 41.0609C71.5284 41.0609 72.973 40.9342 74.1388 40.6809C74.3669 39.8702 74.5949 38.8821 74.823 37.7421H76.0141C75.8114 39.0342 75.634 40.6302 75.4819 42.5557C74.6203 42.6824 73.8347 42.733 73.0997 42.733L68.2086 42.6823L66.0291 42.657C64.99 42.657 63.5455 42.6823 61.6701 42.7583Z" fill="white"/>
<path fill-rule="evenodd" clip-rule="evenodd" d="M77.5352 42.733V41.821C78.5235 41.7703 79.1064 41.6943 79.2332 41.5676C79.3599 41.441 79.4359 41.1623 79.4612 40.7063C79.5119 39.7435 79.5373 37.9701 79.5373 35.386C79.5373 34.3979 79.5119 32.9538 79.4865 31.0537C79.4612 29.7617 79.4358 29.0523 79.4105 28.9256C79.3598 28.7989 79.2838 28.6976 79.1824 28.6469C79.0304 28.5709 78.4728 28.4949 77.5352 28.4443V27.5322C79.0304 27.5829 80.1708 27.6335 80.9564 27.6335C82.3249 27.6335 83.5414 27.6082 84.6312 27.5322V28.4443C83.6428 28.4949 83.0853 28.5709 82.9585 28.6723C82.8318 28.7736 82.7558 29.0016 82.7051 29.3563C82.6544 30.0403 82.6037 31.4591 82.6037 33.5619C82.6037 36.374 82.6037 38.3248 82.6291 39.4395C82.6544 40.5543 82.7051 41.2129 82.8318 41.4156C82.8825 41.517 82.9585 41.593 83.1106 41.6436C83.2626 41.6943 83.7441 41.745 84.6058 41.821V42.733L83.3387 42.7077C82.5277 42.6824 81.8181 42.657 81.1845 42.657L77.5352 42.733Z" fill="white"/>
<path fill-rule="evenodd" clip-rule="evenodd" d="M86.1269 42.733V41.821C87.0139 41.7957 87.5207 41.7197 87.6728 41.6436C87.7742 41.593 87.8502 41.4916 87.9009 41.365C87.9769 41.1876 88.0276 40.5796 88.0529 39.5409C88.1036 37.8181 88.1037 36.5007 88.1037 35.614L88.0783 31.0284C88.0783 29.8123 88.053 29.1283 87.9516 28.9256C87.9009 28.8243 87.8502 28.7483 87.7488 28.6976C87.5968 28.5963 87.0646 28.5203 86.1016 28.4443V27.5322C87.242 27.5576 88.0783 27.5829 88.6358 27.5829C89.2441 27.5829 89.9283 27.5576 90.714 27.5322C92.3866 29.6603 94.2619 31.9658 96.3401 34.4486C97.7339 36.1207 98.925 37.4888 99.9387 38.5528V34.2712C99.9387 32.6498 99.9134 31.2564 99.888 30.0657C99.8627 29.3563 99.7866 28.9256 99.7106 28.7736C99.6599 28.6976 99.5839 28.6216 99.4825 28.5963C99.3558 28.5709 98.8743 28.5203 97.9619 28.4443V27.5322C98.7476 27.5576 99.5332 27.5829 100.319 27.5829C101.383 27.5829 102.346 27.5576 103.208 27.5322V28.4443C102.397 28.4949 101.915 28.5456 101.738 28.6216C101.637 28.647 101.561 28.6976 101.51 28.7736C101.459 28.8496 101.409 28.9256 101.383 29.027C101.333 29.2043 101.307 29.7617 101.307 30.6991L101.282 35.0313L101.257 39.3889C101.257 40.5543 101.282 41.7196 101.333 42.885L101.181 43.037C100.319 42.885 99.6853 42.7837 99.3305 42.733C97.4805 40.6809 95.225 38.0968 92.6147 34.9806C91.2968 33.4099 90.2071 32.0925 89.3961 31.0031V35.2086C89.3961 36.3487 89.4215 37.7421 89.4468 39.3635C89.4722 40.5543 89.5228 41.2383 89.5989 41.4156C89.6242 41.4916 89.6749 41.5676 89.7509 41.593C89.8776 41.669 90.4098 41.745 91.2968 41.7957V42.7077C90.131 42.657 89.2947 42.6317 88.7879 42.6317C88.3824 42.657 87.4954 42.6824 86.1269 42.733Z" fill="white"/>
<path fill-rule="evenodd" clip-rule="evenodd" d="M105.337 42.7329V42.1502C105.717 41.9728 106.072 41.7701 106.376 41.5421C106.528 40.4274 106.604 38.0459 106.604 34.4484C106.604 31.9909 106.578 30.3695 106.528 29.5588C106.502 29.1281 106.426 28.8748 106.3 28.7481C106.173 28.6468 105.641 28.5454 104.678 28.4694V27.5574C106.376 27.6334 107.719 27.6587 108.707 27.6587L114.663 27.5827C115.296 27.5827 115.854 27.608 116.361 27.6587L116.437 27.7854C116.285 28.5708 116.158 29.6095 116.082 30.9269H115.22C115.195 29.8628 115.144 29.3055 115.094 29.2295C115.043 29.1535 114.891 29.0775 114.612 29.0268C114.004 28.9001 113.092 28.8241 111.875 28.8241C111.267 28.8241 110.557 28.8494 109.746 28.9001C109.645 31.1296 109.594 32.903 109.594 34.2204C110.355 34.2711 111.089 34.2964 111.774 34.2964C112.787 34.2964 113.37 34.2711 113.573 34.1951C113.7 34.1444 113.776 34.0431 113.827 33.891C113.877 33.7644 113.928 33.3083 113.979 32.523H114.916C114.891 33.739 114.866 34.5244 114.866 34.9044L114.916 37.3366H113.979C113.928 36.3992 113.852 35.8418 113.776 35.6898C113.725 35.6138 113.624 35.5378 113.472 35.5125C113.117 35.4365 112.306 35.3858 111.039 35.3858C110.633 35.3858 110.177 35.4111 109.645 35.4618C109.62 35.8418 109.62 36.2218 109.62 36.6272C109.62 38.7046 109.645 40.2754 109.721 41.3901L111.875 41.4155C113.092 41.4155 114.207 41.3394 115.22 41.2128C115.398 40.5541 115.575 39.794 115.727 38.958H116.64C116.462 40.2247 116.386 41.4408 116.335 42.6062C115.677 42.6822 115.043 42.7075 114.435 42.7075C114.029 42.7075 113.244 42.7075 112.078 42.6568C110.988 42.6315 109.974 42.6062 109.062 42.6062C107.947 42.6569 106.68 42.6822 105.337 42.7329Z" fill="white"/>
<path fill-rule="evenodd" clip-rule="evenodd" d="M118.084 41.7448C118.768 41.7195 119.174 41.6435 119.326 41.5422C119.427 41.4662 119.605 41.1875 119.833 40.7314C120.263 39.7941 120.846 38.4767 121.531 36.8299L125.357 27.4561H126.954L131.845 39.0847C132.479 40.6048 132.884 41.4155 133.011 41.5675C133.163 41.7195 133.619 41.8208 134.379 41.8715V42.7836C133.188 42.7329 132.099 42.7076 131.034 42.7076C129.792 42.7076 128.601 42.7329 127.461 42.7836V41.8715C128.322 41.8462 128.829 41.7955 128.956 41.7195C129.083 41.6688 129.159 41.5421 129.159 41.3901C129.159 41.2635 129.007 40.7821 128.703 39.9967L127.993 38.1473C127.106 38.122 126.092 38.122 125.003 38.122C124.04 38.122 123.178 38.122 122.392 38.1473L121.911 39.3887C121.784 39.7181 121.607 40.2248 121.429 40.9088C121.379 41.0608 121.353 41.1875 121.353 41.3141C121.353 41.4915 121.429 41.5928 121.556 41.6688C121.708 41.7448 122.215 41.8208 123.076 41.8715V42.7836C122.367 42.7329 121.48 42.7076 120.441 42.7076C119.427 42.7076 118.641 42.7329 118.059 42.7836V41.7448H118.084ZM125.18 31.2563L122.899 36.8046C123.558 36.8299 124.293 36.8552 125.104 36.8552C125.94 36.8552 126.751 36.8299 127.511 36.8046L125.18 31.2563Z" fill="white"/>
<path fill-rule="evenodd" clip-rule="evenodd" d="M135.418 42.7329V41.8209C136.254 41.7449 136.736 41.6689 136.863 41.6182C136.939 41.5675 136.989 41.4915 137.04 41.4155C137.116 41.2382 137.167 40.6555 137.192 39.6674C137.217 38.122 137.243 36.9059 137.243 36.0192C137.243 34.8285 137.217 33.3084 137.192 31.459C137.167 30.0909 137.091 29.2295 136.989 28.9255C136.964 28.8242 136.913 28.7482 136.812 28.7228C136.685 28.6468 136.229 28.5708 135.418 28.4948V27.5828C136.913 27.6334 137.876 27.6841 138.307 27.6841L143.73 27.5828C144.896 27.5828 145.758 27.7094 146.29 27.9374C146.822 28.1655 147.253 28.5201 147.557 29.0268C147.861 29.5335 148.039 30.1162 148.039 30.8003C148.039 31.6616 147.785 32.4217 147.278 33.0804C146.771 33.7391 145.91 34.3218 144.668 34.8285L146.974 38.2993L148.774 40.9595C149.103 41.3902 149.356 41.6435 149.534 41.7448C149.711 41.8462 149.965 41.8715 150.345 41.8969V42.7329H149.711C147.887 42.7583 146.696 42.7582 146.163 42.8089C145.53 41.7955 144.592 40.3515 143.35 38.4513L141.12 35.0565C141.171 34.9298 141.247 34.8032 141.272 34.6765C141.551 34.7018 141.779 34.7271 141.906 34.7271C142.565 34.7271 143.224 34.4485 143.882 33.9164C144.541 33.3844 144.845 32.599 144.845 31.611C144.845 30.7496 144.592 30.0656 144.085 29.5842C143.578 29.1028 142.818 28.8495 141.779 28.8495C141.45 28.8495 141.019 28.8748 140.461 28.9255L140.385 32.1177L140.284 36.1712C140.284 37.0833 140.309 38.2487 140.385 39.6927C140.436 40.7568 140.512 41.3648 140.563 41.4915C140.613 41.5928 140.689 41.6689 140.791 41.7195C140.943 41.7955 141.424 41.8715 142.261 41.9222V42.8342C140.968 42.7836 139.802 42.7582 138.814 42.7582C137.8 42.6569 136.66 42.6822 135.418 42.7329Z" fill="white"/>
<path d="M142.716 46.7358C139.396 51.6761 135.722 55.679 131.87 58.7445C125.483 63.8114 118.565 66.3449 111.595 66.3449C104.626 66.3449 97.7077 63.8114 91.3213 58.7445C87.4692 55.679 83.7945 51.6761 80.4746 46.7358H84.7322C87.4692 50.4854 90.409 53.5762 93.5008 56.0083C99.2283 60.5686 105.437 62.8487 111.595 62.8487C117.779 62.8487 123.963 60.5686 129.69 56.0083C132.757 53.5762 135.696 50.4854 138.459 46.7358H142.716Z" fill="white"/>
<path d="M7.56445 20.3371C10.935 15.2955 14.6351 11.2166 18.5632 8.10041C24.9496 3.03347 31.8681 0.5 38.8374 0.5C45.8066 0.5 52.7252 3.03347 59.1116 8.10041C63.0397 11.2166 66.7397 15.2955 70.1103 20.3371H65.878C63.0903 16.4862 60.0746 13.3194 56.9574 10.8366C51.23 6.27631 45.021 3.9962 38.8627 3.9962C32.679 3.9962 26.4955 6.27631 20.768 10.8366C17.6255 13.3194 14.6351 16.5115 11.8474 20.3371H7.56445Z" fill="white"/>
</svg>
