<svg width="101" height="61" viewBox="0 0 101 61" fill="none" xmlns="http://www.w3.org/2000/svg">
<g clip-path="url(#clip0_96_680)">
<path d="M100.845 60.7809C100.845 60.8125 100.818 60.8393 100.787 60.8393H0.128373C0.0970547 60.8393 0.0704346 60.8125 0.0704346 60.7809V0.206514C0.0704346 0.174989 0.0970547 0.148193 0.128373 0.148193H100.787C100.818 0.148193 100.845 0.174989 100.845 0.206514V60.7809ZM42.7817 12.8715C42.8052 12.8289 42.8694 12.8463 42.8694 12.8951L42.8678 36.9074C42.8678 36.9342 42.8882 36.9547 42.9148 36.9547L47.8755 36.9563C47.9022 36.9563 47.9225 36.9358 47.9225 36.909V4.03202C47.9225 4.00522 47.9022 3.98473 47.8755 3.98473L42.8584 3.98315C42.8428 3.98315 42.8271 3.99261 42.8177 4.0068L29.0285 28.019C29.005 28.0616 28.9408 28.0443 28.9408 27.9954V4.03202C28.9408 4.00522 28.9204 3.98473 28.8938 3.98473L23.9331 3.98315C23.9174 3.98315 23.9017 3.99261 23.8923 4.0068L5.00926 36.8822C4.99047 36.9137 5.01395 36.9531 5.04997 36.9531H10.7749C10.7905 36.9531 10.8062 36.9436 10.8156 36.9295L23.8219 14.2885C23.8454 14.246 23.9096 14.2633 23.9096 14.3122L23.9033 36.9153C23.9033 36.9421 23.9237 36.9626 23.9503 36.9626H28.9157C28.9314 36.9626 28.947 36.9531 28.9564 36.9389L42.7817 12.8715ZM71.8102 14.2822C71.8337 14.2397 71.8979 14.257 71.8979 14.3059L71.8885 36.9153C71.8885 36.9421 71.9088 36.9626 71.9355 36.9626H76.9009C76.9166 36.9626 76.9322 36.9531 76.9416 36.9389L95.8263 4.06354C95.8451 4.03202 95.8216 3.99261 95.7856 3.99261L90.0607 3.98631C90.045 3.98631 90.0293 3.99576 90.0199 4.00995L77.0262 26.6335C77.0027 26.6761 76.9385 26.6588 76.9385 26.6099L76.9494 4.03359C76.9494 4.0068 76.9291 3.98631 76.9025 3.98631L71.9167 3.98315C71.901 3.98315 71.8854 3.99261 71.876 4.0068L58.8806 26.6351C58.8571 26.6777 58.7929 26.6603 58.7929 26.6115V4.0399C58.7929 4.0131 58.7726 3.99261 58.746 3.99261L53.7868 3.98631C53.7602 3.98631 53.7398 4.0068 53.7398 4.03359L53.7414 36.9153C53.7414 36.9421 53.7617 36.9626 53.7883 36.9626H58.7538C58.7694 36.9626 58.7851 36.9531 58.7945 36.9389L71.8102 14.2822ZM5.16741 41.5809C5.12043 41.5809 5.08285 41.6187 5.08285 41.666L5.07972 55.6881C5.07972 55.7354 5.1173 55.7733 5.16428 55.7733H95.784C95.831 55.7733 95.8685 55.7354 95.8685 55.6881L95.8654 41.6644C95.8654 41.6172 95.8278 41.5793 95.7809 41.5793L5.16741 41.5809Z" fill="white"/>
<path d="M11.8899 46.1708C11.8413 46.3142 11.8178 46.4703 11.8194 46.6374C11.8272 48.8709 11.8288 51.292 11.8241 53.9038C11.8241 53.9589 11.7959 53.9873 11.7411 53.9873L10.0703 53.9857C9.99827 53.9857 9.96226 53.9495 9.96226 53.877L9.96069 43.9452C9.96069 43.8837 9.99201 43.8538 10.0531 43.8538L12.8012 43.8553C12.856 43.8553 12.8889 43.8821 12.8999 43.9341L14.5691 51.541C14.613 51.7412 14.6568 51.7412 14.7006 51.541L16.3636 43.9231C16.373 43.8821 16.4106 43.8522 16.4529 43.8522L19.2214 43.8553C19.248 43.8553 19.2621 43.8695 19.2621 43.8979L19.2605 53.9069C19.2605 53.9605 19.2339 53.9873 19.1822 53.9873H17.513C17.4425 53.9873 17.4081 53.9526 17.4081 53.8817L17.4112 46.609C17.4112 45.8524 17.3313 45.8445 17.1732 46.5838L15.6026 53.9022C15.5916 53.9526 15.5478 53.9889 15.4961 53.9889L13.7282 53.9873C13.6625 53.9873 13.6233 53.9542 13.6092 53.8896L11.9666 46.174C11.9462 46.0778 11.9212 46.0778 11.8899 46.1708Z" fill="white"/>
<path d="M23.1799 52.1558L28.2847 52.1526C28.3207 52.1526 28.3489 52.181 28.3489 52.2172L28.3504 53.9227C28.3504 53.959 28.3222 53.9873 28.2862 53.9873H21.2397C21.2037 53.9873 21.1755 53.959 21.1755 53.9227L21.174 43.9184C21.174 43.8821 21.2021 43.8538 21.2382 43.8538H28.0482C28.0842 43.8538 28.1124 43.8821 28.1124 43.9184V45.575C28.1124 45.6113 28.0842 45.6396 28.0482 45.6396L23.183 45.6412C23.147 45.6412 23.1188 45.6696 23.1188 45.7058L23.1172 47.7329C23.1172 47.7691 23.1454 47.7975 23.1814 47.7975L27.6395 47.7959C27.6755 47.7959 27.7037 47.8243 27.7037 47.8605L27.7068 49.4762C27.7068 49.5124 27.6787 49.5408 27.6426 49.5408H23.1814C23.1454 49.5408 23.1172 49.5692 23.1172 49.6054L23.1157 52.0911C23.1157 52.1274 23.1438 52.1558 23.1799 52.1558Z" fill="white"/>
<path d="M35.6193 51.9209L32.1446 51.9225C32.1211 51.9225 32.0992 51.9382 32.0914 51.9619L31.4713 53.9463C31.4635 53.97 31.4415 53.9857 31.418 53.9857L29.4341 53.9873C29.3965 53.9873 29.3683 53.9495 29.3808 53.9117L32.7757 43.89C32.7835 43.8679 32.8039 43.8522 32.8289 43.8522L35.018 43.8538C35.0431 43.8538 35.0634 43.8695 35.0713 43.8916L38.427 53.9132C38.4395 53.9495 38.4113 53.9873 38.3737 53.9873H36.324C36.2989 53.9873 36.277 53.9716 36.2692 53.9463L35.6741 51.9619C35.6663 51.9366 35.6444 51.9209 35.6193 51.9209ZM32.6755 50.0909C32.6645 50.124 32.688 50.1571 32.7224 50.1571L35.0587 50.165C35.0932 50.165 35.1167 50.1319 35.1073 50.1003L33.9517 46.3127C33.9376 46.2654 33.8702 46.2654 33.8561 46.3127L32.6755 50.0909Z" fill="white"/>
<path d="M45.5596 50.7655C45.5768 50.7829 45.6066 50.7702 45.6066 50.7466L45.6034 43.9074C45.6034 43.879 45.6269 43.8553 45.6551 43.8553H47.4089C47.4402 43.8553 47.4653 43.8806 47.4653 43.9121V53.8975C47.4653 53.9558 47.4355 53.9857 47.3776 53.9857L45.5643 53.9873C45.497 53.9873 45.4484 53.959 45.4171 53.9006L41.6997 47.0267C41.612 46.8644 41.5681 46.8754 41.5681 47.0598L41.5697 53.8896C41.5697 53.9542 41.5384 53.9873 41.4742 53.9873L39.8222 53.9857C39.7501 53.9857 39.7141 53.9495 39.7141 53.877V43.9452C39.7141 43.8947 39.7548 43.8538 39.8049 43.8538L41.7263 43.8553C41.778 43.8553 41.8155 43.8774 41.839 43.9231C42.9414 45.9628 44.1346 48.1805 45.4187 50.5779C45.4562 50.6489 45.5032 50.7119 45.5596 50.7655Z" fill="white"/>
<path d="M62.0516 51.1076L63.5392 43.942C63.5517 43.8837 63.5877 43.8538 63.6488 43.8538H65.4449C65.5091 43.8538 65.5341 43.8853 65.5185 43.9483L62.9551 53.8975C62.9395 53.9574 62.9019 53.9873 62.8408 53.9873H61.17C61.1027 53.9873 61.0635 53.9542 61.051 53.888L59.6401 46.3064C59.6292 46.2496 59.6198 46.2496 59.6088 46.3064L58.1917 53.929C58.1854 53.9621 58.1557 53.9873 58.1212 53.9873H56.4629C56.405 53.9873 56.369 53.959 56.3549 53.9022L53.7539 43.942C53.7414 43.8979 53.7759 43.8538 53.8213 43.8538H55.6784C55.7426 43.8538 55.7802 43.8853 55.7943 43.9468C56.3283 46.2843 56.8153 48.6155 57.2521 50.9436C57.2866 51.1249 57.3195 51.1233 57.3524 50.9421L58.5816 43.9909C58.5957 43.9121 58.6646 43.8538 58.746 43.8538L60.5671 43.8553C60.6266 43.8553 60.6627 43.8853 60.6736 43.9436L62.0218 51.106C62.025 51.1233 62.0485 51.1233 62.0516 51.1076Z" fill="white"/>
<path d="M69.0166 49.5975L69.015 52.0895C69.015 52.1258 69.0432 52.1542 69.0792 52.1542H74.004C74.04 52.1542 74.0682 52.1825 74.0682 52.2188L74.0807 53.9227C74.0807 53.9574 74.051 53.9873 74.0165 53.9873H67.1814C67.1454 53.9873 67.1172 53.959 67.1172 53.9227V43.9184C67.1172 43.8821 67.1454 43.8538 67.1814 43.8538H73.7738C73.8098 43.8538 73.838 43.8821 73.838 43.9184V45.5734C73.838 45.6097 73.8098 45.6381 73.7738 45.6381L69.0808 45.6412C69.0448 45.6412 69.0166 45.6696 69.0166 45.7058V47.7329C69.0166 47.7691 69.0448 47.7975 69.0808 47.7975L73.3729 47.7959C73.4089 47.7959 73.4371 47.8243 73.4371 47.8605L73.4387 49.4699C73.4387 49.5061 73.4105 49.5345 73.3745 49.5345L69.0808 49.5329C69.0448 49.5329 69.0166 49.5613 69.0166 49.5975Z" fill="white"/>
<path d="M78.0143 52.1542L82.5131 52.1526C82.5507 52.1526 82.5805 52.1826 82.5805 52.2204L82.582 53.9196C82.582 53.9574 82.5523 53.9873 82.5147 53.9873H76.093C76.0554 53.9873 76.0256 53.9574 76.0256 53.9196V43.9231C76.0256 43.8853 76.0554 43.8553 76.093 43.8553H77.8812C77.9188 43.8553 77.9485 43.8853 77.9485 43.9231L77.947 52.0864C77.947 52.1242 77.9767 52.1542 78.0143 52.1542Z" fill="white"/>
<path d="M90.8076 52.2251L90.8154 53.9148C90.8154 53.9542 90.7825 53.9873 90.7434 53.9873H84.3311C84.2919 53.9873 84.259 53.9542 84.259 53.9148L84.2543 43.9278C84.2543 43.8884 84.2872 43.8553 84.3264 43.8553L86.124 43.8538C86.1632 43.8538 86.196 43.8869 86.196 43.9263V52.0832C86.196 52.1226 86.2289 52.1558 86.2681 52.1558L90.7356 52.1526C90.7763 52.1526 90.8076 52.1841 90.8076 52.2251Z" fill="white"/>
</g>
<defs>
<clipPath id="clip0_96_680">
<rect width="101" height="61" fill="white"/>
</clipPath>
</defs>
</svg>
