<svg width="95" height="54" viewBox="0 0 95 54" fill="none" xmlns="http://www.w3.org/2000/svg">
<path d="M94.1967 39.0522C94.1967 43.9418 94.1967 48.73 94.1967 53.569C93.918 53.5943 93.6392 53.6196 93.3351 53.6196C77.3438 53.6196 61.3525 53.6196 45.3359 53.6196C30.8145 53.6196 16.2932 53.6196 1.79711 53.6196C0.91011 53.6196 0.910094 53.6196 0.910094 52.7329C0.910094 48.4007 0.910108 44.0938 0.884766 39.7616C0.884766 39.1789 1.06213 39.0269 1.64502 39.0269C32.2591 39.0522 62.8731 39.0522 93.4871 39.0522C93.7152 39.0522 93.918 39.0522 94.1967 39.0522ZM10.8444 49.3381C10.8191 49.3381 10.7684 49.3381 10.7431 49.3634C10.6924 49.1861 10.6417 48.9834 10.591 48.806C10.0842 46.5006 9.57733 44.2205 9.04513 41.915C8.99445 41.7377 8.81705 41.4337 8.69034 41.4337C7.82868 41.383 6.94166 41.4083 6.05467 41.4083C6.05467 44.8792 6.05467 48.2487 6.05467 51.7195C6.4855 51.7195 6.89099 51.6942 7.29648 51.7195C7.75265 51.7449 7.90469 51.5929 7.87935 51.1368C7.85401 48.806 7.85402 46.4753 7.85402 44.1191C7.85402 43.9165 7.85402 43.7138 7.85402 43.5111C8.00608 43.5618 8.00606 43.6378 8.0314 43.7138C8.5636 46.2219 9.09579 48.73 9.65333 51.2382C9.70402 51.4155 9.88144 51.6689 10.0335 51.6942C10.5657 51.7449 11.1232 51.7195 11.6808 51.7195C12.289 48.9074 12.8972 46.1712 13.4801 43.4098C13.5308 43.4098 13.5561 43.4098 13.6068 43.4351C13.6068 46.1712 13.6068 48.9074 13.6068 51.6942C14.2404 51.6942 14.8233 51.6942 15.4061 51.6942C15.4061 48.274 15.4061 44.8792 15.4061 41.4337C14.5698 41.4337 13.7842 41.459 12.9986 41.4337C12.6185 41.4083 12.4917 41.5857 12.4411 41.915C12.2637 42.8271 12.0609 43.7391 11.8582 44.6512C11.5541 46.1966 11.1992 47.7673 10.8444 49.3381ZM55.473 51.6689C55.9545 49.0847 56.436 46.5006 56.9682 43.7644C57.0443 44.0938 57.1203 44.2965 57.1456 44.4738C57.5258 46.4753 57.8806 48.4767 58.2607 50.5035C58.4888 51.7449 58.5142 51.7195 59.7559 51.7449C60.2121 51.7449 60.3895 51.5929 60.4909 51.1622C61.2512 48.1473 62.0368 45.1325 62.8224 42.143C62.8731 41.9403 62.8984 41.7123 62.9491 41.459C62.2649 41.459 61.6567 41.459 61.0231 41.459C60.5162 43.9165 60.0094 46.3232 59.5025 48.73C59.021 46.7793 58.6409 44.8538 58.2861 42.9284C57.982 41.3576 58.0073 41.3576 56.3854 41.4083C56.0306 41.4083 55.9038 41.535 55.8531 41.8643C55.7011 42.7764 55.5491 43.7138 55.3717 44.6258C55.1182 45.9939 54.8901 47.3366 54.6367 48.7047C54.6114 48.7047 54.586 48.7047 54.5353 48.7047C54.0285 46.2726 53.5216 43.8658 53.0148 41.459C52.3052 41.459 51.6463 41.459 50.962 41.459C51.0127 41.687 51.0634 41.8897 51.1141 42.067C51.8237 44.8032 52.5586 47.5393 53.2682 50.3008C53.7244 51.8969 53.699 51.8969 55.473 51.6689ZM38.4427 51.6942C38.4427 49.3127 38.4427 46.9566 38.4427 44.6258C38.6708 44.8032 38.7721 44.9805 38.8735 45.1579C39.8619 46.9566 40.901 48.7047 41.788 50.5541C42.2441 51.4915 42.7763 51.8969 43.8407 51.7702C44.3222 51.7195 44.4996 51.6435 44.4996 51.1115C44.4743 48.0967 44.4996 45.0818 44.4743 42.067C44.4743 41.8897 44.4489 41.687 44.4489 41.4843C43.8153 41.4843 43.2578 41.4843 42.5989 41.4843C42.5989 43.8151 42.5989 46.1206 42.5989 48.426C42.3962 48.274 42.2694 48.122 42.1934 47.97C41.1037 45.9432 40.014 43.9418 38.8989 41.915C38.7975 41.7377 38.6454 41.4843 38.4934 41.4843C37.8598 41.4337 37.2262 41.459 36.5927 41.459C36.5927 44.9298 36.5927 48.3247 36.5927 51.7195C37.2262 51.6942 37.7838 51.6942 38.4427 51.6942ZM17.5603 51.6942C19.9932 51.6942 22.4007 51.6942 24.8083 51.6942C24.8083 51.0862 24.8083 50.5288 24.8083 49.8954C23.0089 49.8954 21.2603 49.8954 19.5117 49.8954C19.5117 48.9581 19.5117 48.0967 19.5117 47.1846C21.0576 47.1846 22.5781 47.1846 24.1241 47.1846C24.1241 46.6019 24.1241 46.0699 24.1241 45.4619C22.5528 45.4619 21.0322 45.4619 19.5117 45.4619C19.5117 44.6765 19.5117 43.9671 19.5117 43.1817C21.235 43.1817 22.8823 43.1817 24.5549 43.1817C24.5549 42.5737 24.5549 42.0164 24.5549 41.459C22.198 41.459 19.8665 41.459 17.5349 41.459C17.5603 44.8792 17.5603 48.274 17.5603 51.6942ZM66.5985 43.2071C66.9026 43.2071 67.1053 43.2071 67.3081 43.2071C68.5499 43.2071 69.7916 43.2071 71.0588 43.2071C71.2108 43.2071 71.515 43.0551 71.515 42.9537C71.5657 42.4724 71.5403 41.9657 71.5403 41.459C69.2341 41.459 67.0293 41.459 64.7231 41.459C64.7231 41.8643 64.7231 42.219 64.7231 42.5737C64.7231 45.4365 64.7231 48.2994 64.7231 51.1622C64.7231 51.4155 64.6471 51.7449 65.0779 51.7449C67.1814 51.7449 69.2848 51.7449 71.3883 51.7195C71.515 51.7195 71.7177 51.5675 71.7431 51.4662C71.7684 50.9595 71.7684 50.4781 71.7684 49.8954C69.9944 49.8954 68.3218 49.8954 66.6492 49.8954C66.6492 48.9581 66.6492 48.0967 66.6492 47.1593C68.1697 47.1593 69.6396 47.1593 71.1095 47.1593C71.1095 46.5766 71.1095 46.0699 71.1095 45.4872C70.8561 45.4872 70.6533 45.4872 70.4506 45.4872C69.3355 45.4872 68.2204 45.4872 67.1307 45.4872C66.8773 45.4872 66.5985 45.5379 66.5985 45.1325C66.5985 44.4991 66.5985 43.8911 66.5985 43.2071ZM35.1481 51.6435C35.0974 51.4409 35.0468 51.2382 34.9961 51.0608C34.0837 48.3754 33.1968 45.6899 32.2844 43.0044C32.107 42.4724 32.031 41.763 31.6509 41.4843C31.2707 41.2056 30.5611 41.4337 30.0036 41.383C29.5727 41.3576 29.3953 41.5097 29.2686 41.915C28.2296 45.0058 27.1652 48.0967 26.1261 51.1875C26.0754 51.3395 26.0501 51.4915 25.9994 51.6689C27.9508 51.8969 27.9508 51.8969 28.5337 50.1488C28.5337 50.1235 28.559 50.0728 28.5844 50.0474C28.6351 49.6928 28.8378 49.5914 29.1926 49.5914C30.0796 49.6168 30.9919 49.6168 31.8789 49.5914C32.2844 49.5661 32.4618 49.7181 32.5632 50.0981C33.0954 51.8462 33.1207 51.8462 34.9707 51.7195C34.9961 51.6942 35.0468 51.6942 35.1481 51.6435ZM84.237 49.9208C84.237 47.0326 84.237 44.2458 84.237 41.459C83.5528 41.459 82.9446 41.459 82.3363 41.459C82.3363 44.8792 82.3363 48.274 82.3363 51.6689C84.5412 51.6689 86.7206 51.6689 88.9254 51.6689C88.9254 51.0608 88.9254 50.5288 88.9254 49.9208C87.3795 49.9208 85.859 49.9208 84.237 49.9208ZM73.8972 51.6942C76.1274 51.6942 78.3068 51.6942 80.4863 51.6942C80.4863 51.1115 80.4863 50.5541 80.4863 49.9208C78.915 49.9208 77.3945 49.9208 75.8232 49.9208C75.7979 49.6168 75.7979 49.3634 75.7979 49.1101C75.7979 46.7286 75.7979 44.3725 75.7979 41.991C75.7979 41.7377 75.8993 41.4083 75.4431 41.4083C74.9363 41.4083 74.4547 41.4083 73.9225 41.4083C73.8972 44.8538 73.8972 48.2487 73.8972 51.6942Z" fill="white"/>
<path d="M74.8103 0.695501C74.8103 8.39725 74.8103 15.9977 74.8103 23.5981C74.8357 23.6234 74.8863 23.6234 74.9117 23.6487C75.0131 23.4714 75.1398 23.2687 75.2412 23.0914C79.4481 15.8203 83.6549 8.54926 87.8365 1.25286C88.0646 0.847509 88.2927 0.670167 88.7742 0.695501C90.3454 0.720836 91.942 0.720835 93.5133 0.720835C93.6907 0.720835 93.8934 0.720835 94.1722 0.720835C94.0201 0.999517 93.9441 1.17686 93.8427 1.3542C87.5831 12.1721 81.3487 22.9647 75.1144 33.8079C74.8357 34.264 74.5569 34.4413 74.0247 34.4413C72.7829 34.3906 71.5411 34.4413 70.274 34.416C69.5137 34.416 69.5137 34.416 69.5137 33.6559C69.5137 26.4609 69.5137 19.2912 69.5137 12.0961C69.5137 11.8934 69.5137 11.6654 69.5137 11.4627C69.4884 11.4374 69.463 11.4374 69.4123 11.4121C69.3109 11.5641 69.2349 11.6908 69.1335 11.8428C64.9013 19.1645 60.6691 26.4862 56.4368 33.8333C56.1834 34.264 55.9553 34.4413 55.4485 34.416C53.9533 34.3653 52.458 34.3906 50.9121 34.3906C50.9121 23.142 50.9121 11.9694 50.9121 0.746171C52.6101 0.746171 54.3081 0.746171 56.0821 0.746171C56.0821 8.39725 56.0821 16.0483 56.0821 23.6741C56.1327 23.6741 56.1581 23.6994 56.2088 23.6994C56.741 22.7874 57.2478 21.9006 57.78 20.9886C61.6068 14.3762 65.4082 7.78922 69.2096 1.17686C69.4123 0.822175 69.6404 0.670166 70.0712 0.670166C71.6678 0.695501 73.1884 0.695501 74.8103 0.695501Z" fill="white"/>
<path d="M25.5179 0.720779C25.5179 8.87855 25.5179 16.9603 25.5179 25.0674C25.5432 25.0674 25.5686 25.0928 25.6192 25.0928C26.0247 24.3834 26.4556 23.674 26.8611 22.9393C31.0426 15.7189 35.2241 8.49853 39.3803 1.25281C39.6338 0.822118 39.8872 0.644775 40.3941 0.670109C41.6865 0.720779 43.0044 0.695445 44.3222 0.695445C44.5249 0.695445 44.753 0.695445 44.9811 0.695445C44.9811 11.944 44.9811 23.1166 44.9811 34.3399C43.2578 34.3399 41.5598 34.3399 39.7858 34.3399C39.7858 26.2075 39.7858 18.1004 39.7858 9.99328C39.7351 9.99328 39.7098 9.96794 39.6591 9.96794C39.5577 10.1199 39.4564 10.272 39.355 10.424C34.844 18.2271 30.333 26.0301 25.8473 33.8332C25.6192 34.2132 25.3912 34.4159 24.9097 34.3906C23.4144 34.3652 21.9192 34.3652 20.3479 34.3652C20.3479 26.6888 20.3479 19.0378 20.3479 11.3867C20.2973 11.3867 20.2719 11.3614 20.2212 11.3614C20.1199 11.5134 20.0185 11.6654 19.9171 11.8174C15.6849 19.1391 11.4527 26.4608 7.22043 33.8079C6.967 34.2386 6.71355 34.3906 6.2067 34.3906C4.66079 34.3652 3.14024 34.3652 1.59434 34.3652C1.39159 34.3652 1.18883 34.3652 0.859375 34.3652C0.986089 34.0866 1.08747 33.9092 1.18884 33.7319C7.47384 22.8633 13.7588 11.9947 20.0185 1.12613C20.2212 0.771449 20.4493 0.644775 20.8295 0.644775C22.1726 0.67011 23.5158 0.644775 24.859 0.644775C25.0617 0.695445 25.2391 0.695444 25.5179 0.720779Z" fill="white"/>
<path d="M31.8545 47.8179C30.9675 47.8179 30.1819 47.8179 29.2695 47.8179C29.7004 46.4752 30.1058 45.1831 30.486 43.8911C30.5367 43.8911 30.562 43.8911 30.6127 43.8657C31.0182 45.1578 31.4237 46.4499 31.8545 47.8179Z" fill="white"/>
</svg>
