<svg width="154" height="67" viewBox="0 0 154 67" fill="none" xmlns="http://www.w3.org/2000/svg">
<path d="M92.7185 20.7666C92.7185 23.5534 92.6677 26.3403 92.7438 29.1524C92.7945 30.7738 92.1356 31.9646 90.767 32.7753C87.1684 34.8781 83.5444 36.9555 79.9457 39.0583C78.9067 39.6663 77.8676 40.249 76.8539 40.8824C75.2827 41.8198 73.6861 41.8451 72.1148 40.9331C67.5024 38.2729 62.8901 35.5874 58.2777 32.9273C56.7825 32.0659 56.0728 30.8752 56.0982 29.1271C56.1489 23.6801 56.1742 18.2585 56.0728 12.8115C56.0475 10.7594 56.8838 9.46736 58.5818 8.50464C62.5099 6.30052 66.3874 4.04573 70.2901 1.81628C70.721 1.56293 71.1771 1.33493 71.6079 1.03091C73.4326 -0.261159 75.232 -0.159826 77.1073 0.9549C81.517 3.53904 85.9519 6.09785 90.3869 8.63132C92.0342 9.5687 92.8452 10.8101 92.7691 12.7609C92.6171 15.3957 92.7185 18.1065 92.7185 20.7666ZM90.767 20.944C90.7417 20.944 90.7417 20.944 90.767 20.944C90.767 18.8159 90.6657 16.6624 90.7924 14.5343C90.9191 12.3555 89.9814 10.9874 88.1567 9.94872C84.4314 7.84594 80.706 5.71783 77.0567 3.51371C75.232 2.39898 73.534 2.47499 71.7347 3.51371C68.0347 5.69249 64.3346 7.82061 60.6092 9.94872C58.8859 10.9368 57.9989 12.3555 58.0243 14.3823C58.075 18.6639 58.075 22.9454 58.0243 27.227C57.9989 29.2538 58.8099 30.6725 60.5585 31.6859C64.4106 33.8647 68.2121 36.1195 72.0642 38.3236C73.458 39.1343 74.9279 39.3623 76.4231 38.5009C80.554 36.1448 84.6594 33.7633 88.7903 31.4072C90.1588 30.6218 90.7924 29.5071 90.767 27.9364C90.7164 25.5802 90.767 23.2494 90.767 20.944Z" fill="white"/>
<path d="M124.398 52.1818C125.311 51.7004 125.944 51.2697 126.654 51.0164C130.202 49.699 134.028 51.5484 135.448 55.2726C136.765 58.6928 135.828 62.5436 133.116 64.7731C130.759 66.7239 127.718 66.9012 125.159 65.1785C125.006 65.0771 124.854 65.0011 124.702 64.8998C124.424 65.2545 124.17 65.8625 123.866 65.8878C122.878 65.9892 121.839 65.9638 120.85 65.8372C120.673 65.8118 120.47 65.1278 120.47 64.7478C120.445 60.6942 120.445 56.6407 120.445 52.5618C120.445 50.4843 120.47 48.4322 120.445 46.3548C120.419 45.5187 120.724 45.1894 121.585 45.2147C124.854 45.3161 124.348 44.7334 124.398 47.9255C124.424 49.2936 124.398 50.611 124.398 52.1818ZM132.052 58.4648C132.052 55.982 130.48 54.2339 128.225 54.2085C125.868 54.1832 124.246 55.8806 124.246 58.4141C124.221 60.9729 125.792 62.721 128.124 62.7463C130.43 62.7463 132.052 60.9982 132.052 58.4648Z" fill="white"/>
<path d="M93.6578 66.4956C89.0961 66.4956 85.244 64.0635 83.6981 60.2126C82.0002 55.9564 82.8872 51.2442 85.979 48.3307C90.3379 44.2011 97.5353 44.3278 101.768 48.5587C102.3 49.0907 102.477 49.4961 101.818 50.0534C101.185 50.5855 100.627 51.5229 99.9428 51.6242C99.3346 51.7255 98.5743 50.9148 97.9154 50.4841C94.3674 48.1027 89.7804 48.9641 87.829 52.3589C86.3085 55.019 86.7392 58.6166 88.868 60.7193C90.9714 62.7968 94.6208 63.2021 97.2564 61.6567C97.5606 61.4794 97.8394 61.2514 98.1688 61.0487C98.7517 60.6687 99.6387 59.8833 99.8921 60.0353C100.779 60.618 101.463 61.5047 102.173 62.3154C102.249 62.4168 102.021 62.8981 101.818 63.1008C99.664 65.3049 96.775 66.4956 93.6578 66.4956Z" fill="white"/>
<path d="M3.43673 45.7974C6.07238 51.0923 8.68272 56.3873 11.4704 61.9862C14.2074 56.3873 16.8177 51.0923 19.428 45.7974C19.5547 45.7974 19.6561 45.8227 19.7828 45.8227C19.9095 46.1521 20.0869 46.4814 20.1376 46.8361C20.9992 52.7644 21.8356 58.6927 22.6466 64.621C22.7226 65.1277 23.128 65.8118 22.1143 65.9384C20.9486 66.0904 20.6445 65.8878 20.4924 64.7984C19.9602 60.9982 19.428 57.1726 18.8958 53.3724C18.8451 53.0937 18.7691 52.8151 18.6677 52.283C18.389 52.7391 18.2115 52.9924 18.0848 53.2458C16.1588 57.1473 14.2327 61.0488 12.2813 64.9504C12.1039 65.3051 11.7492 65.5838 11.4704 65.8878C11.1916 65.5838 10.8368 65.3304 10.6594 64.9757C8.70804 61.0742 6.78197 57.1726 4.85592 53.2711C4.70387 52.9417 4.52644 52.6377 4.12096 52.3337C4.04493 52.8404 3.94357 53.3471 3.89289 53.8538C3.38603 57.5273 2.90453 61.2009 2.39767 64.8491C2.32165 65.4824 2.16958 65.9384 1.35861 65.9384C0.218188 65.9384 0.0914684 65.8371 0.243525 64.697C1.07984 58.7434 1.91615 52.7644 2.7778 46.8108C2.82848 46.4814 2.95521 46.1521 3.03124 45.8227C3.15796 45.848 3.31002 45.8227 3.43673 45.7974Z" fill="white"/>
<path d="M145.23 50.6108C149.639 50.6108 153.187 54.107 153.187 58.4393C153.187 62.8728 149.639 66.369 145.204 66.369C140.896 66.3437 137.424 62.8222 137.449 58.4646C137.449 54.0817 140.896 50.6108 145.23 50.6108ZM149.183 58.5153C149.208 56.0578 147.612 54.3097 145.331 54.2844C143.075 54.259 141.403 56.0071 141.352 58.4139C141.301 60.8714 142.898 62.6701 145.154 62.6955C147.51 62.7208 149.158 60.9981 149.183 58.5153Z" fill="white"/>
<path d="M117.581 56.1085C117.581 57.4259 117.657 58.718 117.555 60.0354C117.226 64.7983 113.754 67.3065 109.091 66.1664C106.557 65.533 104.96 63.8609 104.732 61.3275C104.428 58.1606 104.504 54.9431 104.479 51.7763C104.479 51.523 104.96 51.0923 105.264 51.0416C105.898 50.9149 106.557 51.0416 107.216 50.9909C108.103 50.9149 108.457 51.2696 108.432 52.1817C108.381 54.2084 108.407 56.2352 108.432 58.2873C108.432 59.0727 108.483 59.8834 108.609 60.6688C108.837 62.0369 109.775 62.7716 111.118 62.7462C112.461 62.7209 113.45 61.9608 113.526 60.5674C113.678 57.9326 113.653 55.2725 113.678 52.6377C113.703 51.0163 113.678 51.0163 115.3 51.0163C117.86 51.0416 117.631 50.6362 117.657 53.3217C117.657 54.2591 117.657 55.1965 117.657 56.1592C117.657 56.1085 117.606 56.1085 117.581 56.1085Z" fill="white"/>
<path d="M55.6685 63.861C53.6157 65.8118 51.3095 66.6985 48.6232 66.2172C46.7985 65.8878 45.3033 64.9758 44.1375 63.557C41.7046 60.6689 41.6793 56.286 44.0868 53.4232C45.5567 51.6751 47.432 50.687 49.7636 50.5857C52.0698 50.4843 53.9958 51.3457 55.5671 53.0938C55.6431 53.0431 55.7445 52.9925 55.8205 52.9165C55.8205 52.2831 55.8205 51.6497 55.8205 51.0163C55.8205 49.4456 55.8458 47.9002 55.8458 46.3294C55.8458 45.6201 56.0486 45.2654 56.8342 45.2654C57.6452 45.2654 57.9239 45.5947 57.9239 46.3801C57.8986 48.5842 57.9493 50.8137 57.9493 53.0178C57.9493 56.8687 57.9493 60.7196 57.9493 64.5704C57.9493 65.2291 58.1521 65.9638 57.0116 66.0145C55.9726 66.0398 55.7698 65.5585 55.8205 64.6971C55.8205 64.4691 55.7445 64.2664 55.6685 63.861ZM55.9218 58.6421C55.9725 55.2726 53.6157 52.6884 50.3971 52.6378C47.1026 52.5618 44.5176 55.0952 44.467 58.4141C44.4163 61.6569 46.9506 64.3424 50.1184 64.3931C53.3876 64.4438 55.8712 62.0116 55.9218 58.6421Z" fill="white"/>
<path d="M33.6963 58.6926C31.9223 58.6926 30.1483 58.6926 28.3743 58.6926C27.0818 58.6926 26.9044 58.8952 27.2592 60.162C27.8421 62.2647 29.1093 63.8102 31.3394 64.2409C33.823 64.6969 35.9518 63.9622 37.4217 61.8087C37.9285 61.074 38.334 60.7953 39.1703 61.3274C39.7279 61.682 39.8039 61.9607 39.4744 62.5434C37.7765 65.4569 34.3806 66.901 30.8579 66.1663C27.0565 65.3556 24.5475 61.7327 24.953 57.6032C25.3585 53.6256 28.5517 50.6615 32.5052 50.6108C36.5347 50.5601 39.7532 53.2963 40.2854 57.2232C40.4628 58.6166 40.4121 58.6926 38.9929 58.6926C37.1683 58.6926 35.445 58.6926 33.6963 58.6926ZM27.4873 56.7925C30.9086 56.7925 34.3299 56.7925 37.7512 56.7925C37.6244 54.107 34.7354 52.6122 32.6826 52.6122C29.9963 52.6122 27.7407 54.335 27.4873 56.7925Z" fill="white"/>
<path d="M73.2554 50.611C77.6397 50.5856 81.1116 54.0565 81.1116 58.4647C81.1369 62.873 77.6396 66.3692 73.2807 66.3692C68.9217 66.3692 65.5005 62.949 65.4752 58.5661C65.4245 54.1325 68.8711 50.611 73.2554 50.611ZM78.9322 58.5407C78.9322 55.2726 76.4486 52.6884 73.3314 52.6631C70.2143 52.6377 67.7053 55.2472 67.68 58.4901C67.6546 61.8089 70.0622 64.317 73.2807 64.317C76.4992 64.3424 78.9068 61.8596 78.9322 58.5407Z" fill="white"/>
<path d="M61.0405 58.3886C61.0405 56.2858 61.0658 54.183 61.0151 52.0803C60.9898 51.2442 61.2939 50.9402 62.1556 50.9402C63.0172 50.9402 63.1946 51.3456 63.1693 52.0803C63.1439 56.3618 63.1439 60.618 63.1693 64.8996C63.1693 65.685 62.9158 65.989 62.1048 65.989C61.3192 65.989 61.0151 65.7103 61.0151 64.8996C61.0658 62.7462 61.0405 60.5674 61.0405 58.3886Z" fill="white"/>
<path d="M62.1303 48.1534C61.2687 48.1787 60.5084 47.444 60.4577 46.608C60.4323 45.7466 61.142 45.0119 62.0036 44.9612C62.9413 44.9105 63.7269 45.6453 63.7269 46.5573C63.7523 47.4187 63.0173 48.1534 62.1303 48.1534Z" fill="white"/>
<path d="M83.3418 17.8025C83.3418 19.7533 83.3165 21.7294 83.3418 23.6802C83.3672 25.1242 82.6829 26.2136 81.4665 26.8977C77.7664 29.0511 74.0664 31.2046 70.341 33.3073C68.8964 34.118 68.0602 33.6874 68.0095 32.0406C67.9335 27.759 67.9841 23.4775 68.0348 19.1959C68.0348 18.0812 68.6684 17.2451 69.5807 16.7131C73.2808 14.509 77.0062 12.3049 80.7569 10.1768C82.3281 9.29006 83.1898 9.79675 83.2912 11.5955C83.3925 13.673 83.3165 15.7504 83.3418 17.8025Z" fill="white"/>
<path d="M66.9462 32.3445C66.6167 32.1672 66.2873 32.0405 65.9832 31.8632C65.2989 31.4578 64.6147 31.0525 63.9304 30.6471C60.1543 28.4177 60.4838 29.1017 60.4838 24.5415C60.4838 21.6786 60.5345 18.8158 60.4838 15.953C60.4585 13.8756 61.2441 12.4061 63.1702 11.3928C66.2873 9.746 69.3284 7.97256 72.3189 6.12313C73.8394 5.18575 75.1066 5.05908 76.6018 6.1738C77.8943 7.13652 79.3641 7.87122 80.8847 8.78327C80.6059 9.01128 80.4539 9.18863 80.2511 9.28997C76.8806 11.2154 73.5607 13.2168 70.1394 15.0663C67.9346 16.257 66.9462 17.9544 67.0222 20.4372C67.1236 24.2881 67.0983 28.1136 67.1236 31.9645C67.0983 32.0152 67.0222 32.1165 66.9462 32.3445Z" fill="white"/>
</svg>
