<svg width="164" height="62" viewBox="0 0 164 62" fill="none" xmlns="http://www.w3.org/2000/svg">
<path d="M0.798828 61.1959C0.798828 40.803 0.798828 20.4102 0.798828 0C54.9816 0 109.175 0 163.405 0C163.405 20.387 163.405 40.7915 163.405 61.1959C109.221 61.1959 55.0147 61.1959 0.798828 61.1959ZM104.168 20.8744C104.502 20.8744 104.835 20.8744 105.167 20.8744C109.33 20.8744 113.492 20.8744 117.654 20.8736C122.825 20.8727 125.8 17.612 125.232 12.4937C124.976 10.1828 123.771 8.48909 121.524 7.73781C120.641 7.44243 119.666 7.30922 118.731 7.30094C113.69 7.25957 108.646 7.19669 103.606 7.30674C99.6305 7.39279 97.0405 10.2175 97.0124 14.1989C96.9885 17.5871 96.9521 20.9753 96.9604 24.3635C96.962 25.0296 97.0686 25.718 97.2553 26.3584C97.9964 28.9076 100.805 30.8453 103.741 30.8495C110.441 30.8594 117.141 30.8528 123.841 30.8486C124.136 30.8486 124.431 30.8106 124.775 30.7874C124.775 29.495 124.775 28.2655 124.775 27.0476C124.437 27.1088 124.143 27.2073 123.849 27.2073C117.284 27.2164 110.719 27.2263 104.155 27.2048C102.705 27.1998 101.309 25.7659 101.302 24.3147C101.282 20.6212 101.284 16.9269 101.304 13.2325C101.311 11.8202 101.954 11.1169 103.382 10.9829C104.355 10.891 105.34 10.9018 106.32 10.9034C110.38 10.9092 114.44 10.891 118.499 10.9647C120.02 10.992 120.748 11.725 121.022 13.1208C121.41 15.0884 121.11 16.0258 119.714 16.7448C119.229 16.9939 118.619 17.0924 118.065 17.0965C113.802 17.1246 109.538 17.1312 105.275 17.0973C104.428 17.0907 104.112 17.3761 104.158 18.211C104.203 19.0491 104.168 19.8923 104.168 20.8744ZM157.795 30.8015C157.795 27.8758 157.885 25.0651 157.743 22.2661C157.696 21.3551 157.058 20.469 156.658 19.5861C156.526 19.2941 156.293 19.0467 156.093 18.7579C158.096 16.7175 158.146 14.2411 157.652 11.7681C157.448 10.7454 156.752 9.73018 156.042 8.9185C154.755 7.44739 152.871 7.31005 151.085 7.29598C143.913 7.24054 136.742 7.2786 129.57 7.25378C128.753 7.2513 128.528 7.56985 128.53 8.33602C128.547 15.8091 128.54 23.2829 128.54 30.7924C129.885 30.7924 131.253 30.7924 132.736 30.7924C132.736 30.3373 132.736 29.941 132.736 29.5438C132.736 23.6826 132.737 17.8213 132.731 11.9608C132.731 11.3949 132.671 10.8869 133.514 10.8902C139.299 10.9134 145.083 10.8712 150.867 10.9332C152.833 10.9539 153.528 11.8094 153.592 13.815C153.602 14.1179 153.62 14.4265 153.686 14.721C153.907 15.7114 153.482 16.4122 152.622 16.7705C152.049 17.0088 151.382 17.1072 150.756 17.1114C146.731 17.1362 142.705 17.1172 138.679 17.113C137.664 17.1122 136.649 17.123 135.635 17.1114C134.879 17.1031 134.524 17.4159 134.565 18.2135C134.611 19.0864 134.576 19.9642 134.576 20.9621C134.883 20.9621 135.28 20.9621 135.677 20.9621C140.65 20.9621 145.623 20.9588 150.595 20.9629C152.647 20.9646 153.584 21.8954 153.587 23.9167C153.59 26.2053 153.588 28.4939 153.588 30.8015C155.009 30.8015 156.35 30.8015 157.795 30.8015ZM21.4346 7.24137C21.4346 7.23889 21.4346 7.23641 21.4346 7.23393C18.8967 7.23393 16.357 7.29763 13.8216 7.21903C9.94606 7.09823 6.61994 10.3276 6.69347 14.3206C6.75461 17.6748 6.68273 21.0308 6.70586 24.385C6.71082 25.1206 6.7513 25.8934 6.97436 26.5842C7.77822 29.0664 10.3434 30.8288 13.1689 30.8437C18.515 30.8718 23.8619 30.885 29.2088 30.8445C33.1182 30.8147 35.8825 27.9585 35.8858 24.0516C35.8891 20.5269 35.9213 17.0022 35.8627 13.4783C35.8478 12.588 35.6792 11.6398 35.3298 10.8273C34.174 8.13827 31.8632 7.28605 29.1501 7.24882C26.5783 7.21407 24.0064 7.24137 21.4346 7.24137ZM70.8513 20.9761C78.846 20.9761 86.7135 20.9761 94.6414 20.9761C94.6414 19.577 94.6414 18.2879 94.6414 16.9881C94.3002 17.0369 94.0391 17.1072 93.7772 17.1072C86.4029 17.123 79.0286 17.1312 71.6543 17.1453C71.0578 17.1461 70.8034 16.8987 70.8331 16.2815C70.8728 15.4698 70.8496 14.6557 70.8513 13.8432C70.8546 11.8566 71.827 10.8976 73.8511 10.896C77.3358 10.8935 80.8197 10.896 84.3045 10.896C87.4843 10.896 90.6642 10.91 93.8441 10.872C94.1374 10.8687 94.6628 10.5543 94.6777 10.3549C94.7603 9.25277 94.7174 8.14158 94.7174 7.08334C94.1044 7.13877 93.588 7.22482 93.0717 7.22565C86.5425 7.23641 80.0134 7.27447 73.4851 7.21986C69.6897 7.18759 66.4892 10.5948 66.5627 14.2213C66.6742 19.7293 66.5916 25.2405 66.5916 30.8511C67.5979 30.8511 68.643 30.7907 69.6781 30.8693C70.6125 30.9397 70.8926 30.6294 70.8728 29.6878C70.8133 26.8457 70.8513 24.0011 70.8513 20.9761ZM43.2584 7.23227C42.2282 7.23227 41.2641 7.2844 40.3082 7.21738C39.349 7.15036 39.0186 7.46725 39.0268 8.46923C39.0715 13.7215 39.0434 18.9747 39.0491 24.2278C39.05 24.8335 39.0144 25.4573 39.1409 26.0415C39.7489 28.8554 42.4281 30.8412 45.6188 30.8486C51.3374 30.8619 57.0561 30.8528 62.7756 30.8486C63.0697 30.8486 63.3638 30.8106 63.6745 30.7891C63.6745 29.4512 63.6745 28.1869 63.6745 26.9938C63.2168 27.0269 62.8177 27.0807 62.4187 27.0807C57.004 27.0856 51.5902 27.0856 46.1756 27.0823C44.2812 27.0815 43.2626 26.0547 43.2601 24.1335C43.2543 19.6598 43.2584 15.1869 43.2584 10.7131C43.2584 9.49851 43.2584 8.28141 43.2584 7.23227ZM1.0475 54.2871C1.0475 55.3743 1.0475 56.3391 1.0475 57.3675C1.42588 57.3841 1.75552 57.4114 2.08598 57.4114C9.83205 57.4139 17.5781 57.4321 25.3242 57.4064C30.9057 57.3882 36.4864 57.3162 42.0671 57.2434C42.4281 57.2384 42.9684 57.1259 43.1138 56.8802C43.75 55.8013 42.885 54.3765 41.6507 54.3732C28.4247 54.3434 15.1988 54.3161 1.9728 54.2879C1.7043 54.2863 1.4358 54.2871 1.0475 54.2871ZM163.142 54.355C162.904 54.3335 162.709 54.3004 162.513 54.3012C152.23 54.3227 141.948 54.3608 131.666 54.3533C130.406 54.3525 130.587 55.1335 130.548 55.9105C130.506 56.7619 130.609 57.2897 131.719 57.2897C141.865 57.293 152.012 57.3518 162.159 57.389C162.482 57.3899 162.805 57.3386 163.142 57.3104C163.142 56.277 163.142 55.3445 163.142 54.355ZM89.2193 57.2517C92.4636 57.2517 95.7071 57.2575 98.9514 57.2426C99.2728 57.2409 99.8577 57.1499 99.8709 57.044C99.961 56.3258 100.031 55.5712 99.8825 54.8762C99.8313 54.6388 99.1324 54.398 98.73 54.3996C92.3132 54.4253 85.8965 54.5138 79.4797 54.5238C78.3189 54.5254 78.3726 55.1633 78.3561 55.9576C78.3396 56.7759 78.4412 57.2906 79.4871 57.2724C82.7306 57.2161 85.975 57.2517 89.2193 57.2517ZM126.472 44.3145C126.472 44.015 126.516 43.804 126.458 43.6269C126.406 43.4681 126.244 43.2389 126.126 43.2364C125.984 43.2331 125.747 43.411 125.707 43.555C125.271 45.1163 124.852 46.6833 124.47 48.2587C124.425 48.4432 124.623 48.6865 124.709 48.9024C124.877 48.7245 125.125 48.5748 125.198 48.3638C125.341 47.9526 125.394 47.5091 125.472 47.0764C125.695 45.8328 126.558 45.0832 127.542 44.4568C127.793 44.2971 128.164 44.3261 128.479 44.2682C128.516 44.5743 128.638 44.9011 128.572 45.1833C128.394 45.9387 128.084 46.6651 127.931 47.4247C127.85 47.8185 127.988 48.2571 128.028 48.6749C128.213 48.3307 128.499 48.0055 128.566 47.6398C128.849 46.0736 129.604 44.8705 131.072 44.1987C131.31 44.0903 131.726 44.0787 131.904 44.2194C132.075 44.3534 132.148 44.7737 132.082 45.0186C131.847 45.8973 131.533 46.7545 131.253 47.6216C131.149 47.946 131.059 48.2744 130.963 48.6013C131.035 48.6567 131.109 48.7121 131.182 48.7667C131.381 48.6401 131.703 48.5541 131.759 48.3812C132.176 47.1028 132.639 45.8262 132.886 44.5106C133.045 43.6617 132.412 43.2348 131.499 43.464C130.894 43.6162 130.328 43.9232 129.758 44.1557C128.63 42.8012 127.627 43.8636 126.472 44.3145ZM31.4559 49.24C32.558 48.6269 32.4291 47.6514 32.6158 46.8571C32.7819 46.1489 33.0744 45.827 33.8311 45.6301C35.2182 45.2685 36.6417 44.8424 37.871 44.1325C39.3424 43.2819 39.0797 41.5816 37.5067 40.9106C37.1994 40.7799 36.8582 40.7311 36.5401 40.6218C35.8437 40.3819 34.9489 40.7435 34.4268 39.926C34.402 39.8879 34.036 40.0195 33.87 40.1329C33.6312 40.295 33.3627 40.4754 33.2305 40.7162C33.0843 40.9834 33.0264 41.3268 33.024 41.6379C33.0215 41.9945 33.2454 42.3859 33.1586 42.7036C32.6514 44.5594 32.0747 46.3962 31.5402 48.2446C31.465 48.5045 31.4906 48.7949 31.4559 49.24ZM69.9516 47.7515C70.3135 48.8404 71.0446 48.9703 71.7857 48.9918C73.4074 49.0389 75.5348 47.2609 75.8115 45.6491C75.9355 44.9276 75.681 44.336 74.9466 44.149C74.4426 44.02 73.8833 44.1259 73.3645 44.034C72.9026 43.9529 72.4631 43.7444 72.0137 43.5922C72.1946 43.2232 72.2995 42.783 72.5689 42.4984C73.6718 41.3318 74.9482 40.5391 76.6972 41.0653C76.4518 40.1287 76.1759 39.9037 75.2935 40.0791C73.6231 40.4117 72.321 41.3624 71.4346 42.7962C70.8125 43.8032 71.3379 44.7017 72.5127 44.7812C73.0836 44.8201 73.666 44.7332 74.2303 44.8043C74.7524 44.8697 75.2489 45.0757 75.0292 45.7956C74.6153 47.15 72.7176 48.3944 71.3701 48.166C70.9562 48.0941 70.5555 47.9311 69.9516 47.7515ZM92.2017 44.2127C91.8622 43.9993 91.5796 43.8222 91.2979 43.6451C91.193 43.9306 91.0542 44.2094 90.9897 44.504C90.8534 45.1287 90.7667 45.7641 90.6386 46.3913C90.3131 47.9906 89.976 49.5875 89.5894 51.4425C91.0327 50.7252 90.3478 49.2797 91.0798 48.5251C92.8114 48.7278 94.2118 48.0213 95.1428 46.6511C95.5022 46.1224 95.5006 45.151 95.3023 44.4899C95.0577 43.6741 94.1671 43.7974 93.4624 43.8959C93.0039 43.9596 92.5578 44.1201 92.2017 44.2127ZM135.388 48.5127C137.076 48.7841 138.315 47.9509 139.367 46.7843C139.955 46.1315 140.039 45.3124 139.635 44.5098C139.229 43.7056 138.47 43.804 137.766 43.8925C137.303 43.9505 136.856 44.1192 136.482 44.2177C136.158 44.0075 135.877 43.8255 135.595 43.6435C135.472 43.9587 135.305 44.2649 135.235 44.5909C135.068 45.3827 134.96 46.1869 134.801 46.9796C134.518 48.3836 134.216 49.7836 133.922 51.186C135.273 50.7128 134.635 49.3385 135.388 48.5127ZM84.3805 48.4978C86.1526 48.7105 88.1469 47.6655 88.7393 46.225C89.3151 44.825 88.5691 43.7386 87.0795 43.8636C86.5194 43.9107 85.97 44.0936 85.5123 44.1929C85.1637 43.9893 84.8811 43.809 84.5771 43.6741C84.5515 43.6625 84.3309 43.9521 84.2987 44.1201C83.8914 46.2035 83.4973 48.2885 83.1123 50.376C83.0619 50.6474 83.0793 50.932 83.0652 51.21C84.2111 50.6019 83.7642 49.3699 84.3805 48.4978ZM48.84 46.3309C49.011 46.9398 49.0506 47.3262 49.2266 47.6349C49.41 47.9567 49.6843 48.3166 50.0024 48.4349C50.1535 48.4912 50.5724 48.0701 50.7426 47.7888C51.3878 46.7189 51.9893 45.6218 52.5899 44.5255C52.7535 44.2276 52.8567 43.8967 52.9881 43.5806C52.8733 43.5111 52.7592 43.4416 52.6444 43.3721C51.3424 44.3741 51.4316 46.4293 49.7206 47.5678C49.7206 46.5733 49.7446 45.8262 49.7082 45.0815C49.6942 44.7886 49.5447 44.5023 49.4571 44.2136C49.2431 44.437 48.9631 44.6264 48.8259 44.8904C48.2377 46.0206 47.5916 47.0913 46.2929 48.1007C46.2499 47.3577 46.1657 46.9101 46.2128 46.4773C46.2962 45.707 46.4904 44.9483 46.5672 44.178C46.5862 43.986 46.3317 43.7676 46.2029 43.5608C46.0475 43.7022 45.7741 43.8305 45.7567 43.9869C45.6353 45.0914 45.4932 46.2026 45.5163 47.3089C45.5254 47.73 45.8699 48.3712 46.2103 48.4912C46.5242 48.6021 47.1009 48.2248 47.4462 47.9278C47.9163 47.5232 48.2773 46.9895 48.84 46.3309ZM13.9116 48.9719C14.0967 48.6923 14.2627 48.3969 14.4709 48.1354C15.1806 47.2468 15.8804 46.3491 16.6421 45.5068C16.818 45.3124 17.2229 45.3248 17.5228 45.242C17.531 45.5258 17.5996 45.8253 17.5343 46.0909C17.374 46.7471 17.1022 47.3784 16.9767 48.0386C16.9221 48.3266 17.1146 48.6625 17.1948 48.9761C17.4087 48.7014 17.7119 48.4565 17.8169 48.1445C18.0532 47.4454 18.2275 46.7189 18.358 45.9916C18.453 45.4605 18.4373 44.9102 18.4712 44.3683C17.8937 44.485 17.289 44.5305 16.7486 44.7423C16.3604 44.8945 16.0596 45.2702 15.7168 45.5415C15.5284 45.6913 15.3334 45.8328 14.8947 46.1637C15.4169 44.0969 15.863 42.3329 16.3438 40.4299C15.4284 40.7402 13.5299 47.3469 13.9116 48.9719ZM152.562 50.8543C152.634 51.0032 152.705 51.1513 152.777 51.3002C153.195 51.2018 153.648 51.1761 154.026 50.9941C156.901 49.6032 157.305 46.733 158.068 44.0903C158.105 43.9612 157.843 43.7461 157.72 43.5707C157.553 43.7477 157.353 43.9033 157.225 44.106C156.645 45.031 156.127 45.9999 155.49 46.8844C155.306 47.1409 154.804 47.1682 154.448 47.3006C154.361 46.8968 154.164 46.4798 154.211 46.0934C154.292 45.4298 154.554 44.7903 154.681 44.1292C154.714 43.9571 154.534 43.7428 154.451 43.5483C154.263 43.6816 153.943 43.7866 153.908 43.9521C153.71 44.8747 153.495 45.8096 153.469 46.7462C153.457 47.1574 153.783 47.7507 154.131 47.9451C154.414 48.1032 154.986 47.8475 155.381 47.6663C155.703 47.5182 155.951 47.2079 156.231 46.9696C155.889 49.1126 154.411 50.1568 152.562 50.8543ZM99.2059 50.9502C99.2604 51.0702 99.3149 51.1902 99.3695 51.3102C99.7635 51.2067 100.186 51.1629 100.547 50.9899C103.428 49.6065 103.846 46.7487 104.592 44.1002C104.63 43.9637 104.38 43.7453 104.264 43.5649C104.098 43.7353 103.896 43.8826 103.772 44.0795C103.171 45.0327 102.627 46.0247 101.978 46.9431C101.817 47.1723 101.343 47.1814 101.013 47.2915C100.907 46.9258 100.673 46.5427 100.721 46.1985C100.817 45.5027 101.09 44.8333 101.233 44.1416C101.269 43.9695 101.094 43.7527 101.015 43.5558C100.825 43.6824 100.5 43.7808 100.467 43.9405C100.272 44.8623 100.063 45.7964 100.036 46.7313C100.024 47.1492 100.325 47.7474 100.669 47.9493C100.941 48.109 101.516 47.8392 101.915 47.6655C102.245 47.5215 102.515 47.2402 102.813 47.0193C102.461 48.7179 101.494 49.8241 99.9734 50.4612C99.6974 50.5762 99.4603 50.7848 99.2059 50.9502ZM14.4866 41.2126C14.5081 41.0769 14.5296 40.942 14.5511 40.8064C14.2925 40.688 14.0405 40.4895 13.7736 40.4646C11.5281 40.2619 9.40988 40.7484 7.4114 41.7579C7.19577 41.8671 7.09085 42.1964 6.93388 42.4239C7.22799 42.4454 7.55185 42.5571 7.80961 42.4702C8.49697 42.2377 9.15542 41.9192 10.0559 41.5369C9.96175 42.2651 9.94523 42.7648 9.82792 43.2397C9.45284 44.7481 9.02571 46.244 8.65807 47.754C8.60933 47.9542 8.7853 48.2099 8.85635 48.4391C9.0125 48.2744 9.25787 48.1346 9.31157 47.9418C9.80891 46.1522 10.4029 44.3757 10.7012 42.5505C10.897 41.3549 11.4596 41.1414 12.4568 41.2043C13.1309 41.2474 13.81 41.2126 14.4866 41.2126ZM116.999 42.4901C117.228 41.2209 116.677 40.7848 115.582 41.1059C113.842 41.6155 111.568 44.5098 111.503 46.297C111.461 47.4586 112.31 48.607 113.286 48.4498C114.36 48.2761 115.4 47.8516 116.427 47.4619C116.651 47.3775 116.755 46.9787 116.915 46.7239C115.849 46.9357 115.011 47.3941 114.117 47.5844C112.677 47.8905 112.025 47.1078 112.421 45.6698C112.869 44.0415 114.019 42.965 115.373 42.083C115.946 41.7082 116.584 41.2978 116.999 42.4901ZM119.802 48.933C121.582 48.9454 123.499 46.565 123.121 44.8126C122.835 43.4871 122.181 43.1313 120.921 43.6725C119.405 44.3236 118.535 45.5217 118.23 47.1161C118.011 48.2628 118.617 48.9248 119.802 48.933ZM43.7863 45.2429C43.7946 43.6683 42.9222 43.0693 41.4971 43.7006C39.9868 44.3699 39.1392 45.5755 38.8674 47.179C38.684 48.2579 39.2929 48.9173 40.409 48.9339C42.02 48.9562 43.7764 47.0375 43.7863 45.2429ZM81.0783 48.7626C81.1998 48.77 81.3212 48.7767 81.4418 48.7841C81.512 48.4929 81.612 48.2058 81.6475 47.9104C81.7764 46.8455 81.8822 45.7774 81.9995 44.7108C82.0358 44.3774 82.1193 44.0415 82.1003 43.7113C82.0928 43.5756 81.8913 43.4085 81.7401 43.344C81.6748 43.3158 81.4542 43.4871 81.4088 43.6071C81.3022 43.8884 81.3063 44.2152 81.1816 44.485C80.6933 45.5432 80.2398 46.6279 79.6259 47.6109C79.4326 47.9211 78.7799 47.9435 78.3371 48.0974C78.2471 47.6315 78.0257 47.145 78.0959 46.7049C78.2272 45.8775 78.5461 45.0807 78.7386 44.2599C78.7775 44.0944 78.6023 43.8793 78.5255 43.6873C78.3479 43.7966 78.0513 43.8735 78.0116 44.02C77.7249 45.0939 77.3664 46.1728 77.2929 47.2683C77.259 47.7705 77.7001 48.5409 78.1421 48.7659C78.5114 48.9537 79.2401 48.6087 79.7234 48.3431C80.0968 48.1387 80.3372 47.6911 80.7057 47.2725C80.8577 47.8789 80.9676 48.3208 81.0783 48.7626ZM146.613 48.6335C146.753 48.6683 146.893 48.7022 147.031 48.7369C147.153 48.3563 147.344 47.9832 147.383 47.5935C147.551 45.9685 148.578 45.0037 149.892 44.2748C150.147 44.1333 150.628 44.0655 150.804 44.2103C150.992 44.3625 151.039 44.8316 150.973 45.1221C150.847 45.6781 150.586 46.201 150.403 46.7454C150.187 47.3875 149.996 48.0386 149.711 48.9554C150.186 48.7237 150.456 48.6807 150.5 48.5574C150.957 47.2509 151.456 45.9511 151.782 44.6099C151.995 43.7295 151.316 43.1934 150.418 43.4482C149.882 43.6005 149.391 43.9083 148.908 44.1325C148.75 43.8355 148.613 43.5798 148.476 43.3233C148.277 43.5632 147.995 43.7726 147.894 44.0481C147.463 45.2197 147.068 46.4062 146.698 47.5993C146.6 47.922 146.639 48.2877 146.613 48.6335ZM24.3171 47.4272C23.4447 47.725 22.6772 48.0965 21.8741 48.2049C21.5643 48.2471 21.1744 47.6919 20.8208 47.4081C21.1 47.1533 21.3404 46.8149 21.6676 46.6602C22.3566 46.3334 23.1489 46.1944 23.7809 45.7922C24.0659 45.611 24.2642 44.916 24.1444 44.5834C24.0345 44.2789 23.4562 44.0158 23.0605 43.9786C22.6656 43.9414 22.1517 44.1019 21.8502 44.3617C21.2471 44.8821 20.7448 45.5217 20.2193 46.1273C19.8707 46.5286 20.0004 48.0701 20.3904 48.4267C21.3371 49.293 23.7619 48.713 24.3171 47.4272ZM145.629 43.9198C143.19 43.2943 140.774 45.247 140.955 47.5389C141.017 48.3307 141.77 48.7609 142.493 48.3837C142.929 48.1569 143.326 47.8566 143.833 47.5289C143.885 48.008 143.925 48.3754 143.965 48.7419C144.081 48.7667 144.198 48.7907 144.314 48.8155C144.961 47.2476 145.127 45.5366 145.629 43.9198ZM58.0789 47.5761C58.0169 47.5 57.9558 47.4239 57.8938 47.3477C57.6171 47.4934 57.3502 47.6613 57.0619 47.7796C56.629 47.9567 56.1597 48.2662 55.7475 48.2107C55.3104 48.1528 54.6916 47.8185 54.5594 47.4561C54.3091 46.7694 54.9816 46.733 55.4823 46.6122C56.0664 46.4707 56.7397 46.3772 57.1709 46.0173C57.5568 45.6954 57.9145 44.9996 57.8401 44.542C57.7154 43.78 56.8966 43.8098 56.3415 44.01C55.7656 44.2185 55.2452 44.6339 54.766 45.0368C54.4397 45.3115 54.0918 45.6872 53.9935 46.0777C53.8357 46.7065 53.7308 47.4239 53.8903 48.0279C53.9778 48.3605 54.6611 48.7551 55.0593 48.7386C55.8722 48.7047 56.6852 48.4482 57.4733 48.2024C57.717 48.128 57.8798 47.7921 58.0789 47.5761ZM96.8431 48.1933C96.9381 48.3373 97.086 48.5599 97.233 48.7825C97.3867 48.574 97.6147 48.3861 97.68 48.1528C97.8336 47.6042 97.8865 47.0284 98.0203 46.4724C98.4541 44.6711 98.9167 42.8765 99.3364 41.0719C99.381 40.8808 99.21 40.64 99.139 40.4216C98.9646 40.5705 98.6994 40.6864 98.6334 40.8734C98.4764 41.3135 98.4243 41.7901 98.312 42.2477C97.8386 44.1788 97.3586 46.1083 96.8431 48.1933ZM60.7994 43.5202C60.7069 43.5194 60.6135 43.5194 60.521 43.5186C60.2178 45.247 59.9138 46.9754 59.6106 48.703C59.7659 48.7378 59.9212 48.7717 60.0774 48.8064C60.1575 48.5334 60.2525 48.2645 60.3145 47.9873C60.5813 46.8008 60.7185 45.5316 61.8363 44.7853C62.156 44.5718 62.655 44.6016 63.0747 44.5743C63.3374 44.5569 63.6067 44.6413 63.8727 44.6794C63.7439 44.3956 63.672 43.9298 63.4729 43.8669C63.0623 43.7378 62.5674 43.7486 62.1403 43.8454C61.8082 43.9215 61.5248 44.2161 61.1885 44.4337C61.044 44.0919 60.9217 43.8065 60.7994 43.5202Z" fill="white"/>
<path d="M104.167 20.8745C104.167 19.8923 104.203 19.0492 104.157 18.2111C104.112 17.3762 104.427 17.0899 105.274 17.0974C109.538 17.1313 113.802 17.1247 118.065 17.0966C118.618 17.0933 119.229 16.9948 119.713 16.7449C121.109 16.0259 121.409 15.0885 121.022 13.1209C120.747 11.7259 120.019 10.9929 118.498 10.9647C114.44 10.8911 110.379 10.9101 106.319 10.9035C105.339 10.9018 104.355 10.8911 103.381 10.9829C101.953 11.1178 101.31 11.8211 101.303 13.2326C101.283 16.9261 101.281 20.6204 101.301 24.3148C101.309 25.766 102.705 27.2007 104.154 27.2049C110.719 27.2264 117.283 27.2164 123.848 27.2073C124.142 27.2073 124.436 27.1081 124.774 27.0477C124.774 28.2656 124.774 29.4951 124.774 30.7875C124.43 30.8115 124.135 30.8487 123.84 30.8487C117.14 30.8529 110.44 30.8586 103.74 30.8495C100.803 30.8454 97.9949 28.9076 97.2546 26.3584C97.0688 25.718 96.9613 25.0305 96.9597 24.3636C96.9514 20.9754 96.9878 17.5872 97.0117 14.199C97.0398 10.2176 99.6298 7.39286 103.605 7.30681C108.645 7.19759 113.689 7.25965 118.731 7.30102C119.665 7.30846 120.64 7.4425 121.523 7.73788C123.77 8.48916 124.975 10.1828 125.232 12.4938C125.799 17.6129 122.824 20.8728 117.653 20.8736C113.491 20.8745 109.329 20.8736 105.167 20.8745C104.834 20.8745 104.501 20.8745 104.167 20.8745Z" fill="black"/>
<path d="M157.794 30.8015C156.349 30.8015 155.008 30.8015 153.59 30.8015C153.59 28.4939 153.592 26.2053 153.589 23.9167C153.586 21.8962 152.649 20.9654 150.597 20.9629C145.625 20.958 140.652 20.9613 135.679 20.9621C135.282 20.9621 134.884 20.9621 134.578 20.9621C134.578 19.9643 134.613 19.0872 134.567 18.2135C134.526 17.4167 134.881 17.1031 135.636 17.1114C136.651 17.1222 137.666 17.1122 138.681 17.1131C142.707 17.1172 146.732 17.1362 150.758 17.1114C151.384 17.1073 152.051 17.0088 152.624 16.7705C153.484 16.4122 153.909 15.7123 153.688 14.721C153.623 14.4265 153.604 14.1179 153.594 13.8151C153.529 11.8103 152.835 10.9547 150.869 10.9332C145.085 10.8712 139.3 10.9134 133.516 10.8902C132.673 10.8869 132.732 11.3949 132.733 11.9609C132.74 17.8221 132.737 23.6834 132.737 29.5439C132.737 29.941 132.737 30.3373 132.737 30.7924C131.254 30.7924 129.886 30.7924 128.542 30.7924C128.542 23.2821 128.55 15.8091 128.531 8.33603C128.53 7.56986 128.755 7.25132 129.572 7.2538C136.743 7.27862 143.915 7.24056 151.086 7.296C152.873 7.31006 154.757 7.44741 156.044 8.91852C156.754 9.72937 157.45 10.7446 157.654 11.7681C158.148 14.2412 158.097 16.7184 156.095 18.7579C156.295 19.0467 156.527 19.2941 156.66 19.5861C157.06 20.469 157.698 21.3559 157.744 22.2661C157.884 25.0652 157.794 27.8758 157.794 30.8015Z" fill="black"/>
<path d="M21.435 7.24144C24.0068 7.24144 26.5787 7.21414 29.1505 7.24889C31.8636 7.28529 34.1744 8.13834 35.3302 10.8274C35.6796 11.6407 35.8482 12.5881 35.863 13.4784C35.9217 17.0022 35.8903 20.5269 35.8862 24.0517C35.882 27.9578 33.1185 30.8148 29.2092 30.8446C23.8631 30.8851 18.5162 30.8719 13.1693 30.8437C10.343 30.8289 7.77778 29.0673 6.97475 26.5843C6.75086 25.8934 6.71121 25.1206 6.70625 24.3851C6.68312 21.03 6.75499 17.6741 6.69386 14.3206C6.62116 10.3285 9.94644 7.0983 13.822 7.2191C16.3574 7.2977 18.897 7.23399 21.435 7.23399C21.435 7.23648 21.435 7.23896 21.435 7.24144ZM21.2855 27.0865C21.6234 27.0865 21.9613 27.0865 22.3 27.0865C24.6669 27.0849 27.0339 27.1039 29.4 27.0733C30.8103 27.0551 31.9512 25.9249 31.7471 24.8551C31.6472 24.3313 31.5538 23.796 31.5505 23.2656C31.5315 20.0156 31.5521 16.7648 31.5323 13.5139C31.5241 12.1107 30.4261 10.968 29.0522 10.9631C23.8119 10.944 18.5715 10.944 13.3312 10.9622C12.0688 10.9664 11.0775 11.9411 11.0717 13.1946C11.0527 17.0535 11.0568 20.9133 11.0898 24.7731C11.1014 26.1615 12.0779 27.0733 13.4766 27.0799C16.079 27.094 18.6822 27.0841 21.2855 27.0865Z" fill="black"/>
<path d="M70.8526 20.9761C70.8526 24.001 70.8146 26.8456 70.8741 29.6877C70.8939 30.6293 70.6138 30.9396 69.6795 30.8692C68.6443 30.7915 67.5984 30.851 66.5929 30.851C66.5929 25.2396 66.6755 19.7283 66.564 14.2212C66.4905 10.5947 69.691 7.18833 73.4864 7.21977C80.0147 7.27438 86.5438 7.23549 93.073 7.22556C93.5893 7.22474 94.1065 7.13869 94.7187 7.08325C94.7187 8.14149 94.7616 9.25268 94.679 10.3548C94.6641 10.555 94.1379 10.8686 93.8454 10.8719C90.6664 10.9091 87.4857 10.8959 84.3058 10.8959C80.821 10.8959 77.3371 10.8942 73.8524 10.8959C71.8283 10.8967 70.8559 11.8565 70.8526 13.8431C70.851 14.6564 70.8741 15.4706 70.8344 16.2814C70.8047 16.8978 71.0591 17.146 71.6556 17.1452C79.0299 17.1312 86.4042 17.1229 93.7785 17.1072C94.0396 17.1063 94.3006 17.0368 94.6427 16.988C94.6427 18.2879 94.6427 19.5761 94.6427 20.9761C86.7148 20.9761 78.8473 20.9761 70.8526 20.9761Z" fill="black"/>
<path d="M43.2591 7.2323C43.2591 8.28144 43.2591 9.49854 43.2591 10.7156C43.2591 15.1894 43.2549 19.6623 43.2607 24.136C43.2632 26.0572 44.2819 27.084 46.1762 27.0848C51.5909 27.0882 57.0047 27.0882 62.4193 27.0832C62.8184 27.0832 63.2174 27.0294 63.6751 26.9963C63.6751 28.1894 63.6751 29.4537 63.6751 30.7916C63.3645 30.8131 63.0704 30.8503 62.7762 30.8512C57.0576 30.8553 51.3389 30.8644 45.6194 30.8512C42.4288 30.8437 39.7496 28.858 39.1415 26.044C39.0151 25.4598 39.0506 24.836 39.0498 24.2303C39.0448 18.9772 39.0721 13.724 39.0275 8.47174C39.0192 7.46976 39.3497 7.15287 40.3089 7.21989C41.2656 7.28442 42.2297 7.2323 43.2591 7.2323Z" fill="black"/>
<path d="M1.04901 54.2871C1.43731 54.2871 1.70581 54.2863 1.97431 54.2871C15.2003 54.3152 28.4263 54.3425 41.6522 54.3723C42.8865 54.3748 43.7515 55.7996 43.1154 56.8793C42.97 57.1259 42.4296 57.2384 42.0686 57.2426C36.4879 57.3154 30.9072 57.3874 25.3257 57.4056C17.5796 57.4312 9.83356 57.413 2.08749 57.4105C1.75786 57.4105 1.42739 57.3832 1.04901 57.3667C1.04901 56.3391 1.04901 55.3743 1.04901 54.2871Z" fill="black"/>
<path d="M163.143 54.355C163.143 55.3446 163.143 56.2779 163.143 57.3097C162.807 57.3378 162.483 57.3899 162.16 57.3883C152.013 57.351 141.866 57.2923 131.719 57.289C130.61 57.289 130.507 56.7611 130.549 55.9097C130.587 55.1328 130.407 54.3517 131.667 54.3525C141.949 54.36 152.231 54.3219 162.514 54.3004C162.71 54.3004 162.904 54.3335 163.143 54.355Z" fill="black"/>
<path d="M89.2198 57.2516C85.9755 57.2516 82.7312 57.216 79.4885 57.2723C78.4426 57.2905 78.341 56.7758 78.3575 55.9575C78.3732 55.1632 78.3203 54.5253 79.4811 54.5237C85.8979 54.5137 92.3146 54.4252 98.7314 54.3995C99.1337 54.3979 99.8327 54.6387 99.8839 54.8761C100.033 55.5703 99.9624 56.3257 99.8723 57.0439C99.8591 57.1498 99.2734 57.2417 98.9528 57.2425C95.7077 57.2574 92.4633 57.2516 89.2198 57.2516Z" fill="black"/>
<path d="M126.473 44.3145C127.628 43.8636 128.632 42.8012 129.76 44.1549C130.33 43.9224 130.895 43.6154 131.501 43.4632C132.413 43.234 133.047 43.6609 132.888 44.5098C132.641 45.8254 132.178 47.102 131.761 48.3804C131.705 48.5533 131.382 48.6393 131.183 48.7659C131.111 48.7105 131.037 48.6551 130.964 48.6005C131.061 48.2736 131.151 47.9452 131.255 47.6208C131.534 46.7537 131.849 45.8965 132.084 45.0178C132.15 44.7721 132.076 44.3526 131.906 44.2186C131.728 44.0779 131.311 44.0895 131.074 44.1979C129.607 44.8697 128.852 46.0719 128.568 47.639C128.502 48.0047 128.215 48.3299 128.03 48.6741C127.99 48.2554 127.852 47.8177 127.932 47.4239C128.087 46.6652 128.396 45.9387 128.573 45.1825C128.64 44.9003 128.517 44.5735 128.481 44.2674C128.165 44.3253 127.794 44.2963 127.544 44.456C126.56 45.0824 125.697 45.832 125.474 47.0756C125.396 47.5083 125.343 47.9518 125.2 48.363C125.127 48.574 124.88 48.7246 124.71 48.9016C124.624 48.6857 124.427 48.4424 124.472 48.2579C124.854 46.6826 125.273 45.1163 125.708 43.5542C125.748 43.411 125.985 43.2331 126.128 43.2356C126.246 43.2381 126.409 43.4673 126.46 43.6262C126.517 43.8032 126.473 44.0142 126.473 44.3145Z" fill="black"/>
<path d="M31.4563 49.2401C31.491 48.7949 31.4654 48.5045 31.5414 48.2439C32.0759 46.3955 32.6526 44.5587 33.1598 42.7028C33.2466 42.3851 33.0227 41.9937 33.0252 41.6371C33.0277 41.326 33.0855 40.9827 33.2317 40.7154C33.3631 40.4746 33.6324 40.2943 33.8712 40.1321C34.0372 40.0196 34.404 39.8872 34.428 39.9252C34.9501 40.7427 35.8449 40.3811 36.5413 40.6211C36.8594 40.7303 37.2006 40.7791 37.5079 40.9098C39.0809 41.5809 39.3436 43.282 37.8722 44.1317C36.6429 44.8416 35.2195 45.2677 33.8323 45.6293C33.0756 45.8271 32.7831 46.1481 32.6171 46.8563C32.4295 47.6506 32.5584 48.627 31.4563 49.2401ZM33.1508 45.0129C35.0261 44.7713 36.5033 44.37 37.7549 43.3879C37.9962 43.1984 38.2515 42.6126 38.1482 42.4761C37.8309 42.055 37.3485 41.4882 36.9197 41.4791C36.0448 41.4609 34.9063 40.8834 34.3049 41.8514C33.772 42.7103 33.5812 43.7817 33.1508 45.0129Z" fill="black"/>
<path d="M69.9521 47.7515C70.556 47.9311 70.9567 48.0941 71.3722 48.1644C72.7197 48.3927 74.6174 47.1483 75.0313 45.7939C75.251 45.0741 74.7545 44.868 74.2324 44.8027C73.6681 44.7323 73.0857 44.8184 72.5148 44.7795C71.34 44.7001 70.8137 43.8015 71.4367 42.7946C72.3223 41.3607 73.6252 40.41 75.2956 40.0774C76.178 39.902 76.4539 40.1271 76.6993 41.0637C74.9503 40.5374 73.6731 41.3309 72.571 42.4967C72.3017 42.7813 72.1967 43.2224 72.0158 43.5905C72.4652 43.7428 72.9047 43.9513 73.3666 44.0324C73.8854 44.1234 74.4447 44.0183 74.9487 44.1474C75.6823 44.3352 75.9376 44.926 75.8137 45.6475C75.5361 47.26 73.4095 49.0373 71.7878 48.9901C71.0451 48.9703 70.3139 48.8404 69.9521 47.7515Z" fill="black"/>
<path d="M92.2029 44.2127C92.5581 44.12 93.0051 43.9595 93.4644 43.895C94.1691 43.7965 95.0597 43.6732 95.3043 44.4891C95.5025 45.1502 95.5042 46.1223 95.1448 46.6502C94.2129 48.0196 92.8134 48.7262 91.0818 48.5243C90.3498 49.2789 91.0347 50.7251 89.5914 51.4417C89.9772 49.5858 90.3143 47.9898 90.6406 46.3904C90.7686 45.7632 90.8546 45.1278 90.9917 44.5031C91.0561 44.2086 91.1949 43.9297 91.2999 43.6443C91.5816 43.8222 91.8633 43.9992 92.2029 44.2127ZM91.6997 47.8433C92.9059 47.8177 94.398 46.7189 94.7086 45.8319C95.0077 44.9789 94.5954 44.4576 93.6734 44.5222C92.3846 44.6123 91.2222 45.9155 91.318 47.236C91.3362 47.49 91.6212 47.725 91.6997 47.8433Z" fill="black"/>
<path d="M135.388 48.5127C134.635 49.3384 135.274 50.7127 133.921 51.186C134.215 49.7844 134.519 48.3844 134.8 46.9795C134.96 46.186 135.067 45.3818 135.235 44.5908C135.304 44.264 135.472 43.9587 135.594 43.6434C135.876 43.8255 136.157 44.0083 136.481 44.2176C136.855 44.12 137.303 43.9512 137.765 43.8925C138.469 43.8039 139.229 43.7055 139.634 44.5097C140.039 45.3123 139.955 46.1314 139.366 46.7842C138.316 47.9509 137.076 48.784 135.388 48.5127ZM136.034 47.8425C137.176 47.811 138.695 46.6816 138.991 45.817C139.266 45.0086 138.897 44.5072 138.036 44.5221C136.652 44.5461 135.379 45.9916 135.604 47.346C135.642 47.5736 135.955 47.7564 136.034 47.8425Z" fill="black"/>
<path d="M84.3801 48.4979C83.7637 49.37 84.2099 50.602 83.0648 51.2101C83.0789 50.9321 83.0615 50.6475 83.1119 50.3761C83.4969 48.2886 83.891 46.2027 84.2983 44.1201C84.3313 43.9513 84.5519 43.6626 84.5767 43.6742C84.8799 43.8082 85.1633 43.9894 85.5119 44.1929C85.9696 44.0928 86.519 43.9108 87.0791 43.8636C88.5687 43.7387 89.3139 44.8251 88.7389 46.225C88.1473 47.6655 86.153 48.7105 84.3801 48.4979ZM84.6717 47.7458C85.9299 47.9013 87.4418 47.1476 87.9045 46.0711C88.0565 45.717 88.1011 45.1229 87.9028 44.8664C87.7037 44.61 87.1188 44.5082 86.7371 44.5653C85.2393 44.7912 84.504 45.9479 84.6717 47.7458Z" fill="black"/>
<path d="M48.8405 46.3308C48.2787 46.9894 47.9168 47.5223 47.4459 47.9277C47.1006 48.2247 46.5239 48.602 46.21 48.4912C45.8696 48.3704 45.5251 47.73 45.516 47.3088C45.4929 46.2026 45.6342 45.0914 45.7564 43.9868C45.7738 43.8304 46.0472 43.7022 46.2026 43.5607C46.3314 43.7667 46.5859 43.986 46.5669 44.178C46.4901 44.9483 46.2959 45.707 46.2125 46.4773C46.1654 46.9108 46.2505 47.3585 46.2926 48.1006C47.5913 47.0912 48.2374 46.0206 48.8256 44.8903C48.9628 44.6264 49.2428 44.4369 49.4568 44.2135C49.5444 44.5031 49.6939 44.7886 49.708 45.0815C49.7443 45.8261 49.7204 46.5741 49.7204 47.5678C51.4313 46.4293 51.3421 44.374 52.6441 43.3721C52.759 43.4416 52.873 43.5111 52.9878 43.5806C52.8564 43.8966 52.7532 44.2276 52.5896 44.5255C51.989 45.6218 51.3875 46.7189 50.7423 47.7887C50.5721 48.0709 50.1533 48.4912 50.0021 48.4349C49.684 48.3166 49.4105 47.9575 49.2263 47.6348C49.0503 47.327 49.0115 46.9398 48.8405 46.3308Z" fill="black"/>
<path d="M13.9117 48.9719C13.53 47.3469 15.4285 40.7401 16.3448 40.4307C15.8639 42.3337 15.4178 44.0977 14.8957 46.1645C15.3335 45.8336 15.5285 45.6921 15.7177 45.5423C16.0606 45.2701 16.3613 44.8953 16.7496 44.7431C17.2899 44.5312 17.8946 44.4857 18.4721 44.3691C18.4382 44.911 18.4539 45.4621 18.3589 45.9924C18.2284 46.7197 18.0541 47.4462 17.8178 48.1453C17.7121 48.4572 17.4089 48.7013 17.1957 48.9768C17.1156 48.6624 16.9231 48.3273 16.9776 48.0394C17.1032 47.3791 17.375 46.7478 17.5353 46.0917C17.6005 45.8253 17.5319 45.5266 17.5237 45.2428C17.2238 45.3255 16.819 45.3123 16.643 45.5076C15.8813 46.3499 15.1815 47.2484 14.4719 48.1362C14.2628 48.3968 14.0968 48.6922 13.9117 48.9719Z" fill="black"/>
<path d="M152.56 50.8542C154.41 50.1568 155.887 49.1126 156.23 46.9696C155.949 47.2079 155.701 47.5174 155.379 47.6663C154.985 47.8475 154.413 48.1032 154.13 47.9451C153.781 47.7507 153.456 47.1574 153.467 46.7462C153.494 45.8104 153.709 44.8755 153.906 43.9521C153.942 43.7858 154.261 43.6816 154.45 43.5483C154.532 43.7436 154.712 43.9571 154.679 44.1292C154.551 44.7903 154.291 45.4298 154.209 46.0934C154.161 46.4806 154.359 46.8976 154.446 47.3006C154.802 47.1682 155.305 47.1409 155.489 46.8844C156.125 45.9999 156.643 45.0319 157.224 44.106C157.351 43.9033 157.552 43.7477 157.719 43.5707C157.842 43.7461 158.104 43.9612 158.067 44.0903C157.304 46.733 156.899 49.6032 154.024 50.9941C153.647 51.1769 153.194 51.2026 152.776 51.3002C152.704 51.1521 152.632 51.0032 152.56 50.8542Z" fill="black"/>
<path d="M99.2052 50.9501C99.4597 50.7846 99.6968 50.5761 99.9719 50.4611C101.492 49.8248 102.459 48.7178 102.811 47.0191C102.514 47.2401 102.244 47.5214 101.913 47.6653C101.514 47.8391 100.939 48.1088 100.667 47.9491C100.324 47.7473 100.023 47.149 100.035 46.7312C100.062 45.7963 100.271 44.8621 100.465 43.9404C100.499 43.7807 100.824 43.6823 101.014 43.5557C101.092 43.7518 101.267 43.9685 101.232 44.1415C101.088 44.8332 100.815 45.5025 100.72 46.1984C100.672 46.5426 100.905 46.9257 101.011 47.2914C101.342 47.1813 101.815 47.1722 101.977 46.943C102.625 46.0246 103.17 45.0326 103.771 44.0794C103.894 43.8825 104.097 43.7352 104.263 43.5648C104.379 43.7451 104.629 43.9627 104.59 44.1001C103.845 46.7494 103.427 49.6072 100.545 50.9898C100.185 51.1627 99.762 51.2066 99.368 51.31C99.3143 51.1901 99.2597 51.0701 99.2052 50.9501Z" fill="black"/>
<path d="M14.4867 41.2126C13.8101 41.2126 13.131 41.2474 12.456 41.2043C11.458 41.1415 10.8954 41.3549 10.7004 42.5505C10.4022 44.3749 9.8082 46.1522 9.31085 47.9418C9.25715 48.1346 9.01178 48.2744 8.85564 48.4391C8.78376 48.2091 8.60779 47.9542 8.65736 47.754C9.025 46.244 9.45212 44.7481 9.8272 43.2397C9.94534 42.7656 9.96186 42.2651 10.0552 41.537C9.15471 41.9192 8.49626 42.2378 7.80889 42.4703C7.55196 42.5571 7.22728 42.4454 6.93317 42.4239C7.08931 42.1964 7.19423 41.8671 7.41069 41.7579C9.40999 40.7493 11.5283 40.2619 13.7729 40.4646C14.0406 40.4886 14.2918 40.688 14.5503 40.8064C14.5297 40.9421 14.5082 41.0769 14.4867 41.2126Z" fill="black"/>
<path d="M116.998 42.4901C116.582 41.2986 115.945 41.7082 115.372 42.0821C114.018 42.965 112.868 44.0414 112.42 45.6689C112.024 47.1061 112.676 47.8896 114.116 47.5835C115.011 47.3932 115.848 46.9348 116.913 46.723C116.754 46.977 116.649 47.3758 116.426 47.4611C115.399 47.8508 114.359 48.276 113.285 48.449C112.309 48.6062 111.46 47.4586 111.502 46.2961C111.566 44.5089 113.841 41.6147 115.581 41.105C116.677 40.7848 117.226 41.2208 116.998 42.4901Z" fill="black"/>
<path d="M119.803 48.9329C118.618 48.9247 118.012 48.2628 118.231 47.1168C118.536 45.5224 119.406 44.3235 120.922 43.6732C122.181 43.1321 122.836 43.4878 123.122 44.8133C123.5 46.5649 121.583 48.9445 119.803 48.9329ZM118.983 47.0109C118.936 47.9897 119.537 48.4489 120.448 48.1304C121.396 47.7994 122.505 46.2787 122.382 45.2833C122.34 44.9449 121.887 44.398 121.615 44.3938C120.4 44.3773 119.042 45.8087 118.983 47.0109Z" fill="black"/>
<path d="M43.7863 45.2428C43.7764 47.0374 42.0199 48.957 40.4089 48.9338C39.2928 48.9181 38.6839 48.2579 38.8673 47.1789C39.14 45.5754 39.9868 44.3699 41.497 43.7006C42.9221 43.0684 43.7945 43.6675 43.7863 45.2428ZM40.5659 48.2148C41.8737 48.2496 43.4583 45.9941 42.918 44.8233C42.8188 44.6082 42.495 44.3575 42.2769 44.3592C41.0599 44.3699 39.6274 45.8667 39.5985 47.0796C39.5828 47.7531 39.8348 48.1859 40.5659 48.2148Z" fill="black"/>
<path d="M81.0778 48.7625C80.9679 48.3207 80.8581 47.8789 80.7069 47.2732C80.3376 47.6919 80.0972 48.1387 79.7246 48.3439C79.2404 48.6095 78.5126 48.9545 78.1433 48.7667C77.7021 48.5416 77.261 47.7713 77.294 47.2691C77.3675 46.1736 77.7261 45.0947 78.0128 44.0207C78.0516 43.8743 78.349 43.7973 78.5266 43.6881C78.6035 43.8801 78.7786 44.096 78.7398 44.2607C78.5473 45.0815 78.2284 45.8774 78.097 46.7056C78.0276 47.1458 78.2482 47.6323 78.3383 48.0981C78.7811 47.9442 79.4338 47.9219 79.6271 47.6116C80.2401 46.6287 80.6945 45.544 81.1827 44.4857C81.3075 44.216 81.3034 43.8892 81.4099 43.6079C81.4554 43.4879 81.676 43.3166 81.7412 43.3447C81.8924 43.4093 82.094 43.5772 82.1014 43.7121C82.1204 44.0422 82.037 44.3773 82.0006 44.7116C81.8842 45.7781 81.7776 46.8455 81.6487 47.9111C81.6132 48.2065 81.5132 48.4936 81.443 48.7849C81.3199 48.7774 81.1984 48.77 81.0778 48.7625Z" fill="black"/>
<path d="M146.615 48.6336C146.639 48.2878 146.601 47.9229 146.701 47.6002C147.07 46.4071 147.465 45.2206 147.896 44.049C147.998 43.7735 148.279 43.5642 148.478 43.3242C148.616 43.5807 148.753 43.8364 148.911 44.1334C149.393 43.9092 149.884 43.6006 150.42 43.4492C151.318 43.1943 151.997 43.7305 151.784 44.6108C151.458 45.952 150.959 47.2519 150.502 48.5583C150.459 48.6816 150.188 48.7246 149.713 48.9563C149.999 48.0396 150.189 47.3892 150.405 46.7463C150.588 46.2019 150.85 45.6782 150.975 45.123C151.041 44.8317 150.993 44.3634 150.807 44.2112C150.63 44.0672 150.148 44.1342 149.894 44.2757C148.58 45.0055 147.553 45.9694 147.385 47.5944C147.345 47.9833 147.155 48.3573 147.033 48.7379C146.894 48.7023 146.754 48.6675 146.615 48.6336Z" fill="black"/>
<path d="M24.3186 47.4272C23.7634 48.713 21.3387 49.293 20.3927 48.4275C20.0028 48.0709 19.8731 46.5295 20.2217 46.1282C20.748 45.5226 21.2503 44.883 21.8525 44.3625C22.1541 44.1027 22.668 43.9422 23.0629 43.9795C23.4578 44.0167 24.0369 44.2798 24.1468 44.5843C24.2666 44.9169 24.0683 45.6127 23.7833 45.7931C23.1513 46.1952 22.359 46.3342 21.67 46.6611C21.3428 46.8158 21.1024 47.1542 20.8231 47.409C21.1767 47.692 21.5667 48.2472 21.8765 48.2058C22.6787 48.0966 23.4462 47.7251 24.3186 47.4272ZM21.4791 46.0678C22.3796 45.9272 23.2008 45.8634 23.4421 44.8184C22.1995 44.5752 21.7204 44.8772 21.4791 46.0678Z" fill="black"/>
<path d="M145.629 43.9198C145.128 45.5365 144.962 47.2476 144.315 48.8147C144.198 48.7899 144.082 48.7659 143.965 48.741C143.926 48.3745 143.886 48.0071 143.834 47.5281C143.327 47.8557 142.929 48.1561 142.494 48.3828C141.77 48.7601 141.018 48.3307 140.956 47.538C140.775 45.247 143.19 43.2943 145.629 43.9198ZM141.943 47.8698C143.142 47.6481 144.673 46.0164 144.664 44.8713C144.662 44.6843 144.219 44.3302 143.997 44.3434C142.662 44.4245 141.438 46.5757 141.943 47.8698Z" fill="black"/>
<path d="M58.0796 47.5761C57.8805 47.7928 57.7177 48.1279 57.474 48.204C56.6859 48.449 55.8721 48.7063 55.06 48.7402C54.6618 48.7568 53.9786 48.3613 53.891 48.0295C53.7315 47.4255 53.8365 46.7081 53.9942 46.0793C54.0926 45.6888 54.4404 45.3131 54.7667 45.0384C55.2459 44.6355 55.7664 44.2193 56.3422 44.0116C56.8974 43.8106 57.7169 43.7816 57.8408 44.5436C57.9152 45.0012 57.5575 45.697 57.1717 46.0189C56.7412 46.3788 56.0679 46.4723 55.483 46.6138C54.9832 46.7346 54.3098 46.771 54.5602 47.4577C54.6924 47.8201 55.3111 48.1544 55.7482 48.2123C56.1613 48.2669 56.6305 47.9583 57.0626 47.7812C57.3501 47.6629 57.6178 47.495 57.8945 47.3494C57.9565 47.4238 58.0185 47.4999 58.0796 47.5761ZM55.1517 46.071C55.4557 46.0288 55.6507 46.0561 55.7763 45.975C56.2241 45.6855 56.6479 45.3595 57.0808 45.0467C56.956 44.9226 56.771 44.6694 56.7156 44.6951C56.2034 44.9325 55.7044 45.2023 55.2269 45.5043C55.1443 45.558 55.1823 45.8029 55.1517 46.071Z" fill="black"/>
<path d="M96.8431 48.1932C97.3586 46.1074 97.8386 44.1787 98.312 42.2476C98.4243 41.79 98.4764 41.3134 98.6334 40.8733C98.7003 40.6863 98.9646 40.5696 99.139 40.4215C99.21 40.6391 99.381 40.8807 99.3364 41.0718C98.9176 42.8764 98.4549 44.671 98.0204 46.4723C97.8865 47.0274 97.8328 47.6033 97.68 48.1527C97.6147 48.386 97.3867 48.5738 97.233 48.7823C97.0851 48.5598 96.9381 48.3372 96.8431 48.1932Z" fill="black"/>
<path d="M60.8002 43.5201C60.9225 43.8064 61.0448 44.0918 61.191 44.4344C61.5272 44.2168 61.8098 43.9222 62.1427 43.8461C62.5699 43.7485 63.0647 43.7385 63.4753 43.8676C63.6736 43.9305 63.7455 44.3963 63.8752 44.6801C63.6092 44.6412 63.3398 44.5577 63.0771 44.575C62.6566 44.6023 62.1584 44.5726 61.8387 44.786C60.7209 45.5323 60.5829 46.8016 60.3169 47.9881C60.255 48.2652 60.1591 48.5341 60.0798 48.8072C59.9245 48.7724 59.7692 48.7385 59.613 48.7038C59.9162 46.9753 60.2203 45.2469 60.5235 43.5193C60.6152 43.5193 60.7077 43.5193 60.8002 43.5201Z" fill="black"/>
<path d="M21.2851 27.0857C18.6819 27.0848 16.0787 27.0939 13.4754 27.0807C12.0767 27.0732 11.1002 26.1623 11.0887 24.7739C11.0556 20.9149 11.0515 17.0551 11.0705 13.1953C11.0763 11.9418 12.0676 10.9672 13.33 10.963C18.5703 10.9448 23.8107 10.9448 29.051 10.9638C30.4249 10.9688 31.5229 12.1114 31.5311 13.5147C31.5509 16.7647 31.5303 20.0156 31.5493 23.2664C31.5526 23.7968 31.646 24.3321 31.7459 24.8558C31.95 25.9256 30.8091 27.055 29.3988 27.0741C27.0327 27.1047 24.6657 27.0857 22.2988 27.0873C21.9609 27.0865 21.623 27.0865 21.2851 27.0857Z" fill="white"/>
<path d="M33.1509 45.0129C33.5814 43.7817 33.7722 42.7102 34.3059 41.8514C34.9065 40.8833 36.045 41.4609 36.9207 41.4791C37.3495 41.4882 37.832 42.0549 38.1492 42.4761C38.2525 42.6126 37.9972 43.1984 37.7559 43.3879C36.5035 44.37 35.0271 44.7713 33.1509 45.0129Z" fill="white"/>
<path d="M91.7002 47.8434C91.6218 47.7251 91.3367 47.4901 91.3186 47.2361C91.2219 45.9156 92.3843 44.6124 93.6739 44.5222C94.5959 44.4577 95.0082 44.9789 94.7091 45.832C94.3985 46.719 92.9056 47.8177 91.7002 47.8434Z" fill="white"/>
<path d="M136.035 47.8425C135.956 47.7565 135.643 47.5736 135.605 47.3461C135.38 45.9916 136.653 44.5462 138.037 44.5222C138.898 44.5073 139.268 45.0095 138.992 45.817C138.697 46.6817 137.177 47.8111 136.035 47.8425Z" fill="white"/>
<path d="M84.6716 47.7457C84.503 45.9477 85.2383 44.791 86.7361 44.5652C87.1178 44.5072 87.7027 44.6098 87.9019 44.8663C88.101 45.1228 88.0555 45.7169 87.9035 46.071C87.4425 47.1475 85.9298 47.9012 84.6716 47.7457Z" fill="white"/>
<path d="M118.982 47.011C119.04 45.8088 120.399 44.3774 121.613 44.3939C121.885 44.3973 122.339 44.945 122.381 45.2834C122.504 46.2779 121.394 47.7995 120.447 48.1305C119.535 48.449 118.935 47.9898 118.982 47.011Z" fill="white"/>
<path d="M40.5652 48.2156C39.8348 48.1858 39.5829 47.7531 39.5994 47.0796C39.6291 45.8667 41.0617 44.3699 42.2778 44.3591C42.4959 44.3575 42.8189 44.6082 42.9189 44.8233C43.4584 45.9941 41.8738 48.2496 40.5652 48.2156Z" fill="white"/>
<path d="M21.4789 46.0677C21.721 44.8771 22.1994 44.5743 23.4419 44.8184C23.2007 45.8634 22.3786 45.9279 21.4789 46.0677Z" fill="white"/>
<path d="M141.943 47.8697C141.438 46.5765 142.663 44.4253 143.997 44.3434C144.219 44.3301 144.663 44.6843 144.664 44.8713C144.674 46.0164 143.143 47.648 141.943 47.8697Z" fill="white"/>
<path d="M55.1505 46.071C55.181 45.803 55.143 45.5572 55.2265 45.5051C55.7032 45.2031 56.203 44.9334 56.7152 44.6959C56.7705 44.6703 56.9556 44.9234 57.0804 45.0475C56.6474 45.3595 56.2236 45.6863 55.7759 45.9759C55.6495 46.057 55.4537 46.0297 55.1505 46.071Z" fill="white"/>
<line x1="0.798828" y1="55.699" x2="162.531" y2="55.699" stroke="black" stroke-width="4"/>
</svg>
