<svg width="222" height="42" viewBox="0 0 222 42" fill="none" xmlns="http://www.w3.org/2000/svg">
<g clip-path="url(#clip0_344_2661)">
<path d="M0 41.7275C0 28.0613 0 14.3938 0 0.727539C74 0.727539 148 0.727539 222 0.727539C222 14.3938 222 28.0613 222 41.7275C148 41.7275 74 41.7275 0 41.7275ZM133.546 16.1873C126.231 16.1873 119.026 16.1873 111.805 16.1873C111.805 15.1777 111.805 14.2626 111.805 13.2657C118.675 13.2657 125.477 13.2657 132.313 13.2657C132.313 11.6702 132.313 10.1588 132.313 8.55987C131.884 8.55987 131.515 8.55987 131.145 8.55987C125.11 8.55987 119.075 8.55987 113.04 8.55987C112.78 8.55987 112.495 8.62088 112.267 8.53684C112.059 8.45972 111.774 8.23179 111.761 8.05452C111.706 7.27405 111.738 6.48782 111.738 5.59914C119.075 5.59914 126.303 5.59914 133.518 5.59914C133.518 3.9772 133.518 2.4646 133.518 0.948557C124.532 0.948557 115.622 0.948557 106.676 0.948557C106.676 7.62629 106.676 14.2407 106.676 20.8747C115.661 20.8747 124.592 20.8747 133.547 20.8747C133.546 19.3207 133.546 17.83 133.546 16.1873ZM194.869 20.8667C195.035 20.8977 195.117 20.9277 195.2 20.9277C201.985 20.93 208.772 20.9933 215.556 20.9046C219.316 20.8551 222.076 17.3764 221.468 13.725C220.987 10.8299 218.45 8.61397 215.459 8.58289C211.446 8.5403 207.432 8.56562 203.418 8.56102C202.609 8.55987 201.799 8.5921 200.993 8.54605C199.9 8.48389 199.243 7.69076 199.433 6.73416C199.575 6.0101 200.185 5.62102 201.229 5.62102C207.466 5.61756 213.702 5.6072 219.94 5.63483C220.676 5.63828 220.893 5.41151 220.862 4.71853C220.814 3.67214 220.835 2.62116 220.852 1.57247C220.861 1.06367 220.65 0.876036 220.132 0.877187C213.52 0.896756 206.908 0.836897 200.296 0.939348C196.389 0.999207 193.588 4.90271 194.605 8.61167C195.362 11.379 197.844 13.268 200.788 13.2761C205.437 13.2899 210.086 13.2772 214.734 13.283C215.853 13.2841 216.573 13.877 216.58 14.7656C216.585 15.6474 215.874 16.2057 214.718 16.2241C214.487 16.2276 214.256 16.2253 214.025 16.2253C207.99 16.2253 201.955 16.2253 195.921 16.2253C195.584 16.2253 195.248 16.2253 194.87 16.2253C194.869 17.8311 194.869 19.3207 194.869 20.8667ZM66.9084 13.2795C67.6926 13.2795 68.2734 13.291 68.8543 13.2772C73.1913 13.1782 76.1761 8.75786 74.5762 4.80831C73.5734 2.33337 71.319 0.897907 68.2805 0.887547C61.8994 0.866826 55.5196 0.879489 49.1386 0.882942C48.8616 0.882942 48.5834 0.924383 48.2936 0.946255C48.2936 7.63896 48.2936 14.2534 48.2936 20.8851C49.987 20.8851 51.6185 20.8851 53.375 20.8851C53.375 18.3376 53.375 15.8385 53.375 13.283C55.259 13.283 57.019 13.306 58.7767 13.2703C59.4008 13.2577 59.8531 13.4257 60.3018 13.8689C62.5387 16.0825 64.806 18.2651 67.0744 20.4465C67.2871 20.6514 67.5827 20.9058 67.8434 20.9104C70.051 20.9472 72.2598 20.9311 74.5458 20.9311C72.0086 18.3883 69.5543 15.9294 66.9084 13.2795ZM41.368 0.928988C40.9823 0.909418 40.6726 0.879489 40.3641 0.879489C27.3402 0.877187 14.3176 0.885245 1.2949 0.858769C0.438257 0.857617 0.241918 1.12238 0.244255 1.92012C0.267629 14.7035 0.259448 27.488 0.262954 40.2725C0.262954 40.6017 0.306196 40.9321 0.328401 41.2556C14.0593 41.2556 27.699 41.2556 41.3668 41.2556C41.368 27.8092 41.368 14.4341 41.368 0.928988ZM135.996 0.909418C135.996 7.62514 135.996 14.2419 135.996 20.8839C137.688 20.8839 139.317 20.8839 141.073 20.8839C141.073 16.2725 141.073 11.7105 141.073 6.94597C141.481 7.29707 141.718 7.49391 141.947 7.69882C146.714 11.95 151.48 16.2023 156.251 20.4488C156.458 20.633 156.707 20.9012 156.94 20.9058C158.835 20.9426 160.732 20.9265 162.644 20.9265C162.644 14.2062 162.644 7.58946 162.644 0.88064C161.4 0.88064 160.221 0.88064 159.043 0.88064C157.667 0.88064 157.666 0.881791 157.666 2.19178C157.666 5.99168 157.667 9.79043 157.664 13.5903C157.664 13.9173 157.636 14.2442 157.612 14.7691C157.228 14.4468 156.992 14.2591 156.767 14.0588C152.089 9.88137 147.413 5.69929 142.729 1.52643C142.459 1.28584 142.132 0.945104 141.824 0.935895C139.9 0.881791 137.973 0.909418 135.996 0.909418ZM77.2151 0.947406C77.2151 7.62399 77.2151 14.2396 77.2151 20.8701C78.9202 20.8701 80.5739 20.8701 82.314 20.8701C82.314 18.3226 82.314 15.8419 82.314 13.3728C82.48 13.3313 82.5618 13.2933 82.6424 13.2933C87.7531 13.2876 92.8638 13.2922 97.9744 13.2738C98.5541 13.2715 98.6289 13.5535 98.6265 14.0128C98.6149 15.9974 98.6207 17.9808 98.6242 19.9653C98.6254 20.2669 98.6523 20.5674 98.6674 20.8793C100.353 20.8793 101.953 20.8793 103.657 20.8793C103.657 20.4603 103.657 20.0989 103.657 19.7362C103.657 13.8689 103.657 8.00156 103.657 2.13308C103.657 1.87752 103.699 1.61046 103.633 1.37218C103.585 1.19605 103.396 0.925534 103.265 0.923232C101.748 0.892151 100.229 0.902512 98.623 0.902512C98.623 3.19903 98.595 5.37698 98.6382 7.55262C98.6534 8.31122 98.4536 8.58404 97.6297 8.57713C92.8369 8.5403 88.0429 8.55987 83.2502 8.55641C82.9451 8.55641 82.6389 8.52188 82.2427 8.4977C82.2427 5.92377 82.2427 3.44307 82.2427 0.946255C80.5154 0.947406 78.8839 0.947406 77.2151 0.947406ZM187.079 0.93129C187.079 1.36872 187.079 1.7037 187.079 2.03753C187.079 6.00434 187.081 9.97116 187.077 13.9391C187.075 15.644 186.478 16.223 184.728 16.2241C180.745 16.2264 176.761 16.2253 172.778 16.2253C170.779 16.2253 170.193 15.6566 170.192 13.7089C170.19 9.76971 170.166 5.83167 170.211 1.89249C170.22 1.05101 169.949 0.812723 169.131 0.865675C168.125 0.930139 167.108 0.93129 166.102 0.865675C165.307 0.813874 165.145 1.11777 165.149 1.83954C165.18 6.40149 165.237 10.9646 165.141 15.5254C165.072 18.8165 167.855 21.0002 170.713 20.9587C175.995 20.8816 181.278 20.938 186.56 20.9357C189.95 20.9346 192.16 18.7889 192.165 15.4862C192.17 10.9531 192.166 6.41875 192.166 1.88443C192.166 1.58283 192.166 1.28239 192.166 0.932441C190.438 0.93129 188.834 0.93129 187.079 0.93129ZM110.469 27.8552C110.268 27.8195 110.156 27.7827 110.045 27.7827C104.964 27.7804 99.8852 27.7677 94.8049 27.7942C93.5159 27.8011 92.6102 28.7853 92.5973 30.1517C92.5704 33.0411 92.5669 35.9316 92.5985 38.8221C92.6137 40.2702 93.5977 41.198 95.0691 41.2026C99.399 41.2164 103.728 41.2164 108.058 41.2026C109.577 41.198 110.506 40.2529 110.528 38.7415C110.542 37.778 110.534 36.8145 110.531 35.851C110.524 33.9954 109.615 33.1009 107.711 33.0963C105.315 33.0894 102.919 33.0929 100.523 33.0975C100.278 33.0975 100.031 33.1343 99.7637 33.1562C99.7637 33.9804 99.7637 34.7321 99.7637 35.5621C101.918 35.5621 104.018 35.5586 106.118 35.5632C107.358 35.5667 107.826 36.0098 107.835 37.1656C107.843 38.395 107.384 38.8635 106.126 38.8658C103.096 38.8716 100.065 38.8716 97.0336 38.8658C95.7352 38.8635 95.2899 38.4123 95.2853 37.108C95.2794 35.5494 95.2841 33.9908 95.2841 32.4333C95.2841 30.436 95.5786 30.1517 97.6554 30.1517C101.581 30.1517 105.507 30.1529 109.432 30.1494C109.766 30.1494 110.101 30.1195 110.469 30.1022C110.469 29.3171 110.469 28.6196 110.469 27.8552ZM220.419 27.8529C220.13 27.8241 219.935 27.7884 219.74 27.7884C215.266 27.7884 210.792 27.7896 206.319 27.7976C206.061 27.7976 205.796 27.8172 205.547 27.8748C203.446 28.3663 202.192 30.1655 202.43 32.3285C202.641 34.2302 204.374 35.729 206.432 35.7393C209.722 35.7566 213.013 35.7221 216.303 35.7681C216.837 35.7762 217.518 35.9465 217.855 36.2976C218.175 36.6315 218.306 37.3325 218.211 37.8137C218.052 38.6137 217.324 38.8578 216.539 38.8578C212.267 38.8589 207.996 38.8589 203.724 38.8589C203.391 38.8589 203.059 38.8589 202.652 38.8589C202.652 39.5542 202.675 40.1171 202.645 40.6777C202.62 41.1681 202.837 41.3177 203.309 41.3166C207.812 41.3062 212.316 41.3753 216.817 41.2878C220.175 41.2222 222.072 37.839 220.336 35.1856C219.445 33.8261 218.104 33.2794 216.503 33.2771C213.213 33.2713 209.922 33.2828 206.632 33.269C205.671 33.2655 205.003 32.6255 204.986 31.7668C204.97 30.9379 205.561 30.3486 206.524 30.2576C206.897 30.2219 207.273 30.2208 207.649 30.2208C211.488 30.2185 215.326 30.2196 219.165 30.2185C219.424 30.2185 219.706 30.2691 219.937 30.1886C220.129 30.1218 220.383 29.9054 220.399 29.7373C220.453 29.1249 220.419 28.5067 220.419 27.8529ZM143.769 27.846C143.501 27.823 143.277 27.7884 143.053 27.7873C138.694 27.785 134.333 27.7735 129.974 27.7953C127.546 27.808 125.816 29.4875 125.817 31.7622C125.818 34.0598 127.595 35.7359 130.058 35.7428C133.206 35.7508 136.353 35.7439 139.499 35.7474C139.816 35.7474 140.141 35.737 140.447 35.8003C141.287 35.9753 141.846 36.6902 141.777 37.4453C141.709 38.182 141.099 38.7588 140.273 38.8462C140.016 38.8727 139.754 38.8589 139.494 38.8589C135.51 38.8589 131.525 38.8508 127.541 38.8635C126.042 38.8681 126.143 38.5757 126.082 40.2667C126.053 41.0737 126.293 41.3396 127.145 41.3315C131.36 41.2913 135.576 41.3154 139.791 41.3085C140.164 41.3085 140.541 41.2751 140.91 41.2187C142.933 40.9102 144.341 39.3343 144.364 37.3705C144.386 35.3836 143.049 33.7076 141.046 33.4186C139.885 33.2517 138.689 33.2886 137.509 33.2794C134.997 33.2609 132.485 33.2851 129.973 33.2644C129.086 33.2575 128.419 32.5841 128.399 31.7714C128.38 30.9932 128.975 30.3635 129.854 30.2657C130.254 30.2208 130.66 30.2196 131.065 30.2185C134.644 30.215 138.225 30.2162 141.805 30.2162C144.049 30.2173 144.049 30.2173 143.769 27.846ZM78.3089 41.2084C80.4441 41.2084 82.5805 41.221 84.7157 41.2038C86.2256 41.1923 87.1489 40.3139 87.1629 38.8324C87.1886 35.9431 87.1875 33.0537 87.1641 30.1644C87.1524 28.6575 86.2782 27.7827 84.7414 27.7735C80.4418 27.7493 76.1422 27.7493 71.8426 27.7735C70.2871 27.7815 69.3755 28.7059 69.3662 30.2231C69.3498 33.056 69.351 35.889 69.365 38.7219C69.3732 40.276 70.3175 41.1957 71.9034 41.2061C74.0374 41.2187 76.1738 41.2084 78.3089 41.2084ZM196.914 27.8126C196.595 27.793 196.34 27.7631 196.087 27.762C191.352 27.7597 186.619 27.7528 181.885 27.7643C180.016 27.7689 179.16 28.5482 179.129 30.3808C179.084 33.0998 179.086 35.8211 179.126 38.5412C179.154 40.4106 180.029 41.2061 181.923 41.2084C186.599 41.2118 191.275 41.2107 195.952 41.2084C196.26 41.2084 196.568 41.1819 196.921 41.1658C196.921 40.3727 196.921 39.6543 196.921 38.8693C196.547 38.8693 196.234 38.8693 195.921 38.8693C191.822 38.8693 187.724 38.8716 183.624 38.8681C182.267 38.867 181.805 38.4215 181.797 37.0862C181.787 35.4147 181.79 33.7421 181.796 32.0707C181.801 30.5891 182.247 30.1552 183.775 30.154C187.816 30.1506 191.857 30.154 195.897 30.1506C196.233 30.1506 196.568 30.1229 196.914 30.1068C196.914 29.2999 196.914 28.5804 196.914 27.8126ZM48.1814 41.3235C48.6442 41.3235 48.9831 41.3235 49.3232 41.3235C54.2843 41.3235 59.2453 41.3315 64.2064 41.3189C65.8309 41.3143 65.686 41.6239 65.7467 39.8305C65.7736 39.035 65.4931 38.8451 64.7136 38.8508C60.4736 38.8854 56.2336 38.8647 51.9937 38.8635C51.6512 38.8635 51.31 38.8635 50.8857 38.8635C50.8554 38.4606 50.8098 38.1302 50.8098 37.801C50.8039 35.0544 50.8238 32.3078 50.7981 29.5612C50.7794 27.4845 51.1545 27.8299 48.9761 27.7631C48.3111 27.7424 48.1452 27.9864 48.1534 28.6C48.1872 31.0346 48.1767 33.4704 48.1802 35.9051C48.1826 37.6583 48.1814 39.4115 48.1814 41.3235ZM155.337 30.1874C155.337 33.9677 155.337 37.5834 155.337 41.2429C156.267 41.2429 157.115 41.2429 158.021 41.2429C158.021 40.8642 158.021 40.5545 158.021 40.2449C158.021 37.2404 158.061 34.2348 157.997 31.2303C157.977 30.3221 158.296 30.1298 159.133 30.1598C160.691 30.215 162.251 30.1793 163.81 30.1724C164.114 30.1713 164.418 30.1321 164.709 30.1126C164.709 29.2907 164.709 28.5689 164.709 27.8379C159.325 27.8379 154.005 27.8379 148.661 27.8379C148.661 28.638 148.661 29.3574 148.661 30.1874C150.883 30.1874 153.039 30.1874 155.337 30.1874ZM120.037 27.7654C119.282 27.7654 118.623 27.7781 117.964 27.7608C117.497 27.7481 117.382 27.9726 117.383 28.3893C117.392 32.5 117.384 36.6096 117.403 40.7203C117.404 40.916 117.606 41.2705 117.735 41.2797C118.495 41.3327 119.261 41.3062 120.036 41.3062C120.037 36.7431 120.037 32.3285 120.037 27.7654ZM170.241 41.3189C170.619 41.3189 170.956 41.3235 171.293 41.3177C172.95 41.2924 172.837 41.5756 172.839 39.8408C172.844 36.3886 172.851 32.9363 172.837 29.4829C172.829 27.511 173.09 27.8138 171.104 27.7481C170.39 27.724 170.168 27.9415 170.173 28.6518C170.205 32.5852 170.188 36.5186 170.191 40.4521C170.191 40.703 170.219 40.9517 170.241 41.3189Z" fill="white"/>
<path d="M133.546 16.1873C133.546 17.83 133.546 19.3196 133.546 20.8748C124.591 20.8748 115.66 20.8748 106.675 20.8748C106.675 14.2419 106.675 7.62635 106.675 0.948608C115.622 0.948608 124.53 0.948608 133.516 0.948608C133.516 2.46465 133.516 3.9784 133.516 5.5992C126.302 5.5992 119.075 5.5992 111.737 5.5992C111.737 6.48787 111.705 7.2741 111.76 8.05457C111.773 8.23184 112.058 8.45977 112.266 8.53689C112.494 8.62208 112.778 8.55992 113.039 8.55992C119.074 8.55992 125.109 8.55992 131.144 8.55992C131.513 8.55992 131.883 8.55992 132.312 8.55992C132.312 10.1588 132.312 11.6703 132.312 13.2658C125.476 13.2658 118.674 13.2658 111.803 13.2658C111.803 14.2626 111.803 15.1778 111.803 16.1873C119.026 16.1873 126.232 16.1873 133.546 16.1873Z" fill="black"/>
<path d="M194.869 20.8667C194.869 19.3218 194.869 17.8311 194.869 16.2253C195.248 16.2253 195.584 16.2253 195.92 16.2253C201.955 16.2253 207.99 16.2253 214.024 16.2253C214.255 16.2253 214.485 16.2276 214.717 16.2241C215.874 16.2046 216.585 15.6463 216.578 14.7657C216.573 13.877 215.853 13.2841 214.733 13.283C210.084 13.2772 205.435 13.2899 200.787 13.2761C197.843 13.2669 195.361 11.3779 194.604 8.61168C193.588 4.90272 196.388 0.999224 200.295 0.939365C206.905 0.836914 213.519 0.896773 220.131 0.877203C220.649 0.876052 220.859 1.06369 220.851 1.57249C220.834 2.62117 220.813 3.67101 220.861 4.71854C220.892 5.41153 220.675 5.6383 219.938 5.63485C213.701 5.60722 207.465 5.61758 201.228 5.62103C200.184 5.62103 199.574 6.01012 199.431 6.73418C199.243 7.69193 199.899 8.48506 200.992 8.54607C201.798 8.59211 202.608 8.55988 203.417 8.56103C207.43 8.56564 211.444 8.54031 215.458 8.5829C218.448 8.61514 220.984 10.8299 221.467 13.725C222.075 17.3753 219.314 20.8552 215.555 20.9047C208.77 20.9933 201.984 20.93 195.199 20.9277C195.118 20.9265 195.035 20.8978 194.869 20.8667Z" fill="black"/>
<path d="M66.9084 13.2796C69.5543 15.9295 72.0085 18.3883 74.5469 20.9311C72.261 20.9311 70.0522 20.9473 67.8445 20.9104C67.5839 20.9058 67.2882 20.6514 67.0755 20.4465C64.8071 18.2651 62.5387 16.0826 60.303 13.8689C59.8554 13.4257 59.4019 13.2577 58.7778 13.2703C57.0201 13.3049 55.2613 13.283 53.3762 13.283C53.3762 15.8385 53.3762 18.3376 53.3762 20.8851C51.6185 20.8851 49.987 20.8851 48.2947 20.8851C48.2947 14.2534 48.2947 7.63899 48.2947 0.946283C48.5846 0.923261 48.8616 0.882971 49.1397 0.882971C55.5207 0.879517 61.9006 0.866855 68.2816 0.887575C71.3214 0.897936 73.5746 2.3334 74.5773 4.80834C76.1772 8.75789 73.1924 13.1782 68.8554 13.2772C68.2746 13.2911 67.6926 13.2796 66.9084 13.2796ZM53.3388 5.69011C53.3388 6.40497 53.3797 7.05421 53.3271 7.69769C53.2733 8.36535 53.5106 8.58522 54.1989 8.57371C56.3026 8.53687 58.4074 8.56105 60.511 8.56105C63.0763 8.56105 65.6415 8.57371 68.2068 8.55184C69.2843 8.54263 69.9318 7.93483 69.9154 7.0427C69.9002 6.20122 69.2902 5.6268 68.3178 5.6245C63.476 5.61414 58.6329 5.62105 53.7911 5.6245C53.6812 5.6245 53.5702 5.65558 53.3388 5.69011Z" fill="black"/>
<path d="M41.368 0.928946C41.368 14.4352 41.368 27.8103 41.368 41.2567C27.7002 41.2567 14.0605 41.2567 0.329582 41.2567C0.307377 40.9321 0.264136 40.6028 0.264136 40.2736C0.259461 27.4891 0.266473 14.7046 0.244268 1.92123C0.243099 1.12234 0.439438 0.857576 1.29492 0.859878C14.3176 0.885203 27.3402 0.877145 40.3629 0.879447C40.6726 0.879447 40.9823 0.908226 41.368 0.928946ZM39.1346 39.0557C39.1346 27.0413 39.1346 15.096 39.1346 3.13682C26.9067 3.13682 14.743 3.13682 2.57112 3.13682C2.57112 15.1351 2.57112 27.062 2.57112 39.0557C14.7815 39.0557 26.9476 39.0557 39.1346 39.0557Z" fill="white"/>
<path d="M135.996 0.909463C137.973 0.909463 139.899 0.882987 141.824 0.93709C142.132 0.9463 142.459 1.28704 142.729 1.52762C147.413 5.70049 152.088 9.88141 156.768 14.06C156.992 14.2603 157.228 14.448 157.612 14.7703C157.636 14.2454 157.664 13.9184 157.664 13.5915C157.667 9.79163 157.665 5.99288 157.666 2.19298C157.666 0.882987 157.667 0.882987 159.043 0.881836C160.222 0.881836 161.4 0.881836 162.644 0.881836C162.644 7.59181 162.644 14.2074 162.644 20.9277C160.732 20.9277 158.836 20.9438 156.94 20.907C156.707 20.9024 156.458 20.6342 156.251 20.45C151.48 16.2035 146.714 11.95 141.947 7.70001C141.718 7.49511 141.481 7.29827 141.073 6.94717C141.073 11.7117 141.073 16.2725 141.073 20.8851C139.317 20.8851 137.688 20.8851 135.996 20.8851C135.996 14.2419 135.996 7.62519 135.996 0.909463Z" fill="black"/>
<path d="M77.2151 0.947353C78.884 0.947353 80.5155 0.947353 82.2439 0.947353C82.2439 3.44417 82.2439 5.92371 82.2439 8.4988C82.6401 8.52298 82.9451 8.55751 83.2513 8.55751C88.0441 8.56096 92.8381 8.54139 97.6309 8.57823C98.4548 8.58399 98.6546 8.31232 98.6394 7.55372C98.595 5.37807 98.6242 3.20128 98.6242 0.90361C100.23 0.90361 101.749 0.892098 103.266 0.92433C103.397 0.926633 103.586 1.19715 103.634 1.37327C103.7 1.61156 103.658 1.87977 103.658 2.13417C103.658 8.00151 103.658 13.8689 103.658 19.7373C103.658 20.0999 103.658 20.4614 103.658 20.8804C101.954 20.8804 100.354 20.8804 98.6686 20.8804C98.6535 20.5685 98.6254 20.2669 98.6254 19.9664C98.6207 17.9819 98.6161 15.9985 98.6277 14.0139C98.6301 13.5546 98.5553 13.2726 97.9756 13.2749C92.865 13.2933 87.7543 13.2887 82.6436 13.2944C82.5618 13.2944 82.4812 13.3324 82.3152 13.3739C82.3152 15.843 82.3152 18.3237 82.3152 20.8712C80.5751 20.8712 78.9214 20.8712 77.2163 20.8712C77.2151 14.2395 77.2151 7.62394 77.2151 0.947353Z" fill="black"/>
<path d="M187.078 0.931312C188.834 0.931312 190.438 0.931312 192.165 0.931312C192.165 1.28126 192.165 1.58285 192.165 1.8833C192.165 6.41762 192.169 10.9508 192.163 15.4851C192.159 18.7877 189.949 20.9334 186.558 20.9346C181.276 20.9369 175.992 20.8793 170.712 20.9576C167.854 20.9991 165.071 18.8154 165.14 15.5243C165.236 10.9646 165.178 6.40036 165.148 1.83841C165.143 1.11664 165.306 0.812745 166.101 0.864546C167.107 0.930161 168.124 0.92901 169.13 0.864546C169.949 0.811594 170.22 1.04988 170.21 1.89136C170.165 5.82939 170.189 9.76858 170.191 13.7078C170.192 15.6555 170.779 16.2241 172.777 16.2241C176.76 16.2253 180.744 16.2265 184.727 16.223C186.477 16.2218 187.075 15.6428 187.076 13.938C187.081 9.97118 187.077 6.00437 187.077 2.0364C187.078 1.70257 187.078 1.36874 187.078 0.931312Z" fill="black"/>
<path d="M110.469 27.8552C110.469 28.6196 110.469 29.3172 110.469 30.1022C110.101 30.1195 109.766 30.1494 109.432 30.1494C105.507 30.1529 101.581 30.1517 97.6553 30.1517C95.5786 30.1517 95.2841 30.4361 95.2841 32.4333C95.2841 33.9919 95.2806 35.5506 95.2852 37.108C95.2899 38.4134 95.7352 38.8647 97.0336 38.8658C100.064 38.8704 103.094 38.8716 106.126 38.8658C107.383 38.8635 107.844 38.395 107.835 37.1656C107.826 36.0099 107.359 35.5667 106.118 35.5632C104.018 35.5586 101.918 35.5621 99.7636 35.5621C99.7636 34.731 99.7636 33.9804 99.7636 33.1562C100.031 33.1343 100.277 33.0975 100.523 33.0975C102.919 33.0929 105.315 33.0894 107.711 33.0963C109.615 33.1021 110.524 33.9954 110.531 35.851C110.534 36.8145 110.542 37.778 110.528 38.7415C110.506 40.2541 109.577 41.198 108.058 41.2026C103.728 41.2164 99.399 41.2153 95.069 41.2026C93.5977 41.198 92.6136 40.2691 92.5984 38.8221C92.5669 35.9327 92.5692 33.0422 92.5973 30.1517C92.6101 28.7842 93.517 27.8 94.8049 27.7942C99.8852 27.7677 104.964 27.7815 110.045 27.7827C110.156 27.7827 110.268 27.8195 110.469 27.8552Z" fill="black"/>
<path d="M220.419 27.8529C220.419 28.5067 220.453 29.1249 220.397 29.735C220.381 29.9031 220.127 30.1206 219.935 30.1863C219.704 30.2668 219.422 30.2162 219.162 30.2162C215.323 30.2173 211.485 30.2162 207.646 30.2185C207.271 30.2185 206.895 30.2208 206.522 30.2553C205.559 30.3463 204.969 30.9356 204.984 31.7645C205 32.6232 205.669 33.2621 206.629 33.2667C209.919 33.2805 213.21 33.2701 216.5 33.2747C218.101 33.277 219.443 33.8238 220.333 35.1833C222.07 37.8367 220.172 41.2199 216.815 41.2855C212.314 41.3741 207.81 41.3051 203.307 41.3143C202.835 41.3154 202.617 41.1646 202.643 40.6754C202.672 40.1148 202.65 39.5519 202.65 38.8566C203.056 38.8566 203.389 38.8566 203.722 38.8566C207.993 38.8566 212.265 38.8566 216.536 38.8555C217.322 38.8555 218.05 38.6114 218.209 37.8114C218.305 37.3313 218.173 36.6292 217.852 36.2953C217.516 35.9442 216.834 35.7739 216.3 35.7658C213.01 35.7198 209.719 35.7543 206.43 35.737C204.37 35.7267 202.638 34.2279 202.428 32.3262C202.188 30.1644 203.444 28.364 205.545 27.8725C205.795 27.8138 206.059 27.7953 206.316 27.7953C210.79 27.7884 215.264 27.7861 219.737 27.7861C219.936 27.7884 220.131 27.8241 220.419 27.8529Z" fill="black"/>
<path d="M143.769 27.8459C144.049 30.2173 144.049 30.2173 141.804 30.2173C138.224 30.2173 134.643 30.2161 131.063 30.2196C130.66 30.2196 130.254 30.2219 129.853 30.2668C128.973 30.3646 128.378 30.9943 128.398 31.7725C128.418 32.5852 129.085 33.2574 129.972 33.2655C132.483 33.2862 134.996 33.262 137.508 33.2804C138.688 33.2897 139.884 33.2528 141.045 33.4197C143.047 33.7087 144.385 35.3836 144.363 37.3716C144.341 39.3354 142.933 40.9113 140.908 41.2198C140.539 41.2762 140.163 41.3085 139.79 41.3096C135.575 41.3154 131.359 41.2912 127.144 41.3326C126.291 41.3407 126.052 41.0748 126.081 40.2678C126.142 38.5768 126.04 38.8704 127.54 38.8646C131.524 38.8508 135.508 38.86 139.493 38.86C139.753 38.86 140.014 38.875 140.272 38.8473C141.097 38.761 141.708 38.1831 141.776 37.4464C141.845 36.6913 141.286 35.9776 140.446 35.8014C140.139 35.737 139.815 35.7485 139.498 35.7485C136.351 35.745 133.203 35.7519 130.057 35.7439C127.594 35.737 125.817 34.0609 125.816 31.7632C125.815 29.4886 127.545 27.8091 129.973 27.7964C134.332 27.7746 138.693 27.7872 143.052 27.7884C143.277 27.7872 143.501 27.8229 143.769 27.8459Z" fill="black"/>
<path d="M78.309 41.2084C76.1738 41.2084 74.0374 41.2188 71.9022 41.2049C70.3175 41.1946 69.372 40.2748 69.3639 38.7208C69.3487 35.8878 69.3475 33.0549 69.365 30.222C69.3744 28.7048 70.2848 27.7804 71.8415 27.7723C76.1411 27.7493 80.4407 27.7482 84.7403 27.7723C86.2771 27.7804 87.1513 28.6553 87.1629 30.1632C87.1863 33.0526 87.1875 35.9419 87.1618 38.8313C87.1489 40.3128 86.2245 41.1911 84.7145 41.2026C82.5805 41.2211 80.4442 41.2084 78.309 41.2084ZM78.3347 38.8681C79.8633 38.8681 81.392 38.8773 82.9206 38.8647C83.9771 38.8555 84.4796 38.4169 84.4995 37.3786C84.5357 35.4826 84.5346 33.5844 84.4995 31.6874C84.4796 30.6467 83.9876 30.169 82.9416 30.1621C79.8259 30.1402 76.7114 30.1391 73.5957 30.1632C72.5649 30.1713 72.0682 30.7008 72.0612 31.7081C72.0472 33.5764 72.0472 35.4458 72.0612 37.3153C72.0694 38.3847 72.559 38.8555 73.6623 38.8647C75.219 38.8773 76.7768 38.8681 78.3347 38.8681Z" fill="black"/>
<path d="M196.914 27.8126C196.914 28.5804 196.914 29.2999 196.914 30.1068C196.568 30.1218 196.233 30.1506 195.897 30.1506C191.856 30.154 187.815 30.1506 183.775 30.154C182.247 30.1552 181.801 30.5892 181.796 32.0707C181.79 33.7421 181.787 35.4147 181.797 37.0862C181.805 38.4215 182.267 38.867 183.624 38.8681C187.722 38.8716 191.821 38.8693 195.921 38.8693C196.234 38.8693 196.547 38.8693 196.921 38.8693C196.921 39.6544 196.921 40.3727 196.921 41.1658C196.568 41.1819 196.26 41.2084 195.952 41.2084C191.276 41.2107 186.601 41.213 181.923 41.2084C180.028 41.2072 179.152 40.4107 179.126 38.5412C179.086 35.8211 179.082 33.1009 179.129 30.3808C179.161 28.5482 180.016 27.7677 181.885 27.7643C186.619 27.7539 191.352 27.7597 196.087 27.762C196.34 27.7631 196.595 27.7931 196.914 27.8126Z" fill="black"/>
<path d="M48.1814 41.3234C48.1814 39.4114 48.1837 37.6582 48.1814 35.905C48.1779 33.4704 48.1884 31.0346 48.1545 28.5999C48.1463 27.9864 48.3123 27.7423 48.9773 27.7631C51.1557 27.8298 50.7806 27.4856 50.7993 29.5611C50.8238 32.3077 50.8039 35.0543 50.8109 37.801C50.8121 38.1313 50.8565 38.4606 50.8869 38.8635C51.31 38.8635 51.6524 38.8635 51.9948 38.8635C56.2348 38.8646 60.4748 38.8853 64.7148 38.8508C65.4943 38.8439 65.7748 39.035 65.7479 39.8304C65.6871 41.6239 65.8321 41.3142 64.2076 41.3188C59.2465 41.3315 54.2854 41.3234 49.3244 41.3234C48.9831 41.3234 48.643 41.3234 48.1814 41.3234Z" fill="black"/>
<path d="M155.337 30.1874C153.039 30.1874 150.883 30.1874 148.66 30.1874C148.66 29.3574 148.66 28.6379 148.66 27.8379C154.002 27.8379 159.323 27.8379 164.707 27.8379C164.707 28.57 164.707 29.2906 164.707 30.1125C164.416 30.1333 164.113 30.1712 163.809 30.1724C162.25 30.1793 160.688 30.215 159.132 30.1597C158.295 30.1298 157.977 30.322 157.996 31.2303C158.06 34.2336 158.02 37.2392 158.02 40.2448C158.02 40.5545 158.02 40.8641 158.02 41.2429C157.113 41.2429 156.266 41.2429 155.336 41.2429C155.337 37.5846 155.337 33.9677 155.337 30.1874Z" fill="black"/>
<path d="M120.037 27.7655C120.037 32.3286 120.037 36.7432 120.037 41.3051C119.262 41.3051 118.495 41.3316 117.736 41.2786C117.607 41.2694 117.405 40.9149 117.404 40.7192C117.384 36.6085 117.393 32.4989 117.384 28.3882C117.383 27.9715 117.498 27.7482 117.965 27.7597C118.623 27.7781 119.282 27.7655 120.037 27.7655Z" fill="black"/>
<path d="M170.241 41.3189C170.219 40.9517 170.191 40.7031 170.191 40.4533C170.189 36.5199 170.206 32.5864 170.173 28.653C170.168 27.9416 170.39 27.7252 171.104 27.7493C173.09 27.815 172.83 27.5122 172.837 29.4841C172.851 32.9364 172.844 36.3886 172.839 39.842C172.837 41.5768 172.95 41.2936 171.293 41.3189C170.956 41.3235 170.619 41.3189 170.241 41.3189Z" fill="black"/>
<path d="M53.3388 5.69004C53.5702 5.6555 53.6801 5.62327 53.7911 5.62327C58.633 5.61982 63.476 5.61291 68.3179 5.62327C69.2902 5.62557 69.9014 6.19999 69.9154 7.04147C69.9318 7.9336 69.2844 8.54255 68.2068 8.55061C65.6416 8.57248 63.0763 8.55867 60.511 8.55982C58.4074 8.55982 56.3026 8.53564 54.199 8.57248C53.5118 8.58399 53.2734 8.36412 53.3271 7.69647C53.3797 7.05528 53.3388 6.40489 53.3388 5.69004Z" fill="white"/>
<path d="M39.1347 39.0557C26.9464 39.0557 14.7816 39.0557 2.57117 39.0557C2.57117 27.062 2.57117 15.1351 2.57117 3.13684C14.743 3.13684 26.9067 3.13684 39.1347 3.13684C39.1347 15.096 39.1347 27.0413 39.1347 39.0557ZM37.5791 23.8135C37.3244 23.7594 37.2449 23.7284 37.1654 23.7284C29.0232 23.7249 20.8821 23.7191 12.7411 23.7433C12.4197 23.7445 12.0364 23.9586 11.7874 24.1854C9.3063 26.4358 6.84739 28.7093 4.38497 30.9782C4.25174 31.1014 4.14071 31.2464 3.93035 31.4801C4.39081 31.4801 4.70285 31.4801 5.01489 31.4801C12.6371 31.4801 20.2592 31.4605 27.8802 31.5043C28.9145 31.51 29.6449 31.228 30.38 30.5189C32.7022 28.2753 35.1015 26.1089 37.5791 23.8135ZM14.923 21.2741C15.3823 21.3006 15.6301 21.3271 15.879 21.3282C19.0531 21.3305 22.2273 21.3536 25.4003 21.3052C25.8864 21.2972 26.4766 21.0715 26.8319 20.7492C30.1592 17.7321 33.4443 14.6712 36.7482 11.6276C37.0334 11.3652 37.3571 11.1418 37.6621 10.9001C37.6165 10.8241 37.571 10.747 37.5266 10.671C37.2496 10.671 36.9726 10.671 36.6956 10.671C34.301 10.671 31.8947 10.8103 29.514 10.6296C27.3274 10.4638 25.7404 11.1154 24.2 12.6636C21.2807 15.5956 18.1392 18.3134 14.923 21.2741Z" fill="black"/>
<path d="M78.3347 38.8681C76.7768 38.8681 75.219 38.8773 73.6611 38.8647C72.559 38.8566 72.0682 38.3846 72.06 37.3152C72.0472 35.4469 72.046 33.5775 72.06 31.7081C72.067 30.6997 72.5637 30.1701 73.5945 30.1632C76.7102 30.1391 79.8248 30.1402 82.9405 30.1621C83.9864 30.169 84.4785 30.6479 84.4983 31.6873C84.5334 33.5833 84.5346 35.4815 84.4983 37.3785C84.4785 38.4157 83.9759 38.8555 82.9194 38.8647C81.392 38.8773 79.8633 38.8681 78.3347 38.8681Z" fill="white"/>
<path d="M37.579 23.8135C35.1014 26.1089 32.7033 28.2765 30.3788 30.5178C29.6437 31.2269 28.9144 31.5089 27.879 31.5031C20.2568 31.4594 12.6346 31.479 5.01362 31.479C4.70158 31.479 4.38954 31.479 3.92908 31.479C4.13944 31.2453 4.25047 31.0991 4.3837 30.9771C6.84612 28.7082 9.30503 26.4347 11.7861 24.1842C12.0362 23.9574 12.4184 23.7433 12.7398 23.7422C20.8809 23.7192 29.0231 23.7249 37.1642 23.7272C37.2436 23.7272 37.3231 23.7594 37.579 23.8135Z" fill="white"/>
<path d="M14.923 21.2742C18.1392 18.3135 21.2818 15.5956 24.2 12.6637C25.7415 11.1154 27.3286 10.4639 29.514 10.6296C31.8946 10.8104 34.3009 10.6711 36.6956 10.6711C36.9726 10.6711 37.2495 10.6711 37.5265 10.6711C37.5721 10.747 37.6177 10.8242 37.6621 10.9001C37.3559 11.1419 37.0333 11.364 36.7482 11.6277C33.4455 14.6701 30.1603 17.7321 26.8319 20.7493C26.4754 21.0716 25.8852 21.2983 25.4002 21.3053C22.2273 21.3548 19.0531 21.3317 15.879 21.3283C15.63 21.3271 15.3823 21.3007 14.923 21.2742Z" fill="white"/>
</g>
<defs>
<clipPath id="clip0_344_2661">
<rect width="222" height="41" fill="white" transform="translate(0 0.727539)"/>
</clipPath>
</defs>
</svg>
