<svg width="107" height="71" viewBox="0 0 107 71" fill="none" xmlns="http://www.w3.org/2000/svg">
<path fill-rule="evenodd" clip-rule="evenodd" d="M106.838 0.540527H27.4464L0.161865 70.9153H79.5537L106.838 0.540527Z" fill="white"/>
<path fill-rule="evenodd" clip-rule="evenodd" d="M78.4258 69.2877H2.5509L28.5736 2.16748H104.449L78.4258 69.2877Z" fill="black"/>
<path fill-rule="evenodd" clip-rule="evenodd" d="M39.007 12.9478C34.7041 12.9478 30.8085 14.6767 27.989 17.4727C25.1696 20.2686 23.4251 24.1303 23.4251 28.3971C23.4225 30.4263 23.8243 32.4361 24.6075 34.3108C25.3908 36.1856 26.5399 37.8885 27.989 39.3215L40.7248 51.8509C41.0682 52.1905 41.3406 52.5941 41.5262 53.0384C41.7118 53.4827 41.8071 53.959 41.8064 54.4399C41.8071 54.9209 41.7119 55.3972 41.5262 55.8416C41.3406 56.286 41.0682 56.6897 40.7248 57.0294C40.3822 57.3697 39.9751 57.6396 39.527 57.8235C39.0789 58.0074 38.5985 58.1018 38.1135 58.1012H6.44835L1.93481 69.492H37.5575C39.6043 69.4946 41.6314 69.0961 43.5224 68.3195C45.4133 67.5428 47.1308 66.4033 48.5761 64.9665C51.3962 62.1705 53.1401 58.3082 53.1401 54.0421C53.1401 49.7759 51.3962 45.9136 48.5761 43.1189L35.8404 30.5876C35.1721 29.9251 34.7587 29.0091 34.7587 27.9987C34.7587 26.9883 35.1721 26.0723 35.8404 25.4098C36.1831 25.0695 36.5901 24.7997 37.0382 24.6158C37.4863 24.4318 37.9667 24.3374 38.4516 24.338H69.088L51.5813 69.4914H63.6561L81.1627 24.338H96.5814L101.299 12.9478H39.007Z" fill="white"/>
</svg>
