<svg width="177" height="31" viewBox="0 0 177 31" fill="none" xmlns="http://www.w3.org/2000/svg">
<path d="M21.8174 30.0483C20.4235 29.2629 18.9536 28.5535 17.6105 27.6668C16.1913 26.7294 14.7467 25.7667 13.5049 24.6266C10.996 22.2705 10.6159 19.7117 12.4912 16.8742C15.1015 12.922 18.7509 10.0592 22.8311 7.75373C23.6167 7.2977 24.7318 7.39903 25.6948 7.27236C27.6209 6.99368 29.5469 6.74035 31.5236 6.46167C31.5236 8.15909 31.5743 9.75516 31.5236 11.3512C31.2449 17.5836 30.9154 23.8159 30.6113 30.0736C27.6969 30.0482 24.7571 30.0483 21.8174 30.0483Z" fill="white"/>
<path d="M26.8101 0.685303C23.8957 2.45873 21.0067 4.25752 18.0416 5.98028C17.4333 6.33497 16.673 6.53764 15.9888 6.56297C13.1504 6.63897 10.3374 6.58829 7.49898 6.66429C6.30787 6.68963 5.87704 6.23361 6.13047 5.09355C6.15581 4.99221 6.15581 4.89089 6.15581 4.78955C6.33321 1.4707 6.33321 1.47071 9.7038 1.26803C12.7703 1.06535 15.8114 0.88798 18.8779 0.685303C21.5135 0.685303 24.1745 0.685303 26.8101 0.685303Z" fill="white"/>
<path d="M5.36914 30.0482C5.57188 23.2331 5.74928 16.3928 5.97737 9.57774C6.00271 9.14705 6.50956 8.36168 6.81368 8.36168C9.42398 8.26034 12.0343 8.311 14.898 8.311C14.4925 8.69102 14.1631 8.99504 13.8336 9.29905C11.4514 11.4272 9.19589 13.606 8.08081 16.7475C6.66162 20.7503 7.34587 24.2465 10.311 27.2613C11.274 28.2241 12.2877 29.1361 13.2761 30.0735C10.6658 30.0482 8.00479 30.0482 5.36914 30.0482Z" fill="white"/>
<path d="M176.56 22.701C174.329 23.2584 173.949 22.9544 173.949 20.6743C173.949 15.4047 173.949 10.135 173.949 4.86542C173.949 2.7373 174.507 2.38262 176.56 3.04132C176.56 9.57767 176.56 16.1393 176.56 22.701Z" fill="white"/>
<path d="M0.376905 25.9187C0.452933 25.3867 0.579647 24.8546 0.579647 24.3226C0.706361 19.4837 0.833075 14.6447 0.959788 9.83114C0.985131 9.09643 0.731703 8.20972 2.02418 8.20972C3.26598 8.20972 3.34201 8.94445 3.29132 9.8565C2.98721 16.5955 2.70844 23.3092 2.40432 30.0482C1.72007 30.0482 1.03582 30.0482 0.351562 30.0482C0.376905 28.6548 0.376905 27.2868 0.376905 25.9187Z" fill="white"/>
<path d="M130.435 18.9008C131.297 20.3449 131.069 21.1303 129.65 21.9664C124.302 25.0572 118.296 21.9917 117.637 15.582C117.409 13.4539 117.688 11.1484 118.347 9.12165C119.842 4.46006 125.164 2.55998 129.497 4.86544C130.891 5.60014 131.119 6.25884 130.461 8.03227C129.954 7.77893 129.447 7.55089 128.965 7.29755C124.936 5.04276 121.16 6.89219 120.602 11.4524C120.425 12.8458 120.425 14.2899 120.602 15.658C121.185 20.0916 125.062 21.941 128.965 19.7116C129.447 19.4582 129.928 19.1795 130.435 18.9008Z" fill="white"/>
<path d="M102.23 16.5702C101.165 16.5702 100.076 16.5955 99.0112 16.5702C98.0735 16.5448 97.8454 17.0515 97.9214 17.8876C98.0735 19.4583 99.2392 20.7757 100.887 20.801C102.23 20.8264 103.573 20.4464 104.916 20.2944C105.372 20.2437 105.854 20.3957 106.335 20.4717C106.208 21.0038 106.259 21.8398 105.93 22.0171C103.7 23.2839 101.267 23.4359 98.8338 22.6505C96.6796 21.9411 95.5139 20.2437 95.2351 18.0396C95.0577 16.6968 95.0323 15.2781 95.2604 13.9607C95.97 9.62846 99.6701 7.88037 103.649 9.17243C105.955 9.93248 107.602 13.0993 106.918 15.4048C106.791 15.8861 106.006 16.3928 105.474 16.4942C104.409 16.6715 103.319 16.5702 102.23 16.5702ZM101.216 14.4674C101.748 14.4674 102.28 14.4674 102.838 14.4674C104.282 14.4167 104.561 13.9607 104.004 12.6433C103.522 11.5285 102.686 11.0219 101.495 10.9459C100.152 10.8699 99.0872 11.3259 98.4029 12.4913C97.5666 13.8593 97.8961 14.442 99.4673 14.4674C100.05 14.4927 100.633 14.4674 101.216 14.4674Z" fill="white"/>
<path d="M144.122 15.7848C144.046 20.497 141.461 23.1572 136.975 23.0558C133.351 22.9798 131.248 20.7504 131.096 16.4182C130.918 11.9593 133.174 8.5644 138.217 8.81775C141.055 8.96976 143.057 10.4392 143.716 13.2006C143.944 14.0367 143.995 14.9234 144.122 15.7848ZM141.359 16.1395C141.283 15.3541 141.283 14.7714 141.157 14.2141C140.726 12.0859 139.56 11.0472 137.609 11.0472C135.708 11.0472 134.365 12.1366 134.061 14.2394C133.883 15.4554 133.909 16.7475 134.111 17.9889C134.416 19.8637 135.657 20.8517 137.406 20.9024C139.205 20.9531 140.472 20.0664 141.005 18.2929C141.207 17.5076 141.258 16.7222 141.359 16.1395Z" fill="white"/>
<path d="M81.5252 16.5701C80.4608 16.5701 79.371 16.5954 78.3066 16.5701C77.1662 16.5194 76.9888 17.1274 77.1662 18.0648C77.4957 19.6862 78.6108 20.8263 80.3087 20.8263C81.6012 20.8263 82.8937 20.4463 84.1862 20.3196C84.617 20.2689 85.0985 20.4463 85.5547 20.5476C85.3773 21.105 85.3519 21.8904 84.9718 22.1944C81.1704 24.9812 75.0881 22.4984 74.4292 17.8622C74.0997 15.6074 74.2011 13.3779 75.4936 11.3511C76.9381 9.12169 80.182 8.13364 82.7923 9.17236C85.0732 10.0591 86.6697 12.9472 86.1122 15.4047C86.0108 15.8861 85.2506 16.4434 84.7437 16.5448C83.6793 16.6968 82.5896 16.5701 81.5252 16.5701ZM80.2327 14.4673C80.8156 14.4673 81.3985 14.4926 81.9813 14.4673C83.4512 14.4166 83.8314 13.7326 83.1218 12.4152C82.5642 11.3511 81.6519 10.9711 80.4861 10.9458C79.1936 10.9204 78.2306 11.4272 77.597 12.5419C76.7607 13.9606 77.0395 14.4673 78.6361 14.4927C79.1683 14.4927 79.7005 14.4926 80.2327 14.4673Z" fill="white"/>
<path d="M168.78 21.9664C167.411 23.0558 165.612 23.3851 163.661 22.7771C162.089 22.2957 161.228 21.181 161.025 19.5849C160.822 17.9382 161.329 16.4434 162.875 15.7594C164.218 15.1767 165.764 15.0247 167.209 14.67C167.893 14.4926 169.033 15.1767 169.109 13.7833C169.211 12.3645 168.425 11.0471 167.234 11.0724C165.916 11.0978 164.598 11.5285 163.28 11.7311C162.774 11.8071 162.267 11.7058 161.76 11.7058C161.937 11.0978 161.937 10.2871 162.343 9.9324C163.889 8.53899 168.146 8.38696 169.87 9.55235C171.162 10.4137 171.618 11.7312 171.644 13.2259C171.669 15.8607 171.694 18.4955 171.618 21.1303C171.593 21.7384 171.238 22.5744 170.782 22.8277C170.427 23.0051 169.667 22.3717 168.78 21.9664ZM169.135 17.5075C169.033 17.3808 168.704 16.6714 168.374 16.6714C167.234 16.6714 166.017 16.7221 164.953 17.1021C164.396 17.3048 163.838 18.2422 163.787 18.8755C163.737 19.4329 164.243 20.3196 164.75 20.6236C166.55 21.713 169.16 20.041 169.135 17.5075Z" fill="white"/>
<path d="M60.1359 22.2197C58.7928 22.473 57.3482 22.9797 55.9037 23.0051C53.8763 23.0304 52.4824 21.6623 52.1276 19.7622C51.7982 17.9888 52.6598 16.19 54.4592 15.4807C55.6503 15.0246 57.0188 14.974 58.3112 14.7206C59.0208 14.5686 60.1106 15.202 60.212 13.7833C60.288 12.4912 59.5277 11.1484 58.438 11.1231C57.1708 11.0978 55.8783 11.5031 54.5859 11.6551C54.003 11.7311 53.4201 11.6805 52.8119 11.7058C53.116 11.0724 53.2174 10.135 53.7242 9.83101C55.5489 8.69095 57.6017 8.56428 59.6798 9.04564C61.6058 9.47633 62.6449 10.8191 62.6955 12.8712C62.7462 15.7087 62.7716 18.5462 62.6955 21.3837C62.6955 21.9157 62.2901 22.777 61.9606 22.853C61.4284 22.9037 60.7948 22.473 60.1359 22.2197ZM58.59 16.4434C57.627 16.6967 56.5879 16.7221 55.9037 17.2288C55.3208 17.6595 54.89 18.6222 54.89 19.3822C54.8646 20.3703 55.7263 20.8263 56.7147 20.9023C58.0578 21.029 59.1982 20.497 59.8318 19.4076C60.212 18.7742 60.1866 17.8115 60.0599 17.0514C60.0092 16.7727 59.1222 16.646 58.59 16.4434Z" fill="white"/>
<path d="M46.4238 14.67C46.4238 12.4659 46.3731 10.2618 46.4491 8.05767C46.4745 6.89228 46.0183 6.48695 44.9032 6.53762C43.9656 6.58829 43.0532 6.53762 42.1155 6.53762C41.2792 6.53762 40.7217 6.08159 40.9498 5.27088C41.0765 4.81486 41.7101 4.20683 42.1409 4.20683C45.917 4.13083 49.6677 4.15615 53.4437 4.15615C54.2547 4.15615 54.7362 4.48549 54.7362 5.3722C54.7362 6.25892 54.1787 6.56294 53.3931 6.56294C52.4554 6.56294 51.543 6.61361 50.6054 6.56294C49.5156 6.51227 49.1608 6.9683 49.1608 8.03235C49.1862 12.4406 49.1608 16.8235 49.1862 21.2317C49.1862 21.9917 49.1862 22.7518 48.1978 22.9038C47.1841 23.0558 46.4491 22.8025 46.4491 21.5611C46.4491 19.2556 46.4492 16.9502 46.4238 14.67Z" fill="white"/>
<path d="M115.914 11.6553C114.799 11.4019 113.836 11.0726 112.823 10.9713C111.91 10.8699 110.871 10.8699 110.567 12.086C110.263 13.2767 110.947 13.9101 111.936 14.3408C112.645 14.6701 113.38 14.9234 114.09 15.2528C116.193 16.1902 116.928 17.3809 116.725 19.4584C116.548 21.1811 115.408 22.6252 113.406 22.8532C111.86 23.0305 110.238 22.7012 108.692 22.3972C108.236 22.2959 107.754 21.5612 107.602 21.0291C107.349 20.0664 107.906 19.7877 108.869 20.0664C110.01 20.3958 111.201 20.8011 112.366 20.7758C112.975 20.7758 113.963 19.9651 114.064 19.4077C114.166 18.825 113.558 17.9129 113 17.4823C112.214 16.8742 111.15 16.6462 110.238 16.1648C108.413 15.2275 107.577 13.682 107.932 12.01C108.312 10.2365 109.731 8.96979 111.682 8.84312C112.721 8.79245 113.836 8.8938 114.85 9.17248C116.067 9.50183 116.421 10.3885 115.914 11.6553Z" fill="white"/>
<path d="M156.337 10.0084C157.426 9.65376 158.617 9.09639 159.885 8.89372C160.949 8.71637 161.431 9.50176 161.354 10.5658C161.278 11.7819 160.493 11.4272 159.758 11.3512C158.111 11.1738 156.387 12.8713 156.337 14.7714C156.286 16.9248 156.311 19.0783 156.311 21.2317C156.311 22.1437 156.185 22.9038 155.019 22.9292C153.802 22.9545 153.6 22.2198 153.6 21.2064C153.625 17.6849 153.6 14.1633 153.6 10.6671C153.6 9.85643 153.625 8.91906 154.715 9.0204C155.323 9.07107 155.83 9.6791 156.337 10.0084Z" fill="white"/>
<path d="M90.3429 10.6926C91.4579 9.40058 92.573 8.61517 94.1696 8.84318C95.2087 8.99519 95.6142 9.57791 95.5128 10.566C95.4621 11.2753 95.1833 11.554 94.3724 11.4527C92.2182 11.174 90.571 12.5927 90.5203 14.7715C90.4696 16.925 90.4949 19.0784 90.4949 21.2318C90.4949 22.2199 90.2922 23.0053 89.0757 22.9546C87.91 22.9293 87.8086 22.1439 87.8086 21.2318C87.8339 17.761 87.8086 14.2901 87.8339 10.8193C87.8339 10.0846 87.6058 9.14721 88.7463 8.96987C89.8867 8.76719 90.3175 9.45125 90.3429 10.6926Z" fill="white"/>
<path d="M147.847 10.2871C148.582 9.45105 149.646 8.61499 151.268 8.843C152.358 8.99501 152.586 9.62838 152.561 10.5911C152.51 11.7058 151.851 11.4525 151.116 11.3765C149.342 11.1738 147.593 12.8459 147.568 14.822C147.517 16.9754 147.543 19.1036 147.568 21.257C147.568 22.1944 147.441 22.9291 146.276 22.9544C145.034 22.9798 144.856 22.1691 144.856 21.2063C144.856 17.7355 144.856 14.29 144.856 10.8191C144.856 9.98306 144.78 8.94436 145.972 9.02036C146.58 9.07103 147.112 9.75507 147.847 10.2871Z" fill="white"/>
<path d="M67.6867 12.8967C67.6867 15.7342 67.6613 18.5717 67.6867 21.3839C67.6867 22.2706 67.5093 22.9293 66.4449 22.9546C65.3805 22.9546 65.1777 22.3212 65.1777 21.4092C65.2031 15.7089 65.1777 9.98324 65.1777 4.28294C65.1777 3.39622 65.3298 2.71216 66.4195 2.71216C67.4839 2.71216 67.6867 3.34553 67.6867 4.25758C67.6867 7.14573 67.6867 10.0339 67.6867 12.8967Z" fill="white"/>
<path d="M72.6789 12.8459C72.6789 15.6834 72.6789 18.5209 72.6789 21.3583C72.6789 22.2451 72.5015 22.9291 71.4371 22.9291C70.3727 22.9291 70.1699 22.2957 70.1699 21.3837C70.1953 15.6581 70.1953 9.93241 70.1699 4.2321C70.1699 3.29472 70.4234 2.71203 71.4877 2.73737C72.4761 2.7627 72.6789 3.37074 72.6789 4.20678C72.6789 7.09494 72.6789 9.98306 72.6789 12.8459Z" fill="white"/>
<path d="M3.31612 4.23212C3.31612 4.71348 3.44283 5.27083 3.26543 5.67618C3.08803 6.0562 2.60652 6.53759 2.25172 6.53759C1.89692 6.53759 1.31404 6.03087 1.23801 5.67618C1.08595 4.8148 1.08595 3.90276 1.26335 3.06671C1.36472 2.61069 1.87158 2.00265 2.30241 1.87598C3.13872 1.64797 3.34146 2.35734 3.31612 3.06671C3.34146 3.44673 3.34146 3.82677 3.31612 4.23212C3.34146 4.23212 3.34146 4.23212 3.31612 4.23212Z" fill="white"/>
<path d="M31.5735 3.11743C31.9283 4.78952 30.1543 5.62556 27.0625 5.24554C28.7351 4.46016 30.129 3.80147 31.5735 3.11743Z" fill="white"/>
</svg>
