<svg width="54" height="70" viewBox="0 0 54 70" fill="none" xmlns="http://www.w3.org/2000/svg">
<path d="M51.2678 28.5205H46.2246V48.3322C49.2657 42.5306 51.3946 36.0956 51.3946 30.1672C51.3946 28.7992 51.0904 27.3298 50.5582 25.8604C50.8877 26.7471 51.1157 27.6591 51.2678 28.5205Z" fill="white"/>
<path d="M3.42175 31.89C3.80189 37.4636 5.88001 43.3919 8.74374 48.7629V28.5205H3.47249C3.5992 27.6338 3.8526 26.7471 4.15671 25.8604C3.75123 26.9497 3.49781 28.0391 3.37109 29.1285L3.42175 31.89ZM27.3707 33.2074C28.3844 33.2074 29.3474 33.4101 30.2598 33.7648V28.4951H24.9378V33.5621C25.7234 33.3594 26.5597 33.2327 27.3707 33.2074ZM27.3707 48.7629C26.5344 48.7629 25.7234 48.6362 24.9378 48.3575V66.9279C25.8248 67.3332 26.6357 67.5359 27.3707 67.5359C28.207 67.5359 29.1954 67.2319 30.2598 66.7252V48.2055C29.3728 48.5602 28.4097 48.7629 27.3707 48.7629Z" fill="white"/>
<path d="M22.8086 65.7373C22.8593 65.7626 22.91 65.8133 22.9606 65.8387C22.9353 65.788 22.8846 65.7626 22.8086 65.7373Z" fill="white"/>
<path d="M8.74219 48.7629C9.32507 49.8523 9.9333 50.8911 10.5669 51.9298C9.9333 50.8911 9.32507 49.827 8.74219 48.7629Z" fill="white"/>
<path d="M22.3516 65.408C22.4529 65.484 22.529 65.5346 22.6304 65.5853C22.529 65.5346 22.4276 65.4586 22.3516 65.408Z" fill="white"/>
<path d="M41.5878 15.7517C41.2584 15.7517 40.8021 15.8531 40.8021 15.8531C40.8021 15.8531 39.3829 14.6877 37.4062 14.6877C33.6808 14.6877 31.7295 18.2852 31.7295 19.5773C31.7295 20.236 31.9575 20.1093 31.9575 20.5147C31.9575 20.7173 31.6535 21.0213 31.4507 21.0213C31.172 21.0213 30.3102 20.1853 30.1075 19.7799C28.8657 19.7799 27.6999 21.148 27.3451 22.2374C27.0157 21.1733 25.85 19.7799 24.6082 19.7799C24.4308 20.16 23.5691 20.996 23.265 20.996C23.0623 20.996 22.7581 20.692 22.7581 20.4893C22.7581 20.1093 22.9862 20.236 22.9862 19.5519C22.9862 18.2599 21.0348 14.6624 17.3094 14.6624C15.3327 14.6624 13.9389 15.8277 13.9389 15.8277C13.9389 15.8277 13.4827 15.7264 13.1533 15.7264C10.4669 15.7264 6.23464 20.4133 4.30859 25.3789C4.58736 24.6189 4.94215 23.8842 5.32229 23.1748H49.368C47.2645 19.1466 43.8433 15.7517 41.5878 15.7517Z" fill="white"/>
<path d="M46.2505 28.5205V48.3322C49.2916 42.5052 51.4204 36.0956 51.4204 30.1672C51.4204 29.0018 51.1923 27.7604 50.8122 26.519C51.0149 27.1777 51.1669 27.8364 51.2683 28.4951H35.6065V62.7223C33.7058 64.4958 31.9065 65.8638 30.2845 66.6745V48.1549C32.2106 47.3695 33.7312 45.8241 34.5168 43.8986C36.1387 39.9211 34.238 35.3862 30.2845 33.7648V28.4951H24.9625V33.5621C21.7947 34.6261 19.6406 37.5903 19.6406 40.9345V40.9598C19.6406 44.304 21.7947 47.2682 24.9625 48.3322V66.8772C25.8495 67.2573 26.6606 67.4852 27.3955 67.4852V67.5106C30.7407 67.5106 36.1134 63.1023 40.9539 56.718C40.9539 56.718 40.9539 56.718 40.9539 56.6927V28.4951H46.2505V28.5205ZM21.592 36.6276C22.8845 34.9048 24.9625 33.7648 27.2687 33.7394C25.8749 34.5755 24.9372 36.2729 24.9372 37.0836C24.9372 37.1596 24.9372 37.2356 24.9625 37.3116C24.6838 37.4636 24.1263 37.7423 23.6701 37.7423C22.6311 37.7423 21.8201 36.957 21.592 36.6276ZM20.1474 40.9852C20.1474 39.4144 20.6289 37.9703 21.4906 36.7796C21.4653 36.8303 21.4399 36.8809 21.4146 36.9316C21.7947 37.3876 22.6563 38.097 23.6954 38.097C24.2023 38.097 24.7599 37.8183 25.1147 37.641C25.4188 38.097 26.0777 38.097 26.4325 38.097C27.2181 38.097 27.725 37.9703 28.0291 37.717C28.3585 37.9703 29.2455 38.781 29.2455 40.0984C29.2455 40.9345 29.2202 41.5172 28.9921 41.6439C28.7387 41.7959 26.9647 42.0239 25.7989 42.0239C22.7578 42.0239 20.4262 40.8838 20.1728 40.7065C20.1728 40.7825 20.1728 40.8585 20.1728 40.9345C20.1728 40.9852 20.1728 41.0358 20.1728 41.0865C20.9077 41.4918 23.1379 42.3532 25.8243 42.3532C26.838 42.3532 28.6372 42.1505 29.0934 41.9479C29.2201 42.2519 29.4735 42.9612 29.4735 43.5693C29.4735 44.4053 29.1441 45.5201 27.5728 46.0014C27.1927 45.7988 26.2804 45.3934 25.5961 45.3934C25.0893 45.3934 24.5571 45.5961 24.2529 45.8241C23.9235 45.5201 22.9351 44.76 22.2002 44.76C21.9214 44.76 21.592 44.836 21.3893 44.8867C21.4653 44.988 21.516 45.0894 21.592 45.1907C21.7947 45.14 22.0228 45.0894 22.2256 45.0894C22.8338 45.0894 23.7208 45.7987 24.0756 46.0774C24.0503 46.1028 24.0502 46.1534 24.0502 46.1788C24.0502 46.4321 24.329 47.0655 24.7345 47.5975C24.9372 47.6735 25.1399 47.7495 25.368 47.8255L25.3934 47.7749C24.8612 47.3695 24.4303 46.4321 24.405 46.1788C24.5064 46.0521 25.064 45.7227 25.6468 45.7227C26.2297 45.7227 27.1167 46.0521 27.4462 46.2548C27.4715 46.6601 28.1811 47.4962 28.9414 47.9522C29.1188 47.9269 29.2708 47.9015 29.4229 47.8509C32.8695 46.1028 32.8442 42.8093 32.8442 41.5425V41.5679V41.4159C32.8442 38.4264 31.8304 36.5769 30.6647 35.9689C30.7153 35.8929 30.7914 35.8169 30.8674 35.7409C31.1462 35.5382 31.577 35.3355 32.0078 35.3355C31.8811 35.2342 31.7545 35.1328 31.6024 35.0315C31.1969 35.1075 30.8675 35.2848 30.6394 35.4622C30.538 35.5635 30.386 35.6902 30.3353 35.8169C30.1579 35.7662 29.9551 35.7409 29.7777 35.7409C28.84 35.7409 28.2571 36.7289 27.9783 37.2103C27.9276 37.2863 27.9024 37.337 27.877 37.3623C27.6996 37.5903 27.2181 37.717 26.4578 37.717C25.6215 37.717 25.3427 37.5397 25.3427 37.033C25.3427 36.1969 26.4831 34.2715 28.0797 33.6888C31.7798 34.0181 34.6689 37.109 34.6689 40.9092C34.6689 44.9121 31.4503 48.1549 27.4462 48.1802C23.3913 48.2309 20.1474 45.0134 20.1474 40.9852ZM28.1811 37.4636L28.2064 37.413C28.4345 36.9823 28.9414 36.1209 29.7017 36.1209C31.0449 36.1209 32.4387 37.9957 32.4387 41.4412V41.5932C32.4387 42.8346 32.464 46.1281 28.9414 47.7242C28.2825 47.2935 27.7503 46.6348 27.6996 46.4068C29.3976 45.8494 29.7524 44.5827 29.7524 43.6453C29.7524 43.0119 29.5243 42.1505 29.2962 41.7959C29.4989 41.4918 29.4989 40.9345 29.4989 40.1744C29.5243 38.6797 28.5613 37.7423 28.1811 37.4636Z" fill="white"/>
<path d="M46.2244 48.3577C44.6785 51.2965 42.9045 54.0833 40.9277 56.7181C42.8284 54.1847 44.6531 51.3472 46.2244 48.3577Z" fill="white"/>
<path d="M29.3985 47.9016C29.3731 47.9016 29.3731 47.9016 29.3985 47.9016C29.3731 47.9016 29.3477 47.927 29.3477 47.927L29.3985 47.9016Z" fill="white"/>
<path d="M8.74374 48.7629V28.5205H3.49778C3.42175 29.0779 3.37109 29.6352 3.37109 30.1672C3.37109 36.2476 5.5759 42.8346 8.74374 48.7629Z" fill="white"/>
<path d="M22.3514 65.4078C21.439 64.7491 20.5014 63.9891 19.513 63.077V28.5205H14.0643V57.022C13.3294 56.0593 12.6198 55.0712 11.9355 54.0578C15.2554 58.9981 19.0315 63.077 22.3514 65.4078Z" fill="white"/>
<path d="M45.0845 9.87427C49.0886 14.4345 52.7633 21.0215 52.7633 29.1033C52.7633 48.6617 34.5673 68.7267 27.3699 68.7267C20.1726 68.7267 1.97654 48.6617 1.97654 29.1033C1.97654 25.5818 2.68614 22.3389 3.80122 19.4001C2.6608 22.3136 1.95117 25.5818 1.95117 29.1033C1.95117 48.6617 20.1472 68.7267 27.3446 68.7267C34.5673 68.7267 52.7633 48.6617 52.7633 29.1033C52.7887 21.0215 49.0886 14.4345 45.0845 9.87427Z" fill="white"/>
<path d="M30.2587 1.76696C30.2587 2.60301 29.6504 3.51506 29.6504 3.94575C29.6504 3.94575 29.6504 3.94577 29.6758 3.97111C29.6758 3.54042 30.2587 2.62834 30.2587 1.76696C30.284 1.69096 30.2587 1.58962 30.1826 1.48828C30.2333 1.58962 30.2587 1.69096 30.2587 1.76696Z" fill="white"/>
<path d="M45.0092 9.77297C44.9078 9.67163 44.8064 9.54494 44.7051 9.4436C44.8318 9.57028 44.9078 9.67163 45.0092 9.77297Z" fill="white"/>
<path d="M50.5076 25.683C50.4823 25.5816 50.4316 25.4803 50.4062 25.4043C50.4316 25.5056 50.4823 25.607 50.5076 25.683Z" fill="white"/>
<path d="M36.0879 3.99659C36.0879 4.24993 40.6496 8.27814 41.2831 14.0038C41.6126 9.54488 36.6455 3.94593 36.1893 3.89526C36.1133 3.89526 36.0879 3.92058 36.0879 3.99659Z" fill="white"/>
<path d="M4.28327 25.5818C4.28327 25.6072 4.25781 25.6327 4.25781 25.6581C4.28325 25.6072 4.28327 25.5818 4.28327 25.5818Z" fill="white"/>
<path d="M45.9209 9.16486C41.9927 4.68062 37.4057 1.66578 35.581 1.66578C34.846 1.66578 34.3138 2.19782 33.8323 2.70451C33.2748 3.31254 32.6666 3.89524 31.7543 3.89524C31.4502 3.89524 31.146 3.79389 30.9179 3.64188C31.1207 3.13519 31.3741 2.50183 31.3741 1.79246C31.3741 0.956415 30.7912 0.120361 29.4987 0.120361C28.8145 0.120361 28.2823 0.424392 27.9275 0.728408C27.5727 0.677738 27.2179 0.677738 26.8631 0.728408C26.5336 0.424392 26.0015 0.120361 25.3172 0.120361C24.0247 0.120361 23.4419 0.956415 23.4419 1.79246C23.4419 2.50183 23.6953 3.16052 23.898 3.64188C23.6699 3.79389 23.3911 3.92057 23.0617 3.92057C22.1493 3.92057 21.5412 3.31253 20.9836 2.72983C20.4768 2.22314 19.9952 1.6911 19.235 1.6911C17.4103 1.6911 12.8232 4.70595 8.89508 9.19019C5.27107 13.3451 0.9375 20.1854 0.9375 29.1286C0.9375 48.9656 19.3109 69.8414 27.4206 69.8414C35.5303 69.8414 53.9292 48.9657 53.9292 29.1033C53.8785 20.1348 49.5449 13.3198 45.9209 9.16486ZM27.37 69.3094V69.2841C23.4925 69.2841 16.9794 64.0651 11.5307 56.5914C5.11903 47.8002 1.44431 37.7677 1.44431 29.1033C1.44431 13.0157 16.1431 2.22315 19.1842 2.22315C19.7164 2.22315 20.0966 2.62848 20.5528 3.10984C21.1863 3.76854 21.896 4.47793 23.0364 4.47793C23.7206 4.47793 24.2275 4.12326 24.5316 3.81924C24.4809 3.69257 24.4302 3.56587 24.3795 3.4392C24.2021 2.98318 23.974 2.40049 23.974 1.79246C23.974 1.2351 24.3035 0.677728 25.2918 0.677728C25.9508 0.677728 26.407 1.03241 26.6857 1.31109C26.8378 1.26043 27.0912 1.23509 27.37 1.23509C27.6487 1.23509 27.9021 1.28576 28.0542 1.31109C28.3076 1.03241 28.7638 0.677728 29.4481 0.677728C30.4111 0.677728 30.7659 1.28577 30.7659 1.79246C30.7659 2.40049 30.5378 2.95784 30.3604 3.4392C30.3097 3.56587 30.259 3.69257 30.2337 3.81924C30.5378 4.12326 31.0193 4.47793 31.7289 4.47793C32.8693 4.47793 33.579 3.76854 34.2125 3.10984C34.6434 2.65381 35.0488 2.24847 35.581 2.24847C38.6221 2.24847 53.3209 13.0664 53.3209 29.1286C53.3209 37.793 49.6462 47.8256 43.2092 56.6167C37.7605 64.0905 31.2474 69.3094 27.37 69.3094Z" fill="white"/>
<path d="M28.334 1.84332C28.334 1.81789 28.3594 1.81792 28.3594 1.79248C28.3594 1.81792 28.334 1.84332 28.334 1.84332Z" fill="white"/>
<path d="M50.7867 26.4937C50.736 26.3164 50.6601 26.139 50.6094 25.9617C50.6601 26.1137 50.7107 26.291 50.7867 26.4937Z" fill="white"/>
<path d="M24.7598 2.90723C24.8611 3.16057 24.9372 3.38856 25.0132 3.59124C24.9372 3.38856 24.8358 3.16057 24.7598 2.90723Z" fill="white"/>
<path d="M13.7108 14.0038C14.3444 8.27814 18.9314 4.24993 18.9314 3.99659C18.9314 3.92058 18.8554 3.89526 18.83 3.89526C18.3992 3.89526 13.3814 9.51954 13.7108 14.0038Z" fill="white"/>
<path d="M6.18359 24.0869L7.57741 27.8617H8.46442L9.88361 24.0869H8.94594C8.94594 24.0869 8.10962 26.8484 8.05893 26.8484C8.03359 26.8484 7.22258 24.0869 7.22258 24.0869H6.18359ZM11.1254 26.3923L11.6069 25.1256L12.0631 26.3923H11.1254ZM12.5953 27.9124H13.5583L12.0631 24.1122H11.1254L9.63017 27.8871H10.5425L10.8719 27.051H12.2911L12.5953 27.9124ZM33.7058 26.4177L34.2127 25.1256L34.6688 26.3923L33.7058 26.4177ZM35.201 27.9124H36.164L34.6434 24.1122H33.7311L32.2106 27.8871H33.1482L33.4777 27.051H34.8969L35.201 27.9124ZM14.0651 24.0869V27.8617H17.0556V27.0764H15.0028V24.0869H14.0651ZM17.8159 24.0869V27.8617H20.8063V27.1017H18.6775V26.2403H20.5022V25.5816H18.6775V24.8469H20.781V24.0869H17.8159ZM44.7552 24.0869V27.8617H45.6422V26.215H47.4416V25.5563H45.6169V24.8216H47.6949V24.0615H44.7552V24.0869ZM21.8454 24.0869V27.8617H22.631V25.4043L24.2529 27.8871H25.1906V24.0869H24.3036V26.671L22.7577 24.0615L21.8454 24.0869ZM28.7893 25.4549H29.7777C29.7777 24.6696 28.8653 24.0869 27.9783 24.0869C26.7365 24.0869 26.0776 25.2016 26.0776 26.0883C26.0776 27.1777 26.7618 27.8871 27.9023 27.8871C29.2454 27.8871 29.7777 27.1524 29.7777 26.4937H28.7893C28.7893 26.7217 28.6626 27.279 28.0037 27.279C27.3447 27.279 26.99 26.671 26.99 26.0883C26.99 25.4803 27.3448 24.7709 28.029 24.7709C28.5866 24.7962 28.7893 25.1003 28.7893 25.4549ZM40.9791 25.4549H41.9675C41.9675 24.6696 41.0551 24.0869 40.1681 24.0869C38.9263 24.0869 38.2674 25.2016 38.2674 26.0883C38.2674 27.1777 38.9517 27.8871 40.0921 27.8871C41.4353 27.8871 41.9928 27.1524 41.9928 26.4937H40.9791C40.9791 26.7217 40.8524 27.279 40.1935 27.279C39.5346 27.279 39.1798 26.671 39.1798 26.0883C39.1798 25.5056 39.5346 24.7709 40.2189 24.7709C40.8018 24.7962 40.9791 25.1003 40.9791 25.4549ZM30.6646 27.9124H31.577V24.1122H30.6646V27.9124ZM42.8038 27.9124H43.7668V27.0257H42.8038V27.9124ZM47.6696 27.9124H48.6073V27.0257H47.6443L47.6696 27.9124Z" fill="white"/>
</svg>
