<svg width="183" height="29" viewBox="0 0 183 29" fill="none" xmlns="http://www.w3.org/2000/svg">
<path d="M8.79393 14.8138C10.2892 10.2789 11.607 6.25064 12.9755 2.04508C14.0145 2.04508 15.1043 1.96907 16.194 2.09574C16.5742 2.14641 17.081 2.67844 17.2331 3.08379C18.3481 6.52931 19.3872 10.0002 20.4263 13.4457C20.5276 13.7497 20.6543 14.0537 20.9584 14.8644C22.3523 10.3295 23.5687 6.27597 24.8105 2.12108C26.4578 2.12108 28.1051 2.12108 29.9551 2.12108C29.1695 4.67988 28.4346 7.16269 27.6489 9.64549C26.5338 13.1417 25.3427 16.6125 24.253 20.134C23.9235 21.1981 23.4167 21.6035 22.2509 21.5781C18.6523 21.5275 18.6269 21.5781 17.5625 18.1833C16.7769 15.7511 16.042 13.2937 15.2817 10.8362C15.2563 10.7349 15.155 10.6589 14.9269 10.3295C14.2933 12.1283 13.6851 13.775 13.1275 15.4218C12.57 17.0432 11.9871 18.69 11.4803 20.3367C11.2268 21.1728 10.8467 21.5781 9.83298 21.5781C5.98089 21.6035 5.9302 21.6795 4.81512 17.9806C3.19319 12.7617 1.64728 7.54271 0 2.04508C1.62194 2.04508 3.09181 1.96907 4.56169 2.09574C4.91649 2.12107 5.37266 2.75444 5.47403 3.18513C6.41171 6.40264 7.24802 9.62014 8.13502 12.8376C8.28708 13.3697 8.48982 13.8764 8.79393 14.8138Z" fill="white"/>
<path d="M75.0903 21.5528C74.1272 21.5528 73.4683 21.4768 72.8094 21.5528C70.706 21.8062 69.1094 21.4261 68.7292 18.9433C68.6786 18.614 67.969 18.234 67.5381 18.1833C66.4991 18.082 65.4093 18.2086 64.3449 18.1326C62.3175 17.9553 60.5435 18.082 60.2394 20.6915C60.1887 21.0208 59.5805 21.4768 59.2004 21.5022C57.7558 21.6035 56.3113 21.5528 54.6387 21.5528C55.6017 18.9687 56.4887 16.5619 57.401 14.2058C58.7949 10.6336 60.2648 7.08672 61.5826 3.48919C62.0134 2.3238 62.5963 2.01978 63.7621 2.01978C67.7662 2.07044 67.7409 2.01978 69.1601 5.81998C71.0354 10.9629 73.0122 16.1059 75.0903 21.5528ZM65.0799 8.32811C64.9532 8.30277 64.8265 8.2521 64.7251 8.22677C64.0408 10.2282 63.3566 12.2297 62.647 14.2818C64.2182 14.2818 65.5614 14.2818 67.0313 14.2818C66.8539 13.6484 66.7525 13.167 66.6004 12.711C66.0936 11.2669 65.5867 9.79752 65.0799 8.32811Z" fill="white"/>
<path d="M41.1312 16.3084C42.7532 16.8911 44.1217 17.5498 45.5662 17.8538C46.8587 18.1325 48.1258 17.7018 48.4299 16.2071C48.734 14.7883 47.5429 14.307 46.4785 13.9016C45.6422 13.5976 44.7806 13.3696 43.9189 13.0909C41.2833 12.2549 40.2442 11.0894 40.0668 8.86C39.8387 6.09851 40.599 3.74239 43.184 2.34898C46.4532 0.600887 49.5704 1.63961 52.8649 3.00769C52.1807 4.29976 51.5724 5.49049 51.0909 6.45321C49.5704 6.17453 48.2779 5.79451 47.0107 5.81984C46.4279 5.81984 45.4902 6.52921 45.3635 7.08657C45.2367 7.5426 45.921 8.50531 46.4532 8.78399C47.7203 9.4427 49.1649 9.79738 50.508 10.3294C52.8396 11.2668 53.7773 13.0149 53.6759 15.4724C53.5745 18.0312 52.6875 20.0833 50.3053 21.1727C46.4532 22.9461 42.8292 22.186 39.2559 19.9059C39.9148 18.6139 40.5483 17.3978 41.1312 16.3084Z" fill="white"/>
<path d="M31.6777 2.12109C33.2236 2.12109 34.7189 2.12109 36.3408 2.12109C36.3408 8.50544 36.3408 14.8898 36.3408 21.4008C34.8709 21.4008 33.3504 21.4008 31.6777 21.4008C31.6777 15.0418 31.6777 8.63211 31.6777 2.12109Z" fill="white"/>
<path d="M181.632 11.5708C181.632 7.61862 181.632 3.97043 181.632 0.322238C181.834 0.271568 182.037 0.220891 182.24 0.195557C182.392 0.75292 182.645 1.31029 182.645 1.86766C182.671 5.49052 182.671 9.11338 182.671 12.7362C182.671 15.1937 182.696 17.6512 182.645 20.1086C182.645 20.6153 182.392 21.0967 182.265 21.6034C182.113 21.578 181.936 21.5527 181.784 21.5274C181.682 21.0207 181.606 20.514 181.48 19.7539C179.528 21.4514 177.374 22.4901 174.916 21.502C173.801 21.046 172.686 20.21 171.951 19.2473C170.202 16.9165 170.633 12.8376 172.66 10.9121C174.865 8.78403 178.134 8.96136 181.632 11.5708ZM181.657 15.4471C181.632 12.4576 179.503 10.3041 176.614 10.3801C173.953 10.4308 171.9 12.7362 171.925 15.6751C171.925 18.6899 174.029 20.9193 176.816 20.9447C179.655 20.9193 181.708 18.6139 181.657 15.4471Z" fill="white"/>
<path d="M122.278 9.5696C124.153 12.5338 125.066 16.0046 126.916 19.5261C128.36 16.0299 129.704 12.8378 131.199 9.24023C132.669 12.7618 133.986 15.9539 135.507 19.5515C136.293 17.8287 136.926 16.4606 137.534 15.0672C138.193 13.5471 138.827 11.9764 139.537 10.4816C139.689 10.127 140.069 9.89894 140.347 9.62026C140.474 9.7216 140.626 9.82294 140.753 9.89894C139.055 13.8512 137.332 17.8034 135.482 22.0849C134.012 18.5634 132.669 15.3459 131.148 11.7484C129.678 15.3206 128.36 18.4874 126.89 22.1103C125.04 17.8287 123.342 13.9018 121.645 9.97494C121.847 9.82293 122.075 9.69627 122.278 9.5696Z" fill="white"/>
<path d="M79.5004 0.980924C82.9977 1.03159 85.608 3.69173 85.5573 7.18792C85.5066 10.6334 82.7949 13.2176 79.2723 13.1669C75.851 13.1162 73.0887 10.3294 73.1394 6.95989C73.19 3.64105 76.0538 0.930254 79.5004 0.980924ZM79.3737 11.8495C82.1867 11.8748 84.2902 9.82272 84.2902 7.06123C84.2902 4.40109 82.2121 2.29832 79.5257 2.22232C76.6367 2.14631 74.4825 4.19842 74.4572 7.08657C74.4572 9.84806 76.4846 11.8242 79.3737 11.8495Z" fill="white"/>
<path d="M93.5898 1.94385C95.6426 2.04519 97.4419 1.96919 99.1906 2.24787C101.725 2.65323 103.093 4.62933 103.017 7.31481C102.941 9.87361 101.421 11.6724 98.9372 12.0524C98.5063 12.1284 98.0502 12.1284 97.594 12.1284C94.6542 12.2044 94.6542 12.2044 94.6542 15.2192C94.6542 17.2713 94.6542 19.3234 94.6542 21.3756C94.5022 21.4262 94.3501 21.4769 94.1981 21.5529C93.9953 21.2489 93.6152 20.9449 93.6152 20.6155C93.5898 14.5352 93.5898 8.40419 93.5898 1.94385ZM94.6796 3.10924C94.6796 4.756 94.6796 6.30142 94.6796 7.84684C94.6796 11.4697 95.0597 11.7737 98.6837 11.0643C98.7344 11.0643 98.7851 11.039 98.8611 11.039C100.736 10.6083 102.004 8.96156 101.978 7.01079C101.953 4.90801 100.635 3.33726 98.5824 3.13458C97.3659 3.00791 96.1241 3.10924 94.6796 3.10924Z" fill="white"/>
<path d="M168.986 15.7258C168.935 19.2727 166.198 21.9328 162.625 21.8568C159.229 21.7808 156.467 18.994 156.467 15.6245C156.492 12.103 159.28 9.39217 162.802 9.44284C166.401 9.46817 169.011 12.103 168.986 15.7258ZM167.947 15.5992C167.947 12.6097 165.717 10.3549 162.802 10.3549C159.736 10.3549 157.531 12.559 157.531 15.6498C157.531 18.5633 159.863 20.9448 162.701 20.9194C165.717 20.8688 167.947 18.6393 167.947 15.5992Z" fill="white"/>
<path d="M154.566 15.6751C154.541 19.2219 151.855 21.8568 148.281 21.8568C144.86 21.8568 141.971 18.9686 141.996 15.5737C142.022 12.1789 144.885 9.39207 148.357 9.41741C151.905 9.41741 154.592 12.1282 154.566 15.6751ZM153.527 15.7764C153.553 12.6856 151.221 10.3041 148.205 10.3041C145.342 10.3295 143.061 12.6602 143.035 15.5737C143.035 18.5379 145.215 20.8687 148.079 20.9447C151.12 21.0207 153.502 18.7406 153.527 15.7764Z" fill="white"/>
<path d="M115.334 20.5647C117.286 16.8151 118.35 12.9642 120.352 9.59473C120.58 9.69607 120.783 9.79741 121.011 9.87341C120.124 11.9762 119.262 14.079 118.375 16.1818C117.438 18.3859 116.551 20.6153 115.537 22.7941C114.599 24.7449 114.244 27.0503 112.699 28.6717C112.521 28.5704 112.344 28.4944 112.141 28.3931C112.8 26.8223 113.383 25.2262 114.168 23.7061C114.827 22.4394 114.701 21.3247 114.092 20.1086C112.547 17.0178 111.102 13.8763 109.607 10.7601C109.48 10.4814 109.379 10.1774 109.252 9.82275C110.443 10.0761 110.418 10.0761 112.521 14.687C113.357 16.5618 114.295 18.3859 115.334 20.5647Z" fill="white"/>
<path d="M106.947 0.296971C106.998 0.727661 107.074 1.15835 107.074 1.56371C107.074 7.74537 107.099 13.9524 107.048 20.134C107.048 20.5901 106.744 21.0461 106.567 21.5021C106.364 21.0714 106.009 20.6154 106.009 20.1847C105.984 13.9524 105.984 7.69469 106.009 1.43702C106.009 1.00633 106.288 0.575653 106.44 0.119629C106.592 0.195633 106.77 0.246302 106.947 0.296971Z" fill="white"/>
<path d="M77.0422 3.84381C78.1573 3.84381 79.0189 3.79314 79.9059 3.84381C80.945 3.89448 82.1361 3.86915 82.4656 5.21188C82.7697 6.50395 82.0094 7.18799 80.7929 7.54267C81.1984 8.35338 81.7053 9.34143 82.0854 10.0761C81.6292 10.0761 81.1477 10.0761 80.7676 10.0761C80.6409 9.72146 80.4128 9.3921 80.1847 8.88541C79.982 8.37871 80.0327 8.40405 79.6779 7.9987C79.4244 7.72002 78.9683 7.54267 78.5121 7.54267C78.5121 7.89736 78.5121 8.10004 78.5121 8.45472C78.5121 8.80941 78.5121 9.79746 78.5121 10.0761L77.0169 10.0508C76.9915 8.37871 77.0422 5.84525 77.0422 3.84381ZM78.5374 4.9332C78.5374 5.56657 78.5121 5.94659 78.5121 6.57996C79.3737 6.57996 81.2998 6.70662 81.2998 5.71857C81.3251 4.9332 79.7792 4.9332 78.5374 4.9332Z" fill="white"/>
</svg>
