<svg width="131" height="45" viewBox="0 0 131 45" fill="none" xmlns="http://www.w3.org/2000/svg">
<path d="M23.8853 28.7186C22.1367 28.7186 20.6668 28.7439 19.1716 28.6932C18.9181 28.6932 18.6394 28.3132 18.462 28.0599C16.1304 24.9944 13.7989 21.9035 11.4674 18.838C11.3153 18.6607 11.1632 18.4834 10.8845 18.1287C8.3502 21.6502 5.84127 25.121 3.28165 28.6932C2.29328 27.3252 1.38095 26.0584 0.392578 24.7157C1.98917 22.6129 3.56043 20.5101 5.15703 18.4073C5.99334 17.2926 6.8043 16.1779 7.6913 15.0885C8.09678 14.5818 8.02075 14.2525 7.66595 13.7711C5.43579 10.8576 3.28166 7.91879 1.05149 5.03063C0.519297 4.3466 0.519303 3.86524 1.07684 3.20653C1.86247 2.29449 2.54672 1.2811 3.33235 0.217041C10.1749 9.74289 16.9667 19.1421 23.8853 28.7186Z" fill="white"/>
<path d="M4.42188 0.166448C6.01847 0.166448 7.33628 0.115778 8.62876 0.191782C8.98356 0.217117 9.41439 0.546468 9.64247 0.875819C11.8219 3.7133 13.9761 6.60146 16.1302 9.46428C16.4597 9.89497 16.7891 10.3003 17.2453 10.9084C19.8049 7.3615 22.2632 3.96665 24.8228 0.419796C25.7351 1.61053 26.6221 2.69992 27.4077 3.83998C27.5345 4.04266 27.3571 4.60002 27.1543 4.8787C24.9748 7.81752 22.77 10.731 20.5399 13.6192C20.0077 14.2779 20.0583 14.7086 20.5652 15.3673C22.77 18.2047 24.8988 21.0929 27.1036 23.9051C27.6358 24.5891 27.6612 25.0704 27.1036 25.7292C26.3433 26.5905 25.6844 27.5279 24.8988 28.5666C18.0816 19.1168 11.3404 9.7683 4.42188 0.166448Z" fill="white"/>
<path d="M48.1376 9.46429C49.5822 7.33617 51.4575 5.91743 54.1185 5.79076C56.9823 5.66408 58.6042 7.08283 59.3898 9.89498C59.7193 9.43895 59.9474 9.16027 60.1501 8.85625C61.772 6.52546 64.0022 5.53741 66.8152 5.84142C68.944 6.06944 70.5153 7.7922 70.6673 10.4017C70.8701 13.6698 70.8701 16.938 70.9461 20.2315C70.9461 20.6116 70.9715 20.9662 70.9715 21.3463C70.9968 22.7903 70.9968 22.7397 69.5269 22.8157C68.6146 22.841 68.3865 22.537 68.3865 21.6503C68.4372 18.6354 68.4118 15.6206 68.3865 12.6311C68.3865 12.1244 68.2851 11.6177 68.2091 11.1364C67.5755 7.84287 64.6611 7.38684 62.4563 8.72958C60.5809 9.84431 59.4658 11.5164 59.4912 13.8219C59.5165 16.482 59.4405 19.1675 59.5165 21.8276C59.5419 22.917 58.9083 22.7903 58.224 22.8157C57.4891 22.841 56.9316 22.841 56.9569 21.8023C57.0329 19.0408 57.0076 16.254 56.9569 13.4925C56.9569 12.6311 56.8302 11.7444 56.6275 10.883C56.0446 8.5269 54.372 7.58952 52.0404 8.27356C49.9116 8.88159 48.0869 11.2884 48.0869 13.5178C48.0869 16.2793 48.0363 19.0661 48.1123 21.8276C48.1376 22.917 47.5294 22.8157 46.8198 22.841C46.0849 22.841 45.5273 22.8663 45.5273 21.8276C45.578 16.938 45.578 12.0231 45.5273 7.13349C45.5273 6.22145 45.9328 6.09477 46.6931 6.09477C47.428 6.09477 47.9602 6.14544 47.8589 7.10816C47.7828 7.8682 47.8335 8.62824 47.8335 9.41362C47.9602 9.38828 48.0363 9.43895 48.1376 9.46429Z" fill="white"/>
<path d="M88.9907 19.1168C88.053 20.8396 86.7605 22.005 85.0879 22.5624C82.2242 23.4744 79.4112 23.3731 76.8262 21.625C73.7851 19.5475 72.4672 15.5193 73.6077 11.6938C74.6467 8.22293 77.7892 5.89214 81.5146 5.81613C86.3804 5.74013 90.0551 9.31232 90.0804 14.1512C90.0804 15.0633 89.7763 15.2913 88.9147 15.2913C84.9866 15.2406 81.0331 15.266 77.105 15.266C75.9392 15.266 75.7871 15.4686 76.0659 16.5834C76.6741 18.9902 78.1694 20.6116 80.6276 21.1183C82.9591 21.5996 84.9612 20.8903 86.5325 19.0408C86.7099 18.8128 87.1407 18.6608 87.4194 18.6862C87.9263 18.7115 88.3825 18.9142 88.9907 19.1168ZM81.768 13.4925C83.466 13.4925 85.1639 13.4925 86.8366 13.4925C87.5208 13.4925 87.8249 13.2645 87.6982 12.5298C87.2167 9.81901 84.6824 7.66556 81.8947 7.61489C79.1577 7.56423 76.6488 9.61634 76.0406 12.3271C75.8632 13.1632 76.0912 13.5179 76.9782 13.4925C78.5748 13.4672 80.1714 13.4925 81.768 13.4925Z" fill="white"/>
<path d="M34.9355 5.76534C39.8773 5.76534 43.4 9.43887 43.4506 14.5311C43.5013 18.4834 40.6883 23.1196 34.9355 23.1196C29.8162 23.1196 26.5217 19.3954 26.547 14.4298C26.5724 8.6535 30.8806 5.588 34.9355 5.76534ZM29.1066 15.1645C29.3347 15.7725 29.5882 17.0139 30.1964 18.078C31.793 20.8648 35.0115 21.7262 37.7232 20.1301C39.9787 18.8127 40.9164 16.6339 40.8403 14.1258C40.7643 11.6177 39.6239 9.56555 37.267 8.40015C35.2142 7.38676 32.908 7.81745 31.2608 9.41354C29.7909 10.8323 29.208 12.5804 29.1066 15.1645Z" fill="white"/>
<path d="M117.223 26.3371C117.704 26.3878 118.059 26.4638 118.388 26.4131C118.819 26.3624 119.301 26.2864 119.605 26.0584C120.618 25.3237 121.176 23.0182 120.694 21.8528C118.642 16.9633 116.564 12.099 114.486 7.2094C114.333 6.88004 114.232 6.52536 114.055 6.044C114.866 6.044 115.55 5.968 116.209 6.06934C116.513 6.12 116.817 6.55069 116.944 6.88004C118.642 11.0349 120.34 15.1898 122.012 19.37C122.139 19.6741 122.291 19.9781 122.671 20.3074C123.001 19.4714 123.355 18.6353 123.685 17.774C124.901 14.4805 126.092 11.1869 127.284 7.8681C127.993 5.89199 128.069 5.84132 130.299 6.14534C130.173 6.50002 130.097 6.82938 129.97 7.15873C127.588 13.3404 125.18 19.4967 122.798 25.6784C122.012 27.7052 120.593 28.6172 118.439 28.6679C117.527 28.6932 117.096 28.3892 117.197 27.4518C117.248 27.1225 117.223 26.7931 117.223 26.3371Z" fill="white"/>
<path d="M100.445 20.105C101.358 21.9037 101.231 22.2584 99.4062 22.6638C98.4432 22.8918 97.3788 22.9678 96.3904 22.9171C94.6418 22.8158 93.476 21.4477 93.476 19.6489C93.476 16.2034 93.4507 12.7579 93.5014 9.31238C93.5267 8.32432 93.2986 7.81763 92.2089 7.96964C91.3725 8.09631 91.1445 7.69096 91.1698 6.93092C91.1952 6.27221 91.3979 6.0442 92.0822 6.0442C93.476 6.0442 93.476 6.01887 93.476 4.57479C93.476 3.46006 93.5013 2.34534 93.476 1.23061C93.4506 0.571909 93.6787 0.293227 94.363 0.369231C94.5657 0.394566 94.7685 0.394566 94.9712 0.369231C95.7569 0.267892 96.061 0.546573 96.0356 1.38262C95.9849 2.62402 96.0356 3.89075 96.0103 5.13215C95.9849 5.81619 96.2637 6.12021 96.9733 6.06954C97.5815 6.01887 98.1898 6.09487 98.798 6.0442C99.5583 5.99353 99.913 6.17088 99.8877 7.03226C99.8624 7.84297 99.5329 7.96964 98.8233 7.96964C95.9849 7.99497 95.9849 8.02031 95.9849 10.8071C95.9849 13.2139 95.9849 15.5954 95.9849 18.0022C95.9849 20.181 97.176 21.0423 99.3048 20.4343C99.685 20.333 100.065 20.2316 100.445 20.105Z" fill="white"/>
<path d="M106.021 9.71761C106.249 9.4136 106.477 9.08425 106.705 8.78023C107.77 7.33615 109.113 6.29743 110.887 5.94274C111.368 5.84141 112.053 5.63873 112.002 6.47477C111.977 7.13347 112.585 8.07086 111.318 8.37487C110.38 8.60289 109.392 8.85623 108.555 9.33759C106.883 10.3003 105.818 11.6431 105.92 13.7712C106.021 16.4313 105.894 19.1168 105.97 21.7769C105.996 22.7143 105.59 22.8663 104.83 22.7903C104.171 22.7396 103.385 23.0437 103.411 21.8276C103.461 16.8873 103.461 11.9471 103.411 7.0068C103.411 5.99341 103.968 6.06942 104.653 6.04408C105.337 6.04408 105.869 6.04408 105.793 6.98147C105.717 7.84285 105.768 8.72956 105.768 9.59094C105.818 9.64161 105.92 9.66694 106.021 9.71761Z" fill="white"/>
<path d="M17.2704 9.33769C16.3581 8.14696 15.5218 7.05757 14.6348 5.89217C16.0286 4.04274 17.3971 2.21864 18.791 0.419881C18.9177 0.242538 19.2471 0.166533 19.5006 0.166533C20.8944 0.141199 22.2629 0.166533 23.9102 0.166533C21.6547 3.25737 19.5006 6.22152 17.2704 9.33769Z" fill="white"/>
<path d="M10.9604 19.6995C11.7461 20.7382 12.4557 21.6502 13.1146 22.6383C13.2413 22.841 13.1906 23.297 13.0386 23.525C11.8981 25.1211 10.707 26.6918 9.49057 28.2373C9.33851 28.4399 9.00906 28.6426 8.75563 28.6426C7.41246 28.6933 6.0693 28.6679 4.49805 28.6679C6.70287 25.5771 8.8063 22.689 10.9604 19.6995Z" fill="white"/>
<path d="M13.9517 43.8943C13.9263 43.9703 13.901 44.0209 13.8757 44.0463C13.8503 44.0969 13.7996 44.1223 13.749 44.1476C13.6983 44.1729 13.6222 44.1729 13.5209 44.1983C13.4195 44.1983 13.3181 44.1983 13.1914 44.1983C13.0394 44.1983 12.9126 44.1983 12.8113 44.1983C12.7099 44.1983 12.6339 44.1729 12.5832 44.1476C12.5325 44.1223 12.4818 44.0969 12.4565 44.0463C12.4311 43.9956 12.4058 43.9449 12.4058 43.8943L11.5695 40.5754L10.7838 43.8943C10.7585 43.9449 10.7585 43.9956 10.7332 44.0463C10.7078 44.0969 10.6825 44.1223 10.6064 44.1476C10.5558 44.1729 10.4797 44.1729 10.4037 44.1983C10.3023 44.1983 10.201 44.1983 10.0489 44.1983C9.89686 44.1983 9.77014 44.1983 9.66877 44.1983C9.5674 44.1983 9.49136 44.1729 9.44067 44.1476C9.38999 44.1223 9.33931 44.0969 9.31397 44.0463C9.28863 43.9956 9.26327 43.9449 9.26327 43.8943L8.07216 39.3087C8.04682 39.2073 8.04683 39.1313 8.02148 39.0807C8.02148 39.03 8.04682 38.9793 8.07216 38.954C8.0975 38.9287 8.17353 38.9033 8.24956 38.9033C8.32559 38.9033 8.42697 38.9033 8.57903 38.9033C8.70574 38.9033 8.8071 38.9033 8.88313 38.9033C8.95916 38.9033 9.00984 38.9287 9.06053 38.9287C9.08587 38.954 9.13657 38.954 9.13657 39.0047C9.16191 39.03 9.1619 39.0807 9.1619 39.1313L10.0742 43.1595L11.0373 39.1567C11.0373 39.106 11.0626 39.0553 11.088 39.03C11.1133 39.0047 11.1386 38.9793 11.1893 38.954C11.24 38.9287 11.2907 38.9287 11.3667 38.9287C11.4428 38.9287 11.5441 38.9287 11.6708 38.9287C11.7976 38.9287 11.8989 38.9287 11.9749 38.9287C12.051 38.9287 12.1017 38.954 12.1523 38.954C12.203 38.9793 12.2284 39.0047 12.2537 39.03C12.2791 39.0553 12.2791 39.106 12.3044 39.1567L13.2928 43.1595L14.2051 39.1567C14.2051 39.106 14.2304 39.0807 14.2304 39.0553C14.2558 39.03 14.2812 39.0047 14.3065 38.9793C14.3318 38.954 14.4079 38.954 14.4585 38.954C14.5346 38.954 14.6359 38.954 14.7626 38.954C14.8894 38.954 14.9654 38.954 15.0414 38.954C15.1174 38.954 15.1681 38.9793 15.1935 39.0047C15.2188 39.03 15.2442 39.0807 15.2442 39.1313C15.2442 39.182 15.2188 39.258 15.1935 39.3593L13.9517 43.8943Z" fill="white"/>
<path d="M20.6936 44.0209C20.6936 44.0463 20.6936 44.0716 20.6683 44.0969C20.6429 44.1223 20.6176 44.1476 20.5922 44.1476C20.5416 44.1729 20.4909 44.1729 20.4402 44.1729C20.3642 44.1729 20.2881 44.1729 20.1868 44.1729C20.0854 44.1729 19.984 44.1729 19.9333 44.1729C19.8826 44.1729 19.8066 44.1476 19.7813 44.1476C19.7306 44.1223 19.7052 44.1223 19.7052 44.0969C19.6799 44.0716 19.6799 44.0463 19.6799 44.0209V41.8928H17.7032V44.0209C17.7032 44.0463 17.7032 44.0716 17.6778 44.0969C17.6525 44.1223 17.6271 44.1476 17.6018 44.1476C17.5511 44.1729 17.5004 44.1729 17.4497 44.1729C17.3737 44.1729 17.2977 44.1729 17.1963 44.1729C17.0949 44.1729 17.0189 44.1729 16.9429 44.1729C16.8668 44.1729 16.8162 44.1476 16.7908 44.1476C16.7401 44.1223 16.7148 44.1223 16.7148 44.0969C16.6895 44.0716 16.6895 44.0463 16.6895 44.0209V39.0553C16.6895 39.03 16.6895 39.0047 16.7148 38.9793C16.7401 38.954 16.7655 38.9287 16.7908 38.9287C16.8415 38.9033 16.8922 38.9033 16.9429 38.9033C17.0189 38.9033 17.0949 38.9033 17.1963 38.9033C17.2977 38.9033 17.3991 38.9033 17.4497 38.9033C17.5258 38.9033 17.5765 38.9287 17.6018 38.9287C17.6525 38.954 17.6778 38.954 17.6778 38.9793C17.7032 39.0047 17.7032 39.03 17.7032 39.0553V40.9808H19.6799V39.0553C19.6799 39.03 19.6799 39.0047 19.7052 38.9793C19.7306 38.954 19.7559 38.9287 19.7813 38.9287C19.832 38.9033 19.8826 38.9033 19.9333 38.9033C19.984 38.9033 20.0854 38.9033 20.1868 38.9033C20.2881 38.9033 20.3642 38.9033 20.4402 38.9033C20.5162 38.9033 20.5669 38.9287 20.5922 38.9287C20.6429 38.954 20.6683 38.954 20.6683 38.9793C20.6936 39.0047 20.6936 39.03 20.6936 39.0553V44.0209Z" fill="white"/>
<path d="M25.5839 43.7423C25.5839 43.8183 25.5839 43.8943 25.5839 43.945C25.5839 43.9956 25.5586 44.0463 25.5586 44.0717C25.5332 44.097 25.5332 44.1223 25.5079 44.1477C25.4825 44.173 25.4572 44.173 25.4319 44.173H22.7709C22.6695 44.173 22.6188 44.1477 22.5428 44.097C22.4921 44.0463 22.4414 43.9703 22.4414 43.8436V39.2581C22.4414 39.1314 22.4668 39.0554 22.5428 39.0047C22.5935 38.954 22.6695 38.9287 22.7709 38.9287H25.3812C25.4065 38.9287 25.4318 38.9287 25.4572 38.954C25.4825 38.9794 25.4825 38.9794 25.5079 39.03C25.5332 39.0554 25.5332 39.1061 25.5332 39.1567C25.5332 39.2074 25.5332 39.2834 25.5332 39.3594C25.5332 39.4354 25.5332 39.5114 25.5332 39.5621C25.5332 39.6127 25.5079 39.6634 25.5079 39.6887C25.4825 39.7141 25.4825 39.7394 25.4572 39.7648C25.4318 39.7901 25.4065 39.7901 25.3812 39.7901H23.5058V41.0822H25.1024C25.1277 41.0822 25.1531 41.0822 25.1784 41.1075C25.2038 41.1328 25.2038 41.1328 25.2291 41.1835C25.2544 41.2342 25.2545 41.2595 25.2545 41.3102C25.2545 41.3608 25.2545 41.4368 25.2545 41.5129C25.2545 41.5889 25.2545 41.6649 25.2545 41.7155C25.2545 41.7662 25.2291 41.8169 25.2291 41.8422C25.2291 41.8675 25.2038 41.8929 25.1784 41.9182C25.1531 41.9435 25.1277 41.9435 25.1024 41.9435H23.5058V43.413H25.4065C25.4318 43.413 25.4572 43.413 25.4825 43.4383C25.5079 43.4636 25.5079 43.489 25.5332 43.5143C25.5585 43.5396 25.5586 43.5903 25.5586 43.641C25.5586 43.5903 25.5839 43.6663 25.5839 43.7423Z" fill="white"/>
<path d="M31.0317 44.0208C31.0317 44.0461 31.0317 44.0715 31.0064 44.0968C31.0064 44.1221 30.981 44.1221 30.9304 44.1475C30.8797 44.1728 30.829 44.1728 30.753 44.1728C30.6769 44.1728 30.5755 44.1728 30.4235 44.1728C30.3221 44.1728 30.2208 44.1728 30.1447 44.1728C30.0687 44.1728 30.018 44.1475 29.9927 44.1475C29.942 44.1221 29.9166 44.1221 29.9166 44.0968C29.8913 44.0715 29.8913 44.0461 29.866 44.0208L29.3845 42.8554C29.3338 42.7287 29.2831 42.6021 29.2071 42.5007C29.1564 42.3994 29.0803 42.3234 29.0297 42.2474C28.9536 42.1714 28.8776 42.1207 28.8016 42.0954C28.7255 42.07 28.6242 42.0447 28.4975 42.0447H28.168V44.0461C28.168 44.0715 28.168 44.0968 28.1427 44.1221C28.1173 44.1475 28.092 44.1728 28.0666 44.1728C28.0159 44.1981 27.9653 44.1981 27.9146 44.1981C27.8385 44.1981 27.7625 44.1981 27.6611 44.1981C27.5598 44.1981 27.4837 44.1981 27.4077 44.1981C27.3317 44.1981 27.281 44.1728 27.2557 44.1728C27.205 44.1475 27.1796 44.1475 27.1796 44.1221C27.1543 44.0968 27.1543 44.0715 27.1543 44.0461V39.2832C27.1543 39.1565 27.1796 39.0805 27.2557 39.0299C27.3063 38.9792 27.3824 38.9539 27.4837 38.9539H28.8523C28.979 38.9539 29.1057 38.9539 29.1817 38.9539C29.2831 38.9539 29.3591 38.9539 29.4351 38.9792C29.6379 39.0045 29.8406 39.0552 30.018 39.1312C30.1954 39.2072 30.3221 39.3085 30.4488 39.4099C30.5756 39.5366 30.6516 39.6632 30.7276 39.8152C30.7783 39.9672 30.829 40.1699 30.829 40.3726C30.829 40.5499 30.8036 40.702 30.753 40.854C30.7023 41.006 30.6516 41.1326 30.5502 41.234C30.4742 41.3353 30.3475 41.4367 30.2208 41.538C30.0941 41.614 29.942 41.69 29.7899 41.7407C29.866 41.766 29.942 41.8167 30.018 41.8673C30.094 41.918 30.1447 41.994 30.2208 42.07C30.2968 42.146 30.3475 42.2474 30.3982 42.3234C30.4489 42.4247 30.4995 42.526 30.5502 42.6527L30.981 43.6914C31.0317 43.7928 31.0571 43.8688 31.0571 43.9195C31.0317 43.9448 31.0317 43.9955 31.0317 44.0208ZM29.6632 40.4486C29.6632 40.2713 29.6125 40.1193 29.5365 40.0179C29.4605 39.8912 29.3338 39.8152 29.1564 39.7646C29.1057 39.7392 29.0296 39.7392 28.979 39.7392C28.9029 39.7392 28.8269 39.7392 28.7002 39.7392H28.2187V41.234H28.7509C28.9029 41.234 29.0296 41.2086 29.1564 41.1833C29.2577 41.158 29.3591 41.1073 29.4351 41.0313C29.5112 40.9553 29.5618 40.8793 29.6125 40.8033C29.6379 40.6766 29.6632 40.5753 29.6632 40.4486Z" fill="white"/>
<path d="M35.5683 43.7423C35.5683 43.8183 35.5683 43.8943 35.5683 43.945C35.5683 43.9956 35.543 44.0463 35.543 44.0717C35.5176 44.097 35.5176 44.1223 35.4923 44.1477C35.467 44.173 35.4416 44.173 35.4163 44.173H32.7806C32.6792 44.173 32.6286 44.1477 32.5525 44.097C32.5019 44.0463 32.4512 43.9703 32.4512 43.8436V39.2581C32.4512 39.1314 32.4765 39.0554 32.5525 39.0047C32.6032 38.954 32.6792 38.9287 32.7806 38.9287H35.3909C35.4163 38.9287 35.4416 38.9287 35.467 38.954C35.4923 38.9794 35.4923 38.9794 35.5176 39.03C35.543 39.0554 35.543 39.1061 35.543 39.1567C35.543 39.2074 35.543 39.2834 35.543 39.3594C35.543 39.4354 35.543 39.5114 35.543 39.5621C35.543 39.6127 35.5176 39.6634 35.5176 39.6887C35.4923 39.7141 35.4923 39.7394 35.467 39.7648C35.4416 39.7901 35.4163 39.7901 35.3909 39.7901H33.5156V41.0822H35.1122C35.1375 41.0822 35.1629 41.0822 35.1882 41.1075C35.2135 41.1328 35.2135 41.1328 35.2389 41.1835C35.2642 41.2342 35.2642 41.2595 35.2642 41.3102C35.2642 41.3608 35.2642 41.4368 35.2642 41.5129C35.2642 41.5889 35.2642 41.6649 35.2642 41.7155C35.2642 41.7662 35.2389 41.8169 35.2389 41.8422C35.2389 41.8675 35.2135 41.8929 35.1882 41.9182C35.1629 41.9435 35.1375 41.9435 35.1122 41.9435H33.5156V43.413H35.4163C35.4416 43.413 35.467 43.413 35.4923 43.4383C35.5176 43.4636 35.5176 43.489 35.543 43.5143C35.5683 43.5396 35.5683 43.5903 35.5683 43.641C35.543 43.5903 35.5683 43.6663 35.5683 43.7423Z" fill="white"/>
<path d="M43.4245 42.5769C43.4245 42.7543 43.3991 42.9316 43.3484 43.0836C43.2977 43.2356 43.2217 43.3623 43.1457 43.489C43.0443 43.6156 42.943 43.717 42.8162 43.793C42.6895 43.869 42.5628 43.945 42.4107 43.9956C42.2587 44.0463 42.1066 44.097 41.9292 44.1223C41.7518 44.1477 41.5744 44.173 41.3464 44.173H39.9525C39.8511 44.173 39.8004 44.1477 39.7244 44.097C39.6737 44.0463 39.623 43.9703 39.623 43.8436V39.2581C39.623 39.1314 39.6484 39.0554 39.7244 39.0047C39.7751 38.954 39.8511 38.9287 39.9525 38.9287H41.2703C41.5998 38.9287 41.8532 38.954 42.0813 39.0047C42.3094 39.0554 42.4868 39.1314 42.6388 39.2581C42.7909 39.3594 42.9176 39.5114 42.9936 39.6634C43.0697 39.8408 43.1203 40.0181 43.1203 40.2461C43.1203 40.3728 43.095 40.4995 43.0697 40.6008C43.0443 40.7021 42.9936 40.8035 42.9176 40.9048C42.8669 41.0062 42.7909 41.0822 42.6895 41.1582C42.5881 41.2342 42.4868 41.2848 42.3854 41.3355C42.5375 41.3608 42.6642 41.4115 42.7909 41.4875C42.9176 41.5635 43.019 41.6395 43.1203 41.7409C43.2217 41.8422 43.2977 41.9689 43.3484 42.1209C43.3991 42.2476 43.4245 42.3996 43.4245 42.5769ZM42.0559 40.3728C42.0559 40.2714 42.0306 40.1701 42.0053 40.0941C41.9799 40.0181 41.9292 39.9421 41.8532 39.8914C41.7772 39.8408 41.7011 39.7901 41.5998 39.7648C41.4984 39.7394 41.3717 39.7141 41.1943 39.7141H40.6621V41.0822H41.2703C41.4224 41.0822 41.5491 41.0568 41.6505 41.0315C41.7518 41.0062 41.8279 40.9555 41.8785 40.8795C41.9292 40.8035 41.9799 40.7528 42.0053 40.6515C42.0306 40.5501 42.0559 40.4741 42.0559 40.3728ZM42.3094 42.6276C42.3094 42.5009 42.284 42.3996 42.2587 42.2982C42.208 42.1969 42.1573 42.1209 42.0813 42.0449C42.0053 41.9689 41.9039 41.9182 41.7772 41.8929C41.6505 41.8675 41.4984 41.8422 41.2957 41.8422H40.6621V43.3369H41.4224C41.5744 43.3369 41.7012 43.3116 41.8025 43.2863C41.9039 43.2609 41.9799 43.2103 42.0559 43.1596C42.132 43.1089 42.1827 43.0329 42.2333 42.9316C42.3094 42.8303 42.3094 42.7289 42.3094 42.6276Z" fill="white"/>
<path d="M45.9844 44.0209C45.9844 44.0463 45.9844 44.0716 45.9591 44.0969C45.9337 44.1223 45.9084 44.1476 45.883 44.1476C45.8324 44.1729 45.7817 44.1729 45.731 44.1729C45.6549 44.1729 45.5789 44.1729 45.4776 44.1729C45.3762 44.1729 45.3002 44.1729 45.2241 44.1729C45.1481 44.1729 45.0974 44.1476 45.0721 44.1476C45.0214 44.1223 44.996 44.1223 44.996 44.0969C44.9707 44.0716 44.9707 44.0463 44.9707 44.0209V39.0553C44.9707 39.03 44.9707 39.0047 44.996 38.9793C45.0214 38.954 45.0467 38.9287 45.0974 38.9287C45.1481 38.9033 45.1988 38.9033 45.2495 38.9033C45.3255 38.9033 45.4015 38.9033 45.5029 38.9033C45.6043 38.9033 45.7056 38.9033 45.7563 38.9033C45.8324 38.9033 45.883 38.9287 45.9084 38.9287C45.9591 38.954 45.9844 38.954 45.9844 38.9793C46.0098 39.0047 46.0097 39.03 46.0097 39.0553V44.0209H45.9844Z" fill="white"/>
<path d="M51.9662 39.714C51.9662 39.79 51.9662 39.866 51.9662 39.9167C51.9662 39.9673 51.9408 40.018 51.9408 40.0433C51.9408 40.0687 51.9155 40.094 51.8901 40.1193C51.8648 40.1447 51.8395 40.1447 51.8395 40.1447C51.8141 40.1447 51.7381 40.1193 51.6621 40.0687C51.586 40.018 51.4847 39.9673 51.3579 39.9167C51.2312 39.866 51.0792 39.8153 50.9018 39.7647C50.7244 39.714 50.5216 39.6887 50.2682 39.6887C50.0148 39.6887 49.7867 39.7393 49.584 39.8153C49.3812 39.8913 49.2038 40.018 49.0518 40.1954C48.8997 40.3727 48.7983 40.55 48.7223 40.778C48.6463 41.0061 48.5956 41.2594 48.5956 41.5381C48.5956 41.8421 48.6463 42.0955 48.7223 42.3235C48.7983 42.5515 48.9251 42.7542 49.0518 42.9062C49.2038 43.0582 49.3559 43.1848 49.5586 43.2608C49.7614 43.3369 49.9894 43.3875 50.2175 43.3875C50.3442 43.3875 50.4456 43.3622 50.5723 43.3369C50.699 43.3115 50.8004 43.2609 50.9018 43.2102V41.9941H49.9134C49.8627 41.9941 49.8374 41.9688 49.812 41.8928C49.7867 41.8421 49.7614 41.7408 49.7614 41.5888C49.7614 41.5128 49.7614 41.4621 49.7614 41.3861C49.7614 41.3354 49.7867 41.2847 49.7867 41.2594C49.8121 41.2341 49.812 41.2087 49.8374 41.1834C49.8627 41.1581 49.8881 41.1581 49.9134 41.1581H51.6874C51.7381 41.1581 51.7634 41.1581 51.8141 41.1834C51.8395 41.2087 51.8901 41.2087 51.9155 41.2594C51.9408 41.2847 51.9662 41.3354 51.9662 41.3607C51.9915 41.4114 51.9915 41.4621 51.9915 41.5128V43.5902C51.9915 43.6662 51.9662 43.7422 51.9408 43.7929C51.9155 43.8435 51.8648 43.8942 51.7634 43.9449C51.6874 43.9702 51.5607 44.0209 51.434 44.0462C51.3073 44.0716 51.1806 44.1222 51.0285 44.1476C50.8764 44.1729 50.7497 44.1982 50.5977 44.1982C50.4456 44.2236 50.3189 44.2236 50.1668 44.2236C49.736 44.2236 49.3812 44.1729 49.0518 44.0462C48.7223 43.9196 48.4435 43.7422 48.2155 43.5142C47.9874 43.2862 47.81 43.0075 47.6833 42.6782C47.5565 42.3488 47.5059 41.9688 47.5059 41.5634C47.5059 41.1327 47.5819 40.7527 47.7086 40.398C47.8353 40.0433 48.0127 39.7647 48.2661 39.5367C48.4942 39.3086 48.7983 39.106 49.1278 38.9793C49.4572 38.8526 49.8374 38.7766 50.2429 38.7766C50.4709 38.7766 50.6737 38.8019 50.8764 38.8273C51.0538 38.8526 51.2312 38.9033 51.3579 38.9286C51.4847 38.9793 51.6114 39.03 51.7127 39.0806C51.8141 39.1313 51.8648 39.182 51.9155 39.2073C51.9408 39.2326 51.9662 39.3086 51.9915 39.3593C51.9662 39.486 51.9662 39.5873 51.9662 39.714Z" fill="white"/>
<path d="M57.2364 44.0209C57.2364 44.0463 57.2364 44.0716 57.211 44.0969C57.1857 44.1223 57.1603 44.1476 57.135 44.1476C57.0843 44.1729 57.0336 44.1729 56.9829 44.1729C56.9069 44.1729 56.8309 44.1729 56.7295 44.1729C56.6282 44.1729 56.5521 44.1729 56.4761 44.1729C56.4001 44.1729 56.3494 44.1476 56.324 44.1476C56.2733 44.1223 56.248 44.1223 56.248 44.0969C56.2227 44.0716 56.2227 44.0463 56.2227 44.0209V39.0553C56.2227 39.03 56.2227 39.0047 56.248 38.9793C56.2733 38.954 56.2987 38.9287 56.3494 38.9287C56.4001 38.9033 56.4507 38.9033 56.5014 38.9033C56.5775 38.9033 56.6535 38.9033 56.7549 38.9033C56.8562 38.9033 56.9576 38.9033 57.0083 38.9033C57.0843 38.9033 57.135 38.9287 57.1603 38.9287C57.211 38.954 57.2364 38.954 57.2364 38.9793C57.2617 39.0047 57.2617 39.03 57.2617 39.0553V44.0209H57.2364Z" fill="white"/>
<path d="M63.3707 41.4622C63.3707 41.9435 63.32 42.3489 63.1933 42.7036C63.0666 43.0583 62.8892 43.3369 62.6611 43.5396C62.433 43.7676 62.1289 43.9196 61.7995 44.021C61.47 44.1223 61.0645 44.173 60.6084 44.173H59.3666C59.2652 44.173 59.2145 44.1477 59.1385 44.097C59.0878 44.0463 59.0371 43.9703 59.0371 43.8436V39.2581C59.0371 39.1314 59.0625 39.0554 59.1385 39.0047C59.1892 38.954 59.2652 38.9287 59.3666 38.9287H60.7097C61.1659 38.9287 61.5714 38.9794 61.9009 39.0807C62.2303 39.1821 62.5091 39.3594 62.7371 39.5621C62.9652 39.7648 63.1426 40.0434 63.244 40.3475C63.32 40.6768 63.3707 41.0315 63.3707 41.4622ZM62.281 41.4875C62.281 41.2342 62.2556 41.0062 62.205 40.8035C62.1543 40.6008 62.0529 40.3981 61.9262 40.2461C61.7995 40.0941 61.6221 39.9674 61.4193 39.8914C61.2166 39.8154 60.9632 39.7648 60.6337 39.7648H60.1015V43.3369H60.659C60.9632 43.3369 61.1912 43.3116 61.394 43.2356C61.5967 43.1596 61.7488 43.0583 61.9009 42.8809C62.0276 42.7289 62.1289 42.5262 62.205 42.2982C62.2303 42.0702 62.281 41.7915 62.281 41.4875Z" fill="white"/>
<path d="M67.9824 43.7423C67.9824 43.8183 67.9824 43.8943 67.9824 43.945C67.9824 43.9956 67.9571 44.0463 67.9571 44.0717C67.9317 44.097 67.9317 44.1223 67.9064 44.1477C67.881 44.173 67.8557 44.173 67.8303 44.173H65.1947C65.0933 44.173 65.0426 44.1477 64.9666 44.097C64.9159 44.0463 64.8652 43.9703 64.8652 43.8436V39.2581C64.8652 39.1314 64.8906 39.0554 64.9666 39.0047C65.0173 38.954 65.0933 38.9287 65.1947 38.9287H67.805C67.8303 38.9287 67.8557 38.9287 67.881 38.954C67.9064 38.9794 67.9064 38.9794 67.9317 39.03C67.957 39.0554 67.9571 39.1061 67.9571 39.1567C67.9571 39.2074 67.9571 39.2834 67.9571 39.3594C67.9571 39.4354 67.9571 39.5114 67.9571 39.5621C67.9571 39.6127 67.9317 39.6634 67.9317 39.6887C67.9064 39.7141 67.9064 39.7394 67.881 39.7648C67.8557 39.7901 67.8303 39.7901 67.805 39.7901H65.9296V41.0822H67.5262C67.5516 41.0822 67.5769 41.0822 67.6023 41.1075C67.6276 41.1328 67.6276 41.1328 67.6529 41.1835C67.6783 41.2088 67.6783 41.2595 67.6783 41.3102C67.6783 41.3608 67.6783 41.4368 67.6783 41.5129C67.6783 41.5889 67.6783 41.6649 67.6783 41.7155C67.6783 41.7662 67.6529 41.8169 67.6529 41.8422C67.6276 41.8675 67.6276 41.8929 67.6023 41.9182C67.5769 41.9435 67.5516 41.9435 67.5262 41.9435H65.9296V43.413H67.8303C67.8557 43.413 67.881 43.413 67.9064 43.4383C67.9317 43.4636 67.9317 43.489 67.9571 43.5143C67.9824 43.5396 67.9824 43.5903 67.9824 43.641C67.9824 43.5903 67.9824 43.6663 67.9824 43.7423Z" fill="white"/>
<path d="M73.7605 43.7676C73.7858 43.8689 73.8112 43.9449 73.8112 43.9956C73.8112 44.0463 73.8112 44.0969 73.7858 44.1223C73.7605 44.1476 73.7098 44.1729 73.6338 44.1729C73.5578 44.1729 73.4564 44.1729 73.3297 44.1729C73.2029 44.1729 73.0763 44.1729 73.0002 44.1729C72.9242 44.1729 72.8735 44.1729 72.8228 44.1476C72.7721 44.1476 72.7468 44.1223 72.7468 44.0969C72.7214 44.0716 72.7214 44.0463 72.6961 44.0209L72.3413 42.9569H70.3646L70.0351 43.9956C70.0351 44.0209 70.0098 44.0716 69.9844 44.0969C69.9591 44.1223 69.9338 44.1476 69.9084 44.1476C69.8577 44.1729 69.807 44.1729 69.731 44.1729C69.655 44.1729 69.5536 44.1729 69.4522 44.1729C69.3255 44.1729 69.2241 44.1729 69.1481 44.1729C69.0721 44.1729 69.0214 44.1476 68.9961 44.1223C68.9707 44.0969 68.9707 44.0463 68.9707 43.9956C68.9707 43.9449 68.9961 43.8689 69.0214 43.7676L70.6433 39.106C70.6687 39.0553 70.6687 39.03 70.694 39.0047C70.7194 38.9793 70.7447 38.954 70.7954 38.9287C70.8461 38.9033 70.8968 38.9033 70.9981 38.9033C71.0742 38.9033 71.2009 38.9033 71.3276 38.9033C71.4797 38.9033 71.6064 38.9033 71.7077 38.9033C71.8091 38.9033 71.8851 38.9287 71.9358 38.9287C71.9865 38.954 72.0372 38.954 72.0372 39.0047C72.0625 39.03 72.0879 39.0807 72.0879 39.1313L73.7605 43.7676ZM71.3529 39.9167L70.618 42.1462H72.1132L71.3529 39.9167Z" fill="white"/>
<path d="M78.2201 42.5768C78.2201 42.8555 78.1694 43.0835 78.0681 43.3115C77.9667 43.5142 77.8146 43.6915 77.6626 43.8435C77.4852 43.9955 77.2824 44.0969 77.0543 44.1475C76.8262 44.2235 76.5728 44.2489 76.294 44.2489C76.1166 44.2489 75.9392 44.2236 75.7872 44.1982C75.6351 44.1729 75.4831 44.1222 75.3817 44.0969C75.255 44.0462 75.1536 44.0209 75.0776 43.9702C75.0016 43.9195 74.9509 43.8942 74.9002 43.8435C74.8749 43.8182 74.8495 43.7675 74.8242 43.6915C74.7988 43.6155 74.7988 43.5395 74.7988 43.4128C74.7988 43.3368 74.7988 43.2608 74.7988 43.2102C74.7988 43.1595 74.8242 43.1088 74.8242 43.0835C74.8242 43.0582 74.8495 43.0328 74.8749 43.0075C74.9002 42.9822 74.9255 42.9822 74.9509 42.9822C74.9762 42.9822 75.0522 43.0075 75.1029 43.0582C75.179 43.1088 75.255 43.1595 75.3564 43.2102C75.4577 43.2608 75.5844 43.3115 75.7365 43.3622C75.8886 43.4128 76.066 43.4382 76.2687 43.4382C76.3954 43.4382 76.5221 43.4128 76.6235 43.3875C76.7249 43.3622 76.8263 43.3115 76.877 43.2608C76.953 43.2102 77.0037 43.1342 77.029 43.0582C77.0543 42.9821 77.0797 42.8808 77.0797 42.7795C77.0797 42.6528 77.0543 42.5515 76.9783 42.4755C76.9023 42.3995 76.8262 42.3234 76.7249 42.2474C76.6235 42.1714 76.4968 42.1208 76.3701 42.0701C76.2434 42.0194 76.0913 41.9434 75.9646 41.8928C75.8126 41.8168 75.6858 41.7661 75.5591 41.6647C75.4324 41.5887 75.3057 41.4874 75.2043 41.3607C75.103 41.2341 75.0269 41.1074 74.9509 40.9554C74.8749 40.8034 74.8495 40.6007 74.8495 40.398C74.8495 40.1447 74.9002 39.9167 75.0016 39.7393C75.1029 39.5366 75.2296 39.3846 75.3817 39.2579C75.5338 39.1313 75.7365 39.0299 75.9392 38.9793C76.142 38.9286 76.3701 38.8779 76.6235 38.8779C76.7502 38.8779 76.8769 38.8779 77.0036 38.9033C77.1303 38.9286 77.2571 38.9539 77.3584 38.9793C77.4598 39.0046 77.5612 39.0553 77.6372 39.0806C77.7132 39.1313 77.7639 39.1566 77.8146 39.1819C77.84 39.2073 77.8653 39.2326 77.8653 39.2579C77.8653 39.2833 77.8906 39.3086 77.8906 39.334C77.8906 39.3593 77.8906 39.41 77.916 39.4606C77.916 39.5113 77.916 39.562 77.916 39.638C77.916 39.714 77.916 39.79 77.916 39.8407C77.916 39.8913 77.916 39.942 77.8906 39.9673C77.8906 39.9927 77.8653 40.018 77.8399 40.0433C77.8146 40.0687 77.7893 40.0687 77.7639 40.0687C77.7386 40.0687 77.6879 40.0433 77.6119 40.018C77.5358 39.9927 77.4598 39.942 77.3838 39.8913C77.2824 39.8406 77.181 39.8153 77.0543 39.7646C76.9276 39.714 76.8009 39.714 76.6488 39.714C76.5221 39.714 76.4208 39.7393 76.3447 39.7646C76.2687 39.79 76.1927 39.8406 76.1167 39.8913C76.066 39.942 76.0153 39.9927 75.9899 40.0687C75.9646 40.1447 75.9392 40.2207 75.9392 40.2967C75.9392 40.4233 75.9646 40.5247 76.0406 40.6007C76.1167 40.6767 76.1927 40.7527 76.294 40.8287C76.3954 40.9047 76.5221 40.9554 76.6488 41.006C76.7756 41.0567 76.9276 41.1327 77.0543 41.1834C77.2064 41.2594 77.3331 41.3101 77.4598 41.4114C77.5865 41.4874 77.7132 41.5887 77.8146 41.7154C77.916 41.8421 78.0174 41.9688 78.0681 42.1208C78.1948 42.1968 78.2201 42.3741 78.2201 42.5768Z" fill="white"/>
<path d="M86.4831 43.7676C86.5085 43.8689 86.5338 43.9449 86.5338 43.9956C86.5338 44.0463 86.5338 44.0969 86.5085 44.1223C86.4831 44.1476 86.4324 44.1729 86.3564 44.1729C86.2804 44.1729 86.179 44.1729 86.0523 44.1729C85.9256 44.1729 85.7989 44.1729 85.7228 44.1729C85.6468 44.1729 85.5962 44.1729 85.5455 44.1476C85.4948 44.1476 85.4694 44.1223 85.4694 44.0969C85.4441 44.0716 85.4441 44.0463 85.4187 44.0209L85.0639 42.9569H83.0872L82.7577 43.9956C82.7577 44.0209 82.7324 44.0716 82.7071 44.0969C82.6817 44.1223 82.6564 44.1476 82.631 44.1476C82.5803 44.1729 82.5297 44.1729 82.4536 44.1729C82.3776 44.1729 82.2762 44.1729 82.1749 44.1729C82.0482 44.1729 81.9468 44.1729 81.8708 44.1729C81.7947 44.1729 81.744 44.1476 81.7187 44.1223C81.6933 44.0969 81.6934 44.0463 81.6934 43.9956C81.6934 43.9449 81.7187 43.8689 81.7441 43.7676L83.366 39.106C83.3913 39.0553 83.3913 39.03 83.4166 39.0047C83.442 38.9793 83.4674 38.954 83.518 38.9287C83.5687 38.9033 83.6194 38.9033 83.7208 38.9033C83.7968 38.9033 83.9235 38.9033 84.0502 38.9033C84.2023 38.9033 84.329 38.9033 84.4304 38.9033C84.5318 38.9033 84.6078 38.9287 84.6585 38.9287C84.7091 38.9287 84.7598 38.954 84.7598 39.0047C84.7852 39.03 84.8105 39.0807 84.8105 39.1313L86.4831 43.7676ZM84.0756 39.9167L83.3406 42.1462H84.8359L84.0756 39.9167Z" fill="white"/>
<path d="M91.729 44.0208C91.729 44.0461 91.729 44.0715 91.7037 44.0968C91.7037 44.1221 91.6783 44.1221 91.6276 44.1475C91.577 44.1728 91.5263 44.1728 91.4503 44.1728C91.3742 44.1728 91.2729 44.1728 91.1208 44.1728C91.0194 44.1728 90.9181 44.1728 90.842 44.1728C90.766 44.1728 90.7153 44.1475 90.69 44.1475C90.6393 44.1221 90.614 44.1221 90.614 44.0968C90.5886 44.0715 90.5886 44.0461 90.5633 44.0208L90.0817 42.8554C90.0311 42.7287 89.9804 42.6021 89.9044 42.5007C89.8537 42.3994 89.7776 42.3234 89.7269 42.2474C89.6509 42.1714 89.5749 42.1207 89.4989 42.0954C89.4228 42.07 89.3215 42.0447 89.1948 42.0447H88.8653V44.0461C88.8653 44.0715 88.8653 44.0968 88.84 44.1221C88.8146 44.1475 88.7892 44.1728 88.7639 44.1728C88.7132 44.1981 88.6625 44.1981 88.6119 44.1981C88.5358 44.1981 88.4598 44.1981 88.3584 44.1981C88.2571 44.1981 88.181 44.1981 88.105 44.1981C88.029 44.1981 87.9783 44.1728 87.953 44.1728C87.9023 44.1475 87.8769 44.1475 87.8769 44.1221C87.8516 44.0968 87.8516 44.0715 87.8516 44.0461V39.2832C87.8516 39.1565 87.8769 39.0805 87.953 39.0299C88.0036 38.9792 88.0797 38.9539 88.181 38.9539H89.5496C89.6763 38.9539 89.803 38.9539 89.879 38.9539C89.9804 38.9539 90.0564 38.9539 90.1324 38.9792C90.3352 39.0045 90.5379 39.0552 90.7153 39.1312C90.8927 39.2072 91.0194 39.3085 91.1461 39.4099C91.2728 39.5366 91.3489 39.6632 91.4249 39.8152C91.4756 39.9672 91.5263 40.1699 91.5263 40.3726C91.5263 40.5499 91.501 40.702 91.4503 40.854C91.3996 41.006 91.3489 41.1326 91.2475 41.234C91.1715 41.3353 91.0448 41.4367 90.9181 41.538C90.7913 41.614 90.6393 41.69 90.4872 41.7407C90.5633 41.766 90.6393 41.8167 90.7153 41.8673C90.7913 41.918 90.842 41.994 90.9181 42.07C90.9687 42.146 91.0448 42.2474 91.0955 42.3234C91.1462 42.4247 91.1968 42.526 91.2475 42.6527L91.6783 43.6914C91.729 43.7928 91.7544 43.8688 91.7544 43.9195C91.729 43.9448 91.729 43.9955 91.729 44.0208ZM90.3605 40.4486C90.3605 40.2713 90.3098 40.1193 90.2338 40.0179C90.1578 39.8912 90.0311 39.8152 89.8537 39.7646C89.803 39.7392 89.7269 39.7392 89.6762 39.7392C89.6002 39.7392 89.5242 39.7392 89.3975 39.7392H88.916V41.234H89.4482C89.6002 41.234 89.7269 41.2086 89.8537 41.1833C89.955 41.158 90.0564 41.1073 90.1324 41.0313C90.2085 40.9553 90.2591 40.8793 90.3098 40.8033C90.3352 40.6766 90.3605 40.5753 90.3605 40.4486Z" fill="white"/>
<path d="M96.2402 43.7423C96.2402 43.8183 96.2402 43.8943 96.2402 43.945C96.2402 43.9956 96.2149 44.0463 96.2149 44.0717C96.1895 44.097 96.1895 44.1223 96.1642 44.1477C96.1389 44.173 96.1135 44.173 96.0881 44.173H93.4525C93.3511 44.173 93.3005 44.1477 93.2244 44.097C93.1738 44.0463 93.123 43.9703 93.123 43.8436V39.2581C93.123 39.1314 93.1484 39.0554 93.2244 39.0047C93.2751 38.954 93.3511 38.9287 93.4525 38.9287H96.0628C96.0882 38.9287 96.1135 38.9287 96.1388 38.954C96.1642 38.9794 96.1642 38.9794 96.1895 39.03C96.2149 39.0554 96.2149 39.1061 96.2149 39.1567C96.2149 39.2074 96.2149 39.2834 96.2149 39.3594C96.2149 39.4354 96.2149 39.5114 96.2149 39.5621C96.2149 39.6127 96.1895 39.6634 96.1895 39.6887C96.1642 39.7141 96.1642 39.7394 96.1388 39.7648C96.1135 39.7901 96.0882 39.7901 96.0628 39.7901H94.1874V41.0822H95.784C95.8094 41.0822 95.8347 41.0822 95.8601 41.1075C95.8854 41.1328 95.8854 41.1328 95.9108 41.1835C95.9361 41.2342 95.9361 41.2595 95.9361 41.3102C95.9361 41.3608 95.9361 41.4368 95.9361 41.5129C95.9361 41.5889 95.9361 41.6649 95.9361 41.7155C95.9361 41.7662 95.9108 41.8169 95.9108 41.8422C95.9108 41.8675 95.8854 41.8929 95.8601 41.9182C95.8347 41.9435 95.8094 41.9435 95.784 41.9435H94.1874V43.413H96.0881C96.1135 43.413 96.1389 43.413 96.1642 43.4383C96.1895 43.4636 96.1895 43.489 96.2149 43.5143C96.2402 43.5396 96.2402 43.5903 96.2402 43.641C96.2402 43.5903 96.2402 43.6663 96.2402 43.7423Z" fill="white"/>
<path d="M104.122 42.5769C104.122 42.7543 104.096 42.9316 104.046 43.0836C103.995 43.2356 103.919 43.3623 103.843 43.489C103.742 43.6156 103.64 43.717 103.513 43.793C103.387 43.869 103.26 43.945 103.108 43.9956C102.956 44.0463 102.804 44.097 102.626 44.1223C102.449 44.1477 102.272 44.173 102.044 44.173H100.65C100.548 44.173 100.498 44.1477 100.422 44.097C100.371 44.0463 100.32 43.9703 100.32 43.8436V39.2581C100.32 39.1314 100.346 39.0554 100.422 39.0047C100.472 38.954 100.548 38.9287 100.65 38.9287H101.968C102.297 38.9287 102.55 38.954 102.779 39.0047C103.007 39.0554 103.184 39.1314 103.336 39.2581C103.488 39.3594 103.615 39.5114 103.691 39.6634C103.767 39.8408 103.818 40.0181 103.818 40.2461C103.818 40.3728 103.792 40.4995 103.767 40.6008C103.742 40.7021 103.691 40.8035 103.615 40.9048C103.564 41.0062 103.488 41.0822 103.387 41.1582C103.285 41.2342 103.184 41.2848 103.083 41.3355C103.235 41.3608 103.361 41.4115 103.488 41.4875C103.615 41.5635 103.716 41.6395 103.818 41.7409C103.919 41.8422 103.995 41.9689 104.046 42.1209C104.096 42.2476 104.122 42.3996 104.122 42.5769ZM102.753 40.3728C102.753 40.2714 102.728 40.1701 102.702 40.0941C102.677 40.0181 102.626 39.9421 102.55 39.8914C102.474 39.8408 102.398 39.7901 102.297 39.7648C102.196 39.7394 102.069 39.7141 101.892 39.7141H101.359V41.0822H101.968C102.12 41.0822 102.246 41.0568 102.348 41.0315C102.449 41.0062 102.525 40.9555 102.576 40.8795C102.627 40.8035 102.677 40.7528 102.702 40.6515C102.728 40.5501 102.753 40.4741 102.753 40.3728ZM103.007 42.6276C103.007 42.5009 102.981 42.3996 102.956 42.2982C102.905 42.1969 102.855 42.1209 102.779 42.0449C102.703 41.9689 102.601 41.9182 102.474 41.8929C102.348 41.8675 102.196 41.8422 101.993 41.8422H101.359V43.3369H102.12C102.272 43.3369 102.398 43.3116 102.5 43.2863C102.601 43.2609 102.677 43.2103 102.753 43.1596C102.829 43.1089 102.88 43.0329 102.931 42.9316C103.007 42.8303 103.007 42.7289 103.007 42.6276Z" fill="white"/>
<path d="M109.9 42.1967C109.9 42.5261 109.849 42.8048 109.748 43.0581C109.647 43.3114 109.52 43.5395 109.343 43.6915C109.165 43.8688 108.937 43.9955 108.658 44.0968C108.38 44.1982 108.075 44.2235 107.721 44.2235C107.391 44.2235 107.087 44.1728 106.834 44.0968C106.58 44.0208 106.352 43.8941 106.175 43.7168C105.997 43.5395 105.845 43.3368 105.769 43.0834C105.668 42.8301 105.617 42.5514 105.617 42.1967V39.0046C105.617 38.9792 105.617 38.9539 105.643 38.9285C105.668 38.9032 105.693 38.8779 105.719 38.8779C105.769 38.8525 105.82 38.8525 105.871 38.8525C105.947 38.8525 106.023 38.8525 106.124 38.8525C106.225 38.8525 106.301 38.8525 106.377 38.8525C106.454 38.8525 106.504 38.8779 106.53 38.8779C106.58 38.9032 106.606 38.9032 106.606 38.9285C106.631 38.9539 106.631 38.9792 106.631 39.0046V42.0954C106.631 42.2981 106.656 42.4754 106.707 42.6274C106.758 42.7794 106.834 42.9061 106.935 43.0074C107.036 43.1088 107.138 43.1848 107.29 43.2354C107.417 43.2861 107.569 43.3114 107.746 43.3114C107.923 43.3114 108.075 43.2861 108.202 43.2354C108.329 43.1848 108.456 43.1088 108.532 43.0074C108.633 42.9061 108.684 42.7794 108.734 42.6527C108.785 42.5007 108.81 42.3487 108.81 42.1714V39.0046C108.81 38.9792 108.81 38.9539 108.836 38.9285C108.861 38.9032 108.886 38.8779 108.912 38.8779C108.937 38.8779 109.013 38.8525 109.064 38.8525C109.114 38.8525 109.216 38.8525 109.317 38.8525C109.419 38.8525 109.495 38.8525 109.571 38.8525C109.647 38.8525 109.697 38.8779 109.723 38.8779C109.748 38.8779 109.799 38.9032 109.799 38.9285C109.824 38.9539 109.824 38.9792 109.824 39.0046V42.1967H109.9Z" fill="white"/>
<path d="M112.738 44.0209C112.738 44.0463 112.738 44.0716 112.713 44.0969C112.688 44.1223 112.662 44.1476 112.637 44.1476C112.586 44.1729 112.536 44.1729 112.485 44.1729C112.409 44.1729 112.333 44.1729 112.231 44.1729C112.13 44.1729 112.054 44.1729 111.978 44.1729C111.902 44.1729 111.851 44.1476 111.826 44.1476C111.775 44.1223 111.75 44.1223 111.75 44.0969C111.725 44.0716 111.725 44.0463 111.725 44.0209V39.0553C111.725 39.03 111.725 39.0047 111.75 38.9793C111.775 38.954 111.801 38.9287 111.851 38.9287C111.902 38.9033 111.953 38.9033 112.003 38.9033C112.079 38.9033 112.155 38.9033 112.257 38.9033C112.358 38.9033 112.46 38.9033 112.51 38.9033C112.586 38.9033 112.637 38.9287 112.662 38.9287C112.713 38.954 112.738 38.954 112.738 38.9793C112.764 39.0047 112.764 39.03 112.764 39.0553V44.0209H112.738Z" fill="white"/>
<path d="M117.375 43.7169C117.375 43.7929 117.375 43.8689 117.375 43.9196C117.375 43.9703 117.35 44.0209 117.35 44.0463C117.325 44.0716 117.325 44.0969 117.299 44.1223C117.274 44.1476 117.249 44.1476 117.223 44.1476H114.816C114.714 44.1476 114.664 44.1223 114.588 44.0716C114.537 44.0209 114.486 43.9449 114.486 43.8183V39.0553C114.486 39.03 114.486 39.0047 114.512 38.9793C114.537 38.954 114.562 38.9287 114.588 38.9287C114.638 38.9033 114.689 38.9033 114.74 38.9033C114.79 38.9033 114.892 38.9033 114.993 38.9033C115.095 38.9033 115.196 38.9033 115.247 38.9033C115.323 38.9033 115.373 38.9287 115.399 38.9287C115.449 38.954 115.475 38.954 115.475 38.9793C115.5 39.0047 115.5 39.03 115.5 39.0553V43.2862H117.147C117.173 43.2862 117.198 43.2862 117.223 43.3116C117.249 43.3369 117.249 43.3622 117.274 43.3876C117.299 43.4129 117.299 43.4636 117.299 43.5142C117.375 43.5649 117.375 43.6409 117.375 43.7169Z" fill="white"/>
<path d="M121.532 39.3341C121.532 39.4101 121.532 39.4861 121.532 39.5367C121.532 39.5874 121.506 39.6381 121.506 39.6634C121.481 39.6887 121.481 39.7141 121.456 39.7394C121.43 39.7648 121.405 39.7648 121.38 39.7648H120.062V43.9956C120.062 44.021 120.062 44.0463 120.036 44.0717C120.011 44.097 119.986 44.1223 119.96 44.1223C119.91 44.1477 119.859 44.1477 119.808 44.1477C119.732 44.1477 119.656 44.1477 119.555 44.1477C119.453 44.1477 119.377 44.1477 119.301 44.1477C119.225 44.1477 119.175 44.1223 119.149 44.1223C119.099 44.097 119.073 44.097 119.073 44.0717C119.073 44.0463 119.048 44.021 119.048 43.9956V39.7901H117.73C117.705 39.7901 117.679 39.7901 117.654 39.7648C117.629 39.7394 117.629 39.7141 117.603 39.6887C117.578 39.6634 117.578 39.6127 117.578 39.5621C117.578 39.5114 117.578 39.4354 117.578 39.3594C117.578 39.2834 117.578 39.2074 117.578 39.1567C117.578 39.1061 117.603 39.0554 117.603 39.03C117.629 39.0047 117.629 38.9794 117.654 38.954C117.679 38.9287 117.705 38.9287 117.73 38.9287H121.43C121.456 38.9287 121.481 38.9287 121.506 38.954C121.532 38.9794 121.532 39.0047 121.557 39.03C121.582 39.0554 121.582 39.1061 121.582 39.1567C121.506 39.1821 121.532 39.2581 121.532 39.3341Z" fill="white"/>
</svg>
