<svg width="293" height="140" viewBox="0 0 293 140" fill="none" xmlns="http://www.w3.org/2000/svg">
<path d="M15.0742 113.43C14.0877 113.43 13.1011 113.484 12.1146 113.419C10.1119 113.265 9.10568 111.829 9.47069 109.67C12.1245 93.9401 14.8078 78.2104 17.4419 62.4697C19.2374 51.7494 20.9934 41.029 22.7395 30.2977C23.3315 26.6585 24.1602 25.9899 27.3565 26.9435C33.2856 28.6974 39.1949 30.5279 45.124 32.2708C46.7419 32.7422 47.3634 33.937 47.6692 35.6141C51.4772 56.6601 55.305 77.6952 59.1228 98.7412C59.7838 102.413 60.504 106.074 61.0071 109.768C61.3721 112.421 60.4843 113.397 58.0574 113.43C56.2126 113.462 54.3579 113.43 52.5032 113.43C50.688 113.43 49.6916 112.487 49.366 110.459C46.436 92.0109 43.4765 73.5627 40.5366 55.1145C40.1321 52.5605 39.7276 50.0174 39.3922 47.4525C39.0667 44.9861 37.942 44.2298 34.9035 43.9667C32.9008 43.7913 32.4174 45.5013 32.1116 47.299C29.7045 61.2858 27.2776 75.2617 24.8705 89.2376C23.7063 96.0008 22.5422 102.753 21.4077 109.516C20.8553 112.838 20.2732 113.419 17.2939 113.43C16.554 113.43 15.8141 113.43 15.0742 113.43Z" fill="white"/>
<path d="M252.7 30.6264C262.427 30.8237 269.718 35.3947 274.029 45.3039C275.065 47.6825 274.562 48.976 272.224 49.7213C270.517 50.2694 268.8 50.7846 267.064 51.245C265.545 51.6506 264.381 51.3107 263.532 49.5788C260.888 44.1748 257.741 42.432 252.276 43.1225C249.237 43.5062 247.235 46.0273 247.215 49.6008C247.195 54.4238 249.001 58.1069 253.065 60.058C256.114 61.5159 259.27 62.6668 262.378 63.9932C268.297 66.5143 274.009 69.4958 278.015 75.2287C283.204 82.6715 284.634 91.2763 282.878 100.287C281.389 107.927 276.298 111.741 269.59 112.936C264.588 113.824 254.446 113.429 249.681 111.391C242.647 108.376 238.297 102.534 235.791 94.8169C235.258 93.1617 236.048 91.9778 237.31 91.6271C239.688 90.9694 242.134 90.6625 244.561 90.235C245.863 90.0048 246.524 90.805 247.166 91.9778C248.172 93.8413 249.188 95.7924 250.569 97.2942C253.736 100.758 262.861 101.514 267.064 100.287C270.813 99.1905 272.233 95.6938 271.375 90.5638C270.576 85.7627 268.248 82.2221 264.292 80.2162C261.165 78.6268 257.84 77.5416 254.693 76.007C251.487 74.4395 248.241 72.8829 245.291 70.8222C238.889 66.3499 236.097 59.4113 235.613 51.2888C235.446 48.5265 235.574 45.6217 236.166 42.9471C237.804 35.5481 243.644 30.8566 251.023 30.6264C251.576 30.6045 252.138 30.6264 252.69 30.6264H252.7Z" fill="white"/>
<path d="M216.721 113.418C211.621 113.44 211.305 113.879 210.21 107.74C207.29 91.375 204.173 75.0533 201.144 58.7098C200.897 57.4053 200.661 56.0132 199.141 55.9803C197.622 55.9584 197.375 57.2409 197.119 58.6221C194.455 73.1022 191.752 87.5713 189.059 102.04C188.546 104.781 188.072 107.521 187.55 110.251C187.076 112.728 186.287 113.408 183.978 113.429C182.193 113.429 180.397 113.473 178.612 113.429C176.254 113.364 175.287 111.95 175.751 109.418C179.421 89.3252 183.081 69.2328 186.741 49.1404C186.751 49.0746 186.751 49.0088 186.77 48.9431C188.033 43.4185 187.392 44.1639 192.709 43.3966C197.218 42.7498 201.726 42.1689 206.244 41.555C206.669 41.5002 207.093 41.3797 207.517 41.3358C210.842 41.0398 211.138 41.2152 211.759 44.9421C214.097 58.7974 216.386 72.6637 218.694 86.53C219.977 94.2359 221.24 101.942 222.532 109.637C222.907 111.862 222.058 113.254 220.056 113.418C218.951 113.506 217.836 113.429 216.731 113.429L216.721 113.418Z" fill="white"/>
<path d="M84.5458 83.965C84.5458 75.5357 84.5458 67.1063 84.5458 58.6769C84.5458 55.8379 83.7171 54.961 81.2113 54.6102C77.0185 54.0073 72.8357 53.2729 68.6528 52.5604C67.2617 52.3192 66.4528 51.3437 66.4232 49.7543C66.364 46.1479 66.3541 42.5306 66.5317 38.9243C71.1881 39.3628 75.7854 40.4041 80.4221 41.0508C88.2847 42.147 96.1573 43.1774 104.03 44.1858C106.782 44.5366 109.545 44.7229 112.297 45.0299C113.846 45.2052 114.556 46.3891 114.625 47.9675C114.714 50.2914 114.714 52.6262 114.625 54.95C114.546 57.2519 113.648 58.1288 111.537 57.9973C107.552 57.7342 103.566 57.3177 99.5707 57.0985C97.2326 56.9669 96.5026 57.8658 96.5026 60.4965C96.5026 76.6647 96.5026 92.8438 96.5026 109.012C96.5026 112.618 95.7627 113.419 92.4578 113.419C90.8497 113.419 89.2515 113.451 87.6435 113.419C85.4435 113.364 84.5458 112.333 84.5359 109.867C84.5359 101.229 84.5359 92.6027 84.5359 83.965H84.5458Z" fill="white"/>
<path d="M126.76 79.3393C126.76 69.6822 126.76 60.0252 126.76 50.3572C126.76 46.9043 127.44 46.1699 130.558 46.2137C131.978 46.2356 133.399 46.2137 134.81 46.2576C137.611 46.3343 138.726 47.5729 138.726 50.6531C138.726 65.3853 138.726 80.1066 138.726 94.8388C138.726 98.8398 139.535 99.7277 143.195 99.7277C152.133 99.7277 149.223 99.7277 158.161 99.7277C162.206 99.7277 163.143 100.78 163.143 105.263C163.143 106.633 163.163 108.004 163.143 109.374C163.103 111.95 161.979 113.287 159.641 113.397C157.796 113.484 155.941 113.419 154.096 113.419C141.035 113.419 139.821 113.419 126.76 113.419C126.76 102.051 126.76 90.6954 126.76 79.3284V79.3393Z" fill="white"/>
</svg>
