<svg width="89" height="29" viewBox="0 0 89 29" fill="none" xmlns="http://www.w3.org/2000/svg">
<path d="M80.4905 18.9187C80.5153 21.193 84.1678 21.2115 84.1616 18.7304C84.1585 15.3914 84.1554 12.1049 84.1554 8.87086C84.1585 6.12438 88.6838 6.02871 88.6745 9.06219C88.6589 13.5214 88.6589 18.104 88.6745 22.8039C88.6776 24.5227 87.401 25.1831 85.8636 25.1739C80.7514 25.1461 75.6204 25.1492 70.4678 25.1831C68.9024 25.1955 67.7439 24.4332 67.7377 22.7267C67.7035 15.1261 67.7191 8.4666 67.7874 2.74219C67.8122 0.656097 70.3653 -0.130818 71.7412 1.39364C72.0642 1.74852 72.2257 2.15895 72.2257 2.62492C72.2288 8.24133 72.2288 13.6479 72.2257 18.8415C72.2257 19.2828 72.5984 20.0173 72.9804 20.258C74.5303 21.2455 75.9683 20.1623 75.9838 18.499C76.0118 15.3297 76.0087 12.1327 75.9714 8.91406C75.9528 7.33098 77.1703 6.2077 78.7263 6.57184C80.1053 6.89586 80.5153 8.00988 80.4998 9.29981C80.4594 12.3518 80.4563 15.5581 80.4905 18.9187Z" fill="white"/>
<path d="M13.6581 12.2376C13.655 10.4446 13.655 8.58691 13.6519 6.66437C13.6488 5.59355 14.1333 4.84675 15.1054 4.42706C15.2266 4.3746 15.3508 4.34683 15.4781 4.34683C21.2458 4.3314 26.9264 4.3314 32.5232 4.34374C32.9363 4.34374 33.3121 4.47027 33.6569 4.72023C35.421 6.01324 34.5824 8.81218 32.3058 8.81527C28.411 8.82144 24.5535 8.82452 20.7333 8.82144C19.9164 8.82144 19.0561 9.10226 18.5871 9.82128C18.0902 10.5835 18.174 11.3859 18.174 12.2252C18.174 12.3425 18.2672 12.4351 18.3852 12.4351C21.2396 12.4567 24.1125 12.4567 27.0041 12.4412C30.2715 12.4227 30.1721 17.0331 27.0817 17.0331C24.1218 17.0331 21.1961 17.03 18.3045 17.0208C18.23 17.0208 18.1709 17.0825 18.1772 17.1535C18.1927 17.5145 18.1927 17.8725 18.1772 18.2335C18.1244 19.3537 19.0437 20.4554 20.1028 20.5727C20.5035 20.6159 20.9414 20.6344 21.4166 20.6313C25.2586 20.5943 28.9701 20.6005 32.5543 20.6468C32.9239 20.6498 33.278 20.7702 33.6103 21.0078C35.5359 22.378 34.5048 25.1646 32.1536 25.1646C27.355 25.1615 22.0626 25.1646 16.2764 25.1738C12.2915 25.18 14.2482 20.9461 13.4655 18.8662C13.009 17.6472 12.1642 17.0362 10.9373 17.03C9.10487 17.0208 7.25687 17.0269 5.39645 17.0424C3.93047 17.0578 2.71607 16.1937 2.79061 14.6847C2.86515 13.185 3.74412 12.4351 5.42751 12.4351C8.22591 12.4351 10.9001 12.4382 13.45 12.4443C13.5898 12.4443 13.6581 12.3764 13.6581 12.2376Z" fill="white"/>
<path d="M56.6248 8.00683C57.1062 6.89898 57.9137 6.40831 59.0505 6.52867C60.1903 6.6521 61.0413 7.58714 61.0413 8.70425C61.0382 14.4595 61.0382 20.3784 61.0444 26.4607C61.0444 29.4541 56.4601 29.5035 56.4788 26.2324C56.4943 23.8007 56.4881 21.4399 56.4633 19.1532C56.4477 17.7985 55.4694 16.9962 54.1245 16.9993C51.8013 17.0085 49.5309 17.0023 47.3133 16.9869C45.9312 16.9746 44.7292 17.5701 44.6857 19.0298C44.6516 20.1099 44.6547 21.2455 44.6951 22.4336C44.7168 23.0909 44.5833 23.6464 44.2975 24.1062C43.3968 25.5535 41.1699 25.4732 40.3624 23.955C40.1325 23.5229 40.0207 22.986 40.0238 22.3441C40.0642 17.7368 40.0642 12.5925 40.0238 6.91441C40.0114 5.47945 40.8531 4.32839 42.3905 4.30679C42.9837 4.30062 43.4838 4.48577 43.8844 4.85917C44.4435 5.37761 44.6795 6.02566 44.6764 6.78788C44.6733 7.88956 44.6702 9.00667 44.6671 10.1392C44.6609 11.6451 45.6268 12.4475 47.0742 12.4475C49.6365 12.4537 52.084 12.4568 54.4165 12.4568C55.3203 12.4598 55.9477 11.9908 56.3017 11.0496C56.6434 10.1516 56.2272 8.92027 56.6248 8.00683Z" fill="white"/>
<path d="M7.11029 19.7031L2.04774 19.7206C1.02197 19.7242 0.193332 20.5533 0.196913 21.5724L0.197498 21.7391C0.201079 22.7582 1.03553 23.5816 2.06129 23.578L7.12385 23.5604C8.14961 23.5569 8.97825 22.7278 8.97467 21.7086L8.97408 21.542C8.9705 20.5228 8.13605 19.6995 7.11029 19.7031Z" fill="white"/>
</svg>
