<svg width="115" height="40" viewBox="0 0 115 40" fill="none" xmlns="http://www.w3.org/2000/svg">
<path d="M5.43869 16.4232C10.2781 11.8948 16.4784 8.98149 22.8879 7.20982C24.5267 6.75815 26.1772 6.38815 27.8394 6.09982C28.2361 6.03149 28.6011 5.95982 28.9342 5.88482C29.2187 5.82149 29.4816 5.82816 29.7628 5.77982C30.4307 5.66316 31.0902 5.57815 31.7414 5.52649C32.0879 5.49815 32.4394 5.44982 32.7943 5.38315C33.1324 5.31982 33.4974 5.29482 33.8907 5.30649C33.9493 5.30816 33.9527 5.32149 33.8974 5.34649C33.7618 5.40816 33.6212 5.44649 33.4756 5.46149C32.9801 5.51482 32.4712 5.58649 31.949 5.67482C30.3068 5.95649 28.6195 6.33482 26.8886 6.81316C23.9843 7.61482 21.1905 8.66982 18.5089 9.98149C14.8111 11.7898 11.5168 14.0998 8.62756 16.9148C8.5924 16.9498 8.54888 16.9682 8.49866 16.9715C7.57297 17.0215 6.62384 17.0248 5.64794 16.9815C5.36002 16.9698 5.22945 16.6198 5.43869 16.4232Z" fill="white"/>
<path d="M88.7479 14.65C88.7392 15.9985 87.6327 17.0835 86.2785 17.0746L85.9303 17.0722C84.5761 17.0635 83.4863 15.9618 83.4952 14.6135L83.5145 11.8636C83.5232 10.5151 84.6296 9.43014 85.9838 9.43902L86.332 9.44144C87.6863 9.45014 88.776 10.5518 88.7672 11.9001L88.7479 14.65ZM87.9433 11.847C87.9424 10.9035 87.1724 10.1401 86.2245 10.1416L86.0169 10.142C85.0699 10.1435 84.3032 10.9101 84.3041 11.8533L84.309 14.66C84.3099 15.6035 85.0799 16.3668 86.0278 16.3653L86.2354 16.365C87.1824 16.3635 87.9491 15.5968 87.9482 14.6536L87.9433 11.847Z" fill="white"/>
<path d="M98.7411 14.6601C98.7325 16.0052 97.6277 17.0886 96.2768 17.0797L95.9353 17.0773C94.5845 17.0686 93.4964 15.9686 93.5052 14.6237L93.5246 11.8537C93.5332 10.5086 94.638 9.42524 95.9889 9.43414L96.3304 9.43652C97.6813 9.44524 98.7693 10.5452 98.7606 11.8901L98.7411 14.6601ZM97.975 11.8684C97.9759 10.9202 97.2059 10.1502 96.2538 10.1488L96.0395 10.1484C95.0867 10.1469 94.3133 10.9136 94.3124 11.8621L94.3075 14.6387C94.3066 15.5869 95.0766 16.3569 96.0287 16.3584L96.2429 16.3588C97.1958 16.3602 97.9692 15.5936 97.9701 14.6451L97.975 11.8684Z" fill="white"/>
<path d="M5.52242 9.73979L5.72329 9.47812C5.73501 9.46312 5.75342 9.45479 5.77183 9.45479L9.031 9.45312C9.0444 9.45312 9.05611 9.45646 9.06783 9.46479L11.4884 11.2365C11.5235 11.2631 11.5202 11.3165 11.4817 11.3381L9.28377 12.5065C9.26368 12.5181 9.23857 12.5165 9.22016 12.5031L5.53581 9.82479C5.50735 9.80479 5.50233 9.76646 5.52242 9.73979Z" fill="white"/>
<path d="M26.8048 12.8702H30.3117C30.3452 12.8702 30.3736 12.8419 30.3736 12.8085L30.3669 9.56187C30.3669 9.52853 30.3954 9.5002 30.4289 9.5002L31.1035 9.50187C31.1369 9.50187 31.1654 9.5302 31.1654 9.56354V16.9652C31.1654 17.0002 31.1386 17.0269 31.1035 17.0269L30.4322 17.0352C30.3987 17.0352 30.3703 17.0069 30.3703 16.9735L30.3686 13.6135C30.3686 13.5802 30.3402 13.5519 30.3067 13.5519H26.8031C26.7696 13.5519 26.7412 13.5802 26.7412 13.6135L26.7428 16.9719C26.7428 17.0052 26.7144 17.0335 26.6809 17.0335L26.0314 17.0285C25.9963 17.0285 25.9695 17.0019 25.9695 16.9669L25.9728 9.5602C25.9728 9.52687 26.0013 9.49854 26.0348 9.49854L26.6809 9.50187C26.7161 9.50187 26.7428 9.52854 26.7428 9.56354V12.8085C26.7428 12.8419 26.7713 12.8702 26.8048 12.8702Z" fill="white"/>
<path d="M38.0688 12.9102C38.1374 13.0485 38.2044 13.0485 38.273 12.9085L39.8666 9.6152C39.9017 9.54353 39.9737 9.49854 40.0541 9.49854L40.6718 9.50353C40.7303 9.50353 40.7688 9.56687 40.7404 9.6202C40.0457 10.9585 39.3711 12.2869 38.7132 13.6052C38.648 13.7369 38.6161 13.8802 38.6161 14.0352C38.6195 15.0019 38.6212 15.9769 38.6195 16.9619C38.6195 17.0002 38.5877 17.0319 38.5475 17.0319H37.8579C37.8043 17.0319 37.7775 17.0052 37.7758 16.9519C37.7708 16.0702 37.7725 15.1735 37.7809 14.2602C37.7825 14.0319 37.734 13.8202 37.6319 13.6235C36.8953 12.2119 36.214 10.8752 35.5863 9.61687C35.5478 9.54187 35.5712 9.50353 35.6566 9.50353L36.2408 9.49854C36.3346 9.49854 36.4032 9.5402 36.445 9.62354L38.0688 12.9102Z" fill="white"/>
<path d="M45.9933 14.0068L45.995 16.9701C45.995 17.0101 45.9749 17.0301 45.9364 17.0301H45.2618C45.225 17.0301 45.1948 17.0001 45.1948 16.9634L45.1965 9.57678C45.1965 9.53178 45.2317 9.49678 45.2769 9.49678C46.1021 9.50844 46.9742 9.50678 47.8932 9.48844C48.382 9.48011 48.7955 9.55178 49.1336 9.70344C50.3723 10.2568 50.7356 11.9584 49.9421 13.0151C49.4851 13.6251 48.8357 13.9251 47.997 13.9151C47.3525 13.9084 46.7198 13.9034 46.1004 13.9018C46.0284 13.9018 45.9933 13.9368 45.9933 14.0068ZM45.9966 10.2501L45.9916 13.1134C45.9899 13.1518 46.0218 13.1834 46.0603 13.1834L48.0958 13.1868C48.8993 13.1884 49.5504 12.5768 49.5521 11.8218V11.5551C49.5538 10.7984 48.9043 10.1851 48.1025 10.1834L46.067 10.1801C46.0268 10.1801 45.9966 10.2118 45.9966 10.2501Z" fill="white"/>
<path d="M55.9835 12.8717L59.1472 12.8667C59.1841 12.8667 59.2142 12.8967 59.2142 12.9333L59.2209 13.485C59.2209 13.5217 59.1908 13.5517 59.1539 13.5517H55.9818C55.945 13.5517 55.9149 13.5817 55.9149 13.6183L55.9132 16.2367C55.9132 16.2733 55.9433 16.3033 55.9801 16.3033L59.7331 16.3017C59.77 16.3017 59.8001 16.3317 59.8001 16.3683L59.7951 16.965C59.7951 17.0017 59.7649 17.0317 59.7281 17.0317H55.18C55.1432 17.0317 55.113 17.0017 55.113 16.965L55.1147 9.56667C55.1147 9.53 55.1448 9.5 55.1817 9.5H59.7348C59.7716 9.5 59.8018 9.53 59.8018 9.56667L59.7951 10.1117C59.7951 10.1483 59.7649 10.1783 59.7281 10.1783L55.9785 10.175C55.9416 10.175 55.9115 10.205 55.9115 10.2417L55.9165 12.805C55.9165 12.8417 55.9467 12.8717 55.9835 12.8717Z" fill="white"/>
<path d="M65.4913 13.7698V16.9965C65.4913 17.0215 65.4796 17.0331 65.4545 17.0331L64.7698 17.0298C64.7414 17.0298 64.728 17.0165 64.728 16.9881L64.7263 9.55812C64.7263 9.51479 64.7481 9.49312 64.7933 9.49312C65.7257 9.51145 66.6095 9.50812 67.4415 9.48479C67.9353 9.46979 68.3571 9.54479 68.707 9.70812C70.3776 10.4881 70.2118 13.1265 68.3169 13.5615C68.2516 13.5765 68.2165 13.6498 68.2483 13.7098L69.9356 16.9265C69.9624 16.9765 69.9256 17.0365 69.8687 17.0365L69.1824 17.0265C69.1003 17.0248 69.025 16.9798 68.9882 16.9065L67.3762 13.7598C67.3427 13.6948 67.2891 13.6631 67.2171 13.6631H65.5984C65.5265 13.6631 65.4913 13.6981 65.4913 13.7698ZM65.4913 10.2581V12.9015C65.4913 12.9481 65.5281 12.9848 65.575 12.9848H67.6072C68.4056 12.9848 69.0535 12.3881 69.0535 11.6531V11.5065C69.0535 10.7715 68.4056 10.1748 67.6072 10.1748H65.575C65.5281 10.1748 65.4913 10.2115 65.4913 10.2581Z" fill="white"/>
<path d="M75.7593 16.3035L79.4704 16.3019C79.5123 16.3019 79.5474 16.3369 79.5474 16.3785V16.9552C79.5474 16.9969 79.5123 17.0319 79.4704 17.0319H74.9759C74.934 17.0319 74.8989 16.9969 74.8989 16.9552L74.8972 9.5752C74.8972 9.53353 74.9324 9.49854 74.9742 9.49854L75.6086 9.50187C75.6522 9.50187 75.6856 9.5352 75.6856 9.57854L75.6823 16.2269C75.6823 16.2685 75.7174 16.3035 75.7593 16.3035Z" fill="white"/>
<path d="M104.707 14.0315V16.9881C104.707 17.0165 104.694 17.0298 104.665 17.0298L103.94 17.0331C103.905 17.0331 103.887 17.0148 103.887 16.9798L103.888 9.59146C103.888 9.52313 103.924 9.48979 103.992 9.49146C104.757 9.51146 105.567 9.50979 106.423 9.48646C107.066 9.46979 107.559 9.55313 107.904 9.73646C108.577 10.0948 108.954 10.6415 109.032 11.3798C109.19 12.8548 108.205 13.9365 106.754 13.9148C106.12 13.9048 105.477 13.9015 104.829 13.9065C104.747 13.9081 104.707 13.9498 104.707 14.0315ZM104.704 10.2398L104.71 13.1365C104.71 13.1665 104.734 13.1915 104.766 13.1915L106.801 13.1881C107.616 13.1865 108.277 12.5348 108.276 11.7315V11.6315C108.274 10.8298 107.611 10.1798 106.794 10.1815L104.759 10.1848C104.729 10.1848 104.704 10.2098 104.704 10.2398Z" fill="white"/>
<path d="M15.3618 16.9567L12.3303 14.7667C12.2114 14.68 12.2081 14.505 12.3236 14.4167L13.9088 13.1967C13.9858 13.1383 14.0929 13.1367 14.1733 13.1933L18.847 16.6067C19.0177 16.7317 18.929 17.0017 18.7164 17.0017L15.489 16.9983C15.4438 16.9983 15.3986 16.9833 15.3618 16.9567Z" fill="white"/>
<path d="M108.979 21.2085H5.29139C5.25626 21.2085 5.22778 21.2369 5.22778 21.2718V21.7252C5.22778 21.7601 5.25626 21.7885 5.29139 21.7885H108.979C109.014 21.7885 109.042 21.7601 109.042 21.7252V21.2718C109.042 21.2369 109.014 21.2085 108.979 21.2085Z" fill="white"/>
<path d="M15.9646 29.1827C15.9627 30.0165 15.2831 30.6915 14.4454 30.69L14.2244 30.6896C13.3865 30.6882 12.7086 30.0115 12.7105 29.177L12.7134 27.4937C12.7153 26.6598 13.3949 25.9848 14.2326 25.9863L14.4536 25.9867C15.2915 25.9882 15.9694 26.6648 15.9675 27.4993L15.9646 29.1827ZM15.4405 27.4448C15.4405 26.8682 14.9701 26.3998 14.3909 26.3998H14.2603C13.6811 26.3998 13.2108 26.8682 13.2108 27.4448V29.2315C13.2108 29.8082 13.6811 30.2765 14.2603 30.2765H14.3909C14.9701 30.2765 15.4405 29.8082 15.4405 29.2315V27.4448Z" fill="white"/>
<path d="M34.4498 26.6083C34.2087 26.7566 34.0664 27.0233 34.0346 27.2966C33.9543 27.9816 33.9543 28.6816 34.0363 29.3933C34.0748 29.715 34.2271 29.95 34.4933 30.0983C35.0775 30.42 35.5864 30.3416 36.0233 29.8633C36.1187 29.7583 36.1689 29.63 36.1756 29.4783C36.1806 29.38 36.2325 29.33 36.3313 29.33L36.6276 29.3266C36.6962 29.3266 36.7246 29.3616 36.7129 29.43C36.3848 31.26 33.5726 31.1116 33.5174 29.16C33.5006 28.605 33.499 28.085 33.5123 27.5966C33.5408 26.5883 34.048 26.0516 35.0306 25.9883C35.9212 25.93 36.4853 26.345 36.7213 27.2316C36.738 27.2983 36.7129 27.3316 36.6443 27.3333L36.3229 27.3383C36.2476 27.34 36.184 27.285 36.1739 27.2133C36.1388 26.995 36.0752 26.8416 35.9814 26.755C35.511 26.3216 35.0005 26.2733 34.4498 26.6083Z" fill="white"/>
<path d="M44.3647 29.1928C44.3628 30.0233 43.6849 30.6966 42.8505 30.6951L42.6395 30.6948C41.805 30.6933 41.1288 30.0183 41.1306 29.1871L41.1336 27.4838C41.1355 26.6533 41.8134 25.98 42.6478 25.9814L42.8587 25.9818C43.6932 25.9833 44.3695 26.6583 44.3677 27.4894L44.3647 29.1928ZM43.8539 27.4533C43.8539 26.8733 43.3802 26.4016 42.7977 26.4016H42.6705C42.0879 26.4016 41.6142 26.8733 41.6142 27.4533V29.2233C41.6142 29.8033 42.0879 30.275 42.6705 30.275H42.7977C43.3802 30.275 43.8539 29.8033 43.8539 29.2233V27.4533Z" fill="white"/>
<path d="M100.921 29.1862C100.915 30.0232 100.229 30.6965 99.3889 30.6906L99.168 30.689C98.3274 30.6832 97.6511 29.9998 97.657 29.1635L97.6688 27.4869C97.6746 26.6498 98.3609 25.9765 99.201 25.9825L99.4219 25.984C100.263 25.9898 100.939 26.6732 100.933 27.5095L100.921 29.1862ZM100.411 27.4635C100.413 26.8782 99.9361 26.4032 99.3486 26.4016L99.2214 26.4014C98.6338 26.3998 98.1567 26.8748 98.1549 27.4595L98.1518 29.2129C98.15 29.7982 98.6271 30.2732 99.2146 30.2747L99.3418 30.2749C99.9294 30.2765 100.406 29.8015 100.408 29.2168L100.411 27.4635Z" fill="white"/>
<path d="M5.74675 28.9099L5.74507 30.6233C5.74507 30.6583 5.72833 30.6766 5.69318 30.6766L5.37178 30.6799C5.31654 30.6816 5.28809 30.6533 5.28809 30.5983V26.0816C5.28809 26.0433 5.31822 26.0133 5.35672 26.0116C5.9426 25.9966 6.53517 25.9983 7.13277 26.0166C8.66108 26.0599 8.95402 28.0799 7.60985 28.6399C7.05242 28.8733 6.45148 28.7866 5.86392 28.7916C5.78525 28.7933 5.74675 28.8316 5.74675 28.9099ZM5.74507 26.4966V28.2333C5.74507 28.2716 5.7752 28.3016 5.8137 28.3016H7.06749C7.56632 28.3016 7.97142 27.9099 7.97142 27.4266V27.3033C7.97142 26.8199 7.56632 26.4283 7.06749 26.4283H5.8137C5.7752 26.4283 5.74507 26.4583 5.74507 26.4966Z" fill="white"/>
<path d="M20.6196 26.0732C20.6196 26.0332 20.6514 26.0015 20.6916 26.0015L22.2969 25.9932C23.1858 25.9882 23.9106 26.7682 23.9156 27.7332L23.9223 28.9232C23.9273 29.8882 23.2109 30.6749 22.3204 30.6799L20.715 30.6882C20.6765 30.6882 20.6431 30.6565 20.6431 30.6165L20.6196 26.0732ZM21.1252 26.4882L21.1319 30.1882C21.1319 30.2265 21.1637 30.2582 21.2022 30.2582L22.2065 30.2565C22.8627 30.2549 23.3934 29.7099 23.3934 29.0365L23.39 27.6332C23.39 26.9599 22.856 26.4149 22.1998 26.4165L21.1955 26.4182C21.157 26.4182 21.1252 26.4499 21.1252 26.4882Z" fill="white"/>
<path d="M49.5522 27.335L49.5538 30.5717C49.5538 30.65 49.5137 30.6884 49.435 30.685L49.1688 30.675C49.0801 30.6717 49.0349 30.6267 49.0349 30.5384L49.0383 26.135C49.0383 26.0517 49.0801 26.0084 49.1638 26.0067L49.3881 26C49.4869 25.9984 49.5555 26.04 49.5957 26.1284L50.9934 29.1717C51.0236 29.2384 51.119 29.2384 51.1491 29.1717L52.5167 26.1184C52.5519 26.04 52.6105 26.0017 52.6958 26.0017L52.9771 26.0034C53.0557 26.0034 53.0959 26.0434 53.0959 26.1217L53.0976 30.54C53.0976 30.625 53.0256 30.6934 52.9402 30.6884L52.7159 30.6767C52.6222 30.6717 52.5753 30.6217 52.5753 30.5284L52.5736 27.32C52.5736 27.1517 52.5385 27.1434 52.4698 27.2984L51.3282 29.8284C51.2278 30.0534 50.9064 30.055 50.8026 29.8317L49.6375 27.3167C49.5806 27.1934 49.5522 27.2 49.5522 27.335Z" fill="white"/>
<path d="M58.4073 28.9132L58.414 30.5749C58.414 30.6482 58.3771 30.6849 58.3035 30.6832L58.0491 30.6766C57.9637 30.6749 57.9202 30.6316 57.9202 30.5466L57.9218 26.0866C57.9218 26.0449 57.9553 26.0116 57.9955 26.0099C58.6534 25.9949 59.2928 26.0016 59.9138 26.0266C60.4411 26.0482 60.9349 26.4749 61.0538 27.0082C61.2413 27.8366 60.7993 28.5682 59.959 28.7332C59.492 28.8249 59.0082 28.8016 58.5345 28.7882C58.4491 28.7866 58.4056 28.8282 58.4073 28.9132ZM58.4106 26.4699L58.4073 28.2566C58.4073 28.2799 58.4274 28.2999 58.4508 28.2999L59.7079 28.3016C60.2001 28.3032 60.6001 27.9199 60.6018 27.4466V27.2866C60.6035 26.8132 60.2034 26.4299 59.7113 26.4282L58.4542 26.4266C58.4307 26.4266 58.4106 26.4449 58.4106 26.4699Z" fill="white"/>
<path d="M66.0371 28.6182L66.0387 30.1799C66.0387 30.2199 66.0722 30.2532 66.1124 30.2532L68.3889 30.2515C68.4291 30.2515 68.4626 30.2849 68.4626 30.3249L68.4643 30.6049C68.4643 30.6449 68.4308 30.6782 68.3906 30.6782L65.5968 30.6732C65.5566 30.6732 65.5232 30.6399 65.5232 30.5999L65.5215 26.0782C65.5215 26.0382 65.555 26.0049 65.5951 26.0049H68.3889C68.4291 26.0049 68.4626 26.0382 68.4626 26.0782L68.4609 26.3482C68.4609 26.3882 68.4275 26.4215 68.3873 26.4215L66.1107 26.4182C66.0705 26.4182 66.0371 26.4515 66.0371 26.4915L66.0404 28.0365C66.0404 28.0765 66.0739 28.1099 66.1141 28.1099L68.024 28.1065C68.0659 28.1065 68.0994 28.1399 68.0977 28.1815L68.0943 28.4732C68.0927 28.5132 68.0609 28.5449 68.0207 28.5449H66.1107C66.0705 28.5449 66.0371 28.5782 66.0371 28.6182Z" fill="white"/>
<path d="M73.7925 26.4149L72.5421 26.4232C72.5019 26.4232 72.4684 26.3899 72.4684 26.3499L72.4651 26.0782C72.4651 26.0382 72.4986 26.0049 72.5387 26.0049H75.6322C75.6724 26.0049 75.7058 26.0382 75.7058 26.0782L75.7025 26.3515C75.7025 26.3915 75.669 26.4249 75.6288 26.4249L74.427 26.4149C74.3868 26.4149 74.3533 26.4482 74.3533 26.4882L74.3516 30.6132C74.3516 30.6532 74.3181 30.6865 74.278 30.6865L73.9398 30.6815C73.898 30.6815 73.8662 30.6499 73.8662 30.6082V26.4882C73.8662 26.4482 73.8327 26.4149 73.7925 26.4149Z" fill="white"/>
<path d="M80.4681 26.0034H80.1065C80.064 26.0034 80.0295 26.0377 80.0295 26.0801V30.6001C80.0295 30.6424 80.064 30.6768 80.1065 30.6768H80.4681C80.5106 30.6768 80.5451 30.6424 80.5451 30.6001V26.0801C80.5451 26.0377 80.5106 26.0034 80.4681 26.0034Z" fill="white"/>
<path d="M86.2215 26.4185L84.9426 26.4218C84.9041 26.4218 84.8706 26.3885 84.8706 26.3502L84.874 26.0785C84.874 26.0385 84.9058 26.0068 84.9459 26.0068H88.0611C88.1013 26.0068 88.1331 26.0385 88.1331 26.0785L88.1314 26.3468C88.1314 26.3868 88.0996 26.4185 88.0595 26.4185L86.8291 26.4202C86.7889 26.4202 86.7571 26.4518 86.7571 26.4918V30.6085C86.7571 30.6485 86.7253 30.6802 86.6852 30.6802L86.3638 30.6785C86.3236 30.6785 86.2918 30.6468 86.2918 30.6068L86.2935 26.4902C86.2935 26.4502 86.2617 26.4185 86.2215 26.4185Z" fill="white"/>
<path d="M92.8854 26.0034H92.5172C92.4737 26.0034 92.4385 26.0385 92.4385 26.0818V30.5984C92.4385 30.6417 92.4737 30.6768 92.5172 30.6768H92.8854C92.9289 30.6768 92.9641 30.6417 92.9641 30.5984V26.0818C92.9641 26.0385 92.9289 26.0034 92.8854 26.0034Z" fill="white"/>
<path d="M108.586 29.6252L108.58 26.1152C108.58 26.0418 108.617 26.0052 108.691 26.0052L108.925 26.0018C108.991 26.0018 109.042 26.0535 109.042 26.1185V30.5452C109.042 30.6018 109.016 30.6402 108.96 30.6585C108.751 30.7335 108.586 30.6785 108.463 30.4935C107.782 29.4718 107.045 28.3602 106.257 27.1618C106.147 26.9935 106.091 27.0102 106.091 27.2102L106.095 30.5852C106.095 30.6468 106.063 30.6785 106.001 30.6768L105.67 30.6752C105.611 30.6735 105.581 30.6435 105.581 30.5852L105.579 26.1285C105.579 26.0735 105.606 26.0385 105.661 26.0235C105.892 25.9635 106.068 26.0235 106.187 26.2018C106.992 27.4052 107.757 28.5568 108.483 29.6568C108.552 29.7602 108.587 29.7502 108.586 29.6252Z" fill="white"/>
</svg>
