<svg width="282" height="145" viewBox="0 0 282 145" fill="none" xmlns="http://www.w3.org/2000/svg">
<path d="M104.615 15.8266L86.2142 25.0099C86.1477 25.0384 86.0717 25.0573 86.0053 25.0573H77.118C76.6907 25.0573 76.4818 24.5456 76.7857 24.2518L85.9863 15.0684C86.0717 14.9831 86.1952 14.9263 86.3186 14.9263H104.406C104.91 14.9263 105.071 15.5991 104.615 15.8266Z" fill="white"/>
<path d="M159.506 35.9182V115.498C159.506 115.763 159.297 115.971 159.031 115.971H148.492C148.226 115.971 148.017 115.763 148.017 115.498V103.699C148.017 103.547 147.941 103.405 147.817 103.31C140.677 98.363 134.496 92.127 129.616 84.9907C129.35 84.6022 128.752 84.7822 128.752 85.2561V115.498C128.752 115.763 128.543 115.971 128.277 115.971H117.737C117.472 115.971 117.263 115.763 117.263 115.498V35.9182C117.263 35.6528 117.472 35.4443 117.737 35.4443H128.277C128.543 35.4443 128.752 35.6528 128.752 35.9182V45.0162C128.752 61.4306 135.417 76.8499 147.21 88.0519C147.514 88.3362 148.017 88.1182 148.017 87.7012V35.9182C148.017 35.6528 148.226 35.4443 148.492 35.4443H159.031C159.297 35.4443 159.506 35.6528 159.506 35.9182Z" fill="white"/>
<path d="M75.5893 47.3855V81.0104C75.5893 81.2757 75.7982 81.4842 76.064 81.4842H98.1778C98.4436 81.4842 98.6525 81.6927 98.6525 81.9581V92.4777C98.6525 92.743 98.4436 92.9515 98.1778 92.9515H76.064C75.7982 92.9515 75.5893 93.16 75.5893 93.4254V104.03C75.5893 104.296 75.7982 104.504 76.064 104.504H105.869C106.135 104.504 106.343 104.713 106.343 104.978V115.498C106.343 115.763 106.135 115.971 105.869 115.971H64.5752C64.3093 115.971 64.1004 115.763 64.1004 115.498V35.9182C64.1004 35.6528 64.3093 35.4443 64.5752 35.4443H105.869C106.135 35.4443 106.343 35.6528 106.343 35.9182V46.4378C106.343 46.7032 106.135 46.9117 105.869 46.9117H76.064C75.7982 46.9117 75.5893 47.1202 75.5893 47.3855Z" fill="white"/>
<path d="M55.1277 115.972H43.2685C43.0976 115.972 42.9457 115.886 42.8602 115.744L28.3614 91.6249C28.1715 91.3027 27.6968 91.3217 27.5259 91.6534L23.8038 99.0739C23.7754 99.1403 23.7564 99.2161 23.7564 99.2824V115.488C23.7564 115.754 23.5475 115.962 23.2816 115.962H12.7517C12.4859 115.962 12.277 115.754 12.277 115.488V35.9184C12.277 35.653 12.4859 35.4445 12.7517 35.4445H23.2816C23.5475 35.4445 23.7564 35.653 23.7564 35.9184V71.6377C23.7564 72.14 24.4305 72.3011 24.6584 71.8462L42.7653 35.7004C42.8412 35.5393 43.0121 35.4351 43.1925 35.4351H54.9188C55.2701 35.4351 55.498 35.8047 55.3461 36.1174L33.9255 78.8687C33.8495 79.0109 33.859 79.1815 33.9445 79.3236L55.536 115.242C55.7259 115.555 55.498 115.962 55.1277 115.962V115.972Z" fill="white"/>
<path d="M272.002 91.2171C272.002 93.1883 271.774 95.1596 271.318 97.074L271.261 97.3204C270.036 102.23 267.378 106.608 263.58 109.991C258.965 114.114 253.002 116.379 246.793 116.379C240.241 116.379 234.032 113.877 229.322 109.337L228.562 108.598C228.411 108.456 228.373 108.229 228.467 108.048L233.718 97.5573C233.88 97.2446 234.307 97.2066 234.525 97.4815L235.921 99.339C238.751 103.101 243.213 105.12 247.97 104.722C254.246 104.201 259.44 99.2632 260.257 93.0272C261.178 86.0331 256.724 79.6929 250.087 78.0439L244.514 76.755L244.533 76.7171C243.982 76.5465 243.432 76.357 242.881 76.1295C240.184 75.0776 237.754 73.5044 235.693 71.4478C231.61 67.439 229.37 62.0655 229.37 56.3318C229.37 44.5991 238.931 35.0557 250.686 35.0557C254.655 35.0557 258.528 36.155 261.89 38.2305L263.001 38.9223C263.209 39.055 263.285 39.3204 263.172 39.5383L258.339 49.1861C258.206 49.4419 257.873 49.5272 257.636 49.3566L256.269 48.39C254.275 46.9874 251.844 46.3903 249.375 46.7125C245.084 47.2622 241.608 50.7308 241.039 55.0145C240.412 59.772 243.232 64.1315 247.666 65.5625C247.904 65.6383 248.122 65.7047 248.35 65.7615L253.677 66.9651L253.648 66.9936C255.015 67.3821 256.354 67.8844 257.645 68.5004C259.212 69.2397 260.722 70.1589 262.127 71.2393C262.345 71.4099 262.554 71.571 262.763 71.7511C263.399 72.2723 264.045 72.8504 264.634 73.438C269.381 78.1861 271.992 84.4978 271.992 91.2076L272.002 91.2171Z" fill="white"/>
<path d="M221.175 60.1988V91.2175C221.175 95.956 219.856 100.571 217.358 104.542C212.896 111.679 205.214 116.104 196.792 116.389C196.517 116.398 196.232 116.398 195.947 116.398C195.662 116.398 195.387 116.398 195.102 116.389C186.414 116.294 177.176 114.37 169.067 111.205C168.744 111.082 168.668 110.665 168.906 110.428L183.044 96.3161C183.139 96.2214 183.29 96.2498 183.347 96.373L183.376 96.4299C185.446 101.017 189.757 104.343 194.77 104.77C202.812 105.452 209.572 99.1119 209.572 91.2269V65.0227C209.572 64.9753 209.591 64.9279 209.629 64.89L213.408 61.1181L217.159 57.3652L218.83 55.7067L220.197 54.342C220.302 54.2377 220.482 54.2851 220.511 54.4273C220.957 56.3037 221.175 58.2371 221.175 60.1988Z" fill="white"/>
<path d="M209.193 54.74C208.946 54.9864 208.538 54.8821 208.414 54.5599C206.012 48.2197 199.945 45.8883 194.067 46.7318C187.259 47.7079 182.332 53.7354 182.332 60.5968V86.5073C182.332 86.5073 182.332 86.5262 182.322 86.5357L180.414 88.4501L173.083 95.7664L171.536 97.3017C171.536 97.3017 171.479 97.3112 171.469 97.2828C170.976 95.321 170.729 93.2834 170.729 91.2269V60.1988C170.729 55.4602 172.048 50.8543 174.555 46.8834C174.736 46.5991 174.869 46.3811 175.011 46.1726C175.125 45.9831 175.286 45.7556 175.467 45.5282C175.533 45.4239 175.657 45.2628 175.771 45.1017L175.856 44.9785C176.103 44.6563 176.34 44.3625 176.578 44.0877C176.805 43.8223 177.062 43.519 177.328 43.2347C177.451 43.1021 177.613 42.9315 177.774 42.7514L178.344 42.1733C178.961 41.5668 179.606 40.9981 180.281 40.4674C180.518 40.2779 180.793 40.0694 181.069 39.8609C181.183 39.7756 181.344 39.6619 181.505 39.5576C181.914 39.2638 182.388 38.9511 182.863 38.6668C183.053 38.5436 183.291 38.4109 183.537 38.2782C185.36 37.2452 187.316 36.4396 189.339 35.89C189.662 35.7952 190.013 35.7099 190.355 35.6341L190.564 35.5962C190.725 35.5583 190.896 35.5204 191.076 35.4919C191.238 35.454 191.456 35.4161 191.694 35.3782C191.751 35.3687 191.798 35.3592 191.855 35.3498L192.567 35.2455C193.336 35.1413 194.162 35.0655 195.102 35.0275C195.397 35.0181 195.681 35.0181 195.957 35.0181C204.986 35.0181 214.481 36.9514 222.809 40.221C223.131 40.3442 223.207 40.7612 222.97 41.0076L209.193 54.7494V54.74Z" fill="white"/>
</svg>
